<svg width="18" height="18" viewBox="0 0 18 18" fill="none" xmlns="http://www.w3.org/2000/svg">
<g id="ArrowRight">
<path id="Vector" d="M15.5855 9.39804L10.523 14.4605C10.4174 14.5661 10.2743 14.6254 10.125 14.6254C9.97573 14.6254 9.83258 14.5661 9.72703 14.4605C9.62148 14.355 9.56219 14.2118 9.56219 14.0626C9.56219 13.9133 9.62148 13.7701 9.72703 13.6646L13.8298 9.56257H2.8125C2.66332 9.56257 2.52024 9.50331 2.41475 9.39782C2.30926 9.29233 2.25 9.14925 2.25 9.00007C2.25 8.85088 2.30926 8.70781 2.41475 8.60232C2.52024 8.49683 2.66332 8.43757 2.8125 8.43757H13.8298L9.72703 4.33554C9.62148 4.22999 9.56219 4.08684 9.56219 3.93757C9.56219 3.7883 9.62148 3.64515 9.72703 3.5396C9.83258 3.43405 9.97573 3.37476 10.125 3.37476C10.2743 3.37476 10.4174 3.43405 10.523 3.5396L15.5855 8.6021C15.6378 8.65434 15.6793 8.71638 15.7076 8.78466C15.7359 8.85295 15.7504 8.92615 15.7504 9.00007C15.7504 9.07399 15.7359 9.14719 15.7076 9.21547C15.6793 9.28376 15.6378 9.3458 15.5855 9.39804Z" fill="white"/>
</g>
</svg>
