<svg width="20" height="21" viewBox="0 0 20 21" fill="none" xmlns="http://www.w3.org/2000/svg">
<g id="Gear">
<path id="Vector" d="M16.8119 10.447L16.8125 10.4241C16.8156 10.3128 16.8156 10.2014 16.8125 10.0901L16.8119 10.0672L16.8262 10.0493L17.9918 8.59309C18.0468 8.52428 18.0849 8.44351 18.1029 8.35728C18.121 8.27106 18.1186 8.1818 18.0958 8.09669L18.0958 8.09665C17.9058 7.38383 17.6221 6.69935 17.2522 6.06112C17.2082 5.98542 17.1472 5.92103 17.0739 5.87306C17.0007 5.82511 16.9173 5.7949 16.8304 5.78484C16.8304 5.78484 16.8303 5.78483 16.8303 5.78483L14.9774 5.57861L14.9547 5.57608L14.939 5.55951C14.8627 5.47904 14.7853 5.4017 14.707 5.32749L14.6906 5.31191L14.6879 5.28942L14.4692 3.43161L14.4691 3.43153C14.459 3.34449 14.4287 3.26102 14.3806 3.18777C14.3325 3.11453 14.268 3.05353 14.1921 3.00965L14.1921 3.00963C13.5539 2.63995 12.8694 2.35676 12.1566 2.16752L12.1565 2.1675C12.0714 2.14476 11.9821 2.14233 11.8959 2.1604C11.8097 2.17848 11.7289 2.21655 11.6601 2.27156L11.6601 2.27159L10.2077 3.43096L10.1906 3.44462H10.1687H10.1681H10.1674H10.1667H10.1661H10.1654H10.1648H10.1641H10.1635H10.1628H10.1621H10.1615H10.1608H10.1602H10.1595H10.1588H10.1582H10.1575H10.1569H10.1562H10.1555H10.1549H10.1542H10.1536H10.1529H10.1522H10.1516H10.1509H10.1503H10.1496H10.149H10.1483H10.1476H10.147H10.1463H10.1457H10.145H10.1443H10.1437H10.143H10.1424H10.1417H10.141H10.1404H10.1397H10.1391H10.1384H10.1377H10.1371H10.1364H10.1358H10.1351H10.1344H10.1338H10.1331H10.1325H10.1318H10.1312H10.1305H10.1298H10.1292H10.1285H10.1279H10.1272H10.1265H10.1259H10.1252H10.1246H10.1239H10.1232H10.1226H10.1219H10.1213H10.1206H10.1199H10.1193H10.1186H10.118H10.1173H10.1167H10.116H10.1153H10.1147H10.114H10.1134H10.1127H10.112H10.1114H10.1107H10.1101H10.1094H10.1087H10.1081H10.1074H10.1068H10.1061H10.1054H10.1048H10.1041H10.1035H10.1028H10.1021H10.1015H10.1008H10.1002H10.0995H10.0989H10.0982H10.0975H10.0969H10.0962H10.0956H10.0949H10.0942H10.0936H10.0929H10.0923H10.0916H10.0909H10.0903H10.0896H10.089H10.0883H10.0876H10.087H10.0863H10.0857H10.085H10.0844H10.0837H10.083H10.0824H10.0817H10.0811H10.0804H10.0797H10.0791H10.0784H10.0778H10.0771H10.0764H10.0758H10.0751H10.0745H10.0738H10.0731H10.0725H10.0718H10.0712H10.0705H10.0698H10.0692H10.0685H10.0679H10.0672H10.0666H10.0659H10.0652H10.0646H10.0639H10.0633H10.0626H10.0619H10.0613H10.0606H10.06H10.0593H10.0586H10.058H10.0573H10.0567H10.056H10.0553H10.0547H10.054H10.0534H10.0527H10.0521H10.0514H10.0507H10.0501H10.0494H10.0488H10.0481H10.0474H10.0468H10.0461H10.0455H10.0448H10.0441H10.0435H10.0428H10.0422H10.0415H10.0408H10.0402H10.0395H10.0389H10.0382H10.0375H10.0369H10.0362H10.0356H10.0349H10.0343H10.0336H10.0329H10.0323H10.0316H10.031H10.0303H10.0296H10.029H10.0283H10.0277H10.027H10.0263H10.0257H10.025H10.0244H10.0237H10.023H10.0224H10.0217H10.0211H10.0204H10.0198H10.0191H10.0184H10.0178H10.0171H10.0165H10.0158H10.0151H10.0145H10.0138H10.0132H10.0125H10.0118H10.0112H10.0105H10.0099H10.0092H10.0085H10.0079H10.0072H10.0066H10.0059H10.0052H10.0046H10.0039H10.0033H10.0026H10.002H10.0013H10.0006H9.99998H9.99932H9.99866H9.998H9.99734H9.99668H9.99602H9.99536H9.9947H9.99404H9.99338H9.99272H9.99207H9.99141H9.99075H9.99009H9.98943H9.98877H9.98811H9.98745H9.98679H9.98613H9.98547H9.98481H9.98416H9.9835H9.98284H9.98218H9.98152H9.98086H9.9802H9.97954H9.97888H9.97822H9.97756H9.9769H9.97624H9.97559H9.97493H9.97427H9.97361H9.97295H9.97229H9.97163H9.97097H9.97031H9.96965H9.96899H9.96834H9.96768H9.96702H9.96636H9.9657H9.96504H9.96438H9.96372H9.96306H9.9624H9.96174H9.96108H9.96042H9.95977H9.95911H9.95845H9.95779H9.95713H9.95647H9.95581H9.95515H9.95449H9.95383H9.95317H9.95251H9.95186H9.9512H9.95054H9.94988H9.94922H9.94856H9.9479H9.94724H9.94658H9.94592H9.94526H9.9446H9.94394H9.94329H9.94263H9.94197H9.94131H9.94065H9.93999H9.93933H9.93867H9.93801H9.93735H9.93669H9.93604H9.93538H9.93472H9.93406H9.9334H9.93274H9.93208H9.93142H9.93076H9.9301H9.92944H9.92878H9.92813H9.92747H9.92681H9.92615H9.92549H9.92483H9.92417H9.92351H9.92285H9.92219H9.92153H9.92087H9.92021H9.91956H9.9189H9.91824H9.91758H9.91692H9.91626H9.9156H9.91494H9.91428H9.91362H9.91296H9.9123H9.91165H9.91099H9.91033H9.90967H9.90901H9.90835H9.90769H9.90703H9.90637H9.90571H9.90505H9.90439H9.90374H9.90308H9.90242H9.90176H9.9011H9.90044H9.89978H9.89912H9.89846H9.8978H9.89714H9.89648H9.89583H9.89517H9.89451H9.89385H9.89319H9.89253H9.89187H9.89121H9.89055H9.88989H9.88923H9.88857H9.88791H9.88726H9.8866H9.88594H9.88528H9.88462H9.88396H9.8833H9.88264H9.88198H9.88132H9.88066H9.88H9.87935H9.87869H9.87803H9.87737H9.87671H9.87605H9.87539H9.87473H9.87407H9.87341H9.87275H9.87209H9.87144H9.87078H9.87012H9.86946H9.8688H9.86814H9.86748H9.86682H9.86616H9.8655H9.86484H9.86418H9.86353H9.86287H9.86221H9.86155H9.86089H9.86023H9.85957H9.85891H9.85825H9.85759H9.85693H9.85627H9.85561H9.85496H9.8543H9.85364H9.85298H9.85232H9.85166H9.851H9.85034H9.84968H9.84902H9.84836H9.8477H9.84705H9.84639H9.84573H9.84507H9.84441H9.84375H9.84309H9.84243H9.84177H9.84111H9.84045H9.8398H9.83914H9.83848H9.83782H9.83716H9.8365H9.83584H9.83518H9.83452H9.83386H9.8332H9.83254H9.83188H9.83123H9.80933L9.79222 3.43095L8.33597 2.26767L8.33595 2.26765C8.26714 2.21265 8.18637 2.17457 8.10014 2.1565C8.01392 2.13842 7.92466 2.14085 7.83954 2.16359L7.83951 2.1636C7.12669 2.35361 6.44221 2.63731 5.80398 3.00728C5.72828 3.05124 5.66389 3.11227 5.61592 3.18549C5.56798 3.25869 5.53778 3.34205 5.52771 3.42897C5.5277 3.42902 5.52769 3.42908 5.52769 3.42913L5.32147 5.28511L5.31896 5.30771L5.30252 5.32341C5.22195 5.40036 5.14451 5.4778 5.07021 5.55572L5.05459 5.5721L5.0321 5.57468L3.17439 5.78795C3.08735 5.79807 3.00388 5.82839 2.93063 5.87649C2.85739 5.92459 2.79639 5.98913 2.75251 6.06498L2.7525 6.065C2.38288 6.70331 2.09945 7.38777 1.9096 8.10052C1.88695 8.18569 1.88464 8.27498 1.90283 8.3612C1.92103 8.44743 1.95923 8.52817 2.01436 8.59693L2.01445 8.59703L3.17382 10.0494L3.18747 10.0665V10.0884V10.089V10.0897V10.0903V10.091V10.0917V10.0923V10.093V10.0936V10.0943V10.095V10.0956V10.0963V10.0969V10.0976V10.0983V10.0989V10.0996V10.1002V10.1009V10.1016V10.1022V10.1029V10.1035V10.1042V10.1048V10.1055V10.1062V10.1068V10.1075V10.1081V10.1088V10.1095V10.1101V10.1108V10.1114V10.1121V10.1128V10.1134V10.1141V10.1147V10.1154V10.1161V10.1167V10.1174V10.118V10.1187V10.1193V10.12V10.1207V10.1213V10.122V10.1226V10.1233V10.124V10.1246V10.1253V10.1259V10.1266V10.1273V10.1279V10.1286V10.1292V10.1299V10.1306V10.1312V10.1319V10.1325V10.1332V10.1339V10.1345V10.1352V10.1358V10.1365V10.1371V10.1378V10.1385V10.1391V10.1398V10.1404V10.1411V10.1418V10.1424V10.1431V10.1437V10.1444V10.1451V10.1457V10.1464V10.147V10.1477V10.1484V10.149V10.1497V10.1503V10.151V10.1516V10.1523V10.153V10.1536V10.1543V10.1549V10.1556V10.1563V10.1569V10.1576V10.1582V10.1589V10.1596V10.1602V10.1609V10.1615V10.1622V10.1629V10.1635V10.1642V10.1648V10.1655V10.1662V10.1668V10.1675V10.1681V10.1688V10.1694V10.1701V10.1708V10.1714V10.1721V10.1727V10.1734V10.1741V10.1747V10.1754V10.176V10.1767V10.1774V10.178V10.1787V10.1793V10.18V10.1807V10.1813V10.182V10.1826V10.1833V10.1839V10.1846V10.1853V10.1859V10.1866V10.1872V10.1879V10.1886V10.1892V10.1899V10.1905V10.1912V10.1919V10.1925V10.1932V10.1938V10.1945V10.1952V10.1958V10.1965V10.1971V10.1978V10.1985V10.1991V10.1998V10.2004V10.2011V10.2017V10.2024V10.2031V10.2037V10.2044V10.205V10.2057V10.2064V10.207V10.2077V10.2083V10.209V10.2097V10.2103V10.211V10.2116V10.2123V10.213V10.2136V10.2143V10.2149V10.2156V10.2162V10.2169V10.2176V10.2182V10.2189V10.2195V10.2202V10.2209V10.2215V10.2222V10.2228V10.2235V10.2242V10.2248V10.2255V10.2261V10.2268V10.2275V10.2281V10.2288V10.2294V10.2301V10.2307V10.2314V10.2321V10.2327V10.2334V10.234V10.2347V10.2354V10.236V10.2367V10.2373V10.238V10.2387V10.2393V10.24V10.2406V10.2413V10.242V10.2426V10.2433V10.2439V10.2446V10.2453V10.2459V10.2466V10.2472V10.2479V10.2485V10.2492V10.2499V10.2505V10.2512V10.2518V10.2525V10.2532V10.2538V10.2545V10.2551V10.2558V10.2565V10.2571V10.2578V10.2584V10.2591V10.2598V10.2604V10.2611V10.2617V10.2624V10.263V10.2637V10.2644V10.265V10.2657V10.2663V10.267V10.2677V10.2683V10.269V10.2696V10.2703V10.271V10.2716V10.2723V10.2729V10.2736V10.2743V10.2749V10.2756V10.2762V10.2769V10.2776V10.2782V10.2789V10.2795V10.2802V10.2808V10.2815V10.2822V10.2828V10.2835V10.2841V10.2848V10.2855V10.2861V10.2868V10.2874V10.2881V10.2888V10.2894V10.2901V10.2907V10.2914V10.2921V10.2927V10.2934V10.294V10.2947V10.2953V10.296V10.2967V10.2973V10.298V10.2986V10.2993V10.3V10.3006V10.3013V10.3019V10.3026V10.3033V10.3039V10.3046V10.3052V10.3059V10.3066V10.3072V10.3079V10.3085V10.3092V10.3099V10.3105V10.3112V10.3118V10.3125V10.3131V10.3138V10.3145V10.3151V10.3158V10.3164V10.3171V10.3178V10.3184V10.3191V10.3197V10.3204V10.3211V10.3217V10.3224V10.323V10.3237V10.3244V10.325V10.3257V10.3263V10.327V10.3276V10.3283V10.329V10.3296V10.3303V10.3309V10.3316V10.3323V10.3329V10.3336V10.3342V10.3349V10.3356V10.3362V10.3369V10.3375V10.3382V10.3389V10.3395V10.3402V10.3408V10.3415V10.3422V10.3428V10.3435V10.3441V10.3448V10.3454V10.3461V10.3468V10.3474V10.3481V10.3487V10.3494V10.3501V10.3507V10.3514V10.352V10.3527V10.3534V10.354V10.3547V10.3553V10.356V10.3567V10.3573V10.358V10.3586V10.3593V10.3599V10.3606V10.3613V10.3619V10.3626V10.3632V10.3639V10.3646V10.3652V10.3659V10.3665V10.3672V10.3679V10.3685V10.3692V10.3698V10.3705V10.3712V10.3718V10.3725V10.3731V10.3738V10.3745V10.3751V10.3758V10.3764V10.3771V10.3777V10.3784V10.3791V10.3797V10.3804V10.381V10.3817V10.3824V10.383V10.3837V10.3843V10.385V10.3857V10.3863V10.387V10.3876V10.3883V10.389V10.3896V10.3903V10.3909V10.3916V10.3922V10.3929V10.3936V10.3942V10.3949V10.3955V10.3962V10.3969V10.3975V10.3982V10.3988V10.3995V10.4002V10.4008V10.4015V10.4021V10.4028V10.4035V10.4041V10.4048V10.4054V10.4061V10.4068V10.4074V10.4081V10.4087V10.4094V10.41V10.4107V10.4114V10.412V10.4127V10.4133V10.414V10.4147V10.4153V10.416V10.4166V10.4173V10.418V10.4186V10.4193V10.4199V10.4206V10.4213V10.4219V10.4226V10.4232V10.4239V10.4245V10.4252V10.4259V10.4478L3.17381 10.4649L2.01053 11.9211L2.01051 11.9211C1.95551 11.99 1.91743 12.0707 1.89936 12.1569C1.88128 12.2432 1.88371 12.3324 1.90645 12.4175L1.90646 12.4176C2.09646 13.1304 2.38015 13.8149 2.75012 14.4531C2.79408 14.5288 2.85511 14.5932 2.92835 14.6412C3.00156 14.6891 3.08494 14.7193 3.17187 14.7294C3.17191 14.7294 3.17195 14.7294 3.17199 14.7294L5.02486 14.9356L5.04744 14.9381L5.06314 14.9546C5.1401 15.0351 5.21753 15.1126 5.29545 15.1869L5.31179 15.2025L5.3144 15.2249L5.53081 17.0827L5.53081 17.0827C5.54093 17.1697 5.57125 17.2532 5.61935 17.3265C5.66745 17.3997 5.73199 17.4607 5.80784 17.5046L5.80786 17.5046C6.44617 17.8742 7.13063 18.1576 7.84338 18.3475C7.84339 18.3475 7.8434 18.3475 7.84341 18.3475L7.82732 18.4079C7.92195 18.4331 8.02116 18.4356 8.11697 18.4154C8.21277 18.3952 8.30249 18.3527 8.37888 18.2915L16.8119 10.447ZM16.8119 10.447L16.8261 10.4649L17.9855 11.9172L17.9856 11.9173C18.0407 11.9861 18.0789 12.0668 18.0971 12.153C18.1153 12.2393 18.113 12.3285 18.0904 12.4137M16.8119 10.447L18.0344 11.8782M14.5344 17.0946L14.7406 15.2415C14.8219 15.1644 14.9 15.0863 14.975 15.0071L16.8328 14.7884C16.9295 14.7771 17.0222 14.7434 17.1036 14.69C17.185 14.6365 17.2528 14.5648 17.3015 14.4806C17.6739 13.8375 17.9595 13.1479 18.1508 12.4298M14.5344 17.0946L14.4723 17.0874L14.6785 15.2346L14.681 15.2119L14.6976 15.1962C14.7781 15.1198 14.8554 15.0425 14.9296 14.9641L14.9452 14.9477L14.9677 14.945L16.8255 14.7263L16.8256 14.7263C16.9126 14.7162 16.9961 14.6858 17.0693 14.6377C17.1426 14.5896 17.2036 14.5251 17.2474 14.4493L17.2475 14.4492C17.6171 13.8109 17.9005 13.1265 18.0904 12.4137M14.5344 17.0946L14.4722 17.0877L14.4723 17.0876M14.5344 17.0946C14.5232 17.1913 14.4896 17.284 14.4363 17.3653C14.383 17.4467 14.3114 17.5145 14.2273 17.5634M18.0904 12.4137L18.1508 12.4298M18.0904 12.4137C18.0904 12.4137 18.0904 12.4137 18.0904 12.4137L18.1508 12.4298M18.1508 12.4298C18.1759 12.3351 18.1785 12.2359 18.1583 12.1401C18.1381 12.0443 18.0956 11.9546 18.0344 11.8782M18.0344 11.8782L16.875 10.4259C16.8781 10.3134 16.8781 10.2009 16.875 10.0884M18.0344 11.8782L16.875 10.0884M5.25232 15.2321C5.17367 15.1571 5.09555 15.079 5.01794 14.9977L3.16482 14.7915C3.06818 14.7803 2.97548 14.7468 2.89411 14.6935C2.81273 14.6402 2.74492 14.5686 2.69607 14.4845L5.25232 15.2321ZM5.25232 15.2321L5.46872 17.0899L5.25232 15.2321ZM16.875 10.0884L18.0406 8.63212L16.875 10.0884ZM14.4723 17.0876L14.1959 17.5093L14.2273 17.5634M14.4723 17.0876C14.4622 17.1745 14.432 17.2579 14.384 17.3311C14.3361 17.4043 14.2716 17.4654 14.1959 17.5093M14.4723 17.0876L14.1959 17.5093M14.2273 17.5634C13.5845 17.9364 12.8948 18.2223 12.1765 18.4134L11.8998 18.3601C11.986 18.3782 12.0753 18.3757 12.1604 18.353L12.1605 18.353C12.8734 18.1633 13.5579 17.8796 14.1959 17.5093M14.2273 17.5634L14.1959 17.5093M8.22909 12.9074C8.75328 13.2577 9.36955 13.4446 9.99998 13.4446C10.8454 13.4446 11.6561 13.1088 12.2539 12.511C12.8517 11.9132 13.1875 11.1025 13.1875 10.2571C13.1875 9.62669 13.0005 9.01042 12.6503 8.48624C12.3 7.96205 11.8022 7.5535 11.2198 7.31225C10.6373 7.071 9.99644 7.00787 9.37813 7.13086C8.75981 7.25385 8.19185 7.55743 7.74607 8.00321C7.30029 8.44899 6.99671 9.01695 6.87372 9.63527C6.75073 10.2536 6.81385 10.8945 7.05511 11.4769C7.29636 12.0594 7.70491 12.5572 8.22909 12.9074Z" fill="white" stroke="white" stroke-width="0.125"/>
</g>
</svg>
