<svg width="24" height="25" viewBox="0 0 24 25" fill="none" xmlns="http://www.w3.org/2000/svg">
<g id="Rss">
<path id="Vector" d="M9.27281 14.8908C9.90158 15.5161 10.4001 16.2599 10.7395 17.0792C11.0788 17.8984 11.2524 18.7769 11.25 19.6636C11.25 19.8625 11.171 20.0533 11.0303 20.194C10.8897 20.3346 10.6989 20.4136 10.5 20.4136C10.3011 20.4136 10.1103 20.3346 9.96967 20.194C9.82902 20.0533 9.75 19.8625 9.75 19.6636C9.75 18.2712 9.19688 16.9359 8.21231 15.9513C7.22775 14.9668 5.89239 14.4136 4.5 14.4136C4.30109 14.4136 4.11032 14.3346 3.96967 14.194C3.82902 14.0533 3.75 13.8625 3.75 13.6636C3.75 13.4647 3.82902 13.274 3.96967 13.1333C4.11032 12.9926 4.30109 12.9136 4.5 12.9136C5.38676 12.9113 6.26519 13.0848 7.08445 13.4242C7.9037 13.7636 8.64751 14.2621 9.27281 14.8908ZM4.5 8.41363C4.30109 8.41363 4.11032 8.49265 3.96967 8.6333C3.82902 8.77395 3.75 8.96472 3.75 9.16363C3.75 9.36254 3.82902 9.55331 3.96967 9.69396C4.11032 9.83461 4.30109 9.91363 4.5 9.91363C5.78039 9.91363 7.04824 10.1658 8.23116 10.6558C9.41409 11.1458 10.4889 11.864 11.3943 12.7693C12.2997 13.6747 13.0178 14.7495 13.5078 15.9325C13.9978 17.1154 14.25 18.3832 14.25 19.6636C14.25 19.8625 14.329 20.0533 14.4697 20.194C14.6103 20.3346 14.8011 20.4136 15 20.4136C15.1989 20.4136 15.3897 20.3346 15.5303 20.194C15.671 20.0533 15.75 19.8625 15.75 19.6636C15.75 16.6799 14.5647 13.8185 12.455 11.7087C10.3452 9.5989 7.48369 8.41363 4.5 8.41363ZM15.6366 8.52707C14.1775 7.05994 12.442 5.89676 10.5304 5.10486C8.61879 4.31296 6.56912 3.90808 4.5 3.91363C4.30109 3.91363 4.11032 3.99265 3.96967 4.1333C3.82902 4.27395 3.75 4.46472 3.75 4.66363C3.75 4.86254 3.82902 5.05331 3.96967 5.19396C4.11032 5.33461 4.30109 5.41363 4.5 5.41363C6.37209 5.4085 8.22661 5.77475 9.95621 6.49117C11.6858 7.2076 13.2561 8.25997 14.5763 9.58738C15.9037 10.9075 16.956 12.4778 17.6725 14.2074C18.3889 15.937 18.7551 17.7915 18.75 19.6636C18.75 19.8625 18.829 20.0533 18.9697 20.194C19.1103 20.3346 19.3011 20.4136 19.5 20.4136C19.6989 20.4136 19.8897 20.3346 20.0303 20.194C20.171 20.0533 20.25 19.8625 20.25 19.6636C20.2556 17.5945 19.8507 15.5448 19.0588 13.6332C18.2669 11.7217 17.1037 9.98611 15.6366 8.52707ZM4.875 18.1636C4.6525 18.1636 4.43499 18.2296 4.24998 18.3532C4.06498 18.4768 3.92078 18.6525 3.83564 18.8581C3.75049 19.0637 3.72821 19.2899 3.77162 19.5081C3.81503 19.7263 3.92217 19.9268 4.07951 20.0841C4.23684 20.2415 4.4373 20.3486 4.65552 20.392C4.87375 20.4354 5.09995 20.4131 5.30552 20.328C5.51109 20.2428 5.68679 20.0987 5.8104 19.9136C5.93402 19.7286 6 19.5111 6 19.2886C6 18.9903 5.88147 18.7041 5.6705 18.4931C5.45952 18.2822 5.17337 18.1636 4.875 18.1636Z" fill="white"/>
</g>
</svg>
