<?xml version="1.0" standalone="no"?>
<!DOCTYPE svg PUBLIC "-//W3C//DTD SVG 1.1//EN" "http://www.w3.org/Graphics/SVG/1.1/DTD/svg11.dtd" >
<svg xmlns="http://www.w3.org/2000/svg" xmlns:xlink="http://www.w3.org/1999/xlink" version="1.1">
<metadata>
Created by FontForge 20201107 at Tue May 21 09:56:02 2024
 By 
Copyright (c) 2013 Dalton Maag Ltd. All rights reserved. This font may not be altered in any way without prior permission of Dalton Maag Ltd.
</metadata>
<defs>
<font id="AktivGrotesk-Light" horiz-adv-x="1212" >
  <font-face 
    font-family="AktivGrotesk-Light"
    font-weight="400"
    font-stretch="normal"
    units-per-em="2048"
    panose-1="2 11 3 4 2 2 2 2 2 4"
    ascent="1595"
    descent="-453"
    x-height="1055"
    cap-height="1462"
    bbox="-350 -446 2556 1896"
    underline-thickness="114"
    underline-position="-272"
    unicode-range="U+0008-FB04"
  />
<missing-glyph horiz-adv-x="1024" 
d="M102 0v1536h820v-1536h-820zM819 102v1332h-614v-1332h614z" />
    <glyph glyph-name="f_f" unicode="ff" horiz-adv-x="1265" 
d="M203 956h-164v99h164v121q0 78 24 135q23 55 65 94q40 37 93 55q55 19 113 19q39 0 79 -5q26 -3 76 -18l-24 -100q-25 8 -61 14q-24 4 -58 4q-80 0 -134 -42t-54 -152v-125h280v-99h-280v-956h-119v956zM836 956h-164v99h164v121q0 78 24 135q23 55 65 94q40 37 93 55
q55 19 112 19q39 0 79 -5q28 -4 77 -18l-24 -100q-25 8 -61 14q-24 4 -58 4q-80 0 -134 -42q-55 -43 -55 -152v-125h281v-99h-281v-956h-118v956z" />
    <glyph glyph-name="f_i" unicode="fi" horiz-adv-x="1050" 
d="M203 956h-164v99h164v121q0 78 24 135q23 55 65 94q40 37 93 55q55 19 113 19q39 0 79 -5q26 -3 76 -18l-24 -100q-25 8 -61 14q-24 4 -58 4q-80 0 -134 -42t-54 -152v-125h280v-99h-280v-956h-119v956zM782 1055h119v-1055h-119v1055zM774 1462h135v-178h-135v178z" />
    <glyph glyph-name="f_l" unicode="fl" horiz-adv-x="1050" 
d="M203 956h-164v99h164v121q0 78 24 135q23 55 65 94q40 37 93 55q55 19 113 19q39 0 79 -5q26 -3 76 -18l-24 -100q-25 8 -61 14q-24 4 -58 4q-80 0 -134 -42t-54 -152v-125h280v-99h-280v-956h-119v956zM782 1462h119v-1462h-119v1462z" />
    <glyph glyph-name="f_f_i" unicode="ffi" horiz-adv-x="1683" 
d="M203 956h-164v99h164v121q0 78 24 135q23 55 65 94q40 37 93 55q55 19 113 19q39 0 79 -5q26 -3 76 -18l-24 -100q-25 8 -61 14q-24 4 -58 4q-80 0 -134 -42t-54 -152v-125h280v-99h-280v-956h-119v956zM836 956h-164v99h164v121q0 78 24 135q23 55 65 94q40 37 93 55
q55 19 112 19q39 0 79 -5q28 -4 77 -18l-24 -100q-25 8 -61 14q-24 4 -58 4q-80 0 -134 -42q-55 -43 -55 -152v-125h281v-99h-281v-956h-118v956zM1415 1055h119v-1055h-119v1055zM1407 1462h135v-178h-135v178z" />
    <glyph glyph-name="f_f_l" unicode="ffl" horiz-adv-x="1683" 
d="M203 956h-164v99h164v121q0 78 24 135q23 55 65 94q40 37 93 55q55 19 113 19q39 0 79 -5q26 -3 76 -18l-24 -100q-25 8 -61 14q-24 4 -58 4q-80 0 -134 -42t-54 -152v-125h280v-99h-280v-956h-119v956zM836 956h-164v99h164v121q0 78 24 135q23 55 65 94q40 37 93 55
q55 19 112 19q39 0 79 -5q28 -4 77 -18l-24 -100q-25 8 -61 14q-24 4 -58 4q-80 0 -134 -42q-55 -43 -55 -152v-125h281v-99h-281v-956h-118v956zM1415 1462h119v-1462h-119v1462z" />
    <glyph glyph-name=".notdef" horiz-adv-x="1024" 
d="M102 0v1536h820v-1536h-820zM819 102v1332h-614v-1332h614z" />
    <glyph glyph-name=".null" horiz-adv-x="0" 
 />
    <glyph glyph-name=".null" horiz-adv-x="0" 
 />
    <glyph glyph-name=".null" horiz-adv-x="0" 
 />
    <glyph glyph-name="nonmarkingreturn" unicode="&#x9;" horiz-adv-x="458" 
 />
    <glyph glyph-name="nonmarkingreturn" unicode="&#xd;" horiz-adv-x="458" 
 />
    <glyph glyph-name="space" unicode=" " horiz-adv-x="458" 
 />
    <glyph glyph-name="exclam" unicode="!" horiz-adv-x="421" 
d="M150 1462h124l-8 -1067h-108zM137 188h148v-188h-148v188z" />
    <glyph glyph-name="quotedbl" unicode="&#x22;" horiz-adv-x="610" 
d="M399 1454h123l-14 -496h-96zM88 1454h123l-12 -496h-99z" />
    <glyph glyph-name="numbersign" unicode="#" 
d="M250 379h-213v90h227l78 455h-229v94h245l60 371h112l-63 -371h383l59 371h113l-59 -371h213v-94h-230l-78 -455h232v-90h-246l-61 -379h-113l65 379h-383l-63 -379h-111zM760 469l74 455h-383l-74 -455h383z" />
    <glyph glyph-name="dollar" unicode="$" 
d="M551 -33q-200 11 -324 105q-125 95 -143 282h111q23 -135 108 -204q86 -70 248 -80v602q-105 15 -185 42q-78 26 -132 76q-52 47 -77 119q-26 73 -26 170q0 81 32 148q31 66 88 112q60 49 133 76q78 29 167 35v164h100v-162q112 -6 187 -40q76 -34 125 -83
q48 -48 75 -107q27 -58 39 -112l-108 -27q-17 49 -39 96q-22 46 -59 81q-35 33 -89 58q-52 24 -131 30v-578l27 -4q193 -24 299 -118q104 -92 104 -286q0 -82 -27 -151t-83 -122q-55 -53 -135 -84q-81 -32 -185 -38v-190h-100v190zM651 70q158 11 233 92q77 83 77 205
q0 43 -11 90q-10 45 -38 83q-27 37 -77 66t-133 41l-51 8v-585zM551 1348q-81 -6 -141 -31q-56 -24 -95 -61q-37 -35 -53 -81q-16 -45 -16 -96q0 -58 10 -102q11 -47 42 -86q32 -40 92 -67t161 -42v566z" />
    <glyph glyph-name="percent" unicode="%" horiz-adv-x="1818" 
d="M422 575q-75 0 -138 27q-61 26 -109 80q-46 52 -72 136q-25 81 -25 194q0 111 25 192q25 82 72 136q46 54 110 81q63 27 137 27q76 0 139 -27q65 -28 109 -81t70 -136q26 -84 26 -192q0 -223 -95 -330t-249 -107zM422 674q227 0 227 338q0 336 -227 336t-227 -336
q0 -338 227 -338zM1397 -43q-76 0 -139 27q-61 26 -108 79q-46 51 -72 137q-25 81 -25 193t25 193q25 82 72 136q46 54 110 81q61 26 137 26q78 0 139 -26q65 -28 109 -81t70 -136q26 -84 26 -193q0 -223 -95 -330q-94 -106 -249 -106zM1397 55q227 0 227 338
q0 336 -227 336q-228 0 -228 -336q0 -338 228 -338zM610 0h-125l721 1415h125z" />
    <glyph glyph-name="ampersand" unicode="&#x26;" horiz-adv-x="1265" 
d="M989 150q-74 -88 -180 -135q-108 -48 -244 -48q-139 0 -232 33q-94 33 -150 88q-57 56 -81 130q-24 75 -24 159q0 86 26 150q28 69 73 121q46 53 107 96t128 77q-40 46 -57 70q-31 43 -50 80q-22 42 -37 91q-14 45 -14 103q0 63 24 119q24 55 65 95t100 64q56 23 128 23
q81 0 137 -23q58 -24 97 -63q38 -38 58 -90t20 -108q0 -75 -25 -134q-24 -56 -66 -100q-39 -40 -97 -79q-55 -37 -113 -70l397 -469q34 82 49 157q14 73 19 175h118q-4 -118 -35 -225q-29 -103 -77 -195l211 -242h-148zM477 745q-49 -28 -102 -65q-48 -34 -87 -77
q-39 -44 -61 -93q-22 -50 -22 -119q0 -70 17 -127q18 -59 61 -102q45 -45 114 -68q72 -24 181 -24q115 0 201 44q85 43 138 113zM516 872q22 11 88 51q44 26 82 63q39 37 62 81q24 45 24 102q0 103 -54 153q-55 50 -145 50q-95 0 -148 -54q-52 -53 -52 -153q0 -86 41 -153
q42 -68 102 -140z" />
    <glyph glyph-name="quotesingle" unicode="'" horiz-adv-x="299" 
d="M88 1454h123l-12 -496h-99z" />
    <glyph glyph-name="parenleft" unicode="(" horiz-adv-x="499" 
d="M356 -254q-116 177 -175 408q-58 228 -58 471t58 471q58 229 175 407h113q-117 -212 -165 -427q-48 -216 -48 -451q0 -236 48 -452q48 -215 165 -427h-113z" />
    <glyph glyph-name="parenright" unicode=")" horiz-adv-x="499" 
d="M31 -254q117 212 165 427q48 216 48 452q0 235 -48 451q-48 215 -165 427h112q117 -178 175 -407q59 -231 59 -471t-59 -471t-175 -408h-112z" />
    <glyph glyph-name="asterisk" unicode="*" horiz-adv-x="770" 
d="M319 1110l-245 82l49 108l221 -106l-16 268h118l-16 -268l221 106l45 -108l-243 -82l186 -213l-96 -70l-156 226l-156 -226l-96 70z" />
    <glyph glyph-name="plus" unicode="+" 
d="M551 643h-412v109h412v438h111v-438h411v-109h-411v-440h-111v440z" />
    <glyph glyph-name="comma" unicode="," horiz-adv-x="405" 
d="M154 197h139l-96 -398h-101z" />
    <glyph glyph-name="hyphen" unicode="-" horiz-adv-x="800" 
d="M102 653h596v-123h-596v123z" />
    <glyph glyph-name="period" unicode="." horiz-adv-x="407" 
d="M127 190h154v-190h-154v190z" />
    <glyph glyph-name="slash" unicode="/" horiz-adv-x="618" 
d="M475 1503h127l-459 -1503h-127z" />
    <glyph glyph-name="zero" unicode="0" 
d="M602 -37q-239 0 -373 179q-133 178 -133 565q0 192 36 333q36 142 104 234q69 93 162 136q96 44 212 44q118 0 212 -44q93 -43 158 -136q64 -91 99 -234t35 -333t-35 -333q-35 -141 -100 -232q-66 -91 -161 -135q-96 -44 -216 -44zM606 74q105 0 176 43q72 44 117 124
q46 83 65 198t19 268q0 150 -19 265q-19 114 -65 199q-45 83 -117 126q-73 44 -176 44q-104 0 -177 -44t-118 -126t-64 -199q-20 -122 -20 -265q0 -146 20 -268q19 -118 64 -198q44 -79 118 -124q71 -43 177 -43z" />
    <glyph glyph-name="one" unicode="1" 
d="M631 1290l-355 -215l-51 92l406 248h123v-1415h-123v1290z" />
    <glyph glyph-name="two" unicode="2" 
d="M152 111q27 24 84 75t80 71q62 55 188 165q96 82 183 166q80 77 131 147t79 145q27 72 27 156q0 153 -80 230q-78 75 -228 75q-90 0 -148 -19q-61 -20 -101 -54q-42 -36 -67 -86q-23 -47 -46 -113l-109 23q16 61 50 129q32 65 88 116q55 51 138 84t202 33q103 0 182 -30
q80 -30 134 -84q55 -54 83 -128q29 -75 29 -159q0 -96 -29 -181q-28 -83 -87 -166q-57 -81 -149 -171q-86 -85 -213 -193q-46 -38 -133 -114q-74 -64 -131 -113h754l-25 -115h-886v111z" />
    <glyph glyph-name="three" unicode="3" 
d="M231 358q11 -70 33 -122q23 -53 65 -91q42 -37 107 -55q66 -18 162 -18q172 0 255 84q83 85 83 237q0 79 -24 135q-25 57 -66 90q-46 37 -102 51q-59 15 -128 15h-172v113h172q133 0 211 72t78 212q0 131 -84 196q-83 64 -231 64q-86 0 -141 -16q-58 -17 -98 -48
q-38 -30 -65 -80q-23 -44 -46 -112l-111 21q15 60 45 124q28 60 84 112q54 51 136 81q85 31 202 31q108 0 192 -29t135 -77t77 -114t26 -138q0 -129 -51 -209q-52 -81 -158 -133q242 -95 242 -355q0 -95 -30 -174q-31 -81 -89 -138q-60 -58 -146 -91q-87 -33 -200 -33
q-140 0 -230 37q-94 38 -145 94q-54 58 -76 128q-21 67 -26 136h114z" />
    <glyph glyph-name="four" unicode="4" 
d="M94 471l690 944h125v-944h203l-22 -100h-181v-371h-118v371h-697v100zM791 471v784l-568 -784h568z" />
    <glyph glyph-name="five" unicode="5" 
d="M264 334q15 -70 39 -119q23 -48 67 -81q43 -32 100 -47q58 -15 140 -15q156 0 244 91t88 283q0 78 -17 139q-18 65 -57 111q-40 48 -101 74q-63 27 -151 27q-105 0 -186 -32q-78 -31 -145 -101h-107l60 751h745v-112h-647l-45 -519q48 36 73 51q34 20 75 35q38 14 87 22
q43 7 109 7q114 0 195 -36q82 -37 134 -97q52 -61 76 -142q25 -84 25 -173q0 -117 -32 -210q-32 -92 -91 -153q-61 -62 -143 -93q-85 -32 -189 -32q-211 0 -326 95q-113 93 -134 276h114z" />
    <glyph glyph-name="six" unicode="6" 
d="M956 1126q-23 65 -44 101q-25 42 -57 67q-33 26 -81 38q-43 11 -112 11q-87 0 -155 -29q-71 -30 -125 -105t-87 -202t-39 -325q73 115 172 167q100 52 236 52q117 0 201 -38t133 -102q51 -66 73 -149q23 -86 23 -174q0 -105 -34 -192q-35 -89 -95 -151q-61 -62 -150 -97
q-90 -35 -194 -35q-147 0 -241 59q-96 60 -147 151q-52 91 -73 209q-21 115 -21 230q0 255 45 418q44 161 118 258q71 94 167 130q95 36 193 36q185 0 276 -80q90 -80 125 -221zM618 70q168 0 260 98q93 99 93 266q0 72 -17 140q-18 70 -53 117q-39 52 -99 79
q-64 29 -155 29q-70 0 -139 -23q-68 -23 -119 -69t-80 -120q-29 -72 -24 -171q2 -67 25 -127q24 -60 65 -111q40 -49 102 -79q59 -29 141 -29z" />
    <glyph glyph-name="seven" unicode="7" 
d="M373 0q103 348 230 664q133 331 302 639h-813v112h944v-112q-167 -311 -301 -637q-133 -324 -225 -666h-137z" />
    <glyph glyph-name="eight" unicode="8" 
d="M379 719q-42 11 -87 40q-42 27 -76 70q-31 40 -54 101q-21 57 -21 131q0 79 28 154q27 73 84 125q59 54 144 83q91 31 211 31q118 0 209 -31q87 -29 145 -83q57 -52 84 -125q27 -72 27 -154q0 -76 -20 -130q-20 -55 -54 -98q-35 -45 -75 -68q-46 -27 -86 -38
q37 -10 87 -35q48 -24 91 -67t73 -105q29 -59 29 -147q0 -91 -32 -167q-31 -74 -95 -129q-62 -54 -160 -84q-96 -30 -223 -30t-223 30q-97 30 -161 84t-96 129q-32 76 -32 167q0 81 31 145q30 62 74 104q42 41 92 65q52 25 86 32zM260 1061q0 -144 84 -216q85 -73 264 -73
t263 73q83 72 83 216q0 60 -19 111q-19 52 -62 93q-40 39 -107 63q-66 24 -158 24t-158 -24q-70 -25 -109 -63q-41 -40 -61 -93q-20 -54 -20 -111zM225 371q0 -135 91 -220t292 -85q199 0 290 85t91 220q0 66 -19 119q-20 56 -65 93q-45 38 -118 59q-75 22 -179 22
q-106 0 -181 -22q-73 -21 -118 -59q-44 -36 -64 -93q-20 -55 -20 -119z" />
    <glyph glyph-name="nine" unicode="9" 
d="M266 285q27 -121 99 -168q73 -47 196 -47q95 0 163 32q71 33 119 110q46 74 71 205q24 127 24 318q-135 -221 -397 -221q-121 0 -203 39q-83 39 -132 103q-51 66 -73 149q-22 82 -22 174q0 107 33 192q34 88 96 151q61 62 147 97q87 35 193 35q143 0 234 -59
q95 -61 147 -156q53 -98 74 -217q22 -127 22 -242q0 -92 -4 -175q-4 -89 -20 -183q-15 -89 -47 -173t-86 -147t-137 -101q-84 -38 -200 -38q-180 0 -288 78q-107 77 -128 244h119zM557 621q71 0 136 21q63 20 113 66q49 45 76 110q27 66 27 157q0 70 -19 134q-20 68 -60 120
q-42 55 -102 86q-63 33 -146 33q-166 0 -257 -99q-92 -100 -92 -266q0 -70 16 -140q15 -68 52 -116q38 -51 99 -78q62 -28 157 -28z" />
    <glyph glyph-name="colon" unicode=":" horiz-adv-x="407" 
d="M127 1055h154v-191h-154v191zM127 190h154v-190h-154v190z" />
    <glyph glyph-name="semicolon" unicode=";" horiz-adv-x="407" 
d="M154 197h139l-96 -398h-101zM127 1055h154v-191h-154v191z" />
    <glyph glyph-name="less" unicode="&#x3c;" 
d="M162 739l909 437v-121l-770 -359l770 -356v-127l-909 436v90z" />
    <glyph glyph-name="equal" unicode="=" 
d="M166 983h881v-113h-881v113zM166 524h881v-112h-881v112z" />
    <glyph glyph-name="greater" unicode="&#x3e;" 
d="M141 338l764 352l-764 365v121l910 -437v-90l-910 -436v125z" />
    <glyph glyph-name="question" unicode="?" horiz-adv-x="1013" 
d="M416 418q0 72 22 128q21 53 59 102q36 46 77 86q42 40 81 81q48 48 88 113q42 68 43 162q4 130 -66 210q-71 80 -220 80q-148 0 -225 -66q-75 -65 -113 -202l-109 21q15 66 45 129q29 61 84 113t131 81q81 31 189 31q100 0 176 -30t127 -81t77 -121q25 -68 25 -149
q0 -120 -47 -205q-44 -79 -117 -149q-13 -12 -37.5 -36.5t-37.5 -36.5q-36 -34 -67 -75q-30 -39 -48 -84t-18 -102v-23h-119v23zM399 188h152v-188h-152v188z" />
    <glyph glyph-name="at" unicode="@" horiz-adv-x="1898" 
d="M1604 -123q-51 -77 -118 -138q-62 -56 -146 -95q-83 -38 -184 -56q-104 -18 -232 -18q-173 0 -326 53q-149 52 -265 157q-113 102 -179 253q-66 150 -66 342q0 178 39 319q40 144 106 250q68 108 157 187q83 73 189 126q97 49 204 73q105 24 204 24q178 0 329 -49
t266 -144q114 -94 178 -230q65 -138 65 -310q0 -150 -33 -267q-33 -118 -92 -197q-61 -82 -141 -123q-83 -42 -181 -42q-86 0 -145 37t-70 123q-69 -93 -147 -133q-77 -39 -178 -39q-83 0 -144 29q-64 30 -107 81q-44 52 -68 120q-23 66 -23 146q0 128 35 230
q35 101 100 179q63 75 151 117t195 42q97 0 165 -43t109 -123q4 25 14 71q5 22 15 70h109l-121 -663q-2 -14 -3 -19t-1 -16q0 -119 123 -119q64 0 123 32q58 31 102 95q41 60 68 160q26 98 26 227q0 150 -52 270t-147 206q-94 85 -226 130t-294 45q-175 0 -317 -62
q-144 -63 -245 -176q-100 -112 -158 -273q-56 -156 -56 -351q0 -165 53 -298q51 -129 150 -223q95 -90 229 -140q135 -50 291 -50q114 0 201 14q84 14 146 40q64 28 108 64q42 35 84 85h131zM1196 485q8 50 8 105q-2 46 -18 93q-17 47 -53 85q-27 27 -67 43q-35 14 -93 14
q-73 0 -136 -28q-65 -29 -113 -87q-48 -59 -77 -145q-28 -84 -28 -198q0 -150 65 -219q66 -70 164 -70q76 0 125 23q51 24 86 59q55 55 84 122q28 66 45 158z" />
    <glyph glyph-name="A" unicode="A" horiz-adv-x="1353" 
d="M604 1462h148l577 -1462h-135l-176 446h-688l-174 -446h-131zM973 561l-301 764l-297 -764h598z" />
    <glyph glyph-name="B" unicode="B" horiz-adv-x="1277" 
d="M168 1462h463q155 0 251 -28q95 -28 154 -79q58 -51 79 -116q22 -69 22 -139q0 -109 -52 -193q-51 -82 -172 -133q78 -27 130 -64q51 -37 84 -85q31 -46 45 -102t14 -109q0 -86 -27 -162q-26 -75 -88 -132q-61 -56 -160 -88q-101 -32 -241 -32h-502v1462zM649 821
q191 0 278 69t87 204q0 134 -87 197t-300 63h-336v-533h358zM666 111q120 0 191 20q77 21 119 58q42 36 61 93q18 54 18 121q0 150 -90 228t-293 78h-381v-598h375z" />
    <glyph glyph-name="C" unicode="C" horiz-adv-x="1452" 
d="M1339 469q-16 -113 -56 -201q-42 -92 -114 -159q-73 -68 -174 -107q-102 -39 -237 -39q-144 0 -261 49t-203 147t-132 239q-47 144 -47 329q0 189 51 333q51 145 138 242t203 147q117 50 247 50q132 0 229 -35q98 -35 163 -97q67 -64 107 -148q43 -91 66 -187l-119 -26
q-23 92 -56 161q-35 73 -86 121q-52 49 -126 76t-178 27q-120 0 -215 -50t-160 -137q-66 -88 -100 -209q-35 -123 -35 -264q0 -147 34 -265q35 -121 98 -208q64 -87 161 -136q96 -48 221 -48q121 0 199 29q81 30 134 83q49 49 81 126q30 71 45 157h122z" />
    <glyph glyph-name="D" unicode="D" horiz-adv-x="1437" 
d="M168 1462h494q152 0 276 -44q121 -43 208 -133q84 -87 131 -224q46 -134 46 -320q0 -187 -49 -325q-50 -141 -141 -232q-90 -90 -224 -138q-129 -46 -293 -46h-448v1462zM625 111q295 0 430 162q137 164 137 464q0 297 -128 457t-402 160h-369v-1243h332z" />
    <glyph glyph-name="E" unicode="E" horiz-adv-x="1204" 
d="M168 1462h919v-112h-794v-537h754v-117h-754v-581h829l-28 -115h-926v1462z" />
    <glyph glyph-name="F" unicode="F" horiz-adv-x="1132" 
d="M168 1462h879v-112h-754v-555h706v-117h-706v-678h-125v1462z" />
    <glyph glyph-name="G" unicode="G" horiz-adv-x="1456" 
d="M793 723h536v-565q-49 -48 -120 -88q-63 -36 -137 -61q-65 -22 -144 -35q-67 -11 -144 -11q-153 0 -279 50q-122 49 -211 148q-87 97 -133 239q-46 141 -46 327q0 188 50 333q49 144 137 242q87 97 206 147q120 50 256 50q230 0 357 -105t177 -294l-116 -27
q-21 68 -53 128q-33 61 -80 101t-119 65q-69 24 -166 24q-126 0 -224 -50t-163 -137q-64 -86 -99 -209q-34 -120 -34 -264q0 -149 32 -265q33 -118 101 -208q67 -88 169 -136t238 -48q120 0 229 31q111 31 197 98v407h-417v113z" />
    <glyph glyph-name="H" unicode="H" horiz-adv-x="1411" 
d="M168 1462h125v-647h825v647h125v-1462h-125v698h-825v-698h-125v1462z" />
    <glyph glyph-name="I" unicode="I" horiz-adv-x="460" 
d="M168 1462h125v-1462h-125v1462z" />
    <glyph glyph-name="J" unicode="J" horiz-adv-x="1179" 
d="M178 403q11 -73 34 -130q24 -61 66 -104q44 -46 107 -70q65 -25 162 -25q197 0 273 106q77 107 77 303v979h125v-991q0 -257 -124 -382q-124 -126 -347 -126q-206 0 -339 107t-161 333h127z" />
    <glyph glyph-name="K" unicode="K" horiz-adv-x="1302" 
d="M168 1462h125v-764l768 764h149l-542 -547l598 -915h-152l-541 834l-280 -277v-557h-125v1462z" />
    <glyph glyph-name="L" unicode="L" horiz-adv-x="1126" 
d="M168 1462h125v-1345h794l-26 -117h-893v1462z" />
    <glyph glyph-name="M" unicode="M" horiz-adv-x="1716" 
d="M168 1462h162l528 -1317l537 1317h153v-1462h-116v1253q-11 -19 -66 -157q-36 -90 -61 -151q-10 -25 -41 -99.5t-51 -123.5q-20 -48 -63.5 -154t-64.5 -156q-16 -38 -74.5 -180t-95.5 -232h-118l-512 1245v-1245h-117v1462z" />
    <glyph glyph-name="N" unicode="N" horiz-adv-x="1413" 
d="M168 1462h137l819 -1265v1265h121v-1462h-135l-821 1270v-1270h-121v1462z" />
    <glyph glyph-name="O" unicode="O" horiz-adv-x="1548" 
d="M776 -37q-142 0 -263 48q-120 47 -210 145q-89 97 -138 239q-50 145 -50 332q0 188 50 333q49 143 139 242q88 98 210 147q123 50 262 50q140 0 262 -48q121 -48 208 -144q88 -97 137 -239q51 -147 51 -331q0 -190 -50 -335q-50 -144 -136 -241q-89 -99 -208 -148
q-123 -50 -264 -50zM776 74q129 0 228 48q97 47 164 135t101 208t34 266q0 143 -35 266q-33 118 -102 208q-66 87 -165 135q-101 49 -225 49q-131 0 -232 -49q-99 -48 -165 -135q-64 -84 -99 -208q-34 -120 -34 -266q0 -144 33 -266q33 -121 99 -208q65 -86 166 -135
q99 -48 232 -48z" />
    <glyph glyph-name="P" unicode="P" horiz-adv-x="1267" 
d="M168 1462h471q161 0 262 -34q104 -35 161 -91q58 -57 81 -134q22 -75 22 -163q0 -93 -23 -172q-24 -83 -83 -143q-59 -61 -162 -97q-102 -36 -262 -36h-344v-592h-123v1462zM637 700q123 0 201 24q79 24 123 67q45 43 61 104q16 60 16 139q0 82 -18 142q-17 57 -65 99
q-45 39 -124 59q-80 20 -196 20h-344v-654h346z" />
    <glyph glyph-name="Q" unicode="Q" horiz-adv-x="1548" 
d="M1139 66q-158 -103 -363 -103q-142 0 -263 48q-120 47 -210 145q-89 97 -138 239q-50 145 -50 332q0 188 50 333q49 143 139 242q88 98 210 147q123 50 262 50q140 0 262 -48q121 -48 208 -144q88 -97 137 -239q51 -147 51 -331q0 -199 -55 -352q-54 -150 -152 -248
l180 -211l-86 -76zM879 373l86 71l182 -213q78 89 117 215q39 128 39 285q0 143 -35 266q-33 118 -102 208q-66 87 -165 135q-101 49 -225 49q-131 0 -232 -49q-99 -48 -165 -135q-64 -84 -99 -208q-34 -120 -34 -266q0 -144 33 -266q33 -121 99 -208q65 -86 166 -135
q99 -48 232 -48q167 0 285 82z" />
    <glyph glyph-name="R" unicode="R" horiz-adv-x="1271" 
d="M168 1462h459q156 0 259 -35q101 -34 160 -90q58 -55 79 -127q22 -75 22 -145q0 -139 -63 -238q-62 -98 -203 -149l315 -678h-145l-293 649q-25 -3 -72 -7q-38 -3 -78 -3h-317v-639h-123v1462zM643 750q111 0 183 21q70 21 116 63q41 38 60 98q18 57 18 131q0 69 -19 126
q-18 54 -64 91t-123 55q-81 19 -193 19h-330v-604h352z" />
    <glyph glyph-name="S" unicode="S" horiz-adv-x="1314" 
d="M215 383q33 -165 141 -237t324 -72q111 0 183 24q70 23 116 66q43 40 61 96q19 59 19 117q0 54 -11 97q-12 47 -43 84q-33 39 -92 67q-61 29 -155 45l-183 30q-98 17 -189 48q-85 30 -140 74q-57 46 -87 116q-30 69 -30 170q0 100 42 174t113 122q70 48 166 72
q91 23 201 23q139 0 230 -30q94 -31 151 -78q59 -48 92 -112q35 -67 52 -126l-115 -33q-22 67 -48 114q-28 51 -74 85q-47 35 -116 53q-73 19 -170 19q-108 0 -188 -22q-76 -21 -123 -59t-68 -90q-20 -50 -20 -112q0 -65 14 -107q15 -44 49 -77q35 -33 94 -56t146 -39
l207 -36q109 -21 191 -54q83 -34 135 -83t78 -119t26 -164q0 -84 -33 -159t-97 -130q-63 -54 -161 -88q-96 -33 -225 -33q-116 0 -220 23q-101 22 -178 72q-75 49 -126 130q-50 80 -62 195h123z" />
    <glyph glyph-name="T" unicode="T" horiz-adv-x="1208" 
d="M543 1348h-508v114h1139v-114h-506v-1348h-125v1348z" />
    <glyph glyph-name="U" unicode="U" horiz-adv-x="1384" 
d="M158 1462h125v-891q0 -247 96 -372t317 -125q115 0 190 31q77 32 125 95t69 155q22 97 22 216v891h125v-889q0 -161 -36 -277t-105 -189q-71 -76 -167 -109q-100 -35 -225 -35q-128 0 -228 35q-98 34 -168 110q-68 74 -104 192t-36 282v880z" />
    <glyph glyph-name="V" unicode="V" horiz-adv-x="1329" 
d="M29 1462h143l496 -1321l501 1321h131l-567 -1462h-135z" />
    <glyph glyph-name="W" unicode="W" horiz-adv-x="1865" 
d="M27 1462h139l344 -1306l362 1300h136l352 -1298l348 1304h131l-412 -1462h-145l-352 1300l-352 -1300h-138z" />
    <glyph glyph-name="X" unicode="X" horiz-adv-x="1255" 
d="M549 774l-479 688h149l408 -604l411 604h133l-477 -698l533 -764h-150l-461 674l-452 -674h-135z" />
    <glyph glyph-name="Y" unicode="Y" horiz-adv-x="1204" 
d="M543 633l-512 829h147l428 -723l436 723h132l-506 -829v-633h-125v633z" />
    <glyph glyph-name="Z" unicode="Z" horiz-adv-x="1198" 
d="M72 102l901 1248h-885v112h1030v-104l-899 -1243h918l-27 -115h-1038v102z" />
    <glyph glyph-name="bracketleft" unicode="[" horiz-adv-x="520" 
d="M158 1503h340v-102h-217v-1553h217v-102h-340v1757z" />
    <glyph glyph-name="backslash" unicode="\" horiz-adv-x="618" 
d="M16 1503h127l459 -1503h-127z" />
    <glyph glyph-name="bracketright" unicode="]" horiz-adv-x="520" 
d="M23 -152h217v1553h-217v102h339v-1757h-339v102z" />
    <glyph glyph-name="asciicircum" unicode="^" 
d="M553 1448h106l416 -821h-129l-344 692l-344 -692h-121z" />
    <glyph glyph-name="underscore" unicode="_" horiz-adv-x="1024" 
d="M0 -252h1024v-106h-1024v106z" />
    <glyph glyph-name="grave" unicode="`" horiz-adv-x="776" 
d="M195 1483h159l228 -275h-127z" />
    <glyph glyph-name="a" unicode="a" horiz-adv-x="1075" 
d="M815 150q-32 -39 -63 -65q-39 -33 -84 -56q-46 -24 -104 -39q-57 -15 -124 -15q-165 0 -266 80q-100 79 -100 238q0 107 45 174q44 67 120 106q78 40 170 55q90 14 197 19l205 8v33q0 155 -60 227t-216 72q-75 0 -128 -12q-54 -12 -88 -36t-55 -55q-20 -30 -31 -71
l-108 16q57 258 414 258q112 0 186 -26t122 -77q44 -47 66 -123q21 -72 21 -167v-694h-119v150zM813 561l-195 -8q-121 -5 -198 -22q-81 -18 -129 -49q-50 -32 -71 -78t-21 -109q0 -97 54 -155t189 -58q69 0 135 15q64 15 109 50q29 21 60 52q24 24 39 54q17 34 22 66
q6 37 6 87v155z" />
    <glyph glyph-name="b" unicode="b" horiz-adv-x="1193" 
d="M143 1462h119v-565q72 90 158 140t209 50q117 0 200 -41q86 -42 143 -116t84 -174q27 -101 27 -217q0 -141 -33 -241q-35 -106 -96 -179q-62 -75 -148 -113q-87 -39 -196 -39q-96 0 -185 39q-91 40 -163 137v-143h-119v1462zM258 485q0 -72 7 -121q8 -56 25 -94
q19 -43 44 -72q30 -34 65 -59q44 -35 97 -53q48 -16 112 -16q78 0 140 25t109 81q45 54 73 145q26 85 26 216q0 132 -29 215q-30 85 -77 138t-107 74t-116 21q-67 0 -115 -14q-53 -16 -102 -53q-70 -51 -112 -135q-40 -80 -40 -205v-93z" />
    <glyph glyph-name="c" unicode="c" horiz-adv-x="1134" 
d="M1036 344q-30 -178 -141 -277q-112 -100 -301 -100q-114 0 -205 38q-87 36 -151 111q-62 72 -95 175q-32 99 -32 231q0 131 34 234q33 101 99 178q63 74 154 114q88 39 206 39q174 0 278 -89q103 -88 136 -250l-115 -29q-11 54 -35 106q-22 49 -57 84t-87 56
q-50 20 -124 20q-96 0 -164 -35q-66 -34 -112 -95q-45 -60 -66 -144q-20 -80 -20 -183q0 -102 20 -182q21 -84 64 -145q45 -64 111 -97q68 -34 165 -34q154 0 224 74q72 77 96 200h118z" />
    <glyph glyph-name="d" unicode="d" horiz-adv-x="1189" 
d="M928 158q-68 -89 -155 -140t-212 -51q-117 0 -202 45q-84 44 -140 121q-55 76 -82 175q-26 95 -26 208q0 271 126 421t347 150q90 0 176 -36q89 -37 168 -140v551h119v-1462h-119v158zM934 569q0 68 -8 124q-7 47 -25 92q-16 40 -44 71q-30 33 -64 59q-49 37 -98 54
q-47 16 -109 16q-76 0 -140 -26t-109 -80q-46 -55 -73 -144q-26 -85 -26 -215q0 -132 29 -216q29 -85 77 -139q47 -53 106 -74q58 -21 117 -21q68 0 114 14q53 16 103 53q72 53 111 135q39 83 39 205v92z" />
    <glyph glyph-name="e" unicode="e" horiz-adv-x="1146" 
d="M1024 276q-24 -137 -131 -223t-303 -86q-227 0 -353 147t-126 402q0 142 35 246q36 106 101 179q66 73 151 110q84 36 192 36q127 0 209 -39q87 -41 140 -109q56 -71 79 -163q24 -94 24 -203v-75h-811q0 -88 23 -169q22 -78 68 -138q44 -57 112 -92q65 -33 156 -33
q80 0 135 15q53 14 92 44q38 29 59 66t33 85h115zM920 600q0 82 -19 158q-18 71 -57 124q-38 52 -103 81q-62 28 -151 28q-154 0 -246 -96q-93 -98 -111 -295h687z" />
    <glyph glyph-name="f" unicode="f" horiz-adv-x="632" 
d="M203 956h-164v99h164v121q0 78 24 135q23 55 65 94q40 37 93 55q55 19 113 19q39 0 79 -5q26 -3 76 -18l-24 -100q-25 8 -61 14q-24 4 -58 4q-80 0 -134 -42t-54 -152v-125h280v-99h-280v-956h-119v956z" />
    <glyph glyph-name="g" unicode="g" horiz-adv-x="1187" 
d="M258 -115q23 -105 98 -154q77 -50 232 -50q174 0 256 85t82 285v158q-67 -93 -155 -142q-91 -51 -212 -51q-117 0 -203 44q-84 43 -141 118q-54 72 -82 169q-27 95 -27 198q0 123 33 223q33 101 94 171q62 71 150 110q86 38 199 38q89 0 178 -37q88 -37 166 -139v144h118
v-1016q0 -214 -109 -336q-109 -123 -345 -123q-88 0 -167 17q-78 17 -135 52t-95 94t-48 142h113zM930 569q0 75 -7 124q-8 53 -25 92q-19 44 -44 71q-32 35 -63 59q-50 36 -99 54q-45 16 -108 16q-77 0 -140 -24q-62 -24 -110 -78q-46 -52 -74 -137q-27 -82 -27 -199
q0 -119 30 -200t77 -131q48 -51 106 -73q59 -22 121 -22q72 0 115 14q52 17 100 51q71 52 110 137q38 84 38 207v39z" />
    <glyph glyph-name="h" unicode="h" horiz-adv-x="1142" 
d="M143 1462h119v-579q86 108 183 156t208 48q182 0 267 -100q86 -101 86 -285v-702h-119v670q0 166 -60 238q-61 73 -188 73q-61 0 -130 -24q-70 -24 -124 -74q-62 -53 -92 -110q-31 -59 -31 -155v-618h-119v1462z" />
    <glyph glyph-name="i" unicode="i" horiz-adv-x="417" 
d="M150 1055h118v-1055h-118v1055zM141 1462h135v-178h-135v178z" />
    <glyph glyph-name="j" unicode="j" horiz-adv-x="417" 
d="M-145 -250q22 -8 63 -17q32 -7 86 -7q85 0 115 51q31 53 31 135v1143h118v-1071q0 -76 -7 -138q-7 -65 -33 -115q-27 -52 -75 -81q-51 -31 -139 -31q-69 0 -111 9q-39 8 -73 22zM141 1462h135v-178h-135v178z" />
    <glyph glyph-name="k" unicode="k" horiz-adv-x="1009" 
d="M143 1462h119v-899l543 492h147l-372 -348l419 -707h-143l-369 633l-225 -203v-430h-119v1462z" />
    <glyph glyph-name="l" unicode="l" horiz-adv-x="417" 
d="M150 1462h118v-1462h-118v1462z" />
    <glyph glyph-name="m" unicode="m" horiz-adv-x="1746" 
d="M143 1055h119v-174q76 103 167 155q89 51 181 51q122 0 194 -54q73 -55 107 -152q71 97 168 152q96 54 207 54q154 0 238 -81q86 -83 86 -263v-743h-119v700q0 85 -13 136q-13 52 -41 86q-26 32 -69 46q-39 13 -96 13q-51 0 -108 -17q-58 -17 -115 -65q-50 -39 -81 -94
q-32 -56 -32 -129v-676h-119v698q0 153 -53 218t-162 65q-61 0 -116 -26t-107 -72q-25 -23 -40 -39q-22 -23 -38 -53q-14 -26 -28 -72q-11 -37 -11 -94v-625h-119v1055z" />
    <glyph glyph-name="n" unicode="n" horiz-adv-x="1142" 
d="M143 1055h119v-172q86 108 183 156t208 48q182 0 267 -100q86 -101 86 -285v-702h-119v670q0 166 -60 238q-61 73 -188 73q-61 0 -130 -24q-70 -24 -124 -74q-62 -53 -92 -110q-31 -59 -31 -155v-618h-119v1055z" />
    <glyph glyph-name="o" unicode="o" horiz-adv-x="1214" 
d="M606 70q103 0 170 35q70 37 115 98q44 60 65 145q21 84 21 182q0 96 -21 178q-22 85 -65 144q-44 60 -115 97q-69 36 -170 36q-98 0 -169 -36t-114 -97q-44 -63 -65 -144q-20 -79 -20 -180q0 -100 20 -180q21 -82 65 -145q44 -62 114 -98q69 -35 169 -35zM602 -33
q-116 0 -208 39q-88 37 -153 112q-62 70 -97 175q-33 98 -33 229q0 132 35 234q35 103 101 178q65 74 156 114q88 39 207 39q118 0 207 -38q92 -39 156 -112q62 -70 97 -175q34 -101 34 -227q0 -127 -35 -234q-34 -103 -99 -179q-64 -74 -158 -115q-92 -40 -210 -40z" />
    <glyph glyph-name="p" unicode="p" horiz-adv-x="1193" 
d="M143 1055h119v-158q72 90 158 140t209 50q118 0 201 -41q84 -41 142 -116q57 -74 84 -174q27 -101 27 -217q0 -141 -33 -241q-35 -106 -96 -179q-62 -75 -148 -113q-87 -39 -196 -39q-96 0 -185 39q-91 40 -163 137v-540h-119v1452zM258 485q0 -72 7 -121q8 -56 25 -94
q19 -43 44 -72q30 -34 65 -59q44 -35 97 -53q48 -16 112 -16q78 0 140 25t109 81q45 54 73 145q26 85 26 216q0 132 -29 215q-30 85 -77 138t-107 74t-116 21q-67 0 -115 -14q-53 -16 -102 -53q-70 -51 -112 -135q-40 -80 -40 -205v-93z" />
    <glyph glyph-name="q" unicode="q" horiz-adv-x="1191" 
d="M928 158q-68 -89 -155 -140t-212 -51q-117 0 -202 45q-84 44 -140 121q-55 76 -82 175q-26 95 -26 208q0 271 126 421t347 150q90 0 176 -36q89 -37 168 -140v144h121v-1452h-121v555zM934 569q0 68 -8 124q-7 47 -25 92q-16 40 -44 71q-30 33 -64 59q-49 37 -98 54
q-47 16 -109 16q-76 0 -140 -26t-109 -80q-46 -55 -73 -144q-26 -85 -26 -215q0 -132 29 -216q29 -85 77 -139q47 -53 106 -74q58 -21 117 -21q68 0 114 14q53 16 103 53q72 53 111 135q39 83 39 205v92z" />
    <glyph glyph-name="r" unicode="r" horiz-adv-x="690" 
d="M143 1055h119v-172q62 89 146 139q82 49 174 49q29 0 42 -1q28 -2 42 -5l-15 -113q-37 6 -67 6q-55 0 -109 -19q-52 -18 -104 -67q-49 -43 -78 -99q-31 -60 -31 -138v-635h-119v1055z" />
    <glyph glyph-name="s" unicode="s" horiz-adv-x="1052" 
d="M207 293q23 -124 104 -174q83 -51 234 -51q154 0 217 57t63 143q0 35 -8 69q-7 30 -32 58q-24 27 -67 45q-47 19 -114 31l-129 21q-98 18 -150 34q-68 22 -113 55q-46 34 -70 84q-23 47 -23 123q0 67 31 126q30 57 83 95q50 36 126 58q69 20 157 20q109 0 181 -21
q74 -22 119 -58q47 -38 72 -86q24 -47 40 -105l-109 -22q-16 46 -38 83q-20 34 -54 59q-33 24 -82 36t-123 12q-82 0 -137 -15q-54 -15 -89 -42q-32 -25 -48 -62q-15 -34 -15 -71q0 -31 9 -67q7 -29 32 -52q23 -22 69 -39q45 -17 116 -29l162 -26q163 -28 247 -100
q82 -70 82 -216q0 -62 -25 -116t-76 -96q-47 -38 -126 -63q-77 -24 -174 -24q-91 0 -177 19q-81 18 -141 57q-58 38 -96 100q-37 61 -45 150h117z" />
    <glyph glyph-name="t" unicode="t" horiz-adv-x="675" 
d="M203 956h-164v99h164v291h119v-291h299v-99h-299v-690q0 -80 32 -132q33 -54 115 -54q50 0 90 8q37 8 66 18l24 -96q-25 -10 -75 -22q-46 -11 -115 -11q-89 0 -142 31q-49 29 -76 81q-26 51 -32 116q-6 66 -6 137v614z" />
    <glyph glyph-name="u" unicode="u" horiz-adv-x="1120" 
d="M139 1055h119v-670q0 -168 52 -239q52 -72 179 -72q64 0 127 24q64 24 121 74q60 52 90 110q31 59 31 154v619h119v-1055h-119v172q-166 -205 -383 -205q-180 0 -258 99t-78 286v703z" />
    <glyph glyph-name="v" unicode="v" horiz-adv-x="1015" 
d="M12 1055h138l358 -926l366 926h130l-426 -1055h-140z" />
    <glyph glyph-name="w" unicode="w" horiz-adv-x="1456" 
d="M18 1055h132l245 -922l269 916h139l262 -916l246 922h127l-310 -1055h-137l-264 922l-266 -922h-137z" />
    <glyph glyph-name="x" unicode="x" horiz-adv-x="978" 
d="M418 561l-357 494h140l291 -414l292 414h129l-348 -498l393 -557h-139l-332 473l-327 -473h-133z" />
    <glyph glyph-name="y" unicode="y" horiz-adv-x="1019" 
d="M121 -268q25 -11 52 -17t58 -6q36 0 62 8q22 7 45 30q19 19 38 55q15 29 40 87l49 125l-453 1041h137l383 -903l342 903h134l-480 -1194q-22 -56 -50 -108q-25 -47 -57 -82q-29 -32 -75 -51q-41 -17 -102 -17q-44 0 -79 5t-73 19z" />
    <glyph glyph-name="z" unicode="z" horiz-adv-x="919" 
d="M47 100l670 854h-656v101h797v-101l-670 -854h705l-21 -100h-825v100z" />
    <glyph glyph-name="braceleft" unicode="{" horiz-adv-x="538" 
d="M207 416q0 74 -29 115q-28 40 -112 40h-5v107h5q84 0 112 39q29 40 29 117v442q0 131 61 179q62 48 174 48h86v-100h-98q-60 0 -81 -29q-21 -28 -21 -82v-489q0 -155 -115 -178q115 -23 115 -179v-489q0 -53 21 -82t81 -29h98v-100h-86q-58 0 -99 10q-46 11 -75 37
q-31 28 -46 71t-15 109v443z" />
    <glyph glyph-name="bar" unicode="|" horiz-adv-x="413" 
d="M145 1503h123v-1757h-123v1757z" />
    <glyph glyph-name="braceright" unicode="}" horiz-adv-x="538" 
d="M10 -154h99q59 0 80 29q22 30 22 82v489q0 156 115 179q-115 23 -115 178v489q0 52 -22 82q-21 29 -80 29h-99v100h86q112 0 174 -48t62 -179v-442q0 -76 28 -116t113 -40h4v-107h-4q-85 0 -113 -39q-28 -38 -28 -116v-443q0 -63 -16 -109q-15 -43 -46 -71
q-29 -26 -74 -37q-41 -10 -100 -10h-86v100z" />
    <glyph glyph-name="asciitilde" unicode="~" 
d="M102 541q0 97 24 160q25 64 61 98q38 35 87 47q50 12 99 12q75 0 138 -39q56 -35 119 -86q79 -65 108 -86q52 -39 110 -39q82 0 119 48q37 47 37 171h102q0 -97 -23 -161q-23 -65 -60 -99t-86 -48q-46 -13 -97 -13q-77 0 -139 40q-54 34 -118 87q-48 39 -110 87
q-52 40 -108 40q-83 0 -120 -49q-38 -50 -38 -170h-105z" />
    <glyph glyph-name="uni00A0" unicode="&#xa0;" horiz-adv-x="458" 
 />
    <glyph glyph-name="exclamdown" unicode="&#xa1;" horiz-adv-x="421" 
d="M156 659h108l8 -1056h-125zM137 1055h148v-189h-148v189z" />
    <glyph glyph-name="cent" unicode="&#xa2;" 
d="M596 150q-212 15 -328 159t-116 391q0 122 30 221q30 100 89 172q59 73 141 116q85 45 184 55v170h100v-168q157 -10 255 -98q98 -87 126 -232l-114 -27q-21 102 -82 170q-61 69 -185 84v-911q126 12 190 84q65 72 87 178h121q-29 -161 -129 -255t-269 -109v-168h-100
v168zM596 1161q-169 -23 -243 -146t-74 -310q0 -94 17 -169q19 -83 56 -140q40 -61 99 -98q62 -39 145 -46v909z" />
    <glyph glyph-name="sterling" unicode="&#xa3;" 
d="M193 113q75 76 99 182q23 101 23 213q0 33 -4 64q-1 11 -4.5 38t-5.5 43h-147v105h135q-14 78 -19 123q-8 67 -8 137q0 109 34 190q35 85 92 137q58 54 135 81q79 28 163 28q103 0 172 -24t116 -68t73 -99q23 -49 40 -120l-108 -29q-18 62 -41 106q-22 43 -55 73
q-32 29 -80 43t-115 14q-80 0 -139 -25q-54 -23 -94 -69q-37 -43 -54 -104q-16 -58 -16 -130t6 -135q5 -55 17 -129h479v-105h-465q2 -15 4 -37.5t3 -30.5q3 -27 3 -57q0 -52 -3 -104q-3 -59 -13 -107q-10 -53 -33 -105q-23 -54 -61 -99h802l-24 -113h-907v113z" />
    <glyph glyph-name="currency" unicode="&#xa4;" 
d="M254 381q-47 63 -70 140q-24 81 -24 179q0 107 26 186q27 82 72 142l-119 129l78 78l121 -131q106 86 266 86q77 0 149 -22q68 -21 119 -64l123 131l78 -78l-123 -131q42 -63 65 -138q23 -76 23 -177q0 -102 -23 -181q-24 -81 -67 -141l127 -133l-80 -76l-125 127
q-106 -82 -274 -82q-158 0 -262 76l-117 -121l-80 76zM600 336q83 0 145 28q61 28 98 76q38 50 54 118q16 67 16 149q0 81 -16 148q-16 68 -54 118q-37 49 -98 78q-59 28 -145 28q-84 0 -143 -28t-99 -79q-37 -47 -56 -119q-17 -65 -17 -148q0 -84 17 -148q19 -69 56 -117
q38 -49 99 -76q62 -28 143 -28z" />
    <glyph glyph-name="yen" unicode="&#xa5;" 
d="M164 449h385v163l-43 64h-342v104h280l-385 635h142l409 -704l416 704h127l-381 -635h289v-104h-354l-37 -64v-163h391v-103h-391v-346h-121v346h-385v103z" />
    <glyph glyph-name="brokenbar" unicode="&#xa6;" horiz-adv-x="413" 
d="M145 1503h123v-688h-123v688zM145 469h123v-723h-123v723z" />
    <glyph glyph-name="section" unicode="&#xa7;" horiz-adv-x="1044" 
d="M205 80q23 -124 101 -174q80 -51 235 -51q91 0 144 14q57 15 89 41q33 27 45 62q12 36 12 77q0 31 -8 65q-8 32 -30 59q-23 28 -67 52q-46 25 -114 43l-174 49q-174 46 -257 122q-83 75 -83 210q0 89 58 170q58 80 166 115q-102 40 -158 97q-57 59 -57 167q0 78 32 133
q33 57 89 94q59 39 132 56q76 18 162 18q115 0 190 -25q77 -26 125 -66q49 -41 72 -89q27 -55 37 -94l-108 -25q-16 47 -35 78q-21 35 -56 61q-33 25 -90 41q-52 15 -133 15q-84 0 -146 -16q-57 -15 -93 -41q-34 -25 -49 -61t-15 -77q0 -29 8 -59q8 -29 32 -55
q24 -25 67 -49q45 -25 114 -42l174 -45q177 -45 259 -123q81 -77 81 -213q0 -92 -57 -168q-56 -75 -162 -110q100 -40 159 -108q56 -65 56 -177q0 -154 -111 -226q-113 -73 -300 -73q-89 0 -173 19q-81 18 -140 58q-61 41 -96 101q-37 62 -44 150h117zM492 410
q77 -23 139 -14q60 9 109 40q46 30 71 78t25 102q0 27 -9 65q-8 32 -31 60q-26 31 -68 54q-43 24 -116 45l-73 20q-77 21 -138 10q-58 -10 -99 -42q-40 -31 -61 -78q-22 -49 -22 -103q0 -33 8 -65q8 -31 32 -60t68 -53t115 -45z" />
    <glyph glyph-name="dieresis" unicode="&#xa8;" horiz-adv-x="776" 
d="M156 1442h133v-174h-133v174zM483 1442h135v-174h-135v174z" />
    <glyph glyph-name="copyright" unicode="&#xa9;" horiz-adv-x="1581" 
d="M1135 596q-24 -133 -111 -213q-86 -78 -233 -78q-178 0 -278 112q-99 111 -99 310q0 98 26 175t77 134q50 56 121 86q73 31 159 31q137 0 217 -68t104 -190l-102 -21q-22 89 -70 137q-50 50 -151 50q-68 0 -120 -25q-51 -25 -82 -69q-30 -43 -46 -106q-15 -60 -15 -132
q0 -70 15 -130q15 -62 46 -104q33 -45 81 -70q50 -26 119 -26q103 0 158 53t71 144h113zM791 0q-155 0 -283 52t-221 148q-94 97 -144 230q-51 135 -51 301t54 301t150 231q94 95 222 147q126 52 273 52q155 0 281 -52q129 -53 220 -147q94 -97 143 -231q50 -136 50 -301
q0 -166 -54 -301q-54 -134 -148 -230q-95 -97 -220 -148q-126 -52 -272 -52zM788 102q128 0 233 45t182 128q76 82 120 199q43 114 43 257t-43 257q-43 116 -120 198q-75 81 -182 127q-105 45 -233 45q-129 0 -234 -45q-107 -46 -182 -127q-77 -83 -119 -198t-42 -257
q0 -141 42 -257t119 -199t182 -128t234 -45z" />
    <glyph glyph-name="ordfeminine" unicode="&#xaa;" horiz-adv-x="868" 
d="M637 799q-44 -47 -111 -80t-149 -33q-129 0 -206 60t-77 176q0 80 33 129q32 48 87 77q53 28 126 40q67 11 152 16l141 6v16q0 102 -39 154q-39 53 -152 53q-52 0 -90 -9q-36 -9 -61 -26t-39 -40q-16 -26 -23 -52l-90 14q21 100 94 149q74 50 213 50q165 0 231 -78
t66 -213v-503h-106v94zM635 1106l-135 -6q-87 -5 -141 -16q-57 -12 -90 -32q-31 -19 -48 -54q-14 -29 -14 -74q0 -65 38 -105q37 -39 134 -39q36 0 81 8q39 7 91 37q47 27 66 71q18 42 18 103v107z" />
    <glyph glyph-name="guillemotleft" unicode="&#xab;" horiz-adv-x="960" 
d="M98 526l291 453h115l-268 -451l268 -458h-119zM485 526l291 453h115l-268 -451l268 -458h-119z" />
    <glyph glyph-name="logicalnot" unicode="&#xac;" 
d="M127 874h917v-544h-108v438h-809v106z" />
    <glyph glyph-name="uni00AD" unicode="&#xad;" horiz-adv-x="800" 
d="M102 653h596v-123h-596v123z" />
    <glyph glyph-name="registered" unicode="&#xae;" horiz-adv-x="983" 
d="M332 1276h153q57 0 89 -11q36 -13 54 -29q19 -18 25 -40t6 -47q0 -45 -15 -71q-15 -25 -56 -42l90 -174h-92l-78 156h-92v-156h-84v414zM494 1090q55 0 68 19t13 46q0 24 -17 38q-18 15 -77 15h-65v-118h78zM489 623q-91 0 -168 30q-78 31 -133 87q-56 58 -86 138
q-30 81 -30 183t32 182t90 138q57 57 133 87q79 31 162 31q92 0 171 -31q78 -31 133 -87q56 -57 85 -138q29 -80 29 -182t-33 -183q-34 -83 -89 -138q-57 -57 -133 -87t-163 -30zM487 705q146 0 236 93t90 263t-90 263t-236 93q-145 0 -233 -93q-88 -92 -88 -263t88 -263
q88 -93 233 -93z" />
    <glyph glyph-name="macron" unicode="&#xaf;" horiz-adv-x="776" 
d="M137 1389h500v-105h-500v105z" />
    <glyph glyph-name="degree" unicode="&#xb0;" horiz-adv-x="647" 
d="M51 1186q0 56 21 106q22 51 57 85q37 36 87 57q47 20 110 20q59 0 106 -20q48 -20 86 -57q35 -34 57 -85q21 -50 21 -106q0 -60 -21 -109q-21 -50 -57 -86t-86 -57t-106 -21q-60 0 -110 21q-52 22 -87 57q-36 36 -57 86t-21 109zM326 1006q72 0 119 48q47 49 47 130
q0 78 -47 128t-119 50q-77 0 -124 -50q-46 -49 -46 -128q0 -83 46 -130q46 -48 124 -48z" />
    <glyph glyph-name="plusminus" unicode="&#xb1;" 
d="M137 111h938v-111h-938v111zM551 643h-412v109h412v438h111v-438h411v-109h-411v-440h-111v440z" />
    <glyph glyph-name="twosuperior" unicode="&#xb2;" horiz-adv-x="843" 
d="M131 690q46 41 106 87q58 45 105 85q95 81 108 92q43 36 75 76q28 36 44 76q15 39 15 92q0 73 -40 113q-41 41 -118 41q-87 0 -130 -38t-67 -118l-104 18q11 41 32 84q20 42 53 75t86 54t128 21q68 0 122 -20q53 -20 86 -53q34 -33 50 -77q16 -42 16 -90q0 -60 -14 -105
q-15 -48 -46 -94q-32 -48 -84 -95q-55 -51 -128 -109q-46 -37 -62 -49q-21 -16 -67 -54h410l-23 -98h-553v86z" />
    <glyph glyph-name="threesuperior" unicode="&#xb3;" horiz-adv-x="843" 
d="M207 831q6 -34 18 -64q11 -28 36 -53q23 -23 60 -37q35 -13 89 -13q97 0 141 43q45 43 45 122q0 85 -48 120q-47 34 -122 34h-102v88h102q66 0 110 38t44 112q0 69 -45 104q-46 35 -125 35q-93 0 -136 -43q-42 -42 -63 -109l-96 21q7 33 26 74q17 37 53 70t86 53
q55 22 126 22q140 0 209 -60t69 -157q0 -70 -28 -115q-27 -44 -78 -78q69 -33 98 -83t29 -121q0 -114 -71 -187q-71 -72 -220 -72q-91 0 -148 27q-55 26 -91 65q-32 35 -48 83q-15 44 -16 81h96z" />
    <glyph glyph-name="acute" unicode="&#xb4;" horiz-adv-x="776" 
d="M422 1483h160l-260 -275h-127z" />
    <glyph glyph-name="mu" unicode="&#xb5;" horiz-adv-x="1120" 
d="M139 1055h119v-682q0 -168 61 -233q61 -66 189 -66q56 0 110 22q52 21 121 76q54 45 86 101q33 59 33 135v647h119v-1055h-119v168q-86 -108 -179 -155q-92 -46 -196 -46q-68 0 -125 15t-100 65v-446h-119v1454z" />
    <glyph glyph-name="paragraph" unicode="&#xb6;" horiz-adv-x="1193" 
d="M508 645q-130 0 -216 34q-89 35 -141 90q-55 58 -77 130q-23 75 -23 154q0 83 27 158q27 74 90 130q64 56 168 89q102 32 258 32h448v-1747h-127v1641h-280v-1641h-127v930z" />
    <glyph glyph-name="periodcentered" unicode="&#xb7;" horiz-adv-x="407" 
d="M127 860h154v-190h-154v190z" />
    <glyph glyph-name="cedilla" unicode="&#xb8;" horiz-adv-x="776" 
d="M209 -315q41 -6 56 -7q34 -2 54 -2q71 0 102 18q32 18 32 58q0 38 -35 55q-36 17 -127 17h-25l64 182h94l-39 -106q106 -12 144 -56t38 -100q0 -92 -67 -126t-178 -34q-21 0 -57 2q-28 2 -56 6v93z" />
    <glyph glyph-name="onesuperior" unicode="&#xb9;" horiz-adv-x="843" 
d="M412 1300l-201 -100l-45 86l244 133h120v-815h-118v696z" />
    <glyph glyph-name="ordmasculine" unicode="&#xba;" horiz-adv-x="884" 
d="M442 778q70 0 119 24q51 25 80 65q30 41 45 100q14 53 14 125q0 69 -14 122q-15 58 -45 101q-29 42 -80 67q-52 25 -119 25q-66 0 -118 -25q-51 -25 -80 -67q-30 -43 -45 -101q-15 -57 -15 -124t15 -124t45 -99q29 -40 80 -65q50 -24 118 -24zM438 684q-83 0 -150 29
q-66 29 -115 82t-74 128q-25 74 -25 167q0 90 27 167q27 76 77 131q49 53 117 82q69 29 149 29q170 0 269 -108q98 -107 98 -295q0 -91 -26 -169q-27 -80 -74 -130q-51 -54 -118 -83q-69 -30 -155 -30z" />
    <glyph glyph-name="guillemotright" unicode="&#xbb;" horiz-adv-x="980" 
d="M745 520l-268 459h119l287 -457l-291 -452h-115zM338 520l-268 459h118l287 -457l-291 -452h-114z" />
    <glyph glyph-name="onequarter" unicode="&#xbc;" horiz-adv-x="1837" 
d="M332 1300l-201 -100l-45 86l244 133h121v-815h-119v696zM582 0h-125l721 1415h125zM1096 281l422 536h100v-520h106l-20 -90h-86v-205h-102v205h-420v74zM1516 297v381l-299 -381h299z" />
    <glyph glyph-name="onehalf" unicode="&#xbd;" horiz-adv-x="1837" 
d="M332 1300l-201 -100l-45 86l244 133h121v-815h-119v696zM535 0h-125l720 1415h125zM1124 88q46 41 106 87q58 45 105 85q95 81 108 92q46 39 76 76q28 36 44 76q14 36 14 92q0 73 -40 113q-41 41 -118 41q-87 0 -130 -38q-42 -37 -66 -118l-105 18q11 41 32 84
q20 42 53 75t86 54t128 21q68 0 122 -20q53 -20 86 -53q34 -33 50 -77q17 -45 17 -90q0 -57 -15 -105t-46 -94q-32 -48 -84 -95q-55 -51 -128 -109q-46 -37 -62 -49q-21 -16 -67 -54h410l-23 -98h-553v86z" />
    <glyph glyph-name="threequarters" unicode="&#xbe;" horiz-adv-x="1837" 
d="M207 831q6 -34 18 -64q11 -28 36 -53q23 -23 60 -37q35 -13 89 -13q97 0 141 43q45 43 45 122q0 85 -48 120q-47 34 -122 34h-102v88h102q66 0 110 38t44 112q0 69 -45 104q-46 35 -125 35q-93 0 -136 -43q-42 -42 -63 -109l-96 21q7 33 26 74q17 37 53 70t86 53
q55 22 126 22q140 0 209 -60t69 -157q0 -70 -28 -115q-27 -44 -78 -78q69 -33 98 -83t29 -121q0 -114 -71 -187q-71 -72 -220 -72q-91 0 -148 27q-55 26 -91 65q-32 35 -48 83q-15 44 -16 81h96zM676 0h-125l721 1415h125zM1096 281l422 536h100v-520h106l-20 -90h-86v-205
h-102v205h-420v74zM1516 297v381l-299 -381h299z" />
    <glyph glyph-name="questiondown" unicode="&#xbf;" horiz-adv-x="1009" 
d="M975 -70q-15 -66 -45 -129q-29 -61 -84 -113t-131 -81q-81 -31 -189 -31q-98 0 -176 29q-74 28 -127 79q-51 50 -77 119q-25 68 -25 150q0 121 47 204q44 78 117 148q72 69 75 72q34 32 67 74q30 39 48 84q19 47 19 102v22h118v-22q0 -73 -22 -127q-21 -52 -59 -101
q-36 -46 -77 -86q-42 -41 -81 -81q-48 -48 -88 -112q-42 -66 -43 -161q-5 -131 66 -209q70 -77 220 -77q148 0 225 66q75 65 113 202zM477 1055h152v-189h-152v189z" />
    <glyph glyph-name="Agrave" unicode="&#xc0;" horiz-adv-x="1353" 
d="M604 1462h148l577 -1462h-135l-176 446h-688l-174 -446h-131zM973 561l-301 764l-297 -764h598zM420 1849h162l227 -264h-129z" />
    <glyph glyph-name="Aacute" unicode="&#xc1;" horiz-adv-x="1353" 
d="M604 1462h148l577 -1462h-135l-176 446h-688l-174 -446h-131zM973 561l-301 764l-297 -764h598zM772 1849h162l-260 -264h-129z" />
    <glyph glyph-name="Acircumflex" unicode="&#xc2;" horiz-adv-x="1353" 
d="M604 1462h148l577 -1462h-135l-176 446h-688l-174 -446h-131zM973 561l-301 764l-297 -764h598zM618 1849h117l230 -264h-125l-164 170l-164 -170h-125z" />
    <glyph glyph-name="Atilde" unicode="&#xc3;" horiz-adv-x="1353" 
d="M604 1462h148l577 -1462h-135l-176 446h-688l-174 -446h-131zM973 561l-301 764l-297 -764h598zM328 1602q0 100 51 157q52 58 143 58q52 0 95 -19q37 -16 73 -41q35 -24 65 -41q31 -18 72 -18q59 0 80 35t21 82h98q0 -102 -51 -159t-144 -57q-52 0 -95 19q-30 13 -72 40
q-44 28 -66 40q-33 18 -72 18q-59 0 -80 -34q-20 -33 -20 -80h-98z" />
    <glyph glyph-name="Adieresis" unicode="&#xc4;" horiz-adv-x="1353" 
d="M604 1462h148l577 -1462h-135l-176 446h-688l-174 -446h-131zM973 561l-301 764l-297 -764h598zM438 1806h137v-178h-137v178zM774 1806h139v-178h-139v178z" />
    <glyph glyph-name="Aring" unicode="&#xc5;" horiz-adv-x="1353" 
d="M580 1401q-45 23 -71 65q-28 45 -28 109q0 97 59 147t136 50q37 0 74 -13q33 -12 62 -37q28 -25 44 -61t16 -86q0 -63 -27 -107q-26 -42 -71 -65l555 -1403h-135l-176 446h-688l-174 -446h-131zM973 561l-301 764l-297 -764h598zM676 1464q50 0 77 27t27 84q0 60 -27 87
q-28 28 -77 28q-46 0 -76 -28q-29 -27 -29 -87q0 -57 29 -84t76 -27z" />
    <glyph glyph-name="AE" unicode="&#xc6;" horiz-adv-x="2072" 
d="M885 1462h1071v-112h-744v-537h703v-117h-703v-581h779l-29 -115h-868v510h-641l-306 -510h-137zM1094 625v725h-146l-428 -725h574z" />
    <glyph glyph-name="Ccedilla" unicode="&#xc7;" horiz-adv-x="1452" 
d="M575 -344q33 -4 59 -6q34 -2 56 -2q137 0 137 82q0 42 -36 59q-37 18 -130 18h-26l55 160q-127 10 -235 65q-107 54 -182 150q-73 94 -116 233q-42 137 -42 312q0 189 51 333q51 145 138 242t203 147q117 50 247 50q132 0 229 -35q98 -35 163 -97q67 -64 107 -148
q43 -91 66 -187l-119 -26q-23 92 -56 161q-35 73 -86 121q-52 49 -126 76t-178 27q-120 0 -215 -50t-160 -137q-66 -88 -100 -209q-35 -123 -35 -264q0 -147 34 -265q35 -121 98 -208q64 -87 161 -136q96 -48 221 -48q121 0 199 29q81 30 134 83q49 49 81 126q30 71 45 157
h122q-16 -109 -54 -196q-41 -92 -108 -158q-69 -67 -165 -108q-93 -39 -226 -44l-28 -78q110 -12 149 -58q39 -47 39 -106q0 -46 -18 -79q-19 -34 -52 -53q-34 -19 -81 -27q-50 -8 -103 -8q-22 0 -58 2q-30 2 -59 6v94z" />
    <glyph glyph-name="Egrave" unicode="&#xc8;" horiz-adv-x="1204" 
d="M168 1462h919v-112h-794v-537h754v-117h-754v-581h829l-28 -115h-926v1462zM397 1849h162l227 -264h-129z" />
    <glyph glyph-name="Eacute" unicode="&#xc9;" horiz-adv-x="1204" 
d="M168 1462h919v-112h-794v-537h754v-117h-754v-581h829l-28 -115h-926v1462zM717 1849h162l-261 -264h-129z" />
    <glyph glyph-name="Ecircumflex" unicode="&#xca;" horiz-adv-x="1204" 
d="M168 1462h919v-112h-794v-537h754v-117h-754v-581h829l-28 -115h-926v1462zM575 1849h117l230 -264h-125l-164 170l-164 -170h-125z" />
    <glyph glyph-name="Edieresis" unicode="&#xcb;" horiz-adv-x="1204" 
d="M168 1462h919v-112h-794v-537h754v-117h-754v-581h829l-28 -115h-926v1462zM395 1806h137v-178h-137v178zM731 1806h139v-178h-139v178z" />
    <glyph glyph-name="Igrave" unicode="&#xcc;" horiz-adv-x="460" 
d="M168 1462h125v-1462h-125v1462zM-45 1849h162l227 -264h-129z" />
    <glyph glyph-name="Iacute" unicode="&#xcd;" horiz-adv-x="460" 
d="M168 1462h125v-1462h-125v1462zM348 1849h162l-260 -264h-129z" />
    <glyph glyph-name="Icircumflex" unicode="&#xce;" horiz-adv-x="460" 
d="M168 1462h125v-1462h-125v1462zM174 1849h117l229 -264h-125l-164 170l-163 -170h-125z" />
    <glyph glyph-name="Idieresis" unicode="&#xcf;" horiz-adv-x="460" 
d="M168 1462h125v-1462h-125v1462zM-6 1806h137v-178h-137v178zM330 1806h139v-178h-139v178z" />
    <glyph glyph-name="Eth" unicode="&#xd0;" horiz-adv-x="1458" 
d="M188 700h-168v111h168v651h494q152 0 276 -44q121 -43 208 -133q84 -87 131 -224q46 -134 46 -320q0 -187 -49 -325q-50 -141 -141 -232t-223 -138q-129 -46 -293 -46h-449v700zM645 111q295 0 430 162q137 164 137 464q0 297 -128 457t-402 160h-369v-543h408v-111h-408
v-589h332z" />
    <glyph glyph-name="Ntilde" unicode="&#xd1;" horiz-adv-x="1413" 
d="M168 1462h137l819 -1265v1265h121v-1462h-135l-821 1270v-1270h-121v1462zM373 1602q0 100 51 157q52 58 143 58q53 0 96 -19q34 -15 72 -41q35 -24 65 -41q32 -18 72 -18q59 0 80 35t21 82h98q0 -102 -51 -159t-143 -57q-53 0 -96 19q-30 13 -72 40q-44 28 -66 40
q-33 18 -72 18q-58 0 -79 -34t-21 -80h-98z" />
    <glyph glyph-name="Ograve" unicode="&#xd2;" horiz-adv-x="1548" 
d="M776 -37q-142 0 -263 48q-120 47 -210 145q-89 97 -138 239q-50 145 -50 332q0 188 50 333q49 143 139 242q88 98 210 147q123 50 262 50q140 0 262 -48q121 -48 208 -144q88 -97 137 -239q51 -147 51 -331q0 -190 -50 -335q-50 -144 -136 -241q-89 -99 -208 -148
q-123 -50 -264 -50zM776 74q129 0 228 48q97 47 164 135t101 208t34 266q0 143 -35 266q-33 118 -102 208q-66 87 -165 135q-101 49 -225 49q-131 0 -232 -49q-99 -48 -165 -135q-64 -84 -99 -208q-34 -120 -34 -266q0 -144 33 -266q33 -121 99 -208q65 -86 166 -135
q99 -48 232 -48zM524 1849h162l227 -264h-129z" />
    <glyph glyph-name="Oacute" unicode="&#xd3;" horiz-adv-x="1548" 
d="M776 -37q-142 0 -263 48q-120 47 -210 145q-89 97 -138 239q-50 145 -50 332q0 188 50 333q49 143 139 242q88 98 210 147q123 50 262 50q140 0 262 -48q121 -48 208 -144q88 -97 137 -239q51 -147 51 -331q0 -190 -50 -335q-50 -144 -136 -241q-89 -99 -208 -148
q-123 -50 -264 -50zM776 74q129 0 228 48q97 47 164 135t101 208t34 266q0 143 -35 266q-33 118 -102 208q-66 87 -165 135q-101 49 -225 49q-131 0 -232 -49q-99 -48 -165 -135q-64 -84 -99 -208q-34 -120 -34 -266q0 -144 33 -266q33 -121 99 -208q65 -86 166 -135
q99 -48 232 -48zM862 1849h162l-260 -264h-129z" />
    <glyph glyph-name="Ocircumflex" unicode="&#xd4;" horiz-adv-x="1548" 
d="M776 -37q-142 0 -263 48q-120 47 -210 145q-89 97 -138 239q-50 145 -50 332q0 188 50 333q49 143 139 242q88 98 210 147q123 50 262 50q140 0 262 -48q121 -48 208 -144q88 -97 137 -239q51 -147 51 -331q0 -190 -50 -335q-50 -144 -136 -241q-89 -99 -208 -148
q-123 -50 -264 -50zM776 74q129 0 228 48q97 47 164 135t101 208t34 266q0 143 -35 266q-33 118 -102 208q-66 87 -165 135q-101 49 -225 49q-131 0 -232 -49q-99 -48 -165 -135q-64 -84 -99 -208q-34 -120 -34 -266q0 -144 33 -266q33 -121 99 -208q65 -86 166 -135
q99 -48 232 -48zM717 1849h117l229 -264h-125l-164 170l-164 -170h-125z" />
    <glyph glyph-name="Otilde" unicode="&#xd5;" horiz-adv-x="1548" 
d="M776 -37q-142 0 -263 48q-120 47 -210 145q-89 97 -138 239q-50 145 -50 332q0 188 50 333q49 143 139 242q88 98 210 147q123 50 262 50q140 0 262 -48q121 -48 208 -144q88 -97 137 -239q51 -147 51 -331q0 -190 -50 -335q-50 -144 -136 -241q-89 -99 -208 -148
q-123 -50 -264 -50zM776 74q129 0 228 48q97 47 164 135t101 208t34 266q0 143 -35 266q-33 118 -102 208q-66 87 -165 135q-101 49 -225 49q-131 0 -232 -49q-99 -48 -165 -135q-64 -84 -99 -208q-34 -120 -34 -266q0 -144 33 -266q33 -121 99 -208q65 -86 166 -135
q99 -48 232 -48zM426 1602q0 100 51 157q52 58 144 58q52 0 95 -19q34 -15 72 -41q35 -24 65 -41q32 -18 73 -18q59 0 80 35q20 33 20 82h98q0 -102 -51 -159t-143 -57q-52 0 -95 19q-34 15 -73 40q-44 28 -66 40q-33 18 -71 18q-59 0 -80 -34t-21 -80h-98z" />
    <glyph glyph-name="Odieresis" unicode="&#xd6;" horiz-adv-x="1548" 
d="M776 -37q-142 0 -263 48q-120 47 -210 145q-89 97 -138 239q-50 145 -50 332q0 188 50 333q49 143 139 242q88 98 210 147q123 50 262 50q140 0 262 -48q121 -48 208 -144q88 -97 137 -239q51 -147 51 -331q0 -190 -50 -335q-50 -144 -136 -241q-89 -99 -208 -148
q-123 -50 -264 -50zM776 74q129 0 228 48q97 47 164 135t101 208t34 266q0 143 -35 266q-33 118 -102 208q-66 87 -165 135q-101 49 -225 49q-131 0 -232 -49q-99 -48 -165 -135q-64 -84 -99 -208q-34 -120 -34 -266q0 -144 33 -266q33 -121 99 -208q65 -86 166 -135
q99 -48 232 -48zM537 1806h137v-178h-137v178zM872 1806h140v-178h-140v178z" />
    <glyph glyph-name="multiply" unicode="&#xd7;" 
d="M199 354l336 334l-359 356l74 74l356 -352l357 352l73 -74l-358 -356l336 -334l-74 -78l-334 336l-336 -336z" />
    <glyph glyph-name="Oslash" unicode="&#xd8;" horiz-adv-x="1548" 
d="M319 139q-98 95 -151 243t-53 345q0 188 50 333q49 143 139 242q88 98 210 147q123 50 262 50q214 0 371 -108l110 168l93 -62l-117 -178q94 -95 147 -241q54 -148 54 -341q0 -190 -50 -335q-50 -144 -136 -241q-89 -99 -208 -148q-123 -50 -264 -50q-213 0 -373 107
l-108 -164l-90 59zM1081 1290q-127 99 -305 99q-131 0 -232 -49q-99 -48 -165 -135q-64 -84 -99 -208q-34 -120 -34 -266q0 -153 36 -276q36 -124 107 -211zM467 166q128 -92 309 -92q129 0 228 48q97 47 164 135t101 208t34 266q0 147 -36 270q-35 120 -106 211z" />
    <glyph glyph-name="Ugrave" unicode="&#xd9;" horiz-adv-x="1384" 
d="M158 1462h125v-891q0 -247 96 -372t317 -125q115 0 190 31q77 32 125 95t69 155q22 97 22 216v891h125v-889q0 -161 -36 -277t-105 -189q-71 -76 -167 -109q-100 -35 -225 -35q-128 0 -228 35q-98 34 -168 110q-68 74 -104 192t-36 282v880zM436 1849h162l227 -264h-129z
" />
    <glyph glyph-name="Uacute" unicode="&#xda;" horiz-adv-x="1384" 
d="M158 1462h125v-891q0 -247 96 -372t317 -125q115 0 190 31q77 32 125 95t69 155q22 97 22 216v891h125v-889q0 -161 -36 -277t-105 -189q-71 -76 -167 -109q-100 -35 -225 -35q-128 0 -228 35q-98 34 -168 110q-68 74 -104 192t-36 282v880zM788 1849h162l-260 -264h-129
z" />
    <glyph glyph-name="Ucircumflex" unicode="&#xdb;" horiz-adv-x="1384" 
d="M158 1462h125v-891q0 -247 96 -372t317 -125q115 0 190 31q77 32 125 95t69 155q22 97 22 216v891h125v-889q0 -161 -36 -277t-105 -189q-71 -76 -167 -109q-100 -35 -225 -35q-128 0 -228 35q-98 34 -168 110q-68 74 -104 192t-36 282v880zM635 1849h117l229 -264h-125
l-164 170l-164 -170h-125z" />
    <glyph glyph-name="Udieresis" unicode="&#xdc;" horiz-adv-x="1384" 
d="M158 1462h125v-891q0 -247 96 -372t317 -125q115 0 190 31q77 32 125 95t69 155q22 97 22 216v891h125v-889q0 -161 -36 -277t-105 -189q-71 -76 -167 -109q-100 -35 -225 -35q-128 0 -228 35q-98 34 -168 110q-68 74 -104 192t-36 282v880zM455 1806h137v-178h-137v178z
M791 1806h139v-178h-139v178z" />
    <glyph glyph-name="Yacute" unicode="&#xdd;" horiz-adv-x="1204" 
d="M543 633l-512 829h147l428 -723l436 723h132l-506 -829v-633h-125v633zM696 1849h162l-260 -264h-129z" />
    <glyph glyph-name="Thorn" unicode="&#xde;" horiz-adv-x="1267" 
d="M168 1462h123v-284h348q161 0 262 -34q104 -35 161 -91q58 -57 81 -134q22 -75 22 -163q0 -95 -23 -173q-25 -83 -83 -143q-59 -61 -162 -97q-102 -36 -262 -36h-344v-307h-123v1462zM637 416q126 0 201 23q79 24 123 67q45 43 61 104q16 60 16 140q0 81 -18 141
q-17 57 -65 99q-47 41 -124 60q-76 19 -196 19h-344v-653h346z" />
    <glyph glyph-name="germandbls" unicode="&#xdf;" horiz-adv-x="1148" 
d="M147 1075q0 186 107 295t293 109q103 0 179 -26q75 -25 123 -72q49 -48 71 -109q22 -62 22 -137q0 -124 -49 -206q-49 -83 -156 -126q60 -11 119 -40q60 -30 107 -80q44 -47 76 -120q30 -69 30 -162q0 -91 -23 -164q-25 -79 -76 -136q-52 -58 -137 -92q-84 -34 -206 -34
q-64 0 -131 13q-64 13 -93 24l25 101q32 -12 84 -23q56 -12 115 -12q93 0 155 24t98 68q35 42 50 102q14 56 14 129q0 83 -29 147q-28 62 -78 103q-51 42 -121 61q-69 19 -155 19h-121v105h95q143 0 214 75q72 77 72 219q0 55 -14 98q-15 47 -47 80q-31 33 -83 53
q-48 19 -122 19q-142 0 -215 -76q-74 -77 -74 -221v-1083h-119v1075z" />
    <glyph glyph-name="agrave" unicode="&#xe0;" horiz-adv-x="1075" 
d="M815 150q-32 -39 -63 -65q-39 -33 -84 -56q-46 -24 -104 -39q-57 -15 -124 -15q-165 0 -266 80q-100 79 -100 238q0 107 45 174q44 67 120 106q78 40 170 55q90 14 197 19l205 8v33q0 155 -60 227t-216 72q-75 0 -128 -12q-54 -12 -88 -36t-55 -55q-20 -30 -31 -71
l-108 16q57 258 414 258q112 0 186 -26t122 -77q44 -47 66 -123q21 -72 21 -167v-694h-119v150zM813 561l-195 -8q-121 -5 -198 -22q-81 -18 -129 -49q-50 -32 -71 -78t-21 -109q0 -97 54 -155t189 -58q69 0 135 15q64 15 109 50q29 21 60 52q24 24 39 54q17 34 22 66
q6 37 6 87v155zM305 1483h160l227 -275h-127z" />
    <glyph glyph-name="aacute" unicode="&#xe1;" horiz-adv-x="1075" 
d="M815 150q-32 -39 -63 -65q-39 -33 -84 -56q-46 -24 -104 -39q-57 -15 -124 -15q-165 0 -266 80q-100 79 -100 238q0 107 45 174q44 67 120 106q78 40 170 55q90 14 197 19l205 8v33q0 155 -60 227t-216 72q-75 0 -128 -12q-54 -12 -88 -36t-55 -55q-20 -30 -31 -71
l-108 16q57 258 414 258q112 0 186 -26t122 -77q44 -47 66 -123q21 -72 21 -167v-694h-119v150zM813 561l-195 -8q-121 -5 -198 -22q-81 -18 -129 -49q-50 -32 -71 -78t-21 -109q0 -97 54 -155t189 -58q69 0 135 15q64 15 109 50q29 21 60 52q24 24 39 54q17 34 22 66
q6 37 6 87v155zM635 1483h160l-260 -275h-127z" />
    <glyph glyph-name="acircumflex" unicode="&#xe2;" horiz-adv-x="1075" 
d="M815 150q-32 -39 -63 -65q-39 -33 -84 -56q-46 -24 -104 -39q-57 -15 -124 -15q-165 0 -266 80q-100 79 -100 238q0 107 45 174q44 67 120 106q78 40 170 55q90 14 197 19l205 8v33q0 155 -60 227t-216 72q-75 0 -128 -12q-54 -12 -88 -36t-55 -55q-20 -30 -31 -71
l-108 16q57 258 414 258q112 0 186 -26t122 -77q44 -47 66 -123q21 -72 21 -167v-694h-119v150zM813 561l-195 -8q-121 -5 -198 -22q-81 -18 -129 -49q-50 -32 -71 -78t-21 -109q0 -97 54 -155t189 -58q69 0 135 15q64 15 109 50q29 21 60 52q24 24 39 54q17 34 22 66
q6 37 6 87v155zM481 1483h117l229 -275h-120l-168 185l-168 -185h-121z" />
    <glyph glyph-name="atilde" unicode="&#xe3;" horiz-adv-x="1075" 
d="M815 150q-32 -39 -63 -65q-39 -33 -84 -56q-46 -24 -104 -39q-57 -15 -124 -15q-165 0 -266 80q-100 79 -100 238q0 107 45 174q44 67 120 106q78 40 170 55q90 14 197 19l205 8v33q0 155 -60 227t-216 72q-75 0 -128 -12q-54 -12 -88 -36t-55 -55q-20 -30 -31 -71
l-108 16q57 258 414 258q112 0 186 -26t122 -77q44 -47 66 -123q21 -72 21 -167v-694h-119v150zM813 561l-195 -8q-121 -5 -198 -22q-81 -18 -129 -49q-50 -32 -71 -78t-21 -109q0 -97 54 -155t189 -58q69 0 135 15q64 15 109 50q29 21 60 52q24 24 39 54q17 34 22 66
q6 37 6 87v155zM186 1241q0 99 52 157q50 56 139 56q55 0 94 -18q33 -15 72 -40q53 -34 64 -40q33 -19 71 -19q58 0 77 34t19 79h98q0 -100 -51 -157q-50 -56 -139 -56q-55 0 -94 18q-33 15 -72 40q-53 34 -64 40q-33 19 -71 19q-58 0 -77 -34t-19 -79h-99z" />
    <glyph glyph-name="adieresis" unicode="&#xe4;" horiz-adv-x="1075" 
d="M815 150q-32 -39 -63 -65q-39 -33 -84 -56q-46 -24 -104 -39q-57 -15 -124 -15q-165 0 -266 80q-100 79 -100 238q0 107 45 174q44 67 120 106q78 40 170 55q90 14 197 19l205 8v33q0 155 -60 227t-216 72q-75 0 -128 -12q-54 -12 -88 -36t-55 -55q-20 -30 -31 -71
l-108 16q57 258 414 258q112 0 186 -26t122 -77q44 -47 66 -123q21 -72 21 -167v-694h-119v150zM813 561l-195 -8q-121 -5 -198 -22q-81 -18 -129 -49q-50 -32 -71 -78t-21 -109q0 -97 54 -155t189 -58q69 0 135 15q64 15 109 50q29 21 60 52q24 24 39 54q17 34 22 66
q6 37 6 87v155zM299 1442h133v-174h-133v174zM627 1442h135v-174h-135v174z" />
    <glyph glyph-name="aring" unicode="&#xe5;" horiz-adv-x="1075" 
d="M815 150q-32 -39 -63 -65q-39 -33 -84 -56q-46 -24 -104 -39q-57 -15 -124 -15q-165 0 -266 80q-100 79 -100 238q0 107 45 174q44 67 120 106q78 40 170 55q90 14 197 19l205 8v33q0 155 -60 227t-216 72q-75 0 -128 -12q-54 -12 -88 -36t-55 -55q-20 -30 -31 -71
l-108 16q57 258 414 258q112 0 186 -26t122 -77q44 -47 66 -123q21 -72 21 -167v-694h-119v150zM813 561l-195 -8q-121 -5 -198 -22q-81 -18 -129 -49q-50 -32 -71 -78t-21 -109q0 -97 54 -155t189 -58q69 0 135 15q64 15 109 50q29 21 60 52q24 24 39 54q17 34 22 66
q6 37 6 87v155zM340 1399q0 95 57 145q56 49 135 49q37 0 73 -12q34 -11 63 -37q27 -24 43 -61q16 -36 16 -84q0 -50 -16 -85q-17 -37 -43 -60q-25 -22 -63 -35q-39 -13 -73 -13q-78 0 -135 48t-57 145zM532 1286q47 0 75 28t28 85t-28 85q-27 27 -75 27q-47 0 -74 -27
q-28 -28 -28 -85t28 -85t74 -28z" />
    <glyph glyph-name="ae" unicode="&#xe6;" horiz-adv-x="1822" 
d="M125 829q57 258 407 258q159 0 241 -52q84 -54 118 -150q66 101 164 151q99 51 217 51q124 0 206 -39q86 -41 138 -109q55 -72 78 -163q24 -94 24 -203v-75h-798q0 -91 22 -169t68 -138q44 -58 110 -92q63 -33 152 -33q76 0 130 15q52 14 91 44q37 28 58 66q22 40 34 85
h115q-24 -137 -130 -223t-298 -86q-78 0 -146 20t-115 53q-50 35 -87 79q-38 46 -60 94q-23 -42 -54 -79q-36 -44 -86 -78q-51 -35 -122 -58t-160 -23q-82 0 -149 21q-70 22 -117 60q-49 40 -76 100q-26 58 -26 137q0 106 44 174q43 66 116 106q74 40 167 55q90 14 193 19
l205 8v33q0 75 -14 134q-13 54 -44 93q-29 37 -83 55q-50 17 -130 17q-146 0 -210 -48t-85 -126zM801 561l-195 -8q-118 -5 -194 -22q-80 -18 -125 -49q-47 -32 -68 -78q-20 -44 -20 -109q0 -97 55 -155t190 -58q68 0 129 15t105 50q29 21 60 52q23 23 37 54q15 33 20 66
q6 37 6 87v155zM1595 600q0 86 -18 158q-18 71 -57 124q-39 52 -101 81q-60 28 -147 28q-150 0 -240 -96q-89 -95 -110 -295h673z" />
    <glyph glyph-name="ccedilla" unicode="&#xe7;" horiz-adv-x="1134" 
d="M389 -315q41 -6 56 -7q34 -2 55 -2q70 0 101 18q32 18 32 58q0 38 -35 55q-36 17 -127 17h-25l52 151q-187 29 -287 172t-100 375q0 131 34 234q33 101 99 178q63 74 154 114q88 39 206 39q174 0 278 -89q103 -88 136 -250l-115 -29q-11 54 -35 106q-22 49 -57 84t-87 56
q-50 20 -124 20q-96 0 -164 -35q-66 -34 -112 -95q-45 -60 -66 -144q-20 -80 -20 -183q0 -102 20 -182q21 -84 64 -145q45 -64 111 -97q68 -34 165 -34q154 0 224 74q72 77 96 200h118q-30 -178 -141 -277q-112 -100 -301 -100h-4l-25 -67q107 -12 145 -56t38 -100
q0 -91 -68 -126q-67 -34 -178 -34q-21 0 -57 2q-28 2 -56 6v93z" />
    <glyph glyph-name="egrave" unicode="&#xe8;" horiz-adv-x="1146" 
d="M1024 276q-24 -137 -131 -223t-303 -86q-227 0 -353 147t-126 402q0 142 35 246q36 106 101 179q66 73 151 110q84 36 192 36q127 0 209 -39q87 -41 140 -109q56 -71 79 -163q24 -94 24 -203v-75h-811q0 -88 23 -169q22 -78 68 -138q44 -57 112 -92q65 -33 156 -33
q80 0 135 15q53 14 92 44q38 29 59 66t33 85h115zM920 600q0 82 -19 158q-18 71 -57 124q-38 52 -103 81q-62 28 -151 28q-154 0 -246 -96q-93 -98 -111 -295h687zM340 1483h160l227 -275h-127z" />
    <glyph glyph-name="eacute" unicode="&#xe9;" horiz-adv-x="1146" 
d="M1024 276q-24 -137 -131 -223t-303 -86q-227 0 -353 147t-126 402q0 142 35 246q36 106 101 179q66 73 151 110q84 36 192 36q127 0 209 -39q87 -41 140 -109q56 -71 79 -163q24 -94 24 -203v-75h-811q0 -88 23 -169q22 -78 68 -138q44 -57 112 -92q65 -33 156 -33
q80 0 135 15q53 14 92 44q38 29 59 66t33 85h115zM920 600q0 82 -19 158q-18 71 -57 124q-38 52 -103 81q-62 28 -151 28q-154 0 -246 -96q-93 -98 -111 -295h687zM688 1483h160l-260 -275h-127z" />
    <glyph glyph-name="ecircumflex" unicode="&#xea;" horiz-adv-x="1146" 
d="M1024 276q-24 -137 -131 -223t-303 -86q-227 0 -353 147t-126 402q0 142 35 246q36 106 101 179q66 73 151 110q84 36 192 36q127 0 209 -39q87 -41 140 -109q56 -71 79 -163q24 -94 24 -203v-75h-811q0 -88 23 -169q22 -78 68 -138q44 -57 112 -92q65 -33 156 -33
q80 0 135 15q53 14 92 44q38 29 59 66t33 85h115zM920 600q0 82 -19 158q-18 71 -57 124q-38 52 -103 81q-62 28 -151 28q-154 0 -246 -96q-93 -98 -111 -295h687zM524 1483h117l229 -275h-120l-168 185l-168 -185h-121z" />
    <glyph glyph-name="edieresis" unicode="&#xeb;" horiz-adv-x="1146" 
d="M1024 276q-24 -137 -131 -223t-303 -86q-227 0 -353 147t-126 402q0 142 35 246q36 106 101 179q66 73 151 110q84 36 192 36q127 0 209 -39q87 -41 140 -109q56 -71 79 -163q24 -94 24 -203v-75h-811q0 -88 23 -169q22 -78 68 -138q44 -57 112 -92q65 -33 156 -33
q80 0 135 15q53 14 92 44q38 29 59 66t33 85h115zM920 600q0 82 -19 158q-18 71 -57 124q-38 52 -103 81q-62 28 -151 28q-154 0 -246 -96q-93 -98 -111 -295h687zM350 1442h133v-174h-133v174zM678 1442h135v-174h-135v174z" />
    <glyph glyph-name="igrave" unicode="&#xec;" horiz-adv-x="417" 
d="M150 1055h118v-1055h-118v1055zM-96 1483h159l228 -275h-127z" />
    <glyph glyph-name="iacute" unicode="&#xed;" horiz-adv-x="417" 
d="M150 1055h118v-1055h-118v1055zM362 1483h160l-260 -275h-127z" />
    <glyph glyph-name="icircumflex" unicode="&#xee;" horiz-adv-x="417" 
d="M150 1055h118v-1055h-118v1055zM154 1483h116l230 -275h-121l-168 185l-168 -185h-121z" />
    <glyph glyph-name="idieresis" unicode="&#xef;" horiz-adv-x="417" 
d="M150 1055h118v-1055h-118v1055zM-20 1442h133v-174h-133v174zM307 1442h135v-174h-135v174z" />
    <glyph glyph-name="eth" unicode="&#xf0;" horiz-adv-x="1214" 
d="M408 1200l131 131q-117 40 -269 51l21 101q88 -7 174 -26q82 -18 153 -46l136 133l69 -71l-110 -109q197 -113 294 -317t97 -490q0 -136 -35 -247q-34 -108 -99 -185q-64 -76 -158 -117t-210 -41t-208 39q-89 38 -153 108q-63 69 -97 162q-33 90 -33 205q0 116 35 208
q36 95 101 166t154 111t199 40q120 0 195 -34q77 -35 145 -100q-30 151 -107 254q-77 102 -194 164l-162 -160zM977 528q0 151 -80 248q-52 65 -126 96t-175 31q-94 0 -162 -35q-68 -34 -111 -93q-45 -60 -65 -133q-20 -71 -20 -155q0 -83 20 -154q20 -73 65 -133
q43 -58 114 -93q72 -35 169 -35q104 0 170 33q71 35 115 93q44 57 65 133q21 75 21 158v39z" />
    <glyph glyph-name="ntilde" unicode="&#xf1;" horiz-adv-x="1142" 
d="M143 1055h119v-172q86 108 183 156t208 48q182 0 267 -100q86 -101 86 -285v-702h-119v670q0 166 -60 238q-61 73 -188 73q-61 0 -130 -24q-70 -24 -124 -74q-62 -53 -92 -110q-31 -59 -31 -155v-618h-119v1055zM248 1241q0 100 51 157q50 56 139 56q55 0 94 -18
q33 -15 72 -40q44 -28 65 -40q33 -19 70 -19q58 0 77 34q20 35 20 79h98q0 -100 -51 -157q-50 -56 -140 -56q-55 0 -94 18q-30 14 -71 40q-44 28 -65 40q-33 19 -71 19q-57 0 -76 -34q-20 -35 -20 -79h-98z" />
    <glyph glyph-name="ograve" unicode="&#xf2;" horiz-adv-x="1214" 
d="M606 70q103 0 170 35q70 37 115 98q44 60 65 145q21 84 21 182q0 96 -21 178q-22 85 -65 144q-44 60 -115 97q-69 36 -170 36q-98 0 -169 -36t-114 -97q-44 -63 -65 -144q-20 -79 -20 -180q0 -100 20 -180q21 -82 65 -145q44 -62 114 -98q69 -35 169 -35zM602 -33
q-116 0 -208 39q-88 37 -153 112q-62 70 -97 175q-33 98 -33 229q0 132 35 234q35 103 101 178q65 74 156 114q88 39 207 39q118 0 207 -38q92 -39 156 -112q62 -70 97 -175q34 -101 34 -227q0 -127 -35 -234q-34 -103 -99 -179q-64 -74 -158 -115q-92 -40 -210 -40z
M362 1483h160l228 -275h-127z" />
    <glyph glyph-name="oacute" unicode="&#xf3;" horiz-adv-x="1214" 
d="M606 70q103 0 170 35q70 37 115 98q44 60 65 145q21 84 21 182q0 96 -21 178q-22 85 -65 144q-44 60 -115 97q-69 36 -170 36q-98 0 -169 -36t-114 -97q-44 -63 -65 -144q-20 -79 -20 -180q0 -100 20 -180q21 -82 65 -145q44 -62 114 -98q69 -35 169 -35zM602 -33
q-116 0 -208 39q-88 37 -153 112q-62 70 -97 175q-33 98 -33 229q0 132 35 234q35 103 101 178q65 74 156 114q88 39 207 39q118 0 207 -38q92 -39 156 -112q62 -70 97 -175q34 -101 34 -227q0 -127 -35 -234q-34 -103 -99 -179q-64 -74 -158 -115q-92 -40 -210 -40z
M723 1483h160l-260 -275h-127z" />
    <glyph glyph-name="ocircumflex" unicode="&#xf4;" horiz-adv-x="1214" 
d="M606 70q103 0 170 35q70 37 115 98q44 60 65 145q21 84 21 182q0 96 -21 178q-22 85 -65 144q-44 60 -115 97q-69 36 -170 36q-98 0 -169 -36t-114 -97q-44 -63 -65 -144q-20 -79 -20 -180q0 -100 20 -180q21 -82 65 -145q44 -62 114 -98q69 -35 169 -35zM602 -33
q-116 0 -208 39q-88 37 -153 112q-62 70 -97 175q-33 98 -33 229q0 132 35 234q35 103 101 178q65 74 156 114q88 39 207 39q118 0 207 -38q92 -39 156 -112q62 -70 97 -175q34 -101 34 -227q0 -127 -35 -234q-34 -103 -99 -179q-64 -74 -158 -115q-92 -40 -210 -40z
M549 1483h117l229 -275h-121l-168 185l-168 -185h-121z" />
    <glyph glyph-name="otilde" unicode="&#xf5;" horiz-adv-x="1214" 
d="M606 70q103 0 170 35q70 37 115 98q44 60 65 145q21 84 21 182q0 96 -21 178q-22 85 -65 144q-44 60 -115 97q-69 36 -170 36q-98 0 -169 -36t-114 -97q-44 -63 -65 -144q-20 -79 -20 -180q0 -100 20 -180q21 -82 65 -145q44 -62 114 -98q69 -35 169 -35zM602 -33
q-116 0 -208 39q-88 37 -153 112q-62 70 -97 175q-33 98 -33 229q0 132 35 234q35 103 101 178q65 74 156 114q88 39 207 39q118 0 207 -38q92 -39 156 -112q62 -70 97 -175q34 -101 34 -227q0 -127 -35 -234q-34 -103 -99 -179q-64 -74 -158 -115q-92 -40 -210 -40z
M264 1241q0 100 51 157q50 56 140 56q55 0 94 -18q33 -15 72 -40q53 -34 64 -40q33 -19 71 -19q58 0 77 34t19 79h98q0 -100 -51 -157q-50 -56 -139 -56q-55 0 -94 18q-33 15 -72 40q-44 28 -65 40q-33 19 -70 19q-58 0 -77 -34q-20 -35 -20 -79h-98z" />
    <glyph glyph-name="odieresis" unicode="&#xf6;" horiz-adv-x="1214" 
d="M606 70q103 0 170 35q70 37 115 98q44 60 65 145q21 84 21 182q0 96 -21 178q-22 85 -65 144q-44 60 -115 97q-69 36 -170 36q-98 0 -169 -36t-114 -97q-44 -63 -65 -144q-20 -79 -20 -180q0 -100 20 -180q21 -82 65 -145q44 -62 114 -98q69 -35 169 -35zM602 -33
q-116 0 -208 39q-88 37 -153 112q-62 70 -97 175q-33 98 -33 229q0 132 35 234q35 103 101 178q65 74 156 114q88 39 207 39q118 0 207 -38q92 -39 156 -112q62 -70 97 -175q34 -101 34 -227q0 -127 -35 -234q-34 -103 -99 -179q-64 -74 -158 -115q-92 -40 -210 -40z
M375 1442h133v-174h-133v174zM702 1442h136v-174h-136v174z" />
    <glyph glyph-name="divide" unicode="&#xf7;" 
d="M532 1157h146v-176h-146v176zM532 412h146v-176h-146v176zM166 754h881v-113h-881v113z" />
    <glyph glyph-name="oslash" unicode="&#xf8;" horiz-adv-x="1214" 
d="M262 94q-151 147 -151 428q0 132 35 234q35 103 101 178q65 74 156 114q88 39 207 39q156 0 267 -71l90 135l84 -57l-95 -142q73 -73 110 -178q38 -108 38 -239q0 -127 -35 -234q-34 -103 -99 -179q-64 -74 -158 -115q-92 -40 -210 -40q-152 0 -260 66l-90 -137l-84 57z
M817 926q-83 59 -211 59q-98 0 -169 -36t-114 -97q-44 -63 -65 -144q-20 -79 -20 -180q0 -100 21 -186q20 -83 69 -147zM403 123q83 -53 203 -53q103 0 170 35q70 37 115 98q44 60 65 145q21 84 21 182t-21 180q-22 85 -65 144z" />
    <glyph glyph-name="ugrave" unicode="&#xf9;" horiz-adv-x="1120" 
d="M139 1055h119v-670q0 -168 52 -239q52 -72 179 -72q64 0 127 24q64 24 121 74q60 52 90 110q31 59 31 154v619h119v-1055h-119v172q-166 -205 -383 -205q-180 0 -258 99t-78 286v703zM285 1483h159l228 -275h-127z" />
    <glyph glyph-name="uacute" unicode="&#xfa;" horiz-adv-x="1120" 
d="M139 1055h119v-670q0 -168 52 -239q52 -72 179 -72q64 0 127 24q64 24 121 74q60 52 90 110q31 59 31 154v619h119v-1055h-119v172q-166 -205 -383 -205q-180 0 -258 99t-78 286v703zM678 1483h160l-260 -275h-127z" />
    <glyph glyph-name="ucircumflex" unicode="&#xfb;" horiz-adv-x="1120" 
d="M139 1055h119v-670q0 -168 52 -239q52 -72 179 -72q64 0 127 24q64 24 121 74q60 52 90 110q31 59 31 154v619h119v-1055h-119v172q-166 -205 -383 -205q-180 0 -258 99t-78 286v703zM504 1483h117l229 -275h-121l-168 185l-168 -185h-121z" />
    <glyph glyph-name="udieresis" unicode="&#xfc;" horiz-adv-x="1120" 
d="M139 1055h119v-670q0 -168 52 -239q52 -72 179 -72q64 0 127 24q64 24 121 74q60 52 90 110q31 59 31 154v619h119v-1055h-119v172q-166 -205 -383 -205q-180 0 -258 99t-78 286v703zM326 1442h133v-174h-133v174zM653 1442h135v-174h-135v174z" />
    <glyph glyph-name="yacute" unicode="&#xfd;" horiz-adv-x="1019" 
d="M121 -268q25 -11 52 -17t58 -6q36 0 62 8q22 7 45 30q19 19 38 55q15 29 40 87l49 125l-453 1041h137l383 -903l342 903h134l-480 -1194q-22 -56 -50 -108q-25 -47 -57 -82q-29 -32 -75 -51q-41 -17 -102 -17q-44 0 -79 5t-73 19zM606 1483h160l-260 -275h-127z" />
    <glyph glyph-name="thorn" unicode="&#xfe;" horiz-adv-x="1193" 
d="M143 1462h119v-565q72 90 158 140t209 50q118 0 201 -41q84 -41 142 -116q57 -74 84 -174q27 -101 27 -217q0 -141 -33 -241q-35 -106 -96 -179q-62 -75 -148 -113q-87 -39 -196 -39q-96 0 -185 39q-91 40 -163 137v-540h-119v1859zM258 485q0 -72 7 -121q8 -56 25 -94
q19 -43 44 -72q30 -34 65 -59q44 -35 97 -53q48 -16 112 -16q78 0 140 25t109 81q45 54 73 145q26 85 26 216q0 132 -29 215q-30 85 -77 138t-107 74t-116 21q-67 0 -115 -14q-53 -16 -102 -53q-70 -51 -112 -135q-40 -80 -40 -205v-93z" />
    <glyph glyph-name="ydieresis" unicode="&#xff;" horiz-adv-x="1019" 
d="M121 -268q25 -11 52 -17t58 -6q36 0 62 8q22 7 45 30q19 19 38 55q15 29 40 87l49 125l-453 1041h137l383 -903l342 903h134l-480 -1194q-22 -56 -50 -108q-25 -47 -57 -82q-29 -32 -75 -51q-41 -17 -102 -17q-44 0 -79 5t-73 19zM279 1442h133v-174h-133v174zM606 1442
h135v-174h-135v174z" />
    <glyph glyph-name="Amacron" unicode="&#x100;" horiz-adv-x="1353" 
d="M604 1462h148l577 -1462h-135l-176 446h-688l-174 -446h-131zM973 561l-301 764l-297 -764h598zM387 1743h578v-109h-578v109z" />
    <glyph glyph-name="amacron" unicode="&#x101;" horiz-adv-x="1075" 
d="M815 150q-32 -39 -63 -65q-39 -33 -84 -56q-46 -24 -104 -39q-57 -15 -124 -15q-165 0 -266 80q-100 79 -100 238q0 107 45 174q44 67 120 106q78 40 170 55q90 14 197 19l205 8v33q0 155 -60 227t-216 72q-75 0 -128 -12q-54 -12 -88 -36t-55 -55q-20 -30 -31 -71
l-108 16q57 258 414 258q112 0 186 -26t122 -77q44 -47 66 -123q21 -72 21 -167v-694h-119v150zM813 561l-195 -8q-121 -5 -198 -22q-81 -18 -129 -49q-50 -32 -71 -78t-21 -109q0 -97 54 -155t189 -58q69 0 135 15q64 15 109 50q29 21 60 52q24 24 39 54q17 34 22 66
q6 37 6 87v155zM274 1389h500v-105h-500v105z" />
    <glyph glyph-name="Abreve" unicode="&#x102;" horiz-adv-x="1353" 
d="M604 1462h148l577 -1462h-135l-176 446h-688l-174 -446h-131zM973 561l-301 764l-297 -764h598zM518 1849q0 -86 44 -130t114 -44q66 0 112 44t46 130h100q0 -125 -68 -195q-68 -69 -190 -69q-124 0 -191 69q-67 68 -67 195h100z" />
    <glyph glyph-name="abreve" unicode="&#x103;" horiz-adv-x="1075" 
d="M815 150q-32 -39 -63 -65q-39 -33 -84 -56q-46 -24 -104 -39q-57 -15 -124 -15q-165 0 -266 80q-100 79 -100 238q0 107 45 174q44 67 120 106q78 40 170 55q90 14 197 19l205 8v33q0 155 -60 227t-216 72q-75 0 -128 -12q-54 -12 -88 -36t-55 -55q-20 -30 -31 -71
l-108 16q57 258 414 258q112 0 186 -26t122 -77q44 -47 66 -123q21 -72 21 -167v-694h-119v150zM813 561l-195 -8q-121 -5 -198 -22q-81 -18 -129 -49q-50 -32 -71 -78t-21 -109q0 -97 54 -155t189 -58q69 0 135 15q64 15 109 50q29 21 60 52q24 24 39 54q17 34 22 66
q6 37 6 87v155zM373 1475q0 -91 45 -136t114 -45q68 0 114 45t46 136h99q0 -127 -68 -198t-191 -71q-122 0 -190 71t-68 198h99z" />
    <glyph glyph-name="Aogonek" unicode="&#x104;" horiz-adv-x="1353" 
d="M604 1462h148l577 -1462q-131 -105 -131 -184q0 -47 28 -63q27 -15 72 -15h17q2 0 24 2v-98q-15 -4 -30 -4h-25q-107 0 -156 40t-49 119q0 98 125 203h-10l-176 446h-688l-174 -446h-131zM973 561l-301 764l-297 -764h598z" />
    <glyph glyph-name="aogonek" unicode="&#x105;" horiz-adv-x="1075" 
d="M946 -348q-15 -4 -31 -4h-24q-201 0 -201 153q0 48 31 101q30 51 94 98v150q-32 -39 -63 -65q-39 -33 -84 -56q-46 -24 -104 -39q-57 -15 -124 -15q-165 0 -266 80q-100 79 -100 238q0 107 45 174q44 67 120 106q78 40 170 55q90 14 197 19l205 8v33q0 155 -60 227
t-216 72q-75 0 -128 -12q-54 -12 -88 -36t-55 -55q-20 -30 -31 -71l-108 16q57 258 414 258q112 0 186 -26t122 -77q44 -47 66 -123q21 -72 21 -167v-694h-2q-125 -99 -125 -180q0 -46 28 -62q25 -14 70 -14h17q2 0 24 2v-94zM813 561l-195 -8q-121 -5 -198 -22
q-81 -18 -129 -49q-50 -32 -71 -78t-21 -109q0 -97 54 -155t189 -58q69 0 135 15q64 15 109 50q29 21 60 52q24 24 39 54q17 34 22 66q6 37 6 87v155z" />
    <glyph glyph-name="Cacute" unicode="&#x106;" horiz-adv-x="1452" 
d="M1339 469q-16 -113 -56 -201q-42 -92 -114 -159q-73 -68 -174 -107q-102 -39 -237 -39q-144 0 -261 49t-203 147t-132 239q-47 144 -47 329q0 189 51 333q51 145 138 242t203 147q117 50 247 50q132 0 229 -35q98 -35 163 -97q67 -64 107 -148q43 -91 66 -187l-119 -26
q-23 92 -56 161q-35 73 -86 121q-52 49 -126 76t-178 27q-120 0 -215 -50t-160 -137q-66 -88 -100 -209q-35 -123 -35 -264q0 -147 34 -265q35 -121 98 -208q64 -87 161 -136q96 -48 221 -48q121 0 199 29q81 30 134 83q49 49 81 126q30 71 45 157h122zM840 1849h161
l-260 -264h-129z" />
    <glyph glyph-name="cacute" unicode="&#x107;" horiz-adv-x="1134" 
d="M1036 344q-30 -178 -141 -277q-112 -100 -301 -100q-114 0 -205 38q-87 36 -151 111q-62 72 -95 175q-32 99 -32 231q0 131 34 234q33 101 99 178q63 74 154 114q88 39 206 39q174 0 278 -89q103 -88 136 -250l-115 -29q-11 54 -35 106q-22 49 -57 84t-87 56
q-50 20 -124 20q-96 0 -164 -35q-66 -34 -112 -95q-45 -60 -66 -144q-20 -80 -20 -183q0 -102 20 -182q21 -84 64 -145q45 -64 111 -97q68 -34 165 -34q154 0 224 74q72 77 96 200h118zM694 1483h160l-260 -275h-127z" />
    <glyph glyph-name="Ccircumflex" unicode="&#x108;" horiz-adv-x="1452" 
d="M1339 469q-16 -113 -56 -201q-42 -92 -114 -159q-73 -68 -174 -107q-102 -39 -237 -39q-144 0 -261 49t-203 147t-132 239q-47 144 -47 329q0 189 51 333q51 145 138 242t203 147q117 50 247 50q132 0 229 -35q98 -35 163 -97q67 -64 107 -148q43 -91 66 -187l-119 -26
q-23 92 -56 161q-35 73 -86 121q-52 49 -126 76t-178 27q-120 0 -215 -50t-160 -137q-66 -88 -100 -209q-35 -123 -35 -264q0 -147 34 -265q35 -121 98 -208q64 -87 161 -136q96 -48 221 -48q121 0 199 29q81 30 134 83q49 49 81 126q30 71 45 157h122zM705 1849h116
l230 -264h-125l-164 170l-164 -170h-125z" />
    <glyph glyph-name="ccircumflex" unicode="&#x109;" horiz-adv-x="1134" 
d="M1036 344q-30 -178 -141 -277q-112 -100 -301 -100q-114 0 -205 38q-87 36 -151 111q-62 72 -95 175q-32 99 -32 231q0 131 34 234q33 101 99 178q63 74 154 114q88 39 206 39q174 0 278 -89q103 -88 136 -250l-115 -29q-11 54 -35 106q-22 49 -57 84t-87 56
q-50 20 -124 20q-96 0 -164 -35q-66 -34 -112 -95q-45 -60 -66 -144q-20 -80 -20 -183q0 -102 20 -182q21 -84 64 -145q45 -64 111 -97q68 -34 165 -34q154 0 224 74q72 77 96 200h118zM545 1483h116l230 -275h-121l-168 185l-168 -185h-121z" />
    <glyph glyph-name="Cdotaccent" unicode="&#x10a;" horiz-adv-x="1452" 
d="M1339 469q-16 -113 -56 -201q-42 -92 -114 -159q-73 -68 -174 -107q-102 -39 -237 -39q-144 0 -261 49t-203 147t-132 239q-47 144 -47 329q0 189 51 333q51 145 138 242t203 147q117 50 247 50q132 0 229 -35q98 -35 163 -97q67 -64 107 -148q43 -91 66 -187l-119 -26
q-23 92 -56 161q-35 73 -86 121q-52 49 -126 76t-178 27q-120 0 -215 -50t-160 -137q-66 -88 -100 -209q-35 -123 -35 -264q0 -147 34 -265q35 -121 98 -208q64 -87 161 -136q96 -48 221 -48q121 0 199 29q81 30 134 83q49 49 81 126q30 71 45 157h122zM692 1808h139v-182
h-139v182z" />
    <glyph glyph-name="cdotaccent" unicode="&#x10b;" horiz-adv-x="1134" 
d="M1036 344q-30 -178 -141 -277q-112 -100 -301 -100q-114 0 -205 38q-87 36 -151 111q-62 72 -95 175q-32 99 -32 231q0 131 34 234q33 101 99 178q63 74 154 114q88 39 206 39q174 0 278 -89q103 -88 136 -250l-115 -29q-11 54 -35 106q-22 49 -57 84t-87 56
q-50 20 -124 20q-96 0 -164 -35q-66 -34 -112 -95q-45 -60 -66 -144q-20 -80 -20 -183q0 -102 20 -182q21 -84 64 -145q45 -64 111 -97q68 -34 165 -34q154 0 224 74q72 77 96 200h118zM535 1444h135v-178h-135v178z" />
    <glyph glyph-name="Ccaron" unicode="&#x10c;" horiz-adv-x="1452" 
d="M1339 469q-16 -113 -56 -201q-42 -92 -114 -159q-73 -68 -174 -107q-102 -39 -237 -39q-144 0 -261 49t-203 147t-132 239q-47 144 -47 329q0 189 51 333q51 145 138 242t203 147q117 50 247 50q132 0 229 -35q98 -35 163 -97q67 -64 107 -148q43 -91 66 -187l-119 -26
q-23 92 -56 161q-35 73 -86 121q-52 49 -126 76t-178 27q-120 0 -215 -50t-160 -137q-66 -88 -100 -209q-35 -123 -35 -264q0 -147 34 -265q35 -121 98 -208q64 -87 161 -136q96 -48 221 -48q121 0 199 29q81 30 134 83q49 49 81 126q30 71 45 157h122zM473 1855h127
l164 -172l164 172h123l-230 -264h-116z" />
    <glyph glyph-name="ccaron" unicode="&#x10d;" horiz-adv-x="1134" 
d="M1036 344q-30 -178 -141 -277q-112 -100 -301 -100q-114 0 -205 38q-87 36 -151 111q-62 72 -95 175q-32 99 -32 231q0 131 34 234q33 101 99 178q63 74 154 114q88 39 206 39q174 0 278 -89q103 -88 136 -250l-115 -29q-11 54 -35 106q-22 49 -57 84t-87 56
q-50 20 -124 20q-96 0 -164 -35q-66 -34 -112 -95q-45 -60 -66 -144q-20 -80 -20 -183q0 -102 20 -182q21 -84 64 -145q45 -64 111 -97q68 -34 165 -34q154 0 224 74q72 77 96 200h118zM657 1212h-116l-230 275h121l168 -184l168 184h121z" />
    <glyph glyph-name="Dcaron" unicode="&#x10e;" horiz-adv-x="1437" 
d="M168 1462h494q152 0 276 -44q121 -43 208 -133q84 -87 131 -224q46 -134 46 -320q0 -187 -49 -325q-50 -141 -141 -232q-90 -90 -224 -138q-129 -46 -293 -46h-448v1462zM625 111q295 0 430 162q137 164 137 464q0 297 -128 457t-402 160h-369v-1243h332zM326 1855h127
l163 -172l164 172h123l-229 -264h-117z" />
    <glyph glyph-name="dcaron" unicode="&#x10f;" horiz-adv-x="1189" 
d="M928 158q-68 -89 -155 -140t-212 -51q-117 0 -202 45q-84 44 -140 121q-55 76 -82 175q-26 95 -26 208q0 271 126 421t347 150q90 0 176 -36q89 -37 168 -140v551h119v-1462h-119v158zM934 569q0 68 -8 124q-7 47 -25 92q-16 40 -44 71q-30 33 -64 59q-49 37 -98 54
q-47 16 -109 16q-76 0 -140 -26t-109 -80q-46 -55 -73 -144q-26 -85 -26 -215q0 -132 29 -216q29 -85 77 -139q47 -53 106 -74q58 -21 117 -21q68 0 114 14q53 16 103 53q72 53 111 135q39 83 39 205v92zM1231 1462h125l-78 -372h-98z" />
    <glyph glyph-name="Dcroat" unicode="&#x110;" horiz-adv-x="1458" 
d="M188 700h-168v111h168v651h494q152 0 276 -44q121 -43 208 -133q84 -87 131 -224q46 -134 46 -320q0 -187 -49 -325q-50 -141 -141 -232t-223 -138q-129 -46 -293 -46h-449v700zM645 111q295 0 430 162q137 164 137 464q0 297 -128 457t-402 160h-369v-543h408v-111h-408
v-589h332z" />
    <glyph glyph-name="dcroat" unicode="&#x111;" 
d="M928 158q-68 -89 -155 -140t-212 -51q-117 0 -202 45q-83 44 -140 119q-54 72 -82 169q-26 91 -26 196q0 127 32 226q33 101 95 174q63 74 148 112q87 39 198 39q87 0 176 -37t168 -140v332h-359v103h359v157h119v-157h145v-103h-145v-1202h-119v158zM934 528
q0 67 -8 123q-7 49 -25 93q-16 40 -44 71q-30 33 -64 59q-50 35 -98 53q-45 17 -109 17q-78 0 -140 -25t-109 -80q-45 -52 -73 -139q-26 -81 -26 -202q0 -124 29 -202q30 -80 77 -132t106 -73q58 -21 117 -21q68 0 114 14q53 16 103 53q72 52 111 131q39 78 39 189v71z" />
    <glyph glyph-name="Emacron" unicode="&#x112;" horiz-adv-x="1204" 
d="M168 1462h919v-112h-794v-537h754v-117h-754v-581h829l-28 -115h-926v1462zM344 1743h578v-109h-578v109z" />
    <glyph glyph-name="emacron" unicode="&#x113;" horiz-adv-x="1146" 
d="M1024 276q-24 -137 -131 -223t-303 -86q-227 0 -353 147t-126 402q0 142 35 246q36 106 101 179q66 73 151 110q84 36 192 36q127 0 209 -39q87 -41 140 -109q56 -71 79 -163q24 -94 24 -203v-75h-811q0 -88 23 -169q22 -78 68 -138q44 -57 112 -92q65 -33 156 -33
q80 0 135 15q53 14 92 44q38 29 59 66t33 85h115zM920 600q0 82 -19 158q-18 71 -57 124q-38 52 -103 81q-62 28 -151 28q-154 0 -246 -96q-93 -98 -111 -295h687zM342 1389h500v-105h-500v105z" />
    <glyph glyph-name="Ebreve" unicode="&#x114;" horiz-adv-x="1204" 
d="M168 1462h919v-112h-794v-537h754v-117h-754v-581h829l-28 -115h-926v1462zM475 1849q0 -86 44 -130t114 -44q66 0 112 44t46 130h100q0 -125 -68 -195q-67 -69 -190 -69t-191 69q-67 68 -67 195h100z" />
    <glyph glyph-name="ebreve" unicode="&#x115;" horiz-adv-x="1146" 
d="M1024 276q-24 -137 -131 -223t-303 -86q-227 0 -353 147t-126 402q0 142 35 246q36 106 101 179q66 73 151 110q84 36 192 36q127 0 209 -39q87 -41 140 -109q56 -71 79 -163q24 -94 24 -203v-75h-811q0 -88 23 -169q22 -78 68 -138q44 -57 112 -92q65 -33 156 -33
q80 0 135 15q53 14 92 44q38 29 59 66t33 85h115zM920 600q0 82 -19 158q-18 71 -57 124q-38 52 -103 81q-62 28 -151 28q-154 0 -246 -96q-93 -98 -111 -295h687zM430 1475q0 -91 45 -136t115 -45q66 0 113 45t47 136h98q0 -127 -68 -198t-190 -71q-123 0 -191 71
q-67 70 -67 198h98z" />
    <glyph glyph-name="Edotaccent" unicode="&#x116;" horiz-adv-x="1204" 
d="M168 1462h919v-112h-794v-537h754v-117h-754v-581h829l-28 -115h-926v1462zM563 1808h139v-182h-139v182z" />
    <glyph glyph-name="edotaccent" unicode="&#x117;" horiz-adv-x="1146" 
d="M1024 276q-24 -137 -131 -223t-303 -86q-227 0 -353 147t-126 402q0 142 35 246q36 106 101 179q66 73 151 110q84 36 192 36q127 0 209 -39q87 -41 140 -109q56 -71 79 -163q24 -94 24 -203v-75h-811q0 -88 23 -169q22 -78 68 -138q44 -57 112 -92q65 -33 156 -33
q80 0 135 15q53 14 92 44q38 29 59 66t33 85h115zM920 600q0 82 -19 158q-18 71 -57 124q-38 52 -103 81q-62 28 -151 28q-154 0 -246 -96q-93 -98 -111 -295h687zM524 1444h135v-178h-135v178z" />
    <glyph glyph-name="Eogonek" unicode="&#x118;" horiz-adv-x="1204" 
d="M168 1462h919v-112h-794v-537h754v-117h-754v-581h829l-28 -115q-131 -105 -131 -184q0 -48 27 -63t73 -15h16q3 0 25 2v-98q-15 -4 -31 -4h-24q-107 0 -156 40t-49 119q0 98 125 203h-801v1462z" />
    <glyph glyph-name="eogonek" unicode="&#x119;" horiz-adv-x="1146" 
d="M805 -348q-15 -4 -31 -4h-24q-201 0 -201 153q0 84 86 168q-14 -2 -22 -2h-23q-227 0 -353 147t-126 402q0 142 35 246q36 106 101 179q66 73 151 110q84 36 192 36q127 0 209 -39q87 -41 140 -109q56 -71 79 -163q24 -94 24 -203v-75h-811q0 -88 23 -169q22 -78 68 -138
q44 -57 112 -92q65 -33 156 -33q80 0 135 15q53 14 92 44q38 29 59 66t33 85h115q-17 -96 -76 -170q-56 -71 -160 -106q-122 -98 -122 -180q0 -47 27 -62q25 -14 71 -14h16q3 0 25 2v-94zM920 600q0 82 -19 158q-18 71 -57 124q-38 52 -103 81q-62 28 -151 28
q-154 0 -246 -96q-93 -98 -111 -295h687z" />
    <glyph glyph-name="Ecaron" unicode="&#x11a;" horiz-adv-x="1204" 
d="M168 1462h919v-112h-794v-537h754v-117h-754v-581h829l-28 -115h-926v1462zM344 1855h127l164 -172l164 172h123l-230 -264h-117z" />
    <glyph glyph-name="ecaron" unicode="&#x11b;" horiz-adv-x="1146" 
d="M1024 276q-24 -137 -131 -223t-303 -86q-227 0 -353 147t-126 402q0 142 35 246q36 106 101 179q66 73 151 110q84 36 192 36q127 0 209 -39q87 -41 140 -109q56 -71 79 -163q24 -94 24 -203v-75h-811q0 -88 23 -169q22 -78 68 -138q44 -57 112 -92q65 -33 156 -33
q80 0 135 15q53 14 92 44q38 29 59 66t33 85h115zM920 600q0 82 -19 158q-18 71 -57 124q-38 52 -103 81q-62 28 -151 28q-154 0 -246 -96q-93 -98 -111 -295h687zM649 1212h-117l-229 275h121l168 -184l168 184h121z" />
    <glyph glyph-name="Gcircumflex" unicode="&#x11c;" horiz-adv-x="1456" 
d="M793 723h536v-565q-49 -48 -120 -88q-63 -36 -137 -61q-65 -22 -144 -35q-67 -11 -144 -11q-153 0 -279 50q-122 49 -211 148q-87 97 -133 239q-46 141 -46 327q0 188 50 333q49 144 137 242q87 97 206 147q120 50 256 50q230 0 357 -105t177 -294l-116 -27
q-21 68 -53 128q-33 61 -80 101t-119 65q-69 24 -166 24q-126 0 -224 -50t-163 -137q-64 -86 -99 -209q-34 -120 -34 -264q0 -149 32 -265q33 -118 101 -208q67 -88 169 -136t238 -48q120 0 229 31q111 31 197 98v407h-417v113zM707 1849h116l230 -264h-125l-164 170
l-164 -170h-125z" />
    <glyph glyph-name="gcircumflex" unicode="&#x11d;" horiz-adv-x="1187" 
d="M258 -115q23 -105 98 -154q77 -50 232 -50q174 0 256 85t82 285v158q-67 -93 -155 -142q-91 -51 -212 -51q-117 0 -203 44q-84 43 -141 118q-54 72 -82 169q-27 95 -27 198q0 123 33 223q33 101 94 171q62 71 150 110q86 38 199 38q89 0 178 -37q88 -37 166 -139v144h118
v-1016q0 -214 -109 -336q-109 -123 -345 -123q-88 0 -167 17q-78 17 -135 52t-95 94t-48 142h113zM930 569q0 75 -7 124q-8 53 -25 92q-19 44 -44 71q-32 35 -63 59q-50 36 -99 54q-45 16 -108 16q-77 0 -140 -24q-62 -24 -110 -78q-46 -52 -74 -137q-27 -82 -27 -199
q0 -119 30 -200t77 -131q48 -51 106 -73q59 -22 121 -22q72 0 115 14q52 17 100 51q71 52 110 137q38 84 38 207v39zM547 1483h117l229 -275h-121l-168 185l-168 -185h-121z" />
    <glyph glyph-name="Gbreve" unicode="&#x11e;" horiz-adv-x="1456" 
d="M793 723h536v-565q-49 -48 -120 -88q-63 -36 -137 -61q-65 -22 -144 -35q-67 -11 -144 -11q-153 0 -279 50q-122 49 -211 148q-87 97 -133 239q-46 141 -46 327q0 188 50 333q49 144 137 242q87 97 206 147q120 50 256 50q230 0 357 -105t177 -294l-116 -27
q-21 68 -53 128q-33 61 -80 101t-119 65q-69 24 -166 24q-126 0 -224 -50t-163 -137q-64 -86 -99 -209q-34 -120 -34 -264q0 -149 32 -265q33 -118 101 -208q67 -88 169 -136t238 -48q120 0 229 31q111 31 197 98v407h-417v113zM606 1849q0 -86 44 -130t114 -44q67 0 113 44
q45 43 45 130h100q0 -125 -68 -195q-68 -69 -190 -69q-124 0 -191 69q-67 68 -67 195h100z" />
    <glyph glyph-name="gbreve" unicode="&#x11f;" horiz-adv-x="1187" 
d="M258 -115q23 -105 98 -154q77 -50 232 -50q174 0 256 85t82 285v158q-67 -93 -155 -142q-91 -51 -212 -51q-117 0 -203 44q-84 43 -141 118q-54 72 -82 169q-27 95 -27 198q0 123 33 223q33 101 94 171q62 71 150 110q86 38 199 38q89 0 178 -37q88 -37 166 -139v144h118
v-1016q0 -214 -109 -336q-109 -123 -345 -123q-88 0 -167 17q-78 17 -135 52t-95 94t-48 142h113zM930 569q0 75 -7 124q-8 53 -25 92q-19 44 -44 71q-32 35 -63 59q-50 36 -99 54q-45 16 -108 16q-77 0 -140 -24q-62 -24 -110 -78q-46 -52 -74 -137q-27 -82 -27 -199
q0 -119 30 -200t77 -131q48 -51 106 -73q59 -22 121 -22q72 0 115 14q52 17 100 51q71 52 110 137q38 84 38 207v39zM444 1475q0 -91 45 -136t115 -45q68 0 114 45t46 136h98q0 -128 -67 -198q-68 -71 -191 -71q-122 0 -190 71t-68 198h98z" />
    <glyph glyph-name="Gdotaccent" unicode="&#x120;" horiz-adv-x="1456" 
d="M793 723h536v-565q-49 -48 -120 -88q-63 -36 -137 -61q-65 -22 -144 -35q-67 -11 -144 -11q-153 0 -279 50q-122 49 -211 148q-87 97 -133 239q-46 141 -46 327q0 188 50 333q49 144 137 242q87 97 206 147q120 50 256 50q230 0 357 -105t177 -294l-116 -27
q-21 68 -53 128q-33 61 -80 101t-119 65q-69 24 -166 24q-126 0 -224 -50t-163 -137q-64 -86 -99 -209q-34 -120 -34 -264q0 -149 32 -265q33 -118 101 -208q67 -88 169 -136t238 -48q120 0 229 31q111 31 197 98v407h-417v113zM694 1808h140v-182h-140v182z" />
    <glyph glyph-name="gdotaccent" unicode="&#x121;" horiz-adv-x="1187" 
d="M258 -115q23 -105 98 -154q77 -50 232 -50q174 0 256 85t82 285v158q-67 -93 -155 -142q-91 -51 -212 -51q-117 0 -203 44q-84 43 -141 118q-54 72 -82 169q-27 95 -27 198q0 123 33 223q33 101 94 171q62 71 150 110q86 38 199 38q89 0 178 -37q88 -37 166 -139v144h118
v-1016q0 -214 -109 -336q-109 -123 -345 -123q-88 0 -167 17q-78 17 -135 52t-95 94t-48 142h113zM930 569q0 75 -7 124q-8 53 -25 92q-19 44 -44 71q-32 35 -63 59q-50 36 -99 54q-45 16 -108 16q-77 0 -140 -24q-62 -24 -110 -78q-46 -52 -74 -137q-27 -82 -27 -199
q0 -119 30 -200t77 -131q48 -51 106 -73q59 -22 121 -22q72 0 115 14q52 17 100 51q71 52 110 137q38 84 38 207v39zM532 1444h136v-178h-136v178z" />
    <glyph glyph-name="Gcommaaccent" unicode="&#x122;" horiz-adv-x="1456" 
d="M793 723h536v-565q-49 -48 -120 -88q-63 -36 -137 -61q-65 -22 -144 -35q-67 -11 -144 -11q-153 0 -279 50q-122 49 -211 148q-87 97 -133 239q-46 141 -46 327q0 188 50 333q49 144 137 242q87 97 206 147q120 50 256 50q230 0 357 -105t177 -294l-116 -27
q-21 68 -53 128q-33 61 -80 101t-119 65q-69 24 -166 24q-126 0 -224 -50t-163 -137q-64 -86 -99 -209q-34 -120 -34 -264q0 -149 32 -265q33 -118 101 -208q67 -88 169 -136t238 -48q120 0 229 31q111 31 197 98v407h-417v113zM731 -139h152l-183 -295h-120z" />
    <glyph glyph-name="gcommaaccent" unicode="&#x123;" horiz-adv-x="1187" 
d="M258 -115q23 -105 98 -154q77 -50 232 -50q174 0 256 85t82 285v158q-67 -93 -155 -142q-91 -51 -212 -51q-117 0 -203 44q-84 43 -141 118q-54 72 -82 169q-27 95 -27 198q0 123 33 223q33 101 94 171q62 71 150 110q86 38 199 38q89 0 178 -37q88 -37 166 -139v144h118
v-1016q0 -214 -109 -336q-109 -123 -345 -123q-88 0 -167 17q-78 17 -135 52t-95 94t-48 142h113zM930 569q0 75 -7 124q-8 53 -25 92q-19 44 -44 71q-32 35 -63 59q-50 36 -99 54q-45 16 -108 16q-77 0 -140 -24q-62 -24 -110 -78q-46 -52 -74 -137q-27 -82 -27 -199
q0 -119 30 -200t77 -131q48 -51 106 -73q59 -22 121 -22q72 0 115 14q52 17 100 51q71 52 110 137q38 84 38 207v39zM684 1483h117l-148 -287h-147z" />
    <glyph glyph-name="Hcircumflex" unicode="&#x124;" horiz-adv-x="1411" 
d="M168 1462h125v-647h825v647h125v-1462h-125v698h-825v-698h-125v1462zM649 1849h117l229 -264h-125l-163 170l-164 -170h-125z" />
    <glyph glyph-name="hcircumflex" unicode="&#x125;" horiz-adv-x="1142" 
d="M143 1462h119v-579q86 108 183 156t208 48q182 0 267 -100q86 -101 86 -285v-702h-119v670q0 166 -60 238q-61 73 -188 73q-61 0 -130 -24q-70 -24 -124 -74q-62 -53 -92 -110q-31 -59 -31 -155v-618h-119v1462zM375 1849h117l229 -264h-125l-164 170l-164 -170h-125z
" />
    <glyph glyph-name="Hbar" unicode="&#x126;" horiz-adv-x="1452" 
d="M188 1083h-168v109h168v270h125v-270h826v270h125v-270h168v-109h-168v-1083h-125v682h-826v-682h-125v1083zM1139 799v284h-826v-284h826z" />
    <glyph glyph-name="hbar" unicode="&#x127;" horiz-adv-x="1165" 
d="M166 1202h-146v103h146v157h119v-157h360v-103h-360v-360q86 108 184 156q101 49 207 49q180 0 266 -102q86 -103 86 -283v-662h-119v629q0 167 -59 238q-61 73 -188 73q-59 0 -131 -25q-67 -23 -123 -73q-59 -52 -92 -111q-31 -56 -31 -153v-578h-119v1202z" />
    <glyph glyph-name="Itilde" unicode="&#x128;" horiz-adv-x="460" 
d="M168 1462h125v-1462h-125v1462zM-117 1602q0 100 51 157q52 58 144 58q52 0 95 -19q37 -16 73 -41q40 -27 64 -41q31 -18 73 -18q59 0 80 35q20 33 20 82h99q0 -101 -52 -159q-51 -57 -143 -57q-52 0 -95 19q-34 15 -73 40q-50 32 -65 40q-33 18 -72 18q-59 0 -80 -34
q-20 -33 -20 -80h-99z" />
    <glyph glyph-name="itilde" unicode="&#x129;" horiz-adv-x="417" 
d="M150 1055h118v-1055h-118v1055zM-131 1241q0 100 51 157q50 56 139 56q56 0 95 -18q30 -14 71 -40q44 -28 65 -40q33 -19 70 -19q58 0 77 34q20 35 20 79h98q0 -100 -51 -157q-50 -56 -139 -56q-56 0 -95 18q-30 14 -71 40q-44 28 -65 40q-33 19 -71 19q-57 0 -76 -34
q-20 -35 -20 -79h-98z" />
    <glyph glyph-name="Imacron" unicode="&#x12a;" horiz-adv-x="460" 
d="M168 1462h125v-1462h-125v1462zM-57 1743h577v-109h-577v109z" />
    <glyph glyph-name="imacron" unicode="&#x12b;" horiz-adv-x="417" 
d="M150 1055h118v-1055h-118v1055zM-39 1389h500v-105h-500v105z" />
    <glyph glyph-name="Ibreve" unicode="&#x12c;" horiz-adv-x="460" 
d="M168 1462h125v-1462h-125v1462zM74 1849q0 -86 44 -130t113 -44q67 0 113 44q45 43 45 130h100q0 -127 -67 -195q-68 -69 -191 -69q-122 0 -190 69q-68 70 -68 195h101z" />
    <glyph glyph-name="ibreve" unicode="&#x12d;" horiz-adv-x="417" 
d="M150 1055h118v-1055h-118v1055zM51 1475q0 -91 45 -136t115 -45q67 0 114 45q46 45 46 136h98q0 -127 -68 -198t-190 -71q-123 0 -191 71q-67 70 -67 198h98z" />
    <glyph glyph-name="Iogonek" unicode="&#x12e;" horiz-adv-x="460" 
d="M303 -358q-15 -4 -31 -4h-24q-107 0 -156 40t-49 119q0 98 125 203v1462h125v-1462q-131 -105 -131 -184q0 -48 27 -63t73 -15h17q2 0 24 2v-98z" />
    <glyph glyph-name="iogonek" unicode="&#x12f;" horiz-adv-x="417" 
d="M283 -348q-15 -4 -31 -4h-25q-200 0 -200 153q0 50 30 101q29 49 95 98h-2v1055h118v-1055q-125 -99 -125 -180q0 -46 28 -62q25 -14 71 -14h16q3 0 25 2v-94zM141 1462h135v-178h-135v178z" />
    <glyph glyph-name="Idotaccent" unicode="&#x130;" horiz-adv-x="460" 
d="M168 1462h125v-1462h-125v1462zM162 1808h139v-182h-139v182z" />
    <glyph glyph-name="dotlessi" unicode="&#x131;" horiz-adv-x="417" 
d="M150 1055h118v-1055h-118v1055z" />
    <glyph glyph-name="IJ" unicode="&#x132;" horiz-adv-x="1640" 
d="M168 1462h125v-1462h-125v1462zM639 403q11 -73 34 -130q25 -63 65 -104q44 -45 108 -70q65 -25 162 -25q197 0 273 106q77 107 77 303v979h125v-991q0 -257 -124 -382q-125 -126 -347 -126q-206 0 -339 107t-161 333h127z" />
    <glyph glyph-name="ij" unicode="&#x133;" horiz-adv-x="835" 
d="M150 1055h118v-1055h-118v1055zM141 1462h135v-178h-135v178zM272 -250q20 -8 64 -17q32 -7 86 -7q85 0 115 51t30 135v1143h119v-1071q0 -76 -7 -138q-7 -65 -33 -115q-26 -51 -76 -81q-51 -31 -138 -31q-69 0 -111 9q-39 8 -73 22zM559 1462h135v-178h-135v178z" />
    <glyph glyph-name="Jcircumflex" unicode="&#x134;" horiz-adv-x="1179" 
d="M178 403q11 -73 34 -130q24 -61 66 -104q44 -46 107 -70q65 -25 162 -25q197 0 273 106q77 107 77 303v979h125v-991q0 -257 -124 -382q-124 -126 -347 -126q-206 0 -339 107t-161 333h127zM899 1849h117l229 -264h-125l-164 170l-163 -170h-125z" />
    <glyph glyph-name="jcircumflex" unicode="&#x135;" horiz-adv-x="417" 
d="M-145 -250q22 -8 63 -17q32 -7 86 -7q85 0 115 51q31 53 31 135v1143h118v-1071q0 -76 -7 -138q-7 -65 -33 -115q-27 -52 -75 -81q-51 -31 -139 -31q-69 0 -111 9q-39 8 -73 22zM154 1483h116l230 -275h-121l-168 185l-168 -185h-121z" />
    <glyph glyph-name="Kcommaaccent" unicode="&#x136;" horiz-adv-x="1302" 
d="M168 1462h125v-764l768 764h149l-542 -547l598 -915h-152l-541 834l-280 -277v-557h-125v1462zM631 -139h151l-182 -295h-121z" />
    <glyph glyph-name="kcommaaccent" unicode="&#x137;" horiz-adv-x="1009" 
d="M143 1462h119v-899l543 492h147l-372 -348l419 -707h-143l-369 633l-225 -203v-430h-119v1462zM483 -139h148l-178 -287h-117z" />
    <glyph glyph-name="kgreenlandic" unicode="&#x138;" horiz-adv-x="1009" 
d="M143 1055h119v-549l545 549h143l-370 -383l419 -672h-143l-369 594l-225 -223v-371h-119v1055z" />
    <glyph glyph-name="Lacute" unicode="&#x139;" horiz-adv-x="1126" 
d="M168 1462h125v-1345h794l-26 -117h-893v1462zM377 1849h162l-260 -264h-129z" />
    <glyph glyph-name="lacute" unicode="&#x13a;" horiz-adv-x="417" 
d="M150 1462h118v-1462h-118v1462zM356 1849h162l-260 -264h-129z" />
    <glyph glyph-name="Lcommaaccent" unicode="&#x13b;" horiz-adv-x="1126" 
d="M168 1462h125v-1345h794l-26 -117h-893v1462zM559 -139h152l-183 -295h-120z" />
    <glyph glyph-name="lcommaaccent" unicode="&#x13c;" horiz-adv-x="417" 
d="M150 1462h118v-1462h-118v1462zM137 -139h148l-179 -287h-116z" />
    <glyph glyph-name="Lcaron" unicode="&#x13d;" horiz-adv-x="1126" 
d="M168 1462h125v-1345h794l-26 -117h-893v1462zM714 1466h131l-82 -392h-103z" />
    <glyph glyph-name="lcaron" unicode="&#x13e;" horiz-adv-x="417" 
d="M150 1462h118v-1462h-118v1462zM451 1462h124l-77 -372h-99z" />
    <glyph glyph-name="Ldot" unicode="&#x13f;" horiz-adv-x="1126" 
d="M168 1462h125v-1345h794l-26 -117h-893v1462zM694 901h154v-190h-154v190z" />
    <glyph glyph-name="ldot" unicode="&#x140;" horiz-adv-x="595" 
d="M150 1462h118v-1462h-118v1462zM424 860h154v-190h-154v190z" />
    <glyph glyph-name="Lslash" unicode="&#x141;" horiz-adv-x="1146" 
d="M188 530l-168 -120v127l168 120v805h125v-714l451 323v-127l-451 -323v-504h795l-27 -117h-893v530z" />
    <glyph glyph-name="lslash" unicode="&#x142;" horiz-adv-x="512" 
d="M197 698l-187 -141v115l187 141v649h118v-567l187 143v-116l-187 -142v-780h-118v698z" />
    <glyph glyph-name="Nacute" unicode="&#x143;" horiz-adv-x="1413" 
d="M168 1462h137l819 -1265v1265h121v-1462h-135l-821 1270v-1270h-121v1462zM821 1849h162l-260 -264h-129z" />
    <glyph glyph-name="nacute" unicode="&#x144;" horiz-adv-x="1142" 
d="M143 1055h119v-172q86 108 183 156t208 48q182 0 267 -100q86 -101 86 -285v-702h-119v670q0 166 -60 238q-61 73 -188 73q-61 0 -130 -24q-70 -24 -124 -74q-62 -53 -92 -110q-31 -59 -31 -155v-618h-119v1055zM645 1483h160l-260 -275h-127z" />
    <glyph glyph-name="Ncommaaccent" unicode="&#x145;" horiz-adv-x="1413" 
d="M168 1462h137l819 -1265v1265h121v-1462h-135l-821 1270v-1270h-121v1462zM645 -139h152l-183 -295h-120z" />
    <glyph glyph-name="ncommaaccent" unicode="&#x146;" horiz-adv-x="1142" 
d="M143 1055h119v-172q86 108 183 156t208 48q182 0 267 -100q86 -101 86 -285v-702h-119v670q0 166 -60 238q-61 73 -188 73q-61 0 -130 -24q-70 -24 -124 -74q-62 -53 -92 -110q-31 -59 -31 -155v-618h-119v1055zM512 -139h147l-178 -287h-116z" />
    <glyph glyph-name="Ncaron" unicode="&#x147;" horiz-adv-x="1413" 
d="M168 1462h137l819 -1265v1265h121v-1462h-135l-821 1270v-1270h-121v1462zM436 1855h127l164 -172l164 172h123l-230 -264h-116z" />
    <glyph glyph-name="ncaron" unicode="&#x148;" horiz-adv-x="1142" 
d="M143 1055h119v-172q86 108 183 156t208 48q182 0 267 -100q86 -101 86 -285v-702h-119v670q0 166 -60 238q-61 73 -188 73q-61 0 -130 -24q-70 -24 -124 -74q-62 -53 -92 -110q-31 -59 -31 -155v-618h-119v1055zM647 1212h-117l-229 275h121l168 -184l168 184h121z" />
    <glyph glyph-name="napostrophe" unicode="&#x149;" horiz-adv-x="1206" 
d="M207 1055h119v-172q86 108 183 156t208 48q181 0 266 -100q86 -101 86 -285v-702h-119v670q0 167 -59 238q-61 73 -189 73q-61 0 -130 -24q-68 -24 -123 -74q-64 -54 -93 -110q-30 -57 -30 -155v-618h-119v1055zM53 1462h137l-96 -381h-92z" />
    <glyph glyph-name="Eng" unicode="&#x14a;" horiz-adv-x="1413" 
d="M535 -254q49 -24 109 -38q63 -15 157 -15q174 0 245 77q70 76 70 222l-827 1278v-1270h-121v1462h137l819 -1265v1265h121v-1462q0 -218 -116 -319t-324 -101q-96 0 -165 10q-72 10 -144 45z" />
    <glyph glyph-name="eng" unicode="&#x14b;" horiz-adv-x="1142" 
d="M143 1055h119v-172q86 108 183 156t208 48q182 0 267 -100q86 -101 86 -285v-718q0 -61 -7 -138q-6 -67 -31 -115q-26 -51 -76 -81q-51 -31 -138 -31q-72 0 -113 9q-38 8 -72 22l25 100q23 -9 62 -17q32 -7 87 -7q84 0 114 50t30 136v758q0 166 -60 238q-61 73 -188 73
q-61 0 -130 -24q-70 -24 -124 -74q-62 -53 -92 -110q-31 -59 -31 -155v-618h-119v1055z" />
    <glyph glyph-name="Omacron" unicode="&#x14c;" horiz-adv-x="1548" 
d="M776 -37q-142 0 -263 48q-120 47 -210 145q-89 97 -138 239q-50 145 -50 332q0 188 50 333q49 143 139 242q88 98 210 147q123 50 262 50q140 0 262 -48q121 -48 208 -144q88 -97 137 -239q51 -147 51 -331q0 -190 -50 -335q-50 -144 -136 -241q-89 -99 -208 -148
q-123 -50 -264 -50zM776 74q129 0 228 48q97 47 164 135t101 208t34 266q0 143 -35 266q-33 118 -102 208q-66 87 -165 135q-101 49 -225 49q-131 0 -232 -49q-99 -48 -165 -135q-64 -84 -99 -208q-34 -120 -34 -266q0 -144 33 -266q33 -121 99 -208q65 -86 166 -135
q99 -48 232 -48zM485 1743h578v-109h-578v109z" />
    <glyph glyph-name="omacron" unicode="&#x14d;" horiz-adv-x="1214" 
d="M606 70q103 0 170 35q70 37 115 98q44 60 65 145q21 84 21 182q0 96 -21 178q-22 85 -65 144q-44 60 -115 97q-69 36 -170 36q-98 0 -169 -36t-114 -97q-44 -63 -65 -144q-20 -79 -20 -180q0 -100 20 -180q21 -82 65 -145q44 -62 114 -98q69 -35 169 -35zM602 -33
q-116 0 -208 39q-88 37 -153 112q-62 70 -97 175q-33 98 -33 229q0 132 35 234q35 103 101 178q65 74 156 114q88 39 207 39q118 0 207 -38q92 -39 156 -112q62 -70 97 -175q34 -101 34 -227q0 -127 -35 -234q-34 -103 -99 -179q-64 -74 -158 -115q-92 -40 -210 -40z
M356 1389h500v-105h-500v105z" />
    <glyph glyph-name="Obreve" unicode="&#x14e;" horiz-adv-x="1548" 
d="M776 -37q-142 0 -263 48q-120 47 -210 145q-89 97 -138 239q-50 145 -50 332q0 188 50 333q49 143 139 242q88 98 210 147q123 50 262 50q140 0 262 -48q121 -48 208 -144q88 -97 137 -239q51 -147 51 -331q0 -190 -50 -335q-50 -144 -136 -241q-89 -99 -208 -148
q-123 -50 -264 -50zM776 74q129 0 228 48q97 47 164 135t101 208t34 266q0 143 -35 266q-33 118 -102 208q-66 87 -165 135q-101 49 -225 49q-131 0 -232 -49q-99 -48 -165 -135q-64 -84 -99 -208q-34 -120 -34 -266q0 -144 33 -266q33 -121 99 -208q65 -86 166 -135
q99 -48 232 -48zM616 1849q0 -86 44 -130t114 -44q67 0 113 44q45 43 45 130h100q0 -127 -67 -195q-67 -69 -191 -69q-122 0 -190 69q-68 70 -68 195h100z" />
    <glyph glyph-name="obreve" unicode="&#x14f;" horiz-adv-x="1214" 
d="M606 70q103 0 170 35q70 37 115 98q44 60 65 145q21 84 21 182q0 96 -21 178q-22 85 -65 144q-44 60 -115 97q-69 36 -170 36q-98 0 -169 -36t-114 -97q-44 -63 -65 -144q-20 -79 -20 -180q0 -100 20 -180q21 -82 65 -145q44 -62 114 -98q69 -35 169 -35zM602 -33
q-116 0 -208 39q-88 37 -153 112q-62 70 -97 175q-33 98 -33 229q0 132 35 234q35 103 101 178q65 74 156 114q88 39 207 39q118 0 207 -38q92 -39 156 -112q62 -70 97 -175q34 -101 34 -227q0 -127 -35 -234q-34 -103 -99 -179q-64 -74 -158 -115q-92 -40 -210 -40z
M446 1475q0 -90 46 -136q45 -45 114 -45q68 0 114 45t46 136h98q0 -128 -67 -198q-68 -71 -191 -71q-122 0 -190 71t-68 198h98z" />
    <glyph glyph-name="Ohungarumlaut" unicode="&#x150;" horiz-adv-x="1548" 
d="M776 -37q-142 0 -263 48q-120 47 -210 145q-89 97 -138 239q-50 145 -50 332q0 188 50 333q49 143 139 242q88 98 210 147q123 50 262 50q140 0 262 -48q121 -48 208 -144q88 -97 137 -239q51 -147 51 -331q0 -190 -50 -335q-50 -144 -136 -241q-89 -99 -208 -148
q-123 -50 -264 -50zM776 74q129 0 228 48q97 47 164 135t101 208t34 266q0 143 -35 266q-33 118 -102 208q-66 87 -165 135q-101 49 -225 49q-131 0 -232 -49q-99 -48 -165 -135q-64 -84 -99 -208q-34 -120 -34 -266q0 -144 33 -266q33 -121 99 -208q65 -86 166 -135
q99 -48 232 -48zM750 1849h149l-244 -264h-116zM1079 1849h150l-246 -264h-115z" />
    <glyph glyph-name="ohungarumlaut" unicode="&#x151;" horiz-adv-x="1214" 
d="M606 70q103 0 170 35q70 37 115 98q44 60 65 145q21 84 21 182q0 96 -21 178q-22 85 -65 144q-44 60 -115 97q-69 36 -170 36q-98 0 -169 -36t-114 -97q-44 -63 -65 -144q-20 -79 -20 -180q0 -100 20 -180q21 -82 65 -145q44 -62 114 -98q69 -35 169 -35zM602 -33
q-116 0 -208 39q-88 37 -153 112q-62 70 -97 175q-33 98 -33 229q0 132 35 234q35 103 101 178q65 74 156 114q88 39 207 39q118 0 207 -38q92 -39 156 -112q62 -70 97 -175q34 -101 34 -227q0 -127 -35 -234q-34 -103 -99 -179q-64 -74 -158 -115q-92 -40 -210 -40z
M578 1483h155l-244 -275h-122zM907 1483h156l-246 -275h-121z" />
    <glyph glyph-name="OE" unicode="&#x152;" horiz-adv-x="2217" 
d="M1239 262q-89 -147 -206 -223q-118 -76 -290 -76q-129 0 -243 48q-113 48 -200 145q-86 97 -135 239q-50 145 -50 332q0 188 50 333q49 143 136 242q85 97 200 147t242 50q170 0 289 -71q118 -70 207 -216v250h862v-112h-741v-537h700v-117h-700v-581h776l-29 -115h-868
v262zM743 70q117 0 209 48q94 50 156 136q62 87 97 210q34 120 34 267t-34 267q-35 124 -98 209q-64 86 -156 136t-208 50q-118 0 -212 -50t-156 -136q-63 -87 -96 -209t-33 -267t33 -267t96 -210q62 -87 155 -136q92 -48 213 -48z" />
    <glyph glyph-name="oe" unicode="&#x153;" horiz-adv-x="1992" 
d="M1870 276q-24 -137 -130 -223t-298 -86q-155 0 -258 74q-102 74 -158 203q-62 -136 -169 -206q-109 -71 -261 -71q-115 0 -204 39q-88 39 -152 112t-97 175q-32 99 -32 229q0 132 35 234q35 103 101 178q65 74 155 114q88 39 202 39q150 0 256 -68q109 -70 166 -198
q61 132 168 199t248 67q122 0 204 -39q85 -40 139 -109q56 -71 79 -163q24 -95 24 -203v-75h-798q0 -91 22 -169t68 -138q44 -58 110 -92q63 -33 152 -33q76 0 130 15q52 14 91 44q37 28 58 66q22 40 34 85h115zM600 70q100 0 167 35q69 36 113 98q43 61 64 145t21 182
q0 96 -21 178q-21 84 -64 144t-113 97q-69 36 -167 36q-96 0 -165 -36t-112 -97q-44 -63 -65 -144q-20 -79 -20 -180q0 -100 20 -180q21 -82 65 -145t112 -98q67 -35 165 -35zM1765 600q0 86 -18 158q-18 71 -57 124q-39 52 -101 81q-60 28 -147 28q-150 0 -241 -96
q-91 -95 -109 -295h673z" />
    <glyph glyph-name="Racute" unicode="&#x154;" horiz-adv-x="1271" 
d="M168 1462h459q156 0 259 -35q101 -34 160 -90q58 -55 79 -127q22 -75 22 -145q0 -139 -63 -238q-62 -98 -203 -149l315 -678h-145l-293 649q-25 -3 -72 -7q-38 -3 -78 -3h-317v-639h-123v1462zM643 750q111 0 183 21q70 21 116 63q41 38 60 98q18 57 18 131q0 69 -19 126
q-18 54 -64 91t-123 55q-81 19 -193 19h-330v-604h352zM709 1849h161l-260 -264h-129z" />
    <glyph glyph-name="racute" unicode="&#x155;" horiz-adv-x="690" 
d="M143 1055h119v-172q62 89 146 139q82 49 174 49q29 0 42 -1q28 -2 42 -5l-15 -113q-37 6 -67 6q-55 0 -109 -19q-52 -18 -104 -67q-49 -43 -78 -99q-31 -60 -31 -138v-635h-119v1055zM514 1483h160l-260 -275h-127z" />
    <glyph glyph-name="Rcommaaccent" unicode="&#x156;" horiz-adv-x="1271" 
d="M168 1462h459q156 0 259 -35q101 -34 160 -90q58 -55 79 -127q22 -75 22 -145q0 -139 -63 -238q-62 -98 -203 -149l315 -678h-145l-293 649q-25 -3 -72 -7q-38 -3 -78 -3h-317v-639h-123v1462zM643 750q111 0 183 21q70 21 116 63q41 38 60 98q18 57 18 131q0 69 -19 126
q-18 54 -64 91t-123 55q-81 19 -193 19h-330v-604h352zM594 -139h151l-182 -295h-121z" />
    <glyph glyph-name="rcommaaccent" unicode="&#x157;" horiz-adv-x="690" 
d="M143 1055h119v-172q62 89 146 139q82 49 174 49q29 0 42 -1q28 -2 42 -5l-15 -113q-37 6 -67 6q-55 0 -109 -19q-52 -18 -104 -67q-49 -43 -78 -99q-31 -60 -31 -138v-635h-119v1055zM143 -139h148l-178 -287h-117z" />
    <glyph glyph-name="Rcaron" unicode="&#x158;" horiz-adv-x="1271" 
d="M168 1462h459q156 0 259 -35q101 -34 160 -90q58 -55 79 -127q22 -75 22 -145q0 -139 -63 -238q-62 -98 -203 -149l315 -678h-145l-293 649q-25 -3 -72 -7q-38 -3 -78 -3h-317v-639h-123v1462zM643 750q111 0 183 21q70 21 116 63q41 38 60 98q18 57 18 131q0 69 -19 126
q-18 54 -64 91t-123 55q-81 19 -193 19h-330v-604h352zM289 1855h127l164 -172l163 172h123l-229 -264h-117z" />
    <glyph glyph-name="rcaron" unicode="&#x159;" horiz-adv-x="690" 
d="M143 1055h119v-172q62 89 146 139q82 49 174 49q29 0 42 -1q28 -2 42 -5l-15 -113q-37 6 -67 6q-55 0 -109 -19q-52 -18 -104 -67q-49 -43 -78 -99q-31 -60 -31 -138v-635h-119v1055zM471 1212h-117l-229 275h121l168 -184l168 184h120z" />
    <glyph glyph-name="Sacute" unicode="&#x15a;" horiz-adv-x="1314" 
d="M215 383q33 -165 141 -237t324 -72q111 0 183 24q70 23 116 66q43 40 61 96q19 59 19 117q0 54 -11 97q-12 47 -43 84q-33 39 -92 67q-61 29 -155 45l-183 30q-98 17 -189 48q-85 30 -140 74q-57 46 -87 116q-30 69 -30 170q0 100 42 174t113 122q70 48 166 72
q91 23 201 23q139 0 230 -30q94 -31 151 -78q59 -48 92 -112q35 -67 52 -126l-115 -33q-22 67 -48 114q-28 51 -74 85q-47 35 -116 53q-73 19 -170 19q-108 0 -188 -22q-76 -21 -123 -59t-68 -90q-20 -50 -20 -112q0 -65 14 -107q15 -44 49 -77q35 -33 94 -56t146 -39
l207 -36q109 -21 191 -54q83 -34 135 -83t78 -119t26 -164q0 -84 -33 -159t-97 -130q-63 -54 -161 -88q-96 -33 -225 -33q-116 0 -220 23q-101 22 -178 72q-75 49 -126 130q-50 80 -62 195h123zM756 1849h162l-261 -264h-129z" />
    <glyph glyph-name="sacute" unicode="&#x15b;" horiz-adv-x="1052" 
d="M207 293q23 -124 104 -174q83 -51 234 -51q154 0 217 57t63 143q0 35 -8 69q-7 30 -32 58q-24 27 -67 45q-47 19 -114 31l-129 21q-98 18 -150 34q-68 22 -113 55q-46 34 -70 84q-23 47 -23 123q0 67 31 126q30 57 83 95q50 36 126 58q69 20 157 20q109 0 181 -21
q74 -22 119 -58q47 -38 72 -86q24 -47 40 -105l-109 -22q-16 46 -38 83q-20 34 -54 59q-33 24 -82 36t-123 12q-82 0 -137 -15q-54 -15 -89 -42q-32 -25 -48 -62q-15 -34 -15 -71q0 -31 9 -67q7 -29 32 -52q23 -22 69 -39q45 -17 116 -29l162 -26q163 -28 247 -100
q82 -70 82 -216q0 -62 -25 -116t-76 -96q-47 -38 -126 -63q-77 -24 -174 -24q-91 0 -177 19q-81 18 -141 57q-58 38 -96 100q-37 61 -45 150h117zM639 1483h160l-260 -275h-127z" />
    <glyph glyph-name="Scircumflex" unicode="&#x15c;" horiz-adv-x="1314" 
d="M215 383q33 -165 141 -237t324 -72q111 0 183 24q70 23 116 66q43 40 61 96q19 59 19 117q0 54 -11 97q-12 47 -43 84q-33 39 -92 67q-61 29 -155 45l-183 30q-98 17 -189 48q-85 30 -140 74q-57 46 -87 116q-30 69 -30 170q0 100 42 174t113 122q70 48 166 72
q91 23 201 23q139 0 230 -30q94 -31 151 -78q59 -48 92 -112q35 -67 52 -126l-115 -33q-22 67 -48 114q-28 51 -74 85q-47 35 -116 53q-73 19 -170 19q-108 0 -188 -22q-76 -21 -123 -59t-68 -90q-20 -50 -20 -112q0 -65 14 -107q15 -44 49 -77q35 -33 94 -56t146 -39
l207 -36q109 -21 191 -54q83 -34 135 -83t78 -119t26 -164q0 -84 -33 -159t-97 -130q-63 -54 -161 -88q-96 -33 -225 -33q-116 0 -220 23q-101 22 -178 72q-75 49 -126 130q-50 80 -62 195h123zM600 1849h117l229 -264h-125l-164 170l-163 -170h-125z" />
    <glyph glyph-name="scircumflex" unicode="&#x15d;" horiz-adv-x="1052" 
d="M207 293q23 -124 104 -174q83 -51 234 -51q154 0 217 57t63 143q0 35 -8 69q-7 30 -32 58q-24 27 -67 45q-47 19 -114 31l-129 21q-98 18 -150 34q-68 22 -113 55q-46 34 -70 84q-23 47 -23 123q0 67 31 126q30 57 83 95q50 36 126 58q69 20 157 20q109 0 181 -21
q74 -22 119 -58q47 -38 72 -86q24 -47 40 -105l-109 -22q-16 46 -38 83q-20 34 -54 59q-33 24 -82 36t-123 12q-82 0 -137 -15q-54 -15 -89 -42q-32 -25 -48 -62q-15 -34 -15 -71q0 -31 9 -67q7 -29 32 -52q23 -22 69 -39q45 -17 116 -29l162 -26q163 -28 247 -100
q82 -70 82 -216q0 -62 -25 -116t-76 -96q-47 -38 -126 -63q-77 -24 -174 -24q-91 0 -177 19q-81 18 -141 57q-58 38 -96 100q-37 61 -45 150h117zM469 1483h117l229 -275h-121l-168 185l-168 -185h-120z" />
    <glyph glyph-name="Scedilla" unicode="&#x15e;" horiz-adv-x="1314" 
d="M457 -344q33 -5 58 -6q34 -2 56 -2q138 0 138 82q0 41 -37 59q-38 18 -129 18h-27l55 160q-95 7 -181 37q-79 27 -145 79q-62 49 -102 124q-39 73 -51 176h123q33 -165 141 -237t324 -72q111 0 183 24q70 23 116 66q43 40 61 96q19 59 19 117q0 54 -11 97q-12 47 -43 84
q-33 39 -92 67q-61 29 -155 45l-183 30q-98 17 -189 48q-85 30 -140 74q-57 46 -87 116q-30 69 -30 170q0 100 42 174t113 122q70 48 166 72q91 23 201 23q139 0 230 -30q94 -31 151 -78q59 -48 92 -112q35 -67 52 -126l-115 -33q-22 67 -48 114q-28 51 -74 85
q-47 35 -116 53q-73 19 -170 19q-108 0 -188 -22q-76 -21 -123 -59t-68 -90q-20 -50 -20 -112q0 -65 14 -107q15 -44 49 -77q35 -33 94 -56t146 -39l207 -36q109 -21 191 -54q83 -34 135 -83t78 -119t26 -164q0 -84 -33 -159t-97 -130q-63 -54 -161 -88q-96 -33 -225 -33
h-10l-29 -78q110 -12 149 -58q39 -47 39 -106q0 -46 -18 -79q-19 -34 -52 -53q-35 -19 -81 -27q-50 -8 -103 -8q-22 0 -58 2q-29 2 -58 6v94z" />
    <glyph glyph-name="scedilla" unicode="&#x15f;" horiz-adv-x="1052" 
d="M344 -315q41 -6 56 -7q34 -2 55 -2q69 0 101 18t32 58q0 38 -35 55q-36 17 -127 17h-25l52 147q-151 16 -252 94q-99 77 -111 228h117q23 -124 104 -174q83 -51 234 -51q154 0 217 57t63 143q0 35 -8 69q-7 30 -32 58q-24 27 -67 45q-47 19 -114 31l-129 21
q-98 18 -150 34q-68 22 -113 55q-46 34 -70 84q-23 47 -23 123q0 67 31 126q30 57 83 95q50 36 126 58q69 20 157 20q109 0 181 -21q74 -22 119 -58q47 -38 72 -86q24 -47 40 -105l-109 -22q-16 46 -38 83q-20 34 -54 59q-33 24 -82 36t-123 12q-82 0 -137 -15
q-54 -15 -89 -42q-32 -25 -48 -62q-15 -34 -15 -71q0 -31 9 -67q7 -29 32 -52q23 -22 69 -39q45 -17 116 -29l162 -26q163 -28 247 -100q82 -70 82 -216q0 -62 -25 -116t-76 -96q-47 -38 -126 -63q-77 -24 -174 -24h-4l-25 -67q107 -12 145 -56q37 -43 37 -100
q0 -92 -67 -126t-178 -34q-21 0 -57 2q-28 2 -56 6v93z" />
    <glyph glyph-name="Scaron" unicode="&#x160;" horiz-adv-x="1314" 
d="M215 383q33 -165 141 -237t324 -72q111 0 183 24q70 23 116 66q43 40 61 96q19 59 19 117q0 54 -11 97q-12 47 -43 84q-33 39 -92 67q-61 29 -155 45l-183 30q-98 17 -189 48q-85 30 -140 74q-57 46 -87 116q-30 69 -30 170q0 100 42 174t113 122q70 48 166 72
q91 23 201 23q139 0 230 -30q94 -31 151 -78q59 -48 92 -112q35 -67 52 -126l-115 -33q-22 67 -48 114q-28 51 -74 85q-47 35 -116 53q-73 19 -170 19q-108 0 -188 -22q-76 -21 -123 -59t-68 -90q-20 -50 -20 -112q0 -65 14 -107q15 -44 49 -77q35 -33 94 -56t146 -39
l207 -36q109 -21 191 -54q83 -34 135 -83t78 -119t26 -164q0 -84 -33 -159t-97 -130q-63 -54 -161 -88q-96 -33 -225 -33q-116 0 -220 23q-101 22 -178 72q-75 49 -126 130q-50 80 -62 195h123zM369 1855h127l163 -172l164 172h123l-229 -264h-117z" />
    <glyph glyph-name="scaron" unicode="&#x161;" horiz-adv-x="1052" 
d="M207 293q23 -124 104 -174q83 -51 234 -51q154 0 217 57t63 143q0 35 -8 69q-7 30 -32 58q-24 27 -67 45q-47 19 -114 31l-129 21q-98 18 -150 34q-68 22 -113 55q-46 34 -70 84q-23 47 -23 123q0 67 31 126q30 57 83 95q50 36 126 58q69 20 157 20q109 0 181 -21
q74 -22 119 -58q47 -38 72 -86q24 -47 40 -105l-109 -22q-16 46 -38 83q-20 34 -54 59q-33 24 -82 36t-123 12q-82 0 -137 -15q-54 -15 -89 -42q-32 -25 -48 -62q-15 -34 -15 -71q0 -31 9 -67q7 -29 32 -52q23 -22 69 -39q45 -17 116 -29l162 -26q163 -28 247 -100
q82 -70 82 -216q0 -62 -25 -116t-76 -96q-47 -38 -126 -63q-77 -24 -174 -24q-91 0 -177 19q-81 18 -141 57q-58 38 -96 100q-37 61 -45 150h117zM588 1212h-117l-229 275h120l168 -184l168 184h121z" />
    <glyph glyph-name="uni0162" unicode="&#x162;" horiz-adv-x="1208" 
d="M543 1348h-508v114h1139v-114h-506v-1348h-15l-37 -100q107 -12 145 -56t38 -100q0 -91 -68 -126q-67 -34 -178 -34q-20 0 -56 2q-29 2 -57 6v93q40 -6 57 -7q34 -2 54 -2q69 0 101 18t32 58q0 38 -35 55q-36 17 -127 17h-24l61 176h-16v1348z" />
    <glyph glyph-name="uni0163" unicode="&#x163;" horiz-adv-x="675" 
d="M293 -315q41 -6 56 -7q34 -2 54 -2q71 0 102 18q32 18 32 58q0 38 -35 55q-36 17 -127 17h-25l53 158q-68 7 -109 42t-61 82q-20 48 -25 110q-5 67 -5 126v614h-164v99h164v291h119v-291h299v-99h-299v-690q0 -80 32 -132q33 -54 115 -54q50 0 90 8q37 8 66 18l24 -96
q-28 -11 -62 -18q-36 -7 -89 -12l-29 -80q106 -12 144 -56t38 -100q0 -92 -67 -126t-178 -34q-21 0 -57 2q-28 2 -56 6v93z" />
    <glyph glyph-name="Tcaron" unicode="&#x164;" horiz-adv-x="1208" 
d="M543 1348h-508v114h1139v-114h-506v-1348h-125v1348zM315 1855h127l164 -172l164 172h123l-229 -264h-117z" />
    <glyph glyph-name="tcaron" unicode="&#x165;" horiz-adv-x="675" 
d="M508 1483h123l-76 -314h-98zM203 956h-164v99h164v291h119v-291h299v-99h-299v-690q0 -80 32 -132q33 -54 115 -54q50 0 90 8q37 8 66 18l24 -96q-25 -10 -75 -22q-46 -11 -115 -11q-89 0 -142 31q-49 29 -76 81q-26 51 -32 116q-6 66 -6 137v614z" />
    <glyph glyph-name="Tbar" unicode="&#x166;" horiz-adv-x="1208" 
d="M543 676h-330v110h330v562h-508v114h1139v-114h-506v-562h329v-110h-329v-676h-125v676z" />
    <glyph glyph-name="tbar" unicode="&#x167;" horiz-adv-x="675" 
d="M203 512h-164v104h164v340h-164v99h164v291h119v-291h299v-99h-299v-340h299v-104h-299v-246q0 -80 32 -132q33 -54 115 -54q50 0 90 8q37 8 66 18l24 -96q-25 -10 -75 -22q-46 -11 -115 -11q-89 0 -142 31q-49 29 -76 81q-26 51 -32 116q-6 66 -6 137v170z" />
    <glyph glyph-name="Utilde" unicode="&#x168;" horiz-adv-x="1384" 
d="M158 1462h125v-891q0 -247 96 -372t317 -125q115 0 190 31q77 32 125 95t69 155q22 97 22 216v891h125v-889q0 -161 -36 -277t-105 -189q-71 -76 -167 -109q-100 -35 -225 -35q-128 0 -228 35q-98 34 -168 110q-68 74 -104 192t-36 282v880zM354 1602q0 99 52 157t143 58
q52 0 95 -19q37 -16 73 -41q40 -27 64 -41q31 -18 73 -18q59 0 80 35q20 33 20 82h99q0 -101 -52 -159q-50 -56 -143 -56q-54 0 -95 18q-34 15 -73 40q-50 32 -65 40q-33 18 -72 18q-59 0 -80 -34q-20 -33 -20 -80h-99z" />
    <glyph glyph-name="utilde" unicode="&#x169;" horiz-adv-x="1120" 
d="M139 1055h119v-670q0 -168 52 -239q52 -72 179 -72q64 0 127 24q64 24 121 74q60 52 90 110q31 59 31 154v619h119v-1055h-119v172q-166 -205 -383 -205q-180 0 -258 99t-78 286v703zM223 1241q0 100 51 157q50 56 140 56q55 0 94 -18q33 -15 72 -40q53 -34 64 -40
q33 -19 71 -19q58 0 77 34t19 79h98q0 -100 -51 -157q-50 -56 -139 -56q-55 0 -94 18q-33 15 -72 40q-44 28 -65 40q-33 19 -70 19q-58 0 -77 -34t-19 -79h-99z" />
    <glyph glyph-name="Umacron" unicode="&#x16a;" horiz-adv-x="1384" 
d="M158 1462h125v-891q0 -247 96 -372t317 -125q115 0 190 31q77 32 125 95t69 155q22 97 22 216v891h125v-889q0 -161 -36 -277t-105 -189q-71 -76 -167 -109q-100 -35 -225 -35q-128 0 -228 35q-98 34 -168 110q-68 74 -104 192t-36 282v880zM403 1743h578v-109h-578v109z
" />
    <glyph glyph-name="umacron" unicode="&#x16b;" horiz-adv-x="1120" 
d="M139 1055h119v-670q0 -168 52 -239q52 -72 179 -72q64 0 127 24q64 24 121 74q60 52 90 110q31 59 31 154v619h119v-1055h-119v172q-166 -205 -383 -205q-180 0 -258 99t-78 286v703zM311 1389h500v-105h-500v105z" />
    <glyph glyph-name="Ubreve" unicode="&#x16c;" horiz-adv-x="1384" 
d="M158 1462h125v-891q0 -247 96 -372t317 -125q115 0 190 31q77 32 125 95t69 155q22 97 22 216v891h125v-889q0 -161 -36 -277t-105 -189q-71 -76 -167 -109q-100 -35 -225 -35q-128 0 -228 35q-98 34 -168 110q-68 74 -104 192t-36 282v880zM535 1849q0 -86 44 -130
t113 -44q67 0 113 44q45 43 45 130h100q0 -127 -67 -195q-67 -69 -191 -69q-122 0 -190 69q-68 70 -68 195h101z" />
    <glyph glyph-name="ubreve" unicode="&#x16d;" horiz-adv-x="1120" 
d="M139 1055h119v-670q0 -168 52 -239q52 -72 179 -72q64 0 127 24q64 24 121 74q60 52 90 110q31 59 31 154v619h119v-1055h-119v172q-166 -205 -383 -205q-180 0 -258 99t-78 286v703zM401 1475q0 -91 45 -136t115 -45q67 0 114 45q46 45 46 136h98q0 -128 -67 -198
q-68 -71 -191 -71q-122 0 -190 71t-68 198h98z" />
    <glyph glyph-name="Uring" unicode="&#x16e;" horiz-adv-x="1384" 
d="M158 1462h125v-891q0 -247 96 -372t317 -125q115 0 190 31q77 32 125 95t69 155q22 97 22 216v891h125v-889q0 -161 -36 -277t-105 -189q-71 -76 -167 -109q-100 -35 -225 -35q-128 0 -228 35q-98 34 -168 110q-68 74 -104 192t-36 282v880zM498 1700q0 98 58 147t136 49
q40 0 74 -12q33 -12 62 -37q28 -25 44 -61q17 -39 17 -86q0 -45 -17 -84q-17 -38 -44 -62t-62 -36q-37 -13 -74 -13q-78 0 -136 49t-58 146zM692 1589q50 0 77 27q28 28 28 84q0 59 -28 87t-77 28q-46 0 -76 -28q-28 -27 -28 -87q0 -57 28 -84t76 -27z" />
    <glyph glyph-name="uring" unicode="&#x16f;" horiz-adv-x="1120" 
d="M139 1055h119v-670q0 -168 52 -239q52 -72 179 -72q64 0 127 24q64 24 121 74q60 52 90 110q31 59 31 154v619h119v-1055h-119v172q-166 -205 -383 -205q-180 0 -258 99t-78 286v703zM369 1399q0 95 57 145q56 49 135 49q37 0 73 -12q33 -11 62 -37q27 -24 43 -61
q17 -39 17 -84q0 -48 -17 -85t-43 -60t-62 -35q-39 -13 -73 -13q-78 0 -135 48t-57 145zM561 1286q47 0 75 28t28 85t-28 85q-27 27 -75 27t-75 -27t-27 -85t27 -85q28 -28 75 -28z" />
    <glyph glyph-name="Uhungarumlaut" unicode="&#x170;" horiz-adv-x="1384" 
d="M158 1462h125v-891q0 -247 96 -372t317 -125q115 0 190 31q77 32 125 95t69 155q22 97 22 216v891h125v-889q0 -161 -36 -277t-105 -189q-71 -76 -167 -109q-100 -35 -225 -35q-128 0 -228 35q-98 34 -168 110q-68 74 -104 192t-36 282v880zM629 1849h149l-243 -264h-117
zM958 1849h150l-246 -264h-114z" />
    <glyph glyph-name="uhungarumlaut" unicode="&#x171;" horiz-adv-x="1120" 
d="M139 1055h119v-670q0 -168 52 -239q52 -72 179 -72q64 0 127 24q64 24 121 74q60 52 90 110q31 59 31 154v619h119v-1055h-119v172q-166 -205 -383 -205q-180 0 -258 99t-78 286v703zM508 1483h156l-244 -275h-123zM838 1483h155l-245 -275h-121z" />
    <glyph glyph-name="Uogonek" unicode="&#x172;" horiz-adv-x="1384" 
d="M934 -358q-15 -4 -31 -4h-24q-107 0 -156 40t-49 119q0 84 86 168q-22 -2 -33 -2h-33q-128 0 -228 35q-98 34 -168 110q-68 74 -104 192t-36 282v880h125v-891q0 -247 96 -372t317 -125q115 0 190 31q77 32 125 95t69 155q22 97 22 216v891h125v-889q0 -241 -79 -380
q-80 -141 -224 -193q-131 -105 -131 -184q0 -48 27 -63t73 -15h16q3 0 25 2v-98z" />
    <glyph glyph-name="uogonek" unicode="&#x173;" horiz-adv-x="1120" 
d="M139 1055h119v-670q0 -168 52 -239q52 -72 179 -72q64 0 127 24q64 24 121 74q60 52 90 110q31 59 31 154v619h119v-1055q-125 -99 -125 -180q0 -46 28 -62q25 -14 70 -14h17q2 0 24 2v-94q-15 -4 -30 -4h-25q-201 0 -201 153q0 48 31 101q30 51 94 98h-2v172
q-166 -205 -383 -205q-180 0 -258 99t-78 286v703z" />
    <glyph glyph-name="Wcircumflex" unicode="&#x174;" horiz-adv-x="1865" 
d="M27 1462h139l344 -1306l362 1300h136l352 -1298l348 1304h131l-412 -1462h-145l-352 1300l-352 -1300h-138zM877 1849h116l230 -264h-125l-164 170l-164 -170h-125z" />
    <glyph glyph-name="wcircumflex" unicode="&#x175;" horiz-adv-x="1456" 
d="M18 1055h132l245 -922l269 916h139l262 -916l246 922h127l-310 -1055h-137l-264 922l-266 -922h-137zM672 1483h116l230 -275h-121l-168 185l-168 -185h-121z" />
    <glyph glyph-name="Ycircumflex" unicode="&#x176;" horiz-adv-x="1204" 
d="M543 633l-512 829h147l428 -723l436 723h132l-506 -829v-633h-125v633zM545 1849h117l229 -264h-125l-164 170l-164 -170h-125z" />
    <glyph glyph-name="ycircumflex" unicode="&#x177;" horiz-adv-x="1019" 
d="M121 -268q25 -11 52 -17t58 -6q36 0 62 8q22 7 45 30q19 19 38 55q15 29 40 87l49 125l-453 1041h137l383 -903l342 903h134l-480 -1194q-22 -56 -50 -108q-25 -47 -57 -82q-29 -32 -75 -51q-41 -17 -102 -17q-44 0 -79 5t-73 19zM453 1483h116l230 -275h-121l-168 185
l-168 -185h-121z" />
    <glyph glyph-name="Ydieresis" unicode="&#x178;" horiz-adv-x="1204" 
d="M543 633l-512 829h147l428 -723l436 723h132l-506 -829v-633h-125v633zM344 1806h137v-178h-137v178zM680 1806h139v-178h-139v178z" />
    <glyph glyph-name="Zacute" unicode="&#x179;" horiz-adv-x="1198" 
d="M72 102l901 1248h-885v112h1030v-104l-899 -1243h918l-27 -115h-1038v102zM707 1849h161l-260 -264h-129z" />
    <glyph glyph-name="zacute" unicode="&#x17a;" horiz-adv-x="919" 
d="M47 100l670 854h-656v101h797v-101l-670 -854h705l-21 -100h-825v100zM584 1483h159l-260 -275h-127z" />
    <glyph glyph-name="Zdotaccent" unicode="&#x17b;" horiz-adv-x="1198" 
d="M72 102l901 1248h-885v112h1030v-104l-899 -1243h918l-27 -115h-1038v102zM539 1808h139v-182h-139v182z" />
    <glyph glyph-name="zdotaccent" unicode="&#x17c;" horiz-adv-x="919" 
d="M47 100l670 854h-656v101h797v-101l-670 -854h705l-21 -100h-825v100zM393 1444h135v-178h-135v178z" />
    <glyph glyph-name="Zcaron" unicode="&#x17d;" horiz-adv-x="1198" 
d="M72 102l901 1248h-885v112h1030v-104l-899 -1243h918l-27 -115h-1038v102zM322 1855h127l163 -172l164 172h123l-229 -264h-117z" />
    <glyph glyph-name="zcaron" unicode="&#x17e;" horiz-adv-x="919" 
d="M47 100l670 854h-656v101h797v-101l-670 -854h705l-21 -100h-825v100zM516 1212h-117l-229 275h121l168 -184l168 184h121z" />
    <glyph glyph-name="longs" unicode="&#x17f;" horiz-adv-x="413" 
d="M150 1176q0 80 23 135t65 94q39 36 94 55t112 19q36 0 78 -5q29 -3 78 -18l-25 -100q-27 9 -61 14q-25 4 -57 4q-80 0 -134 -42q-55 -43 -55 -152v-1180h-118v1176z" />
    <glyph glyph-name="florin" unicode="&#x192;" 
d="M6 -227q63 -27 129 -27q42 0 79 8q32 7 56 31q23 23 39 61q17 41 29 101l190 977h-166l19 104h168l22 121q28 155 105 230q76 75 231 75q53 0 91 -9q39 -9 71 -24l-31 -98q-31 13 -60 20q-38 9 -73 9q-96 0 -144 -42t-71 -161l-22 -121h282l-20 -104h-283l-190 -977
q-16 -82 -38 -135q-25 -59 -62 -96q-38 -38 -92 -56t-132 -18q-47 0 -86 9q-43 10 -72 23z" />
    <glyph glyph-name="Scommaaccent" unicode="&#x218;" horiz-adv-x="1314" 
d="M215 383q33 -165 141 -237t324 -72q111 0 183 24q70 23 116 66q43 40 61 96q19 59 19 117q0 54 -11 97q-12 47 -43 84q-33 39 -92 67q-61 29 -155 45l-183 30q-98 17 -189 48q-85 30 -140 74q-57 46 -87 116q-30 69 -30 170q0 100 42 174t113 122q70 48 166 72
q91 23 201 23q139 0 230 -30q94 -31 151 -78q59 -48 92 -112q35 -67 52 -126l-115 -33q-22 67 -48 114q-28 51 -74 85q-47 35 -116 53q-73 19 -170 19q-108 0 -188 -22q-76 -21 -123 -59t-68 -90q-20 -50 -20 -112q0 -65 14 -107q15 -44 49 -77q35 -33 94 -56t146 -39
l207 -36q109 -21 191 -54q83 -34 135 -83t78 -119t26 -164q0 -84 -33 -159t-97 -130q-63 -54 -161 -88q-96 -33 -225 -33q-116 0 -220 23q-101 22 -178 72q-75 49 -126 130q-50 80 -62 195h123zM610 -139h152l-182 -295h-121z" />
    <glyph glyph-name="scommaaccent" unicode="&#x219;" horiz-adv-x="1052" 
d="M207 293q23 -124 104 -174q83 -51 234 -51q154 0 217 57t63 143q0 35 -8 69q-7 30 -32 58q-24 27 -67 45q-47 19 -114 31l-129 21q-98 18 -150 34q-68 22 -113 55q-46 34 -70 84q-23 47 -23 123q0 67 31 126q30 57 83 95q50 36 126 58q69 20 157 20q109 0 181 -21
q74 -22 119 -58q47 -38 72 -86q24 -47 40 -105l-109 -22q-16 46 -38 83q-20 34 -54 59q-33 24 -82 36t-123 12q-82 0 -137 -15q-54 -15 -89 -42q-32 -25 -48 -62q-15 -34 -15 -71q0 -31 9 -67q7 -29 32 -52q23 -22 69 -39q45 -17 116 -29l162 -26q163 -28 247 -100
q82 -70 82 -216q0 -62 -25 -116t-76 -96q-47 -38 -126 -63q-77 -24 -174 -24q-91 0 -177 19q-81 18 -141 57q-58 38 -96 100q-37 61 -45 150h117zM485 -139h148l-178 -287h-117z" />
    <glyph glyph-name="uni021A" unicode="&#x21a;" horiz-adv-x="1208" 
d="M543 1348h-508v114h1139v-114h-506v-1348h-125v1348zM535 -139h151l-182 -295h-121z" />
    <glyph glyph-name="uni021B" unicode="&#x21b;" horiz-adv-x="675" 
d="M203 956h-164v99h164v291h119v-291h299v-99h-299v-690q0 -80 32 -132q33 -54 115 -54q50 0 90 8q37 8 66 18l24 -96q-25 -10 -75 -22q-46 -11 -115 -11q-89 0 -142 31q-49 29 -76 81q-26 51 -32 116q-6 66 -6 137v614zM360 -139h148l-178 -287h-117z" />
    <glyph glyph-name="dotlessj" unicode="&#x237;" horiz-adv-x="417" 
d="M-145 -250q22 -8 63 -17q32 -7 86 -7q85 0 115 51q31 53 31 135v1143h118v-1071q0 -76 -7 -138q-7 -65 -33 -115q-27 -52 -75 -81q-51 -31 -139 -31q-69 0 -111 9q-39 8 -73 22z" />
    <glyph glyph-name="apostrophe" unicode="&#x2bc;" horiz-adv-x="372" 
d="M139 1462h137l-96 -381h-92z" />
    <glyph glyph-name="circumflex" unicode="&#x2c6;" horiz-adv-x="776" 
d="M330 1483h116l230 -275h-121l-168 185l-168 -185h-121z" />
    <glyph glyph-name="caron" unicode="&#x2c7;" horiz-adv-x="776" 
d="M444 1212h-116l-230 275h121l168 -184l168 184h121z" />
    <glyph glyph-name="uni02C9" unicode="&#x2c9;" horiz-adv-x="776" 
d="M137 1389h500v-105h-500v105z" />
    <glyph glyph-name="breve" unicode="&#x2d8;" horiz-adv-x="776" 
d="M227 1475q0 -91 45 -136t115 -45q67 0 114 45q46 45 46 136h98q0 -128 -67 -198q-68 -71 -191 -71q-122 0 -190 71t-68 198h98z" />
    <glyph glyph-name="dotaccent" unicode="&#x2d9;" horiz-adv-x="776" 
d="M319 1444h136v-178h-136v178z" />
    <glyph glyph-name="ring" unicode="&#x2da;" horiz-adv-x="776" 
d="M195 1399q0 95 57 145q56 49 135 49q37 0 73 -12q33 -11 62 -37q27 -24 43 -61q17 -39 17 -84q0 -48 -17 -85t-43 -60t-62 -35q-39 -13 -73 -13q-78 0 -135 48t-57 145zM387 1286q47 0 75 28q27 27 27 85t-27 85t-75 27t-75 -27t-27 -85t27 -85q28 -28 75 -28z" />
    <glyph glyph-name="ogonek" unicode="&#x2db;" horiz-adv-x="776" 
d="M514 -348q-15 -4 -31 -4h-24q-201 0 -201 153q0 48 31 101q30 51 94 98h117q-125 -99 -125 -180q0 -47 27 -62q25 -14 71 -14h16q3 0 25 2v-94z" />
    <glyph glyph-name="tilde" unicode="&#x2dc;" horiz-adv-x="776" 
d="M45 1241q0 100 51 157q50 56 140 56q55 0 94 -18q30 -14 71 -40q44 -28 65 -40q33 -19 71 -19q57 0 76 34q20 35 20 79h98q0 -100 -51 -157q-50 -56 -139 -56q-56 0 -95 18q-30 14 -71 40q-44 28 -65 40q-33 19 -70 19q-58 0 -77 -34q-20 -35 -20 -79h-98z" />
    <glyph glyph-name="hungarumlaut" unicode="&#x2dd;" horiz-adv-x="776" 
d="M250 1483h156l-244 -275h-123zM580 1483h155l-246 -275h-120z" />
    <glyph glyph-name="tonos" unicode="&#x384;" horiz-adv-x="776" 
d="M375 1503h139l-174 -295h-107z" />
    <glyph glyph-name="dieresistonos" unicode="&#x385;" horiz-adv-x="776" 
d="M94 1434h125v-158h-125v158zM555 1434h127v-158h-127v158zM381 1503h139l-139 -295h-107z" />
    <glyph glyph-name="Alphatonos" unicode="&#x386;" horiz-adv-x="1353" 
d="M223 1462h139l-157 -315h-107zM604 1462h148l577 -1462h-135l-176 446h-688l-174 -446h-131zM973 561l-301 764l-297 -764h598z" />
    <glyph glyph-name="Epsilontonos" unicode="&#x388;" horiz-adv-x="1435" 
d="M98 1462h140l-158 -315h-107zM399 1462h920v-112h-795v-537h754v-117h-754v-581h830l-29 -115h-926v1462z" />
    <glyph glyph-name="Etatonos" unicode="&#x389;" horiz-adv-x="1642" 
d="M98 1462h140l-158 -315h-107zM399 1462h125v-647h826v647h125v-1462h-125v698h-826v-698h-125v1462z" />
    <glyph glyph-name="Iotatonos" unicode="&#x38a;" horiz-adv-x="692" 
d="M98 1462h140l-158 -315h-107zM399 1462h125v-1462h-125v1462z" />
    <glyph glyph-name="Omicrontonos" unicode="&#x38c;" horiz-adv-x="1658" 
d="M119 1462h139l-158 -315h-106zM887 -37q-142 0 -263 48q-120 47 -210 145q-91 98 -139 239q-50 145 -50 332q0 188 50 333q49 141 140 242q89 98 210 147q123 50 262 50q141 0 262 -48t208 -144q88 -97 137 -239q50 -144 50 -331q0 -192 -49 -335q-50 -144 -136 -241
q-89 -99 -208 -148q-123 -50 -264 -50zM887 74q128 0 227 48t165 135q65 86 100 208q34 120 34 266q0 143 -35 266q-34 120 -101 208q-66 87 -165 135q-101 49 -225 49q-132 0 -233 -49q-99 -48 -165 -135q-64 -84 -99 -208q-34 -120 -34 -266q0 -144 33 -266
q33 -121 99 -208q65 -86 166 -135q99 -48 233 -48z" />
    <glyph glyph-name="Upsilontonos" unicode="&#x38e;" horiz-adv-x="1521" 
d="M98 1462h140l-158 -315h-107zM860 633l-512 829h148l428 -723l436 723h131l-506 -829v-633h-125v633z" />
    <glyph glyph-name="Omegatonos" unicode="&#x38f;" horiz-adv-x="1603" 
d="M170 113h332q-61 50 -111 115q-52 67 -89 149q-39 86 -59 176q-22 99 -22 199q0 185 46 324q47 141 129 234t197 141q114 48 251 48t248 -46q112 -46 193 -138q80 -91 126 -231q45 -138 45 -322q0 -204 -80 -373q-79 -167 -209 -276h349l-25 -113h-502v92
q180 121 258 281q78 159 78 383q0 142 -29 263q-28 116 -89 200q-60 83 -150 126q-91 44 -213 44q-126 0 -220 -44q-95 -44 -154 -126q-61 -84 -89 -200q-29 -121 -29 -263q0 -222 81 -382q81 -161 253 -282v-92h-516v113zM98 1462h140l-158 -315h-107z" />
    <glyph glyph-name="iotadieresistonos" unicode="&#x390;" horiz-adv-x="516" 
d="M143 1055h119v-770q0 -113 31 -161q30 -46 108 -46q28 0 61 5q29 4 40 9l14 -98q-6 -2 -52 -11q-40 -8 -91 -8q-123 0 -176 71q-54 73 -54 196v813zM-29 1434h125v-158h-125v158zM432 1434h127v-158h-127v158zM258 1503h139l-139 -295h-106z" />
    <glyph glyph-name="Alpha" unicode="&#x391;" horiz-adv-x="1353" 
d="M604 1462h148l577 -1462h-135l-176 446h-688l-174 -446h-131zM973 561l-301 764l-297 -764h598z" />
    <glyph glyph-name="Beta" unicode="&#x392;" horiz-adv-x="1277" 
d="M168 1462h463q155 0 251 -28q95 -28 154 -79q58 -51 79 -116q22 -69 22 -139q0 -109 -52 -193q-51 -82 -172 -133q78 -27 130 -64q51 -37 84 -85q31 -46 45 -102t14 -109q0 -86 -27 -162q-26 -75 -88 -132q-61 -56 -160 -88q-101 -32 -241 -32h-502v1462zM649 821
q191 0 278 69t87 204q0 134 -87 197t-300 63h-336v-533h358zM666 111q120 0 191 20q77 21 119 58q42 36 61 93q18 54 18 121q0 150 -90 228t-293 78h-381v-598h375z" />
    <glyph glyph-name="Gamma" unicode="&#x393;" horiz-adv-x="1060" 
d="M1036 1462v-112h-743v-1350h-125v1462h868z" />
    <glyph glyph-name="uni0394" unicode="&#x394;" horiz-adv-x="1318" 
d="M590 1462h137l565 -1462h-1265zM1116 115l-461 1212l-460 -1212h921z" />
    <glyph glyph-name="Epsilon" unicode="&#x395;" horiz-adv-x="1204" 
d="M168 1462h919v-112h-794v-537h754v-117h-754v-581h829l-28 -115h-926v1462z" />
    <glyph glyph-name="Zeta" unicode="&#x396;" horiz-adv-x="1198" 
d="M72 102l901 1248h-885v112h1030v-104l-899 -1243h918l-27 -115h-1038v102z" />
    <glyph glyph-name="Eta" unicode="&#x397;" horiz-adv-x="1411" 
d="M168 1462h125v-647h825v647h125v-1462h-125v698h-825v-698h-125v1462z" />
    <glyph glyph-name="Theta" unicode="&#x398;" horiz-adv-x="1548" 
d="M406 815h737v-117h-737v117zM776 -37q-142 0 -263 48q-120 47 -210 145q-89 97 -138 239q-50 145 -50 332q0 188 50 333q49 143 139 242q88 98 210 147q123 50 262 50q140 0 262 -48q121 -48 208 -144q88 -97 137 -239q51 -147 51 -331q0 -190 -50 -335
q-50 -144 -136 -241q-89 -99 -208 -148q-123 -50 -264 -50zM776 74q129 0 228 48q97 47 164 135t101 208t34 266q0 143 -35 266q-33 118 -102 208q-66 87 -165 135q-101 49 -225 49q-131 0 -232 -49q-99 -48 -165 -135q-64 -84 -99 -208q-34 -120 -34 -266q0 -144 33 -266
q33 -121 99 -208q65 -86 166 -135q99 -48 232 -48z" />
    <glyph glyph-name="Iota" unicode="&#x399;" horiz-adv-x="460" 
d="M168 1462h125v-1462h-125v1462z" />
    <glyph glyph-name="Kappa" unicode="&#x39a;" horiz-adv-x="1302" 
d="M168 1462h125v-764l768 764h149l-542 -547l598 -915h-152l-541 834l-280 -277v-557h-125v1462z" />
    <glyph glyph-name="Lambda" unicode="&#x39b;" horiz-adv-x="1316" 
d="M1292 0h-143l-496 1321l-497 -1321h-131l563 1462h135z" />
    <glyph glyph-name="Mu" unicode="&#x39c;" horiz-adv-x="1716" 
d="M168 1462h162l528 -1317l537 1317h153v-1462h-116v1253q-11 -19 -66 -157q-36 -90 -61 -151q-10 -25 -41 -99.5t-51 -123.5q-20 -48 -63.5 -154t-64.5 -156q-16 -38 -74.5 -180t-95.5 -232h-118l-512 1245v-1245h-117v1462z" />
    <glyph glyph-name="Nu" unicode="&#x39d;" horiz-adv-x="1413" 
d="M168 1462h137l819 -1265v1265h121v-1462h-135l-821 1270v-1270h-121v1462z" />
    <glyph glyph-name="Xi" unicode="&#x39e;" horiz-adv-x="1103" 
d="M92 1462h914v-114h-914v114zM82 115h940l-29 -115h-911v115zM133 815h832v-117h-832v117z" />
    <glyph glyph-name="Omicron" unicode="&#x39f;" horiz-adv-x="1548" 
d="M776 -37q-142 0 -263 48q-120 47 -210 145q-89 97 -138 239q-50 145 -50 332q0 188 50 333q49 143 139 242q88 98 210 147q123 50 262 50q140 0 262 -48q121 -48 208 -144q88 -97 137 -239q51 -147 51 -331q0 -190 -50 -335q-50 -144 -136 -241q-89 -99 -208 -148
q-123 -50 -264 -50zM776 74q129 0 228 48q97 47 164 135t101 208t34 266q0 143 -35 266q-33 118 -102 208q-66 87 -165 135q-101 49 -225 49q-131 0 -232 -49q-99 -48 -165 -135q-64 -84 -99 -208q-34 -120 -34 -266q0 -144 33 -266q33 -121 99 -208q65 -86 166 -135
q99 -48 232 -48z" />
    <glyph glyph-name="Pi" unicode="&#x3a0;" horiz-adv-x="1388" 
d="M1096 1350h-803v-1350h-125v1462h1053v-1462h-125v1350z" />
    <glyph glyph-name="Rho" unicode="&#x3a1;" horiz-adv-x="1267" 
d="M168 1462h471q161 0 262 -34q104 -35 161 -91q58 -57 81 -134q22 -75 22 -163q0 -93 -23 -172q-24 -83 -83 -143q-59 -61 -162 -97q-102 -36 -262 -36h-344v-592h-123v1462zM637 700q123 0 201 24q79 24 123 67q45 43 61 104q16 60 16 139q0 82 -18 142q-17 57 -65 99
q-45 39 -124 59q-80 20 -196 20h-344v-654h346z" />
    <glyph glyph-name="Sigma" unicode="&#x3a3;" horiz-adv-x="1163" 
d="M72 104l516 627l-504 629v102h997v-114h-837l485 -611l-510 -622h883l-29 -115h-1001v104z" />
    <glyph glyph-name="Tau" unicode="&#x3a4;" horiz-adv-x="1208" 
d="M543 1348h-508v114h1139v-114h-506v-1348h-125v1348z" />
    <glyph glyph-name="Upsilon" unicode="&#x3a5;" horiz-adv-x="1204" 
d="M543 633l-512 829h147l428 -723l436 723h132l-506 -829v-633h-125v633z" />
    <glyph glyph-name="Phi" unicode="&#x3a6;" horiz-adv-x="1648" 
d="M885 1358q154 -6 275 -48q122 -42 207 -117q84 -74 131 -181q46 -105 46 -242q0 -144 -50 -252q-50 -106 -138 -177q-91 -73 -209 -109q-126 -39 -262 -46v-186h-123v186q-138 7 -262 44q-119 35 -209 107q-89 71 -138 177q-51 110 -51 254q0 137 46 242t132 182
q85 76 206 118t276 48v166h123v-166zM1413 774q0 211 -130 341t-398 142v-970q119 7 225 39q97 29 166 89q68 59 102 147q35 90 35 212zM233 772q0 -121 35 -211q33 -86 103 -146q69 -60 166 -89q106 -32 225 -39v970q-142 -6 -239 -43q-101 -38 -164 -100q-65 -64 -95 -150
q-31 -90 -31 -192z" />
    <glyph glyph-name="Chi" unicode="&#x3a7;" horiz-adv-x="1255" 
d="M549 774l-479 688h149l408 -604l411 604h133l-477 -698l533 -764h-150l-461 674l-452 -674h-135z" />
    <glyph glyph-name="Psi" unicode="&#x3a8;" horiz-adv-x="1671" 
d="M774 416q-142 6 -257 42q-119 37 -199 110q-83 76 -128 195q-45 120 -45 292v407h123v-407q0 -145 36 -247q35 -100 102 -164q67 -63 158 -93q95 -31 210 -35v946h123v-946q115 4 210 35q91 29 159 94q64 61 101 164q36 101 36 246v407h123v-407q0 -161 -46 -278
q-45 -115 -129 -196q-80 -77 -199 -119q-114 -40 -255 -46v-416h-123v416z" />
    <glyph glyph-name="Omega" unicode="&#x3a9;" horiz-adv-x="1529" 
d="M96 113h332q-61 50 -111 115q-52 67 -89 149q-39 86 -59 176q-22 99 -22 199q0 181 47 324q46 141 129 234t196 141q114 48 251 48t248 -46q112 -46 193 -138q80 -91 126 -231q45 -138 45 -322q0 -206 -79 -373t-209 -276h348l-25 -113h-502v92q181 122 259 281
q77 157 77 383q0 147 -28 263t-89 200q-59 82 -151 126q-91 44 -213 44q-126 0 -220 -44q-95 -44 -154 -126q-61 -84 -89 -200t-28 -263q0 -223 80 -382q81 -161 253 -282v-92h-516v113z" />
    <glyph glyph-name="Iotadieresis" unicode="&#x3aa;" horiz-adv-x="460" 
d="M168 1462h125v-1462h-125v1462zM-6 1806h137v-178h-137v178zM330 1806h139v-178h-139v178z" />
    <glyph glyph-name="Upsilondieresis" unicode="&#x3ab;" horiz-adv-x="1204" 
d="M543 633l-512 829h147l428 -723l436 723h132l-506 -829v-633h-125v633zM373 1806h137v-178h-137v178zM709 1806h139v-178h-139v178z" />
    <glyph glyph-name="alphatonos" unicode="&#x3ac;" horiz-adv-x="1357" 
d="M1057 510l76 -252q20 -66 29 -91q13 -35 28 -56q16 -22 31 -29q18 -8 39 -8q22 0 45 6q10 1 22 6l21 -90q-11 -4 -35 -12q-11 -3 -35 -9q-16 -4 -37 -4q-72 0 -112 40q-38 38 -72 143l-68 225q-32 -87 -65 -152q-38 -75 -88 -132q-50 -58 -118 -93q-67 -35 -157 -35
q-113 0 -200 41q-83 39 -140 115q-56 75 -83 174q-27 101 -27 217q0 146 33 249q34 108 96 180q63 74 145 109t184 35q99 0 169 -30q72 -31 121 -87q53 -61 85 -135q37 -86 64 -176l137 396h112zM565 70q75 0 130 35q56 35 100 99q41 60 77 145t68 175q-29 108 -62 197
q-30 82 -73 144q-41 59 -98 89q-59 31 -140 31q-73 0 -133 -27q-59 -26 -101 -84q-42 -57 -66 -145q-23 -85 -23 -213q0 -217 83 -332q83 -114 238 -114zM670 1503h139l-174 -295h-107z" />
    <glyph glyph-name="epsilontonos" unicode="&#x3ad;" horiz-adv-x="1058" 
d="M985 287q-7 -62 -23 -114q-17 -55 -63 -102q-45 -47 -126 -75q-82 -29 -214 -29q-119 0 -205 23t-137 64q-54 43 -78 100t-24 125q0 99 52 170q52 72 150 100q-71 22 -126 83q-54 60 -54 154q0 58 21 112q21 55 70 96q50 43 134 68q82 25 209 25q115 0 186 -25
q72 -25 116 -65q46 -41 66 -88q24 -56 30 -94l-107 -18q-6 35 -22 68q-17 36 -49 62q-33 27 -89 45q-52 17 -141 17q-301 0 -301 -192q0 -104 61 -151q59 -46 181 -46h219v-98h-211q-272 0 -272 -211q0 -117 76 -171t253 -54q91 0 148 15q55 15 91 44q33 27 49 70
q16 44 22 92h108zM612 1503h140l-174 -295h-107z" />
    <glyph glyph-name="etatonos" unicode="&#x3ae;" horiz-adv-x="1146" 
d="M143 1055h119v-172q86 108 183 156t208 48q182 0 267 -100q86 -101 86 -285v-1099h-119v1067q0 166 -60 238q-61 73 -188 73q-61 0 -130 -24q-70 -24 -124 -74q-62 -53 -92 -110q-31 -59 -31 -155v-618h-119v1055zM662 1503h139l-174 -295h-107z" />
    <glyph glyph-name="iotatonos" unicode="&#x3af;" horiz-adv-x="516" 
d="M143 1055h119v-770q0 -113 31 -161q30 -46 108 -46q28 0 61 5q29 4 40 9l14 -98q-6 -2 -52 -11q-40 -8 -91 -8q-123 0 -176 71q-54 73 -54 196v813zM287 1503h139l-174 -295h-107z" />
    <glyph glyph-name="upsilondieresistonos" unicode="&#x3b0;" horiz-adv-x="1122" 
d="M143 1055h119v-611q0 -193 71 -284q71 -90 230 -90q160 0 229 90q68 89 68 284v611h119v-611q0 -130 -31 -223q-30 -89 -86 -147q-57 -58 -132 -82q-80 -25 -169 -25q-97 0 -178 25q-77 24 -131 82q-55 59 -81 147q-28 93 -28 223v611zM270 1434h125v-158h-125v158z
M731 1434h127v-158h-127v158zM557 1503h139l-139 -295h-106z" />
    <glyph glyph-name="alpha" unicode="&#x3b1;" horiz-adv-x="1357" 
d="M1057 510l76 -252q20 -66 29 -91q13 -35 28 -56q16 -22 31 -29q18 -8 39 -8q22 0 45 6q10 1 22 6l21 -90q-11 -4 -35 -12q-11 -3 -35 -9q-16 -4 -37 -4q-72 0 -112 40q-38 38 -72 143l-68 225q-32 -87 -65 -152q-38 -75 -88 -132q-50 -58 -118 -93q-67 -35 -157 -35
q-113 0 -200 41q-83 39 -140 115q-56 75 -83 174q-27 101 -27 217q0 146 33 249q34 108 96 180q63 74 145 109t184 35q99 0 169 -30q72 -31 121 -87q53 -61 85 -135q37 -86 64 -176l137 396h112zM565 70q75 0 130 35q56 35 100 99q41 60 77 145t68 175q-29 108 -62 197
q-30 82 -73 144q-41 59 -98 89q-59 31 -140 31q-73 0 -133 -27q-59 -26 -101 -84q-42 -57 -66 -145q-23 -85 -23 -213q0 -217 83 -332q83 -114 238 -114z" />
    <glyph glyph-name="beta" unicode="&#x3b2;" horiz-adv-x="1165" 
d="M143 1055q0 199 111 311q111 113 315 113q196 0 296 -97t100 -260q0 -64 -18 -117q-19 -55 -47 -93q-28 -37 -69 -66q-39 -27 -81 -43q46 -7 107 -34q53 -24 102 -74q47 -48 77 -121q31 -74 31 -171q0 -105 -38 -186t-99 -133q-63 -54 -140 -80q-80 -27 -161 -27
q-107 0 -205 43t-162 134v-551h-119v1452zM262 440q0 -88 32 -157q32 -68 83 -113q52 -46 116 -68q63 -22 130 -22q165 0 243 85t78 222q0 76 -21 139q-21 64 -65 109q-45 47 -108 71q-65 25 -154 25h-129v103h84q62 0 112 17q52 18 92 52q38 32 63 89q24 54 24 126
q0 127 -69 193q-68 65 -204 65q-157 0 -232 -80t-75 -249v-607z" />
    <glyph glyph-name="gamma" unicode="&#x3b3;" horiz-adv-x="1017" 
d="M446 29l-434 1026h138l362 -899l360 899h134l-441 -1032v-420h-119v426z" />
    <glyph glyph-name="delta" unicode="&#x3b4;" horiz-adv-x="1169" 
d="M111 463q0 111 32 194q33 86 87 149q53 61 122 103q72 43 137 60q-52 28 -97 57q-42 27 -69 57q-26 29 -42 67q-15 36 -15 85q0 43 20 88t62 78q45 35 111 56q71 22 162 22q178 0 265 -72q86 -72 103 -195l-102 -20q-21 103 -84 146q-64 44 -187 44q-110 0 -173 -36
q-66 -38 -66 -109q0 -28 9 -52q8 -23 36 -47q26 -23 74 -51q35 -21 122 -63q138 -69 223 -129q87 -62 137 -128q51 -68 70 -140t19 -166q0 -91 -29 -181q-30 -92 -88 -159q-62 -71 -148 -112q-88 -42 -212 -42q-118 0 -209 38q-89 37 -150 106q-60 68 -90 157
q-30 90 -30 195zM586 915q-72 -17 -135 -51q-66 -36 -111 -90q-50 -59 -75 -131q-27 -77 -27 -174q0 -185 91 -292t265 -107q94 0 158 29t108 82t63 123q19 69 19 155q0 92 -26 162q-27 72 -71 122q-51 58 -112 95q-64 39 -147 77z" />
    <glyph glyph-name="epsilon" unicode="&#x3b5;" horiz-adv-x="1058" 
d="M985 287q-7 -62 -23 -114q-17 -55 -63 -102q-45 -47 -126 -75q-82 -29 -214 -29q-119 0 -205 23t-137 64q-54 43 -78 100t-24 125q0 99 52 170q52 72 150 100q-71 22 -126 83q-54 60 -54 154q0 58 21 112q21 55 70 96q50 43 134 68q82 25 209 25q115 0 186 -25
q72 -25 116 -65q46 -41 66 -88q24 -56 30 -94l-107 -18q-6 35 -22 68q-17 36 -49 62q-33 27 -89 45q-52 17 -141 17q-301 0 -301 -192q0 -104 61 -151q59 -46 181 -46h219v-98h-211q-272 0 -272 -211q0 -117 76 -171t253 -54q91 0 148 15q55 15 91 44q33 27 49 70
q16 44 22 92h108z" />
    <glyph glyph-name="zeta" unicode="&#x3b6;" horiz-adv-x="944" 
d="M178 1462h737v-102l-112 -82q-67 -49 -143 -113q-69 -58 -149 -138q-75 -75 -135 -159q-59 -83 -97 -175q-37 -90 -37 -185q0 -91 16 -152q17 -63 52 -109t93 -79q56 -33 140 -57l121 -37q155 -46 225 -114q67 -66 67 -159q0 -42 -10 -75q-12 -40 -25 -63
q-15 -27 -34 -49q-21 -24 -33 -34l-76 60q18 18 41 57q25 42 25 94q0 53 -45 96t-160 78l-113 33q-105 29 -185 73q-78 43 -128 100q-51 59 -75 136q-23 75 -23 180q0 103 33 193q34 92 90 179q53 82 126 161q70 76 142 139q82 72 138 115q68 53 116 86h-582v102z" />
    <glyph glyph-name="eta" unicode="&#x3b7;" horiz-adv-x="1146" 
d="M143 1055h119v-172q86 108 183 156t208 48q182 0 267 -100q86 -101 86 -285v-1099h-119v1067q0 166 -60 238q-61 73 -188 73q-61 0 -130 -24q-70 -24 -124 -74q-62 -53 -92 -110q-31 -59 -31 -155v-618h-119v1055z" />
    <glyph glyph-name="theta" unicode="&#x3b8;" horiz-adv-x="1206" 
d="M600 -37q-231 0 -358 185t-127 571q0 190 35 336q34 142 99 237t155 141q91 46 204 46q229 0 357 -187q127 -185 127 -573q0 -385 -129 -571q-128 -185 -363 -185zM606 66q103 0 171 43q70 44 111 122q42 79 60 193q20 123 21 254h-731q2 -144 22 -254q22 -115 64 -193
q43 -78 112 -122q68 -43 170 -43zM604 1376q-98 0 -167 -42q-67 -41 -111 -121q-43 -79 -64 -188q-19 -100 -24 -245h729q-5 136 -24 245q-20 111 -62 188q-43 79 -111 121t-166 42z" />
    <glyph glyph-name="iota" unicode="&#x3b9;" horiz-adv-x="516" 
d="M143 1055h119v-770q0 -113 31 -161q30 -46 108 -46q28 0 61 5q29 4 40 9l14 -98q-6 -2 -52 -11q-40 -8 -91 -8q-123 0 -176 71q-54 73 -54 196v813z" />
    <glyph glyph-name="kappa" unicode="&#x3ba;" horiz-adv-x="1009" 
d="M143 1055h119v-557l543 557h143l-362 -379l413 -676h-143l-360 592l-234 -234v-358h-119v1055z" />
    <glyph glyph-name="lambda" unicode="&#x3bb;" horiz-adv-x="1019" 
d="M102 1452q42 16 78 23q42 8 80 8q46 0 88 -13q40 -12 71 -39q29 -25 58 -73q23 -39 53 -113l478 -1245h-134l-350 942l-385 -942h-127l455 1079l-49 125q-20 47 -41 87q-18 34 -39 52q-22 19 -43 26t-53 7q-55 0 -111 -22z" />
    <glyph glyph-name="uni03BC" unicode="&#x3bc;" horiz-adv-x="1120" 
d="M139 1055h119v-682q0 -168 61 -233q61 -66 189 -66q56 0 110 22q52 21 121 76q54 45 86 101q33 59 33 135v647h119v-1055h-119v168q-86 -108 -179 -155q-92 -46 -196 -46q-68 0 -125 15t-100 65v-446h-119v1454z" />
    <glyph glyph-name="nu" unicode="&#x3bd;" horiz-adv-x="1015" 
d="M12 1055h138l358 -926l366 926h130l-426 -1055h-140z" />
    <glyph glyph-name="xi" unicode="&#x3be;" horiz-adv-x="989" 
d="M854 1176q-21 116 -88 168q-68 53 -209 53q-150 0 -228 -70q-77 -69 -77 -194q0 -83 23 -135q24 -54 63 -87q37 -31 87 -47q45 -14 97 -14h226v-98h-201q-154 0 -245 -76t-91 -236q0 -77 19 -130q20 -54 60 -93q40 -38 97 -64q57 -25 135 -42l174 -39q84 -18 142 -49
q56 -30 86 -68t42 -76q11 -36 11 -76q0 -42 -10 -75q-11 -35 -26 -64q-14 -27 -34 -50q-21 -24 -33 -34l-75 60q18 18 41 57q24 41 24 94q0 60 -49 105t-156 69l-182 41q-180 40 -286 144q-103 102 -103 272q0 158 72 250q73 93 176 127q-94 28 -150 110q-57 84 -57 209
q0 77 27 146q27 68 81 121q55 53 135 83q84 31 191 31q167 0 273 -76q107 -77 125 -225z" />
    <glyph glyph-name="omicron" unicode="&#x3bf;" horiz-adv-x="1206" 
d="M602 70q101 0 168 35q71 37 114 98t64 145t21 182q0 96 -21 178q-21 84 -64 144q-42 59 -114 97q-69 36 -168 36t-168 -36t-112 -97q-43 -60 -64 -144q-20 -79 -20 -180q0 -100 20 -180q21 -84 64 -145q44 -63 112 -98q67 -35 168 -35zM598 -33q-114 0 -206 39
q-88 37 -153 112q-62 71 -96 175q-32 99 -32 229q0 131 34 234q34 102 100 178q65 74 156 114q88 39 205 39t206 -38t154 -112q60 -69 96 -175q34 -101 34 -227q0 -131 -34 -234q-35 -105 -98 -179q-63 -73 -157 -115q-90 -40 -209 -40z" />
    <glyph glyph-name="pi" unicode="&#x3c0;" horiz-adv-x="1187" 
d="M799 952h-445v-952h-118v952h-203v103h1097v-103h-212v-690q0 -105 29 -144q30 -40 89 -40q21 0 45 2q19 2 29 6l12 -96q-12 -4 -39 -9q-36 -6 -63 -6q-116 0 -169 72q-52 71 -52 213v692z" />
    <glyph glyph-name="rho" unicode="&#x3c1;" horiz-adv-x="1193" 
d="M143 551q0 131 35 233q34 100 98 168q62 67 151 102q83 33 189 33q231 0 349 -149t118 -414q0 -116 -30 -218q-29 -100 -90 -177q-58 -74 -149 -119q-87 -43 -208 -43q-116 0 -204 50q-87 50 -140 122v-536h-119v948zM260 453q0 -74 22 -146q21 -69 65 -122
q43 -51 111 -84q65 -31 158 -31q150 0 245 111q95 112 95 349q0 124 -24 209t-70 142q-46 56 -108 80q-63 24 -142 24q-74 0 -137 -24q-62 -23 -111 -76q-50 -53 -76 -130q-28 -82 -28 -190v-112z" />
    <glyph glyph-name="sigma1" unicode="&#x3c2;" horiz-adv-x="1071" 
d="M518 0q-105 23 -188 69q-78 44 -125 110q-48 68 -69 156q-21 89 -21 206q0 121 33 217q35 102 97 173q65 74 152 115q88 41 205 41q169 0 278 -86q108 -85 142 -253l-115 -29q-24 118 -95 192t-208 74q-97 0 -164 -36q-68 -36 -112 -95q-46 -61 -66 -138
q-20 -76 -20 -165q0 -119 20 -192q21 -77 60 -126q38 -48 94 -77q54 -28 123 -43l155 -35q163 -38 233 -105t70 -166q0 -45 -11 -79q-12 -36 -27 -67q-14 -28 -33 -50q-13 -16 -31 -31l-76 60q17 21 39 53q27 39 27 98q0 73 -57 113t-150 61z" />
    <glyph glyph-name="sigma" unicode="&#x3c3;" horiz-adv-x="1208" 
d="M580 -33q-116 0 -204 38q-86 37 -147 109q-58 68 -89 170q-29 96 -29 222q0 119 33 215q35 101 103 174q70 74 173 117q104 43 246 43h469v-103h-263q98 -89 148 -212q49 -120 49 -251q0 -115 -33 -209q-34 -99 -95 -165q-65 -71 -154 -109q-91 -39 -207 -39zM584 70
q100 0 167 32q69 33 110 89q43 58 62 134q19 75 19 164q0 132 -44 249q-43 114 -146 214h-109q-190 0 -297 -104q-108 -105 -108 -336q0 -96 17 -173q18 -81 58 -140q41 -60 107 -95q65 -34 164 -34z" />
    <glyph glyph-name="tau" unicode="&#x3c4;" horiz-adv-x="987" 
d="M33 1055h897v-103h-428v-635q0 -140 50 -192q50 -51 155 -51q68 0 114 14q49 15 66 21l20 -97q-21 -10 -82 -25q-64 -16 -143 -16q-299 0 -299 318v663h-350v103z" />
    <glyph glyph-name="upsilon" unicode="&#x3c5;" horiz-adv-x="1122" 
d="M143 1055h119v-611q0 -193 71 -284q71 -90 230 -90q160 0 229 90q68 89 68 284v611h119v-611q0 -130 -31 -223q-30 -89 -86 -147q-57 -58 -132 -82q-80 -25 -169 -25q-97 0 -178 25q-77 24 -131 82q-55 59 -81 147q-28 93 -28 223v611z" />
    <glyph glyph-name="phi" unicode="&#x3c6;" horiz-adv-x="1511" 
d="M698 -29q-153 7 -270 51q-115 43 -185 113q-73 73 -107 171t-34 222q0 119 40 220q40 102 121 178q78 73 204 118q122 43 291 43q172 0 295 -45t202 -121t117 -181q37 -102 37 -220q0 -120 -44 -220t-123 -170q-81 -72 -188 -113q-109 -42 -241 -48v-366h-115v368z
M229 539q0 -222 119 -341q117 -117 350 -128v917q-220 -11 -344 -126q-125 -116 -125 -322zM1282 512q0 228 -120 347q-119 117 -349 128v-917q105 6 192 36q84 29 148 87q60 54 95 135q34 78 34 184z" />
    <glyph glyph-name="chi" unicode="&#x3c7;" horiz-adv-x="1009" 
d="M842 -133q22 -46 46 -86q21 -34 41 -56t39 -32t42 -10q43 0 82 20l32 -90q-24 -13 -53 -23t-72 -10q-47 0 -87 19q-37 18 -69 53q-34 37 -61 87q-23 43 -61 120l-201 413l-356 -669h-125l418 778l-215 444q-38 78 -76 118q-39 40 -90 40q-21 0 -39 -5q-11 -3 -33 -13
l-33 90q57 30 121 30q95 0 153 -64q57 -63 115 -183l170 -357l299 574h123l-360 -680z" />
    <glyph glyph-name="psi" unicode="&#x3c8;" horiz-adv-x="1568" 
d="M727 1055h115v-977q110 0 197 27q86 27 147 91t90 163q31 105 31 249v447h118v-486q0 -154 -45 -266q-45 -113 -123 -186q-80 -75 -184 -109q-108 -35 -231 -35v-370h-115v370q-126 0 -231 34q-106 34 -186 107q-79 72 -123 185q-44 114 -44 270v486h119v-447
q0 -142 31 -246q30 -100 90 -163q63 -66 146 -93q85 -28 198 -28v977z" />
    <glyph glyph-name="omega" unicode="&#x3c9;" horiz-adv-x="1622" 
d="M811 203q-11 -41 -35 -85q-22 -41 -60 -76q-34 -32 -92 -54q-54 -21 -128 -21q-77 0 -149 29q-70 28 -123 92t-83 165q-30 102 -30 249q0 96 22 183q22 86 53 164q29 73 65 132q42 69 56 88l94 -51q-27 -46 -46 -76q-28 -43 -58 -113q-28 -65 -49 -147t-21 -182
q0 -113 22 -199q21 -83 58 -133q38 -52 86 -75q47 -23 105 -23q124 0 190 97t66 282v276h114v-276q0 -185 66 -282t190 -97q58 0 105 23q48 23 86 75q37 50 58 133q22 86 22 199q0 96 -18 175q-19 83 -44 142q-30 70 -56 113q-35 57 -56 88l94 51q26 -36 61 -94
q35 -57 65 -130q27 -65 50 -160q20 -83 20 -183q0 -135 -30 -237q-29 -99 -83 -167q-51 -64 -123 -98q-71 -33 -149 -33q-74 0 -128 21q-58 22 -92 54q-38 35 -60 76q-24 44 -35 85z" />
    <glyph glyph-name="iotadieresis" unicode="&#x3ca;" horiz-adv-x="516" 
d="M143 1055h119v-770q0 -113 31 -161q30 -46 108 -46q28 0 61 5q29 4 40 9l14 -98q-6 -2 -52 -11q-40 -8 -91 -8q-123 0 -176 71q-54 73 -54 196v813zM-23 1442h134v-174h-134v174zM305 1442h135v-174h-135v174z" />
    <glyph glyph-name="upsilondieresis" unicode="&#x3cb;" horiz-adv-x="1122" 
d="M143 1055h119v-611q0 -193 71 -284q71 -90 230 -90q160 0 229 90q68 89 68 284v611h119v-611q0 -130 -31 -223q-30 -89 -86 -147q-57 -58 -132 -82q-80 -25 -169 -25q-97 0 -178 25q-77 24 -131 82q-55 59 -81 147q-28 93 -28 223v611zM332 1442h133v-174h-133v174z
M659 1442h136v-174h-136v174z" />
    <glyph glyph-name="omicrontonos" unicode="&#x3cc;" horiz-adv-x="1214" 
d="M606 70q103 0 170 35q70 37 115 98q44 60 65 145q21 84 21 182q0 96 -21 178q-22 85 -65 144q-44 60 -115 97q-69 36 -170 36q-98 0 -169 -36t-114 -97q-44 -63 -65 -144q-20 -79 -20 -180q0 -100 20 -180q21 -82 65 -145q44 -62 114 -98q69 -35 169 -35zM602 -33
q-116 0 -208 39q-88 37 -153 112q-62 70 -97 175q-33 98 -33 229q0 132 35 234q35 103 101 178q65 74 156 114q88 39 207 39q118 0 207 -38q92 -39 156 -112q62 -70 97 -175q34 -101 34 -227q0 -127 -35 -234q-34 -103 -99 -179q-64 -74 -158 -115q-92 -40 -210 -40z
M672 1503h139l-174 -295h-107z" />
    <glyph glyph-name="upsilontonos" unicode="&#x3cd;" horiz-adv-x="1122" 
d="M143 1055h119v-611q0 -193 71 -284q71 -90 230 -90q160 0 229 90q68 89 68 284v611h119v-611q0 -130 -31 -223q-30 -89 -86 -147q-57 -58 -132 -82q-80 -25 -169 -25q-97 0 -178 25q-77 24 -131 82q-55 59 -81 147q-28 93 -28 223v611zM649 1503h139l-174 -295h-106z" />
    <glyph glyph-name="omegatonos" unicode="&#x3ce;" horiz-adv-x="1622" 
d="M811 203q-11 -41 -35 -85q-22 -41 -60 -76q-34 -32 -92 -54q-54 -21 -128 -21q-77 0 -149 29q-70 28 -123 92t-83 165q-30 102 -30 249q0 96 22 183q22 86 53 164q29 73 65 132q42 69 56 88l94 -51q-27 -46 -46 -76q-28 -43 -58 -113q-28 -65 -49 -147t-21 -182
q0 -113 22 -199q21 -83 58 -133q38 -52 86 -75q47 -23 105 -23q124 0 190 97t66 282v276h114v-276q0 -185 66 -282t190 -97q58 0 105 23q48 23 86 75q37 50 58 133q22 86 22 199q0 96 -18 175q-19 83 -44 142q-30 70 -56 113q-35 57 -56 88l94 51q26 -36 61 -94
q35 -57 65 -130q27 -65 50 -160q20 -83 20 -183q0 -135 -30 -237q-29 -99 -83 -167q-51 -64 -123 -98q-71 -33 -149 -33q-74 0 -128 21q-58 22 -92 54q-38 35 -60 76q-24 44 -35 85zM842 1503h139l-174 -295h-107z" />
    <glyph glyph-name="uni0400" unicode="&#x400;" horiz-adv-x="1204" 
d="M168 1462h919v-112h-794v-537h754v-117h-754v-581h829l-28 -115h-926v1462zM397 1849h162l227 -264h-129z" />
    <glyph glyph-name="afii10023" unicode="&#x401;" horiz-adv-x="1204" 
d="M168 1462h919v-112h-794v-537h754v-117h-754v-581h829l-28 -115h-926v1462zM393 1806h137v-178h-137v178zM729 1806h139v-178h-139v178z" />
    <glyph glyph-name="afii10051" unicode="&#x402;" horiz-adv-x="1552" 
d="M549 0h-123v1352h-401v110h1052v-110h-528v-523q82 35 178 52q101 18 199 18q160 0 263 -39q106 -40 164 -101q61 -64 83 -145t22 -168q0 -97 -28 -177t-95 -141q-65 -59 -175 -94q-108 -34 -269 -34h-92v109h114q225 0 321 80q97 81 97 253q0 86 -20 147q-21 64 -69 109
t-128 69t-201 24q-90 0 -187 -17t-177 -49v-725z" />
    <glyph glyph-name="afii10052" unicode="&#x403;" horiz-adv-x="1060" 
d="M1036 1462v-112h-743v-1350h-125v1462h868zM700 1849h162l-260 -264h-129z" />
    <glyph glyph-name="afii10053" unicode="&#x404;" horiz-adv-x="1466" 
d="M928 696h-686q5 -140 40 -252q36 -115 101 -196t160 -128q93 -46 215 -46q109 0 189 24q79 24 132 71q55 49 84 111q30 64 45 144h123q-29 -209 -174 -335t-399 -126q-144 0 -261 49t-203 147t-132 239q-47 144 -47 329q0 189 51 333q51 145 138 242t203 147
q117 50 247 50q117 0 215 -31q93 -29 163 -86q66 -53 111 -132q43 -76 66 -171l-119 -26q-40 166 -146 252t-290 86q-114 0 -204 -43q-92 -44 -156 -121t-103 -186q-40 -110 -47 -236h684v-109z" />
    <glyph glyph-name="afii10054" unicode="&#x405;" horiz-adv-x="1314" 
d="M215 383q33 -165 141 -237t324 -72q111 0 183 24q70 23 116 66q43 40 61 96q19 59 19 117q0 54 -11 97q-12 47 -43 84q-33 39 -92 67q-61 29 -155 45l-183 30q-98 17 -189 48q-85 30 -140 74q-57 46 -87 116q-30 69 -30 170q0 100 42 174t113 122q70 48 166 72
q91 23 201 23q139 0 230 -30q94 -31 151 -78q59 -48 92 -112q35 -67 52 -126l-115 -33q-22 67 -48 114q-28 51 -74 85q-47 35 -116 53q-73 19 -170 19q-108 0 -188 -22q-76 -21 -123 -59t-68 -90q-20 -50 -20 -112q0 -65 14 -107q15 -44 49 -77q35 -33 94 -56t146 -39
l207 -36q109 -21 191 -54q83 -34 135 -83t78 -119t26 -164q0 -84 -33 -159t-97 -130q-63 -54 -161 -88q-96 -33 -225 -33q-116 0 -220 23q-101 22 -178 72q-75 49 -126 130q-50 80 -62 195h123z" />
    <glyph glyph-name="afii10055" unicode="&#x406;" horiz-adv-x="460" 
d="M168 1462h125v-1462h-125v1462z" />
    <glyph glyph-name="afii10056" unicode="&#x407;" horiz-adv-x="460" 
d="M168 1462h125v-1462h-125v1462zM-6 1806h137v-178h-137v178zM330 1806h139v-178h-139v178z" />
    <glyph glyph-name="afii10057" unicode="&#x408;" horiz-adv-x="1179" 
d="M178 403q11 -73 34 -130q24 -61 66 -104q44 -46 107 -70q65 -25 162 -25q197 0 273 106q77 107 77 303v979h125v-991q0 -257 -124 -382q-124 -126 -347 -126q-206 0 -339 107t-161 333h127z" />
    <glyph glyph-name="afii10058" unicode="&#x409;" horiz-adv-x="2213" 
d="M555 770q-28 -223 -76 -378q-47 -152 -112 -239q-66 -88 -149 -126q-81 -37 -181 -37h-27v114h25q71 0 133 30t112 110q50 81 89 221q38 138 67 366l78 631h719v-571h375q154 0 252 -37q99 -37 156 -99q58 -63 81 -144q23 -83 23 -167q0 -90 -24 -171t-84 -141
q-59 -59 -163 -96q-102 -36 -262 -36h-477v1352h-483zM1233 782v-673h377q114 0 183 20q75 22 118 62q45 42 63 104q19 65 19 143q0 79 -18 142q-19 65 -63 108q-48 46 -129 70q-83 24 -214 24h-336z" />
    <glyph glyph-name="afii10059" unicode="&#x40a;" horiz-adv-x="2140" 
d="M168 1462h125v-624h747v624h125v-624h369q154 0 252 -37q101 -38 157 -96q57 -59 80 -135q23 -77 23 -152q0 -84 -24 -159q-24 -74 -84 -133q-58 -57 -162 -92q-101 -34 -263 -34h-473v725h-747v-725h-125v1462zM1165 729v-620h371q114 0 183 20q75 22 118 59
q46 40 64 96q18 57 18 128q0 75 -17 130q-18 58 -63 100q-46 43 -122 65q-75 22 -195 22h-357z" />
    <glyph glyph-name="afii10060" unicode="&#x40b;" horiz-adv-x="1507" 
d="M520 793q77 33 161 51q83 18 177 18q137 0 225 -29q92 -30 149 -87t82 -140q25 -82 25 -190v-416h-122v371q0 96 -17 170q-16 71 -57 118t-113 71t-184 24q-83 0 -165 -17q-80 -17 -161 -49v-688h-125v1354h-370v108h1022v-108h-527v-561z" />
    <glyph glyph-name="afii10061" unicode="&#x40c;" horiz-adv-x="1265" 
d="M416 819q110 0 185 63q76 64 132 183l88 184q28 61 61 103q32 42 66 65q35 25 77 35q40 10 91 10q11 0 33 -2q6 -1 16 -2.5t15 -1.5q17 -5 30 -6l-12 -107l-20 5q-7 1 -23 3q-8 1 -29 1q-32 0 -62 -5q-26 -4 -52 -22q-24 -17 -47 -47q-22 -29 -47 -84l-93 -193
q-79 -166 -198 -223q59 -16 102 -59q39 -40 102 -127l414 -592h-149l-348 502q-41 59 -72 95q-32 36 -66 61q-32 24 -71 34q-37 10 -90 10h-158v-702h-123v1462h123v-643h125zM745 1849h162l-260 -264h-129z" />
    <glyph glyph-name="uni040D" unicode="&#x40d;" horiz-adv-x="1384" 
d="M1217 0h-121v1278l-791 -1278h-137v1462h123v-1276l788 1276h138v-1462zM422 1849h162l227 -264h-129z" />
    <glyph glyph-name="afii10062" unicode="&#x40e;" horiz-adv-x="1144" 
d="M82 106q20 -9 63 -22q41 -12 101 -12q46 0 81 13t66 41t60 72q28 42 57 107l41 88l-526 1069h143l446 -946l373 946h133l-458 -1106q-42 -101 -87 -179q-45 -77 -92 -123q-50 -49 -110 -69q-64 -22 -142 -22q-55 0 -102 12q-48 13 -76 27zM569 1585q-70 0 -130 22
q-55 20 -93 58q-37 37 -55 86q-19 52 -19 102h99q5 -78 54 -129q50 -51 146 -51q97 0 147 51t54 129h98q0 -54 -19 -102t-57 -86q-36 -36 -95 -58q-60 -22 -130 -22z" />
    <glyph glyph-name="afii10145" unicode="&#x40f;" horiz-adv-x="1376" 
d="M293 113h790v1349h125v-1462h-444v-354h-119v354h-477v1462h125v-1349z" />
    <glyph glyph-name="afii10017" unicode="&#x410;" horiz-adv-x="1353" 
d="M604 1462h148l577 -1462h-135l-176 446h-688l-174 -446h-131zM973 561l-301 764l-297 -764h598z" />
    <glyph glyph-name="afii10018" unicode="&#x411;" horiz-adv-x="1271" 
d="M170 1462h852v-112h-729v-480h373q154 0 250 -35q98 -36 158 -97q58 -60 81 -140q23 -81 23 -166q0 -90 -24 -169q-24 -78 -84 -137q-58 -56 -163 -92q-101 -34 -262 -34h-475v1462zM293 762v-653h375q113 0 183 19q75 20 118 59q45 41 63 100q19 63 19 139q0 73 -20 138
q-20 64 -67 107t-130 67q-82 24 -207 24h-334z" />
    <glyph glyph-name="afii10019" unicode="&#x412;" horiz-adv-x="1277" 
d="M168 1462h463q155 0 251 -28q95 -28 154 -79q58 -51 79 -116q22 -69 22 -139q0 -109 -52 -193q-51 -82 -172 -133q78 -27 130 -64q51 -37 84 -85q31 -46 45 -102t14 -109q0 -86 -27 -162q-26 -75 -88 -132q-61 -56 -160 -88q-101 -32 -241 -32h-502v1462zM649 821
q191 0 278 69t87 204q0 134 -87 197t-300 63h-336v-533h358zM666 111q120 0 191 20q77 21 119 58q42 36 61 93q18 54 18 121q0 150 -90 228t-293 78h-381v-598h375z" />
    <glyph glyph-name="afii10020" unicode="&#x413;" horiz-adv-x="1060" 
d="M1036 1462v-112h-743v-1350h-125v1462h868z" />
    <glyph glyph-name="afii10021" unicode="&#x414;" horiz-adv-x="1413" 
d="M119 0v-354h-119v467h106q113 99 195 352q82 251 127 704l29 293h780v-1349h129v-467h-119v354h-1128zM545 1108q-22 -206 -49 -356q-28 -153 -65 -279q-35 -119 -80 -210q-43 -89 -93 -150h854v1239h-543z" />
    <glyph glyph-name="afii10022" unicode="&#x415;" horiz-adv-x="1204" 
d="M168 1462h919v-112h-794v-537h754v-117h-754v-581h829l-28 -115h-926v1462z" />
    <glyph glyph-name="afii10024" unicode="&#x416;" horiz-adv-x="1990" 
d="M1356 778q33 -8 55 -22q26 -16 48 -37t48 -53q30 -38 54 -74l409 -592h-149l-344 502q-41 59 -72 95q-32 36 -66 61q-32 24 -71 34q-37 10 -90 10h-121v-702h-123v702h-127q-53 0 -90 -10q-39 -11 -73 -34q-32 -22 -66 -61q-31 -36 -72 -95l-344 -502h-142l406 590
q56 83 102 127q44 42 105 59q-67 29 -113 84q-49 58 -82 139l-92 213q-24 52 -40 75q-20 27 -42 42q-22 14 -49 19q-24 4 -59 4q-12 0 -32 -2q-6 -1 -15.5 -2.5t-10.5 -1.5q-6 -1 -13.5 -3t-10.5 -2l-13 107q15 2 33 6q15 4 33 6q24 2 35 2q52 0 90 -7q42 -8 75 -28
q32 -20 63 -58q27 -34 56 -101l89 -203q52 -122 125 -184t184 -62h90v643h123v-643h88q109 0 185 61q74 59 130 183l84 184q57 124 127 170q69 45 170 45q11 0 33 -2q6 -1 16 -2.5t15 -1.5q17 -5 30 -6l-12 -107l-20 5q-7 1 -23 3q-8 1 -29 1q-31 0 -63 -5q-27 -4 -53 -22
q-25 -17 -47 -48q-25 -36 -48 -85l-88 -195q-40 -86 -88 -137q-52 -56 -108 -82z" />
    <glyph glyph-name="afii10025" unicode="&#x417;" horiz-adv-x="1230" 
d="M211 358q23 -143 121 -214q99 -72 284 -72q195 0 288 84t93 243q0 85 -24 143q-23 55 -69 95q-42 36 -106 53q-65 17 -139 17h-237v112h237q133 0 221 73q87 72 87 224q0 134 -93 204q-92 69 -253 69q-87 0 -153 -17q-67 -17 -112 -49q-48 -34 -79 -81q-30 -45 -52 -112
l-116 21q16 64 50 124q37 64 99 113q63 50 156 80q95 31 219 31q113 0 198 -30q89 -31 144 -79q57 -49 86 -117q29 -67 29 -143q0 -116 -50 -208q-51 -95 -161 -146q123 -45 183 -141t60 -236q0 -95 -30 -174q-29 -77 -95 -138q-62 -58 -159 -91q-96 -33 -226 -33
q-147 0 -245 37q-102 38 -159 93q-61 58 -86 127q-26 70 -30 138h119z" />
    <glyph glyph-name="afii10026" unicode="&#x418;" horiz-adv-x="1384" 
d="M1217 0h-121v1278l-791 -1278h-137v1462h123v-1276l788 1276h138v-1462z" />
    <glyph glyph-name="afii10027" unicode="&#x419;" horiz-adv-x="1384" 
d="M1217 0h-121v1278l-791 -1278h-137v1462h123v-1276l788 1276h138v-1462zM688 1585q-70 0 -130 22q-55 20 -93 58q-37 37 -55 86q-19 52 -19 102h98q4 -77 55 -129q50 -51 146 -51q98 0 147 51t54 129h98q0 -54 -19 -102q-18 -46 -58 -86q-37 -37 -94 -58
q-60 -22 -130 -22z" />
    <glyph glyph-name="afii10028" unicode="&#x41a;" horiz-adv-x="1265" 
d="M416 819q110 0 185 63q76 64 132 183l88 184q28 61 61 103q32 42 66 65q35 25 77 35q40 10 91 10q11 0 33 -2q6 -1 16 -2.5t15 -1.5q17 -5 30 -6l-12 -107l-20 5q-7 1 -23 3q-8 1 -29 1q-32 0 -62 -5q-26 -4 -52 -22q-24 -17 -47 -47q-22 -29 -47 -84l-93 -193
q-79 -166 -198 -223q59 -16 102 -59q39 -40 102 -127l414 -592h-149l-348 502q-41 59 -72 95q-32 36 -66 61q-32 24 -71 34q-37 10 -90 10h-158v-702h-123v1462h123v-643h125z" />
    <glyph glyph-name="afii10029" unicode="&#x41b;" horiz-adv-x="1456" 
d="M1163 1352h-536l-72 -582q-28 -223 -76 -378q-47 -152 -112 -239q-66 -88 -149 -126q-81 -37 -181 -37h-27v114h25q71 0 133 30t112 110q50 81 89 221q38 138 67 366l78 631h774v-1462h-125v1352z" />
    <glyph glyph-name="afii10030" unicode="&#x41c;" horiz-adv-x="1716" 
d="M168 1462h162l528 -1317l537 1317h153v-1462h-116v1253q-11 -19 -66 -157q-36 -90 -61 -151q-10 -25 -41 -99.5t-51 -123.5q-20 -48 -63.5 -154t-64.5 -156q-16 -38 -74.5 -180t-95.5 -232h-118l-512 1245v-1245h-117v1462z" />
    <glyph glyph-name="afii10031" unicode="&#x41d;" horiz-adv-x="1411" 
d="M168 1462h125v-647h825v647h125v-1462h-125v698h-825v-698h-125v1462z" />
    <glyph glyph-name="afii10032" unicode="&#x41e;" horiz-adv-x="1548" 
d="M776 -37q-142 0 -263 48q-120 47 -210 145q-89 97 -138 239q-50 145 -50 332q0 188 50 333q49 143 139 242q88 98 210 147q123 50 262 50q140 0 262 -48q121 -48 208 -144q88 -97 137 -239q51 -147 51 -331q0 -190 -50 -335q-50 -144 -136 -241q-89 -99 -208 -148
q-123 -50 -264 -50zM776 74q129 0 228 48q97 47 164 135t101 208t34 266q0 143 -35 266q-33 118 -102 208q-66 87 -165 135q-101 49 -225 49q-131 0 -232 -49q-99 -48 -165 -135q-64 -84 -99 -208q-34 -120 -34 -266q0 -144 33 -266q33 -121 99 -208q65 -86 166 -135
q99 -48 232 -48z" />
    <glyph glyph-name="afii10033" unicode="&#x41f;" horiz-adv-x="1388" 
d="M1096 1350h-803v-1350h-125v1462h1053v-1462h-125v1350z" />
    <glyph glyph-name="afii10034" unicode="&#x420;" horiz-adv-x="1267" 
d="M168 1462h471q161 0 262 -34q104 -35 161 -91q58 -57 81 -134q22 -75 22 -163q0 -93 -23 -172q-24 -83 -83 -143q-59 -61 -162 -97q-102 -36 -262 -36h-344v-592h-123v1462zM637 700q123 0 201 24q79 24 123 67q45 43 61 104q16 60 16 139q0 82 -18 142q-17 57 -65 99
q-45 39 -124 59q-80 20 -196 20h-344v-654h346z" />
    <glyph glyph-name="afii10035" unicode="&#x421;" horiz-adv-x="1452" 
d="M1339 469q-16 -113 -56 -201q-42 -92 -114 -159q-73 -68 -174 -107q-102 -39 -237 -39q-144 0 -261 49t-203 147t-132 239q-47 144 -47 329q0 189 51 333q51 145 138 242t203 147q117 50 247 50q132 0 229 -35q98 -35 163 -97q67 -64 107 -148q43 -91 66 -187l-119 -26
q-23 92 -56 161q-35 73 -86 121q-52 49 -126 76t-178 27q-120 0 -215 -50t-160 -137q-66 -88 -100 -209q-35 -123 -35 -264q0 -147 34 -265q35 -121 98 -208q64 -87 161 -136q96 -48 221 -48q121 0 199 29q81 30 134 83q49 49 81 126q30 71 45 157h122z" />
    <glyph glyph-name="afii10036" unicode="&#x422;" horiz-adv-x="1208" 
d="M543 1348h-508v114h1139v-114h-506v-1348h-125v1348z" />
    <glyph glyph-name="afii10037" unicode="&#x423;" horiz-adv-x="1144" 
d="M82 106q20 -9 63 -22q41 -12 101 -12q46 0 81 13t66 41t60 72q28 42 57 107l41 88l-526 1069h143l446 -946l373 946h133l-458 -1106q-42 -101 -87 -179q-45 -77 -92 -123q-50 -49 -110 -69q-64 -22 -142 -22q-55 0 -102 12q-48 13 -76 27z" />
    <glyph glyph-name="afii10038" unicode="&#x424;" horiz-adv-x="1654" 
d="M889 1358q154 -6 275 -48q122 -42 207 -117q84 -74 131 -181q46 -105 46 -242q0 -144 -50 -252q-50 -106 -138 -177q-91 -73 -209 -109q-126 -39 -262 -46v-186h-125v186q-138 7 -262 44q-119 35 -209 107q-89 71 -138 177q-51 110 -51 254q0 134 47 242q46 106 131 182
t206 118t276 48v166h125v-166zM1417 774q0 211 -130 341t-398 142v-970q119 7 225 39q97 29 166 89q68 59 102 147q35 90 35 212zM236 772q0 -124 34 -211q33 -86 103 -146q69 -60 166 -89q106 -32 225 -39v970q-142 -6 -239 -43q-101 -38 -164 -100q-65 -64 -95 -150
q-30 -87 -30 -192z" />
    <glyph glyph-name="afii10039" unicode="&#x425;" horiz-adv-x="1255" 
d="M549 774l-479 688h149l408 -604l411 604h133l-477 -698l533 -764h-150l-461 674l-452 -674h-135z" />
    <glyph glyph-name="afii10040" unicode="&#x426;" horiz-adv-x="1349" 
d="M168 0v1462h125v-1349h756v1349h125v-1349h129v-467h-119v354h-1016z" />
    <glyph glyph-name="afii10041" unicode="&#x427;" horiz-adv-x="1263" 
d="M971 678q-78 -33 -171 -51q-98 -19 -192 -19q-137 0 -233 30q-99 31 -157 86q-62 59 -88 139q-28 86 -28 192v407h123v-362q0 -94 19 -170q18 -72 62 -119t121 -71q73 -23 194 -23q186 0 350 65v680h125v-1462h-125v678z" />
    <glyph glyph-name="afii10042" unicode="&#x428;" horiz-adv-x="1910" 
d="M168 0v1462h125v-1349h600v1349h125v-1349h600v1349h125v-1462h-1575z" />
    <glyph glyph-name="afii10043" unicode="&#x429;" horiz-adv-x="1918" 
d="M168 0v1462h125v-1349h600v1349h125v-1349h600v1349h125v-1349h129v-467h-119v354h-1585z" />
    <glyph glyph-name="afii10044" unicode="&#x42a;" horiz-adv-x="1417" 
d="M315 1350h-309v112h432v-571h353q161 0 263 -37q106 -39 164 -99q59 -62 82 -144q23 -83 23 -169q0 -94 -26 -177q-25 -81 -88 -139q-61 -57 -168 -92q-103 -34 -265 -34h-461v1350zM438 782v-673h361q112 0 187 19q76 20 123 60q45 39 67 103q20 59 20 147q0 86 -20 147
q-21 65 -69 108q-49 45 -128 67q-78 22 -201 22h-340z" />
    <glyph glyph-name="afii10045" unicode="&#x42b;" horiz-adv-x="1687" 
d="M1395 1462h125v-1462h-125v1462zM643 891q161 0 263 -37q106 -39 164 -99q61 -64 83 -144q23 -83 23 -169q0 -94 -26 -177q-25 -81 -88 -139q-61 -57 -168 -92q-103 -34 -265 -34h-461v1462h123v-571h352zM291 782v-673h360q113 0 188 19q77 20 123 60q44 38 66 103
q21 61 21 147q0 82 -21 147t-69 108q-49 45 -128 67q-78 22 -200 22h-340z" />
    <glyph glyph-name="afii10046" unicode="&#x42c;" horiz-adv-x="1294" 
d="M668 891q161 0 263 -37q106 -39 164 -99q61 -64 83 -144q22 -79 22 -169q0 -98 -25 -177q-25 -80 -89 -139q-62 -57 -167 -92q-103 -34 -266 -34h-485v1462h123v-571h377zM291 782v-673h385q112 0 187 19q77 20 123 60q45 39 67 103q20 59 20 147q0 86 -20 147
q-21 65 -69 108q-49 45 -128 67q-78 22 -201 22h-364z" />
    <glyph glyph-name="afii10047" unicode="&#x42d;" horiz-adv-x="1454" 
d="M258 424q12 -69 38 -133t77 -112q52 -49 132 -77t208 -28q245 0 366 159q120 158 131 463h-684v109h684q-6 122 -39 230t-91 187q-59 80 -143 124q-85 45 -196 45q-189 0 -304 -78q-116 -78 -171 -260l-116 26q29 97 75 170q49 78 121 133q73 57 169 86q101 31 224 31
q131 0 239 -49q110 -50 190 -143q81 -95 126 -235q45 -141 45 -320q0 -188 -44 -337q-43 -145 -125 -247q-81 -101 -193 -153q-111 -52 -250 -52q-166 0 -276 40q-113 41 -178 106q-68 68 -97 147q-32 88 -39 168h121z" />
    <glyph glyph-name="afii10048" unicode="&#x42e;" horiz-adv-x="1984" 
d="M1233 -37q-141 0 -255 46q-118 47 -200 137q-84 91 -132 230q-49 139 -50 322h-303v-698h-125v1462h125v-649h305q11 171 60 298q49 126 134 214q84 87 195 130q114 44 246 44q141 0 258 -48q115 -47 202 -143q83 -92 131 -238q46 -141 46 -333q0 -195 -46 -337
q-46 -143 -129 -241q-83 -97 -201 -147q-117 -49 -261 -49zM1233 74q127 0 223 47q94 46 158 133t94 208q31 126 31 269q0 145 -32 268q-32 122 -94 208q-63 87 -158 134q-98 48 -222 48q-130 0 -229 -48q-97 -47 -160 -134q-65 -89 -94 -208q-31 -126 -31 -268
q0 -143 31 -269q30 -123 93 -208q65 -88 159 -133q99 -47 231 -47z" />
    <glyph glyph-name="afii10049" unicode="&#x42f;" horiz-adv-x="1325" 
d="M82 0l213 457q28 62 70 120q39 54 106 91l-27 10q-140 51 -203 145q-63 95 -63 221q0 81 26 157q25 74 87 133q61 58 164 93t256 35h446v-1462h-123v639h-291q-127 0 -207 -59q-82 -61 -137 -183l-180 -397h-137zM1034 745v609h-329q-111 0 -191 -22q-76 -21 -123 -60
q-46 -39 -66 -92q-20 -54 -20 -117q0 -154 98 -236t279 -82h352z" />
    <glyph glyph-name="afii10065" unicode="&#x430;" horiz-adv-x="1077" 
d="M815 150q-32 -39 -63 -65q-39 -33 -84 -56q-46 -24 -104 -39q-57 -15 -124 -15q-166 0 -266 82t-100 240q0 107 45 174t120 108q72 39 170 56q87 15 197 20l205 9v32q0 157 -60 229t-216 72q-75 0 -128 -12q-54 -12 -88 -36t-55 -55q-20 -30 -31 -71l-108 17
q57 258 414 258q109 0 186 -27q75 -26 122 -78q44 -48 66 -124q21 -72 21 -167v-702h-119v150zM813 569l-195 -8q-121 -5 -198 -22q-76 -17 -129 -51q-50 -32 -71 -78t-21 -111q0 -97 54 -157t189 -60q155 0 246 68q37 27 61 52q20 22 37 55q15 30 21 67q6 38 6 86v159z" />
    <glyph glyph-name="afii10066" unicode="&#x431;" horiz-adv-x="1196" 
d="M633 901q-73 0 -141 -24q-67 -24 -119 -74q-53 -51 -87 -117q-34 -65 -34 -151q0 -110 19 -193t64 -147q43 -60 114 -96q66 -33 167 -33q90 0 155 30t107 86q42 55 61 134q19 77 19 178q0 189 -76 298t-249 109zM971 1391l-183 -33q-96 -17 -158 -37q-72 -23 -115 -43
q-46 -22 -81 -47q-29 -21 -59 -51q-59 -62 -97 -171q-39 -113 -45 -243q68 109 168 173q101 65 240 65q100 0 182 -33t141 -98t90 -158t31 -217q0 -118 -28 -214q-28 -97 -87 -169q-57 -70 -148 -112q-87 -40 -208 -40q-142 0 -239 53q-96 52 -154 143q-58 90 -82 208
q-24 119 -24 247q0 143 13 240q13 99 38 173q26 77 58 126q38 57 77 98q67 70 184 125t314 88l157 27z" />
    <glyph glyph-name="afii10067" unicode="&#x432;" horiz-adv-x="1091" 
d="M143 1067h432q118 0 198 -25q78 -24 121 -63q44 -39 60 -87q17 -49 17 -95q0 -82 -36 -145q-35 -61 -124 -99q101 -28 148 -99t47 -153q0 -64 -21 -118q-21 -55 -69 -95t-123 -64q-77 -24 -187 -24h-463v1067zM592 600q135 0 196 46q62 47 62 138q0 93 -66 138t-209 45
h-313v-367h330zM604 100q150 0 215 51q64 50 64 146q0 97 -70 150t-205 53h-346v-400h342z" />
    <glyph glyph-name="afii10068" unicode="&#x433;" horiz-adv-x="845" 
d="M825 1067v-106h-563v-961h-119v1067h682z" />
    <glyph glyph-name="afii10069" unicode="&#x434;" horiz-adv-x="1120" 
d="M963 1067v-963h120v-391h-108v287h-856v-287h-109v391h99q33 35 69 98q36 64 61 146q30 97 49 212q21 124 36 294l18 213h621zM430 803q-15 -147 -33 -257t-41 -195q-22 -81 -50 -143q-28 -61 -60 -104h598v861h-398z" />
    <glyph glyph-name="afii10070" unicode="&#x435;" horiz-adv-x="1146" 
d="M1024 276q-24 -137 -131 -223t-303 -86q-114 0 -202 39t-150 111q-63 73 -95 175q-32 100 -32 230q0 142 35 247q35 106 101 181t151 112q88 38 192 38q122 0 209 -41q85 -40 140 -112t79 -165q24 -95 24 -202v-76h-811q0 -89 23 -170q22 -78 68 -139t112 -95
q67 -34 156 -34q80 0 135 15q53 14 92 44q38 29 59 66t33 85h115zM920 606q0 84 -19 162q-18 74 -57 126q-38 52 -103 81q-64 29 -151 29q-155 0 -246 -99q-93 -101 -111 -299h687z" />
    <glyph glyph-name="afii10072" unicode="&#x436;" horiz-adv-x="1497" 
d="M692 588v479h115v-479h53q87 0 137 37q51 37 90 123l66 143q40 88 89 133q47 43 144 43q9 0 29 -2q6 -1 14.5 -2.5t10.5 -1.5l24 -4l-12 -96l-20 4q-7 1 -23 3q-8 1 -23 1q-61 0 -88 -30q-26 -28 -49 -83l-67 -149q-27 -61 -60 -95q-34 -36 -78 -59q42 -17 72 -47
q32 -32 66 -78l295 -428h-144l-270 395q-39 54 -77 77q-40 24 -112 24h-67v-496h-115v496h-71q-72 0 -114 -24q-41 -23 -79 -77l-270 -395h-138l295 428q32 43 66 77q28 28 72 46q-43 16 -77 53q-36 39 -65 103l-75 163q-12 28 -21 43q-13 22 -22 31q-13 14 -30 19
q-18 6 -44 6q-16 0 -24 -1q-4 0 -7.5 -0.5t-7.5 -1.5t-6 -1q-3 0 -11 -1.5t-12 -2.5l-12 96l24 4q2 0 10.5 1.5t14.5 2.5q20 2 31 2q52 0 85 -10t58 -32q26 -23 43 -54q18 -33 39 -78l66 -145q39 -85 92 -123q52 -37 133 -37h57z" />
    <glyph glyph-name="afii10073" unicode="&#x437;" horiz-adv-x="1042" 
d="M522 1100q100 0 177 -23q76 -23 123 -61q49 -40 71 -90t22 -109q0 -95 -51 -159q-52 -66 -127 -95q98 -30 151 -101q52 -70 52 -175q0 -63 -25 -124q-24 -59 -76 -102q-50 -41 -136 -68q-84 -26 -197 -26q-88 0 -169 19q-76 18 -133 57q-55 37 -90 99q-34 60 -42 147h114
q22 -121 101 -171t225 -50q169 0 236 61t67 160q0 105 -71 162t-199 57h-211v98h219q120 0 181 53t61 144q0 96 -68 146t-209 50q-82 0 -136 -12q-52 -11 -90 -37q-37 -25 -59 -61q-20 -33 -38 -84l-105 22q16 61 44 107q28 47 80 86q48 37 126 58q80 22 182 22z" />
    <glyph glyph-name="afii10074" unicode="&#x438;" horiz-adv-x="1130" 
d="M987 0h-115v897l-604 -897h-125v1067h115v-897l600 897h129v-1067z" />
    <glyph glyph-name="afii10075" unicode="&#x439;" horiz-adv-x="1130" 
d="M987 0h-115v897l-604 -897h-125v1067h115v-897l600 897h129v-1067zM553 1208q-70 0 -130 22q-55 20 -93 58q-39 39 -56 86q-18 50 -18 103h98q4 -77 55 -129q50 -52 146 -52t146 52q51 52 55 129h98q0 -55 -19 -103q-18 -46 -58 -86q-37 -37 -94 -58q-60 -22 -130 -22z
" />
    <glyph glyph-name="afii10076" unicode="&#x43a;" horiz-adv-x="980" 
d="M262 496v-496h-119v1067h119v-479h80q87 0 137 37q51 37 90 123l66 143q40 89 90 133q49 43 145 43q9 0 29 -2q6 -1 14.5 -2.5t10.5 -1.5l24 -4l-12 -96l-21 4q-14 2 -22 3t-23 1q-61 0 -88 -30q-26 -28 -49 -83l-67 -149q-27 -61 -60 -95q-34 -36 -78 -59q42 -17 72 -47
q32 -32 66 -78l295 -428h-144l-270 395q-39 54 -77 77q-41 24 -112 24h-96z" />
    <glyph glyph-name="afii10077" unicode="&#x43b;" horiz-adv-x="1140" 
d="M879 965h-414l-49 -408q-18 -152 -50 -262q-31 -106 -79 -176q-48 -69 -113 -99q-66 -30 -151 -30h-23v104h16q55 0 104 22q46 21 82 81q35 59 62 163q27 105 45 271l49 436h639v-1067h-118v965z" />
    <glyph glyph-name="afii10078" unicode="&#x43c;" horiz-adv-x="1409" 
d="M145 1067h164l389 -948l402 948h164v-1067h-115v918l-399 -918h-115l-375 901v-901h-115v1067z" />
    <glyph glyph-name="afii10079" unicode="&#x43d;" horiz-adv-x="1159" 
d="M143 1067h119v-455h635v455h119v-1067h-119v508h-635v-508h-119v1067z" />
    <glyph glyph-name="afii10080" unicode="&#x43e;" horiz-adv-x="1214" 
d="M606 70q103 0 170 35q71 37 115 99t65 147t21 186q0 96 -21 180q-21 85 -65 146q-44 62 -115 99q-67 35 -170 35q-100 0 -169 -35q-71 -36 -114 -99q-45 -65 -65 -146q-20 -80 -20 -182q0 -103 20 -184q20 -82 65 -147q43 -63 114 -99q69 -35 169 -35zM602 -33
q-118 0 -208 40q-89 39 -153 114q-62 73 -97 177q-33 99 -33 230q0 132 35 234q35 101 101 180q65 76 156 117q93 41 207 41q117 0 207 -40q94 -42 156 -114q62 -73 97 -177q34 -102 34 -228q0 -128 -35 -235q-34 -104 -99 -181q-64 -76 -158 -117t-210 -41z" />
    <glyph glyph-name="afii10081" unicode="&#x43f;" horiz-adv-x="1130" 
d="M868 961h-606v-961h-119v1067h844v-1067h-119v961z" />
    <glyph glyph-name="afii10082" unicode="&#x440;" horiz-adv-x="1193" 
d="M143 1067h119v-158q74 92 158 141q86 50 209 50q116 0 201 -43t142 -118q57 -76 84 -176q27 -102 27 -218q0 -140 -33 -243q-34 -106 -96 -182q-62 -75 -148 -114q-87 -39 -196 -39q-96 0 -185 39q-91 40 -163 137v-540h-119v1464zM258 492q0 -74 7 -123q8 -57 25 -95
q19 -42 44 -73q30 -36 65 -62q47 -33 98 -52q45 -17 111 -17q78 0 140 25q63 25 109 82q46 56 73 147q26 87 26 219q0 134 -29 218q-29 85 -77 139q-46 52 -107 75q-59 22 -116 22q-67 0 -115 -14q-53 -16 -102 -53q-71 -52 -112 -137q-40 -83 -40 -209v-92z" />
    <glyph glyph-name="afii10083" unicode="&#x441;" horiz-adv-x="1134" 
d="M1036 344q-30 -178 -141 -277q-112 -100 -301 -100q-115 0 -205 39q-88 38 -151 112q-62 73 -95 176q-32 100 -32 234q0 132 34 235q34 102 99 180q64 76 154 116q93 41 206 41q174 0 278 -89q103 -88 136 -251l-115 -29q-12 56 -35 107q-22 50 -57 84q-34 34 -87 55
q-50 20 -124 20q-97 0 -164 -34q-66 -33 -112 -97q-45 -62 -66 -146q-20 -81 -20 -185q0 -105 20 -186q21 -84 64 -147q45 -65 111 -98q68 -34 165 -34q154 0 224 74q72 77 96 200h118z" />
    <glyph glyph-name="afii10084" unicode="&#x442;" horiz-adv-x="921" 
d="M403 963h-383v104h881v-104h-379v-963h-119v963z" />
    <glyph glyph-name="afii10085" unicode="&#x443;" horiz-adv-x="1024" 
d="M109 -262q28 -12 58 -20q35 -9 66 -9q32 0 58 8q22 7 45 30q20 21 40 55t42 87l51 121l-457 1057h140l383 -915l346 915h131l-482 -1206q-47 -122 -112 -190t-172 -68q-66 0 -100 9q-29 8 -66 21z" />
    <glyph glyph-name="afii10086" unicode="&#x444;" horiz-adv-x="1515" 
d="M698 2q-156 7 -269 47q-111 39 -182 107q-72 68 -104 160q-32 90 -32 208q0 112 43 205q45 97 119 164q77 70 186 112q108 42 239 48v409h115v-409q152 -7 266 -49q109 -40 183 -109q69 -65 105 -161q34 -92 34 -206q0 -115 -43 -207q-44 -95 -120 -163
q-79 -71 -185 -111q-109 -41 -240 -47v-397h-115v399zM238 535q0 -217 114 -321q114 -103 346 -114v852q-213 -15 -336 -119q-124 -105 -124 -298zM1274 520q0 216 -117 319q-116 102 -344 113v-852q211 15 336 120t125 300z" />
    <glyph glyph-name="afii10087" unicode="&#x445;" horiz-adv-x="983" 
d="M420 567l-359 500h140l293 -420l294 420h130l-351 -504l396 -563h-140l-334 479l-329 -479h-133z" />
    <glyph glyph-name="afii10088" unicode="&#x446;" horiz-adv-x="1114" 
d="M143 0v1067h119v-963h576v963h118v-963h121v-391h-108v287h-826z" />
    <glyph glyph-name="afii10089" unicode="&#x447;" horiz-adv-x="1021" 
d="M760 453q-62 -24 -139 -39q-78 -15 -158 -15q-108 0 -181 29q-72 29 -118 76q-46 48 -64 110q-18 63 -18 136v317h115v-276q0 -152 64 -220q65 -69 222 -69q148 0 277 51v514h119v-1067h-119v453z" />
    <glyph glyph-name="afii10090" unicode="&#x448;" horiz-adv-x="1603" 
d="M143 0v1067h119v-963h479v963h119v-963h481v963h119v-1067h-1317z" />
    <glyph glyph-name="afii10091" unicode="&#x449;" horiz-adv-x="1615" 
d="M1458 104h121v-391h-109v287h-1327v1067h119v-963h479v963h119v-963h479v963h119v-963z" />
    <glyph glyph-name="afii10092" unicode="&#x44a;" horiz-adv-x="1140" 
d="M0 1067h367v-420h352q94 0 163 -24q67 -23 112 -68t65 -101t20 -128q0 -155 -99 -240q-100 -86 -282 -86h-450v967h-248v100zM367 100h344q127 0 185 57t58 160q0 113 -55 171q-56 59 -203 59h-329v-447z" />
    <glyph glyph-name="afii10093" unicode="&#x44b;" horiz-adv-x="1384" 
d="M1122 1067h119v-1067h-119v1067zM262 1067v-420h352q96 0 165 -24q67 -23 112 -68q42 -42 63 -101q21 -58 21 -126q0 -146 -94 -237t-295 -91h-443v1067h119zM262 100h340q133 0 191 58q57 57 57 161q0 111 -55 169q-56 59 -203 59h-330v-447z" />
    <glyph glyph-name="afii10094" unicode="&#x44c;" horiz-adv-x="1060" 
d="M262 1067v-420h379q95 0 162 -24t111 -68q45 -45 65 -101t20 -126q0 -146 -96 -237q-95 -91 -291 -91h-469v1067h119zM262 100h361q131 0 192 55q59 53 59 164q0 54 -12 96q-11 40 -41 71q-28 30 -79 45q-53 16 -126 16h-354v-447z" />
    <glyph glyph-name="afii10095" unicode="&#x44d;" horiz-adv-x="1124" 
d="M397 594h492q-15 194 -98 298q-84 105 -238 105q-138 0 -209 -52q-73 -53 -113 -169l-110 25q40 134 147 217q106 82 289 82q114 0 199 -43q87 -44 143 -118q58 -76 86 -178q29 -105 29 -226t-30 -225t-90 -180q-59 -75 -150 -120q-87 -43 -205 -43q-102 0 -183 28
q-74 26 -130 75q-53 47 -80 108q-27 62 -33 129h114q6 -47 26 -92q20 -44 56 -76q38 -33 97 -51q60 -18 145 -18q87 0 148 32q65 34 104 89q41 58 62 135q22 80 26 168h-494v100z" />
    <glyph glyph-name="afii10096" unicode="&#x44e;" horiz-adv-x="1566" 
d="M975 -33q-111 0 -195 37q-85 37 -145 105q-58 65 -93 163q-33 93 -38 217h-242v-489h-119v1067h119v-477h244q7 115 44 211t97 161q61 66 147 102q85 36 189 36q114 0 201 -40t148 -113t92 -176q32 -105 32 -230q0 -132 -33 -237q-33 -106 -94 -180q-62 -76 -150 -116
q-90 -41 -204 -41zM979 70q99 0 163 35q66 36 108 99q44 65 61 148q18 86 18 185q0 96 -18 180q-17 80 -61 146q-42 63 -108 99q-64 35 -163 35t-163 -35q-66 -36 -108 -99q-43 -65 -62 -146q-19 -82 -19 -182q0 -101 19 -184q19 -82 62 -147q42 -63 108 -99q64 -35 163 -35
z" />
    <glyph glyph-name="afii10097" unicode="&#x44f;" horiz-adv-x="1087" 
d="M61 0l205 354q25 45 48 72q26 30 53 47q-12 1 -33 10q-100 34 -147 109q-46 73 -46 172q0 54 19 113q18 55 64 97t122 67q78 26 193 26h405v-1067h-119v457h-198q-57 0 -95 -6q-34 -5 -64 -22q-27 -15 -49 -43q-22 -29 -46 -73l-174 -313h-138zM825 557v410h-280
q-146 0 -213 -47q-66 -46 -66 -146q0 -115 65 -166t197 -51h297z" />
    <glyph glyph-name="uni0450" unicode="&#x450;" horiz-adv-x="1146" 
d="M1024 276q-24 -137 -131 -223t-303 -86q-114 0 -202 39t-150 111q-63 73 -95 175q-32 100 -32 230q0 142 35 247q35 106 101 181t151 112q88 38 192 38q122 0 209 -41q85 -40 140 -112t79 -165q24 -95 24 -202v-76h-811q0 -89 23 -170q22 -78 68 -139t112 -95
q67 -34 156 -34q80 0 135 15q53 14 92 44q38 29 59 66t33 85h115zM920 606q0 84 -19 162q-18 74 -57 126q-38 52 -103 81q-64 29 -151 29q-155 0 -246 -99q-93 -101 -111 -299h687zM340 1483h160l227 -275h-127z" />
    <glyph glyph-name="afii10071" unicode="&#x451;" horiz-adv-x="1146" 
d="M1024 276q-24 -137 -131 -223t-303 -86q-114 0 -202 39t-150 111q-63 73 -95 175q-32 100 -32 230q0 142 35 247q35 106 101 181t151 112q88 38 192 38q122 0 209 -41q85 -40 140 -112t79 -165q24 -95 24 -202v-76h-811q0 -89 23 -170q22 -78 68 -139t112 -95
q67 -34 156 -34q80 0 135 15q53 14 92 44q38 29 59 66t33 85h115zM920 606q0 84 -19 162q-18 74 -57 126q-38 52 -103 81q-64 29 -151 29q-155 0 -246 -99q-93 -101 -111 -299h687zM342 1442h133v-174h-133v174zM670 1442h135v-174h-135v174z" />
    <glyph glyph-name="afii10099" unicode="&#x452;" horiz-adv-x="1187" 
d="M0 1292h188v170h119v-170h391v-90h-391v-362q85 108 183 156t208 48q182 0 267 -100q86 -101 86 -285v-675q0 -68 -8 -138q-8 -68 -32 -115q-26 -51 -76 -81q-51 -31 -138 -31q-70 0 -112 9q-39 8 -73 22l25 100q22 -8 63 -17q32 -7 86 -7q85 0 115 51q31 53 31 135v715
q0 166 -60 238q-61 73 -188 73q-61 0 -130 -24q-70 -24 -124 -74q-62 -53 -92 -110q-31 -59 -31 -155v-575h-119v1202h-188v90z" />
    <glyph glyph-name="afii10100" unicode="&#x453;" horiz-adv-x="845" 
d="M825 1067v-106h-563v-961h-119v1067h682zM567 1483h160l-260 -275h-127z" />
    <glyph glyph-name="afii10101" unicode="&#x454;" horiz-adv-x="1124" 
d="M727 494h-494q1 -86 24 -170q20 -75 66 -135q43 -56 111 -88q66 -31 164 -31q128 0 207 58q80 59 102 179h113q-24 -159 -139 -250q-114 -90 -289 -90q-119 0 -209 39t-151 112q-62 74 -91 174q-30 102 -30 226q0 133 32 236q32 105 97 183q63 76 155 120q90 43 211 43
q172 0 266 -79q95 -80 132 -220l-111 -25q-12 45 -34 88q-21 41 -56 71q-33 29 -85 46q-48 16 -122 16q-88 0 -153 -30q-63 -29 -108 -85q-46 -57 -69 -128q-24 -73 -30 -160h491v-100z" />
    <glyph glyph-name="afii10102" unicode="&#x455;" horiz-adv-x="1052" 
d="M207 293q23 -124 104 -174q83 -51 234 -51q155 0 217 59q63 60 63 145q0 35 -8 69q-7 30 -32 58q-24 27 -67 45q-47 19 -114 31l-129 21q-91 16 -150 35q-63 20 -113 57q-45 34 -70 86q-23 49 -23 125q0 67 31 126q29 55 83 95q49 37 126 59q72 21 157 21q106 0 181 -22
q74 -22 119 -58q47 -38 72 -86q24 -47 40 -105l-109 -22q-16 46 -38 83q-20 34 -54 59q-33 24 -82 36t-123 12q-83 0 -137 -16q-55 -16 -89 -43q-33 -25 -48 -61q-15 -35 -15 -72q0 -32 9 -68q7 -29 32 -54q21 -21 69 -41q43 -18 116 -30l162 -26q163 -28 247 -100
q82 -70 82 -216q0 -62 -25 -116q-25 -55 -76 -98q-48 -40 -126 -65q-77 -24 -174 -24q-91 0 -177 19q-81 18 -141 57q-58 38 -96 100q-37 61 -45 150h117z" />
    <glyph glyph-name="afii10103" unicode="&#x456;" horiz-adv-x="417" 
d="M150 1067h118v-1067h-118v1067zM141 1462h135v-178h-135v178z" />
    <glyph glyph-name="afii10104" unicode="&#x457;" horiz-adv-x="417" 
d="M150 1067h118v-1067h-118v1067zM-23 1442h134v-174h-134v174zM305 1442h135v-174h-135v174z" />
    <glyph glyph-name="afii10105" unicode="&#x458;" horiz-adv-x="417" 
d="M-145 -250q22 -8 63 -17q32 -7 86 -7q85 0 115 51q31 53 31 135v1155h118v-1083q0 -76 -7 -138q-7 -65 -33 -115q-27 -52 -75 -81q-51 -31 -139 -31q-69 0 -111 9q-39 8 -73 22zM141 1462h135v-178h-135v178z" />
    <glyph glyph-name="afii10106" unicode="&#x459;" horiz-adv-x="1714" 
d="M416 557q-18 -152 -50 -262q-31 -106 -79 -176q-48 -69 -113 -99q-66 -30 -151 -30h-23v104h16q55 0 104 22q46 21 82 81q35 59 62 163q27 105 45 271l49 436h596v-420h340q94 0 162 -24t112 -68q43 -43 64 -101t21 -126q0 -145 -97 -237q-95 -91 -290 -91h-430v965h-371
zM954 100h322q131 0 192 55q60 54 60 164q0 54 -12 96q-11 40 -41 71q-28 30 -79 45q-53 16 -126 16h-316v-447z" />
    <glyph glyph-name="afii10107" unicode="&#x45a;" horiz-adv-x="1714" 
d="M143 1067h119v-430h574v430h118v-432h340q94 0 162 -24q71 -25 112 -65q42 -41 64 -100q21 -57 21 -124q0 -148 -95 -235q-94 -87 -292 -87h-430v532h-574v-532h-119v1067zM954 100h322q131 0 192 55q60 54 60 158q0 55 -12 95t-41 69q-27 27 -79 43q-50 15 -126 15h-316
v-435z" />
    <glyph glyph-name="afii10108" unicode="&#x45b;" horiz-adv-x="1202" 
d="M0 1292h203v170h119v-170h432v-90h-432v-362q86 108 183 156t208 48q181 0 266 -100q86 -101 86 -285v-659h-119v627q0 167 -59 238q-61 73 -189 73q-61 0 -130 -24q-70 -24 -124 -74q-62 -53 -92 -110t-30 -155v-575h-119v1202h-203v90z" />
    <glyph glyph-name="afii10109" unicode="&#x45c;" horiz-adv-x="980" 
d="M262 496v-496h-119v1067h119v-479h80q87 0 137 37q51 37 90 123l66 143q40 89 90 133q49 43 145 43q9 0 29 -2q6 -1 14.5 -2.5t10.5 -1.5l24 -4l-12 -96l-21 4q-14 2 -22 3t-23 1q-61 0 -88 -30q-26 -28 -49 -83l-67 -149q-27 -61 -60 -95q-34 -36 -78 -59q42 -17 72 -47
q32 -32 66 -78l295 -428h-144l-270 395q-39 54 -77 77q-41 24 -112 24h-96zM610 1483h160l-260 -275h-127z" />
    <glyph glyph-name="uni045D" unicode="&#x45d;" horiz-adv-x="1130" 
d="M987 0h-115v897l-604 -897h-125v1067h115v-897l600 897h129v-1067zM305 1483h160l227 -275h-127z" />
    <glyph glyph-name="afii10110" unicode="&#x45e;" horiz-adv-x="1024" 
d="M109 -262q28 -12 58 -20q35 -9 66 -9q32 0 58 8q22 7 45 30q20 21 40 55t42 87l51 121l-457 1057h140l383 -915l346 915h131l-482 -1206q-47 -122 -112 -190t-172 -68q-66 0 -100 9q-29 8 -66 21zM514 1208q-70 0 -130 22q-55 20 -93 58q-37 37 -55 86q-19 52 -19 103h98
q4 -77 55 -129q50 -52 146 -52q97 0 147 52q49 51 54 129h98q0 -55 -19 -103q-18 -46 -58 -86q-37 -37 -94 -58q-60 -22 -130 -22z" />
    <glyph glyph-name="afii10193" unicode="&#x45f;" horiz-adv-x="1130" 
d="M868 1067h119v-1067h-366v-287h-109v287h-369v1067h119v-961h606v961z" />
    <glyph glyph-name="uni0462" unicode="&#x462;" horiz-adv-x="1472" 
d="M854 109q112 0 187 19q77 20 123 60q45 39 67 103q20 59 20 147q0 86 -20 147q-21 65 -69 108q-49 45 -128 67q-78 22 -200 22h-342v-673h362zM369 0v1200h-344v105h344v215h123v-215h505v-105h-505v-309h354q161 0 263 -37q106 -39 164 -99q61 -64 83 -144
q22 -79 22 -169q0 -98 -25 -177q-25 -81 -88 -139q-61 -57 -168 -92q-103 -34 -266 -34h-462z" />
    <glyph glyph-name="uni0463" unicode="&#x463;" horiz-adv-x="1210" 
d="M281 1499h118v-444h455v-99h-455v-309h379q94 0 162 -24t112 -68q43 -43 64 -101t21 -126q0 -145 -97 -237q-95 -91 -290 -91h-469v956h-265v99h265v444zM399 100h361q131 0 192 55q60 54 60 164q0 51 -13 96q-11 40 -41 71q-28 30 -78 45q-53 16 -126 16h-355v-447z" />
    <glyph glyph-name="uni0472" unicode="&#x472;" horiz-adv-x="1548" 
d="M776 -37q-142 0 -263 48q-120 47 -210 145q-89 97 -138 239q-50 145 -50 332q0 188 50 333q49 143 139 242q88 98 210 147q123 50 262 50q140 0 262 -48q121 -48 208 -144q88 -97 137 -239q51 -147 51 -331q0 -190 -50 -335q-50 -144 -136 -241q-89 -99 -208 -148
q-123 -50 -264 -50zM1075 588q-88 0 -166 32q-70 29 -144 69q-86 47 -137 70q-70 32 -145 32q-62 0 -125 -22q-58 -20 -112 -62q1 -138 37 -257q35 -117 100 -200q66 -84 164 -130t229 -46q119 0 212 42q97 44 160 117q67 78 104 184q38 108 48 236q-52 -31 -107 -48
q-54 -17 -118 -17zM776 1389q-122 0 -217 -42q-94 -42 -160 -117q-64 -73 -104 -180t-47 -233q54 35 113 56q63 22 131 22q86 0 162 -32q75 -31 144 -69q80 -44 138 -70q70 -32 147 -32q54 0 113 19q57 18 107 51q-5 142 -40 254q-36 114 -104 197q-67 82 -164 129t-219 47z
" />
    <glyph glyph-name="uni0473" unicode="&#x473;" horiz-adv-x="1214" 
d="M602 -33q-118 0 -208 40q-89 39 -153 114q-62 73 -97 177q-33 99 -33 230q0 132 35 234q35 101 101 180q65 76 156 117q93 41 207 41q117 0 207 -40q94 -42 156 -114q62 -73 97 -177q34 -102 34 -228q0 -128 -35 -235q-34 -104 -99 -181q-64 -76 -158 -117t-210 -41z
M606 70q92 0 157 28t111 80t71 123q27 76 34 156q-77 -41 -164 -41q-63 0 -114 22q-47 20 -100 50q-64 36 -97 51q-48 22 -107 22q-89 0 -166 -45q1 -92 25 -177q22 -80 68 -141t115 -95q67 -33 167 -33zM819 514q49 0 86 10q39 10 78 33q-1 91 -25 174q-23 81 -68 139
q-46 59 -117 94q-67 33 -167 33q-90 0 -155 -28q-64 -28 -112 -80q-46 -51 -72 -122q-27 -74 -34 -153q35 19 81 32q38 11 87 11q72 0 123 -22q63 -27 101 -49q41 -24 93 -49q48 -23 101 -23z" />
    <glyph glyph-name="uni0474" unicode="&#x474;" horiz-adv-x="1513" 
d="M29 1462h143l496 -1321l391 1104q23 66 56 114q31 46 70 74q35 25 82 38q43 12 91 12q116 0 196 -66l-53 -96q-35 27 -66 39q-32 12 -73 12q-70 0 -114 -39t-81 -141l-434 -1192h-135z" />
    <glyph glyph-name="uni0475" unicode="&#x475;" horiz-adv-x="1159" 
d="M12 1067h138l358 -938l280 772q68 186 242 186q52 0 90 -12q37 -12 72 -41l-49 -92q-27 20 -51 28q-21 7 -54 7q-54 0 -87 -28q-31 -27 -60 -105l-313 -844h-140z" />
    <glyph glyph-name="uni048A" unicode="&#x48a;" horiz-adv-x="1380" 
d="M1096 0v1278l-791 -1278h-137v1462h123v-1276l788 1276h138v-1349h116q0 -88 -18 -163t-51 -135q-35 -64 -75 -108q-44 -49 -91 -80l-72 90q65 50 111 121q45 68 63 162h-104zM688 1585q-70 0 -130 22q-55 20 -93 58q-37 37 -55 86q-19 52 -19 102h98q4 -77 55 -129
q50 -51 146 -51q98 0 147 51t54 129h98q0 -54 -19 -102q-18 -46 -58 -86q-37 -37 -94 -58q-60 -22 -130 -22z" />
    <glyph glyph-name="uni048B" unicode="&#x48b;" horiz-adv-x="1132" 
d="M989 104h107q0 -79 -16 -145q-15 -60 -42 -107q-28 -49 -62 -81q-37 -35 -77 -62l-57 78q110 85 137 213h-105v897l-604 -897h-125v1067h115v-897l600 897h129v-963zM553 1206q-70 0 -130 22q-55 20 -93 58q-39 39 -56 86q-18 50 -18 103h98q4 -77 55 -129
q50 -52 146 -52t146 52q51 52 55 129h98q0 -55 -19 -103q-18 -46 -58 -86q-37 -37 -94 -58q-60 -22 -130 -22z" />
    <glyph glyph-name="uni048C" unicode="&#x48c;" horiz-adv-x="1290" 
d="M20 1249h168v213h123v-213h400v-104h-400v-275h371q157 0 253 -35q98 -36 158 -97q58 -60 81 -140q22 -78 22 -166q0 -90 -24 -169t-83 -137q-58 -57 -164 -92q-102 -34 -263 -34h-474v1145h-168v104zM311 762v-653h373q108 0 180 19q74 20 120 58q46 39 66 99
q19 58 19 141q0 79 -18 142q-17 61 -67 106q-46 42 -131 65q-84 23 -210 23h-332z" />
    <glyph glyph-name="uni048D" unicode="&#x48d;" horiz-adv-x="1142" 
d="M20 930h207v157h117v-157h397v-99h-397v-194h379q95 0 162 -24q69 -25 111 -65q44 -43 65 -99q20 -54 20 -123q0 -143 -96 -234q-97 -92 -291 -92h-467v831h-207v99zM344 100h361q131 0 192 56q59 55 59 166q0 52 -12 92q-12 41 -41 68q-28 27 -79 42q-50 15 -126 15
h-354v-439z" />
    <glyph glyph-name="uni048E" unicode="&#x48e;" horiz-adv-x="1267" 
d="M168 1462h471q161 0 262 -34q104 -35 161 -91q58 -57 81 -134q22 -75 22 -163q0 -67 -11 -122q-13 -63 -38 -111q-28 -52 -70 -93q-44 -43 -110 -71l115 -180l-90 -57l-132 204q-84 -18 -194 -18h-344v-592h-123v1462zM711 1001l166 -264q96 39 129 115q32 74 32 182
q0 82 -18 142q-17 57 -65 99q-45 39 -124 59q-80 20 -196 20h-344v-654h346q26 0 70 2q23 1 61 7l-147 235z" />
    <glyph glyph-name="uni048F" unicode="&#x48f;" horiz-adv-x="1193" 
d="M143 1067h119v-158q74 92 158 141q86 50 209 50q116 0 201 -43t142 -118q57 -76 84 -176q27 -102 27 -218q0 -171 -51 -296q-51 -124 -145 -196l123 -192l-84 -54l-125 197q-84 -37 -191 -37q-96 0 -185 39q-91 40 -163 137v-540h-119v1464zM670 397l157 -252
q60 53 95 151q34 96 34 247q0 134 -29 218q-29 85 -77 139q-46 52 -107 75q-59 22 -116 22q-67 0 -115 -14q-53 -16 -102 -53q-71 -52 -112 -137q-40 -83 -40 -209v-92q0 -74 7 -123q8 -57 25 -96q18 -42 44 -74q28 -35 65 -60q44 -35 97 -53q48 -16 112 -16q74 0 135 24
l-157 252z" />
    <glyph glyph-name="afii10050" unicode="&#x490;" horiz-adv-x="1060" 
d="M1036 1665v-315h-743v-1350h-125v1462h750v203h118z" />
    <glyph glyph-name="afii10098" unicode="&#x491;" horiz-adv-x="845" 
d="M717 1067v174h108v-280h-563v-961h-119v1067h574z" />
    <glyph glyph-name="uni0492" unicode="&#x492;" horiz-adv-x="1101" 
d="M1077 1462v-112h-743v-543h448v-113h-448v-694h-125v694h-189v113h189v655h868z" />
    <glyph glyph-name="uni0493" unicode="&#x493;" horiz-adv-x="886" 
d="M866 1067v-106h-563v-363h344v-102h-344v-496h-119v496h-145v102h145v469h682z" />
    <glyph glyph-name="uni0494" unicode="&#x494;" horiz-adv-x="1277" 
d="M291 829q82 35 171 52q93 18 191 18q155 0 258 -50q104 -50 163 -135q61 -87 85 -197q25 -116 25 -232q0 -123 -31 -238q-30 -110 -99 -194q-70 -86 -180 -133q-111 -48 -270 -48h-80v109h103q222 0 326 134t104 366q0 115 -22 214q-21 95 -70 160q-51 67 -128 101
q-81 35 -196 35q-183 0 -350 -66v-725h-123v1462h809v-112h-686v-521z" />
    <glyph glyph-name="uni0495" unicode="&#x495;" horiz-adv-x="1048" 
d="M143 0v1067h699v-106h-580v-386q74 31 137 45q69 15 148 15q128 0 211 -40t135 -110q51 -69 72 -162q20 -89 20 -200t-27 -208q-28 -100 -86 -170q-61 -74 -152 -116q-92 -43 -226 -43h-70v101h82q184 0 269 115t85 317q0 210 -70 311q-70 102 -253 102q-76 0 -138 -14
q-67 -15 -137 -43v-475h-119z" />
    <glyph glyph-name="uni0496" unicode="&#x496;" horiz-adv-x="2054" 
d="M633 776q-67 29 -113 84q-49 58 -82 139l-92 213q-24 52 -40 75q-20 27 -42 42q-22 14 -49 19q-24 4 -59 4q-12 0 -32 -2q-6 -1 -15.5 -2.5t-10.5 -1.5q-6 -1 -13.5 -3t-10.5 -2l-13 107q15 2 33 6q15 4 33 6q24 2 35 2q52 0 90 -7q42 -8 75 -28q32 -20 63 -58
q27 -34 56 -101l89 -203q52 -122 125 -184t184 -62h90v643h123v-643h88q109 0 185 61q74 59 130 183l84 184q57 124 127 170q69 45 170 45q11 0 33 -2q6 -1 16 -2.5t15 -1.5q17 -5 30 -6l-12 -107l-20 5q-7 1 -23 3q-8 1 -29 1q-31 0 -63 -5q-27 -4 -53 -22q-25 -17 -47 -48
q-25 -36 -48 -85l-88 -195q-40 -86 -88 -137q-52 -56 -108 -82q33 -8 55 -22q26 -16 48 -37t48 -53q30 -38 54 -74l331 -479h115v-467h-119v354h-67l-344 502q-41 59 -72 95q-32 36 -66 61q-32 24 -71 34q-37 10 -90 10h-121v-702h-123v702h-127q-53 0 -90 -10
q-39 -11 -73 -34q-32 -22 -66 -61q-31 -36 -72 -95l-344 -502h-142l406 590q56 83 102 127q44 42 105 59z" />
    <glyph glyph-name="uni0497" unicode="&#x497;" horiz-adv-x="1546" 
d="M692 588v479h115v-479h53q87 0 137 37q51 37 90 123l66 143q40 88 89 133q47 43 144 43q9 0 29 -2q6 -1 14.5 -2.5t10.5 -1.5l24 -4l-12 -96l-20 4q-7 1 -23 3q-8 1 -23 1q-61 0 -88 -30q-26 -28 -49 -83l-67 -149q-27 -61 -60 -95q-34 -36 -78 -59q42 -17 72 -47
q32 -32 66 -78l223 -324h104v-391h-108v287h-68l-270 395q-39 54 -77 77q-40 24 -112 24h-67v-496h-115v496h-71q-72 0 -114 -24q-41 -23 -79 -77l-270 -395h-138l295 428q32 43 66 77q28 28 72 46q-45 17 -78 53q-37 40 -64 103l-73 159q-22 51 -44 77q-21 26 -75 26
q-16 0 -24 -1q-4 0 -7.5 -0.5t-7.5 -1.5t-6 -1q-3 0 -11 -1.5t-12 -2.5l-12 96l24 4q2 0 10.5 1.5t14.5 2.5q20 2 31 2q52 0 85 -10t58 -32q26 -23 43 -54q18 -33 39 -78l66 -145q39 -85 92 -123q52 -37 133 -37h57z" />
    <glyph glyph-name="uni0498" unicode="&#x498;" horiz-adv-x="1230" 
d="M461 -344q33 -5 58 -6q34 -2 56 -2q138 0 138 82q0 41 -37 59q-40 19 -129 19h-27l55 155q-135 6 -228 44q-91 37 -146 94q-57 58 -80 124q-25 69 -29 133h119q23 -143 121 -214q99 -72 284 -72q195 0 288 84t93 243q0 85 -24 143q-23 55 -69 95q-42 36 -106 53
q-65 17 -139 17h-237v112h237q133 0 221 73q87 72 87 224q0 134 -93 204q-92 69 -253 69q-87 0 -153 -17q-67 -17 -112 -49q-46 -33 -78 -81q-33 -50 -53 -111l-116 20q16 64 50 124q37 64 99 113q63 50 156 80q95 31 219 31q113 0 198 -30q89 -31 144 -79q57 -49 86 -117
q29 -67 29 -142q0 -117 -50 -209q-51 -95 -161 -146q123 -45 183 -141t60 -236q0 -87 -27 -163t-83 -134q-56 -57 -141 -93q-87 -37 -197 -44l-31 -80q111 -12 150 -58q38 -45 38 -106q0 -46 -18 -79q-19 -34 -52 -53q-35 -19 -81 -27q-50 -8 -102 -8q-23 0 -59 2
q-29 2 -58 6v94z" />
    <glyph glyph-name="uni0499" unicode="&#x499;" horiz-adv-x="1042" 
d="M342 -315q41 -6 56 -7q34 -2 55 -2q69 0 101 18t32 58q0 38 -35 55q-36 17 -127 17h-25l50 145q-163 11 -263 85q-99 74 -114 235h114q22 -121 101 -171t225 -50q169 0 236 61t67 160q0 105 -71 162t-199 57h-211v98h219q120 0 181 53t61 144q0 96 -68 146t-209 50
q-82 0 -136 -12q-52 -11 -90 -37q-37 -25 -59 -61q-20 -33 -38 -84l-105 22q16 61 44 107q28 47 80 86q48 37 126 58q80 22 182 22q100 0 177 -23q76 -23 123 -61q49 -40 71 -90t22 -109q0 -95 -51 -159q-52 -66 -127 -95q98 -30 151 -101q52 -70 52 -175q0 -64 -22 -120
q-21 -54 -71 -99q-48 -44 -124 -69q-77 -26 -180 -30l-25 -69q107 -12 145 -56q37 -43 37 -100q0 -92 -67 -126t-178 -34q-21 0 -57 2q-28 2 -56 6v93z" />
    <glyph glyph-name="uni049A" unicode="&#x49a;" horiz-adv-x="1331" 
d="M416 819q110 0 185 63q76 64 132 183l88 184q28 61 61 103q32 42 66 65q35 25 77 35q40 10 91 10q11 0 33 -2q6 -1 16 -2.5t15 -1.5q17 -5 30 -6l-12 -107l-20 5q-7 1 -23 3q-8 1 -29 1q-32 0 -62 -5q-26 -4 -52 -22q-24 -17 -47 -47q-22 -29 -47 -84l-93 -193
q-79 -166 -198 -223q59 -16 102 -59q39 -40 102 -127l334 -479h119v-467h-119v354h-69l-348 502q-41 59 -72 95q-32 36 -66 61q-32 24 -71 34q-37 10 -90 10h-158v-702h-123v1462h123v-643h125z" />
    <glyph glyph-name="uni049B" unicode="&#x49b;" horiz-adv-x="1030" 
d="M262 496v-496h-119v1067h119v-479h80q87 0 137 37q51 37 90 123l66 143q40 89 90 133q49 43 145 43q9 0 29 -2q6 -1 14.5 -2.5t10.5 -1.5l24 -4l-12 -96l-21 4q-14 2 -22 3t-23 1q-61 0 -88 -30q-26 -28 -49 -83l-67 -149q-27 -61 -60 -95q-34 -36 -78 -59q42 -17 72 -47
q32 -32 66 -78l223 -324h104v-391h-108v287h-68l-270 395q-39 54 -77 77q-41 24 -112 24h-96z" />
    <glyph glyph-name="uni049C" unicode="&#x49c;" horiz-adv-x="1306" 
d="M449 819v281h104v-266q73 23 124 80q50 56 97 151l88 184q28 61 61 103q32 42 66 65q35 25 77 35q40 10 91 10q11 0 33 -2q6 -1 16 -2.5t15 -1.5q17 -5 30 -6l-12 -107l-20 5q-7 1 -23 3q-8 1 -29 1q-32 0 -62 -5q-26 -4 -52 -22q-24 -17 -47 -47q-25 -33 -48 -84
l-92 -193q-79 -166 -198 -223q59 -16 102 -59q40 -40 102 -127l414 -592h-149l-349 502q-66 94 -115 139t-120 57v-254h-104v258h-158v-702h-123v1462h123v-643h158z" />
    <glyph glyph-name="uni049D" unicode="&#x49d;" horiz-adv-x="1032" 
d="M471 809v-211q50 15 85 50q36 36 65 100l65 143q40 89 90 133q49 43 146 43q8 0 28 -2q6 -1 14.5 -2.5t10.5 -1.5l24 -4l-12 -96l-20 4q-7 1 -23 3q-8 1 -22 1q-61 0 -88 -30q-28 -31 -50 -83l-67 -149q-27 -61 -60 -95q-35 -37 -77 -59q40 -16 71 -47q32 -32 66 -78
l295 -428h-144l-270 395q-29 40 -57 62q-26 21 -70 32v-208h-90v215h-119v-496h-119v1067h119v-479h119v221h90z" />
    <glyph glyph-name="uni049E" unicode="&#x49e;" horiz-adv-x="1306" 
d="M41 1208h168v254h123v-254h225v-108h-225v-281h125q110 0 185 63q76 64 132 183l88 184q28 61 61 103q32 42 66 65q35 25 77 35q40 10 91 10q11 0 33 -2q6 -1 16 -2.5t15 -1.5q17 -5 30 -6l-12 -107l-20 5q-7 1 -23 3q-8 1 -29 1q-32 0 -62 -5q-26 -4 -52 -22
q-24 -17 -47 -47q-25 -33 -48 -84l-92 -193q-79 -166 -198 -223q59 -16 102 -59q40 -40 102 -127l414 -592h-149l-349 502q-44 64 -71 95q-32 36 -66 61q-32 24 -71 34q-37 10 -91 10h-157v-702h-123v1100h-168v108z" />
    <glyph glyph-name="uni049F" unicode="&#x49f;" horiz-adv-x="1036" 
d="M53 897h146v170h118v-170h195v-96h-195v-213h80q88 0 138 37q51 37 90 123l65 143q40 89 90 133q49 43 146 43q8 0 28 -2q6 -1 14.5 -2.5t10.5 -1.5l25 -4l-13 -96l-20 4q-7 1 -23 3q-8 1 -22 1q-61 0 -88 -30q-28 -31 -50 -83l-67 -149q-28 -63 -59 -95q-34 -36 -78 -59
q41 -16 71 -47q31 -32 66 -78l295 -428h-144l-270 395q-39 54 -77 77q-41 24 -111 24h-97v-496h-118v801h-146v96z" />
    <glyph glyph-name="uni04A0" unicode="&#x4a0;" horiz-adv-x="1404" 
d="M430 819h125q110 0 185 63q76 64 132 183l89 184q30 64 60 103q32 42 66 65q35 25 77 35q40 10 91 10q11 0 33 -2q6 -1 16 -2.5t15 -1.5q17 -5 31 -6l-13 -107l-20 5q-7 1 -23 3q-8 1 -28 1q-33 0 -63 -5q-26 -4 -52 -22q-24 -17 -47 -47q-22 -29 -47 -84l-92 -193
q-79 -165 -199 -223q59 -16 102 -59t103 -127l413 -592h-149l-348 502q-41 59 -72 95q-34 38 -65 61q-32 23 -72 34q-37 10 -90 10h-158v-702h-123v1352h-282v110h405v-643z" />
    <glyph glyph-name="uni04A1" unicode="&#x4a1;" horiz-adv-x="1093" 
d="M20 1067h355v-479h80q87 0 137 37q51 37 90 123l66 143q40 89 90 133q49 43 145 43q9 0 29 -2q6 -1 14 -2.5t10 -1.5l25 -4l-12 -96l-21 4q-14 2 -22 3t-23 1q-61 0 -88 -30q-26 -28 -49 -83l-68 -149q-28 -63 -59 -95q-34 -36 -78 -59q42 -17 72 -47q28 -28 65 -78
l295 -428h-143l-271 395q-40 55 -76 77q-40 24 -112 24h-96v-496h-119v965h-236v102z" />
    <glyph glyph-name="uni04A2" unicode="&#x4a2;" horiz-adv-x="1419" 
d="M168 1462h125v-647h825v647h125v-1349h129v-467h-119v354h-135v698h-825v-698h-125v1462z" />
    <glyph glyph-name="uni04A3" unicode="&#x4a3;" horiz-adv-x="1173" 
d="M143 1067h119v-455h635v455h119v-963h121v-391h-109v287h-131v508h-635v-508h-119v1067z" />
    <glyph glyph-name="uni04A4" unicode="&#x4a4;" horiz-adv-x="1546" 
d="M168 1462h125v-647h825v647h406v-110h-281v-1352h-125v698h-825v-698h-125v1462z" />
    <glyph glyph-name="uni04A5" unicode="&#x4a5;" horiz-adv-x="1269" 
d="M143 1067h119v-455h635v455h354v-102h-235v-965h-119v508h-635v-508h-119v1067z" />
    <glyph glyph-name="uni04A6" unicode="&#x4a6;" horiz-adv-x="2172" 
d="M1186 829q82 35 171 52q93 18 191 18q155 0 258 -50q104 -50 163 -135q61 -87 85 -197q25 -116 25 -232q0 -123 -31 -238q-30 -110 -99 -194q-70 -86 -180 -133q-111 -48 -270 -48h-80v109h103q222 0 326 134t104 366q0 115 -22 214q-21 95 -70 160q-51 67 -128 101
q-81 35 -196 35q-184 0 -350 -66v-725h-127v1350h-766v-1350h-125v1462h1018v-633z" />
    <glyph glyph-name="uni04A7" unicode="&#x4a7;" horiz-adv-x="1761" 
d="M852 0v961h-590v-961h-119v1067h828v-492q74 31 137 45q69 15 147 15q128 0 211 -40q85 -41 136 -110q50 -67 71 -162q21 -93 21 -200q0 -111 -27 -208q-28 -100 -86 -170q-61 -73 -153 -116t-226 -43h-69v101h81q185 0 270 115t85 317q0 208 -71 311q-70 102 -253 102
q-75 0 -137 -14q-67 -15 -137 -43v-475h-119z" />
    <glyph glyph-name="uni04A8" unicode="&#x4a8;" horiz-adv-x="1673" 
d="M993 1339q-62 27 -104 37q-54 13 -119 13q-117 0 -216 -44q-95 -43 -166 -127q-68 -82 -106 -201q-38 -120 -38 -267q0 -324 151 -502t432 -178q55 0 104 6t75 14q-122 89 -192 238q-69 147 -69 344q0 122 30 224t84 174q55 73 132 113t176 40q85 0 158 -32
q71 -31 124 -96q52 -64 81 -164q29 -101 29 -235q0 -202 -90 -361q-89 -156 -226 -253q29 -7 70 -12q35 -4 88 -4q49 0 102 8q50 8 92 22l19 -100q-62 -21 -124 -27q-63 -6 -120 -6q-69 0 -135 15q-62 14 -117 40q-23 -12 -59 -21q-41 -11 -75 -17q-54 -10 -81 -13
q-36 -4 -78 -4q-195 0 -331 65t-221 172q-83 105 -121 246q-37 138 -37 289q0 181 51 323q50 141 139 240t208 150q120 51 257 51q82 0 144 -13q64 -13 118 -38zM868 674q0 -189 66 -333q67 -145 194 -212q68 33 124 89q59 59 98 130q40 73 63 160t23 180q0 226 -69 328
t-204 102q-142 0 -219 -117q-76 -116 -76 -327z" />
    <glyph glyph-name="uni04A9" unicode="&#x4a9;" horiz-adv-x="1282" 
d="M741 967q-68 30 -151 30q-77 0 -140 -28q-65 -29 -113 -86q-49 -58 -76 -144q-28 -89 -28 -200q0 -120 30 -208q31 -90 82 -149q51 -58 126 -89q73 -30 160 -30q46 0 104 7q-78 63 -125 166t-47 243q0 80 20 154q20 73 58 126q41 56 98 85q60 30 138 30q67 0 122 -27
q54 -26 96 -79q40 -50 61 -123q22 -75 22 -160q0 -67 -19 -137q-17 -62 -49 -120q-27 -49 -72 -97q-39 -42 -86 -70q8 -3 36 -5q17 -1 46 -1q38 0 65 4q25 4 52 11l25.5 8.5t21.5 7.5l23 -84q-22 -13 -50 -20q-34 -11 -62 -14q-42 -5 -89 -5q-41 0 -97 8q-50 7 -87 25
q-54 -17 -108 -23t-116 -6q-124 0 -217 43q-94 43 -157 118q-65 78 -96 177q-31 100 -31 223q0 137 35 239q36 105 101 179t153 114q87 40 196 40q102 0 180 -35zM680 477q0 -129 46 -230q47 -103 122 -147q43 19 79 48q37 30 67 76q30 47 48 109q19 66 19 144
q0 144 -44 223q-44 78 -143 78q-100 0 -147 -83t-47 -218z" />
    </font>
</defs>
</svg>
