<?xml version="1.0" standalone="no"?>
<!DOCTYPE svg PUBLIC "-//W3C//DTD SVG 1.1//EN" "http://www.w3.org/Graphics/SVG/1.1/DTD/svg11.dtd" >
<svg xmlns="http://www.w3.org/2000/svg" xmlns:xlink="http://www.w3.org/1999/xlink" version="1.1">
<metadata>
Created by FontForge 20201107 at Tue May 21 09:56:02 2024
 By 
Copyright 2013 Dalton Maag Ltd. Modification of this file requires prior written permission from Dalton Maag Ltd.
</metadata>
<defs>
<font id="AktivGrotesk-Hairline" horiz-adv-x="843" >
  <font-face 
    font-family="AktivGrotesk-Hairline"
    font-weight="400"
    font-stretch="normal"
    units-per-em="2048"
    panose-1="2 11 3 3 2 2 2 2 2 4"
    ascent="1595"
    descent="-453"
    x-height="1047"
    cap-height="1462"
    bbox="-338 -436 2464 1853"
    underline-thickness="139"
    underline-position="-271"
    unicode-range="U+0008-FB04"
  />
<missing-glyph horiz-adv-x="1024" 
d="M102 0v1536h820v-1536h-820zM819 102v1332h-614v-1332h614z" />
    <glyph glyph-name="f_f" unicode="ff" horiz-adv-x="1234" 
d="M207 1006h-162v41h162v131q0 75 21 132q20 55 61 94q40 39 91 56q55 19 114 19q30 0 67 -6q36 -6 68 -17l-11 -39q-40 13 -60 16q-30 5 -64 5q-112 0 -179 -65q-65 -64 -65 -193v-133h325v-41h-325v-1006h-43v1006zM825 1006h-161v41h161v131q0 72 22 132q21 56 60 94
q40 39 91 56q55 19 114 19q30 0 68 -6q34 -5 67 -17l-10 -39q-40 13 -60 16q-30 5 -65 5q-111 0 -178 -65q-66 -65 -66 -193v-133h326v-41h-326v-1006h-43v1006z" />
    <glyph glyph-name="f_i" unicode="fi" horiz-adv-x="987" 
d="M207 1006h-162v41h162v131q0 75 21 132q20 55 61 94q40 39 91 56q55 19 114 19q30 0 67 -6q36 -6 68 -17l-11 -39q-40 13 -60 16q-30 5 -64 5q-112 0 -179 -65q-65 -64 -65 -193v-133h325v-41h-325v-1006h-43v1006zM793 1047h43v-1047h-43v1047zM793 1462h43v-188h-43
v188z" />
    <glyph glyph-name="f_l" unicode="fl" horiz-adv-x="995" 
d="M207 1006h-162v41h162v131q0 75 21 132q20 55 61 94q40 39 91 56q55 19 114 19q30 0 67 -6q36 -6 68 -17l-11 -39q-40 13 -60 16q-30 5 -64 5q-112 0 -179 -65q-65 -64 -65 -193v-133h325v-41h-325v-1006h-43v1006zM801 1462h43v-1462h-43v1462z" />
    <glyph glyph-name="f_f_i" unicode="ffi" horiz-adv-x="1607" 
d="M209 1006h-162v41h162v131q0 75 21 132q20 55 61 94q40 39 91 56q55 19 114 19q30 0 67 -6q36 -6 68 -17l-10 -39q-39 12 -61 16q-30 5 -64 5q-112 0 -179 -65q-65 -64 -65 -193v-133h326v-41h-326v-1006h-43v1006zM827 1006h-161v41h161v131q0 72 22 132q21 56 60 94
q40 39 91 56q55 19 114 19q30 0 68 -6q34 -5 67 -17l-10 -39q-40 13 -60 16q-30 5 -65 5q-111 0 -178 -65q-66 -65 -66 -193v-133h326v-41h-326v-1006h-43v1006zM1413 1047h43v-1047h-43v1047zM1413 1462h43v-188h-43v188z" />
    <glyph glyph-name="f_f_l" unicode="ffl" horiz-adv-x="1615" 
d="M209 1006h-162v41h162v131q0 75 21 132q20 55 61 94q40 39 91 56q55 19 114 19q30 0 67 -6q36 -6 68 -17l-10 -39q-39 12 -61 16q-30 5 -64 5q-112 0 -179 -65q-65 -64 -65 -193v-133h326v-41h-326v-1006h-43v1006zM827 1006h-161v41h161v131q0 72 22 132q21 56 60 94
q40 39 91 56q55 19 114 19q30 0 68 -6q34 -5 67 -17l-10 -39q-40 13 -60 16q-30 5 -65 5q-111 0 -178 -65q-66 -65 -66 -193v-133h326v-41h-326v-1006h-43v1006zM1421 1462h43v-1462h-43v1462z" />
    <glyph glyph-name=".notdef" horiz-adv-x="1024" 
d="M102 0v1536h820v-1536h-820zM819 102v1332h-614v-1332h614z" />
    <glyph glyph-name=".null" horiz-adv-x="0" 
 />
    <glyph glyph-name=".null" horiz-adv-x="0" 
 />
    <glyph glyph-name=".null" horiz-adv-x="0" 
 />
    <glyph glyph-name="nonmarkingreturn" unicode="&#x9;" horiz-adv-x="460" 
 />
    <glyph glyph-name="nonmarkingreturn" unicode="&#xd;" horiz-adv-x="460" 
 />
    <glyph glyph-name="space" unicode=" " horiz-adv-x="460" 
 />
    <glyph glyph-name="exclam" unicode="!" horiz-adv-x="393" 
d="M174 1462h45l-2 -1097h-41zM174 188h45v-188h-45v188z" />
    <glyph glyph-name="quotedbl" unicode="&#x22;" horiz-adv-x="507" 
d="M92 1454h47l-4 -467h-39zM369 1454h47l-4 -467h-39z" />
    <glyph glyph-name="numbersign" unicode="#" horiz-adv-x="1212" 
d="M926 956l-86 -518h250v-41h-256l-66 -397h-45l65 397h-460l-66 -397h-45l66 397h-256v41h264l86 518h-252v41h258l66 392h43l-66 -392h463l65 392h43l-65 -392h256v-41h-262zM334 438h463l86 518h-463z" />
    <glyph glyph-name="dollar" unicode="$" horiz-adv-x="1212" 
d="M584 -215v180q-87 1 -168 26q-82 25 -143 67q-62 43 -103 116t-53 166h41q28 -162 139 -244t287 -90v707l-70 12q-74 12 -141 36q-66 24 -115 64q-50 41 -77 104t-27 152q0 99 32 167q33 71 90 116q58 46 137 68q78 22 171 22v150h41v-150q115 -6 189 -40q77 -35 120 -83
q47 -52 71 -108q22 -51 39 -115l-40 -10q-16 58 -47 123q-27 55 -71 96q-42 39 -108 64q-61 23 -153 28v-661l63 -11q75 -12 143 -36q71 -25 120 -66q52 -43 82 -111t30 -168q0 -83 -24 -155q-25 -74 -75 -124q-53 -53 -137 -83q-87 -31 -202 -31v-178h-41zM625 705v-699
q108 0 183 27t121 73q43 44 66 111q21 63 21 139q0 93 -28 155q-26 59 -75 98q-48 39 -110 58q-60 18 -135 31zM199 1081q0 -85 25 -139q25 -53 70 -91q43 -35 103 -55q63 -21 129 -32l58 -10v657q-88 0 -157 -19q-71 -20 -122 -60q-53 -42 -79 -102q-27 -63 -27 -149z" />
    <glyph glyph-name="percent" unicode="%" horiz-adv-x="1751" 
d="M139 1012q0 -208 80 -302t203 -94q61 0 113 23q51 22 89 70q39 48 59 122q22 80 22 181q0 100 -22 179q-21 74 -59 123q-37 47 -89 70t-113 23q-60 0 -114 -23q-51 -22 -89 -69q-37 -46 -58 -123q-22 -80 -22 -180zM94 1012q0 110 25 196q24 82 68 135q45 54 104 79
q61 26 131 26q69 0 130 -26q59 -25 104 -79q46 -55 69 -135q25 -86 25 -196q0 -111 -25 -197q-23 -80 -69 -135q-45 -54 -104 -79q-61 -26 -130 -26q-70 0 -131 26q-59 25 -104 79q-44 53 -68 135q-25 86 -25 197zM1049 391q0 -210 79 -302q80 -93 203 -93q63 0 113 22
q51 22 89 70q38 47 59 123q22 80 22 180t-22 179q-21 74 -59 123q-38 48 -89 71q-50 22 -113 22q-62 0 -113 -22t-90 -70q-37 -46 -58 -123t-21 -180zM1004 391q0 114 24 197q23 80 69 135q45 54 103 79q59 25 131 25q71 0 130 -25q61 -26 105 -79t68 -135q25 -86 25 -197
q0 -110 -25 -196q-24 -83 -68 -136q-43 -52 -105 -78q-61 -26 -130 -26q-70 0 -131 26q-59 25 -103 78q-45 55 -69 136q-24 83 -24 196zM537 0h-48l728 1415h47z" />
    <glyph glyph-name="ampersand" unicode="&#x26;" horiz-adv-x="1241" 
d="M92 367q0 97 32 170q31 71 83 126q51 54 115 95q71 46 129 76q-47 54 -60 72q-30 40 -57 84q-26 41 -43 95q-17 53 -17 103q0 53 20 104q20 50 57 87q40 40 92 60q54 21 124 21q131 0 203 -72t72 -192q0 -75 -29 -131q-28 -54 -75 -98q-45 -42 -104 -77q-49 -29 -120 -67
l494 -575q39 84 54 188q15 105 15 226h43q0 -127 -18 -241q-17 -110 -66 -206l185 -215h-56l-151 176q-60 -97 -172 -153t-277 -56q-123 0 -214 31q-87 29 -146 84q-58 53 -85 126q-28 75 -28 159zM569 10q157 0 258 52q103 53 158 147l-508 594q-77 -43 -129 -77
q-64 -42 -108 -89q-49 -52 -75 -114q-28 -67 -28 -152q0 -171 108 -266q109 -95 324 -95zM319 1186q0 -83 47 -165q51 -89 121 -167q74 39 121 66q62 36 99 70q41 38 65 88q25 52 25 118q0 106 -64 164q-63 57 -168 57q-114 0 -179 -62q-67 -64 -67 -169z" />
    <glyph glyph-name="quotesingle" unicode="'" horiz-adv-x="231" 
d="M92 1454h47l-4 -467h-39z" />
    <glyph glyph-name="parenleft" unicode="(" horiz-adv-x="442" 
d="M133 625q0 239 53 460q52 218 172 418h43q-118 -214 -170 -427q-53 -218 -53 -451q0 -234 53 -452q52 -213 170 -427h-43q-120 200 -172 418q-53 221 -53 461z" />
    <glyph glyph-name="parenright" unicode=")" horiz-adv-x="442" 
d="M309 625q0 -240 -53 -461q-52 -218 -172 -418h-43q118 214 170 427q53 218 53 452q0 233 -53 451q-52 213 -170 427h43q120 -200 172 -418q53 -221 53 -460z" />
    <glyph glyph-name="asterisk" unicode="*" horiz-adv-x="690" 
d="M147 918l170 229l-245 94l14 37l242 -98l-2 282h41l-5 -282l242 98l14 -37l-247 -94l172 -229l-33 -27l-166 235l-164 -235z" />
    <glyph glyph-name="plus" unicode="+" horiz-adv-x="1212" 
d="M586 676h-436v41h436v463h43v-463h434v-41h-434v-465h-43v465z" />
    <glyph glyph-name="comma" unicode="," horiz-adv-x="331" 
d="M174 199h47l-78 -375h-39z" />
    <glyph glyph-name="hyphen" unicode="-" horiz-adv-x="792" 
d="M102 610h588v-41h-588v41z" />
    <glyph glyph-name="period" unicode="." horiz-adv-x="331" 
d="M143 199h43v-199h-43v199z" />
    <glyph glyph-name="slash" unicode="/" horiz-adv-x="563" 
d="M489 1503h43l-458 -1503h-43z" />
    <glyph glyph-name="zero" unicode="0" horiz-adv-x="1212" 
d="M111 709q0 191 34 330q34 140 100 233q65 92 156 137t205 45t205 -45q94 -46 157 -136q65 -92 99 -232q35 -143 35 -330q0 -190 -35 -333q-35 -142 -99 -233q-65 -92 -157 -137q-91 -45 -205 -45q-113 0 -205 45t-156 136q-66 94 -100 232q-34 139 -34 333zM158 709
q0 -349 114 -526t334 -177t334 177q115 179 115 526q0 350 -116 526t-333 176q-218 0 -333 -177q-115 -176 -115 -525z" />
    <glyph glyph-name="one" unicode="1" horiz-adv-x="1212" 
d="M659 1368l-385 -221l-20 37l405 231h46v-1415h-46v1368z" />
    <glyph glyph-name="two" unicode="2" horiz-adv-x="1212" 
d="M176 43l313 289q157 147 232 224q88 91 153 180q59 81 85 159t26 156q0 75 -21 141q-20 64 -67 115q-44 49 -114 76q-72 28 -160 28q-95 0 -165 -29q-71 -29 -116 -76q-48 -49 -76 -106q-27 -55 -43 -119l-41 11q15 63 44 123q30 63 82 118t132 88t183 33q100 0 179 -31
q76 -30 128 -85t77 -128q25 -72 25 -157q0 -91 -32 -176q-31 -83 -95 -171q-60 -83 -159 -185q-90 -93 -224 -216l-282 -262h802l-14 -43h-852v43z" />
    <glyph glyph-name="three" unicode="3" horiz-adv-x="1212" 
d="M197 358q5 -54 25 -114q21 -60 69 -115q47 -53 130 -88q84 -35 200 -35q195 0 293 96t98 269q0 94 -27 160q-28 68 -75 109t-111 61q-65 20 -135 20h-191v43h191q146 0 231 88q86 89 86 240t-91 235q-92 84 -267 84q-101 0 -171 -27q-74 -28 -118 -68q-47 -42 -77 -101
q-29 -56 -44 -119l-41 10q11 55 37 112q27 61 79 114q52 54 136 88q83 34 201 34q102 0 181 -28q77 -27 126 -76q48 -48 73 -116q23 -63 23 -142q0 -134 -63 -223q-63 -88 -177 -126q128 -29 199 -122q72 -95 72 -250q0 -87 -26 -163q-25 -73 -80 -130q-53 -54 -137 -85
q-82 -30 -195 -30q-124 0 -215 38q-92 38 -145 96q-56 60 -79 126q-25 69 -26 135h41z" />
    <glyph glyph-name="four" unicode="4" horiz-adv-x="1212" 
d="M113 444l718 971h52v-971h213l-15 -43h-198v-401h-45v401h-725v43zM838 444v912l-676 -912h676z" />
    <glyph glyph-name="five" unicode="5" horiz-adv-x="1212" 
d="M215 334q21 -158 120 -243q98 -85 279 -85q198 0 293 106q94 104 94 314q0 88 -18 164q-18 77 -61 133q-43 57 -116 90q-72 33 -181 33q-112 0 -205 -37q-94 -37 -170 -119h-45l55 725h711v-43h-672l-49 -629q62 63 158 104q99 42 223 42q111 0 192 -35q79 -34 129 -96
q49 -61 73 -147t24 -185q0 -224 -109 -344q-108 -119 -324 -119q-194 0 -309 95t-133 276h41z" />
    <glyph glyph-name="six" unicode="6" horiz-adv-x="1212" 
d="M199 567q15 75 53 133q38 59 96 103q54 41 130 65q74 23 155 23q129 0 215 -42q87 -43 136 -108q51 -68 71 -146q20 -77 20 -157q0 -106 -32 -196q-31 -88 -90 -150q-57 -60 -142 -95q-83 -34 -186 -34q-125 0 -214 48t-146 140q-56 90 -83 221q-26 126 -26 296
q0 231 42 384q42 152 111 241q69 88 159 125q88 36 185 36q89 0 153 -24q63 -23 108 -67q44 -43 71 -96q25 -50 41 -114l-41 -10q-40 142 -119 206q-77 62 -213 62q-91 0 -172 -34q-82 -34 -144 -117t-100 -228q-38 -146 -38 -364v-101zM625 6q85 0 159 27t128 81
q56 56 85 136q31 85 31 192q0 74 -18 146q-18 70 -65 130q-46 58 -122 94q-77 36 -192 36q-75 0 -148 -24q-75 -25 -131 -70t-93 -120q-36 -72 -36 -171q0 -72 20 -155q19 -80 66 -148q46 -67 124 -111q76 -43 192 -43z" />
    <glyph glyph-name="seven" unicode="7" horiz-adv-x="1212" 
d="M412 0q59 202 104 337q56 167 123 336q70 177 148 342q78 166 182 357h-875v43h920v-43q-181 -329 -320 -674q-135 -336 -237 -698h-45z" />
    <glyph glyph-name="eight" unicode="8" horiz-adv-x="1212" 
d="M606 -37q-123 0 -218 29q-93 28 -156 81q-63 52 -94 124q-32 73 -32 157q0 95 36 161q37 68 88 109q50 40 114 65q62 24 111 30q-128 28 -214 123q-85 94 -85 229q0 79 27 148q27 70 84 122q58 54 142 83q85 30 199 30q112 0 200 -31q81 -29 140 -84q55 -52 82 -121
t27 -145q0 -71 -24 -130t-64 -103q-38 -43 -95 -75q-49 -28 -114 -44q44 -7 109 -31q63 -24 113 -65q51 -42 88 -110q36 -66 36 -161q0 -85 -32 -158t-95 -124t-157 -80q-95 -29 -216 -29zM606 6q111 0 198 26q85 25 142 72q58 47 85 111q28 65 28 139q0 71 -28 136
q-27 64 -84 110q-60 49 -141 73q-84 25 -200 25q-115 0 -199 -25q-83 -25 -142 -73q-57 -46 -84 -110q-27 -63 -27 -136q0 -76 27 -140q26 -63 85 -111q54 -44 142 -71q86 -26 198 -26zM606 739q102 0 181 28q76 27 126 74q49 46 73 107q24 62 24 127q0 66 -24 126
q-25 63 -73 108q-50 47 -126 74q-79 28 -181 28t-181 -28q-77 -27 -126 -73t-73 -108q-23 -59 -23 -127t23 -127q24 -61 73 -107q50 -47 126 -74q79 -28 181 -28z" />
    <glyph glyph-name="nine" unicode="9" horiz-adv-x="1212" 
d="M580 6q103 0 181 34t135 118t87 227q31 149 31 365v100q-15 -75 -53 -133t-98 -103q-56 -42 -131 -65q-74 -23 -154 -23q-124 0 -213 42t-138 108q-47 63 -69 145q-21 79 -21 158q0 107 32 197q31 87 90 149q57 60 142 95q83 34 187 34q126 0 214 -48t145 -139
q56 -90 83 -221q27 -130 27 -296q0 -232 -34 -380q-36 -155 -96 -241q-64 -91 -148 -128q-87 -38 -193 -38q-176 0 -282 86q-105 86 -122 236h43q12 -74 44 -127q31 -51 79 -87q45 -34 107 -49q64 -16 125 -16zM586 1411q-84 0 -159 -28q-73 -27 -127 -80q-55 -53 -85 -136
q-31 -85 -31 -192q0 -70 19 -146q18 -71 63 -130q45 -58 124 -94q80 -36 192 -36q74 0 147 24t131 71q57 46 93 119q36 72 36 171q0 76 -19 155q-19 78 -68 149q-48 69 -128 111t-188 42z" />
    <glyph glyph-name="colon" unicode=":" horiz-adv-x="331" 
d="M143 199h43v-199h-43v199zM143 1057h43v-199h-43v199z" />
    <glyph glyph-name="semicolon" unicode=";" horiz-adv-x="331" 
d="M143 199h47l-77 -375h-39zM143 1057h43v-199h-43v199z" />
    <glyph glyph-name="less" unicode="&#x3c;" horiz-adv-x="1212" 
d="M215 694l838 -434v-47l-895 463v35l895 465v-46z" />
    <glyph glyph-name="equal" unicode="=" horiz-adv-x="1212" 
d="M170 948h872v-41h-872v41zM170 485h872v-41h-872v41z" />
    <glyph glyph-name="greater" unicode="&#x3e;" horiz-adv-x="1212" 
d="M160 258l835 436l-835 434v48l895 -463v-35l-895 -465v45z" />
    <glyph glyph-name="question" unicode="?" horiz-adv-x="1001" 
d="M465 365v10q0 71 15 123q14 49 43 99q23 40 69 89q27 29 92 94q66 63 111 140q47 80 47 186q0 66 -22 132q-21 63 -66 108q-43 43 -112 71q-66 27 -159 27q-94 0 -161 -29q-66 -29 -108 -75q-42 -47 -66 -103q-22 -51 -35 -115l-41 9q10 50 37 121q24 63 71 116t123 86
q77 33 180 33q100 0 179 -31q74 -29 125 -83q52 -55 75 -122q25 -72 25 -145q0 -112 -48 -200q-49 -89 -120 -152q-61 -59 -85 -84q-43 -44 -66 -82q-29 -47 -43 -93q-15 -49 -15 -114v-16h-45zM465 188h45v-188h-45v188z" />
    <glyph glyph-name="at" unicode="@" horiz-adv-x="1845" 
d="M948 913q120 0 200 -64q81 -64 105 -179l39 219h43l-121 -682q-2 -14 -3 -20t-1 -19q0 -60 39 -97q40 -38 115 -38q80 0 144 43q66 45 109 117t67 174q24 100 24 217q0 200 -64 338q-64 139 -169 226t-237 126t-267 39q-188 0 -343 -73q-151 -71 -259 -202
q-107 -130 -164 -303q-58 -177 -58 -377q0 -198 61 -343q60 -142 165 -232q106 -91 247 -131q144 -41 306 -41q123 0 207 20q86 20 154 56t115 81q49 48 87 97h45q-100 -156 -249 -225q-151 -70 -359 -70q-179 0 -327 46q-152 47 -261 143t-173 246q-63 149 -63 355
q0 210 62 393q62 182 175 315q114 134 274 210q159 76 360 76q142 0 285 -44q137 -42 251 -138q113 -95 178 -238q66 -146 66 -348q0 -119 -26 -229q-26 -109 -74 -188q-49 -81 -123 -129t-168 -48q-91 0 -140 46q-51 48 -51 122q0 7 1.5 21.5t1.5 17.5q-61 -116 -148 -168
q-86 -51 -197 -51q-158 0 -246 97q-89 98 -89 277q0 112 32 209q32 96 94 179q58 77 143 125q82 46 185 46zM1225 510q6 33 6 70q0 55 -19 110q-18 53 -53 94q-36 42 -88 66q-53 24 -121 24q-88 0 -160 -39q-77 -41 -131 -109q-55 -68 -88 -165q-32 -93 -32 -207
q0 -93 22 -156q22 -64 61 -104q37 -38 91 -57q55 -19 114 -19q145 0 247 99t136 305z" />
    <glyph glyph-name="A" unicode="A" horiz-adv-x="1304" 
d="M1014 483h-725l-189 -483h-49l576 1462h51l575 -1462h-51zM305 526h692l-346 889z" />
    <glyph glyph-name="B" unicode="B" horiz-adv-x="1251" 
d="M1102 1108q0 -140 -74 -228t-201 -110q152 -21 237 -119t85 -262q0 -189 -120 -289q-119 -100 -333 -100h-520v1462h512q192 0 303 -90t111 -264zM221 745v-702h471q201 0 305 85q105 86 105 265q0 172 -104 262t-283 90h-494zM221 788h494q71 0 136 20q62 19 108 59
q47 41 72 100q26 61 26 139q0 160 -96 237q-95 76 -275 76h-465v-631z" />
    <glyph glyph-name="C" unicode="C" horiz-adv-x="1402" 
d="M1290 469q-15 -111 -55 -202q-40 -92 -110 -162q-68 -68 -164 -107t-220 -39q-133 0 -245 48t-196 144t-130 239q-47 146 -47 335q0 198 48 345t131 242q82 94 196 141q111 46 241 46q119 0 209 -36q91 -36 155 -99q63 -62 106 -149t63 -183l-41 -10q-22 92 -60 173
q-38 80 -96 137q-60 59 -141 91q-83 33 -193 33q-126 0 -231 -45q-103 -44 -180 -136q-76 -91 -118 -227q-42 -137 -42 -319q0 -184 43 -317q45 -139 119 -226q77 -90 181 -135q105 -45 232 -45q119 0 209 38q89 38 150 103q61 66 96 149q34 80 49 173h41z" />
    <glyph glyph-name="D" unicode="D" horiz-adv-x="1406" 
d="M176 1462h469q141 0 261 -44q117 -43 203 -135q85 -91 130 -228t45 -324q0 -188 -46 -323q-47 -139 -133 -229q-87 -91 -212 -135q-126 -44 -283 -44h-434v1462zM221 43h391q307 0 466 173t159 511q0 339 -154 516q-153 176 -438 176h-424v-1376z" />
    <glyph glyph-name="E" unicode="E" horiz-adv-x="1173" 
d="M176 1462h891v-43h-846v-643h805v-43h-805v-690h862l-14 -43h-893v1462z" />
    <glyph glyph-name="F" unicode="F" horiz-adv-x="1103" 
d="M176 1462h838v-43h-795v-659h750v-43h-750v-717h-43v1462z" />
    <glyph glyph-name="G" unicode="G" horiz-adv-x="1406" 
d="M782 680h490v-533q-101 -97 -231 -140q-132 -44 -265 -44q-146 0 -266 46q-122 47 -207 141q-88 97 -133 236q-47 144 -47 337q0 197 47 344q46 145 131 242q84 96 199 143t248 47q203 0 327 -103q126 -105 166 -286l-41 -10q-23 85 -57 146q-39 69 -92 113
q-56 47 -131 72t-175 25q-126 0 -232 -44q-105 -44 -182 -134q-77 -91 -119 -228q-42 -138 -42 -325q0 -184 43 -317q45 -139 122 -225q81 -90 190 -133q112 -44 251 -44q128 0 247 39t204 117v475h-445v43z" />
    <glyph glyph-name="H" unicode="H" horiz-adv-x="1378" 
d="M176 1462h45v-682h936v682h45v-1462h-45v737h-936v-737h-45v1462z" />
    <glyph glyph-name="I" unicode="I" horiz-adv-x="397" 
d="M176 1462h45v-1462h-45v1462z" />
    <glyph glyph-name="J" unicode="J" horiz-adv-x="1155" 
d="M102 403q33 -207 145 -302t292 -95q200 0 302 114q101 113 101 347v995h45v-999q0 -127 -32 -223q-31 -94 -90 -156q-58 -61 -141 -91t-185 -30q-85 0 -166 23q-82 23 -145 73t-108 138q-44 87 -59 206h41z" />
    <glyph glyph-name="K" unicode="K" horiz-adv-x="1275" 
d="M618 924l607 -924h-51l-586 895l-369 -360v-535h-43v1462h43v-872l893 872h57z" />
    <glyph glyph-name="L" unicode="L" horiz-adv-x="1120" 
d="M176 1462h45v-1419h838l-15 -43h-868v1462z" />
    <glyph glyph-name="M" unicode="M" horiz-adv-x="1662" 
d="M231 1462l600 -1405l603 1405h53v-1462h-43v1386l-592 -1386h-41l-592 1386v-1386h-43v1462h55z" />
    <glyph glyph-name="N" unicode="N" horiz-adv-x="1380" 
d="M176 1462h51l932 -1401v1401h45v-1462h-55l-928 1397v-1397h-45v1462z" />
    <glyph glyph-name="O" unicode="O" horiz-adv-x="1507" 
d="M123 729q0 167 40 306q41 142 119 244q81 105 196 162q117 58 276 58q158 0 275 -59t197 -162q77 -99 119 -244q39 -136 39 -303q0 -171 -39 -307q-41 -144 -119 -245q-80 -103 -198 -162q-117 -58 -274 -58q-160 0 -277 59q-118 60 -196 163q-77 103 -118 244
q-40 139 -40 304zM170 729q0 -159 37 -291q38 -136 108 -229q73 -97 183 -152t256 -55t256 55q109 54 182 152q70 93 108 229q37 132 37 291q0 158 -37 290q-38 135 -109 230q-72 96 -182 152q-109 55 -255 55t-255 -54q-111 -55 -183 -152q-71 -96 -109 -231
q-37 -132 -37 -290z" />
    <glyph glyph-name="P" unicode="P" horiz-adv-x="1224" 
d="M1133 1044q0 -110 -33 -190t-93 -131q-62 -52 -146 -76q-85 -24 -191 -24h-449v-623h-45v1462h502q226 0 340 -105q115 -106 115 -313zM221 666h451q203 0 309 92q104 91 104 286q0 192 -102 284q-101 91 -313 91h-449v-753z" />
    <glyph glyph-name="Q" unicode="Q" horiz-adv-x="1507" 
d="M123 729q0 167 40 306q41 142 119 244q81 105 196 162q117 58 276 58q158 0 275 -59t197 -162q77 -99 119 -244q39 -136 39 -303q0 -171 -39 -307q-41 -141 -120 -246q-25 -35 -62 -67l183 -226l-33 -26l-183 223q-46 -38 -102 -66q-118 -57 -274 -57q-160 0 -277 59
q-118 60 -196 163q-77 103 -118 244q-40 139 -40 304zM170 729q0 -159 37 -291q38 -136 108 -229q73 -97 183 -152t256 -55t256 55q45 21 94 60l-219 272l33 27l217 -271q27 26 57 64q70 93 108 229q37 132 37 291q0 158 -37 290q-38 135 -109 230q-72 96 -182 152
q-109 55 -255 55t-255 -54q-111 -55 -183 -152q-71 -96 -109 -231q-37 -132 -37 -290z" />
    <glyph glyph-name="R" unicode="R" horiz-adv-x="1255" 
d="M1118 1071q0 -157 -71 -249q-73 -94 -205 -128l321 -694h-49l-315 686q-33 -7 -65 -8q-46 -2 -68 -2h-445v-676h-45v1462h498q444 0 444 -391zM221 719h447q205 0 305 86q98 85 98 266t-98 264q-99 84 -307 84h-445v-700z" />
    <glyph glyph-name="S" unicode="S" horiz-adv-x="1236" 
d="M141 340q30 -166 161 -250q130 -84 335 -84q120 0 206 28q83 27 133 77q52 52 73 114q22 65 22 142q0 97 -30 160q-31 65 -80 101q-50 37 -120 58q-69 21 -147 33l-166 26q-80 12 -150 36q-72 25 -124 66q-55 44 -85 107q-32 67 -32 164q0 95 35 168t97 119q64 48 151 71
q85 23 192 23q129 0 219 -33t143 -83q52 -49 82 -111q28 -56 44 -119l-41 -10q-18 70 -51 128t-83 99q-51 42 -128 64q-76 22 -185 22q-96 0 -175 -18q-76 -17 -136 -60q-58 -41 -88 -104q-31 -65 -31 -154q0 -87 28 -148q26 -56 77 -95q49 -37 115 -58q65 -21 145 -33
l164 -24q74 -11 151 -35q70 -22 130 -67q57 -43 91 -115q35 -73 35 -178q0 -88 -25 -160q-26 -74 -83 -128q-58 -55 -150 -85q-95 -31 -223 -31q-98 0 -188 21q-93 22 -163 64q-71 43 -122 117q-49 71 -64 175h41z" />
    <glyph glyph-name="T" unicode="T" horiz-adv-x="1167" 
d="M561 1419h-520v43h1085v-43h-520v-1419h-45v1419z" />
    <glyph glyph-name="U" unicode="U" horiz-adv-x="1351" 
d="M676 6q465 0 465 555v901h45v-895q0 -305 -130 -454q-130 -150 -380 -150q-254 0 -382 150q-128 151 -128 454v895h45v-901q0 -555 465 -555z" />
    <glyph glyph-name="V" unicode="V" horiz-adv-x="1255" 
d="M600 0l-549 1462h49l529 -1413l528 1413h47l-549 -1462h-55z" />
    <glyph glyph-name="W" unicode="W" horiz-adv-x="1777" 
d="M889 1395l-381 -1395h-53l-394 1462h48l372 -1396l383 1390h51l381 -1395l375 1401h45l-393 -1462h-53z" />
    <glyph glyph-name="X" unicode="X" horiz-adv-x="1226" 
d="M635 768l551 -768h-56l-524 733l-512 -733h-53l539 766l-498 696h55l469 -661l473 661h54z" />
    <glyph glyph-name="Y" unicode="Y" horiz-adv-x="1140" 
d="M549 0v633l-498 829h51l469 -782l469 782h50l-496 -825v-637h-45z" />
    <glyph glyph-name="Z" unicode="Z" horiz-adv-x="1185" 
d="M86 39l942 1380h-926v43h981v-39l-944 -1380h955l-15 -43h-993v39z" />
    <glyph glyph-name="bracketleft" unicode="[" horiz-adv-x="518" 
d="M164 1503h323v-41h-280v-1675h280v-41h-323v1757z" />
    <glyph glyph-name="backslash" unicode="\" horiz-adv-x="563" 
d="M532 0h-43l-458 1503h43z" />
    <glyph glyph-name="bracketright" unicode="]" horiz-adv-x="518" 
d="M354 -254h-323v41h280v1675h-280v41h323v-1757z" />
    <glyph glyph-name="asciicircum" unicode="^" horiz-adv-x="1212" 
d="M604 1397l-399 -760h-45l424 803h43l424 -803h-47z" />
    <glyph glyph-name="underscore" unicode="_" horiz-adv-x="1024" 
d="M0 -252h1024v-41h-1024v41z" />
    <glyph glyph-name="grave" unicode="`" horiz-adv-x="776" 
d="M244 1462h55l231 -262h-49z" />
    <glyph glyph-name="a" unicode="a" horiz-adv-x="1046" 
d="M858 0v197q-62 -108 -162 -165t-233 -57q-176 0 -274 83q-97 82 -97 237q0 105 43 170t115 101q69 35 165 50q89 14 195 19l248 10v51q0 91 -14 150q-15 65 -51 106q-38 44 -102 65q-65 21 -163 21q-154 0 -236 -54q-83 -54 -110 -163l-39 8q24 121 122 186q97 64 267 64
q106 0 176 -24q68 -23 113 -73q44 -48 62 -118q18 -69 18 -162v-702h-43zM858 606l-242 -10q-107 -5 -185 -17q-84 -13 -152 -44q-65 -30 -104 -90q-38 -59 -38 -150q0 -137 86 -208t240 -71q102 0 180 33q76 32 137 96q44 47 60 89q18 47 18 118v254z" />
    <glyph glyph-name="b" unicode="b" horiz-adv-x="1161" 
d="M195 1462v-657q46 123 151 199q103 75 260 75q114 0 199 -42t142 -115t84 -176q28 -106 28 -222q0 -134 -35 -241q-34 -105 -96 -174q-62 -70 -148 -106t-188 -36q-138 0 -243 63t-154 197v-227h-43v1462h43zM193 469q0 -40 5 -93q4 -48 18 -96q15 -52 37 -94
q25 -47 60 -82q47 -47 121 -71q77 -25 160 -25q195 0 307 135q113 136 113 381q0 116 -27 211t-78 162q-50 66 -127 104q-75 37 -176 37q-179 0 -284 -104q-70 -70 -100 -158q-29 -86 -29 -192v-115z" />
    <glyph glyph-name="c" unicode="c" horiz-adv-x="1091" 
d="M989 344q-27 -176 -136 -276q-110 -101 -288 -101q-103 0 -189 36q-85 36 -146 106q-59 68 -94 171q-34 101 -34 234q0 132 33 237q34 108 94 178q61 72 150 111q88 39 196 39q318 0 396 -338l-39 -8q-33 146 -120 226q-86 79 -239 79q-107 0 -186 -39q-81 -40 -133 -108
q-53 -69 -80 -165q-27 -94 -27 -208t27 -208t78 -160q52 -67 130 -104q81 -38 183 -38q161 0 259 90q97 89 124 246h41z" />
    <glyph glyph-name="d" unicode="d" horiz-adv-x="1161" 
d="M967 0v242q-50 -125 -153 -200q-104 -75 -259 -75q-115 0 -200 42q-82 41 -141 116q-57 74 -84 175q-28 106 -28 222q0 135 35 242q35 105 96 174q61 68 148 105q86 36 188 36q137 0 242 -62q107 -63 156 -198v643h43v-1462h-43zM969 578q0 40 -5 93q-4 38 -18 96
q-11 44 -37 93q-24 45 -61 82q-48 48 -121 72q-74 24 -158 24q-197 0 -309 -135q-113 -136 -113 -381q0 -116 27 -211q26 -92 77 -161q49 -67 127 -105q75 -37 177 -37q179 0 285 105q69 69 99 157t30 193v115z" />
    <glyph glyph-name="e" unicode="e" horiz-adv-x="1091" 
d="M989 512h-844q0 -115 27 -208t78 -159q50 -64 131 -101q79 -36 186 -36q145 0 237 65t120 177h41q-12 -59 -42 -109q-31 -52 -78 -89t-117 -61q-69 -24 -161 -24q-225 0 -345 146q-120 145 -120 401q0 141 34 246q35 108 95 177t148 106q85 36 190 36q112 0 194 -41
q81 -41 131 -113q51 -74 73 -169q22 -94 22 -209v-35zM569 1038q-191 0 -303 -124q-114 -126 -121 -363h801q0 106 -19 192q-19 87 -64 155q-42 64 -118 103q-73 37 -176 37z" />
    <glyph glyph-name="f" unicode="f" horiz-adv-x="616" 
d="M207 1006h-162v41h162v131q0 75 21 132q20 55 61 94q40 39 91 56q55 19 114 19q30 0 67 -6q36 -6 68 -17l-11 -39q-40 13 -60 16q-30 5 -64 5q-112 0 -179 -65q-65 -64 -65 -193v-133h325v-41h-325v-1006h-43v1006z" />
    <glyph glyph-name="g" unicode="g" horiz-adv-x="1161" 
d="M967 287q-50 -127 -153 -198q-105 -73 -259 -73q-114 0 -199 41q-82 40 -141 114q-58 73 -85 168q-28 98 -28 208q0 136 37 234q38 100 101 166q64 68 150 100q84 32 188 32q135 0 235 -58q102 -59 154 -192v218h43v-1039q0 -95 -21 -175t-69 -135q-49 -56 -133 -87
q-85 -31 -205 -31q-92 0 -159 14q-74 15 -131 49t-95 88q-36 52 -47 132h40q21 -120 116 -182t276 -62q115 0 191 29q74 28 118 80q42 50 59 121q17 73 17 155v283zM969 600q0 37 -5 89q-4 37 -18 91q-11 41 -37 88q-25 44 -61 78q-97 92 -270 92q-98 0 -176 -31
q-75 -30 -135 -93q-56 -59 -88 -152t-32 -215q0 -111 27 -202q27 -92 78 -155q52 -64 127 -98q78 -35 176 -35q172 0 285 101q69 64 98 148q31 88 31 183v111z" />
    <glyph glyph-name="h" unicode="h" horiz-adv-x="1110" 
d="M152 1462h43v-600q79 112 188 164q112 53 229 53q177 0 265 -98t88 -281v-700h-43v692q0 170 -76 258t-238 88q-92 0 -173 -30q-76 -28 -152 -101q-32 -31 -49 -53q-16 -21 -26 -52q-10 -29 -11 -64q-2 -48 -2 -85v-653h-43v1462z" />
    <glyph glyph-name="i" unicode="i" horiz-adv-x="346" 
d="M152 1047h43v-1047h-43v1047zM152 1462h43v-188h-43v188z" />
    <glyph glyph-name="j" unicode="j" horiz-adv-x="346" 
d="M-201 -309q43 -16 84 -23q46 -8 78 -8q53 0 89 18t59 53q21 32 32 78t11 95v1143h43v-1129q0 -142 -58 -221q-57 -78 -176 -78q-45 0 -90 9t-84 24zM152 1462h43v-188h-43v188z" />
    <glyph glyph-name="k" unicode="k" horiz-adv-x="976" 
d="M487 674l-292 -262v-412h-43v1462h43v-1001l651 586h57l-385 -347l438 -700h-49z" />
    <glyph glyph-name="l" unicode="l" horiz-adv-x="346" 
d="M152 1462h43v-1462h-43v1462z" />
    <glyph glyph-name="m" unicode="m" horiz-adv-x="1724" 
d="M844 0v713q0 159 -68 242t-213 83q-77 0 -150 -29q-75 -30 -141 -102q-28 -29 -42 -52q-16 -25 -23 -51q-9 -31 -10 -63q-2 -46 -2 -88v-653h-43v1047h43v-183q74 111 170 162q100 53 204 53q127 0 203 -60t100 -171q77 115 178 173t212 58q158 0 238 -93q79 -92 79 -267
v-719h-43v713q0 159 -68 242t-213 83q-78 0 -149 -29q-74 -30 -141 -102q-27 -29 -42 -51q-18 -27 -24 -49q-9 -31 -10 -63q-2 -48 -2 -91v-653h-43z" />
    <glyph glyph-name="n" unicode="n" horiz-adv-x="1110" 
d="M152 1047h43v-187q80 115 188 166q112 53 229 53q176 0 265 -99q88 -98 88 -280v-700h-43v692q0 169 -76 257q-77 89 -238 89q-92 0 -173 -30q-76 -28 -152 -101q-32 -31 -49 -53q-16 -21 -26 -52q-10 -29 -11 -64q-2 -48 -2 -85v-653h-43v1047z" />
    <glyph glyph-name="o" unicode="o" horiz-adv-x="1157" 
d="M147 520q0 -102 24 -195q24 -94 75 -164q52 -72 133 -112q84 -41 199 -41q116 0 199 42t134 113t75 165t24 196q0 103 -24 196q-24 94 -75 164q-50 69 -134 112q-83 42 -199 42t-199 -42t-133 -113q-51 -72 -75 -166q-24 -95 -24 -197zM580 1079q127 0 217 -45
q91 -45 147 -121q57 -77 84 -176q27 -101 27 -211q0 -112 -27 -214q-27 -101 -84 -178q-58 -78 -148 -122q-92 -45 -218 -45q-128 0 -218 45q-91 45 -147 121q-57 77 -84 176q-27 101 -27 213q0 110 27 212q27 101 84 178q58 78 148 122q91 45 219 45z" />
    <glyph glyph-name="p" unicode="p" horiz-adv-x="1161" 
d="M195 1047v-242q46 123 151 199q103 75 260 75q114 0 199 -42t142 -115t84 -176q28 -106 28 -222q0 -134 -35 -241q-34 -105 -96 -174q-62 -70 -148 -106t-188 -36q-136 0 -244 64q-107 63 -153 196v-624h-43v1444h43zM193 469q0 -40 5 -93q4 -48 18 -96q15 -52 37 -94
q25 -47 60 -82q47 -47 121 -71q77 -25 158 -25q194 0 308 134t114 382q0 116 -27 211t-78 162q-50 66 -127 104q-75 37 -176 37q-179 0 -284 -104q-70 -67 -100 -156q-29 -87 -29 -194v-115z" />
    <glyph glyph-name="q" unicode="q" horiz-adv-x="1161" 
d="M967 -397v639q-46 -121 -151 -199q-103 -76 -261 -76q-115 0 -200 42q-83 41 -141 117q-57 75 -84 175q-28 104 -28 221q0 135 35 242q35 105 96 174q61 68 148 105q86 36 188 36q137 0 242 -62q107 -63 156 -198v228h43v-1444h-43zM969 578q0 40 -5 93q-4 43 -19 96
q-14 50 -37 93q-25 47 -60 82q-48 48 -121 72q-74 24 -158 24q-197 0 -309 -135q-113 -136 -113 -381q0 -116 27 -211q27 -93 78 -161t127 -105q75 -37 176 -37q179 0 285 105q69 69 99 157t30 193v115z" />
    <glyph glyph-name="r" unicode="r" horiz-adv-x="675" 
d="M152 1047h43v-189q64 100 154 152q92 53 210 53q37 0 78 -6l-6 -43q-11 2 -36 5q-9 1 -36 1q-103 0 -182 -41q-77 -40 -139 -123q-15 -18 -23 -37q-9 -22 -13 -43q-4 -24 -6 -52q-1 -18 -1 -71v-653h-43v1047z" />
    <glyph glyph-name="s" unicode="s" horiz-adv-x="1017" 
d="M139 270q18 -124 110 -193q91 -69 271 -69q98 0 164 21q65 21 105 56q40 36 57 83q16 45 16 100q0 66 -21 109q-20 41 -62 69q-41 27 -97 42q-66 17 -131 28l-98 16q-67 11 -125 28q-61 18 -104 48q-42 29 -69 78q-26 47 -26 119q0 55 21 105q22 52 64 88q46 39 115 60
q71 21 171 21t164 -19q66 -19 108 -53q45 -36 68 -80q24 -47 41 -100l-39 -8q-16 50 -41 92t-65 70t-97 43q-53 14 -139 14q-96 0 -155 -17q-63 -18 -100 -49q-39 -33 -55 -75t-16 -94q0 -58 20 -98q20 -41 56 -65q37 -25 88 -40q46 -14 113 -25l106 -18q74 -12 140 -30
t112 -48q47 -30 73 -81q25 -49 25 -128q0 -144 -96 -224q-95 -79 -291 -79q-181 0 -293 74q-111 74 -129 229h41z" />
    <glyph glyph-name="t" unicode="t" horiz-adv-x="651" 
d="M207 1006h-162v41h162v292h43v-292h354v-41h-354v-727q0 -129 51 -195t162 -66q76 0 145 29l13 -37q-25 -13 -68 -23t-90 -10q-71 0 -121 21t-79 60t-43 98q-13 55 -13 131v719z" />
    <glyph glyph-name="u" unicode="u" horiz-adv-x="1089" 
d="M938 0h-43v188q-77 -113 -183 -166q-110 -55 -225 -55q-174 0 -258 101q-84 100 -84 278v701h43v-693q0 -168 74 -257t232 -89q89 0 168 31q72 28 147 100q28 27 47 54q17 24 26 52q10 29 11 63q2 48 2 85v654h43v-1047z" />
    <glyph glyph-name="v" unicode="v" horiz-adv-x="956" 
d="M455 0l-435 1047h46l413 -998l414 998h43l-434 -1047h-47z" />
    <glyph glyph-name="w" unicode="w" horiz-adv-x="1390" 
d="M1030 49l291 998h43l-307 -1047h-51l-312 991l-309 -991h-51l-307 1047h45l290 -998l312 993h45z" />
    <glyph glyph-name="x" unicode="x" horiz-adv-x="903" 
d="M479 557l420 -557h-49l-395 524l-387 -524h-48l408 555l-373 492h49l351 -461l352 461h47z" />
    <glyph glyph-name="y" unicode="y" horiz-adv-x="956" 
d="M66 1047l434 -986l393 986h43l-494 -1235q-39 -97 -91 -153t-148 -56q-32 0 -65 5q-29 4 -58 15l10 37q28 -9 53 -13q33 -5 60 -5q66 0 112 40q49 43 91 144l75 184l-461 1037h46z" />
    <glyph glyph-name="z" unicode="z" horiz-adv-x="901" 
d="M61 29l691 977h-676v41h729v-33l-688 -973h723l-13 -41h-766v29z" />
    <glyph glyph-name="braceleft" unicode="{" horiz-adv-x="530" 
d="M61 645h11q77 0 109 38t32 105v533q0 85 41 134q40 48 125 48h121v-41h-127q-63 0 -90 -40t-27 -95v-534q0 -74 -29 -115t-73 -53q43 -11 73 -54q29 -41 29 -114v-535q0 -56 29 -96q29 -39 88 -39h127v-41h-121q-84 0 -125 47t-41 135v533q0 67 -32 105t-109 38h-11v41z
" />
    <glyph glyph-name="bar" unicode="|" horiz-adv-x="395" 
d="M176 1503h43v-1757h-43v1757z" />
    <glyph glyph-name="braceright" unicode="}" horiz-adv-x="530" 
d="M469 604h-10q-78 0 -110 -38t-32 -105v-533q0 -85 -41 -134q-40 -48 -124 -48h-121v41h127q63 0 90 40q26 39 26 95v535q0 73 29 114q30 42 74 54q-45 12 -74 53t-29 115v534q0 58 -28 96q-29 39 -88 39h-127v41h121q83 0 124 -47t41 -135v-533q0 -67 32 -105t110 -38h10
v-41z" />
    <glyph glyph-name="asciitilde" unicode="~" horiz-adv-x="1212" 
d="M135 555q0 89 24 146q25 59 57 87q35 30 74 42q40 12 72 12q81 0 140 -43q60 -44 112 -94q53 -52 110 -95q56 -43 132 -43q30 0 63 11q32 11 57 37q24 25 43 75q17 44 17 123h43q0 -91 -23 -146q-24 -58 -58 -87q-36 -31 -73 -42q-41 -12 -73 -12q-80 0 -139 43
q-60 43 -113 95q-48 47 -110 94q-56 43 -132 43q-32 0 -62 -10q-31 -10 -57 -38q-24 -25 -43 -75q-18 -46 -18 -123h-43z" />
    <glyph glyph-name="uni00A0" unicode="&#xa0;" horiz-adv-x="460" 
 />
    <glyph glyph-name="exclamdown" unicode="&#xa1;" horiz-adv-x="393" 
d="M219 -416h-45l2 1098h41zM219 858h-45v189h45v-189z" />
    <glyph glyph-name="cent" unicode="&#xa2;" horiz-adv-x="1212" 
d="M1063 516q-27 -170 -133 -270q-107 -101 -281 -107v-157h-41v157q-100 1 -185 40q-80 36 -142 108q-60 69 -93 170q-32 97 -32 229q0 129 31 229q32 103 92 175t142 112q84 41 187 47v166h41v-164q317 -6 395 -338l-38 -8q-37 144 -120 224q-81 78 -237 83v-1034
q158 6 254 100q95 94 119 238h41zM201 690q0 -113 25 -203q25 -89 76 -159q49 -67 127 -107q75 -38 179 -43v1032q-102 -6 -180 -47q-75 -40 -127 -110t-76 -162q-24 -91 -24 -201z" />
    <glyph glyph-name="sterling" unicode="&#xa3;" horiz-adv-x="1212" 
d="M150 723h145q-2 17 -9.5 67.5t-10.5 76.5q-9 69 -9 147q0 111 32 196q32 86 89 138q56 52 133 79q76 27 166 27q92 0 158 -27t108 -69q44 -44 69 -100q25 -57 40 -115l-41 -10q-16 63 -42 114q-25 50 -66 88t-95 57t-131 19q-176 0 -275 -103q-100 -105 -100 -294
q0 -58 10 -138q1 -8 8 -65t11 -88h506v-39h-500q4 -32 10 -106q4 -47 4 -111q0 -109 -24 -217q-24 -106 -94 -207h854l-15 -43h-891v43q39 46 63 101q22 48 38 111q14 54 19 111q5 60 5 101q0 68 -4 115q-6 67 -10 102h-151v39z" />
    <glyph glyph-name="currency" unicode="&#xa4;" horiz-adv-x="1212" 
d="M168 233l113 123q-115 129 -115 351q0 109 30 198q31 90 85 152l-113 125l31 28l110 -123q115 103 295 103q93 0 165 -27q74 -28 128 -73l113 120l30 -28l-112 -123q116 -128 116 -352q0 -225 -116 -353l112 -121l-30 -28l-111 121q-113 -101 -295 -101t-295 101
l-110 -121zM211 707q0 -203 102 -322t291 -119t292 118t103 323t-103 323q-104 119 -292 119q-189 0 -291 -119q-102 -118 -102 -323z" />
    <glyph glyph-name="yen" unicode="&#xa5;" horiz-adv-x="1212" 
d="M586 426v211l-49 78h-357v39h332l-424 661h51l469 -735l469 735h49l-424 -661h345v-39h-369l-47 -74v-215h416v-39h-416v-387h-45v387h-406v39h406z" />
    <glyph glyph-name="brokenbar" unicode="&#xa6;" horiz-adv-x="395" 
d="M176 815v688h43v-688h-43zM219 469v-723h-43v723h43z" />
    <glyph glyph-name="section" unicode="&#xa7;" horiz-adv-x="999" 
d="M909 623q0 -119 -69 -196q-69 -76 -181 -93q139 -46 192 -114q54 -69 54 -167q0 -141 -96 -221q-97 -80 -291 -80q-184 0 -294 75t-128 228h41q18 -125 111 -194q92 -68 270 -68q98 0 164 21q65 21 105 55t57 83q16 47 16 101q0 39 -9 74q-9 34 -37 70q-27 35 -77 62
q-53 29 -127 46l-200 49q-145 34 -230 108q-82 72 -82 193q0 48 16 101q14 47 46 88q28 36 79 65q49 28 115 35q-55 16 -96 38q-47 25 -78 56q-32 32 -52 77q-19 42 -19 102q0 61 21 112t68 89q50 40 119 60q74 21 179 21q102 0 169 -19q68 -19 112 -54q47 -37 71 -79
q25 -43 43 -100l-39 -8q-18 50 -44 92q-26 41 -67 70q-40 28 -100 43q-56 14 -145 14q-99 0 -165 -18q-67 -18 -106 -50q-38 -31 -55 -77q-16 -44 -16 -99q0 -86 57 -146t199 -99l188 -49q168 -44 239 -115q72 -72 72 -182zM510 373q25 -7 45 -8q5 0 14 -1t16.5 -1.5
t14.5 -0.5q112 0 188 69t76 187q0 105 -68 167t-216 100l-82 20q-50 13 -90 13q-56 0 -104 -18q-51 -19 -84 -51q-35 -33 -56 -82q-21 -48 -21 -108q0 -103 69 -166q68 -62 216 -100z" />
    <glyph glyph-name="dieresis" unicode="&#xa8;" horiz-adv-x="776" 
d="M215 1462h43v-188h-43v188zM518 1462h43v-188h-43v188z" />
    <glyph glyph-name="copyright" unicode="&#xa9;" horiz-adv-x="1597" 
d="M801 41q137 0 254 49q119 50 207 139q89 90 138 217q50 129 50 285q0 155 -47 284q-46 127 -133 218q-84 89 -206 139q-119 49 -263 49q-136 0 -255 -49q-120 -49 -208 -139q-87 -89 -139 -218q-52 -130 -52 -284q0 -155 49 -285q47 -126 134 -217q84 -89 206 -139
q119 -49 265 -49zM801 0q-155 0 -283 52t-221 148q-92 95 -143 230q-52 138 -52 301t55 301q55 137 149 231q94 95 222 147q126 52 273 52q155 0 281 -52q131 -54 221 -147q92 -95 142 -231t50 -301q0 -166 -54 -301q-54 -134 -148 -230q-95 -97 -220 -148
q-126 -52 -272 -52zM1135 590q-17 -124 -99 -203q-83 -80 -223 -80q-78 0 -144 27q-68 28 -115 79q-50 54 -76 132q-27 79 -27 184q0 113 28 191t79 132q47 50 117 77q67 26 144 26q69 0 120 -19q49 -18 89 -55q37 -34 61 -81q22 -43 35 -99l-41 -8q-14 52 -32 88
q-20 39 -52 71q-29 29 -75 46q-44 16 -105 16q-150 0 -236 -98q-87 -99 -87 -287q0 -186 86 -284q85 -97 231 -97q69 0 118 21q52 22 84 54q33 33 53 77q20 45 26 90h41z" />
    <glyph glyph-name="ordfeminine" unicode="&#xaa;" horiz-adv-x="837" 
d="M664 702v138q-97 -154 -291 -154q-129 0 -200 62t-71 174q0 74 31 124q30 47 85 75q57 28 122 40q77 14 143 15l181 8v33q0 128 -52 186q-51 57 -182 57q-110 0 -171 -35t-83 -116l-37 6q18 90 91 137t200 47q141 0 207 -62q68 -63 68 -216v-519h-41zM664 1147l-172 -8
q-70 -4 -139 -14q-65 -9 -109 -32q-48 -25 -73 -65q-26 -41 -26 -106q0 -98 60 -147q61 -50 170 -50q153 0 237 96q31 35 41 69q11 36 11 87v170z" />
    <glyph glyph-name="guillemotleft" unicode="&#xab;" horiz-adv-x="886" 
d="M82 524l301 455h47l-299 -453l299 -456h-47zM436 524l301 455h47l-299 -453l299 -456h-47z" />
    <glyph glyph-name="logicalnot" unicode="&#xac;" horiz-adv-x="1212" 
d="M127 858h917v-528h-43v487h-874v41z" />
    <glyph glyph-name="uni00AD" unicode="&#xad;" horiz-adv-x="792" 
d="M102 610h588v-41h-588v41z" />
    <glyph glyph-name="registered" unicode="&#xae;" horiz-adv-x="958" 
d="M479 643q-88 0 -161 29q-70 28 -124 83q-52 53 -82 132q-30 78 -30 174q0 95 32 174q31 77 86 132t126 83q73 29 153 29q90 0 163 -29q72 -29 125 -83t81 -132q29 -79 29 -174q0 -94 -32 -175q-31 -79 -86 -132q-56 -54 -126 -82q-73 -29 -154 -29zM647 1159
q0 -85 -82 -112l94 -185h-47l-88 176h-147v-176h-41v414h178q63 0 98 -32t35 -85zM377 1077h133q94 0 94 80t-94 80h-133v-160zM479 682q72 0 139 26q68 26 114 74q50 51 76 120q28 73 28 159q0 173 -97 276t-260 103q-74 0 -140 -26q-65 -26 -113 -75q-49 -50 -75 -119
q-28 -73 -28 -159q0 -176 97 -277q98 -102 259 -102z" />
    <glyph glyph-name="macron" unicode="&#xaf;" horiz-adv-x="776" 
d="M150 1333h475v-37h-475v37z" />
    <glyph glyph-name="degree" unicode="&#xb0;" horiz-adv-x="626" 
d="M92 1194q0 -95 64 -159q62 -62 157 -62q96 0 158 61q64 62 64 160q0 95 -64 159q-62 62 -158 62q-95 0 -157 -61q-64 -62 -64 -160zM51 1194q0 54 20 103q20 50 55 83q38 36 84 55q47 19 103 19q57 0 104 -19q46 -19 84 -55q35 -33 55 -83q19 -47 19 -103t-19 -103
q-20 -50 -55 -83q-38 -36 -84 -55q-47 -19 -104 -19q-56 0 -103 19q-46 19 -84 55q-35 33 -55 83q-20 49 -20 103z" />
    <glyph glyph-name="plusminus" unicode="&#xb1;" horiz-adv-x="1212" 
d="M150 41h913v-41h-913v41zM586 676h-436v41h436v463h43v-463h434v-41h-434v-465h-43v465z" />
    <glyph glyph-name="twosuperior" unicode="&#xb2;" 
d="M154 639l194 168q80 70 139 129q56 56 88 101q34 48 47 88t13 85q0 91 -50 144t-155 53q-57 0 -97 -15t-68 -41q-26 -25 -44 -57q-17 -30 -24 -63l-39 6q8 37 25 71q17 35 49 68q30 32 80 52q49 20 118 20q120 0 185 -66q65 -67 65 -168q0 -56 -17 -101q-19 -49 -55 -99
q-43 -58 -93 -107q-56 -55 -136 -127l-158 -137h465l-12 -41h-520v37z" />
    <glyph glyph-name="threesuperior" unicode="&#xb3;" 
d="M168 807q2 -36 16 -69q15 -34 41 -60t73 -44q46 -18 114 -18q108 0 166 50q57 50 57 147q0 100 -52 149q-53 50 -128 50h-133v39h120q79 0 128 47q48 46 48 133q0 84 -49 130t-153 46q-60 0 -100 -15q-38 -14 -66 -39q-27 -24 -42 -54q-18 -36 -24 -60l-39 6q5 25 22 65
q14 34 46 66q30 30 80 51q49 21 123 21q123 0 185 -58q63 -58 63 -157q0 -79 -37 -128q-38 -50 -97 -71q66 -16 108 -75t42 -146q0 -110 -70 -174t-198 -64q-79 0 -134 23q-56 23 -88 57q-31 32 -47 76q-14 38 -14 76h39z" />
    <glyph glyph-name="acute" unicode="&#xb4;" horiz-adv-x="776" 
d="M295 1200h-49l231 262h55z" />
    <glyph glyph-name="mu" unicode="&#xb5;" horiz-adv-x="1095" 
d="M498 -33q-121 0 -195 47q-73 46 -108 133v-548h-43v1448h43v-695q0 -167 73 -255q74 -89 234 -89q87 0 166 31q72 28 147 100q28 27 47 54q17 24 26 52q10 29 11 63q2 48 2 85v654h43v-1047h-43v188q-76 -112 -181 -166q-107 -55 -222 -55z" />
    <glyph glyph-name="paragraph" unicode="&#xb6;" horiz-adv-x="1044" 
d="M518 -285v977q-132 0 -222 32q-88 31 -140 85t-73 122q-22 72 -22 144q0 80 26 150q27 72 85 123q63 55 158 84q99 30 243 30h308v-1747h-41v1706h-281v-1706h-41z" />
    <glyph glyph-name="periodcentered" unicode="&#xb7;" horiz-adv-x="331" 
d="M143 864h43v-198h-43v198z" />
    <glyph glyph-name="cedilla" unicode="&#xb8;" horiz-adv-x="776" 
d="M225 -324q18 -3 54 -7q27 -3 61 -3q85 0 128 20q42 19 42 70q0 48 -40 70t-146 22h-29l49 152h37l-35 -117q112 -1 159 -35q46 -33 46 -94q0 -40 -16 -63t-45 -39q-28 -16 -66 -20q-43 -5 -82 -5q-68 0 -117 11v38z" />
    <glyph glyph-name="onesuperior" unicode="&#xb9;" 
d="M436 1376l-231 -119l-19 35l250 129h43v-819h-43v774z" />
    <glyph glyph-name="ordmasculine" unicode="&#xba;" horiz-adv-x="890" 
d="M442 723q152 0 238 99q86 100 86 274t-84 269t-236 95q-73 0 -130 -25q-56 -24 -101 -74q-43 -47 -67 -117q-23 -66 -23 -154q0 -173 85 -270t232 -97zM442 684q-81 0 -148 29t-114 82q-46 52 -72 128t-26 167q0 90 27 167q28 80 75 131q48 53 116 82q67 29 146 29
q171 0 267 -108t96 -295q0 -91 -26 -169q-26 -79 -73 -130q-48 -53 -116 -83t-152 -30z" />
    <glyph glyph-name="guillemotright" unicode="&#xbb;" horiz-adv-x="886" 
d="M451 524l-301 -454h-48l299 452l-299 457h48zM805 524l-301 -454h-47l299 452l-299 457h47z" />
    <glyph glyph-name="onequarter" unicode="&#xbc;" horiz-adv-x="1800" 
d="M537 0h-48l728 1415h47zM346 1372l-231 -119l-19 35l250 129h43v-819h-43v774zM1110 266l426 555h41v-547h102l-12 -41h-90v-231h-43v231h-424v33zM1534 274v480l-369 -480h369z" />
    <glyph glyph-name="onehalf" unicode="&#xbd;" horiz-adv-x="1800" 
d="M496 0h-47l727 1415h47zM346 1372l-231 -119l-19 35l250 129h43v-819h-43v774zM1114 39l195 168q80 70 139 129q56 56 88 101q32 46 46 88q13 40 13 85q0 91 -50 144t-154 53q-57 0 -98 -15q-39 -14 -67 -41q-26 -25 -44 -57q-18 -33 -25 -63l-39 6q7 34 26 71
q18 35 49 68q30 32 80 52q49 20 118 20q121 0 185 -66q64 -65 64 -168q0 -56 -17 -101q-20 -52 -54 -99q-43 -58 -93 -107q-43 -42 -137 -127l-157 -137h465l-13 -41h-520v37z" />
    <glyph glyph-name="threequarters" unicode="&#xbe;" horiz-adv-x="1800" 
d="M629 0h-47l727 1415h47zM1110 266l426 555h41v-547h102l-12 -41h-90v-231h-43v231h-424v33zM1534 274v480l-369 -480h369zM160 803q2 -36 16 -69q15 -34 41 -60t73 -44q46 -18 113 -18q108 0 166 50t58 147q0 98 -53 148q-54 51 -128 51h-133v39h121q79 0 128 47
q48 46 48 133q0 84 -49 130t-153 46q-60 0 -100 -15q-38 -14 -66 -39q-27 -24 -42 -54q-18 -36 -24 -60l-39 6q5 25 22 65q14 34 46 66q30 30 80 51q49 21 123 21q121 0 185 -59q62 -58 62 -156q0 -79 -37 -128q-39 -51 -96 -71q66 -16 108 -75t42 -146q0 -110 -70 -174
t-199 -64q-79 0 -134 23q-54 22 -87 57q-31 32 -47 76q-14 38 -14 76h39z" />
    <glyph glyph-name="questiondown" unicode="&#xbf;" horiz-adv-x="937" 
d="M514 686v-10q0 -72 -15 -124q-13 -47 -43 -98q-23 -40 -69 -89q-41 -44 -92 -95q-64 -61 -112 -140q-46 -76 -46 -185q0 -69 22 -133q21 -62 66 -107q44 -44 112 -72q64 -26 159 -26q99 0 162 28q65 29 107 75q40 44 65 104q24 57 36 114l41 -8q-11 -60 -37 -124
q-24 -60 -71 -113t-121 -86t-182 -33q-102 0 -179 30q-76 30 -126 83q-51 54 -74 121q-25 72 -25 147q0 112 47 198t121 154q61 59 85 84q43 44 66 82q30 48 43 92q15 49 15 115v16h45zM514 858h-45v189h45v-189z" />
    <glyph glyph-name="Agrave" unicode="&#xc0;" horiz-adv-x="1304" 
d="M1014 483h-725l-189 -483h-49l576 1462h51l575 -1462h-51zM305 526h692l-346 889zM467 1837h57l232 -252h-51z" />
    <glyph glyph-name="Aacute" unicode="&#xc1;" horiz-adv-x="1304" 
d="M1014 483h-725l-189 -483h-49l576 1462h51l575 -1462h-51zM305 526h692l-346 889zM600 1585h-51l231 252h58z" />
    <glyph glyph-name="Acircumflex" unicode="&#xc2;" horiz-adv-x="1304" 
d="M1014 483h-725l-189 -483h-49l576 1462h51l575 -1462h-51zM305 526h692l-346 889zM629 1837h45l225 -252h-51l-197 215l-196 -215h-52z" />
    <glyph glyph-name="Atilde" unicode="&#xc3;" horiz-adv-x="1304" 
d="M1014 483h-725l-189 -483h-49l576 1462h51l575 -1462h-51zM305 526h692l-346 889zM330 1602q0 78 46 125q47 49 120 49q50 0 89 -22q35 -19 72 -47q34 -25 70 -47t82 -22q32 0 58 13q24 12 37 31q14 20 21 43q7 22 7 47h43q0 -77 -47 -126t-121 -49q-50 0 -89 22t-73 47
q-36 26 -71 47q-38 22 -82 22q-34 0 -58 -13q-23 -13 -36 -32q-13 -20 -19 -44t-6 -44h-43z" />
    <glyph glyph-name="Adieresis" unicode="&#xc4;" horiz-adv-x="1304" 
d="M1014 483h-725l-189 -483h-49l576 1462h51l575 -1462h-51zM305 526h692l-346 889zM467 1817h45v-189h-45v189zM793 1817h45v-189h-45v189z" />
    <glyph glyph-name="Aring" unicode="&#xc5;" horiz-adv-x="1304" 
d="M1014 483h-725l-189 -483h-49l561 1425q-56 10 -94 53q-37 41 -37 117q0 87 50 131q49 43 120 43t120 -43q50 -44 50 -131q0 -76 -37 -117q-38 -43 -92 -53l561 -1425h-51zM305 526h692l-346 889zM778 1595q0 65 -36 100q-35 34 -91 34q-58 0 -92 -34q-35 -35 -35 -100
t36 -99q35 -34 91 -34q58 0 92 34q35 35 35 99z" />
    <glyph glyph-name="AE" unicode="&#xc6;" horiz-adv-x="2052" 
d="M102 0h-51l877 1462h1018v-43h-793v-643h752v-43h-752v-690h809l-14 -43h-840v547h-678zM455 590h653v829h-156z" />
    <glyph glyph-name="Ccedilla" unicode="&#xc7;" horiz-adv-x="1402" 
d="M575 -350q17 -3 56 -7q27 -3 63 -3q82 0 126 17q46 18 46 73q0 48 -45 71q-46 23 -155 23h-31l47 137q-119 10 -223 64q-101 52 -177 148q-74 94 -117 234q-42 138 -42 318q0 198 48 345t131 242q82 94 196 141q111 46 241 46q120 0 209 -37q93 -39 156 -99
q66 -63 106 -148q42 -89 62 -183l-41 -10q-22 92 -60 173q-38 80 -96 137q-60 59 -141 91q-83 33 -193 33q-127 0 -232 -45q-106 -45 -180 -136q-75 -92 -117 -227q-42 -137 -42 -319q0 -184 43 -317q45 -139 119 -226q77 -90 181 -135q105 -45 232 -45q121 0 209 39
q89 39 150 103t96 148q34 80 49 173h41q-15 -111 -55 -202q-40 -92 -110 -162q-68 -68 -164 -107t-220 -39h-18l-33 -96q63 -1 109 -11q41 -8 67 -28q25 -19 35 -42t10 -52q0 -42 -16 -67t-46 -40q-27 -14 -69 -20q-39 -6 -84 -6q-77 0 -121 10v43z" />
    <glyph glyph-name="Egrave" unicode="&#xc8;" horiz-adv-x="1173" 
d="M176 1462h891v-43h-846v-643h805v-43h-805v-690h862l-14 -43h-893v1462zM455 1837h57l231 -252h-51z" />
    <glyph glyph-name="Eacute" unicode="&#xc9;" horiz-adv-x="1173" 
d="M176 1462h891v-43h-846v-643h805v-43h-805v-690h862l-14 -43h-893v1462zM569 1585h-51l232 252h57z" />
    <glyph glyph-name="Ecircumflex" unicode="&#xca;" horiz-adv-x="1173" 
d="M176 1462h891v-43h-846v-643h805v-43h-805v-690h862l-14 -43h-893v1462zM608 1837h45l226 -252h-52l-196 215l-197 -215h-51z" />
    <glyph glyph-name="Edieresis" unicode="&#xcb;" horiz-adv-x="1173" 
d="M176 1462h891v-43h-846v-643h805v-43h-805v-690h862l-14 -43h-893v1462zM444 1817h45v-189h-45v189zM770 1817h45v-189h-45v189z" />
    <glyph glyph-name="Igrave" unicode="&#xcc;" horiz-adv-x="397" 
d="M176 1462h45v-1462h-45v1462zM-41 1837h57l232 -252h-51z" />
    <glyph glyph-name="Iacute" unicode="&#xcd;" horiz-adv-x="397" 
d="M176 1462h45v-1462h-45v1462zM203 1585h-51l231 252h57z" />
    <glyph glyph-name="Icircumflex" unicode="&#xce;" horiz-adv-x="397" 
d="M176 1462h45v-1462h-45v1462zM178 1837h45l226 -252h-52l-196 215l-197 -215h-51z" />
    <glyph glyph-name="Idieresis" unicode="&#xcf;" horiz-adv-x="397" 
d="M176 1462h45v-1462h-45v1462zM16 1817h45v-189h-45v189zM342 1817h45v-189h-45v189z" />
    <glyph glyph-name="Eth" unicode="&#xd0;" horiz-adv-x="1419" 
d="M188 733h-168v43h168v686h469q143 0 261 -44q115 -43 201 -135q84 -90 131 -228q46 -135 46 -324q0 -188 -46 -323q-47 -139 -133 -229q-87 -91 -212 -135q-126 -44 -282 -44h-435v733zM233 776h463v-43h-463v-690h392q306 0 465 172q159 173 159 512q0 349 -155 520
q-156 172 -437 172h-424v-643z" />
    <glyph glyph-name="Ntilde" unicode="&#xd1;" horiz-adv-x="1380" 
d="M176 1462h51l932 -1401v1401h45v-1462h-55l-928 1397v-1397h-45v1462zM387 1602q0 78 46 125q47 49 120 49q50 0 89 -22t73 -47q38 -28 69 -47q36 -22 82 -22q33 0 59 13q24 12 37 31q12 17 20 43q7 22 7 47h43q0 -77 -47 -126t-121 -49q-50 0 -89 22t-73 47
q-40 29 -70 47q-38 22 -83 22q-33 0 -57 -13q-23 -13 -36 -32q-15 -23 -20 -44q-6 -24 -6 -44h-43z" />
    <glyph glyph-name="Ograve" unicode="&#xd2;" horiz-adv-x="1507" 
d="M123 729q0 167 40 306q41 142 119 244q81 105 196 162q117 58 276 58q158 0 275 -59t197 -162q77 -99 119 -244q39 -136 39 -303q0 -171 -39 -307q-41 -144 -119 -245q-80 -103 -198 -162q-117 -58 -274 -58q-160 0 -277 59q-118 60 -196 163q-77 103 -118 244
q-40 139 -40 304zM170 729q0 -159 37 -291q38 -136 108 -229q73 -97 183 -152t256 -55t256 55q109 54 182 152q70 93 108 229q37 132 37 291q0 158 -37 290q-38 135 -109 230q-72 96 -182 152q-109 55 -255 55t-255 -54q-111 -55 -183 -152q-71 -96 -109 -231
q-37 -132 -37 -290zM571 1837h58l231 -252h-51z" />
    <glyph glyph-name="Oacute" unicode="&#xd3;" horiz-adv-x="1507" 
d="M123 729q0 167 40 306q41 142 119 244q81 105 196 162q117 58 276 58q158 0 275 -59t197 -162q77 -99 119 -244q39 -136 39 -303q0 -171 -39 -307q-41 -144 -119 -245q-80 -103 -198 -162q-117 -58 -274 -58q-160 0 -277 59q-118 60 -196 163q-77 103 -118 244
q-40 139 -40 304zM170 729q0 -159 37 -291q38 -136 108 -229q73 -97 183 -152t256 -55t256 55q109 54 182 152q70 93 108 229q37 132 37 291q0 158 -37 290q-38 135 -109 230q-72 96 -182 152q-109 55 -255 55t-255 -54q-111 -55 -183 -152q-71 -96 -109 -231
q-37 -132 -37 -290zM698 1585h-51l232 252h57z" />
    <glyph glyph-name="Ocircumflex" unicode="&#xd4;" horiz-adv-x="1507" 
d="M123 729q0 167 40 306q41 142 119 244q81 105 196 162q117 58 276 58q158 0 275 -59t197 -162q77 -99 119 -244q39 -136 39 -303q0 -171 -39 -307q-41 -144 -119 -245q-80 -103 -198 -162q-117 -58 -274 -58q-160 0 -277 59q-118 60 -196 163q-77 103 -118 244
q-40 139 -40 304zM170 729q0 -159 37 -291q38 -136 108 -229q73 -97 183 -152t256 -55t256 55q109 54 182 152q70 93 108 229q37 132 37 291q0 158 -37 290q-38 135 -109 230q-72 96 -182 152q-109 55 -255 55t-255 -54q-111 -55 -183 -152q-71 -96 -109 -231
q-37 -132 -37 -290zM731 1837h45l225 -252h-51l-196 215l-197 -215h-51z" />
    <glyph glyph-name="Otilde" unicode="&#xd5;" horiz-adv-x="1507" 
d="M123 729q0 167 40 306q41 142 119 244q81 105 196 162q117 58 276 58q158 0 275 -59t197 -162q77 -99 119 -244q39 -136 39 -303q0 -171 -39 -307q-41 -144 -119 -245q-80 -103 -198 -162q-117 -58 -274 -58q-160 0 -277 59q-118 60 -196 163q-77 103 -118 244
q-40 139 -40 304zM170 729q0 -159 37 -291q38 -136 108 -229q73 -97 183 -152t256 -55t256 55q109 54 182 152q70 93 108 229q37 132 37 291q0 158 -37 290q-38 135 -109 230q-72 96 -182 152q-109 55 -255 55t-255 -54q-111 -55 -183 -152q-71 -96 -109 -231
q-37 -132 -37 -290zM432 1602q0 78 46 125q47 49 120 49q50 0 89 -22t73 -47q38 -28 69 -47q36 -22 82 -22q33 0 59 13q24 12 37 31q12 17 20 43q7 22 7 47h43q0 -77 -47 -126t-121 -49q-50 0 -89 22q-35 19 -72 47q-36 26 -71 47q-38 22 -83 22q-33 0 -57 -13
q-23 -13 -36 -32q-15 -23 -20 -44q-6 -24 -6 -44h-43z" />
    <glyph glyph-name="Odieresis" unicode="&#xd6;" horiz-adv-x="1507" 
d="M123 729q0 167 40 306q41 142 119 244q81 105 196 162q117 58 276 58q158 0 275 -59t197 -162q77 -99 119 -244q39 -136 39 -303q0 -171 -39 -307q-41 -144 -119 -245q-80 -103 -198 -162q-117 -58 -274 -58q-160 0 -277 59q-118 60 -196 163q-77 103 -118 244
q-40 139 -40 304zM170 729q0 -159 37 -291q38 -136 108 -229q73 -97 183 -152t256 -55t256 55q109 54 182 152q70 93 108 229q37 132 37 291q0 158 -37 290q-38 135 -109 230q-72 96 -182 152q-109 55 -255 55t-255 -54q-111 -55 -183 -152q-71 -96 -109 -231
q-37 -132 -37 -290zM569 1817h45v-189h-45v189zM895 1817h45v-189h-45v189z" />
    <glyph glyph-name="multiply" unicode="&#xd7;" horiz-adv-x="1212" 
d="M606 666l-364 -365l-29 29l365 364l-373 375l28 29l373 -375l373 373l29 -29l-373 -373l364 -362l-28 -29z" />
    <glyph glyph-name="Oslash" unicode="&#xd8;" horiz-adv-x="1507" 
d="M123 729q0 167 40 306q41 142 119 244q81 105 196 162q117 58 276 58q119 0 212 -34q100 -36 169 -93l104 164l35 -23l-109 -170q111 -105 165 -262q54 -158 54 -350q0 -171 -39 -307q-41 -144 -119 -245q-80 -103 -198 -162q-117 -58 -274 -58q-120 0 -215 34
q-99 36 -170 95l-103 -162l-35 23l107 168q-110 110 -162 264q-53 157 -53 348zM1337 731q0 181 -48 329q-48 149 -146 247l-748 -1178q66 -59 158 -91q91 -32 201 -32q146 0 255 54q110 54 182 152q72 97 109 230q37 132 37 289zM170 731q0 -181 48 -329q47 -146 144 -246
l748 1177q-66 59 -157 91q-90 32 -199 32q-146 0 -255 -55q-111 -56 -183 -152q-71 -95 -109 -229q-37 -132 -37 -289z" />
    <glyph glyph-name="Ugrave" unicode="&#xd9;" horiz-adv-x="1351" 
d="M676 6q465 0 465 555v901h45v-895q0 -305 -130 -454q-130 -150 -380 -150q-254 0 -382 150q-128 151 -128 454v895h45v-901q0 -555 465 -555zM483 1837h58l231 -252h-51z" />
    <glyph glyph-name="Uacute" unicode="&#xda;" horiz-adv-x="1351" 
d="M676 6q465 0 465 555v901h45v-895q0 -305 -130 -454q-130 -150 -380 -150q-254 0 -382 150q-128 151 -128 454v895h45v-901q0 -555 465 -555zM631 1585h-51l231 252h57z" />
    <glyph glyph-name="Ucircumflex" unicode="&#xdb;" horiz-adv-x="1351" 
d="M676 6q465 0 465 555v901h45v-895q0 -305 -130 -454q-130 -150 -380 -150q-254 0 -382 150q-128 151 -128 454v895h45v-901q0 -555 465 -555zM653 1837h45l226 -252h-52l-196 215l-197 -215h-51z" />
    <glyph glyph-name="Udieresis" unicode="&#xdc;" horiz-adv-x="1351" 
d="M676 6q465 0 465 555v901h45v-895q0 -305 -130 -454q-130 -150 -380 -150q-254 0 -382 150q-128 151 -128 454v895h45v-901q0 -555 465 -555zM492 1817h45v-189h-45v189zM817 1817h45v-189h-45v189z" />
    <glyph glyph-name="Yacute" unicode="&#xdd;" horiz-adv-x="1140" 
d="M549 0v633l-498 829h51l469 -782l469 782h50l-496 -825v-637h-45zM522 1585h-51l231 252h58z" />
    <glyph glyph-name="Thorn" unicode="&#xde;" horiz-adv-x="1224" 
d="M1133 745q0 -109 -33 -189q-32 -78 -93 -131t-146 -77t-191 -24h-449v-324h-45v1462h45v-299h457q227 0 340 -104q115 -106 115 -314zM221 367h451q203 0 309 92q104 91 104 286q0 193 -102 284q-101 91 -313 91h-449v-753z" />
    <glyph glyph-name="germandbls" unicode="&#xdf;" horiz-adv-x="1130" 
d="M152 0v1075q0 189 101 296q102 108 284 108q89 0 161 -28q68 -27 116 -76q46 -48 70 -113q23 -63 23 -142q0 -56 -11 -101q-13 -52 -37 -95q-26 -46 -66 -80q-41 -35 -103 -56q54 -7 116 -32q56 -23 109 -72q49 -46 81 -119t32 -174q0 -87 -26 -165q-26 -77 -77 -133
t-133 -89q-81 -33 -190 -33q-78 0 -141 15q-77 18 -99 26l13 39q34 -13 101 -26q65 -13 126 -13q100 0 172 30t118 82q47 53 69 121q22 67 22 146q0 92 -31 165q-30 70 -86 117q-53 45 -128 68q-74 23 -158 23h-179v41h148q153 0 233 87q80 88 80 228q0 148 -85 233t-240 85
q-164 0 -253 -97t-89 -270v-1071h-43z" />
    <glyph glyph-name="agrave" unicode="&#xe0;" horiz-adv-x="1046" 
d="M858 0v197q-62 -108 -162 -165t-233 -57q-176 0 -274 83q-97 82 -97 237q0 105 43 170t115 101q69 35 165 50q89 14 195 19l248 10v51q0 91 -14 150q-15 65 -51 106q-38 44 -102 65q-65 21 -163 21q-154 0 -236 -54q-83 -54 -110 -163l-39 8q24 121 122 186q97 64 267 64
q106 0 176 -24q68 -23 113 -73q44 -48 62 -118q18 -69 18 -162v-702h-43zM858 606l-242 -10q-107 -5 -185 -17q-84 -13 -152 -44q-65 -30 -104 -90q-38 -59 -38 -150q0 -137 86 -208t240 -71q102 0 180 33q76 32 137 96q44 47 60 89q18 47 18 118v254zM373 1462h55l231 -262
h-49z" />
    <glyph glyph-name="aacute" unicode="&#xe1;" horiz-adv-x="1046" 
d="M858 0v197q-62 -108 -162 -165t-233 -57q-176 0 -274 83q-97 82 -97 237q0 105 43 170t115 101q69 35 165 50q89 14 195 19l248 10v51q0 91 -14 150q-15 65 -51 106q-38 44 -102 65q-65 21 -163 21q-154 0 -236 -54q-83 -54 -110 -163l-39 8q24 121 122 186q97 64 267 64
q106 0 176 -24q68 -23 113 -73q44 -48 62 -118q18 -69 18 -162v-702h-43zM858 606l-242 -10q-107 -5 -185 -17q-84 -13 -152 -44q-65 -30 -104 -90q-38 -59 -38 -150q0 -137 86 -208t240 -71q102 0 180 33q76 32 137 96q44 47 60 89q18 47 18 118v254zM485 1200h-49l232 262
h55z" />
    <glyph glyph-name="acircumflex" unicode="&#xe2;" horiz-adv-x="1046" 
d="M858 0v197q-62 -108 -162 -165t-233 -57q-176 0 -274 83q-97 82 -97 237q0 105 43 170t115 101q69 35 165 50q89 14 195 19l248 10v51q0 91 -14 150q-15 65 -51 106q-38 44 -102 65q-65 21 -163 21q-154 0 -236 -54q-83 -54 -110 -163l-39 8q24 121 122 186q97 64 267 64
q106 0 176 -24q68 -23 113 -73q44 -48 62 -118q18 -69 18 -162v-702h-43zM858 606l-242 -10q-107 -5 -185 -17q-84 -13 -152 -44q-65 -30 -104 -90q-38 -59 -38 -150q0 -137 86 -208t240 -71q102 0 180 33q76 32 137 96q44 47 60 89q18 47 18 118v254zM514 1462h41l227 -262
h-49l-198 225l-199 -225h-49z" />
    <glyph glyph-name="atilde" unicode="&#xe3;" horiz-adv-x="1046" 
d="M858 0v197q-62 -108 -162 -165t-233 -57q-176 0 -274 83q-97 82 -97 237q0 105 43 170t115 101q69 35 165 50q89 14 195 19l248 10v51q0 91 -14 150q-15 65 -51 106q-38 44 -102 65q-65 21 -163 21q-154 0 -236 -54q-83 -54 -110 -163l-39 8q24 121 122 186q97 64 267 64
q106 0 176 -24q68 -23 113 -73q44 -48 62 -118q18 -69 18 -162v-702h-43zM858 606l-242 -10q-107 -5 -185 -17q-84 -13 -152 -44q-65 -30 -104 -90q-38 -59 -38 -150q0 -137 86 -208t240 -71q102 0 180 33q76 32 137 96q44 47 60 89q18 47 18 118v254zM209 1241q0 77 44 126
q44 48 116 48q47 0 86 -21q36 -19 71 -48q37 -30 69 -49q36 -21 77 -21q32 0 55 12q22 12 37 33q14 19 20 44q7 28 7 46h40q0 -77 -44 -126q-43 -48 -115 -48q-46 0 -87 21q-38 19 -72 49q-30 26 -68 48q-36 21 -76 21q-36 0 -58 -13q-23 -13 -36 -33q-13 -18 -19 -44
q-6 -24 -6 -45h-41z" />
    <glyph glyph-name="adieresis" unicode="&#xe4;" horiz-adv-x="1046" 
d="M858 0v197q-62 -108 -162 -165t-233 -57q-176 0 -274 83q-97 82 -97 237q0 105 43 170t115 101q69 35 165 50q89 14 195 19l248 10v51q0 91 -14 150q-15 65 -51 106q-38 44 -102 65q-65 21 -163 21q-154 0 -236 -54q-83 -54 -110 -163l-39 8q24 121 122 186q97 64 267 64
q106 0 176 -24q68 -23 113 -73q44 -48 62 -118q18 -69 18 -162v-702h-43zM858 606l-242 -10q-107 -5 -185 -17q-84 -13 -152 -44q-65 -30 -104 -90q-38 -59 -38 -150q0 -137 86 -208t240 -71q102 0 180 33q76 32 137 96q44 47 60 89q18 47 18 118v254zM356 1462h43v-188h-43
v188zM659 1462h43v-188h-43v188z" />
    <glyph glyph-name="aring" unicode="&#xe5;" horiz-adv-x="1046" 
d="M858 0v197q-62 -108 -162 -165t-233 -57q-176 0 -274 83q-97 82 -97 237q0 105 43 170t115 101q69 35 165 50q89 14 195 19l248 10v51q0 91 -14 150q-15 65 -51 106q-38 44 -102 65q-65 21 -163 21q-154 0 -236 -54q-83 -54 -110 -163l-39 8q24 121 122 186q97 64 267 64
q106 0 176 -24q68 -23 113 -73q44 -48 62 -118q18 -69 18 -162v-702h-43zM858 606l-242 -10q-107 -5 -185 -17q-84 -13 -152 -44q-65 -30 -104 -90q-38 -59 -38 -150q0 -137 86 -208t240 -71q102 0 180 33q76 32 137 96q44 47 60 89q18 47 18 118v254zM662 1382
q0 68 -37 102t-93 34q-58 0 -93 -34q-36 -34 -36 -102q0 -67 37 -101t92 -34q59 0 94 34q36 35 36 101zM702 1382q0 -84 -48 -129t-122 -45q-73 0 -121 45q-49 46 -49 129q0 84 50 129q49 45 120 45q72 0 121 -45t49 -129z" />
    <glyph glyph-name="ae" unicode="&#xe6;" horiz-adv-x="1826" 
d="M526 1079q100 0 163 -20q67 -21 109 -62q40 -39 62 -101q20 -58 25 -140q46 159 157 241q110 82 267 82q112 0 192 -41t129 -112q50 -72 72 -169q22 -95 22 -210v-35h-833q0 -113 25 -206q26 -95 78 -161q52 -65 130 -101t183 -36q145 0 234 65q90 65 118 177h41
q-12 -55 -41 -107q-28 -50 -77 -90q-46 -37 -117 -62q-69 -24 -158 -24q-171 0 -278 88q-108 88 -148 244q-12 -101 -74 -174q-61 -69 -149 -109q-90 -41 -207 -41q-169 0 -264 84t-95 236q0 105 42 169q41 63 113 101q66 35 163 51q87 14 194 19l244 10v51q0 91 -14 150
q-15 63 -52 106q-39 45 -99 65q-63 21 -161 21q-151 0 -232 -54t-108 -163l-39 8q24 120 120 186q94 64 263 64zM848 606l-238 -10q-102 -5 -183 -16q-85 -12 -151 -45q-64 -32 -102 -90q-37 -56 -37 -150q0 -137 84 -208q85 -71 236 -71q102 0 180 32q75 31 135 97
q34 37 55 86t21 121v254zM1309 1038q-187 0 -298 -122q-113 -123 -120 -365h790q0 106 -19 194q-19 89 -64 155q-42 63 -114 101q-70 37 -175 37z" />
    <glyph glyph-name="ccedilla" unicode="&#xe7;" horiz-adv-x="1091" 
d="M385 -324q20 -3 53 -7q27 -3 62 -3q75 0 123 17q47 17 47 73q0 48 -40 70t-147 22h-28l39 125q-182 23 -286 163q-106 142 -106 378q0 134 34 237q36 109 95 178q61 72 149 111q87 39 195 39q318 0 396 -338l-39 -8q-34 145 -121 226q-85 79 -238 79q-109 0 -188 -39
q-81 -40 -133 -108q-53 -70 -79 -165q-26 -96 -26 -208q0 -111 26 -206q25 -92 78 -160q54 -70 131 -106q81 -38 183 -38q165 0 262 92t121 244h41q-27 -173 -136 -275t-288 -102h-17q-4 0 -18 2l-24 -86q120 -1 163 -38q42 -36 42 -91q0 -38 -17 -63q-16 -24 -44 -39
q-28 -16 -66 -20q-43 -5 -82 -5q-68 0 -117 11v38z" />
    <glyph glyph-name="egrave" unicode="&#xe8;" horiz-adv-x="1091" 
d="M989 512h-844q0 -115 27 -208t78 -159q50 -64 131 -101q79 -36 186 -36q145 0 237 65t120 177h41q-12 -59 -42 -109q-31 -52 -78 -89t-117 -61q-69 -24 -161 -24q-225 0 -345 146q-120 145 -120 401q0 141 34 246q35 108 95 177t148 106q85 36 190 36q112 0 194 -41
q81 -41 131 -113q51 -74 73 -169q22 -94 22 -209v-35zM569 1038q-191 0 -303 -124q-114 -126 -121 -363h801q0 106 -19 192q-19 87 -64 155q-42 64 -118 103q-73 37 -176 37zM383 1462h55l232 -262h-49z" />
    <glyph glyph-name="eacute" unicode="&#xe9;" horiz-adv-x="1091" 
d="M989 512h-844q0 -115 27 -208t78 -159q50 -64 131 -101q79 -36 186 -36q145 0 237 65t120 177h41q-12 -59 -42 -109q-31 -52 -78 -89t-117 -61q-69 -24 -161 -24q-225 0 -345 146q-120 145 -120 401q0 141 34 246q35 108 95 177t148 106q85 36 190 36q112 0 194 -41
q81 -41 131 -113q51 -74 73 -169q22 -94 22 -209v-35zM569 1038q-191 0 -303 -124q-114 -126 -121 -363h801q0 106 -19 192q-19 87 -64 155q-42 64 -118 103q-73 37 -176 37zM518 1200h-49l231 262h56z" />
    <glyph glyph-name="ecircumflex" unicode="&#xea;" horiz-adv-x="1091" 
d="M989 512h-844q0 -115 27 -208t78 -159q50 -64 131 -101q79 -36 186 -36q145 0 237 65t120 177h41q-12 -59 -42 -109q-31 -52 -78 -89t-117 -61q-69 -24 -161 -24q-225 0 -345 146q-120 145 -120 401q0 141 34 246q35 108 95 177t148 106q85 36 190 36q112 0 194 -41
q81 -41 131 -113q51 -74 73 -169q22 -94 22 -209v-35zM569 1038q-191 0 -303 -124q-114 -126 -121 -363h801q0 106 -19 192q-19 87 -64 155q-42 64 -118 103q-73 37 -176 37zM532 1462h41l228 -262h-49l-199 225l-199 -225h-49z" />
    <glyph glyph-name="edieresis" unicode="&#xeb;" horiz-adv-x="1091" 
d="M989 512h-844q0 -115 27 -208t78 -159q50 -64 131 -101q79 -36 186 -36q145 0 237 65t120 177h41q-12 -59 -42 -109q-31 -52 -78 -89t-117 -61q-69 -24 -161 -24q-225 0 -345 146q-120 145 -120 401q0 141 34 246q35 108 95 177t148 106q85 36 190 36q112 0 194 -41
q81 -41 131 -113q51 -74 73 -169q22 -94 22 -209v-35zM569 1038q-191 0 -303 -124q-114 -126 -121 -363h801q0 106 -19 192q-19 87 -64 155q-42 64 -118 103q-73 37 -176 37zM377 1462h43v-188h-43v188zM680 1462h43v-188h-43v188z" />
    <glyph glyph-name="igrave" unicode="&#xec;" horiz-adv-x="346" 
d="M152 1047h43v-1047h-43v1047zM-59 1462h55l231 -262h-49z" />
    <glyph glyph-name="iacute" unicode="&#xed;" horiz-adv-x="346" 
d="M152 1047h43v-1047h-43v1047zM186 1200h-49l232 262h55z" />
    <glyph glyph-name="icircumflex" unicode="&#xee;" horiz-adv-x="346" 
d="M152 1047h43v-1047h-43v1047zM162 1462h41l227 -262h-49l-199 225l-198 -225h-50z" />
    <glyph glyph-name="idieresis" unicode="&#xef;" horiz-adv-x="346" 
d="M152 1047h43v-1047h-43v1047zM10 1462h43v-188h-43v188zM313 1462h43v-188h-43v188z" />
    <glyph glyph-name="eth" unicode="&#xf0;" horiz-adv-x="1157" 
d="M410 1208l151 150q-70 30 -145 48q-68 16 -156 21l2 41q188 -12 332 -77l141 139l29 -29l-131 -129q211 -112 316 -337q106 -227 106 -533q0 -110 -30 -209q-30 -98 -88 -170q-59 -73 -146 -114q-89 -42 -207 -42q-119 0 -209 39q-92 40 -151 108q-61 71 -91 164
q-31 98 -31 207q0 124 36 221q34 93 100 162q63 66 152 101q90 35 196 35q127 0 231 -58q103 -57 170 -180q-44 225 -144 362q-101 139 -243 211l-162 -159zM1010 514q0 88 -28 174q-26 80 -83 143t-135 97q-81 35 -184 35q-105 0 -186 -36q-79 -35 -136 -101t-83 -151
q-28 -90 -28 -188q0 -91 24 -176t75 -153q52 -69 132 -109q82 -41 195 -41q115 0 196 40q84 41 136 105q54 67 79 148q26 86 26 174v39z" />
    <glyph glyph-name="ntilde" unicode="&#xf1;" horiz-adv-x="1110" 
d="M152 1047h43v-187q80 115 188 166q112 53 229 53q176 0 265 -99q88 -98 88 -280v-700h-43v692q0 169 -76 257q-77 89 -238 89q-92 0 -173 -30q-76 -28 -152 -101q-32 -31 -49 -53q-16 -21 -26 -52q-10 -29 -11 -64q-2 -48 -2 -85v-653h-43v1047zM246 1241q0 77 44 126
q44 48 115 48q48 0 87 -21q36 -19 71 -48q37 -30 69 -49q36 -21 77 -21q33 0 55 12t37 33q14 19 20 44q6 24 6 46h41q0 -77 -44 -126q-44 -48 -115 -48q-47 0 -87 21q-38 19 -72 49q-30 26 -68 48q-36 21 -76 21q-36 0 -58 -13t-36 -33q-13 -18 -19 -44q-6 -24 -6 -45h-41z
" />
    <glyph glyph-name="ograve" unicode="&#xf2;" horiz-adv-x="1157" 
d="M147 520q0 -102 24 -195q24 -94 75 -164q52 -72 133 -112q84 -41 199 -41q116 0 199 42t134 113t75 165t24 196q0 103 -24 196q-24 94 -75 164q-50 69 -134 112q-83 42 -199 42t-199 -42t-133 -113q-51 -72 -75 -166q-24 -95 -24 -197zM580 1079q127 0 217 -45
q91 -45 147 -121q57 -77 84 -176q27 -101 27 -211q0 -112 -27 -214q-27 -101 -84 -178q-58 -78 -148 -122q-92 -45 -218 -45q-128 0 -218 45q-91 45 -147 121q-57 77 -84 176q-27 101 -27 213q0 110 27 212q27 101 84 178q58 78 148 122q91 45 219 45zM377 1462h55l232 -262
h-50z" />
    <glyph glyph-name="oacute" unicode="&#xf3;" horiz-adv-x="1157" 
d="M147 520q0 -102 24 -195q24 -94 75 -164q52 -72 133 -112q84 -41 199 -41q116 0 199 42t134 113t75 165t24 196q0 103 -24 196q-24 94 -75 164q-50 69 -134 112q-83 42 -199 42t-199 -42t-133 -113q-51 -72 -75 -166q-24 -95 -24 -197zM580 1079q127 0 217 -45
q91 -45 147 -121q57 -77 84 -176q27 -101 27 -211q0 -112 -27 -214q-27 -101 -84 -178q-58 -78 -148 -122q-92 -45 -218 -45q-128 0 -218 45q-91 45 -147 121q-57 77 -84 176q-27 101 -27 213q0 110 27 212q27 101 84 178q58 78 148 122q91 45 219 45zM543 1200h-49l231 262
h55z" />
    <glyph glyph-name="ocircumflex" unicode="&#xf4;" horiz-adv-x="1157" 
d="M147 520q0 -102 24 -195q24 -94 75 -164q52 -72 133 -112q84 -41 199 -41q116 0 199 42t134 113t75 165t24 196q0 103 -24 196q-24 94 -75 164q-50 69 -134 112q-83 42 -199 42t-199 -42t-133 -113q-51 -72 -75 -166q-24 -95 -24 -197zM580 1079q127 0 217 -45
q91 -45 147 -121q57 -77 84 -176q27 -101 27 -211q0 -112 -27 -214q-27 -101 -84 -178q-58 -78 -148 -122q-92 -45 -218 -45q-128 0 -218 45q-91 45 -147 121q-57 77 -84 176q-27 101 -27 213q0 110 27 212q27 101 84 178q58 78 148 122q91 45 219 45zM557 1462h41l227 -262
h-49l-198 225l-199 -225h-49z" />
    <glyph glyph-name="otilde" unicode="&#xf5;" horiz-adv-x="1157" 
d="M147 520q0 -102 24 -195q24 -94 75 -164q52 -72 133 -112q84 -41 199 -41q116 0 199 42t134 113t75 165t24 196q0 103 -24 196q-24 94 -75 164q-50 69 -134 112q-83 42 -199 42t-199 -42t-133 -113q-51 -72 -75 -166q-24 -95 -24 -197zM580 1079q127 0 217 -45
q91 -45 147 -121q57 -77 84 -176q27 -101 27 -211q0 -112 -27 -214q-27 -101 -84 -178q-58 -78 -148 -122q-92 -45 -218 -45q-128 0 -218 45q-91 45 -147 121q-57 77 -84 176q-27 101 -27 213q0 110 27 212q27 101 84 178q58 78 148 122q91 45 219 45zM266 1241q0 77 44 126
q44 48 116 48q47 0 86 -21t72 -48q40 -33 68 -49q36 -21 77 -21q33 0 55 12t37 33q15 22 21 44q6 24 6 46h41q0 -77 -44 -126q-43 -48 -116 -48q-47 0 -87 21q-38 19 -72 49q-33 28 -67 48q-36 21 -77 21q-35 0 -57 -13q-23 -13 -36 -33q-14 -20 -20 -44t-6 -45h-41z" />
    <glyph glyph-name="odieresis" unicode="&#xf6;" horiz-adv-x="1157" 
d="M147 520q0 -102 24 -195q24 -94 75 -164q52 -72 133 -112q84 -41 199 -41q116 0 199 42t134 113t75 165t24 196q0 103 -24 196q-24 94 -75 164q-50 69 -134 112q-83 42 -199 42t-199 -42t-133 -113q-51 -72 -75 -166q-24 -95 -24 -197zM580 1079q127 0 217 -45
q91 -45 147 -121q57 -77 84 -176q27 -101 27 -211q0 -112 -27 -214q-27 -101 -84 -178q-58 -78 -148 -122q-92 -45 -218 -45q-128 0 -218 45q-91 45 -147 121q-57 77 -84 176q-27 101 -27 213q0 110 27 212q27 101 84 178q58 78 148 122q91 45 219 45zM406 1462h43v-188h-43
v188zM709 1462h43v-188h-43v188z" />
    <glyph glyph-name="divide" unicode="&#xf7;" horiz-adv-x="1212" 
d="M170 717h872v-41h-872v41zM584 1163h45v-178h-45v178zM584 410h45v-179h-45v179z" />
    <glyph glyph-name="oslash" unicode="&#xf8;" horiz-adv-x="1157" 
d="M580 1079q91 0 163 -24q70 -23 127 -68l93 139l32 -22l-96 -143q81 -79 118 -192q38 -116 38 -243q0 -112 -27 -214q-27 -101 -84 -178q-58 -78 -148 -122q-92 -45 -218 -45q-86 0 -158 22t-123 60l-86 -131l-33 23l88 135q-87 79 -125 194q-39 117 -39 252q0 110 27 212
q27 101 84 178q58 78 148 122q91 45 219 45zM147 520q0 -122 33 -230q33 -107 109 -179l557 841q-51 42 -116 64t-152 22q-116 0 -199 -42t-133 -113q-51 -72 -75 -166q-24 -95 -24 -197zM1010 524q0 118 -32 225q-31 104 -101 177l-558 -842q48 -33 113 -55q63 -21 146 -21
q116 0 199 42t134 113t75 165t24 196z" />
    <glyph glyph-name="ugrave" unicode="&#xf9;" horiz-adv-x="1089" 
d="M938 0h-43v188q-77 -113 -183 -166q-110 -55 -225 -55q-174 0 -258 101q-84 100 -84 278v701h43v-693q0 -168 74 -257t232 -89q89 0 168 31q72 28 147 100q28 27 47 54q17 24 26 52q10 29 11 63q2 48 2 85v654h43v-1047zM336 1462h55l232 -262h-50z" />
    <glyph glyph-name="uacute" unicode="&#xfa;" horiz-adv-x="1089" 
d="M938 0h-43v188q-77 -113 -183 -166q-110 -55 -225 -55q-174 0 -258 101q-84 100 -84 278v701h43v-693q0 -168 74 -257t232 -89q89 0 168 31q72 28 147 100q28 27 47 54q17 24 26 52q10 29 11 63q2 48 2 85v654h43v-1047zM514 1200h-49l231 262h56z" />
    <glyph glyph-name="ucircumflex" unicode="&#xfb;" horiz-adv-x="1089" 
d="M938 0h-43v188q-77 -113 -183 -166q-110 -55 -225 -55q-174 0 -258 101q-84 100 -84 278v701h43v-693q0 -168 74 -257t232 -89q89 0 168 31q72 28 147 100q28 27 47 54q17 24 26 52q10 29 11 63q2 48 2 85v654h43v-1047zM524 1462h41l228 -262h-50l-198 225l-199 -225
h-49z" />
    <glyph glyph-name="udieresis" unicode="&#xfc;" horiz-adv-x="1089" 
d="M938 0h-43v188q-77 -113 -183 -166q-110 -55 -225 -55q-174 0 -258 101q-84 100 -84 278v701h43v-693q0 -168 74 -257t232 -89q89 0 168 31q72 28 147 100q28 27 47 54q17 24 26 52q10 29 11 63q2 48 2 85v654h43v-1047zM369 1462h43v-188h-43v188zM672 1462h43v-188h-43
v188z" />
    <glyph glyph-name="yacute" unicode="&#xfd;" horiz-adv-x="956" 
d="M66 1047l434 -986l393 986h43l-494 -1235q-39 -97 -91 -153t-148 -56q-32 0 -65 5q-29 4 -58 15l10 37q28 -9 53 -13q33 -5 60 -5q66 0 112 40q49 43 91 144l75 184l-461 1037h46zM426 1200h-49l231 262h56z" />
    <glyph glyph-name="thorn" unicode="&#xfe;" horiz-adv-x="1161" 
d="M195 1462v-657q46 122 150 199q101 75 261 75q114 0 199 -42t142 -115t84 -176q28 -106 28 -222q0 -138 -35 -245t-97 -175q-63 -69 -148 -103q-84 -34 -185 -34q-139 0 -246 65q-106 64 -153 195v-624h-43v1859h43zM193 469q0 -40 5 -93q4 -48 18 -96q15 -52 37 -94
q25 -47 60 -82q47 -47 121 -71q77 -25 160 -25q194 0 307 132q113 133 113 384q0 116 -27 211t-78 162q-50 66 -127 104q-75 37 -176 37q-179 0 -284 -104q-70 -70 -100 -158q-29 -86 -29 -192v-115z" />
    <glyph glyph-name="ydieresis" unicode="&#xff;" horiz-adv-x="956" 
d="M66 1047l434 -986l393 986h43l-494 -1235q-39 -97 -91 -153t-148 -56q-32 0 -65 5q-29 4 -58 15l10 37q28 -9 53 -13q33 -5 60 -5q66 0 112 40q49 43 91 144l75 184l-461 1037h46zM313 1462h43v-188h-43v188zM616 1462h43v-188h-43v188z" />
    <glyph glyph-name="Amacron" unicode="&#x100;" horiz-adv-x="1304" 
d="M1014 483h-725l-189 -483h-49l576 1462h51l575 -1462h-51zM305 526h692l-346 889zM377 1673h549v-39h-549v39z" />
    <glyph glyph-name="amacron" unicode="&#x101;" horiz-adv-x="1046" 
d="M858 0v197q-62 -108 -162 -165t-233 -57q-176 0 -274 83q-97 82 -97 237q0 105 43 170t115 101q69 35 165 50q89 14 195 19l248 10v51q0 91 -14 150q-15 65 -51 106q-38 44 -102 65q-65 21 -163 21q-154 0 -236 -54q-83 -54 -110 -163l-39 8q24 121 122 186q97 64 267 64
q106 0 176 -24q68 -23 113 -73q44 -48 62 -118q18 -69 18 -162v-702h-43zM858 606l-242 -10q-107 -5 -185 -17q-84 -13 -152 -44q-65 -30 -104 -90q-38 -59 -38 -150q0 -137 86 -208t240 -71q102 0 180 33q76 32 137 96q44 47 60 89q18 47 18 118v254zM297 1333h475v-37
h-475v37z" />
    <glyph glyph-name="Abreve" unicode="&#x102;" horiz-adv-x="1304" 
d="M1014 483h-725l-189 -483h-49l576 1462h51l575 -1462h-51zM305 526h692l-346 889zM467 1806q0 -86 48 -133q49 -47 136 -47q93 0 140 47t47 133h43q0 -104 -60 -162q-61 -59 -170 -59q-107 0 -168 59q-59 58 -59 162h43z" />
    <glyph glyph-name="abreve" unicode="&#x103;" horiz-adv-x="1046" 
d="M858 0v197q-62 -108 -162 -165t-233 -57q-176 0 -274 83q-97 82 -97 237q0 105 43 170t115 101q69 35 165 50q89 14 195 19l248 10v51q0 91 -14 150q-15 65 -51 106q-38 44 -102 65q-65 21 -163 21q-154 0 -236 -54q-83 -54 -110 -163l-39 8q24 121 122 186q97 64 267 64
q106 0 176 -24q68 -23 113 -73q44 -48 62 -118q18 -69 18 -162v-702h-43zM858 606l-242 -10q-107 -5 -185 -17q-84 -13 -152 -44q-65 -30 -104 -90q-38 -59 -38 -150q0 -137 86 -208t240 -71q102 0 180 33q76 32 137 96q44 47 60 89q18 47 18 118v254zM348 1450
q0 -89 47 -141t140 -52t141 51q47 50 47 142h41q0 -110 -59 -170q-60 -61 -170 -61q-107 0 -167 61q-61 63 -61 170h41z" />
    <glyph glyph-name="Aogonek" unicode="&#x104;" horiz-adv-x="1304" 
d="M1014 483h-725l-189 -483h-49l576 1462h51l575 -1462q-65 -50 -101 -100t-36 -103q0 -52 30 -76t83 -24q19 0 29 1q17 2 26 3v-41l-24 -3q-8 -1 -33 -1q-73 0 -113 34q-41 35 -41 101q0 53 29 106q27 50 98 107zM305 526h692l-346 889z" />
    <glyph glyph-name="aogonek" unicode="&#x105;" horiz-adv-x="1046" 
d="M934 -330q-13 -4 -28 -4h-27q-59 0 -106 29q-46 28 -46 102q0 53 30 106q30 52 101 107v187q-62 -108 -162 -165t-233 -57q-181 0 -276 84t-95 236q0 105 43 170t115 101q69 35 165 50q89 14 195 19l248 10v51q0 91 -14 150q-15 65 -51 106q-38 44 -102 65
q-65 21 -163 21q-151 0 -235 -54t-111 -163l-39 8q24 121 122 186q97 64 267 64q106 0 176 -24q68 -23 113 -73q44 -48 62 -118q18 -69 18 -162v-702q-63 -47 -99 -96q-34 -46 -34 -101t33 -76q35 -22 80 -22h25q15 0 28 4v-39zM858 606l-242 -10q-107 -5 -185 -17
q-84 -13 -152 -44q-65 -29 -104 -89q-38 -58 -38 -151q0 -135 84 -207t242 -72q102 0 180 33q76 32 137 96q42 47 60 91q18 45 18 116v254z" />
    <glyph glyph-name="Cacute" unicode="&#x106;" horiz-adv-x="1402" 
d="M1290 469q-15 -111 -55 -202q-40 -92 -110 -162q-68 -68 -164 -107t-220 -39q-133 0 -245 48t-196 144t-130 239q-47 146 -47 335q0 198 48 345t131 242q82 94 196 141q111 46 241 46q119 0 209 -36q91 -36 155 -99q63 -62 106 -149t63 -183l-41 -10q-22 92 -60 173
q-38 80 -96 137q-60 59 -141 91q-83 33 -193 33q-126 0 -231 -45q-103 -44 -180 -136q-76 -91 -118 -227q-42 -137 -42 -319q0 -184 43 -317q45 -139 119 -226q77 -90 181 -135q105 -45 232 -45q119 0 209 38q89 38 150 103q61 66 96 149q34 80 49 173h41zM682 1585h-51
l231 252h58z" />
    <glyph glyph-name="cacute" unicode="&#x107;" horiz-adv-x="1091" 
d="M989 344q-27 -176 -136 -276q-110 -101 -288 -101q-103 0 -189 36q-85 36 -146 106q-59 68 -94 171q-34 101 -34 234q0 132 33 237q34 108 94 178q61 72 150 111q88 39 196 39q318 0 396 -338l-39 -8q-33 146 -120 226q-86 79 -239 79q-107 0 -186 -39q-81 -40 -133 -108
q-53 -69 -80 -165q-27 -94 -27 -208t27 -208t78 -160q52 -67 130 -104q81 -38 183 -38q161 0 259 90q97 89 124 246h41zM520 1200h-49l231 262h56z" />
    <glyph glyph-name="Ccircumflex" unicode="&#x108;" horiz-adv-x="1402" 
d="M1290 469q-15 -111 -55 -202q-40 -92 -110 -162q-68 -68 -164 -107t-220 -39q-133 0 -245 48t-196 144t-130 239q-47 146 -47 335q0 198 48 345t131 242q82 94 196 141q111 46 241 46q119 0 209 -36q91 -36 155 -99q63 -62 106 -149t63 -183l-41 -10q-22 92 -60 173
q-38 80 -96 137q-60 59 -141 91q-83 33 -193 33q-126 0 -231 -45q-103 -44 -180 -136q-76 -91 -118 -227q-42 -137 -42 -319q0 -184 43 -317q45 -139 119 -226q77 -90 181 -135q105 -45 232 -45q119 0 209 38q89 38 150 103q61 66 96 149q34 80 49 173h41zM719 1837h45
l225 -252h-51l-197 215l-196 -215h-51z" />
    <glyph glyph-name="ccircumflex" unicode="&#x109;" horiz-adv-x="1091" 
d="M989 344q-27 -176 -136 -276q-110 -101 -288 -101q-103 0 -189 36q-85 36 -146 106q-59 68 -94 171q-34 101 -34 234q0 132 33 237q34 108 94 178q61 72 150 111q88 39 196 39q318 0 396 -338l-39 -8q-33 146 -120 226q-86 79 -239 79q-107 0 -186 -39q-81 -40 -133 -108
q-53 -69 -80 -165q-27 -94 -27 -208t27 -208t78 -160q52 -67 130 -104q81 -38 183 -38q161 0 259 90q97 89 124 246h41zM547 1462h41l227 -262h-49l-199 225l-198 -225h-50z" />
    <glyph glyph-name="Cdotaccent" unicode="&#x10a;" horiz-adv-x="1402" 
d="M1290 469q-15 -111 -55 -202q-40 -92 -110 -162q-68 -68 -164 -107t-220 -39q-133 0 -245 48t-196 144t-130 239q-47 146 -47 335q0 198 48 345t131 242q82 94 196 141q111 46 241 46q119 0 209 -36q91 -36 155 -99q63 -62 106 -149t63 -183l-41 -10q-22 92 -60 173
q-38 80 -96 137q-60 59 -141 91q-83 33 -193 33q-126 0 -231 -45q-103 -44 -180 -136q-76 -91 -118 -227q-42 -137 -42 -319q0 -184 43 -317q45 -139 119 -226q77 -90 181 -135q105 -45 232 -45q119 0 209 38q89 38 150 103q61 66 96 149q34 80 49 173h41zM719 1812h45v-188
h-45v188z" />
    <glyph glyph-name="cdotaccent" unicode="&#x10b;" horiz-adv-x="1091" 
d="M989 344q-27 -176 -136 -276q-110 -101 -288 -101q-103 0 -189 36q-85 36 -146 106q-59 68 -94 171q-34 101 -34 234q0 132 33 237q34 108 94 178q61 72 150 111q88 39 196 39q318 0 396 -338l-39 -8q-33 146 -120 226q-86 79 -239 79q-107 0 -186 -39q-81 -40 -133 -108
q-53 -69 -80 -165q-27 -94 -27 -208t27 -208t78 -160q52 -67 130 -104q81 -38 183 -38q161 0 259 90q97 89 124 246h41zM547 1462h43v-188h-43v188z" />
    <glyph glyph-name="Ccaron" unicode="&#x10c;" horiz-adv-x="1402" 
d="M1290 469q-15 -111 -55 -202q-40 -92 -110 -162q-68 -68 -164 -107t-220 -39q-133 0 -245 48t-196 144t-130 239q-47 146 -47 335q0 198 48 345t131 242q82 94 196 141q111 46 241 46q119 0 209 -36q91 -36 155 -99q63 -62 106 -149t63 -183l-41 -10q-22 92 -60 173
q-38 80 -96 137q-60 59 -141 91q-83 33 -193 33q-126 0 -231 -45q-103 -44 -180 -136q-76 -91 -118 -227q-42 -137 -42 -319q0 -184 43 -317q45 -139 119 -226q77 -90 181 -135q105 -45 232 -45q119 0 209 38q89 38 150 103q61 66 96 149q34 80 49 173h41zM764 1585h-45
l-225 252h51l196 -215l197 215h51z" />
    <glyph glyph-name="ccaron" unicode="&#x10d;" horiz-adv-x="1091" 
d="M989 344q-27 -176 -136 -276q-110 -101 -288 -101q-103 0 -189 36q-85 36 -146 106q-59 68 -94 171q-34 101 -34 234q0 132 33 237q34 108 94 178q61 72 150 111q88 39 196 39q318 0 396 -338l-39 -8q-33 146 -120 226q-86 79 -239 79q-107 0 -186 -39q-81 -40 -133 -108
q-53 -69 -80 -165q-27 -94 -27 -208t27 -208t78 -160q52 -67 130 -104q81 -38 183 -38q161 0 259 90q97 89 124 246h41zM588 1200h-41l-228 262h50l198 -227l199 227h49z" />
    <glyph glyph-name="Dcaron" unicode="&#x10e;" horiz-adv-x="1406" 
d="M176 1462h469q141 0 261 -44q117 -43 203 -135q85 -91 130 -228t45 -324q0 -188 -46 -323q-47 -139 -133 -229q-87 -91 -212 -135q-126 -44 -283 -44h-434v1462zM221 43h391q307 0 466 173t159 511q0 339 -154 516q-153 176 -438 176h-424v-1376zM670 1585h-45l-226 252
h52l196 -215l197 215h51z" />
    <glyph glyph-name="dcaron" unicode="&#x10f;" horiz-adv-x="1161" 
d="M967 0v242q-50 -125 -153 -200q-104 -75 -259 -75q-115 0 -200 42q-82 41 -141 116q-57 74 -84 175q-28 106 -28 222q0 135 35 242q35 105 96 174q61 68 148 105q86 36 188 36q137 0 242 -62q107 -63 156 -198v643h43v-1462h-43zM969 578q0 40 -5 93q-4 38 -18 96
q-11 44 -37 93q-24 45 -61 82q-48 48 -121 72q-74 24 -158 24q-197 0 -309 -135q-113 -136 -113 -381q0 -116 27 -211q26 -92 77 -161q49 -67 127 -105q75 -37 177 -37q179 0 285 105q69 69 99 157t30 193v115zM1194 1462h41l-57 -315h-37z" />
    <glyph glyph-name="Dcroat" unicode="&#x110;" horiz-adv-x="1419" 
d="M188 733h-168v43h168v686h469q142 0 262 -44q116 -43 201 -135q83 -91 130 -228q46 -135 46 -324q0 -188 -46 -323q-47 -139 -133 -229q-87 -91 -212 -135q-126 -44 -282 -44h-435v733zM233 776h463v-43h-463v-690h392q306 0 465 170q159 169 159 514q0 351 -155 521
q-156 171 -437 171h-424v-643z" />
    <glyph glyph-name="dcroat" unicode="&#x111;" horiz-adv-x="1181" 
d="M967 0v242q-46 -122 -152 -199q-104 -76 -260 -76q-113 0 -197 40q-86 41 -143 113q-58 73 -85 172q-28 103 -28 216q0 137 37 238t101 168t150 101t188 34q135 0 237 -63q103 -63 152 -198v455h-377v39h377v180h43v-180h149v-39h-149v-1243h-43zM969 547q0 40 -5 93
q-4 38 -18 96q-11 44 -37 93q-24 45 -61 82q-97 97 -270 97q-95 0 -176 -32q-78 -31 -135 -94q-56 -62 -88 -156t-32 -218q0 -114 27 -205q27 -92 78 -158q50 -65 127 -101t176 -36q179 0 285 105q69 67 99 156q30 88 30 194v84z" />
    <glyph glyph-name="Emacron" unicode="&#x112;" horiz-adv-x="1173" 
d="M176 1462h891v-43h-846v-643h805v-43h-805v-690h862l-14 -43h-893v1462zM354 1673h549v-39h-549v39z" />
    <glyph glyph-name="emacron" unicode="&#x113;" horiz-adv-x="1091" 
d="M989 512h-844q0 -115 27 -208t78 -159q50 -64 131 -101q79 -36 186 -36q145 0 237 65t120 177h41q-12 -59 -42 -109q-31 -52 -78 -89t-117 -61q-69 -24 -161 -24q-225 0 -345 146q-120 145 -120 401q0 141 34 246q35 108 95 177t148 106q85 36 190 36q112 0 194 -41
q81 -41 131 -113q51 -74 73 -169q22 -94 22 -209v-35zM569 1038q-191 0 -303 -124q-114 -126 -121 -363h801q0 106 -19 192q-19 87 -64 155q-42 64 -118 103q-73 37 -176 37zM324 1333h475v-37h-475v37z" />
    <glyph glyph-name="Ebreve" unicode="&#x114;" horiz-adv-x="1173" 
d="M176 1462h891v-43h-846v-643h805v-43h-805v-690h862l-14 -43h-893v1462zM442 1806q0 -86 48 -133q49 -47 137 -47q92 0 139 47t47 133h43q0 -104 -59 -162q-61 -59 -170 -59q-107 0 -168 59q-60 58 -60 162h43z" />
    <glyph glyph-name="ebreve" unicode="&#x115;" horiz-adv-x="1091" 
d="M989 512h-844q0 -115 27 -208t78 -159q50 -64 131 -101q79 -36 186 -36q145 0 237 65t120 177h41q-12 -59 -42 -109q-31 -52 -78 -89t-117 -61q-69 -24 -161 -24q-225 0 -345 146q-120 145 -120 401q0 141 34 246q35 108 95 177t148 106q85 36 190 36q112 0 194 -41
q81 -41 131 -113q51 -74 73 -169q22 -94 22 -209v-35zM569 1038q-191 0 -303 -124q-114 -126 -121 -363h801q0 106 -19 192q-19 87 -64 155q-42 64 -118 103q-73 37 -176 37zM375 1450q0 -89 47 -141t139 -52q93 0 141 51t48 142h41q0 -108 -60 -170q-60 -61 -170 -61
q-107 0 -167 61q-60 62 -60 170h41z" />
    <glyph glyph-name="Edotaccent" unicode="&#x116;" horiz-adv-x="1173" 
d="M176 1462h891v-43h-846v-643h805v-43h-805v-690h862l-14 -43h-893v1462zM608 1812h45v-188h-45v188z" />
    <glyph glyph-name="edotaccent" unicode="&#x117;" horiz-adv-x="1091" 
d="M989 512h-844q0 -115 27 -208t78 -159q50 -64 131 -101q79 -36 186 -36q145 0 237 65t120 177h41q-12 -59 -42 -109q-31 -52 -78 -89t-117 -61q-69 -24 -161 -24q-225 0 -345 146q-120 145 -120 401q0 141 34 246q35 108 95 177t148 106q85 36 190 36q112 0 194 -41
q81 -41 131 -113q51 -74 73 -169q22 -94 22 -209v-35zM569 1038q-191 0 -303 -124q-114 -126 -121 -363h801q0 106 -19 192q-19 87 -64 155q-42 64 -118 103q-73 37 -176 37zM543 1462h43v-188h-43v188z" />
    <glyph glyph-name="Eogonek" unicode="&#x118;" horiz-adv-x="1173" 
d="M176 1462h891v-43h-846v-643h805v-43h-805v-690h862l-14 -43q-65 -50 -101 -100t-36 -103q0 -52 30 -76t82 -24q20 0 30 1q17 2 26 3v-41q-4 0 -12.5 -1t-12.5 -2q-8 -1 -33 -1q-72 0 -112 34q-41 35 -41 101q0 54 27 105q27 50 94 104h-834v1462z" />
    <glyph glyph-name="eogonek" unicode="&#x119;" horiz-adv-x="1091" 
d="M764 -330q-13 -4 -28 -4h-27q-65 0 -108 30q-44 30 -44 101q0 43 22 87q21 42 68 89q-38 -6 -80 -6q-224 0 -345 145q-120 144 -120 402q0 141 34 246q35 108 95 177t148 106q85 36 190 36q115 0 195 -41q82 -42 130 -112q51 -74 73 -169t22 -210v-35h-844
q0 -115 27 -208q27 -94 79 -159t131 -101q80 -36 185 -36q148 0 238 66q91 67 119 176h41q-21 -91 -81 -161q-59 -70 -171 -103q-54 -43 -85 -89q-30 -43 -30 -94q0 -55 33 -76q35 -22 80 -22h25q15 0 28 4v-39zM569 1038q-191 0 -303 -123q-114 -124 -121 -364h801
q0 107 -19 193q-19 88 -65 155q-43 64 -117 102q-71 37 -176 37z" />
    <glyph glyph-name="Ecaron" unicode="&#x11a;" horiz-adv-x="1173" 
d="M176 1462h891v-43h-846v-643h805v-43h-805v-690h862l-14 -43h-893v1462zM653 1585h-45l-225 252h51l197 -215l196 215h52z" />
    <glyph glyph-name="ecaron" unicode="&#x11b;" horiz-adv-x="1091" 
d="M989 512h-844q0 -115 27 -208t78 -159q50 -64 131 -101q79 -36 186 -36q145 0 237 65t120 177h41q-12 -59 -42 -109q-31 -52 -78 -89t-117 -61q-69 -24 -161 -24q-225 0 -345 146q-120 145 -120 401q0 141 34 246q35 108 95 177t148 106q85 36 190 36q112 0 194 -41
q81 -41 131 -113q51 -74 73 -169q22 -94 22 -209v-35zM569 1038q-191 0 -303 -124q-114 -126 -121 -363h801q0 106 -19 192q-19 87 -64 155q-42 64 -118 103q-73 37 -176 37zM582 1200h-41l-228 262h49l199 -227l199 227h49z" />
    <glyph glyph-name="Gcircumflex" unicode="&#x11c;" horiz-adv-x="1406" 
d="M782 680h490v-533q-101 -97 -231 -140q-132 -44 -265 -44q-146 0 -266 46q-122 47 -207 141q-88 97 -133 236q-47 144 -47 337q0 197 47 344q46 145 131 242q84 96 199 143t248 47q203 0 327 -103q126 -105 166 -286l-41 -10q-23 85 -57 146q-39 69 -92 113
q-56 47 -131 72t-175 25q-126 0 -232 -44q-105 -44 -182 -134q-77 -91 -119 -228q-42 -138 -42 -325q0 -184 43 -317q45 -139 122 -225q81 -90 190 -133q112 -44 251 -44q128 0 247 39t204 117v475h-445v43zM717 1837h45l225 -252h-51l-197 215l-196 -215h-51z" />
    <glyph glyph-name="gcircumflex" unicode="&#x11d;" horiz-adv-x="1161" 
d="M967 287q-50 -127 -153 -198q-105 -73 -259 -73q-114 0 -199 41q-82 40 -141 114q-58 73 -85 168q-28 98 -28 208q0 136 37 234q38 100 101 166q64 68 150 100q84 32 188 32q135 0 235 -58q102 -59 154 -192v218h43v-1039q0 -95 -21 -175t-69 -135q-49 -56 -133 -87
q-85 -31 -205 -31q-92 0 -159 14q-74 15 -131 49t-95 88q-36 52 -47 132h40q21 -120 116 -182t276 -62q115 0 191 29q74 28 118 80q42 50 59 121q17 73 17 155v283zM969 600q0 37 -5 89q-4 37 -18 91q-11 41 -37 88q-25 44 -61 78q-97 92 -270 92q-98 0 -176 -31
q-75 -30 -135 -93q-56 -59 -88 -152t-32 -215q0 -111 27 -202q27 -92 78 -155q52 -64 127 -98q78 -35 176 -35q172 0 285 101q69 64 98 148q31 88 31 183v111zM565 1462h41l228 -262h-50l-198 225l-199 -225h-49z" />
    <glyph glyph-name="Gbreve" unicode="&#x11e;" horiz-adv-x="1406" 
d="M782 680h490v-533q-101 -97 -231 -140q-132 -44 -265 -44q-146 0 -266 46q-122 47 -207 141q-88 97 -133 236q-47 144 -47 337q0 197 47 344q46 145 131 242q84 96 199 143t248 47q203 0 327 -103q126 -105 166 -286l-41 -10q-23 85 -57 146q-39 69 -92 113
q-56 47 -131 72t-175 25q-126 0 -232 -44q-105 -44 -182 -134q-77 -91 -119 -228q-42 -138 -42 -325q0 -184 43 -317q45 -139 122 -225q81 -90 190 -133q112 -44 251 -44q128 0 247 39t204 117v475h-445v43zM557 1806q0 -86 48 -133q49 -47 136 -47q93 0 140 47t47 133h43
q0 -104 -60 -162q-61 -59 -170 -59q-107 0 -168 59q-59 58 -59 162h43z" />
    <glyph glyph-name="gbreve" unicode="&#x11f;" horiz-adv-x="1161" 
d="M967 287q-50 -127 -153 -198q-105 -73 -259 -73q-114 0 -199 41q-82 40 -141 114q-58 73 -85 168q-28 98 -28 208q0 136 37 234q38 100 101 166q64 68 150 100q84 32 188 32q135 0 235 -58q102 -59 154 -192v218h43v-1039q0 -95 -21 -175t-69 -135q-49 -56 -133 -87
q-85 -31 -205 -31q-92 0 -159 14q-74 15 -131 49t-95 88q-36 52 -47 132h40q21 -120 116 -182t276 -62q115 0 191 29q74 28 118 80q42 50 59 121q17 73 17 155v283zM969 600q0 37 -5 89q-4 37 -18 91q-11 41 -37 88q-25 44 -61 78q-97 92 -270 92q-98 0 -176 -31
q-75 -30 -135 -93q-56 -59 -88 -152t-32 -215q0 -111 27 -202q27 -92 78 -155q52 -64 127 -98q78 -35 176 -35q172 0 285 101q69 64 98 148q31 88 31 183v111zM399 1450q0 -89 47 -141t140 -52t141 51q47 50 47 142h41q0 -110 -59 -170q-60 -61 -170 -61q-107 0 -167 61
q-61 63 -61 170h41z" />
    <glyph glyph-name="Gdotaccent" unicode="&#x120;" horiz-adv-x="1406" 
d="M782 680h490v-533q-101 -97 -231 -140q-132 -44 -265 -44q-146 0 -266 46q-122 47 -207 141q-88 97 -133 236q-47 144 -47 337q0 197 47 344q46 145 131 242q84 96 199 143t248 47q203 0 327 -103q126 -105 166 -286l-41 -10q-23 85 -57 146q-39 69 -92 113
q-56 47 -131 72t-175 25q-126 0 -232 -44q-105 -44 -182 -134q-77 -91 -119 -228q-42 -138 -42 -325q0 -184 43 -317q45 -139 122 -225q81 -90 190 -133q112 -44 251 -44q128 0 247 39t204 117v475h-445v43zM721 1812h45v-188h-45v188z" />
    <glyph glyph-name="gdotaccent" unicode="&#x121;" horiz-adv-x="1161" 
d="M967 287q-50 -127 -153 -198q-105 -73 -259 -73q-114 0 -199 41q-82 40 -141 114q-58 73 -85 168q-28 98 -28 208q0 136 37 234q38 100 101 166q64 68 150 100q84 32 188 32q135 0 235 -58q102 -59 154 -192v218h43v-1039q0 -95 -21 -175t-69 -135q-49 -56 -133 -87
q-85 -31 -205 -31q-92 0 -159 14q-74 15 -131 49t-95 88q-36 52 -47 132h40q21 -120 116 -182t276 -62q115 0 191 29q74 28 118 80q42 50 59 121q17 73 17 155v283zM969 600q0 37 -5 89q-4 37 -18 91q-11 41 -37 88q-25 44 -61 78q-97 92 -270 92q-98 0 -176 -31
q-75 -30 -135 -93q-56 -59 -88 -152t-32 -215q0 -111 27 -202q27 -92 78 -155q52 -64 127 -98q78 -35 176 -35q172 0 285 101q69 64 98 148q31 88 31 183v111zM561 1462h43v-188h-43v188z" />
    <glyph glyph-name="Gcommaaccent" unicode="&#x122;" horiz-adv-x="1406" 
d="M782 680h490v-533q-101 -97 -231 -140q-132 -44 -265 -44q-146 0 -266 46q-122 47 -207 141q-88 97 -133 236q-47 144 -47 337q0 197 47 344q46 145 131 242q84 96 199 143t248 47q203 0 327 -103q126 -105 166 -286l-41 -10q-23 85 -57 146q-39 69 -92 113
q-56 47 -131 72t-175 25q-126 0 -232 -44q-105 -44 -182 -134q-77 -91 -119 -228q-42 -138 -42 -325q0 -184 43 -317q45 -139 122 -225q81 -90 190 -133q112 -44 251 -44q128 0 247 39t204 117v475h-445v43zM643 -424h-43l145 272h50z" />
    <glyph glyph-name="gcommaaccent" unicode="&#x123;" horiz-adv-x="1161" 
d="M967 287q-50 -127 -153 -198q-105 -73 -259 -73q-114 0 -199 41q-82 40 -141 114q-58 73 -85 168q-28 98 -28 208q0 136 37 234q38 100 101 166q64 68 150 100q84 32 188 32q135 0 235 -58q102 -59 154 -192v218h43v-1039q0 -95 -21 -175t-69 -135q-49 -56 -133 -87
q-85 -31 -205 -31q-92 0 -159 14q-74 15 -131 49t-95 88q-36 52 -47 132h40q21 -120 116 -182t276 -62q115 0 191 29q74 28 118 80q42 50 59 121q17 73 17 155v283zM969 600q0 37 -5 89q-4 37 -18 91q-11 41 -37 88q-25 44 -61 78q-97 92 -270 92q-98 0 -176 -31
q-75 -30 -135 -93q-56 -59 -88 -152t-32 -215q0 -111 27 -202q27 -92 78 -155q52 -64 127 -98q78 -35 176 -35q172 0 285 101q69 64 98 148q31 88 31 183v111zM678 1462h41l-137 -266h-47z" />
    <glyph glyph-name="Hcircumflex" unicode="&#x124;" horiz-adv-x="1378" 
d="M176 1462h45v-682h936v682h45v-1462h-45v737h-936v-737h-45v1462zM666 1837h45l225 -252h-51l-197 215l-196 -215h-52z" />
    <glyph glyph-name="hcircumflex" unicode="&#x125;" horiz-adv-x="1110" 
d="M152 1462h43v-600q79 112 188 164q112 53 229 53q177 0 265 -98t88 -281v-700h-43v692q0 170 -76 258t-238 88q-92 0 -173 -30q-76 -28 -152 -101q-32 -31 -49 -53q-16 -21 -26 -52q-10 -29 -11 -64q-2 -48 -2 -85v-653h-43v1462zM377 1837h45l225 -252h-51l-197 215
l-196 -215h-51z" />
    <glyph glyph-name="Hbar" unicode="&#x126;" horiz-adv-x="1402" 
d="M188 1102h-168v41h168v319h45v-319h936v319h45v-319h168v-41h-168v-1102h-45v727h-936v-727h-45v1102zM1169 770v332h-936v-332h936z" />
    <glyph glyph-name="hbar" unicode="&#x127;" horiz-adv-x="1130" 
d="M172 1243h-149v39h149v180h43v-180h377v-39h-377v-412q79 112 188 164q114 54 230 54q180 0 266 -101t86 -278v-670h-43v662q0 168 -75 257t-238 89q-92 0 -173 -30q-83 -31 -153 -101q-26 -25 -48 -54q-17 -23 -27 -52t-11 -63q-2 -48 -2 -85v-623h-43v1243z" />
    <glyph glyph-name="Itilde" unicode="&#x128;" horiz-adv-x="397" 
d="M176 1462h45v-1462h-45v1462zM-121 1602q0 78 46 125q47 49 120 49q50 0 89 -22t73 -47q38 -28 69 -47q36 -22 82 -22q33 0 59 13q24 12 37 31q12 17 20 43q7 22 7 47h43q0 -77 -47 -126t-121 -49q-50 0 -89 22q-35 19 -72 47q-36 26 -71 47q-38 22 -83 22q-33 0 -57 -13
q-23 -13 -36 -32q-15 -23 -20 -44q-6 -24 -6 -44h-43z" />
    <glyph glyph-name="itilde" unicode="&#x129;" horiz-adv-x="346" 
d="M152 1047h43v-1047h-43v1047zM-137 1241q0 77 44 126q44 48 116 48q47 0 86 -21q36 -19 71 -48q37 -30 69 -49q36 -21 77 -21q32 0 55 12q22 12 37 33q14 19 20 44q6 24 6 46h41q0 -77 -44 -126q-44 -48 -115 -48q-46 0 -87 21q-38 19 -72 49q-30 26 -68 48
q-36 21 -76 21q-36 0 -58 -13q-23 -13 -36 -33q-13 -18 -19 -44q-6 -24 -6 -45h-41z" />
    <glyph glyph-name="Imacron" unicode="&#x12a;" horiz-adv-x="397" 
d="M176 1462h45v-1462h-45v1462zM-74 1673h549v-39h-549v39z" />
    <glyph glyph-name="imacron" unicode="&#x12b;" horiz-adv-x="346" 
d="M152 1047h43v-1047h-43v1047zM-63 1333h475v-37h-475v37z" />
    <glyph glyph-name="Ibreve" unicode="&#x12c;" horiz-adv-x="397" 
d="M176 1462h45v-1462h-45v1462zM16 1806q0 -86 49 -133t136 -47q92 0 139 47t47 133h43q0 -104 -59 -162q-61 -59 -170 -59q-107 0 -168 59q-60 58 -60 162h43z" />
    <glyph glyph-name="ibreve" unicode="&#x12d;" horiz-adv-x="346" 
d="M152 1047h43v-1047h-43v1047zM-12 1450q0 -89 47 -141t139 -52q93 0 141 51q47 50 47 142h41q0 -110 -59 -170q-60 -61 -170 -61q-107 0 -167 61q-60 62 -60 170h41z" />
    <glyph glyph-name="Iogonek" unicode="&#x12e;" horiz-adv-x="397" 
d="M221 0q-65 -50 -101 -100t-36 -103q0 -52 30 -76t83 -24q19 0 29 1q17 2 26 3v-41q-4 0 -12.5 -1t-12.5 -2q-8 -1 -32 -1q-73 0 -113 34q-41 35 -41 101q0 56 32 109q33 54 103 110v1452h45v-1462z" />
    <glyph glyph-name="iogonek" unicode="&#x12f;" horiz-adv-x="346" 
d="M227 -330q-13 -4 -27 -4h-28q-58 0 -105 29t-47 102q0 53 30 106q29 51 102 107v1037h43v-1047q-65 -49 -100 -96q-34 -46 -34 -101t33 -76q35 -22 80 -22h26q14 0 27 4v-39zM152 1462h43v-188h-43v188z" />
    <glyph glyph-name="Idotaccent" unicode="&#x130;" horiz-adv-x="397" 
d="M176 1462h45v-1462h-45v1462zM178 1812h45v-188h-45v188z" />
    <glyph glyph-name="dotlessi" unicode="&#x131;" horiz-adv-x="346" 
d="M152 1047h43v-1047h-43v1047z" />
    <glyph glyph-name="IJ" unicode="&#x132;" horiz-adv-x="1552" 
d="M176 1462h45v-1462h-45v1462zM500 403q33 -208 144 -302q112 -95 292 -95q200 0 302 114q101 113 101 347v995h45v-999q0 -130 -31 -223q-31 -94 -90 -156q-57 -60 -142 -91q-83 -30 -185 -30q-85 0 -166 23q-80 23 -144 73q-65 51 -109 138q-43 85 -58 206h41z" />
    <glyph glyph-name="ij" unicode="&#x133;" horiz-adv-x="692" 
d="M152 1047h43v-1047h-43v1047zM152 1462h43v-188h-43v188zM145 -309q43 -16 84 -23q46 -8 78 -8q53 0 89 18t59 53q21 32 32 78t11 95v1143h43v-1129q0 -142 -58 -221q-57 -78 -176 -78q-45 0 -90 9t-84 24zM498 1462h43v-188h-43v188z" />
    <glyph glyph-name="Jcircumflex" unicode="&#x134;" horiz-adv-x="1155" 
d="M102 403q33 -207 145 -302t292 -95q200 0 302 114q101 113 101 347v995h45v-999q0 -127 -32 -223q-31 -94 -90 -156q-58 -61 -141 -91t-185 -30q-85 0 -166 23q-82 23 -145 73t-108 138q-44 87 -59 206h41zM942 1837h45l225 -252h-51l-196 215l-197 -215h-51z" />
    <glyph glyph-name="jcircumflex" unicode="&#x135;" horiz-adv-x="346" 
d="M195 1047v-1129q0 -142 -58 -221q-57 -78 -176 -78q-45 0 -90 9t-84 24l12 39q43 -16 84 -23q46 -8 78 -8q53 0 89 18t59 53q21 32 32 78t11 95v1143h43zM156 1462h41l227 -262h-49l-199 225l-199 -225h-49z" />
    <glyph glyph-name="Kcommaaccent" unicode="&#x136;" horiz-adv-x="1275" 
d="M618 924l607 -924h-51l-586 895l-369 -360v-535h-43v1462h43v-872l893 872h57zM557 -424h-43l145 272h50z" />
    <glyph glyph-name="kcommaaccent" unicode="&#x137;" horiz-adv-x="976" 
d="M487 674l-292 -262v-412h-43v1462h43v-1001l651 586h57l-385 -347l438 -700h-49zM403 -414h-41l146 262h47z" />
    <glyph glyph-name="kgreenlandic" unicode="&#x138;" horiz-adv-x="976" 
d="M487 645l-292 -285v-360h-43v1047h43v-637l653 637h55l-385 -373l438 -674h-49z" />
    <glyph glyph-name="Lacute" unicode="&#x139;" horiz-adv-x="1120" 
d="M176 1462h45v-1419h838l-15 -43h-868v1462zM182 1585h-51l231 252h58z" />
    <glyph glyph-name="lacute" unicode="&#x13a;" horiz-adv-x="346" 
d="M152 1462h43v-1462h-43v1462zM197 1585h-52l232 252h57z" />
    <glyph glyph-name="Lcommaaccent" unicode="&#x13b;" horiz-adv-x="1120" 
d="M176 1462h45v-1419h838l-15 -43h-868v1462zM500 -424h-43l145 272h49z" />
    <glyph glyph-name="lcommaaccent" unicode="&#x13c;" horiz-adv-x="346" 
d="M152 1462h43v-1462h-43v1462zM55 -414h-41l146 262h47z" />
    <glyph glyph-name="Lcaron" unicode="&#x13d;" horiz-adv-x="1120" 
d="M176 1462h45v-1419h838l-15 -43h-868v1462zM754 1466h44l-62 -338h-39z" />
    <glyph glyph-name="lcaron" unicode="&#x13e;" horiz-adv-x="346" 
d="M152 1462h43v-1462h-43v1462zM381 1462h41l-57 -315h-37z" />
    <glyph glyph-name="Ldot" unicode="&#x13f;" horiz-adv-x="1120" 
d="M176 1462h45v-1419h838l-15 -43h-868v1462zM748 905h43v-198h-43v198z" />
    <glyph glyph-name="ldot" unicode="&#x140;" horiz-adv-x="497" 
d="M152 1462h43v-1462h-43v1462zM399 864h43v-198h-43v198z" />
    <glyph glyph-name="Lslash" unicode="&#x141;" horiz-adv-x="1132" 
d="M188 567l-168 -121v52l168 120v844h45v-811l515 371v-51l-515 -371v-557h838l-14 -43h-869v567z" />
    <glyph glyph-name="lslash" unicode="&#x142;" horiz-adv-x="376" 
d="M166 760l-166 -123v45l166 125v655h43v-624l168 127v-50l-168 -124v-791h-43v760z" />
    <glyph glyph-name="Nacute" unicode="&#x143;" horiz-adv-x="1380" 
d="M176 1462h51l932 -1401v1401h45v-1462h-55l-928 1397v-1397h-45v1462zM666 1585h-52l232 252h57z" />
    <glyph glyph-name="nacute" unicode="&#x144;" horiz-adv-x="1110" 
d="M152 1047h43v-187q80 115 188 166q112 53 229 53q176 0 265 -99q88 -98 88 -280v-700h-43v692q0 169 -76 257q-77 89 -238 89q-92 0 -173 -30q-76 -28 -152 -101q-32 -31 -49 -53q-16 -21 -26 -52q-10 -29 -11 -64q-2 -48 -2 -85v-653h-43v1047zM479 1200h-49l232 262h55
z" />
    <glyph glyph-name="Ncommaaccent" unicode="&#x145;" horiz-adv-x="1380" 
d="M176 1462h51l932 -1401v1401h45v-1462h-55l-928 1397v-1397h-45v1462zM567 -424h-43l146 272h49z" />
    <glyph glyph-name="ncommaaccent" unicode="&#x146;" horiz-adv-x="1110" 
d="M152 1047h43v-187q80 115 188 166q112 53 229 53q176 0 265 -99q88 -98 88 -280v-700h-43v692q0 169 -76 257q-77 89 -238 89q-92 0 -173 -30q-76 -28 -152 -101q-32 -31 -49 -53q-16 -21 -26 -52q-10 -29 -11 -64q-2 -48 -2 -85v-653h-43v1047zM432 -414h-41l146 262h47
z" />
    <glyph glyph-name="Ncaron" unicode="&#x147;" horiz-adv-x="1380" 
d="M176 1462h51l932 -1401v1401h45v-1462h-55l-928 1397v-1397h-45v1462zM715 1585h-45l-226 252h52l196 -215l197 215h51z" />
    <glyph glyph-name="ncaron" unicode="&#x148;" horiz-adv-x="1110" 
d="M152 1047h43v-187q80 115 188 166q112 53 229 53q176 0 265 -99q88 -98 88 -280v-700h-43v692q0 169 -76 257q-77 89 -238 89q-92 0 -173 -30q-76 -28 -152 -101q-32 -31 -49 -53q-16 -21 -26 -52q-10 -29 -11 -64q-2 -48 -2 -85v-653h-43v1047zM584 1200h-41l-228 262
h50l198 -227l199 227h49z" />
    <glyph glyph-name="napostrophe" unicode="&#x149;" horiz-adv-x="1110" 
d="M152 1047h43v-187q80 115 188 166q112 53 229 53q176 0 265 -99q88 -98 88 -280v-700h-43v692q0 169 -76 257q-77 89 -238 89q-92 0 -173 -30q-76 -28 -152 -101q-32 -31 -49 -53q-16 -21 -26 -52q-10 -29 -11 -64q-2 -48 -2 -85v-653h-43v1047zM76 1462h43l-76 -364h-35
z" />
    <glyph glyph-name="Eng" unicode="&#x14a;" horiz-adv-x="1380" 
d="M176 1462h51l932 -1384v1384h45v-1462q0 -111 -29 -188q-30 -80 -84 -131q-55 -52 -133 -76q-81 -25 -174 -25q-82 0 -156 14q-82 16 -136 41l16 41q52 -22 131 -38q73 -15 145 -15q178 0 275 89q95 88 100 288l-938 1397v-1397h-45v1462z" />
    <glyph glyph-name="eng" unicode="&#x14b;" horiz-adv-x="1110" 
d="M152 1047h43v-187q80 115 188 166q112 53 229 53q182 0 267 -100q86 -101 86 -279v-782q0 -143 -57 -221t-177 -78q-45 0 -90 9t-84 24l12 39q43 -16 84 -23q46 -8 78 -8q54 0 89 19q36 20 59 53q21 30 32 77q11 46 11 95v788q0 168 -75 257t-239 89q-95 0 -172 -29
q-80 -30 -153 -102q-32 -31 -49 -53q-16 -21 -26 -52q-10 -29 -11 -64q-2 -48 -2 -85v-653h-43v1047z" />
    <glyph glyph-name="Omacron" unicode="&#x14c;" horiz-adv-x="1507" 
d="M123 729q0 167 40 306q41 142 119 244q81 105 196 162q117 58 276 58q158 0 275 -59t197 -162q77 -99 119 -244q39 -136 39 -303q0 -171 -39 -307q-41 -144 -119 -245q-80 -103 -198 -162q-117 -58 -274 -58q-160 0 -277 59q-118 60 -196 163q-77 103 -118 244
q-40 139 -40 304zM170 729q0 -159 37 -291q38 -136 108 -229q73 -97 183 -152t256 -55t256 55q109 54 182 152q70 93 108 229q37 132 37 291q0 158 -37 290q-38 135 -109 230q-72 96 -182 152q-109 55 -255 55t-255 -54q-111 -55 -183 -152q-71 -96 -109 -231
q-37 -132 -37 -290zM479 1673h549v-39h-549v39z" />
    <glyph glyph-name="omacron" unicode="&#x14d;" horiz-adv-x="1157" 
d="M147 520q0 -102 24 -195q24 -94 75 -164q52 -72 133 -112q84 -41 199 -41q116 0 199 42t134 113t75 165t24 196q0 103 -24 196q-24 94 -75 164q-50 69 -134 112q-83 42 -199 42t-199 -42t-133 -113q-51 -72 -75 -166q-24 -95 -24 -197zM580 1079q127 0 217 -45
q91 -45 147 -121q57 -77 84 -176q27 -101 27 -211q0 -112 -27 -214q-27 -101 -84 -178q-58 -78 -148 -122q-92 -45 -218 -45q-128 0 -218 45q-91 45 -147 121q-57 77 -84 176q-27 101 -27 213q0 110 27 212q27 101 84 178q58 78 148 122q91 45 219 45zM340 1333h475v-37
h-475v37z" />
    <glyph glyph-name="Obreve" unicode="&#x14e;" horiz-adv-x="1507" 
d="M123 729q0 167 40 306q41 142 119 244q81 105 196 162q117 58 276 58q158 0 275 -59t197 -162q77 -99 119 -244q39 -136 39 -303q0 -171 -39 -307q-41 -144 -119 -245q-80 -103 -198 -162q-117 -58 -274 -58q-160 0 -277 59q-118 60 -196 163q-77 103 -118 244
q-40 139 -40 304zM170 729q0 -159 37 -291q38 -136 108 -229q73 -97 183 -152t256 -55t256 55q109 54 182 152q70 93 108 229q37 132 37 291q0 158 -37 290q-38 135 -109 230q-72 96 -182 152q-109 55 -255 55t-255 -54q-111 -55 -183 -152q-71 -96 -109 -231
q-37 -132 -37 -290zM569 1806q0 -86 48 -133q49 -47 137 -47q92 0 139 47t47 133h43q0 -104 -59 -162q-61 -59 -170 -59q-107 0 -168 59q-60 58 -60 162h43z" />
    <glyph glyph-name="obreve" unicode="&#x14f;" horiz-adv-x="1157" 
d="M147 520q0 -102 24 -195q24 -94 75 -164q52 -72 133 -112q84 -41 199 -41q116 0 199 42t134 113t75 165t24 196q0 103 -24 196q-24 94 -75 164q-50 69 -134 112q-83 42 -199 42t-199 -42t-133 -113q-51 -72 -75 -166q-24 -95 -24 -197zM580 1079q127 0 217 -45
q91 -45 147 -121q57 -77 84 -176q27 -101 27 -211q0 -112 -27 -214q-27 -101 -84 -178q-58 -78 -148 -122q-92 -45 -218 -45q-128 0 -218 45q-91 45 -147 121q-57 77 -84 176q-27 101 -27 213q0 110 27 212q27 101 84 178q58 78 148 122q91 45 219 45zM391 1450
q0 -89 47 -141t140 -52t141 51q47 50 47 142h41q0 -110 -59 -170q-60 -61 -170 -61q-107 0 -167 61q-61 63 -61 170h41z" />
    <glyph glyph-name="Ohungarumlaut" unicode="&#x150;" horiz-adv-x="1507" 
d="M123 729q0 167 40 306q41 142 119 244q81 105 196 162q117 58 276 58q158 0 275 -59t197 -162q77 -99 119 -244q39 -136 39 -303q0 -171 -39 -307q-41 -144 -119 -245q-80 -103 -198 -162q-117 -58 -274 -58q-160 0 -277 59q-118 60 -196 163q-77 103 -118 244
q-40 139 -40 304zM170 729q0 -159 37 -291q38 -136 108 -229q73 -97 183 -152t256 -55t256 55q109 54 182 152q70 93 108 229q37 132 37 291q0 158 -37 290q-38 135 -109 230q-72 96 -182 152q-109 55 -255 55t-255 -54q-111 -55 -183 -152q-71 -96 -109 -231
q-37 -132 -37 -290zM625 1585h-47l208 252h54zM907 1585h-47l209 252h53z" />
    <glyph glyph-name="ohungarumlaut" unicode="&#x151;" horiz-adv-x="1157" 
d="M147 520q0 -102 24 -195q24 -94 75 -164q52 -72 133 -112q84 -41 199 -41q116 0 199 42t134 113t75 165t24 196q0 103 -24 196q-24 94 -75 164q-50 69 -134 112q-83 42 -199 42t-199 -42t-133 -113q-51 -72 -75 -166q-24 -95 -24 -197zM580 1079q127 0 217 -45
q91 -45 147 -121q57 -77 84 -176q27 -101 27 -211q0 -112 -27 -214q-27 -101 -84 -178q-58 -78 -148 -122q-92 -45 -218 -45q-128 0 -218 45q-91 45 -147 121q-57 77 -84 176q-27 101 -27 213q0 110 27 212q27 101 84 178q58 78 148 122q91 45 219 45zM455 1200h-45l208 262
h52zM715 1200h-45l209 262h51z" />
    <glyph glyph-name="OE" unicode="&#x152;" horiz-adv-x="2222" 
d="M123 729q0 163 38 306q38 141 112 244t190 162q113 58 260 58q112 0 201 -34q90 -35 158 -95q70 -63 117 -146q49 -88 77 -190v428h840v-43h-795v-643h754v-43h-754v-690h811l-14 -43h-842v424q-28 -103 -77 -192q-47 -85 -118 -147q-69 -60 -158 -93t-200 -33
q-151 0 -262 59q-114 61 -188 163q-74 103 -112 244q-38 143 -38 304zM170 729q0 -156 35 -291q35 -134 103 -229q70 -97 172 -152q103 -55 243 -55q137 0 242 54q103 53 173 152q69 97 103 230q35 135 35 291v31q-5 153 -41 277q-38 129 -106 221q-70 95 -170 146
q-101 52 -236 52t-240 -54q-104 -54 -174 -152q-70 -99 -104 -231q-35 -135 -35 -290z" />
    <glyph glyph-name="oe" unicode="&#x153;" horiz-adv-x="1978" 
d="M573 1079q102 0 176 -29q78 -31 131 -82q55 -54 89 -124q35 -72 51 -154q39 191 155 291q114 98 285 98q113 0 193 -41t129 -112q48 -70 71 -169q23 -100 23 -210v-35h-834q0 -113 26 -208q26 -93 78 -159q52 -65 130 -101t182 -36q150 0 237 66t115 176h41
q-12 -55 -41 -107t-76 -90q-46 -37 -117 -62q-69 -24 -159 -24q-185 0 -296 103q-109 101 -142 282q-16 -81 -51 -152t-90 -122q-56 -52 -131 -81q-76 -30 -175 -30q-127 0 -216 45q-88 45 -145 121q-56 75 -83 176t-27 213q0 110 27 212q27 103 83 178q58 78 145 122
q89 45 216 45zM147 520q0 -100 23 -195q22 -93 74 -164q52 -72 132 -112q82 -41 197 -41q117 0 198 42t131 113q50 72 74 165q23 91 23 196q0 107 -23 196q-24 93 -74 164q-49 69 -131 112q-81 42 -198 42q-116 0 -197 -42q-82 -43 -132 -113q-52 -73 -74 -166
q-23 -97 -23 -197zM1460 1038q-187 0 -298 -124q-113 -126 -120 -363h791q0 106 -19 194q-19 89 -64 155q-42 62 -115 101q-70 37 -175 37z" />
    <glyph glyph-name="Racute" unicode="&#x154;" horiz-adv-x="1255" 
d="M1118 1071q0 -157 -71 -249q-73 -94 -205 -128l321 -694h-49l-315 686q-33 -7 -65 -8q-46 -2 -68 -2h-445v-676h-45v1462h498q444 0 444 -391zM221 719h447q205 0 305 86q98 85 98 266t-98 264q-99 84 -307 84h-445v-700zM575 1585h-51l232 252h57z" />
    <glyph glyph-name="racute" unicode="&#x155;" horiz-adv-x="675" 
d="M152 1047h43v-189q64 100 154 152q92 53 210 53q37 0 78 -6l-6 -43q-11 2 -36 5q-9 1 -36 1q-103 0 -182 -41q-77 -40 -139 -123q-15 -18 -23 -37q-9 -22 -13 -43q-4 -24 -6 -52q-1 -18 -1 -71v-653h-43v1047zM340 1200h-49l231 262h56z" />
    <glyph glyph-name="Rcommaaccent" unicode="&#x156;" horiz-adv-x="1255" 
d="M1118 1071q0 -157 -71 -249q-73 -94 -205 -128l321 -694h-49l-315 686q-33 -7 -65 -8q-46 -2 -68 -2h-445v-676h-45v1462h498q444 0 444 -391zM221 719h447q205 0 305 86q98 85 98 266t-98 264q-99 84 -307 84h-445v-700zM500 -424h-43l145 272h49z" />
    <glyph glyph-name="rcommaaccent" unicode="&#x157;" horiz-adv-x="675" 
d="M152 1047h43v-189q64 100 154 152q92 53 210 53q37 0 78 -6l-6 -43q-11 2 -36 5q-9 1 -36 1q-103 0 -182 -41q-77 -40 -139 -123q-15 -18 -23 -37q-9 -22 -13 -43q-4 -24 -6 -52q-1 -18 -1 -71v-653h-43v1047zM55 -414h-41l146 262h47z" />
    <glyph glyph-name="Rcaron" unicode="&#x158;" horiz-adv-x="1255" 
d="M1118 1071q0 -157 -71 -249q-73 -94 -205 -128l321 -694h-49l-315 686q-33 -7 -65 -8q-46 -2 -68 -2h-445v-676h-45v1462h498q444 0 444 -391zM221 719h447q205 0 305 86q98 85 98 266t-98 264q-99 84 -307 84h-445v-700zM602 1585h-45l-225 252h51l197 -215l196 215h51z
" />
    <glyph glyph-name="rcaron" unicode="&#x159;" horiz-adv-x="675" 
d="M152 1047h43v-189q64 100 154 152q92 53 210 53q37 0 78 -6l-6 -43q-11 2 -36 5q-9 1 -36 1q-103 0 -182 -41q-77 -40 -139 -123q-15 -18 -23 -37q-9 -22 -13 -43q-4 -24 -6 -52q-1 -18 -1 -71v-653h-43v1047zM403 1200h-41l-227 262h49l199 -227l199 227h49z" />
    <glyph glyph-name="Sacute" unicode="&#x15a;" horiz-adv-x="1236" 
d="M141 340q30 -166 161 -250q130 -84 335 -84q120 0 206 28q83 27 133 77q52 52 73 114q22 65 22 142q0 97 -30 160q-31 65 -80 101q-50 37 -120 58q-69 21 -147 33l-166 26q-80 12 -150 36q-72 25 -124 66q-55 44 -85 107q-32 67 -32 164q0 95 35 168t97 119q64 48 151 71
q85 23 192 23q129 0 219 -33t143 -83q52 -49 82 -111q28 -56 44 -119l-41 -10q-18 70 -51 128t-83 99q-51 42 -128 64q-76 22 -185 22q-96 0 -175 -18q-76 -17 -136 -60q-58 -41 -88 -104q-31 -65 -31 -154q0 -87 28 -148q26 -56 77 -95q49 -37 115 -58q65 -21 145 -33
l164 -24q74 -11 151 -35q70 -22 130 -67q57 -43 91 -115q35 -73 35 -178q0 -88 -25 -160q-26 -74 -83 -128q-58 -55 -150 -85q-95 -31 -223 -31q-98 0 -188 21q-93 22 -163 64q-71 43 -122 117q-49 71 -64 175h41zM580 1585h-52l232 252h57z" />
    <glyph glyph-name="sacute" unicode="&#x15b;" horiz-adv-x="1017" 
d="M139 270q18 -124 110 -193q91 -69 271 -69q98 0 164 21q65 21 105 56q40 36 57 83q16 45 16 100q0 66 -21 109q-20 41 -62 69q-41 27 -97 42q-66 17 -131 28l-98 16q-67 11 -125 28q-61 18 -104 48q-42 29 -69 78q-26 47 -26 119q0 55 21 105q22 52 64 88q46 39 115 60
q71 21 171 21t164 -19q66 -19 108 -53q45 -36 68 -80q24 -47 41 -100l-39 -8q-16 50 -41 92t-65 70t-97 43q-53 14 -139 14q-96 0 -155 -17q-63 -18 -100 -49q-39 -33 -55 -75t-16 -94q0 -58 20 -98q20 -41 56 -65q37 -25 88 -40q46 -14 113 -25l106 -18q74 -12 140 -30
t112 -48q47 -30 73 -81q25 -49 25 -128q0 -144 -96 -224q-95 -79 -291 -79q-181 0 -293 74q-111 74 -129 229h41zM485 1200h-49l232 262h55z" />
    <glyph glyph-name="Scircumflex" unicode="&#x15c;" horiz-adv-x="1236" 
d="M141 340q30 -166 161 -250q130 -84 335 -84q120 0 206 28q83 27 133 77q52 52 73 114q22 65 22 142q0 97 -30 160q-31 65 -80 101q-50 37 -120 58q-69 21 -147 33l-166 26q-80 12 -150 36q-72 25 -124 66q-55 44 -85 107q-32 67 -32 164q0 95 35 168t97 119q64 48 151 71
q85 23 192 23q129 0 219 -33t143 -83q52 -49 82 -111q28 -56 44 -119l-41 -10q-18 70 -51 128t-83 99q-51 42 -128 64q-76 22 -185 22q-96 0 -175 -18q-76 -17 -136 -60q-58 -41 -88 -104q-31 -65 -31 -154q0 -87 28 -148q26 -56 77 -95q49 -37 115 -58q65 -21 145 -33
l164 -24q74 -11 151 -35q70 -22 130 -67q57 -43 91 -115q35 -73 35 -178q0 -88 -25 -160q-26 -74 -83 -128q-58 -55 -150 -85q-95 -31 -223 -31q-98 0 -188 21q-93 22 -163 64q-71 43 -122 117q-49 71 -64 175h41zM608 1837h45l226 -252h-52l-196 215l-197 -215h-51z" />
    <glyph glyph-name="scircumflex" unicode="&#x15d;" horiz-adv-x="1017" 
d="M139 270q18 -124 110 -193q91 -69 271 -69q98 0 164 21q65 21 105 56q40 36 57 83q16 45 16 100q0 66 -21 109q-20 41 -62 69q-41 27 -97 42q-66 17 -131 28l-98 16q-67 11 -125 28q-61 18 -104 48q-42 29 -69 78q-26 47 -26 119q0 55 21 105q22 52 64 88q46 39 115 60
q71 21 171 21t164 -19q66 -19 108 -53q45 -36 68 -80q24 -47 41 -100l-39 -8q-16 50 -41 92t-65 70t-97 43q-53 14 -139 14q-96 0 -155 -17q-63 -18 -100 -49q-39 -33 -55 -75t-16 -94q0 -58 20 -98q20 -41 56 -65q37 -25 88 -40q46 -14 113 -25l106 -18q74 -12 140 -30
t112 -48q47 -30 73 -81q25 -49 25 -128q0 -144 -96 -224q-95 -79 -291 -79q-181 0 -293 74q-111 74 -129 229h41zM492 1462h40l228 -262h-49l-199 225l-199 -225h-49z" />
    <glyph glyph-name="Scedilla" unicode="&#x15e;" horiz-adv-x="1236" 
d="M463 -350q19 -3 55 -7q27 -3 64 -3q82 0 126 17q46 18 46 73q0 48 -45 71q-46 23 -156 23h-31l49 141q-89 6 -168 30q-83 25 -143 68q-63 45 -105 114q-43 71 -55 163h41q30 -169 163 -252q131 -82 333 -82q120 0 206 28q83 27 133 77q52 52 73 114q22 65 22 142
q0 97 -30 160q-31 65 -80 101q-50 37 -120 58q-69 21 -147 33l-166 26q-80 12 -150 36q-72 25 -124 66q-55 44 -85 107q-32 67 -32 164q0 95 35 168t97 119q64 48 151 71q85 23 192 23q134 0 221 -33t140 -83q54 -51 82 -111q28 -61 45 -119l-41 -10q-22 74 -52 129
q-32 58 -84 98q-55 43 -128 64q-75 22 -183 22q-96 0 -175 -18q-76 -17 -136 -60q-58 -41 -88 -104q-31 -65 -31 -154q0 -87 28 -148q26 -56 77 -95q49 -37 115 -58q65 -21 145 -33l164 -24q74 -11 151 -35q70 -22 130 -67q57 -43 91 -115q35 -73 35 -178q0 -88 -25 -160
q-26 -74 -83 -128q-58 -55 -150 -85q-95 -31 -223 -31h-25l-34 -100q67 0 108 -10q43 -10 68 -29q23 -17 34 -42t11 -52q0 -41 -17 -67q-16 -25 -46 -40q-28 -14 -68 -20q-39 -6 -84 -6q-77 0 -121 10v43z" />
    <glyph glyph-name="scedilla" unicode="&#x15f;" horiz-adv-x="1017" 
d="M342 -324q20 -3 53 -7q27 -3 62 -3q75 0 123 17q47 17 47 73q0 48 -40 70t-147 22h-28l39 123q-149 12 -243 85q-93 72 -110 214h41q18 -122 108 -192t273 -70q98 0 164 21q65 21 105 55t57 83q16 47 16 101q0 66 -21 109q-20 41 -62 69q-41 27 -97 42q-66 17 -131 28
l-98 16q-67 11 -125 28q-61 18 -104 48q-42 29 -69 78q-26 47 -26 119q0 58 20 105q21 50 65 88q46 39 115 60q71 21 171 21t164 -19q66 -19 108 -53q45 -36 68 -80q24 -47 41 -100l-39 -8q-16 50 -41 92t-65 70t-97 43q-53 14 -139 14q-96 0 -155 -17q-63 -18 -100 -49
q-39 -33 -55 -75t-16 -94q0 -58 20 -98q20 -41 56 -65q37 -25 88 -40q46 -14 113 -25l106 -18q74 -12 140 -30q65 -18 111 -48q44 -29 73 -81q26 -48 26 -128q0 -141 -93 -222t-294 -81q-12 0 -17 1t-16 1l-24 -86q120 -1 163 -38q42 -36 42 -91q0 -38 -17 -63
q-16 -24 -44 -39q-28 -16 -66 -20q-43 -5 -82 -5q-68 0 -117 11v38z" />
    <glyph glyph-name="Scaron" unicode="&#x160;" horiz-adv-x="1236" 
d="M141 340q30 -166 161 -250q130 -84 335 -84q120 0 206 28q83 27 133 77q52 52 73 114q22 65 22 142q0 97 -30 160q-31 65 -80 101q-50 37 -120 58q-69 21 -147 33l-166 26q-80 12 -150 36q-72 25 -124 66q-55 44 -85 107q-32 67 -32 164q0 95 35 168t97 119q64 48 151 71
q85 23 192 23q129 0 219 -33t143 -83q52 -49 82 -111q28 -56 44 -119l-41 -10q-18 70 -51 128t-83 99q-51 42 -128 64q-76 22 -185 22q-96 0 -175 -18q-76 -17 -136 -60q-58 -41 -88 -104q-31 -65 -31 -154q0 -87 28 -148q26 -56 77 -95q49 -37 115 -58q65 -21 145 -33
l164 -24q74 -11 151 -35q70 -22 130 -67q57 -43 91 -115q35 -73 35 -178q0 -88 -25 -160q-26 -74 -83 -128q-58 -55 -150 -85q-95 -31 -223 -31q-98 0 -188 21q-93 22 -163 64q-71 43 -122 117q-49 71 -64 175h41zM647 1585h-45l-225 252h51l197 -215l196 215h51z" />
    <glyph glyph-name="scaron" unicode="&#x161;" horiz-adv-x="1017" 
d="M139 270q18 -124 110 -193q91 -69 271 -69q98 0 164 21q65 21 105 56q40 36 57 83q16 45 16 100q0 66 -21 109q-20 41 -62 69q-41 27 -97 42q-66 17 -131 28l-98 16q-67 11 -125 28q-61 18 -104 48q-42 29 -69 78q-26 47 -26 119q0 55 21 105q22 52 64 88q46 39 115 60
q71 21 171 21t164 -19q66 -19 108 -53q45 -36 68 -80q24 -47 41 -100l-39 -8q-16 50 -41 92t-65 70t-97 43q-53 14 -139 14q-96 0 -155 -17q-63 -18 -100 -49q-39 -33 -55 -75t-16 -94q0 -58 20 -98q20 -41 56 -65q37 -25 88 -40q46 -14 113 -25l106 -18q74 -12 140 -30
t112 -48q47 -30 73 -81q25 -49 25 -128q0 -144 -96 -224q-95 -79 -291 -79q-181 0 -293 74q-111 74 -129 229h41zM530 1200h-41l-227 262h49l199 -227l199 227h49z" />
    <glyph glyph-name="uni0162" unicode="&#x162;" horiz-adv-x="1167" 
d="M561 1419h-520v43h1085v-43h-520v-1419l-47 -137q68 0 109 -10q42 -10 67 -29t35 -42t10 -52q0 -42 -16 -67t-46 -40q-27 -14 -69 -20q-39 -6 -84 -6q-77 0 -121 10v43q17 -3 56 -7q27 -3 63 -3q82 0 126 17q46 18 46 73q0 48 -45 71q-46 23 -155 23h-31l61 176h-4v1419z
" />
    <glyph glyph-name="uni0163" unicode="&#x163;" horiz-adv-x="651" 
d="M270 -324q18 -3 54 -7q27 -3 61 -3q75 0 123 17q47 17 47 73q0 48 -40 70t-146 22h-29l43 138q-98 21 -137 98q-39 78 -39 203v719h-162v41h162v292h43v-292h354v-41h-354v-727q0 -123 48 -192t165 -69q76 0 145 29l13 -37q-25 -13 -68 -23t-90 -10q-16 0 -23 1
q-14 2 -20 2l-29 -97q118 -2 161 -36q44 -35 44 -93q0 -40 -16 -63q-16 -24 -44 -39t-67 -20q-43 -5 -82 -5q-68 0 -117 11v38z" />
    <glyph glyph-name="Tcaron" unicode="&#x164;" horiz-adv-x="1167" 
d="M561 1419h-520v43h1085v-43h-520v-1419h-45v1419zM606 1585h-45l-225 252h51l197 -215l196 215h51z" />
    <glyph glyph-name="tcaron" unicode="&#x165;" horiz-adv-x="651" 
d="M207 1006h-162v41h162v292h43v-292h354v-41h-354v-727q0 -123 48 -192t165 -69q76 0 145 29l13 -37q-25 -13 -68 -23t-90 -10q-71 0 -121 21t-79 60t-43 98q-13 55 -13 131v719zM487 1483h41l-49 -269h-37z" />
    <glyph glyph-name="Tbar" unicode="&#x166;" horiz-adv-x="1167" 
d="M561 713h-352v43h352v663h-520v43h1085v-43h-520v-663h352v-43h-352v-713h-45v713z" />
    <glyph glyph-name="tbar" unicode="&#x167;" horiz-adv-x="702" 
d="M207 590v416h-162v41h162v292h43v-292h354v-41h-354v-416h354v-41h-354v-270q0 -123 48 -192t165 -69q76 0 145 29l13 -37q-25 -13 -68 -23t-90 -10q-71 0 -121 21t-79 60t-43 98q-13 55 -13 131v262h-162v41h162z" />
    <glyph glyph-name="Utilde" unicode="&#x168;" horiz-adv-x="1351" 
d="M676 6q465 0 465 555v901h45v-895q0 -305 -130 -454q-130 -150 -380 -150q-254 0 -382 150q-128 151 -128 454v895h45v-901q0 -555 465 -555zM354 1602q0 78 46 125q47 49 120 49q50 0 89 -22t73 -47t70 -47t82 -22q32 0 58 13q24 12 37 31q12 17 20 43q7 22 7 47h43
q0 -77 -47 -126t-121 -49q-50 0 -89 22q-35 19 -72 47q-36 26 -71 47q-38 22 -83 22q-33 0 -57 -13q-23 -13 -36 -32q-15 -23 -20 -44q-6 -24 -6 -44h-43z" />
    <glyph glyph-name="utilde" unicode="&#x169;" horiz-adv-x="1089" 
d="M938 0h-43v188q-77 -113 -183 -166q-110 -55 -225 -55q-174 0 -258 101q-84 100 -84 278v701h43v-693q0 -168 74 -257t232 -89q89 0 168 31q72 28 147 100q28 27 47 54q17 24 26 52q10 29 11 63q2 48 2 85v654h43v-1047zM236 1241q0 77 44 126q44 48 115 48q47 0 86 -21
t72 -48q37 -30 69 -49q36 -21 76 -21q34 0 56 12t37 33q14 19 20 44q6 24 6 46h41q0 -77 -44 -126q-44 -48 -116 -48q-46 0 -87 21q-35 18 -71 49q-30 26 -68 48q-36 21 -77 21q-35 0 -57 -13t-36 -33q-13 -18 -19 -44q-7 -28 -7 -45h-40z" />
    <glyph glyph-name="Umacron" unicode="&#x16a;" horiz-adv-x="1351" 
d="M676 6q465 0 465 555v901h45v-895q0 -305 -130 -454q-130 -150 -380 -150q-254 0 -382 150q-128 151 -128 454v895h45v-901q0 -555 465 -555zM401 1673h549v-39h-549v39z" />
    <glyph glyph-name="umacron" unicode="&#x16b;" horiz-adv-x="1089" 
d="M938 0h-43v188q-77 -113 -183 -166q-110 -55 -225 -55q-174 0 -258 101q-84 100 -84 278v701h43v-693q0 -168 74 -257t232 -89q89 0 168 31q72 28 147 100q28 27 47 54q17 24 26 52q10 29 11 63q2 48 2 85v654h43v-1047zM303 1333h475v-37h-475v37z" />
    <glyph glyph-name="Ubreve" unicode="&#x16c;" horiz-adv-x="1351" 
d="M676 6q465 0 465 555v901h45v-895q0 -305 -130 -454q-130 -150 -380 -150q-254 0 -382 150q-128 151 -128 454v895h45v-901q0 -555 465 -555zM492 1806q0 -86 48 -133q49 -47 136 -47q92 0 139 47t47 133h43q0 -104 -59 -162q-61 -59 -170 -59q-107 0 -168 59
q-59 58 -59 162h43z" />
    <glyph glyph-name="ubreve" unicode="&#x16d;" horiz-adv-x="1089" 
d="M938 0h-43v188q-77 -113 -183 -166q-110 -55 -225 -55q-174 0 -258 101q-84 100 -84 278v701h43v-693q0 -168 74 -257t232 -89q89 0 168 31q72 28 147 100q28 27 47 54q17 24 26 52q10 29 11 63q2 48 2 85v654h43v-1047zM354 1450q0 -89 47 -141t140 -52t141 51
q47 50 47 142h41q0 -110 -59 -170q-60 -61 -170 -61q-107 0 -167 61q-61 63 -61 170h41z" />
    <glyph glyph-name="Uring" unicode="&#x16e;" horiz-adv-x="1351" 
d="M676 6q465 0 465 555v901h45v-895q0 -305 -130 -454q-130 -150 -380 -150q-254 0 -382 150q-128 151 -128 454v895h45v-901q0 -555 465 -555zM803 1679q0 65 -36 100q-34 33 -91 33q-59 0 -92 -33q-35 -35 -35 -100t36 -99q35 -34 91 -34q58 0 92 34q35 35 35 99z
M846 1679q0 -84 -48 -129t-122 -45t-122 45t-48 129t49 129t121 45q74 0 122 -45t48 -129z" />
    <glyph glyph-name="uring" unicode="&#x16f;" horiz-adv-x="1089" 
d="M938 0h-43v188q-77 -113 -183 -166q-110 -55 -225 -55q-174 0 -258 101q-84 100 -84 278v701h43v-693q0 -168 74 -257t232 -89q89 0 168 31q72 28 147 100q28 27 47 54q17 24 26 52q10 29 11 63q2 48 2 85v654h43v-1047zM670 1382q0 68 -37 102t-92 34q-59 0 -94 -34
t-35 -102q0 -67 37 -101t92 -34q58 0 93 34q36 35 36 101zM711 1382q0 -84 -48 -129t-122 -45t-122 45t-48 129t49 129t121 45q71 0 121 -45q49 -45 49 -129z" />
    <glyph glyph-name="Uhungarumlaut" unicode="&#x170;" horiz-adv-x="1351" 
d="M676 6q465 0 465 555v901h45v-895q0 -305 -130 -454q-130 -150 -380 -150q-254 0 -382 150q-128 151 -128 454v895h45v-901q0 -555 465 -555zM512 1585h-47l209 252h53zM795 1585h-47l208 252h54z" />
    <glyph glyph-name="uhungarumlaut" unicode="&#x171;" horiz-adv-x="1089" 
d="M938 0h-43v188q-77 -113 -183 -166q-110 -55 -225 -55q-174 0 -258 101q-84 100 -84 278v701h43v-693q0 -168 74 -257t232 -89q89 0 168 31q72 28 147 100q28 27 47 54q17 24 26 52q10 29 11 63q2 48 2 85v654h43v-1047zM395 1200h-45l209 262h51zM655 1200h-45l209 262
h51z" />
    <glyph glyph-name="Uogonek" unicode="&#x172;" horiz-adv-x="1351" 
d="M1186 1462v-895q0 -247 -83 -389q-83 -141 -239 -188q-58 -45 -91 -94q-32 -47 -32 -99t30 -76t83 -24q20 0 30 1q13 1 25 3v-41l-24 -3q-8 -1 -33 -1q-73 0 -113 34q-41 35 -41 101q0 45 22 91q21 44 71 91q-54 -10 -115 -10q-248 0 -379 149t-131 455v895h45v-901
q0 -555 465 -555q236 0 350 139q115 141 115 416v901h45z" />
    <glyph glyph-name="uogonek" unicode="&#x173;" horiz-adv-x="1089" 
d="M971 -330q-13 -4 -28 -4h-28q-61 0 -106 30t-45 101q0 53 30 106q30 52 101 107v178q-79 -117 -183 -168q-109 -53 -225 -53q-174 0 -258 101q-84 100 -84 278v701h43v-693q0 -166 72 -256t234 -90q89 0 168 31q72 28 147 100q28 27 47 54q17 24 26 52q10 29 11 63
q2 48 2 85v654h43v-1047q-63 -47 -99 -96q-34 -46 -34 -101t33 -76q35 -22 80 -22h25q15 0 28 4v-39z" />
    <glyph glyph-name="Wcircumflex" unicode="&#x174;" horiz-adv-x="1777" 
d="M889 1395l-381 -1395h-53l-394 1462h48l372 -1396l383 1390h51l381 -1395l375 1401h45l-393 -1462h-53zM866 1837h45l226 -252h-52l-196 215l-197 -215h-51z" />
    <glyph glyph-name="wcircumflex" unicode="&#x175;" horiz-adv-x="1390" 
d="M1030 49l291 998h43l-307 -1047h-51l-312 991l-309 -991h-51l-307 1047h45l290 -998l312 993h45zM674 1462h41l227 -262h-49l-199 225l-198 -225h-50z" />
    <glyph glyph-name="Ycircumflex" unicode="&#x176;" horiz-adv-x="1140" 
d="M549 0v633l-498 829h51l469 -782l469 782h50l-496 -825v-637h-45zM547 1837h45l225 -252h-51l-197 215l-196 -215h-51z" />
    <glyph glyph-name="ycircumflex" unicode="&#x177;" horiz-adv-x="956" 
d="M66 1047l434 -986l393 986h43l-494 -1235q-39 -97 -91 -153t-148 -56q-32 0 -65 5q-29 4 -58 15l10 37q28 -9 53 -13q33 -5 60 -5q66 0 112 40q49 43 91 144l75 184l-461 1037h46zM459 1462h41l227 -262h-49l-199 225l-198 -225h-50z" />
    <glyph glyph-name="Ydieresis" unicode="&#x178;" horiz-adv-x="1140" 
d="M549 0v633l-498 829h51l469 -782l469 782h50l-496 -825v-637h-45zM385 1817h45v-189h-45v189zM711 1817h45v-189h-45v189z" />
    <glyph glyph-name="Zacute" unicode="&#x179;" horiz-adv-x="1185" 
d="M86 39l942 1380h-926v43h981v-39l-944 -1380h955l-15 -43h-993v39zM559 1585h-51l231 252h58z" />
    <glyph glyph-name="zacute" unicode="&#x17a;" horiz-adv-x="901" 
d="M61 29l691 977h-676v41h729v-33l-688 -973h723l-13 -41h-766v29zM418 1200h-49l231 262h55z" />
    <glyph glyph-name="Zdotaccent" unicode="&#x17b;" horiz-adv-x="1185" 
d="M86 39l942 1380h-926v43h981v-39l-944 -1380h955l-15 -43h-993v39zM578 1812h45v-188h-45v188z" />
    <glyph glyph-name="zdotaccent" unicode="&#x17c;" horiz-adv-x="901" 
d="M61 29l691 977h-676v41h729v-33l-688 -973h723l-13 -41h-766v29zM422 1462h43v-188h-43v188z" />
    <glyph glyph-name="Zcaron" unicode="&#x17d;" horiz-adv-x="1185" 
d="M86 39l942 1380h-926v43h981v-39l-944 -1380h955l-15 -43h-993v39zM625 1585h-45l-226 252h52l196 -215l197 215h51z" />
    <glyph glyph-name="zcaron" unicode="&#x17e;" horiz-adv-x="901" 
d="M61 29l691 977h-676v41h729v-33l-688 -973h723l-13 -41h-766v29zM461 1200h-41l-227 262h49l198 -227l199 227h49z" />
    <glyph glyph-name="longs" unicode="&#x17f;" horiz-adv-x="346" 
d="M152 0v1178q0 77 22 133t60 94q36 36 91 55t113 19q31 0 68 -6q34 -5 67 -17l-10 -39q-40 13 -60 16q-30 5 -65 5q-110 0 -177 -64q-66 -63 -66 -194v-1180h-43z" />
    <glyph glyph-name="florin" unicode="&#x192;" horiz-adv-x="618" 
d="M578 1047v-41h-326v-1088q0 -143 -57 -221t-177 -78q-45 0 -90 9t-84 24l13 39q43 -16 84 -23q46 -8 77 -8q54 0 90 18q35 17 58 53q22 35 33 78q10 41 10 95v1102h-162v41h162v131q0 75 21 132q20 56 62 94q42 39 91 56q54 19 113 19q30 0 67 -6q36 -6 68 -17l-10 -39
q-39 12 -61 16q-30 5 -64 5q-116 0 -180 -66q-64 -65 -64 -192v-133h326z" />
    <glyph glyph-name="Scommaaccent" unicode="&#x218;" horiz-adv-x="1236" 
d="M141 340q30 -166 161 -250q130 -84 335 -84q120 0 206 28q83 27 133 77q52 52 73 114q22 65 22 142q0 97 -30 160q-31 65 -80 101q-50 37 -120 58q-69 21 -147 33l-166 26q-80 12 -150 36q-72 25 -124 66q-55 44 -85 107q-32 67 -32 164q0 95 35 168t97 119q64 48 151 71
q85 23 192 23q129 0 219 -33t143 -83q52 -49 82 -111q28 -56 44 -119l-41 -10q-18 70 -51 128t-83 99q-51 42 -128 64q-76 22 -185 22q-96 0 -175 -18q-76 -17 -136 -60q-58 -41 -88 -104q-31 -65 -31 -154q0 -87 28 -148q26 -56 77 -95q49 -37 115 -58q65 -21 145 -33
l164 -24q74 -11 151 -35q70 -22 130 -67q57 -43 91 -115q35 -73 35 -178q0 -88 -25 -160q-26 -74 -83 -128q-58 -55 -150 -85q-95 -31 -223 -31q-98 0 -188 21q-93 22 -163 64q-71 43 -122 117q-49 71 -64 175h41zM518 -424h-43l146 272h49z" />
    <glyph glyph-name="scommaaccent" unicode="&#x219;" horiz-adv-x="1017" 
d="M139 270q18 -124 110 -193q91 -69 271 -69q98 0 164 21q65 21 105 56q40 36 57 83q16 45 16 100q0 66 -21 109q-20 41 -62 69q-41 27 -97 42q-66 17 -131 28l-98 16q-67 11 -125 28q-61 18 -104 48q-42 29 -69 78q-26 47 -26 119q0 55 21 105q22 52 64 88q46 39 115 60
q71 21 171 21t164 -19q66 -19 108 -53q45 -36 68 -80q24 -47 41 -100l-39 -8q-16 50 -41 92t-65 70t-97 43q-53 14 -139 14q-96 0 -155 -17q-63 -18 -100 -49q-39 -33 -55 -75t-16 -94q0 -58 20 -98q20 -41 56 -65q37 -25 88 -40q46 -14 113 -25l106 -18q74 -12 140 -30
t112 -48q47 -30 73 -81q25 -49 25 -128q0 -144 -96 -224q-95 -79 -291 -79q-181 0 -293 74q-111 74 -129 229h41zM426 -414h-41l145 262h48z" />
    <glyph glyph-name="uni021A" unicode="&#x21a;" horiz-adv-x="1167" 
d="M561 1419h-520v43h1085v-43h-520v-1419h-45v1419zM465 -424h-43l145 272h49z" />
    <glyph glyph-name="uni021B" unicode="&#x21b;" horiz-adv-x="651" 
d="M207 1006h-162v41h162v292h43v-292h354v-41h-354v-727q0 -129 51 -195t162 -66q76 0 145 29l13 -37q-25 -13 -68 -23t-90 -10q-71 0 -121 21t-79 60t-43 98q-13 55 -13 131v719zM305 -414h-41l146 262h47z" />
    <glyph glyph-name="dotlessj" unicode="&#x237;" horiz-adv-x="346" 
d="M195 1047v-1129q0 -142 -58 -221q-57 -78 -176 -78q-45 0 -90 9t-84 24l12 39q43 -16 84 -23q46 -8 78 -8q53 0 89 18t59 53q21 32 32 78t11 95v1143h43z" />
    <glyph glyph-name="apostrophe" unicode="&#x2bc;" horiz-adv-x="159" 
d="M143 1462h43l-75 -364h-35z" />
    <glyph glyph-name="circumflex" unicode="&#x2c6;" horiz-adv-x="776" 
d="M367 1462h41l227 -262h-49l-199 225l-199 -225h-49z" />
    <glyph glyph-name="caron" unicode="&#x2c7;" horiz-adv-x="776" 
d="M408 1200h-41l-228 262h49l199 -227l199 227h49z" />
    <glyph glyph-name="uni02C9" unicode="&#x2c9;" horiz-adv-x="776" 
d="M150 1333h475v-37h-475v37z" />
    <glyph glyph-name="breve" unicode="&#x2d8;" horiz-adv-x="776" 
d="M201 1450q0 -89 47 -141t139 -52q93 0 141 51q47 50 47 142h41q0 -110 -59 -170q-60 -61 -170 -61q-107 0 -167 61q-60 62 -60 170h41z" />
    <glyph glyph-name="dotaccent" unicode="&#x2d9;" horiz-adv-x="776" 
d="M367 1462h43v-188h-43v188z" />
    <glyph glyph-name="ring" unicode="&#x2da;" horiz-adv-x="776" 
d="M516 1382q0 68 -37 102t-92 34q-58 0 -93 -34q-36 -34 -36 -102q0 -67 37 -101t92 -34q58 0 93 34q36 35 36 101zM557 1382q0 -84 -48 -129t-122 -45t-122 45t-48 129t49 129t121 45q71 0 121 -45q49 -45 49 -129z" />
    <glyph glyph-name="ogonek" unicode="&#x2db;" horiz-adv-x="776" 
d="M492 -330q-13 -4 -28 -4h-28q-63 0 -108 31q-43 30 -43 100q0 53 30 106q29 50 103 109l41 -12q-65 -49 -100 -96q-33 -44 -33 -101q0 -56 32 -76q35 -22 80 -22h26q15 0 28 4v-39z" />
    <glyph glyph-name="tilde" unicode="&#x2dc;" horiz-adv-x="776" 
d="M76 1241q0 77 44 126q44 48 116 48q47 0 86 -21q36 -19 71 -48q37 -30 69 -49q36 -21 77 -21q33 0 55 12t37 33q14 19 20 44q6 24 6 46h41q0 -77 -44 -126q-44 -48 -115 -48q-47 0 -87 21q-38 19 -72 49q-30 26 -68 48q-36 21 -76 21q-36 0 -58 -13t-36 -33
q-13 -18 -19 -44q-6 -24 -6 -45h-41z" />
    <glyph glyph-name="hungarumlaut" unicode="&#x2dd;" horiz-adv-x="776" 
d="M172 1200h-45l209 262h51zM432 1200h-45l209 262h51z" />
    <glyph glyph-name="uni0394" unicode="&#x394;" horiz-adv-x="1292" 
d="M51 0l570 1462h51l569 -1462h-1190zM117 43h1057l-529 1372z" />
    <glyph glyph-name="Omega" unicode="&#x3a9;" horiz-adv-x="1466" 
d="M729 1456q-134 0 -240 -50q-104 -49 -175 -141q-69 -90 -107 -217q-37 -124 -37 -278q0 -234 91 -416t292 -317v-37h-481v43h403q-172 122 -262 303q-90 180 -90 424q0 174 45 309q46 137 126 229q81 93 191 142t244 49q135 0 245 -49q112 -50 191 -142q80 -93 125 -229
q45 -135 45 -309q0 -247 -91 -425q-92 -180 -263 -302h414l-15 -43h-475v37q201 133 292 316q91 182 91 417q0 154 -37 278q-38 127 -107 217q-71 92 -175 141q-106 50 -240 50z" />
    <glyph glyph-name="uni03BC" unicode="&#x3bc;" horiz-adv-x="1095" 
d="M498 -33q-121 0 -195 47q-73 46 -108 133v-548h-43v1448h43v-695q0 -167 73 -255q74 -89 234 -89q87 0 166 31q72 28 147 100q28 27 47 54q17 24 26 52q10 29 11 63q2 48 2 85v654h43v-1047h-43v188q-76 -112 -181 -166q-107 -55 -222 -55z" />
    <glyph glyph-name="pi" unicode="&#x3c0;" horiz-adv-x="1114" 
d="M821 1006h-524v-1006h-43v1006h-207v41h1034v-41h-217v-777q0 -98 36 -153q36 -56 108 -56q6 0 18.5 1.5t17.5 1.5q21 1 33 6l6 -37q-7 -3 -29 -8q-17 -4 -48 -4q-93 0 -139 64t-46 181v781z" />
    <glyph glyph-name="Wgrave" unicode="&#x1e80;" horiz-adv-x="1777" 
d="M889 1395l-381 -1395h-53l-394 1462h48l372 -1396l383 1390h51l381 -1395l375 1401h45l-393 -1462h-53zM680 1837h57l232 -252h-51z" />
    <glyph glyph-name="wgrave" unicode="&#x1e81;" horiz-adv-x="1390" 
d="M1030 49l291 998h43l-307 -1047h-51l-312 991l-309 -991h-51l-307 1047h45l290 -998l312 993h45zM475 1462h55l232 -262h-49z" />
    <glyph glyph-name="Wacute" unicode="&#x1e82;" horiz-adv-x="1777" 
d="M889 1395l-381 -1395h-53l-394 1462h48l372 -1396l383 1390h51l381 -1395l375 1401h45l-393 -1462h-53zM858 1585h-51l231 252h58z" />
    <glyph glyph-name="wacute" unicode="&#x1e83;" horiz-adv-x="1390" 
d="M1030 49l291 998h43l-307 -1047h-51l-312 991l-309 -991h-51l-307 1047h45l290 -998l312 993h45zM678 1200h-49l231 262h55z" />
    <glyph glyph-name="Wdieresis" unicode="&#x1e84;" horiz-adv-x="1777" 
d="M889 1395l-381 -1395h-53l-394 1462h48l372 -1396l383 1390h51l381 -1395l375 1401h45l-393 -1462h-53zM705 1817h45v-189h-45v189zM1030 1817h45v-189h-45v189z" />
    <glyph glyph-name="wdieresis" unicode="&#x1e85;" horiz-adv-x="1390" 
d="M1030 49l291 998h43l-307 -1047h-51l-312 991l-309 -991h-51l-307 1047h45l290 -998l312 993h45zM522 1462h43v-188h-43v188zM825 1462h43v-188h-43v188z" />
    <glyph glyph-name="Ygrave" unicode="&#x1ef2;" horiz-adv-x="1140" 
d="M549 0v633l-498 829h51l469 -782l469 782h50l-496 -825v-637h-45zM358 1837h58l231 -252h-51z" />
    <glyph glyph-name="ygrave" unicode="&#x1ef3;" horiz-adv-x="956" 
d="M66 1047l434 -986l393 986h43l-494 -1235q-39 -97 -91 -153t-148 -56q-32 0 -65 5q-29 4 -58 15l10 37q28 -9 53 -13q33 -5 60 -5q66 0 112 40q49 43 91 144l75 184l-461 1037h46zM262 1462h55l232 -262h-49z" />
    <glyph glyph-name="endash" unicode="&#x2013;" horiz-adv-x="1024" 
d="M0 614h1024v-41h-1024v41z" />
    <glyph glyph-name="emdash" unicode="&#x2014;" horiz-adv-x="2048" 
d="M0 614h2048v-41h-2048v41z" />
    <glyph glyph-name="quoteleft" unicode="&#x2018;" horiz-adv-x="321" 
d="M150 1087h-48l78 375h39z" />
    <glyph glyph-name="quoteright" unicode="&#x2019;" horiz-adv-x="321" 
d="M172 1462h47l-78 -375h-39z" />
    <glyph glyph-name="quotesinglbase" unicode="&#x201a;" horiz-adv-x="331" 
d="M174 199h47l-78 -375h-39z" />
    <glyph glyph-name="quotedblleft" unicode="&#x201c;" horiz-adv-x="552" 
d="M150 1087h-48l78 375h39zM381 1087h-47l78 375h39z" />
    <glyph glyph-name="quotedblright" unicode="&#x201d;" horiz-adv-x="552" 
d="M172 1462h47l-78 -375h-39zM403 1462h48l-78 -375h-39z" />
    <glyph glyph-name="quotedblbase" unicode="&#x201e;" horiz-adv-x="563" 
d="M174 199h47l-78 -375h-39zM406 199h47l-78 -375h-39z" />
    <glyph glyph-name="dagger" unicode="&#x2020;" horiz-adv-x="915" 
d="M436 985h-385v41h385v436h43v-436h385v-41h-385v-1163h-43v1163z" />
    <glyph glyph-name="daggerdbl" unicode="&#x2021;" horiz-adv-x="915" 
d="M436 326v659h-385v41h385v436h43v-436h385v-41h-385v-659h385v-41h-385v-463h-43v463h-385v41h385z" />
    <glyph glyph-name="bullet" unicode="&#x2022;" horiz-adv-x="585" 
d="M92 748q0 85 58 141q56 55 143 55t143 -55q58 -56 58 -141q0 -86 -58 -142q-56 -55 -143 -55t-143 55q-58 56 -58 142z" />
    <glyph glyph-name="ellipsis" unicode="&#x2026;" horiz-adv-x="1359" 
d="M657 199h43v-199h-43v199zM1171 199h43v-199h-43v199zM143 199h43v-199h-43v199z" />
    <glyph glyph-name="perthousand" unicode="&#x2030;" horiz-adv-x="2222" 
d="M139 1012q0 -208 80 -302t203 -94q61 0 113 23q51 22 89 70q39 48 59 122q22 80 22 181q0 100 -22 179q-21 74 -59 123q-37 47 -89 70t-113 23q-60 0 -114 -23q-51 -22 -89 -69q-37 -46 -58 -123q-22 -80 -22 -180zM94 1012q0 110 25 196q24 82 68 135q45 54 104 79
q61 26 131 26q69 0 130 -26q59 -25 104 -79q46 -55 69 -135q25 -86 25 -196q0 -111 -25 -197q-23 -80 -69 -135q-45 -54 -104 -79q-61 -26 -130 -26q-70 0 -131 26q-59 25 -104 79q-44 53 -68 135q-25 86 -25 197zM1049 391q0 -210 79 -302q80 -93 203 -93q63 0 113 22
q51 22 89 70q38 47 59 123q22 80 22 180t-22 179q-21 74 -59 123q-38 48 -89 71q-50 22 -113 22q-62 0 -113 -22t-90 -70q-37 -46 -58 -123t-21 -180zM1004 391q0 114 24 197q23 80 69 135q45 54 103 79q59 25 131 25q71 0 130 -25q61 -26 105 -79t68 -135q25 -86 25 -197
q0 -110 -25 -196q-24 -83 -68 -136q-43 -52 -105 -78q-61 -26 -130 -26q-70 0 -131 26q-59 25 -103 78q-45 55 -69 136q-24 83 -24 196zM537 0h-48l728 1415h47zM1853 391q0 -208 80 -302q79 -93 203 -93q63 0 113 22q51 22 89 70q38 47 59 123q22 80 22 180t-22 179
q-21 74 -59 123q-38 48 -89 71q-50 22 -113 22t-114 -22q-50 -21 -89 -70q-37 -46 -58 -123q-22 -80 -22 -180zM1808 391q0 111 25 197q23 80 69 135q45 54 103 79q59 25 131 25q71 0 130 -25q61 -26 105 -79t68 -135q25 -86 25 -197q0 -110 -25 -196q-24 -83 -68 -136
q-43 -52 -105 -78q-61 -26 -130 -26q-70 0 -131 26q-59 25 -103 78q-45 55 -69 136q-25 86 -25 196z" />
    <glyph glyph-name="guilsinglleft" unicode="&#x2039;" horiz-adv-x="532" 
d="M82 524l301 455h47l-299 -453l299 -456h-47z" />
    <glyph glyph-name="guilsinglright" unicode="&#x203a;" horiz-adv-x="532" 
d="M451 524l-301 -454h-48l299 452l-299 457h48z" />
    <glyph glyph-name="fraction" unicode="&#x2044;" horiz-adv-x="98" 
d="M-291 0h-47l727 1415h47z" />
    <glyph glyph-name="zerosuperior" unicode="&#x2070;" 
d="M139 1012q0 -208 80 -302t203 -94q61 0 113 23q51 22 89 70q39 48 59 122q22 80 22 181q0 100 -22 179q-21 74 -59 123q-37 47 -89 70t-113 23q-60 0 -114 -23q-51 -22 -89 -69q-37 -46 -58 -123q-22 -80 -22 -180zM94 1012q0 110 25 196q24 82 68 135q45 54 104 79
q61 26 131 26q69 0 130 -26q59 -25 104 -79q46 -55 69 -135q25 -86 25 -196q0 -111 -25 -197q-23 -80 -69 -135q-45 -54 -104 -79q-61 -26 -130 -26q-70 0 -131 26q-59 25 -104 79q-44 53 -68 135q-25 86 -25 197z" />
    <glyph glyph-name="foursuperior" unicode="&#x2074;" 
d="M121 866l426 555h41v-547h102l-12 -40h-90v-232h-43v232h-424v32zM545 874v480l-369 -480h369z" />
    <glyph glyph-name="fivesuperior" unicode="&#x2075;" 
d="M244 1380l-27 -333q38 34 93 55q51 20 124 20q132 0 196 -73t64 -201q0 -134 -69 -203q-70 -70 -197 -70q-112 0 -183 56t-83 157h39q17 -90 77 -131q61 -41 150 -41q112 0 167 61q54 60 54 171q0 113 -51 173t-164 60q-71 0 -128 -22q-56 -22 -95 -68h-39l35 430h434
v-41h-397z" />
    <glyph glyph-name="sixsuperior" unicode="&#x2076;" 
d="M201 965q23 70 90 114q65 43 164 43q77 0 126 -24q48 -23 79 -65q30 -41 42 -88q13 -52 13 -93q0 -124 -75 -201q-75 -76 -198 -76q-76 0 -129 29q-52 28 -87 80q-33 48 -50 124q-16 70 -16 163q0 143 25 233q26 94 68 146q43 53 96 74q57 22 112 22q97 0 153 -49
q58 -50 74 -125l-39 -8q-22 76 -68 108q-46 33 -118 33q-53 0 -101 -20q-46 -19 -82 -67q-37 -50 -58 -134q-21 -86 -21 -219zM438 618q103 0 167 60q65 60 65 176q0 40 -11 82q-11 44 -35 73q-24 30 -67 52q-39 20 -102 20q-47 0 -90 -12q-42 -12 -77 -39q-36 -28 -54 -66
q-19 -39 -19 -98q0 -43 11 -83q12 -45 37 -81q24 -35 69 -60q44 -24 106 -24z" />
    <glyph glyph-name="sevensuperior" unicode="&#x2077;" 
d="M332 602q35 126 67 219q33 97 74 194q35 83 83 181q38 78 93 184h-510v41h555v-37q-99 -182 -181 -379q-79 -190 -136 -403h-45z" />
    <glyph glyph-name="eightsuperior" unicode="&#x2078;" 
d="M422 575q-139 0 -214 63t-75 167q0 51 19 92q18 40 47 64q28 23 61 37q33 13 62 18q-72 18 -116 73t-44 134q0 95 66 160q67 65 196 65q65 0 116 -19q46 -17 81 -49q33 -30 48 -71t15 -86q0 -85 -46 -137q-45 -51 -114 -68q26 -4 61 -18t61 -38q27 -25 47 -64
q20 -38 20 -93q0 -104 -75 -167t-216 -63zM422 616q122 0 184 53t62 136q0 85 -63 138q-62 52 -187 52q-117 0 -178 -52q-62 -53 -62 -138q0 -86 62 -137q63 -52 182 -52zM422 1036q55 0 98 16q40 15 68 41q27 26 39 58q12 33 12 70t-12 72t-39 60q-26 24 -68 40
q-38 14 -98 14q-110 0 -162 -52q-53 -53 -53 -134q0 -37 12 -70q12 -32 39 -58q28 -26 68 -41q43 -16 96 -16z" />
    <glyph glyph-name="ninesuperior" unicode="&#x2079;" 
d="M395 616q57 0 103 20q44 19 77 69t51 136q17 82 17 216q-24 -71 -89 -115q-64 -43 -165 -43q-74 0 -126 25q-51 25 -80 64q-30 40 -42 87t-12 94q0 125 75 201t197 76q144 0 214 -106q69 -105 69 -289q0 -140 -21 -232q-21 -90 -61 -146t-91 -76q-55 -22 -114 -22
q-57 0 -103 16q-44 15 -74 42t-46 61q-16 33 -22 74h41q21 -83 71 -117q52 -35 131 -35zM405 1403q-100 0 -166 -61q-65 -60 -65 -175q0 -43 10 -82q10 -40 36 -73t67 -53q39 -19 102 -19q47 0 90 12q41 11 77 38q32 24 53 67q20 42 20 98q0 39 -12 83q-13 47 -36 81
q-24 35 -69 60q-43 24 -107 24z" />
    <glyph glyph-name="zeroinferior" unicode="&#x2080;" 
d="M139 412q0 -208 80 -302t203 -94q61 0 113 23q51 22 89 70q39 48 59 122q22 80 22 181q0 100 -22 179q-21 74 -59 123q-37 47 -89 70t-113 23q-60 0 -114 -23q-51 -22 -89 -69q-37 -46 -58 -123q-22 -80 -22 -180zM94 412q0 110 25 196q24 82 68 135q45 54 104 79
q61 26 131 26q69 0 130 -26q59 -25 104 -79q46 -55 69 -135q25 -86 25 -196q0 -111 -25 -197q-23 -80 -69 -135q-45 -54 -104 -79q-61 -26 -130 -26q-70 0 -131 26q-59 25 -104 79q-44 53 -68 135q-25 86 -25 197z" />
    <glyph glyph-name="oneinferior" unicode="&#x2081;" 
d="M436 776l-231 -119l-19 35l250 129h43v-819h-43v774z" />
    <glyph glyph-name="twoinferior" unicode="&#x2082;" 
d="M154 39l194 168q80 70 139 129q56 56 88 101q34 48 47 88t13 85q0 91 -50 144t-155 53q-57 0 -97 -15t-68 -41q-26 -25 -44 -57q-17 -30 -24 -63l-39 6q8 37 25 71q17 35 49 68q30 32 80 52q49 20 118 20q120 0 185 -66q65 -67 65 -168q0 -56 -17 -101q-19 -49 -55 -99
q-43 -58 -93 -107q-56 -55 -136 -127l-158 -137h465l-12 -41h-520v37z" />
    <glyph glyph-name="threeinferior" unicode="&#x2083;" 
d="M168 207q2 -36 16 -69q15 -34 41 -60t73 -44q46 -18 114 -18q108 0 166 50q57 49 57 147q0 99 -52 148q-54 51 -128 51h-133v39h120q79 0 128 47q48 46 48 133q0 84 -49 130t-153 46q-60 0 -100 -15q-38 -14 -66 -39q-27 -24 -42 -54q-18 -36 -24 -60l-39 6q5 25 22 65
q14 34 46 66q30 30 80 51q49 21 123 21q123 0 185 -58q63 -58 63 -157q0 -79 -37 -128q-38 -50 -97 -71q66 -16 108 -75t42 -146q0 -110 -70 -174t-198 -64q-79 0 -134 23q-56 23 -88 57q-31 32 -47 76q-14 38 -14 76h39z" />
    <glyph glyph-name="fourinferior" unicode="&#x2084;" 
d="M121 266l426 555h41v-547h102l-12 -41h-90v-231h-43v231h-424v33zM545 274v480l-369 -480h369z" />
    <glyph glyph-name="fiveinferior" unicode="&#x2085;" 
d="M244 780l-27 -334q40 35 93 56q51 20 124 20q132 0 196 -73t64 -201q0 -134 -69 -203q-70 -70 -197 -70q-112 0 -183 56t-83 157h39q17 -90 77 -131q61 -41 150 -41q112 0 167 61q54 60 54 171q0 113 -51 173t-164 60q-71 0 -128 -22q-56 -22 -95 -68h-39l35 430h434v-41
h-397z" />
    <glyph glyph-name="sixinferior" unicode="&#x2086;" 
d="M201 365q23 70 90 114q65 43 164 43q77 0 126 -24q48 -23 79 -65q30 -41 42 -88q13 -52 13 -93q0 -124 -75 -201q-75 -76 -198 -76q-76 0 -129 29q-52 28 -87 80q-33 48 -50 124q-16 70 -16 163q0 143 25 233q26 94 68 146q43 53 96 74q57 22 112 22q97 0 153 -49
q58 -50 74 -125l-39 -8q-22 76 -68 108q-46 33 -118 33q-53 0 -101 -20q-46 -19 -82 -67q-37 -50 -58 -134q-21 -86 -21 -219zM438 18q103 0 167 60q65 60 65 176q0 40 -11 82q-11 44 -35 73q-24 30 -67 52q-39 20 -102 20q-47 0 -90 -12q-42 -12 -77 -39q-36 -28 -54 -66
q-19 -39 -19 -98q0 -43 11 -83q12 -45 37 -81q24 -35 69 -60q44 -24 106 -24z" />
    <glyph glyph-name="seveninferior" unicode="&#x2087;" 
d="M332 2q35 126 67 219q33 97 74 194q35 83 83 181q38 78 93 184h-510v41h555v-37q-98 -179 -181 -380q-80 -192 -136 -402h-45z" />
    <glyph glyph-name="eightinferior" unicode="&#x2088;" 
d="M422 -25q-139 0 -214 63t-75 167q0 51 19 92q18 38 47 63q30 25 61 38q33 13 62 18q-73 18 -116 72q-44 55 -44 135q0 95 66 160q67 65 196 65q65 0 116 -19q46 -17 81 -49q33 -30 48 -71q15 -40 15 -86q0 -85 -46 -137q-45 -51 -114 -68q26 -4 61 -18q34 -13 61 -39
q28 -26 47 -63q20 -38 20 -93q0 -104 -75 -167t-216 -63zM422 16q122 0 184 53t62 136q0 85 -63 138q-62 52 -187 52q-117 0 -178 -52q-62 -53 -62 -138q0 -86 62 -137q63 -52 182 -52zM422 436q55 0 98 16q40 15 68 41q27 26 39 58q12 33 12 70t-12 72t-39 60
q-26 24 -68 40q-38 14 -98 14q-110 0 -162 -52q-53 -53 -53 -134q0 -37 12 -70q12 -32 39 -58q28 -26 68 -41q43 -16 96 -16z" />
    <glyph glyph-name="nineinferior" unicode="&#x2089;" 
d="M395 16q57 0 103 20q45 19 77 68q33 49 51 137q17 82 17 216q-24 -71 -89 -115q-64 -43 -165 -43q-74 0 -126 25q-51 25 -80 64q-30 40 -42 87t-12 94q0 125 75 201t197 76q144 0 214 -106q69 -105 69 -289q0 -141 -21 -232q-21 -90 -61 -146t-91 -76q-55 -22 -114 -22
q-57 0 -103 16q-44 15 -74 42t-46 61q-16 33 -22 74h41q21 -83 71 -117q52 -35 131 -35zM405 803q-100 0 -166 -61q-65 -60 -65 -175q0 -43 10 -82q10 -40 36 -73t67 -53q39 -19 102 -19q47 0 90 12q41 11 77 38q32 24 53 67q20 42 20 98q0 39 -12 83q-13 47 -36 81
q-24 35 -69 60q-43 24 -107 24z" />
    <glyph glyph-name="Euro" unicode="&#x20ac;" horiz-adv-x="1212" 
d="M752 528h-535q11 -104 37 -196q28 -96 79 -167q53 -73 133 -116t200 -43q99 0 174 32q72 31 123 85q46 48 78 123q28 65 44 151h41q-12 -95 -47 -176q-35 -79 -92 -137t-137 -89q-81 -32 -184 -32q-130 0 -219 47t-146 125q-59 80 -88 180q-31 105 -41 213h-143l12 39
h129q0 6 -1 18t-1.5 21.5t-0.5 17.5q-1 18 -1 56q0 30 2 90q2 46 6 92h-145l12 39h139q16 114 48 207q34 100 93 177t147 123t208 46q104 0 178 -33t124 -86q49 -52 80 -120q28 -62 44 -132l-41 -10q-17 71 -46 132q-30 64 -76 108q-45 43 -111 71q-64 27 -152 27
q-114 0 -193 -42q-81 -43 -133 -113q-53 -72 -83 -162q-28 -85 -44 -193h602l-12 -39h-594q-5 -46 -6 -81q-2 -46 -2 -99v-47q0 -2 2 -68h551z" />
    <glyph glyph-name="uni20B9" unicode="&#x20b9;" horiz-adv-x="1212" 
d="M227 1415h863l-13 -39h-411q109 -37 165 -121q55 -84 60 -219h137l-12 -39h-125q-7 -191 -125 -283q-116 -91 -328 -91h-143l735 -623h-67l-736 623v43h215q195 0 296 80q102 81 108 251h-619v39h619q-4 172 -103 254q-98 82 -303 82h-213v43z" />
    <glyph glyph-name="uni20BA" unicode="&#x20ba;" horiz-adv-x="1212" 
d="M129 483l-14 35l176 82v281l-162 -76l-14 35l176 82v493h45v-471l450 211l15 -35l-465 -219v-278l450 211l15 -35l-465 -219v-537h106q250 0 394 132t168 372h40q-11 -125 -53 -224q-43 -102 -115 -172q-71 -69 -182 -111q-107 -40 -252 -40h-151v559z" />
    <glyph glyph-name="afii61289" unicode="&#x2113;" horiz-adv-x="589" 
d="M518 1229q0 -77 -13 -156q-14 -83 -46 -170q-32 -85 -86 -178q-50 -85 -133 -178v-389q0 -51 12 -81q11 -28 31 -46q19 -18 41 -22q25 -5 41 -5q39 0 71 19t64 63l28 -23q-35 -53 -74 -76q-40 -24 -89 -24q-27 0 -55 7q-30 8 -55 28q-26 22 -42 59q-16 38 -16 103v338
l-109 -121l-29 29l138 155v707q0 106 45 160q46 55 112 55q86 0 125 -66t39 -188zM240 610q120 136 176 298q57 164 57 321q0 106 -28 160q-27 53 -91 53q-54 0 -84 -44t-30 -128v-660z" />
    <glyph glyph-name="trademark" unicode="&#x2122;" horiz-adv-x="1785" 
d="M1200 643l-342 752v-752h-43v819h57l347 -762l346 762h57v-819h-43v752l-342 -752h-37zM336 1421h-295v41h633v-41h-295v-778h-43v778z" />
    <glyph glyph-name="uni2126" unicode="&#x2126;" horiz-adv-x="1466" 
d="M729 1456q-134 0 -240 -50q-104 -49 -175 -141q-69 -90 -107 -217q-37 -124 -37 -278q0 -234 91 -416t292 -317v-37h-481v43h403q-172 122 -262 303q-90 180 -90 424q0 174 45 309q46 137 126 229q81 93 191 142t244 49q135 0 245 -49q112 -50 191 -142q80 -93 125 -229
q45 -135 45 -309q0 -247 -91 -425q-92 -180 -263 -302h414l-15 -43h-475v37q201 133 292 316q91 182 91 417q0 154 -37 278q-38 127 -107 217q-71 92 -175 141q-106 50 -240 50z" />
    <glyph glyph-name="estimated" unicode="&#x212e;" horiz-adv-x="1865" 
d="M408 285q0 -27 18 -45q99 -105 226 -163q129 -59 282 -59q166 0 300 68t234 178h119q-111 -135 -282 -211t-375 -76q-172 0 -323 59t-263 159q-113 101 -177 236q-65 138 -65 290t65 290q63 134 177 237q110 100 263 161q147 59 323 59q174 0 324 -59q156 -61 266 -161
q113 -102 178 -237q65 -134 65 -290v-21h-1345q-10 0 -10 -8v-407zM1448 741q8 0 8 15v407q0 27 -18 49q-97 97 -228 155q-127 56 -276 56q-148 0 -278 -60q-128 -59 -228 -159q-10 -8 -15 -21q-5 -15 -5 -28v-399q0 -15 10 -15h1030z" />
    <glyph glyph-name="onethird" unicode="&#x2153;" horiz-adv-x="1800" 
d="M442 0h-47l727 1415h47zM346 1372l-231 -119l-19 35l250 129h43v-819h-43v774zM1114 207q2 -36 16 -69q15 -34 41 -60t73 -44q46 -18 114 -18q108 0 166 50q57 49 57 147q0 99 -52 148q-54 51 -128 51h-133v39h121q79 0 128 47q48 46 48 133q0 84 -49 130t-154 46
q-58 0 -99 -15q-40 -15 -67 -39t-42 -54q-18 -36 -24 -60l-38 6q6 30 21 65q14 34 46 66q30 30 80 51q49 21 123 21q123 0 185 -58q63 -59 63 -157q0 -79 -37 -128q-39 -51 -96 -71q65 -16 107 -75q42 -58 42 -146q0 -110 -70 -174t-198 -64q-79 0 -134 23q-54 22 -87 57
q-31 32 -47 76q-15 40 -15 76h39z" />
    <glyph glyph-name="twothirds" unicode="&#x2154;" horiz-adv-x="1800" 
d="M584 0h-47l727 1415h47zM152 635l194 168q80 70 139 129q56 56 88 101q34 48 47 88t13 85q0 91 -50 144t-155 53q-56 0 -97 -15q-40 -15 -68 -41q-26 -25 -44 -57q-17 -30 -24 -63l-39 6q8 37 25 71q17 35 49 68q30 32 80 52q49 20 118 20q120 0 185 -66q65 -67 65 -168
q0 -53 -18 -101q-20 -52 -54 -99q-43 -58 -93 -107q-56 -55 -136 -127l-158 -137h465l-12 -41h-520v37zM1114 207q2 -36 16 -69q15 -34 41 -60t73 -44q46 -18 114 -18q108 0 166 50q57 49 57 147q0 99 -52 148q-54 51 -128 51h-133v39h121q79 0 128 47q48 46 48 133
q0 84 -49 130t-154 46q-58 0 -99 -15q-40 -15 -67 -39t-42 -54q-18 -36 -24 -60l-38 6q6 30 21 65q14 34 46 66q30 30 80 51q49 21 123 21q123 0 185 -58q63 -59 63 -157q0 -79 -37 -128q-39 -51 -96 -71q65 -16 107 -75q42 -58 42 -146q0 -110 -70 -174t-198 -64
q-79 0 -134 23q-54 22 -87 57q-31 32 -47 76q-15 40 -15 76h39z" />
    <glyph glyph-name="onefifth" unicode="&#x2155;" horiz-adv-x="1800" 
d="M442 0h-47l727 1415h47zM346 1372l-231 -119l-19 35l250 129h43v-819h-43v774zM1190 780l-27 -334q40 35 93 56q51 20 124 20q132 0 196 -73t64 -201q0 -134 -69 -203q-70 -70 -197 -70q-112 0 -183 56t-83 157h39q17 -90 77 -131q61 -41 150 -41q112 0 167 61
q54 60 54 171q0 113 -51 173t-164 60q-71 0 -128 -22q-56 -22 -95 -68h-39l35 430h434v-41h-397z" />
    <glyph glyph-name="twofifths" unicode="&#x2156;" horiz-adv-x="1800" 
d="M580 0h-48l728 1415h47zM152 635l194 168q80 70 139 129q56 56 88 101q34 48 47 88t13 85q0 91 -50 144t-155 53q-56 0 -97 -15q-40 -15 -68 -41q-26 -25 -44 -57q-17 -30 -24 -63l-39 6q8 37 25 71q17 35 49 68q30 32 80 52q49 20 118 20q120 0 185 -66q65 -67 65 -168
q0 -53 -18 -101q-20 -52 -54 -99q-43 -58 -93 -107q-56 -55 -136 -127l-158 -137h465l-12 -41h-520v37zM1190 780l-27 -334q40 35 93 56q51 20 124 20q132 0 196 -73t64 -201q0 -134 -69 -203q-70 -70 -197 -70q-112 0 -183 56t-83 157h39q17 -90 77 -131q61 -41 150 -41
q112 0 167 61q54 60 54 171q0 113 -51 173t-164 60q-71 0 -128 -22q-56 -22 -95 -68h-39l35 430h434v-41h-397z" />
    <glyph glyph-name="threefifths" unicode="&#x2157;" horiz-adv-x="1800" 
d="M557 0h-47l727 1415h47zM1190 780l-27 -334q40 35 93 56q51 20 124 20q132 0 196 -73t64 -201q0 -134 -69 -203q-70 -70 -197 -70q-112 0 -183 56t-83 157h39q17 -90 77 -131q61 -41 150 -41q112 0 167 61q54 60 54 171q0 113 -51 173t-164 60q-71 0 -128 -22
q-56 -22 -95 -68h-39l35 430h434v-41h-397zM160 803q2 -36 16 -69q15 -34 41 -60t73 -44q46 -18 113 -18q108 0 166 50t58 147q0 98 -53 148q-54 51 -128 51h-133v39h121q79 0 128 47q48 46 48 133q0 84 -49 130t-153 46q-60 0 -100 -15q-38 -14 -66 -39q-27 -24 -42 -54
q-18 -36 -24 -60l-39 6q5 25 22 65q14 34 46 66q30 30 80 51q49 21 123 21q121 0 185 -59q62 -58 62 -156q0 -79 -37 -128q-39 -51 -96 -71q66 -16 108 -75t42 -146q0 -110 -70 -174t-199 -64q-79 0 -134 23q-54 22 -87 57q-31 32 -47 76q-14 38 -14 76h39z" />
    <glyph glyph-name="fourfifths" unicode="&#x2158;" horiz-adv-x="1800" 
d="M563 0h-47l727 1415h47zM1190 780l-27 -334q40 35 93 56q51 20 124 20q132 0 196 -73t64 -201q0 -134 -69 -203q-70 -70 -197 -70q-112 0 -183 56t-83 157h39q17 -90 77 -131q61 -41 150 -41q112 0 167 61q54 60 54 171q0 113 -51 173t-164 60q-71 0 -128 -22
q-56 -22 -95 -68h-39l35 430h434v-41h-397zM145 862l426 555h41v-547h103l-13 -41h-90v-231h-43v231h-424v33zM569 870v480l-368 -480h368z" />
    <glyph glyph-name="onesixth" unicode="&#x2159;" horiz-adv-x="1800" 
d="M477 0h-47l727 1415h47zM346 1372l-231 -119l-19 35l250 129h43v-819h-43v774zM1151 365q23 70 90 114q65 43 164 43q77 0 126 -24q50 -24 80 -65t42 -88q12 -48 12 -93q0 -124 -75 -201q-75 -76 -197 -76q-76 0 -129 29q-52 28 -87 80q-34 50 -51 124q-16 70 -16 163
q0 140 26 233q27 96 67 146q43 53 96 74q57 22 112 22q98 0 154 -49q57 -49 73 -125l-39 -8q-22 76 -68 108q-47 33 -118 33q-52 0 -100 -20t-83 -67q-37 -50 -58 -134q-21 -86 -21 -219zM1389 18q101 0 166 60t65 176q0 43 -10 82q-11 42 -36 73q-24 30 -67 52
q-39 20 -102 20q-47 0 -90 -12q-42 -12 -77 -39q-34 -27 -53 -66q-20 -42 -20 -98q0 -40 12 -83q13 -47 36 -81q24 -35 69 -60q44 -24 107 -24z" />
    <glyph glyph-name="fivesixths" unicode="&#x215a;" horiz-adv-x="1800" 
d="M578 0h-48l727 1415h48zM1151 365q23 70 90 114q65 43 164 43q77 0 126 -24q50 -24 80 -65t42 -88q12 -48 12 -93q0 -124 -75 -201q-75 -76 -197 -76q-76 0 -129 29q-52 28 -87 80q-34 50 -51 124q-16 70 -16 163q0 140 26 233q27 96 67 146q43 53 96 74q57 22 112 22
q98 0 154 -49q57 -49 73 -125l-39 -8q-22 76 -68 108q-47 33 -118 33q-52 0 -100 -20t-83 -67q-37 -50 -58 -134q-21 -86 -21 -219zM1389 18q101 0 166 60t65 176q0 43 -10 82q-11 42 -36 73q-24 30 -67 52q-39 20 -102 20q-47 0 -90 -12q-42 -12 -77 -39q-34 -27 -53 -66
q-20 -42 -20 -98q0 -40 12 -83q13 -47 36 -81q24 -35 69 -60q44 -24 107 -24zM242 1376l-27 -334q40 35 93 56q51 20 124 20q131 0 196 -74q64 -73 64 -200q0 -134 -69 -203q-70 -70 -197 -70q-112 0 -183 56t-83 157h39q17 -91 76 -131q61 -41 151 -41q112 0 167 61
q54 60 54 171q0 113 -51 173t-164 60q-71 0 -128 -22q-56 -22 -95 -68h-39l35 430h434v-41h-397z" />
    <glyph glyph-name="oneeighth" unicode="&#x215b;" horiz-adv-x="1800" 
d="M459 0h-47l727 1415h47zM346 1372l-231 -119l-19 35l250 129h43v-819h-43v774zM1378 -25q-139 0 -214 63q-74 62 -74 167q0 53 18 92q18 38 47 63t62 38q33 14 61 18q-73 18 -116 72q-44 55 -44 135q0 95 67 160t195 65q65 0 116 -19q46 -17 81 -49q33 -30 48 -71
q15 -40 15 -86q0 -85 -46 -137t-113 -68q24 -4 60 -18q35 -14 62 -39q28 -26 47 -63t19 -93q0 -104 -75 -167t-216 -63zM1378 16q123 0 185 53q61 52 61 136q0 86 -62 138t-188 52q-117 0 -178 -52t-61 -138t61 -137q63 -52 182 -52zM1378 436q56 0 99 16q39 14 67 41
q27 26 39 58q12 33 12 70t-12 72t-39 60q-26 25 -67 40q-38 14 -99 14q-109 0 -161 -52q-54 -54 -54 -134q0 -34 13 -70q12 -34 38 -58q28 -26 68 -41q43 -16 96 -16z" />
    <glyph glyph-name="threeeighths" unicode="&#x215c;" horiz-adv-x="1800" 
d="M559 0h-47l727 1415h47zM1378 -25q-139 0 -214 63q-74 62 -74 167q0 53 18 92q18 38 47 63t62 38q33 14 61 18q-73 18 -116 72q-44 55 -44 135q0 95 67 160t195 65q65 0 116 -19q46 -17 81 -49q33 -30 48 -71q15 -40 15 -86q0 -85 -46 -137t-113 -68q24 -4 60 -18
q35 -14 62 -39q28 -26 47 -63t19 -93q0 -104 -75 -167t-216 -63zM1378 16q123 0 185 53q61 52 61 136q0 86 -62 138t-188 52q-117 0 -178 -52t-61 -138t61 -137q63 -52 182 -52zM1378 436q56 0 99 16q39 14 67 41q27 26 39 58q12 33 12 70t-12 72t-39 60q-26 25 -67 40
q-38 14 -99 14q-109 0 -161 -52q-54 -54 -54 -134q0 -34 13 -70q12 -34 38 -58q28 -26 68 -41q43 -16 96 -16zM160 803q2 -36 16 -69q15 -34 41 -60t73 -44q46 -18 113 -18q108 0 166 50t58 147q0 98 -53 148q-54 51 -128 51h-133v39h121q79 0 128 47q48 46 48 133
q0 84 -49 130t-153 46q-60 0 -100 -15q-38 -14 -66 -39q-27 -24 -42 -54q-18 -36 -24 -60l-39 6q5 25 22 65q14 34 46 66q30 30 80 51q49 21 123 21q121 0 185 -59q62 -58 62 -156q0 -79 -37 -128q-39 -51 -96 -71q66 -16 108 -75t42 -146q0 -110 -70 -174t-199 -64
q-79 0 -134 23q-54 22 -87 57q-31 32 -47 76q-14 38 -14 76h39z" />
    <glyph glyph-name="fiveeighths" unicode="&#x215d;" horiz-adv-x="1800" 
d="M569 0h-47l727 1415h47zM242 1376l-27 -334q40 35 93 56q51 20 124 20q131 0 196 -74q64 -73 64 -200q0 -134 -69 -203q-70 -70 -197 -70q-112 0 -183 56t-83 157h39q17 -91 76 -131q61 -41 151 -41q112 0 167 61q54 60 54 171q0 113 -51 173t-164 60q-71 0 -128 -22
q-56 -22 -95 -68h-39l35 430h434v-41h-397zM1378 -25q-139 0 -214 63q-74 62 -74 167q0 53 18 92q18 38 47 63t62 38q33 14 61 18q-73 18 -116 72q-44 55 -44 135q0 95 67 160t195 65q65 0 116 -19q46 -17 81 -49q33 -30 48 -71q15 -40 15 -86q0 -85 -46 -137t-113 -68
q24 -4 60 -18q35 -14 62 -39q28 -26 47 -63t19 -93q0 -104 -75 -167t-216 -63zM1378 16q123 0 185 53q61 52 61 136q0 86 -62 138t-188 52q-117 0 -178 -52t-61 -138t61 -137q63 -52 182 -52zM1378 436q56 0 99 16q39 14 67 41q27 26 39 58q12 33 12 70t-12 72t-39 60
q-26 25 -67 40q-38 14 -99 14q-109 0 -161 -52q-54 -54 -54 -134q0 -34 13 -70q12 -34 38 -58q28 -26 68 -41q43 -16 96 -16z" />
    <glyph glyph-name="seveneighths" unicode="&#x215e;" horiz-adv-x="1800" 
d="M469 0h-47l727 1415h47zM1378 -25q-139 0 -214 63q-74 62 -74 167q0 53 18 92q18 38 47 63t62 38q33 14 61 18q-73 18 -116 72q-44 55 -44 135q0 95 67 160t195 65q65 0 116 -19q46 -17 81 -49q33 -30 48 -71q15 -40 15 -86q0 -85 -46 -137t-113 -68q24 -4 60 -18
q35 -14 62 -39q28 -26 47 -63t19 -93q0 -104 -75 -167t-216 -63zM1378 16q123 0 185 53q61 52 61 136q0 86 -62 138t-188 52q-117 0 -178 -52t-61 -138t61 -137q63 -52 182 -52zM1378 436q56 0 99 16q39 14 67 41q27 26 39 58q12 33 12 70t-12 72t-39 60q-26 25 -67 40
q-38 14 -99 14q-109 0 -161 -52q-54 -54 -54 -134q0 -34 13 -70q12 -34 38 -58q28 -26 68 -41q43 -16 96 -16zM315 598q31 111 68 219q33 97 74 194q35 83 83 181q38 78 93 184h-510v41h555v-37q-98 -179 -181 -380q-82 -198 -137 -402h-45z" />
    <glyph glyph-name="partialdiff" unicode="&#x2202;" horiz-adv-x="1148" 
d="M563 874q89 0 161 -24q73 -24 126 -70q55 -47 85 -104q32 -61 38 -129q9 74 14 131q6 72 6 153q0 173 -27 285q-26 109 -78 178q-48 64 -119 92q-69 27 -151 27q-136 0 -219 -66q-81 -65 -125 -210l-38 8q24 91 64 150q41 61 90 95q48 33 111 49q60 15 124 15
q86 0 162 -29q75 -29 132 -99q57 -71 87 -190q30 -120 30 -302q0 -94 -9 -195q-8 -94 -34 -198q-24 -97 -63 -183q-40 -87 -101 -153q-62 -67 -144 -104q-84 -38 -193 -38q-90 0 -164 30t-126 85q-52 56 -81 132q-29 78 -29 169q0 78 28 170q26 86 85 162q56 72 146 118
q88 45 212 45zM492 4q106 0 190 45q83 45 142 117q57 71 88 158q30 86 30 168q0 88 -34 153q-35 67 -87 107t-123 60q-67 19 -139 19q-107 0 -184 -38q-79 -39 -132 -104q-52 -64 -79 -145t-27 -165q0 -81 25 -153q23 -67 70 -117q48 -51 112 -77q68 -28 148 -28z" />
    <glyph glyph-name="Delta" unicode="&#x2206;" horiz-adv-x="1292" 
d="M51 0l570 1462h51l569 -1462h-1190zM117 43h1057l-529 1372z" />
    <glyph glyph-name="product" unicode="&#x220f;" horiz-adv-x="1333" 
d="M176 1462h981v-1462h-43v1425h-895v-1425h-43v1462z" />
    <glyph glyph-name="summation" unicode="&#x2211;" horiz-adv-x="1130" 
d="M82 -168l508 807l-500 780v43h975v-43h-926l502 -778l-510 -807h959l-15 -43h-993v41z" />
    <glyph glyph-name="minus" unicode="&#x2212;" horiz-adv-x="1212" 
d="M170 717h872v-41h-872v41z" />
    <glyph glyph-name="uni2215" unicode="&#x2215;" horiz-adv-x="98" 
d="M-291 0h-47l727 1415h47z" />
    <glyph glyph-name="uni2219" unicode="&#x2219;" horiz-adv-x="331" 
d="M143 864h43v-198h-43v198z" />
    <glyph glyph-name="radical" unicode="&#x221a;" horiz-adv-x="1069" 
d="M217 727l293 -678l528 1448h41l-547 -1497h-45l-297 686h-159v41h186z" />
    <glyph glyph-name="infinity" unicode="&#x221e;" horiz-adv-x="1220" 
d="M586 700q-17 58 -35 99q-21 48 -51 88q-30 39 -74 63q-45 25 -100 25q-100 0 -156 -75q-55 -74 -55 -200q0 -125 55 -199q56 -75 156 -75q55 0 100 25q44 24 74 63q30 40 51 88q19 44 35 98zM610 645q-16 -50 -41 -99q-22 -43 -59 -83q-32 -35 -81 -57q-47 -21 -103 -21
q-116 0 -185 82q-69 83 -69 233q0 158 71 236q72 80 183 80q54 0 103 -22q47 -21 81 -57q35 -37 59 -83q25 -48 41 -98q16 50 41 98q23 44 60 83q34 36 80 57q47 22 104 22q110 0 182 -80t72 -236q0 -152 -71 -234q-70 -81 -183 -81q-57 0 -104 22q-46 21 -80 57
q-38 40 -60 82q-25 49 -41 99zM635 700q16 -54 35 -98q21 -48 51 -88q30 -39 74 -63q45 -25 100 -25q101 0 156 75q55 74 55 199t-54 200t-157 75q-55 0 -100 -25q-44 -24 -74 -63q-30 -40 -51 -88q-17 -41 -35 -99z" />
    <glyph glyph-name="integral" unicode="&#x222b;" horiz-adv-x="579" 
d="M483 1419q-46 19 -96 19q-77 0 -118 -48q-40 -47 -40 -135q0 -18 1 -28q2 -20 3 -31l156 -1159q1 -5 2 -14.5t1 -14.5q1 -10 1 -28q0 -101 -52 -163q-52 -63 -148 -63q-35 0 -62 6q-24 5 -49 17l14 37q46 -19 97 -19q77 0 117 48q40 47 40 134q0 19 -1 29q-2 20 -3 31
l-156 1159q0 5 -1 14.5t-2 14.5q-1 10 -1 28q0 99 52 163q51 63 149 63q35 0 62 -6q24 -5 49 -17z" />
    <glyph glyph-name="approxequal" unicode="&#x2248;" horiz-adv-x="1212" 
d="M135 782q0 90 24 147q25 59 57 87q35 30 74 42q37 11 72 11q81 0 140 -43q60 -44 112 -94q48 -47 110 -94q56 -43 132 -43q33 0 63 10q31 10 57 38q24 25 43 75q17 44 17 122h43q0 -91 -23 -146q-24 -58 -58 -87q-36 -31 -73 -42t-73 -11q-80 0 -139 43q-64 46 -113 94
q-48 47 -110 94q-56 43 -132 43q-32 0 -62 -10q-31 -10 -57 -38q-24 -25 -43 -75q-18 -47 -18 -123h-43zM135 309q0 90 24 147q25 59 57 87q35 30 74 42q37 11 72 11q81 0 140 -43q60 -44 112 -94q48 -47 110 -94q56 -43 132 -43q33 0 63 10q31 10 57 38q24 26 43 74
q17 44 17 123h43q0 -91 -23 -146q-24 -58 -58 -87q-36 -31 -73 -42t-73 -11q-80 0 -139 43q-64 46 -113 94q-48 47 -110 94q-56 43 -132 43q-32 0 -62 -10q-31 -10 -57 -38q-24 -25 -43 -75q-18 -46 -18 -123h-43z" />
    <glyph glyph-name="notequal" unicode="&#x2260;" horiz-adv-x="1212" 
d="M170 948h563l146 242h47l-146 -242h262v-41h-286l-254 -422h540v-41h-565l-143 -241h-47l145 241h-262v41h287l252 422h-539v41z" />
    <glyph glyph-name="lessequal" unicode="&#x2264;" horiz-adv-x="1212" 
d="M215 694l838 -434v-47l-895 463v35l895 465v-46zM158 41h895v-41h-895v41z" />
    <glyph glyph-name="greaterequal" unicode="&#x2265;" horiz-adv-x="1212" 
d="M160 258l835 436l-835 434v48l895 -463v-35l-895 -465v45zM160 41h895v-41h-895v41z" />
    <glyph glyph-name="lozenge" unicode="&#x25ca;" horiz-adv-x="1210" 
d="M582 1462h47l489 -731l-489 -731h-47l-490 731zM604 43l463 688l-463 688l-461 -688z" />
    <glyph glyph-name="fi" unicode="&#xf001;" horiz-adv-x="989" 
d="M209 1006h-162v41h162v131q0 75 21 132q20 55 61 94q40 39 91 56q55 19 114 19q30 0 67 -6q36 -6 68 -17l-10 -39q-39 12 -61 16q-30 5 -64 5q-112 0 -179 -65q-65 -64 -65 -193v-133h326v-41h-326v-1006h-43v1006zM795 1047h43v-1047h-43v1047zM795 1462h43v-188h-43
v188z" />
    <glyph glyph-name="fl" unicode="&#xf002;" horiz-adv-x="997" 
d="M209 1006h-162v41h162v131q0 75 21 132q20 55 61 94q40 39 91 56q55 19 114 19q30 0 67 -6q36 -6 68 -17l-10 -39q-39 12 -61 16q-30 5 -64 5q-112 0 -179 -65q-65 -64 -65 -193v-133h326v-41h-326v-1006h-43v1006zM803 1462h43v-1462h-43v1462z" />
    <glyph glyph-name="oneseventh" unicode="&#xf506;" horiz-adv-x="1800" 
d="M432 0h-47l727 1415h47zM346 1372l-231 -119l-19 35l250 129h43v-819h-43v774zM1282 2q31 111 68 219q38 110 73 194q35 83 83 181q38 78 93 184h-509v41h555v-37q-102 -187 -182 -380q-80 -192 -136 -402h-45z" />
    <glyph glyph-name="twosevenths" unicode="&#xf507;" horiz-adv-x="1800" 
d="M551 0h-47l727 1415h47zM152 635l194 168q80 70 139 129q56 56 88 101q34 48 47 88t13 85q0 91 -50 144t-155 53q-56 0 -97 -15q-40 -15 -68 -41q-26 -25 -44 -57q-17 -30 -24 -63l-39 6q8 37 25 71q17 35 49 68q30 32 80 52q49 20 118 20q120 0 185 -66q65 -67 65 -168
q0 -53 -18 -101q-20 -52 -54 -99q-43 -58 -93 -107q-56 -55 -136 -127l-158 -137h465l-12 -41h-520v37zM1282 2q31 111 68 219q38 110 73 194q35 83 83 181q38 78 93 184h-509v41h555v-37q-102 -187 -182 -380q-80 -192 -136 -402h-45z" />
    <glyph glyph-name="threesevenths" unicode="&#xf508;" horiz-adv-x="1800" 
d="M520 0h-47l727 1415h47zM1282 2q31 111 68 219q38 110 73 194q35 83 83 181q38 78 93 184h-509v41h555v-37q-102 -187 -182 -380q-80 -192 -136 -402h-45zM160 803q2 -36 16 -69q15 -34 41 -60t73 -44q46 -18 113 -18q108 0 166 50t58 147q0 98 -53 148q-54 51 -128 51
h-133v39h121q79 0 128 47q48 46 48 133q0 84 -49 130t-153 46q-60 0 -100 -15q-38 -14 -66 -39q-27 -24 -42 -54q-18 -36 -24 -60l-39 6q5 25 22 65q14 34 46 66q30 30 80 51q49 21 123 21q121 0 185 -59q62 -58 62 -156q0 -79 -37 -128q-39 -51 -96 -71q66 -16 108 -75
t42 -146q0 -110 -70 -174t-199 -64q-79 0 -134 23q-54 22 -87 57q-31 32 -47 76q-14 38 -14 76h39z" />
    <glyph glyph-name="foursevenths" unicode="&#xf509;" horiz-adv-x="1800" 
d="M522 0h-47l727 1415h47zM145 862l426 555h41v-547h103l-13 -41h-90v-231h-43v231h-424v33zM569 870v480l-368 -480h368zM1282 2q31 111 68 219q38 110 73 194q35 83 83 181q38 78 93 184h-509v41h555v-37q-102 -187 -182 -380q-80 -192 -136 -402h-45z" />
    <glyph glyph-name="fivesevenths" unicode="&#xf50a;" horiz-adv-x="1800" 
d="M526 0h-47l727 1415h47zM242 1376l-27 -334q40 35 93 56q51 20 124 20q131 0 196 -74q64 -73 64 -200q0 -134 -69 -203q-70 -70 -197 -70q-112 0 -183 56t-83 157h39q17 -91 76 -131q61 -41 151 -41q112 0 167 61q54 60 54 171q0 113 -51 173t-164 60q-71 0 -128 -22
q-56 -22 -95 -68h-39l35 430h434v-41h-397zM1282 2q31 111 68 219q38 110 73 194q35 83 83 181q38 78 93 184h-509v41h555v-37q-102 -187 -182 -380q-80 -192 -136 -402h-45z" />
    <glyph glyph-name="sixsevenths" unicode="&#xf50b;" horiz-adv-x="1800" 
d="M532 0h-47l727 1415h48zM197 961q23 70 90 114q65 43 164 43q77 0 126 -24q48 -23 79 -65q30 -41 42 -88q13 -52 13 -93q0 -124 -75 -201q-75 -76 -198 -76q-76 0 -129 29q-52 28 -87 80q-33 48 -50 124q-16 70 -16 163q0 143 25 233q26 94 68 146q43 53 96 74
q57 22 112 22q97 0 153 -49q58 -50 74 -125l-39 -8q-22 76 -68 108q-47 33 -118 33q-53 0 -101 -20t-83 -67q-36 -48 -57 -134t-21 -219zM434 614q102 0 167 60t65 176q0 40 -11 82q-11 44 -35 73q-24 30 -67 52q-39 20 -102 20q-47 0 -91 -12q-40 -11 -76 -39
q-35 -27 -54 -67q-19 -39 -19 -97q0 -43 11 -83q12 -45 37 -81q24 -35 69 -60q44 -24 106 -24zM1282 2q31 111 68 219q38 110 73 194q35 83 83 181q38 78 93 184h-509v41h555v-37q-102 -187 -182 -380q-80 -192 -136 -402h-45z" />
    <glyph glyph-name="oneninth" unicode="&#xf50c;" horiz-adv-x="1800" 
d="M459 0h-47l727 1415h47zM346 1372l-231 -119l-19 35l250 129h43v-819h-43v774zM1368 16q56 0 102 20t78 68q31 47 50 137q18 87 18 216q-24 -71 -89 -115q-64 -43 -165 -43q-74 0 -126 25q-51 25 -80 64q-30 40 -42 87q-12 46 -12 94q0 125 75 201t197 76q144 0 214 -106
q69 -105 69 -289q0 -136 -22 -232q-21 -92 -60 -146q-40 -56 -91 -76q-55 -22 -114 -22q-57 0 -103 16q-44 15 -74 42t-46 61q-17 36 -23 74h41q21 -82 72 -117q52 -35 131 -35zM1378 803q-101 0 -167 -61q-64 -60 -64 -175q0 -43 10 -82q10 -40 36 -73t67 -53
q39 -19 102 -19q46 0 90 12q41 11 77 38q32 24 53 67q20 42 20 98q0 39 -12 83q-12 45 -37 81q-24 36 -68 60t-107 24z" />
    <glyph glyph-name="twoninths" unicode="&#xf50d;" horiz-adv-x="1800" 
d="M598 0h-47l727 1415h47zM152 635l194 168q80 70 139 129q56 56 88 101q34 48 47 88t13 85q0 91 -50 144t-155 53q-56 0 -97 -15q-40 -15 -68 -41q-26 -25 -44 -57q-17 -30 -24 -63l-39 6q8 37 25 71q17 35 49 68q30 32 80 52q49 20 118 20q120 0 185 -66q65 -67 65 -168
q0 -53 -18 -101q-20 -52 -54 -99q-43 -58 -93 -107q-56 -55 -136 -127l-158 -137h465l-12 -41h-520v37zM1368 16q56 0 102 20t78 68q31 47 50 137q18 87 18 216q-24 -71 -89 -115q-64 -43 -165 -43q-74 0 -126 25q-51 25 -80 64q-30 40 -42 87q-12 46 -12 94q0 125 75 201
t197 76q144 0 214 -106q69 -105 69 -289q0 -136 -22 -232q-21 -92 -60 -146q-40 -56 -91 -76q-55 -22 -114 -22q-57 0 -103 16q-44 15 -74 42t-46 61q-17 36 -23 74h41q21 -82 72 -117q52 -35 131 -35zM1378 803q-101 0 -167 -61q-64 -60 -64 -175q0 -43 10 -82
q10 -40 36 -73t67 -53q39 -19 102 -19q46 0 90 12q41 11 77 38q32 24 53 67q20 42 20 98q0 39 -12 83q-12 45 -37 81q-24 36 -68 60t-107 24z" />
    <glyph glyph-name="fourninths" unicode="&#xf50e;" horiz-adv-x="1800" 
d="M569 0h-47l727 1415h47zM145 862l426 555h41v-547h103l-13 -41h-90v-231h-43v231h-424v33zM569 870v480l-368 -480h368zM1368 16q56 0 102 20t78 68q31 47 50 137q18 87 18 216q-24 -71 -89 -115q-64 -43 -165 -43q-74 0 -126 25q-51 25 -80 64q-30 40 -42 87
q-12 46 -12 94q0 125 75 201t197 76q144 0 214 -106q69 -105 69 -289q0 -136 -22 -232q-21 -92 -60 -146q-40 -56 -91 -76q-55 -22 -114 -22q-57 0 -103 16q-44 15 -74 42t-46 61q-17 36 -23 74h41q21 -82 72 -117q52 -35 131 -35zM1378 803q-101 0 -167 -61
q-64 -60 -64 -175q0 -43 10 -82q10 -40 36 -73t67 -53q39 -19 102 -19q46 0 90 12q41 11 77 38q32 24 53 67q20 42 20 98q0 39 -12 83q-12 45 -37 81q-24 36 -68 60t-107 24z" />
    <glyph glyph-name="fiveninths" unicode="&#xf50f;" horiz-adv-x="1800" 
d="M567 0h-47l727 1415h47zM242 1376l-27 -334q40 35 93 56q51 20 124 20q131 0 196 -74q64 -73 64 -200q0 -134 -69 -203q-70 -70 -197 -70q-112 0 -183 56t-83 157h39q17 -91 76 -131q61 -41 151 -41q112 0 167 61q54 60 54 171q0 113 -51 173t-164 60q-71 0 -128 -22
q-56 -22 -95 -68h-39l35 430h434v-41h-397zM1368 16q56 0 102 20t78 68q31 47 50 137q18 87 18 216q-24 -71 -89 -115q-64 -43 -165 -43q-74 0 -126 25q-51 25 -80 64q-30 40 -42 87q-12 46 -12 94q0 125 75 201t197 76q144 0 214 -106q69 -105 69 -289q0 -136 -22 -232
q-21 -92 -60 -146q-40 -56 -91 -76q-55 -22 -114 -22q-57 0 -103 16q-44 15 -74 42t-46 61q-17 36 -23 74h41q21 -82 72 -117q52 -35 131 -35zM1378 803q-101 0 -167 -61q-64 -60 -64 -175q0 -43 10 -82q10 -40 36 -73t67 -53q39 -19 102 -19q46 0 90 12q41 11 77 38
q32 24 53 67q20 42 20 98q0 39 -12 83q-12 45 -37 81q-24 36 -68 60t-107 24z" />
    <glyph glyph-name="sevenninths" unicode="&#xf510;" horiz-adv-x="1800" 
d="M463 0h-47l727 1415h47zM315 598q31 111 68 219q33 97 74 194q35 83 83 181q38 78 93 184h-510v41h555v-37q-98 -179 -181 -380q-82 -198 -137 -402h-45zM1368 16q56 0 102 20t78 68q31 47 50 137q18 87 18 216q-24 -71 -89 -115q-64 -43 -165 -43q-74 0 -126 25
q-51 25 -80 64q-30 40 -42 87q-12 46 -12 94q0 125 75 201t197 76q144 0 214 -106q69 -105 69 -289q0 -136 -22 -232q-21 -92 -60 -146q-40 -56 -91 -76q-55 -22 -114 -22q-57 0 -103 16q-44 15 -74 42t-46 61q-17 36 -23 74h41q21 -82 72 -117q52 -35 131 -35zM1378 803
q-101 0 -167 -61q-64 -60 -64 -175q0 -43 10 -82q10 -40 36 -73t67 -53q39 -19 102 -19q46 0 90 12q41 11 77 38q32 24 53 67q20 42 20 98q0 39 -12 83q-12 45 -37 81q-24 36 -68 60t-107 24z" />
    <glyph glyph-name="eightninths" unicode="&#xf511;" horiz-adv-x="1800" 
d="M573 0h-47l727 1415h47zM422 571q-139 0 -214 63t-75 167q0 51 19 92q18 38 47 63q30 25 61 38q33 13 62 18q-73 18 -116 72q-44 55 -44 135q0 95 66 160q67 65 196 65q65 0 116 -19q46 -17 81 -49q33 -30 48 -71t15 -86q0 -85 -46 -137q-45 -51 -114 -68q26 -4 61 -18
q34 -13 61 -39q28 -26 47 -63q20 -38 20 -93q0 -104 -75 -167t-216 -63zM422 612q122 0 184 53t62 136q0 85 -63 138q-62 52 -187 52q-117 0 -178 -52q-62 -53 -62 -138q0 -86 62 -137q63 -52 182 -52zM422 1032q55 0 98 16q40 15 68 41q27 26 39 58q12 33 12 70t-12 72
t-39 60q-26 24 -68 40q-38 14 -98 14q-110 0 -162 -52q-53 -53 -53 -134q0 -37 12 -70q12 -32 39 -58q28 -26 68 -41q43 -16 96 -16zM1368 16q56 0 102 20t78 68q31 47 50 137q18 87 18 216q-24 -71 -89 -115q-64 -43 -165 -43q-74 0 -126 25q-51 25 -80 64q-30 40 -42 87
q-12 46 -12 94q0 125 75 201t197 76q144 0 214 -106q69 -105 69 -289q0 -136 -22 -232q-21 -92 -60 -146q-40 -56 -91 -76q-55 -22 -114 -22q-57 0 -103 16q-44 15 -74 42t-46 61q-17 36 -23 74h41q21 -82 72 -117q52 -35 131 -35zM1378 803q-101 0 -167 -61
q-64 -60 -64 -175q0 -43 10 -82q10 -40 36 -73t67 -53q39 -19 102 -19q46 0 90 12q41 11 77 38q32 24 53 67q20 42 20 98q0 39 -12 83q-12 45 -37 81q-24 36 -68 60t-107 24z" />
    <glyph glyph-name="zero.alt" unicode="&#xf800;" horiz-adv-x="1236" 
d="M123 709q0 187 35 330q35 142 99 233q65 92 157 137t204 45q114 0 205 -45q94 -46 157 -136q65 -92 99 -232q35 -143 35 -330q0 -190 -35 -333q-35 -142 -99 -233q-65 -92 -157 -137q-91 -45 -205 -45q-112 0 -204 45q-94 46 -157 136q-65 92 -99 232q-35 143 -35 333z
M170 709q0 -347 115 -526q114 -177 334 -177q219 0 333 177q115 179 115 526q0 350 -116 526t-333 176t-332 -177q-116 -178 -116 -525z" />
    <glyph glyph-name="one.alt" unicode="&#xf801;" horiz-adv-x="821" 
d="M489 1368l-385 -221l-20 37l405 231h46v-1415h-46v1368z" />
    <glyph glyph-name="two.alt" unicode="&#xf802;" horiz-adv-x="1097" 
d="M102 43l314 289q147 137 231 224q92 95 154 180q59 81 85 159q25 75 25 156q0 75 -21 141q-20 64 -67 115q-45 49 -113 76q-72 28 -161 28q-95 0 -165 -29q-71 -29 -116 -76t-75 -106q-27 -55 -43 -119l-41 11q15 63 44 123q31 65 81 118q51 54 133 88q79 33 182 33
q100 0 179 -31q76 -30 128 -85t77 -128q25 -72 25 -157q0 -93 -31 -176q-30 -80 -96 -171q-63 -87 -158 -185q-90 -93 -224 -216l-283 -262h803l-15 -43h-852v43z" />
    <glyph glyph-name="three.alt" unicode="&#xf803;" horiz-adv-x="1130" 
d="M147 358q4 -51 26 -114q21 -60 69 -115q47 -53 130 -88q84 -35 199 -35q197 0 294 96q98 96 98 269q0 94 -27 160q-28 68 -75 109t-111 61q-65 20 -136 20h-190v43h190q147 0 232 88q86 89 86 240t-91 235t-268 84q-101 0 -171 -27q-72 -28 -117 -68q-47 -42 -77 -101
q-29 -56 -44 -119l-41 10q11 55 37 112q27 61 79 114q52 54 136 88q83 34 200 34q103 0 182 -28q77 -27 126 -76q47 -47 72 -116q24 -66 24 -142q0 -133 -64 -223q-63 -88 -176 -126q128 -29 199 -122q72 -95 72 -250q0 -87 -26 -163q-25 -73 -80 -130q-53 -54 -137 -85
q-83 -30 -196 -30q-124 0 -215 38q-90 37 -144 96q-56 60 -79 126q-26 72 -27 135h41z" />
    <glyph glyph-name="four.alt" unicode="&#xf804;" horiz-adv-x="1146" 
d="M84 444l719 971h51v-971h213l-14 -43h-199v-401h-45v401h-725v43zM809 444v912l-676 -912h676z" />
    <glyph glyph-name="five.alt" unicode="&#xf805;" horiz-adv-x="1105" 
d="M156 334q21 -158 119 -243t280 -85q198 0 293 106q94 104 94 314q0 88 -18 164q-18 75 -62 133q-43 57 -116 90q-72 33 -181 33q-112 0 -205 -37q-94 -37 -170 -119h-45l56 725h710v-43h-671l-50 -629q62 63 158 104q99 42 223 42q112 0 193 -35q80 -34 129 -96
q49 -61 73 -147q23 -82 23 -185q0 -226 -108 -344q-108 -119 -324 -119q-194 0 -309 95t-133 276h41z" />
    <glyph glyph-name="six.alt" unicode="&#xf806;" horiz-adv-x="1155" 
d="M168 567q15 75 53 133q38 59 96 103q54 41 130 65q74 23 155 23q130 0 215 -42q87 -43 136 -108q51 -68 71 -146q20 -77 20 -157q0 -109 -31 -196q-31 -88 -90 -150q-57 -60 -143 -95q-83 -34 -186 -34q-126 0 -214 48q-89 48 -146 140q-54 87 -82 221q-27 130 -27 296
q0 231 42 384q41 150 112 241q69 89 158 125t186 36q87 0 152 -24q64 -24 109 -67q43 -41 70 -96q25 -50 41 -114l-41 -10q-40 143 -118 206q-77 62 -213 62q-91 0 -172 -34q-83 -35 -145 -117q-62 -83 -100 -228q-38 -146 -38 -364v-101zM594 6q86 0 160 27t128 81
q56 56 85 136q30 82 30 192q0 74 -18 146q-18 70 -65 130q-47 59 -121 94q-76 36 -193 36q-74 0 -147 -24q-75 -25 -131 -70q-57 -47 -94 -120q-36 -72 -36 -171q0 -72 20 -155q19 -78 67 -148q47 -68 123 -111t192 -43z" />
    <glyph glyph-name="seven.alt" unicode="&#xf807;" horiz-adv-x="1083" 
d="M369 0q59 202 104 337q55 167 123 336q70 177 148 342q78 166 182 357h-875v43h920v-43q-181 -329 -320 -674q-135 -336 -237 -698h-45z" />
    <glyph glyph-name="eight.alt" unicode="&#xf808;" horiz-adv-x="1206" 
d="M604 -37q-123 0 -218 29q-93 28 -156 81q-63 52 -94 124q-32 73 -32 157q0 95 36 161q37 68 88 109q50 40 114 65q62 24 111 30q-128 28 -214 123q-85 94 -85 229q0 79 27 148q27 70 84 122q58 54 142 83q86 30 199 30q112 0 200 -31q81 -29 140 -84q55 -52 82 -121
t27 -145q0 -71 -24 -130t-64 -103q-38 -43 -95 -75q-49 -28 -114 -44q44 -7 109 -31q63 -24 113 -65q51 -42 88 -110q36 -66 36 -161q0 -85 -32 -158t-95 -124t-157 -80q-95 -29 -216 -29zM604 6q111 0 198 26q85 25 142 72q58 47 85 111q28 65 28 139q0 71 -28 136
q-27 64 -84 110q-60 49 -141 73q-84 25 -200 25t-200 -25q-81 -24 -141 -73q-57 -46 -84 -110q-27 -63 -27 -136q0 -76 27 -140q26 -63 85 -111q54 -44 142 -71q86 -26 198 -26zM604 739q102 0 181 28q76 27 126 74q49 46 73 107q24 62 24 127q0 66 -24 126q-25 63 -73 108
q-50 47 -126 74q-79 28 -181 28t-181 -28q-77 -27 -126 -73t-73 -108q-23 -59 -23 -127t23 -127q24 -61 73 -107q50 -47 126 -74q79 -28 181 -28z" />
    <glyph glyph-name="nine.alt" unicode="&#xf809;" horiz-adv-x="1155" 
d="M557 6q103 0 181 34t135 118q59 87 88 227q30 144 30 365v100q-15 -75 -53 -133q-39 -60 -97 -103q-56 -42 -131 -65q-74 -23 -155 -23q-125 0 -213 42q-87 41 -137 108q-49 65 -70 145q-20 76 -20 158q0 110 31 197q30 85 91 149q57 60 142 95q83 34 186 34
q125 0 214 -48q90 -49 146 -139t83 -221q26 -126 26 -296q0 -232 -34 -380q-36 -155 -96 -241q-64 -92 -147 -128q-87 -38 -194 -38q-175 0 -281 86q-105 86 -122 236h43q12 -74 44 -127q31 -51 79 -87q46 -34 106 -49q64 -16 125 -16zM563 1411q-84 0 -159 -28
q-71 -27 -126 -80t-85 -136q-31 -85 -31 -192q0 -74 18 -146q17 -69 64 -130q45 -58 124 -94t191 -36q75 0 148 24t131 71q57 46 93 119q36 72 36 171q0 72 -20 155q-19 81 -67 149q-48 69 -128 111t-189 42z" />
    <glyph glyph-name="zero.sups" unicode="&#xf80a;" 
d="M139 1260q0 -209 80 -303q80 -93 203 -93q61 0 113 23t89 69q38 47 59 123q22 80 22 181q0 100 -22 179q-21 74 -59 123q-37 47 -89 70t-113 23q-60 0 -114 -23q-51 -22 -89 -69q-37 -46 -58 -123q-22 -80 -22 -180zM94 1260q0 110 25 196q24 82 68 135q45 54 104 79
q61 26 131 26q69 0 130 -26q59 -25 104 -79q46 -55 69 -135q25 -86 25 -196q0 -111 -25 -197q-23 -80 -69 -135q-45 -54 -104 -79q-61 -26 -130 -26q-70 0 -131 26q-59 25 -104 79q-44 53 -68 135q-25 86 -25 197z" />
    <glyph glyph-name="one.sups" unicode="&#xf80b;" 
d="M436 1624l-231 -119l-19 35l250 129h43v-819h-43v774z" />
    <glyph glyph-name="two.sups" unicode="&#xf80c;" 
d="M154 887l194 168q80 70 139 129q56 56 88 101q34 48 47 88t13 85q0 91 -50 144t-155 53q-54 0 -97 -16q-40 -15 -68 -41q-27 -26 -44 -56t-24 -63l-39 6q8 35 25 70q19 37 49 69t80 52q49 20 118 20q120 0 185 -66q65 -67 65 -168q0 -56 -17 -101q-19 -49 -55 -99
q-43 -58 -93 -107q-56 -55 -136 -127l-158 -137h465l-12 -41h-520v37z" />
    <glyph glyph-name="three.sups" unicode="&#xf80d;" 
d="M168 1055q2 -36 16 -69q15 -34 41 -60t73 -44q46 -18 114 -18q110 0 166 49q57 50 57 148q0 99 -52 148q-54 51 -128 51h-133v38h120q78 0 128 48q48 46 48 133q0 84 -49 130t-153 46q-57 0 -100 -16q-40 -15 -66 -38q-27 -24 -42 -54q-18 -36 -24 -60l-39 6q5 25 22 65
q14 34 46 66q30 30 80 51q49 21 123 21q121 0 185 -59q63 -58 63 -156q0 -79 -37 -128q-38 -50 -97 -71q66 -16 108 -75t42 -146q0 -110 -70 -174t-198 -64q-79 0 -134 23q-56 23 -88 57q-31 32 -47 76q-14 38 -14 76h39z" />
    <glyph glyph-name="four.sups" unicode="&#xf80e;" 
d="M121 1114l426 555h41v-547h102l-12 -41h-90v-231h-43v231h-424v33zM545 1122v480l-369 -480h369z" />
    <glyph glyph-name="five.sups" unicode="&#xf80f;" 
d="M244 1628l-27 -334q40 35 93 56q51 20 124 20q131 0 196 -74q64 -73 64 -200q0 -134 -69 -203q-70 -70 -197 -70q-112 0 -183 56t-83 157h39q17 -90 77 -131q61 -41 150 -41q112 0 167 61q54 60 54 171q0 113 -51 173t-164 60q-71 0 -128 -22q-56 -22 -95 -68h-39l35 430
h434v-41h-397z" />
    <glyph glyph-name="six.sups" unicode="&#xf810;" 
d="M201 1212q24 71 90 115q65 43 164 43q77 0 126 -24q48 -23 79 -65q30 -41 42 -88q13 -52 13 -93q0 -124 -75 -201q-75 -76 -198 -76q-76 0 -129 29q-52 28 -87 80q-33 48 -50 124q-16 70 -16 163q0 143 25 233q26 92 68 145q44 55 96 75q57 22 112 22q97 0 153 -49
q58 -50 74 -125l-39 -9q-23 77 -68 109q-46 33 -118 33q-53 0 -101 -20q-46 -19 -82 -67q-37 -50 -58 -134q-21 -86 -21 -220zM438 866q103 0 167 60q65 60 65 176q0 40 -11 82t-35 72q-25 31 -67 53q-39 20 -102 20q-47 0 -90 -12q-42 -12 -77 -39t-54 -67q-19 -39 -19 -97
q0 -43 11 -83q12 -45 37 -81q24 -35 69 -60q44 -24 106 -24z" />
    <glyph glyph-name="seven.sups" unicode="&#xf811;" 
d="M332 850q35 126 67 219q33 97 74 194q35 83 83 181q38 78 93 184h-510v41h555v-37q-98 -179 -181 -380q-80 -192 -136 -402h-45z" />
    <glyph glyph-name="eight.sups" unicode="&#xf812;" 
d="M422 823q-139 0 -214 63t-75 167q0 51 19 92q18 38 47 63q30 25 61 38q33 13 62 18q-73 18 -116 72q-44 55 -44 134q0 96 66 161q67 65 196 65q65 0 116 -19q46 -17 81 -49q32 -29 48 -72q15 -40 15 -86q0 -84 -46 -136q-45 -51 -114 -68q26 -4 61 -18q34 -13 61 -39
q28 -26 47 -63q20 -38 20 -93q0 -104 -75 -167t-216 -63zM422 864q123 0 184 52q62 53 62 137q0 85 -63 138q-62 52 -187 52q-117 0 -178 -52q-62 -53 -62 -138q0 -87 62 -138t182 -51zM422 1284q58 0 98 15t68 41q27 25 39 59q12 33 12 69q0 38 -12 73t-39 60
q-24 23 -68 39q-40 15 -98 15q-110 0 -162 -52q-53 -53 -53 -135q0 -36 12 -69q12 -34 39 -59q28 -26 68 -41t96 -15z" />
    <glyph glyph-name="nine.sups" unicode="&#xf813;" 
d="M395 864q57 0 103 20q45 19 77 68q33 49 51 137q17 82 17 216q-24 -71 -89 -115q-64 -43 -165 -43q-77 0 -126 24q-50 24 -80 65q-30 40 -42 87t-12 94q0 125 75 201t197 76q144 0 214 -106q69 -105 69 -290q0 -140 -21 -231q-21 -90 -61 -146t-91 -76q-55 -22 -114 -22
q-57 0 -103 16q-44 15 -74 42t-46 61q-16 33 -22 74h41q21 -83 71 -117q52 -35 131 -35zM405 1651q-100 0 -166 -61q-65 -60 -65 -175q0 -43 10 -82q10 -40 36 -73t67 -53q39 -19 102 -19q47 0 90 12q41 11 77 38q32 24 53 67q20 42 20 98q0 39 -12 83q-13 47 -36 81
q-24 35 -69 60q-43 24 -107 24z" />
    <glyph glyph-name="zero.sinf" unicode="&#xf814;" 
d="M139 162q0 -208 80 -302q79 -93 203 -93q63 0 113 22q51 22 89 70q38 47 59 123q22 80 22 180t-22 179q-21 74 -59 123q-38 48 -89 71q-50 22 -113 22t-114 -22q-50 -21 -89 -70q-37 -46 -58 -123q-22 -80 -22 -180zM94 162q0 110 25 196q24 83 68 136q43 52 104 78
t131 26q69 0 130 -26t104 -78q45 -55 69 -136q25 -86 25 -196q0 -111 -25 -197q-23 -80 -69 -135q-45 -54 -104 -79t-130 -25q-72 0 -131 25t-104 79q-44 53 -68 135q-25 86 -25 197z" />
    <glyph glyph-name="one.sinf" unicode="&#xf815;" 
d="M436 526l-231 -118l-19 34l250 129h43v-819h-43v774z" />
    <glyph glyph-name="two.sinf" unicode="&#xf816;" 
d="M154 -211l194 168q80 70 139 129q56 56 88 101q34 48 47 88t13 85q0 91 -50 144t-155 53q-57 0 -97 -15t-68 -41q-26 -25 -44 -57q-17 -30 -24 -63l-39 6q8 37 25 71q17 35 49 68t80 53q47 19 118 19q120 0 185 -66q65 -67 65 -167q0 -57 -17 -102q-19 -49 -55 -99
q-43 -58 -93 -107q-56 -55 -136 -127l-158 -137h465l-12 -41h-520v37z" />
    <glyph glyph-name="three.sinf" unicode="&#xf817;" 
d="M168 -43q2 -36 16 -69q15 -34 41 -60t73 -44q44 -17 114 -17q110 0 166 49q57 50 57 147q0 100 -52 149q-53 50 -128 50h-133v39h120q79 0 128 47q48 46 48 133q0 84 -49 130t-153 46q-60 0 -100 -15q-38 -14 -66 -39t-42 -53q-18 -35 -24 -61l-39 6q5 25 22 65
q14 34 46 66q31 31 80 52q47 20 123 20q123 0 185 -58q63 -59 63 -157q0 -79 -37 -128q-38 -50 -97 -71q67 -17 108 -74q42 -58 42 -147q0 -110 -70 -174q-69 -63 -198 -63q-81 0 -134 22q-56 23 -88 57q-31 32 -47 76q-14 38 -14 76h39z" />
    <glyph glyph-name="four.sinf" unicode="&#xf818;" 
d="M121 16l426 555h41v-546h102l-12 -41h-90v-232h-43v232h-424v32zM545 25v479l-369 -479h369z" />
    <glyph glyph-name="five.sinf" unicode="&#xf819;" 
d="M244 530l-27 -333q38 34 93 55q51 20 124 20q132 0 196 -73t64 -201q0 -134 -69 -203t-197 -69q-113 0 -183 55q-71 56 -83 158h39q17 -91 77 -132q59 -40 150 -40q113 0 167 60t54 171q0 113 -51 173t-164 60q-71 0 -128 -22q-56 -22 -95 -68h-39l35 430h434v-41h-397z
" />
    <glyph glyph-name="six.sinf" unicode="&#xf81a;" 
d="M201 115q23 70 90 114q65 43 164 43q77 0 126 -24q48 -23 79 -65q30 -41 42 -88q13 -52 13 -93q0 -124 -75 -201q-74 -75 -198 -75q-77 0 -129 28t-87 80q-33 48 -50 124q-16 70 -16 163q0 143 25 233q26 94 68 146q43 53 96 74q57 22 112 22q97 0 153 -49
q58 -50 74 -125l-39 -8q-22 76 -68 108q-47 33 -118 33q-56 0 -101 -19t-82 -68q-37 -50 -58 -134q-21 -86 -21 -219zM438 -231q104 0 167 59q65 60 65 176q0 40 -11 82q-11 44 -35 73q-24 30 -67 52q-39 20 -102 20q-47 0 -90 -12q-42 -12 -77 -39q-36 -28 -54 -66
q-19 -39 -19 -98q0 -43 11 -83q12 -43 37 -80t69 -61q42 -23 106 -23z" />
    <glyph glyph-name="seven.sinf" unicode="&#xf81b;" 
d="M332 -248q35 126 67 219q33 97 74 194q35 83 83 181q38 78 93 184h-510v41h555v-36q-98 -179 -181 -380q-79 -190 -136 -403h-45z" />
    <glyph glyph-name="eight.sinf" unicode="&#xf81c;" 
d="M422 -274q-140 0 -214 62q-75 63 -75 167q0 51 19 92q18 40 47 64q28 23 61 37q33 13 62 18q-72 18 -116 73t-44 134q0 95 66 160q67 65 196 65q68 0 116 -18q44 -17 81 -50q33 -30 48 -71t15 -86q0 -84 -46 -136q-46 -53 -114 -69q31 -5 61 -17q34 -13 61 -39
q27 -25 47 -64q20 -38 20 -93q0 -104 -75 -167q-74 -62 -216 -62zM422 -233q123 0 184 52q62 53 62 136q0 85 -63 138q-62 52 -187 52q-117 0 -178 -52q-62 -53 -62 -138q0 -86 62 -137t182 -51zM422 186q55 0 98 16q40 15 68 41q27 26 39 58q12 33 12 70t-12 72t-39 60
q-26 24 -68 40q-38 14 -98 14q-110 0 -162 -52q-53 -53 -53 -134q0 -37 12 -70q12 -32 39 -58q28 -26 68 -41q43 -16 96 -16z" />
    <glyph glyph-name="nine.sinf" unicode="&#xf81d;" 
d="M395 -233q59 0 103 19t77 69t51 136q17 82 17 216q-24 -71 -89 -115q-64 -43 -165 -43q-74 0 -126 25q-51 25 -80 64q-30 40 -42 87t-12 94q0 125 75 201t197 76q144 0 214 -106q69 -105 69 -289q0 -141 -21 -232q-21 -90 -61 -146t-91 -76q-53 -21 -114 -21
q-59 0 -103 15t-74 42t-46 61q-16 33 -22 74h41q21 -83 71 -117t131 -34zM405 553q-101 0 -166 -60t-65 -176q0 -42 10 -81q11 -41 36 -74q24 -31 67 -52q42 -20 102 -20q47 0 90 12q41 11 77 38q32 24 53 67q20 42 20 98q0 39 -12 83q-13 47 -36 81q-24 35 -69 60
q-44 24 -107 24z" />
    <glyph glyph-name="i.locl" horiz-adv-x="346" 
d="M152 1047h43v-1047h-43v1047zM152 1462h43v-188h-43v188z" />
    <glyph glyph-name="hungarumlaut.cap" horiz-adv-x="776" 
d="M162 1585h-47l209 252h53zM444 1585h-47l209 252h53z" />
    <glyph glyph-name="cedilla.cap" horiz-adv-x="776" 
d="M219 -350q19 -3 55 -7q27 -3 64 -3q89 0 130 19q42 19 42 71q0 48 -45 71q-46 23 -156 23h-30l61 176h41l-47 -137q62 -1 108 -11q42 -9 68 -28q25 -19 35 -42t10 -52q0 -42 -16 -67t-46 -40q-27 -14 -69 -20q-39 -6 -84 -6q-77 0 -121 10v43z" />
    <glyph glyph-name="tilde.cap" horiz-adv-x="776" 
d="M66 1602q0 78 46 125q47 49 119 49q51 0 90 -22q35 -19 72 -47q34 -25 70 -47t82 -22q32 0 58 13q24 12 37 31q12 17 20 43t8 47h43q0 -77 -47 -126t-121 -49q-50 0 -89 22t-73 47q-36 26 -71 47q-38 22 -83 22q-33 0 -57 -13q-23 -13 -36 -32q-13 -20 -19 -44t-6 -44
h-43z" />
    <glyph glyph-name="ogonek.cap" horiz-adv-x="776" 
d="M494 -340q-9 -1 -26 -3q-10 -1 -32 -1q-69 0 -111 33t-42 102q0 57 31 109q30 50 106 112l43 -12q-67 -52 -102 -100t-35 -103q0 -54 29 -77t83 -23q20 0 30 1q17 2 26 3v-41z" />
    <glyph glyph-name="ring.cap" horiz-adv-x="776" 
d="M514 1679q0 65 -36 100q-34 33 -91 33q-59 0 -92 -33q-35 -35 -35 -100t36 -99q35 -34 91 -34q58 0 92 34q35 35 35 99zM557 1679q0 -84 -48 -129t-122 -45t-122 45t-48 129t49 129t121 45q74 0 122 -45t48 -129z" />
    <glyph glyph-name="caron.cap" horiz-adv-x="776" 
d="M410 1585h-45l-226 252h51l197 -215l197 215h51z" />
    <glyph glyph-name="macron.cap" horiz-adv-x="776" 
d="M113 1673h549v-39h-549v39z" />
    <glyph glyph-name="dieresis.cap" horiz-adv-x="776" 
d="M203 1817h45v-189h-45v189zM528 1817h45v-189h-45v189z" />
    <glyph glyph-name="dotaccent.cap" horiz-adv-x="776" 
d="M365 1812h45v-188h-45v188z" />
    <glyph glyph-name="circumflex.cap" horiz-adv-x="776" 
d="M365 1837h45l225 -252h-51l-197 215l-197 -215h-51z" />
    <glyph glyph-name="acute.cap" horiz-adv-x="776" 
d="M295 1585h-51l231 252h57z" />
    <glyph glyph-name="grave.cap" horiz-adv-x="776" 
d="M242 1837h57l231 -252h-51z" />
    <glyph glyph-name="breve.cap" horiz-adv-x="776" 
d="M203 1806q0 -86 48 -133q49 -47 136 -47q92 0 139 47t47 133h43q0 -104 -59 -162q-61 -59 -170 -59q-107 0 -168 59q-59 58 -59 162h43z" />
    <glyph glyph-name="commaaccent.cap" horiz-adv-x="776" 
d="M332 -424h-43l145 272h49z" />
    <glyph glyph-name="caron.alt" horiz-adv-x="776" 
d="M395 1462h41l-57 -315h-37z" />
    <glyph glyph-name="commaaccent" horiz-adv-x="776" 
d="M332 -414h-41l145 262h47z" />
    <glyph glyph-name="revcommaaccent" horiz-adv-x="776" 
d="M440 1462h41l-137 -266h-47z" />
    <glyph glyph-name="highrevcomma" horiz-adv-x="776" 
d="M440 1462h41l-137 -266h-47z" />
    <glyph glyph-name="Parenleft" horiz-adv-x="442" 
d="M133 731q0 240 53 461q52 218 172 418h43q-118 -214 -170 -427q-53 -218 -53 -452q0 -233 53 -451q52 -213 170 -427h-43q-120 201 -172 417q-53 221 -53 461z" />
    <glyph glyph-name="Parenright" horiz-adv-x="442" 
d="M309 731q0 -240 -53 -461q-52 -216 -172 -417h-43q118 214 170 427q53 218 53 451q0 234 -53 452q-52 213 -170 427h43q120 -200 172 -418q53 -221 53 -461z" />
    <glyph glyph-name="Hyphen" horiz-adv-x="792" 
d="M102 758h588v-41h-588v41z" />
    <glyph glyph-name="Slash" horiz-adv-x="563" 
d="M489 1503h43l-458 -1503h-43z" />
    <glyph glyph-name="At" horiz-adv-x="1845" 
d="M948 1182q118 0 200 -65q81 -64 105 -179l39 219h43l-121 -682q-1 -7 -3 -19q-1 -6 -1 -20q0 -60 39 -97q40 -38 115 -38q80 0 144 43q66 45 109 117t67 174q24 100 24 217q0 200 -64 338q-64 139 -169 226t-237 126t-267 39q-188 0 -343 -73q-152 -72 -259 -201
q-107 -130 -164 -303q-58 -177 -58 -377q0 -198 61 -343q60 -143 165 -233q106 -91 247 -131q144 -41 306 -41q118 0 207 21t154 55q68 36 115 81q49 48 87 97h45q-100 -156 -249 -225q-151 -70 -359 -70q-179 0 -327 46q-150 46 -261 144q-110 97 -173 245q-63 149 -63 356
q0 209 62 392q62 182 175 315q114 134 274 210q159 76 360 76q142 0 285 -44q138 -43 251 -137q112 -94 178 -239q66 -146 66 -348q0 -118 -26 -228q-26 -111 -74 -189q-49 -81 -123 -129t-168 -48q-91 0 -140 46q-51 48 -51 122q0 7 1.5 21.5t1.5 17.5q-61 -116 -148 -168
q-86 -51 -197 -51q-158 0 -246 97q-89 98 -89 278q0 111 32 208q32 98 94 180q58 77 143 125q82 46 185 46zM1225 778q6 33 6 70q0 55 -19 110t-53 95q-35 41 -88 65q-55 25 -121 25q-86 0 -160 -40q-77 -41 -131 -109q-55 -68 -88 -165q-32 -93 -32 -206q0 -94 22 -157
q22 -64 61 -104q37 -38 91 -57q53 -18 114 -18q146 0 247 98q102 99 136 305z" />
    <glyph glyph-name="Bracketleft" horiz-adv-x="518" 
d="M164 1610h323v-41h-280v-1675h280v-41h-323v1757z" />
    <glyph glyph-name="Backslash" horiz-adv-x="563" 
d="M532 0h-43l-458 1503h43z" />
    <glyph glyph-name="Bracketright" horiz-adv-x="518" 
d="M354 -147h-323v41h280v1675h-280v41h323v-1757z" />
    <glyph glyph-name="Braceleft" horiz-adv-x="530" 
d="M61 752h11q77 0 109 38t32 105v532q0 86 41 135q40 48 125 48h121v-41h-127q-63 0 -90 -40q-27 -41 -27 -95v-535q0 -74 -29 -115t-73 -53q44 -12 73 -53t29 -115v-534q0 -57 29 -97q28 -38 88 -38h127v-41h-121q-84 0 -125 47t-41 135v532q0 68 -32 106t-109 38h-11v41z
" />
    <glyph glyph-name="Braceright" horiz-adv-x="530" 
d="M469 711h-10q-78 0 -110 -38t-32 -106v-532q0 -85 -41 -134q-40 -48 -124 -48h-121v41h127q64 0 90 39t26 96v534q0 74 29 115t74 53q-45 12 -74 53t-29 115v535q0 58 -28 96q-29 39 -88 39h-127v41h121q83 0 124 -47t41 -136v-532q0 -67 32 -105t110 -38h10v-41z" />
    <glyph glyph-name="Guilsinglleft" horiz-adv-x="532" 
d="M82 731l301 455h47l-299 -453l299 -457h-47z" />
    <glyph glyph-name="Bullet" horiz-adv-x="585" 
d="M92 733q0 85 58 141t143 56t143 -56t58 -141t-58 -141q-56 -55 -143 -55t-143 55q-58 56 -58 141z" />
    <glyph glyph-name="Endash" horiz-adv-x="1024" 
d="M0 762h1024v-41h-1024v41z" />
    <glyph glyph-name="Emdash" horiz-adv-x="2048" 
d="M0 762h2048v-41h-2048v41z" />
    <glyph glyph-name="Guilsinglright" horiz-adv-x="532" 
d="M451 731l-301 -455h-48l299 453l-299 457h48z" />
    <glyph glyph-name="Exclamdown" horiz-adv-x="393" 
d="M219 0h-45l2 1098h41zM219 1274h-45v188h45v-188z" />
    <glyph glyph-name="Guillemotleft" horiz-adv-x="886" 
d="M82 731l301 455h47l-299 -453l299 -457h-47zM436 731l301 455h47l-299 -453l299 -457h-47z" />
    <glyph glyph-name="Guillemotright" horiz-adv-x="886" 
d="M451 729l-301 -455h-48l299 453l-299 457h48zM805 729l-301 -455h-47l299 453l-299 457h47z" />
    <glyph glyph-name="Questiondown" horiz-adv-x="1001" 
d="M537 1102v-10q0 -68 -16 -124q-14 -49 -43 -99q-25 -42 -68 -89q-13 -14 -93 -94q-62 -59 -111 -140q-46 -76 -46 -186q0 -72 21 -133q20 -59 67 -106q45 -45 111 -72q64 -26 159 -26q100 0 163 28q64 28 106 75t66 103t36 115l41 -8q-11 -60 -37 -124q-24 -60 -72 -114
q-47 -53 -121 -86q-71 -32 -182 -32q-101 0 -178 30q-76 30 -126 83q-52 55 -75 121q-24 69 -24 146q0 113 47 199t121 154q61 59 85 84q40 41 65 82q30 48 43 92q16 53 16 114v17h45zM537 1274h-45v188h45v-188z" />
    </font>
</defs>
</svg>
