<svg width="160" height="58" xmlns="http://www.w3.org/2000/svg"><g fill="none" fill-rule="evenodd"><path d="M21.852 36.283c.46-.402.94-.8 1.446-1.195l16.72-12.711c9.267-7.045 16.155-13.41 20.626-19.043L61 0c-4.225 6.04-11.643 13.146-21.998 21.018l-16.73 12.718C18.034 37.05 13.09 42.456 13 49.671c.092 2.082.491 3.692 1.105 5.108a16.667 16.667 0 01-.544-4.1c-.036-6.794 4.273-11.493 8.29-14.396" fill="#38B449"/><path d="M15.893 57.891l-.066-.096c-.01-.11-.02-.255-.027-.43l.006.126c.006.12.014.221.02.304l-.187-.277-.134-.2-.13-.201-.255-.406-.243-.409-.208-.37a14.411 14.411 0 01-.564-1.153 16.675 16.675 0 01-.544-4.101c-.036-6.794 4.273-11.492 8.29-14.395.345-.248.687-.485 1.025-.708L39.13 24.848c6.263-4.19 15.59-11.17 21.228-18.839l-.302 2.833c-4.02 4.926-10.335 10.699-20.118 17.242L23.68 36.814c-1.987 1.313-3.635 2.726-4.94 4.235 1.452-1.48 3.075-2.641 4.578-3.524l15.579-8.838c7.294-4.252 15.691-10.198 20.886-17.288l-.202 1.884c-.033.18-.069.357-.103.537-5.35 6.525-13.13 11.98-19.962 15.962L23.94 38.62c-3.178 1.868-5.462 4.11-6.849 6.693 1.343-2.162 3.46-4.234 6.734-5.878l15.402-7.73c7.142-3.774 14.472-8.273 19.467-14.227-.175.731-.36 1.449-.552 2.153a38.54 38.54 0 01-.982 1.007c-4.106 4.057-9.655 7.867-17.463 11.993l-15.412 7.735c-4.556 2.287-6.72 5.452-7.665 8.46 1.18-2.767 3.45-5.566 7.691-7.47l14.854-6.667c7.364-3.486 13.4-6.963 17.792-11.204a52.13 52.13 0 01-.622 1.69c-4.338 3.817-10.026 7.037-16.832 10.26l-14.861 6.67c-5.778 2.593-7.713 6.846-8.253 10.288l.068-.23c.95-3.15 3.189-6.8 8.33-8.88l14.388-5.818c6.292-2.679 11.227-5.025 15.097-7.715a35.26 35.26 0 01-.625 1.14c-3.755 2.452-8.424 4.65-14.246 7.128l-14.393 5.821c-6.624 2.68-8.221 8.063-8.551 11.355.827-3.042 3.018-7.76 8.796-9.979l13.92-5.347c4.492-1.726 8.314-3.196 11.543-4.714-.197.238-.398.47-.6.698-3.076 1.398-6.66 2.776-10.809 4.369l-13.921 5.347c-5.528 2.123-7.684 6.596-8.522 9.56A24.05 24.05 0 0016.056 58l-.09-.003-.006-.01-.067-.096z" fill="#231F20"/><path d="M.382 3.518c5.24 6.88 13.297 13.737 20.828 18.93l8.281 5.562c.692-.49 1.22-.853 1.509-1.05l-8.817-5.923C14.19 15.526 4.97 7.571 0 0l.382 3.518z" fill="#EC1D24"/><path d="M9.83 33.896c2.395 1.302 5.08 2.54 8.028 3.802-.09.102-.176.202-.26.302-2.597-1.115-4.995-2.21-7.169-3.35a28.88 28.88 0 01-.599-.754zm-3.094-4.813c3.345 2.428 7.52 4.665 12.625 7.047a31.49 31.49 0 00-.457.452c-4.532-2.121-8.337-4.133-11.482-6.27a37.846 37.846 0 01-.686-1.229zm-2.482-5.516c4.108 3.788 9.747 7.14 16.999 10.828a42.72 42.72 0 00-.664.588c-6.004-3.057-11.38-6.043-15.64-9.66a48.706 48.706 0 01-.695-1.756zM2.33 17.345a37.017 37.017 0 002.047 2.264c3.966 4.039 9.446 7.949 17.244 12.304l1.607.82a70.34 70.34 0 00-.88.726l-1.225-.626c-7.906-4.415-13.46-8.383-17.5-12.495-.23-.235-.453-.472-.675-.71a62.782 62.782 0 01-.618-2.283zm-1.11-6.099c4.187 5.756 10.992 11.526 20.53 17.429l3.743 2.275c-.353.27-.711.549-1.072.833l-3.34-2.03C12.3 24.318 5.854 19.086 1.55 13.84l-.112-.57zm-.57-5.25c4.033 5.84 10.88 12.031 20.666 18.705l6.643 4.408c-.404.294-.833.61-1.277.942l-6.207-4.119C11.694 19.944 5.222 14.302.966 8.912zM116.405 41c2.139 0 3.978.772 5.368 2.27l-1.604 1.807a5.062 5.062 0 00-3.764-1.653c-2.995 0-5.24 2.446-5.24 5.576 0 3.13 2.245 5.576 5.24 5.576a5.062 5.062 0 003.764-1.653l1.604 1.807c-1.39 1.499-3.23 2.27-5.368 2.27-4.3 0-7.765-3.483-7.765-8 0-4.517 3.465-8 7.765-8zm38.227 0c2.138 0 3.977.772 5.368 2.27l-1.604 1.807a5.06 5.06 0 00-3.764-1.653c-2.995 0-5.24 2.446-5.24 5.576 0 3.13 2.245 5.576 5.24 5.576a5.06 5.06 0 003.764-1.653L160 54.73c-1.39 1.499-3.23 2.27-5.368 2.27-4.3 0-7.765-3.483-7.765-8 0-4.517 3.465-8 7.765-8zM47 41l10.373 10.16v-9.984h2.482V57L49.48 46.84v9.984H47V41zm22.703 0l7.422 15.824h-2.673l-1.583-3.483h-6.352l-1.584 3.483h-2.652L69.703 41zm24.779 0v15.824H92v-9.609l-4.984 5.554-4.983-5.554v9.609h-2.481V41l7.464 8.199L94.482 41zm6.629.176V54.29h6.395v2.535H98.63V41.176h2.48zm32.286 0v2.512h-6.331v3.968h4.94v2.468h-4.94v6.7h-2.48V41.176h8.81zm12.278 0v2.513h-3.936v13.135h-2.48V43.689h-3.914v-2.513h10.33zm-75.972 5.202l-2.117 4.627h4.213l-2.096-4.627z" fill="#231F20"/></g></svg>