<?xml version="1.0" encoding="UTF-8"?>
<svg width="885px" height="866px" viewBox="0 0 885 866" version="1.1" xmlns="http://www.w3.org/2000/svg" xmlns:xlink="http://www.w3.org/1999/xlink">
    <title>Combined-Shape</title>
    <g id="Page-1" stroke="none" stroke-width="1" fill="none" fill-rule="evenodd">
        <g id="Combined-Shape" transform="translate(442.335623, 433.200000) scale(-1, 1) translate(-442.335623, -433.200000) translate(0.000000, 0.700000)" fill="#C7C7C7" fill-rule="nonzero">
            <path d="M510.251119,491.199783 L510.251119,865 L257.922366,865 L257.922366,491.199783 L510.251119,491.199783 Z M768.173485,379.435396 L768.173485,753.235613 L515.844732,753.235613 L515.844732,379.435396 L768.173485,379.435396 Z M252.328753,378.961998 L252.328753,752.762215 L0,752.762215 L0,378.961998 L252.328753,378.961998 Z M884.671247,192.535288 L884.671247,566.335505 L773.671247,566.335505 L773.671247,192.535288 L884.671247,192.535288 Z M510.251119,111.764387 L510.251119,485.564604 L257.922366,485.564604 L257.922366,111.764387 L510.251119,111.764387 Z M768.12556,0 L768.12556,373.800217 L515.796806,373.800217 L515.796806,0 L768.12556,0 Z" id="path-1"></path>
        </g>
    </g>
</svg>