<svg id="Layer_1" data-name="Layer 1" xmlns="http://www.w3.org/2000/svg" viewBox="0 0 352 277"><defs><style>.cls-1{fill:#daaa00;}.cls-2{fill:#92a2c9;}.cls-3{fill:#fff;}</style></defs><path class="cls-1" d="M293.74,191.32h10V158.66c0-8.71-1.62-15.06-4.82-18.86S290.34,134,283.06,134c-7,0-12.39,2.33-16.06,6.91s-5.47,11.11-5.47,19.52C261.53,180.93,272.37,191.32,293.74,191.32ZM268,141.7c3.42-4.27,8.49-6.44,15.08-6.44,6.89,0,11.9,1.8,14.88,5.34s4.52,9.65,4.52,18.06v31.41h-8.72c-20.83,0-31-9.69-31-29.63C262.78,152.32,264.53,146,268,141.7Z"/><path class="cls-1" d="M333.74,161.11c0-17.43-4.17-30.68-12.41-39.36s-21-13.1-37.82-13.1c-16,0-28.76,4.7-38,14s-14,22-14,37.81c0,18.65,5.87,33.14,17.45,43.08s28.42,14.94,50.13,14.94h3.38v2c0,8.11-1.52,14-4.52,17.61s-8.06,5.34-15.1,5.34c-6.2,0-11-1.26-14.19-3.76s-5.32-6.66-6.33-12.41l-.09-.51H231l.08.69c1.65,13.9,6.89,24.55,15.58,31.67s20.86,10.71,36.21,10.71c16.55,0,29.31-4.21,37.92-12.52s13-20.71,13-36.82Zm-1.25,59.4c0,15.76-4.24,27.85-12.6,35.92s-20.83,12.17-37.05,12.17c-15,0-27-3.51-35.42-10.43-8.19-6.71-13.24-16.71-15-29.72l-.06-.42h28.8l.07.3c1.11,5.64,3.35,9.8,6.64,12.36s8.47,4,14.95,4c7.43,0,12.83-2,16.05-5.78s4.82-10,4.82-18.42v-3.3h-4.63c-21.4,0-38-4.93-49.31-14.64s-17-23.86-17-42.13c0-15.47,4.58-27.9,13.6-36.93s21.54-13.61,37.16-13.61c16.5,0,28.92,4.28,36.92,12.71s12.06,21.4,12.06,38.5Z"/><path class="cls-2" d="M150.45,34.35H158V21.82a9.48,9.48,0,0,0-.24-2.35,5.44,5.44,0,0,0-.81-1.68l-3.46,1.44a6.09,6.09,0,0,1,.7,3v8.65h-8.47V18.35h-3.82V36.24c0,1.75-.79,2.62-2.38,2.62a11.88,11.88,0,0,1-2.13-.28l-.6,3a12.7,12.7,0,0,0,3.43.53,5.37,5.37,0,0,0,4.15-1.47,6.56,6.56,0,0,0,1.35-4.55V34.35h4.76Z"/><rect class="cls-2" x="192.41" y="11.6" width="3.54" height="3.57"/><rect class="cls-2" x="141.94" y="11.56" width="3.57" height="3.6"/><rect class="cls-2" x="165.39" y="11.56" width="3.57" height="3.6"/><rect class="cls-2" x="149.15" y="37.04" width="3.54" height="3.54"/><rect class="cls-2" x="197.8" y="11.6" width="3.5" height="3.57"/><rect class="cls-2" x="154.54" y="37.04" width="3.5" height="3.54"/><path class="cls-2" d="M200.22,17.79l-3.47,1.44a6,6,0,0,1,.7,3v8.65H181.28V26a5.9,5.9,0,0,1,.91-3.69,3.63,3.63,0,0,1,3-1.14,4.22,4.22,0,0,1,2.57.63A3.82,3.82,0,0,1,189,24.06l3.67-.39a6.88,6.88,0,0,0-2.24-4.48,8,8,0,0,0-5.07-1.4q-7.87,0-7.88,8v5.08h-8.29V18.35h-3.82V36.24c0,1.75-.79,2.62-2.38,2.62a11.88,11.88,0,0,1-2.13-.28l-.6,3a12.7,12.7,0,0,0,3.43.53,5.37,5.37,0,0,0,4.15-1.47,6.56,6.56,0,0,0,1.35-4.55V34.35h32.13V21.82a9.42,9.42,0,0,0-.25-2.35A5.19,5.19,0,0,0,200.22,17.79Z"/><rect class="cls-2" x="165.74" y="201.4" width="5.3" height="5.43"/><rect class="cls-2" x="191.51" y="200.83" width="5.43" height="5.49"/><rect class="cls-2" x="74.58" y="259.87" width="5.36" height="5.36"/><rect class="cls-2" x="155.53" y="200.9" width="5.36" height="5.43"/><rect class="cls-2" x="228.3" y="196.87" width="5.93" height="43.98"/><path class="cls-2" d="M120.83,217.29c3.46,0,6.06,1.1,7.73,3.28S131,226,131,230.45v5.1H109.8v5.3H219.23v-44h-5.86v38.68H197.12V213.06h-5.87v22.49H176v-9.76c0-4.55-1.09-8-3.24-10.31s-5.37-3.43-9.62-3.43a14.69,14.69,0,0,0-7.1,1.67,11.83,11.83,0,0,0-4.69,4.53,13.22,13.22,0,0,0-1.63,6.59,12.88,12.88,0,0,0,1.3,5.7,10.13,10.13,0,0,0,3.45,4.09l1.38.92H137v-5.79c0-5.82-1.33-10.27-3.94-13.25s-6.49-4.46-11.56-4.46a27,27,0,0,0-8.22,1.21l1.38,5.09A20.75,20.75,0,0,1,120.83,217.29Zm34.77,8.25a9.65,9.65,0,0,1,1.92-6.37,6.82,6.82,0,0,1,5.51-2.33,6.54,6.54,0,0,1,5.34,2.14c1.14,1.39,1.72,3.57,1.72,6.49v10.08h-4.35a10.14,10.14,0,0,1-7.47-2.67A10,10,0,0,1,155.6,225.54Z"/><rect class="cls-2" x="84.28" y="259.87" width="5.3" height="5.36"/><path class="cls-2" d="M67.71,240.47c0,4.71,1.27,8.32,3.76,10.72s6.21,3.64,11,3.64c4.37,0,7.81-1.27,10.22-3.78s3.65-6.1,3.65-10.65V224.84a7.57,7.57,0,0,1,1.44-5,5.51,5.51,0,0,1,4.41-1.71h3.09v-5.05h-3.72c-3.58,0-6.36,1-8.27,2.93s-2.88,4.83-2.88,8.54V240c0,6.56-2.76,9.88-8.19,9.88a8.44,8.44,0,0,1-6.51-2.46c-1.49-1.62-2.24-4-2.24-7a18.23,18.23,0,0,1,2.09-8.5l-5.25-1.38a23.17,23.17,0,0,0-1.88,4.75A19.54,19.54,0,0,0,67.71,240.47Z"/><rect class="cls-3" x="122.25" y="56.28" width="5.62" height="5.1"/><path class="cls-3" d="M65.53,69.14H58.89v32.54c0,3.32-1.74,5.16-4.9,5.16a16.23,16.23,0,0,1-3.05-.32L50,111.33a22.46,22.46,0,0,0,5.7.8c3.36,0,5.86-.84,7.43-2.5s2.38-4.38,2.38-8Z"/><rect class="cls-3" x="161.48" y="56.28" width="5.55" height="5.1"/><rect class="cls-3" x="150.35" y="56.28" width="5.62" height="5.1"/><rect class="cls-3" x="133.39" y="56.28" width="5.55" height="5.1"/><rect class="cls-3" x="276.17" y="53.65" width="6.64" height="43.7"/><polygon class="cls-3" points="233.48 97.35 265.92 97.35 265.92 53.65 259.28 53.65 259.28 91.54 247.81 91.54 247.81 69.14 241.16 69.14 241.16 91.54 233.48 91.54 233.48 97.35"/><rect class="cls-3" x="75.21" y="53.65" width="6.64" height="43.7"/><path class="cls-3" d="M244.2,102.51a5,5,0,0,0-3.65,1.25,4.7,4.7,0,0,0-1.28,3.55v3.07h-1.41v3h11.39v-3H242.4v-2.82c0-1.49.67-2.24,2-2.24a1.67,1.67,0,0,1,1.28.42,2.83,2.83,0,0,1,.51,1.5l2.88-.38a5.27,5.27,0,0,0-1.44-3.36A5.06,5.06,0,0,0,244.2,102.51Z"/><path class="cls-3" d="M103.36,97.35H225.72v-22a18.72,18.72,0,0,0-.48-4.64,9.65,9.65,0,0,0-1.08-2.58l-6.11,2.38a14.15,14.15,0,0,1,1,5.55V91.54H208V69.14h-6.64v22.4h-11V69.14h-6.64v22.4H167V69.14H160.4v22.4H144V82.16c0-9.45-4.35-14-13.28-14a15.4,15.4,0,0,0-7.27,1.67,11.84,11.84,0,0,0-4.82,4.52,12.7,12.7,0,0,0-.56,11.57,9.9,9.9,0,0,0,2.9,3.87l2.31,1.79H103.36V69.14H96.72v32.54c0,3.32-1.74,5.16-4.91,5.16a16.32,16.32,0,0,1-3-.32l-.91,4.81a22.45,22.45,0,0,0,5.69.8c3.37,0,5.87-.84,7.43-2.5s2.39-4.38,2.39-8Zm22-21.65a6.4,6.4,0,0,1,5.23-2.29,6.32,6.32,0,0,1,5.15,2c1.08,1.31,1.61,3.27,1.61,6V91.54h-4.52A8.94,8.94,0,0,1,126,88.92a9.91,9.91,0,0,1-2.45-7.08A9.5,9.5,0,0,1,125.37,75.7Z"/><rect class="cls-3" x="103.34" y="190.42" width="5.55" height="5.1"/><rect class="cls-3" x="92.2" y="190.42" width="5.62" height="5.1"/><rect class="cls-3" x="248.36" y="125.65" width="6.64" height="43.7"/><path class="cls-3" d="M88,169.52c0,9.83,5,14.61,15.19,14.61,4.48,0,8-1.25,10.43-3.73s3.68-6,3.68-10.56V152.56c0-3.74,2.06-5.8,5.8-5.8h5.41v22.59h30.19v-43.7H152v37.89H135.13v-22.4H121.8c-3.56,0-6.34.93-8.28,2.77s-2.88,4.4-2.88,7.81V169c0,3.2-.62,5.55-1.88,7.18a7,7,0,0,1-5.91,2.53,8.06,8.06,0,0,1-6.27-2.41c-1.43-1.57-2.15-3.85-2.15-6.78a18.82,18.82,0,0,1,.67-4.81,21.41,21.41,0,0,1,1.24-3.43l-5.78-1.48a23.43,23.43,0,0,0-1.78,4.58A19.21,19.21,0,0,0,88,169.52Z"/><path class="cls-3" d="M212,141.67a15,15,0,0,0-6.85-1.55c-4.43,0-7.86,1.2-10.2,3.57s-3.52,5.85-3.52,10.34v9.51H175V125.65h-6.64v43.7h70.32v-43.7H232v37.89H212.12l2.31-1.79a9.9,9.9,0,0,0,2.9-3.87,12.55,12.55,0,0,0,1.13-5.13,12.76,12.76,0,0,0-1.74-6.65A11.72,11.72,0,0,0,212,141.67Zm-2.6,19.25h0a8.94,8.94,0,0,1-6.81,2.62H198V153.32c0-2.58.58-4.56,1.72-5.87a6.69,6.69,0,0,1,5.3-2,6.05,6.05,0,0,1,5.05,2.34,11.56,11.56,0,0,1-.74,13.17Z"/></svg>