<?xml version="1.0" encoding="UTF-8"?>
<svg width="33px" height="33px" viewBox="0 0 33 33" version="1.1" xmlns="http://www.w3.org/2000/svg" xmlns:xlink="http://www.w3.org/1999/xlink">
    <title>Shape</title>
    <g id="Page-1" stroke="none" stroke-width="1" fill="none" fill-rule="evenodd">
        <g id="Polls-" transform="translate(-1095.000000, -491.000000)" fill="#001E62" fill-rule="nonzero">
            <g id="Shape-2" transform="translate(1095.805292, 491.250000)">
                <path d="M28.1212121,0 L3.87878788,0 C1.74545455,0 0,1.94157303 0,4.31460674 L0,27.6853933 C0,30.058427 1.74545455,32 3.87878788,32 L28.1212121,32 C30.2545455,32 32,30.058427 32,27.6853933 L32,4.31460674 C32,1.86966292 30.2545455,0 28.1212121,0 L28.1212121,0 Z M13.5111111,2.15730337 L18.7474747,2.15730337 L18.7474747,2.15730337 L18.7474747,4.02696629 C18.7474747,4.0988764 18.6828283,4.17078652 18.6181818,4.17078652 L13.7050505,4.17078652 C13.640404,4.17078652 13.5757576,4.0988764 13.5757576,4.02696629 L13.5757576,2.15730337 L13.5111111,2.15730337 L13.5111111,2.15730337 Z M3.87878788,2.15730337 L11.5070707,2.15730337 L11.5070707,2.15730337 L11.5070707,4.02696629 C11.5070707,5.32134831 12.4767677,6.32808989 13.5757576,6.32808989 L18.4888889,6.32808989 C19.6525253,6.32808989 20.5575758,5.2494382 20.5575758,4.02696629 L20.5575758,2.15730337 L20.5575758,2.15730337 L28.0565657,2.15730337 C29.1555556,2.15730337 29.9959596,3.09213483 29.9959596,4.31460674 L29.9959596,15.0292135 L1.87474747,15.0292135 L1.87474747,4.31460674 C1.93939394,3.09213483 2.84444444,2.15730337 3.87878788,2.15730337 L3.87878788,2.15730337 Z M13.5111111,17.1146067 L18.7474747,17.1146067 L18.7474747,18.6247191 C18.7474747,18.6966292 18.6828283,18.7685393 18.6181818,18.7685393 L13.7050505,18.7685393 C13.640404,18.7685393 13.5757576,18.6966292 13.5757576,18.6247191 L13.5757576,17.1146067 L13.5111111,17.1146067 Z M28.1212121,29.7707865 L3.87878788,29.7707865 C2.77979798,29.7707865 1.93939394,28.8359551 1.93939394,27.6134831 L1.93939394,17.1146067 L11.5070707,17.1146067 L11.5070707,18.6247191 C11.5070707,19.9191011 12.4767677,20.9258427 13.5757576,20.9258427 L18.4888889,20.9258427 C19.6525253,20.9258427 20.5575758,19.847191 20.5575758,18.6247191 L20.5575758,17.1146067 L29.9959596,17.1146067 L29.9959596,27.6134831 C30.0606061,28.8359551 29.220202,29.7707865 28.1212121,29.7707865 L28.1212121,29.7707865 Z" id="Shape"></path>
            </g>
        </g>
    </g>
</svg>