<?xml version="1.0" encoding="UTF-8"?>
<svg width="449px" height="438px" viewBox="0 0 449 438" version="1.1" xmlns="http://www.w3.org/2000/svg" xmlns:xlink="http://www.w3.org/1999/xlink">
    <title>arrow-right-light</title>
    <g id="Page-1" stroke="none" stroke-width="1" fill="none" fill-rule="evenodd">
        <g id="arrow-right-light" transform="translate(0.000000, 0.650000)" fill="#000000" fill-rule="nonzero">
            <path d="M190.5,29.25 L212.7,7.05 C222.1,-2.35 237.3,-2.35 246.6,7.05 L441,201.35 C450.4,210.75 450.4,225.95 441,235.25 L246.6,429.65 C237.2,439.05 222,439.05 212.7,429.65 L190.5,407.45 C181,397.95 181.2,382.45 190.9,373.15 L311.4,258.35 L24,258.35 C10.7,258.35 0,247.65 0,234.35 L0,202.35 C0,189.05 10.7,178.35 24,178.35 L311.4,178.35 L190.9,63.55 C181.1,54.25 180.9,38.75 190.5,29.25 Z" id="Path"></path>
        </g>
    </g>
</svg>