<?xml version="1.0" encoding="UTF-8"?>
<svg width="25px" height="25px" viewBox="0 0 25 25" version="1.1" xmlns="http://www.w3.org/2000/svg" xmlns:xlink="http://www.w3.org/1999/xlink">
    <title>Group 8 Copy 3</title>
    <defs>
        <filter color-interpolation-filters="auto" id="filter-1">
            <feColorMatrix in="SourceGraphic" type="matrix" values="0 0 0 0 0.000000 0 0 0 0 0.117647 0 0 0 0 0.384314 0 0 0 1.000000 0"></feColorMatrix>
        </filter>
    </defs>
    <g id="Batch-1" stroke="none" stroke-width="1" fill="none" fill-rule="evenodd">
        <g id="T2-Landing-page---Full-(Type-of-Licenses-open)-" transform="translate(-849.000000, -5556.000000)">
            <g id="Group-Copy" transform="translate(144.750000, 5502.950981)">
                <g id="Group-8-Copy-3" transform="translate(585.500000, 37.973187)" filter="url(#filter-1)">
                    <g transform="translate(119.000000, 16.000000)">
                        <path d="M0.861538954,6.85867134 L23.138461,6.85867134 C23.5424924,6.86085076 23.8931476,6.58040178 23.9799203,6.18567147 C24.0666931,5.79094116 23.8659989,5.38921592 23.498319,5.22166047 L12.359858,0.079258045 C12.1315832,-0.0264193483 11.8684168,-0.0264193483 11.640142,0.079258045 L0.501680982,5.22166047 C0.134001089,5.38921592 -0.0666930995,5.79094116 0.0200796635,6.18567147 C0.106852426,6.58040178 0.45750759,6.86085076 0.861538954,6.85867134 Z" id="Path" fill="#FFFFFF" fill-rule="nonzero"></path>
                        <path d="M23.138461,22.2858659 L0.861538954,22.2858659 C0.388338787,22.2858659 0.0047342584,22.6695879 0.0047342584,23.1429329 C0.0047342584,23.616278 0.388338787,24 0.861538954,24 L23.138461,24 C23.6116612,24 23.9952657,23.616278 23.9952657,23.1429329 C23.9952657,22.6695879 23.6116612,22.2858659 23.138461,22.2858659 Z" id="Path" fill="#FFFFFF" fill-rule="nonzero"></path>
                        <path d="M1.71834365,20.5717317 C1.71834365,21.0450768 2.10194818,21.4287988 2.57514835,21.4287988 L21.4248517,21.4287988 C21.8980518,21.4287988 22.2816563,21.0450768 22.2816563,20.5717317 C22.2816563,20.0983866 21.8980518,19.7146646 21.4248517,19.7146646 L2.57514835,19.7146646 C2.10194818,19.7146646 1.71834365,20.0983866 1.71834365,20.5717317 Z" id="Path" fill="#FFFFFF" fill-rule="nonzero"></path>
                        <path d="M21.4248517,7.71572565 L2.57514835,7.71572565 C2.10194818,7.71572565 1.71834365,8.09944765 1.71834365,8.57279272 C1.71834365,9.04613779 2.10194818,9.42985979 2.57514835,9.42985979 L21.4248517,9.42985979 C21.8980518,9.42985979 22.2816563,9.04613779 22.2816563,8.57279272 C22.2816563,8.09944765 21.8980518,7.71572565 21.4248517,7.71572565 Z" id="Path" fill="#FFFFFF" fill-rule="nonzero"></path>
                        <path d="M5.14556243,18.0005305 L5.14556243,11.1439939 C5.14556243,10.6706489 4.7619579,10.2869269 4.28875774,10.2869269 C3.81555757,10.2869269 3.43195304,10.6706489 3.43195304,11.1439939 L3.43195304,18.0005305 C3.43195304,18.4738756 3.81555757,18.8575976 4.28875774,18.8575976 C4.7619579,18.8575976 5.14556243,18.4738756 5.14556243,18.0005305 Z" id="Path" fill="#FFFFFF" fill-rule="nonzero"></path>
                        <path d="M10.2863906,18.0005305 L10.2863906,11.1439939 C10.2863906,10.6706489 9.90278608,10.2869269 9.42958591,10.2869269 C8.95638575,10.2869269 8.57278122,10.6706489 8.57278122,11.1439939 L8.57278122,18.0005305 C8.57278122,18.4738756 8.95638575,18.8575976 9.42958591,18.8575976 C9.90278608,18.8575976 10.2863906,18.4738756 10.2863906,18.0005305 Z" id="Path" fill="#FFFFFF" fill-rule="nonzero"></path>
                        <path d="M15.4272188,18.0005305 L15.4272188,11.1439939 C15.4272188,10.6706489 15.0436143,10.2869269 14.5704141,10.2869269 C14.0972139,10.2869269 13.7136094,10.6706489 13.7136094,11.1439939 L13.7136094,18.0005305 C13.7136094,18.4738756 14.0972139,18.8575976 14.5704141,18.8575976 C15.0436143,18.8575976 15.4272188,18.4738756 15.4272188,18.0005305 Z" id="Path" fill="#FFFFFF" fill-rule="nonzero"></path>
                        <path d="M20.568047,18.0005305 L20.568047,11.1439939 C20.568047,10.6706489 20.1844424,10.2869269 19.7112423,10.2869269 C19.2380421,10.2869269 18.8544376,10.6706489 18.8544376,11.1439939 L18.8544376,18.0005305 C18.8544376,18.4738756 19.2380421,18.8575976 19.7112423,18.8575976 C20.1844424,18.8575976 20.568047,18.4738756 20.568047,18.0005305 Z" id="Path" fill="#FFFFFF" fill-rule="nonzero"></path>
                    </g>
                </g>
            </g>
        </g>
    </g>
</svg>