<?xml version="1.0" encoding="UTF-8"?>
<svg width="34px" height="34px" viewBox="0 0 34 34" version="1.1" xmlns="http://www.w3.org/2000/svg" xmlns:xlink="http://www.w3.org/1999/xlink">
    <title>Group 6</title>
    <g id="Page-1" stroke="none" stroke-width="1" fill="none" fill-rule="evenodd">
        <g id="Education-" transform="translate(-552.000000, -637.000000)" fill="#001E62" fill-rule="nonzero">
            <g id="Group-6" transform="translate(552.000000, 637.000000)">
                <path d="M33.6825726,21.7120332 L33.6684647,21.6838174 C33.1958506,20.4775934 31.9684647,19.7228216 30.6775934,19.8568465 C30.6352697,19.8639004 30.6,19.8639004 30.5576763,19.8780083 L19.8568465,22.1423237 C20.3576763,21.6485477 20.6892116,21.0207469 20.8091286,20.3153527 C20.9713693,19.3983402 20.7526971,18.4742739 20.2024896,17.7195021 L20.1813278,17.6912863 C19.3560166,16.5697095 17.9522822,16.0618257 16.5979253,16.4074689 L7.33609959,18.6717842 L7.33609959,17.5643154 L0,17.5643154 L0,34 L7.33609959,34 L7.33609959,32.6103734 L19.5676349,32.2717842 C19.7510373,32.2647303 19.9273859,32.2153527 20.0825726,32.1307054 L32.3846473,25.2954357 C33.6473029,24.5970954 34.2045643,23.0593361 33.6825726,21.7120332 Z M5.07883817,31.7427386 L2.25726141,31.7427386 L2.25726141,19.8215768 L5.07883817,19.8215768 L5.07883817,31.7427386 Z M31.2912863,23.320332 L19.2290456,30.0215768 L7.33609959,30.3460581 L7.33609959,20.9925311 L17.1410788,18.5941909 C17.1481328,18.5941909 17.1481328,18.5941909 17.1551867,18.5941909 C17.606639,18.4742739 18.0863071,18.6435685 18.3614108,19.0244813 L18.3825726,19.0526971 C18.5659751,19.306639 18.6435685,19.6170124 18.5871369,19.9273859 C18.5307054,20.2377593 18.3614108,20.5058091 18.1004149,20.6821577 C18.093361,20.6821577 18.093361,20.6892116 18.0863071,20.6892116 L14.2348548,23.3767635 C13.726971,23.7365145 13.6,24.4348548 13.9526971,24.9497925 C14.0726141,25.1190871 14.2278008,25.2460581 14.4041494,25.3236515 C14.6369295,25.4506224 14.9049793,25.5 15.1871369,25.4435685 L30.9526971,22.1070539 C31.2207469,22.1 31.4676349,22.2622407 31.56639,22.5091286 L31.5804979,22.5373444 C31.693361,22.826556 31.573444,23.1651452 31.2912863,23.320332 Z" id="Shape"></path>
                <path d="M32.7302905,0 L1.12863071,0 L1.12863071,15.2365145 L32.7302905,15.2365145 L32.7302905,0 Z M3.85145228,7.82987552 L8.95850622,2.25726141 L24.3854772,2.25726141 L30.0004149,7.406639 L24.9004149,12.9792531 L9.46639004,12.9792531 L3.85145228,7.82987552 Z M30.473029,4.76846473 L27.7290456,2.25726141 L30.473029,2.25726141 L30.473029,4.76846473 Z M5.89709544,2.25726141 L3.38589212,5.00124481 L3.38589212,2.25726141 L5.89709544,2.25726141 Z M3.38589212,10.4680498 L6.12987552,12.9792531 L3.38589212,12.9792531 L3.38589212,10.4680498 Z M27.9618257,12.9792531 L30.473029,10.2352697 L30.473029,12.9792531 L27.9618257,12.9792531 Z" id="Shape"></path>
                <path d="M16.9294606,3.95020747 C15.060166,3.95020747 13.5435685,5.46680498 13.5435685,7.33609959 C13.5435685,9.20539419 15.060166,10.7219917 16.9294606,10.7219917 C18.7987552,10.7219917 20.3153527,9.20539419 20.3153527,7.33609959 C20.3153527,5.46680498 18.7987552,3.95020747 16.9294606,3.95020747 Z M16.9294606,8.46473029 C16.3087137,8.46473029 15.8008299,7.95684647 15.8008299,7.33609959 C15.8008299,6.7153527 16.3087137,6.20746888 16.9294606,6.20746888 C17.5502075,6.20746888 18.0580913,6.7153527 18.0580913,7.33609959 C18.0580913,7.95684647 17.5502075,8.46473029 16.9294606,8.46473029 Z" id="Shape"></path>
            </g>
        </g>
    </g>
</svg>