<?xml version="1.0" encoding="UTF-8"?>
<svg width="32px" height="30px" viewBox="0 0 32 30" version="1.1" xmlns="http://www.w3.org/2000/svg" xmlns:xlink="http://www.w3.org/1999/xlink">
    <title>Shape</title>
    <g id="Page-1" stroke="none" stroke-width="1" fill="none" fill-rule="evenodd">
        <g id="EIBOR-" transform="translate(-1101.000000, -563.000000)" fill="#001E62" fill-rule="nonzero">
            <path d="M1132.035,563 L1102.035,563 C1101.80094,563 1101.57643,563.092776 1101.41093,563.25828 C1101.24542,563.423784 1101.15265,563.648295 1101.15265,563.882353 L1101.15265,592.117647 C1101.15265,592.351705 1101.24542,592.576216 1101.41093,592.74172 C1101.57643,592.907224 1101.80094,593 1102.035,593 L1132.035,593 C1132.26906,593 1132.49357,592.907224 1132.65907,592.74172 C1132.82458,592.576216 1132.91735,592.351705 1132.91735,592.117647 L1132.91735,563.882353 C1132.91735,563.648295 1132.82458,563.423784 1132.65907,563.25828 C1132.49357,563.092776 1132.26906,563 1132.035,563 Z M1108.21147,577.117647 L1102.91735,577.117647 L1102.91735,571.82353 L1108.21147,571.82353 L1108.21147,577.117647 Z M1109.97618,571.82353 L1131.15265,571.82353 L1131.15265,577.117647 L1109.97618,577.117647 L1109.97618,571.82353 Z M1102.91735,578.882353 L1108.21147,578.882353 L1108.21147,584.176471 L1102.91735,584.176471 L1102.91735,578.882353 Z M1109.97618,578.882353 L1131.15265,578.882353 L1131.15265,584.176471 L1109.97618,584.176471 L1109.97618,578.882353 Z M1131.15265,570.058824 L1109.97618,570.058824 L1109.97618,564.764706 L1131.15265,564.764706 L1131.15265,570.058824 Z M1108.21147,564.764706 L1108.21147,570.058824 L1102.91735,570.058824 L1102.91735,564.764706 L1108.21147,564.764706 Z M1102.91735,585.941177 L1108.21147,585.941177 L1108.21147,591.235294 L1102.91735,591.235294 L1102.91735,585.941177 Z M1109.97618,591.235294 L1109.97618,585.941177 L1131.15265,585.941177 L1131.15265,591.235294 L1109.97618,591.235294 Z" id="Shape"></path>
        </g>
    </g>
</svg>