<?xml version="1.0" encoding="UTF-8"?>
<svg width="31px" height="32px" viewBox="0 0 31 32" version="1.1" xmlns="http://www.w3.org/2000/svg" xmlns:xlink="http://www.w3.org/1999/xlink">
    <title>Group 8</title>
    <g id="Batch-1" stroke="none" stroke-width="1" fill="none" fill-rule="evenodd">
        <g id="Licensing---How-to-apply-Insurance" transform="translate(-128.000000, -1438.000000)" fill-rule="nonzero">
            <g id="Group-8" transform="translate(129.000000, 1439.415403)">
                <path d="M0.0172053729,24.7030562 C0.121684879,26.4063 0.746609025,28.0369614 1.72988811,29.4316489 L1.77805935,29.5 L16.1282055,29.5 L16.1767023,29.430998 C17.1492405,28.0516081 17.7718862,26.4417775 17.8854792,24.7577371 C18.0189266,22.780438 17.5040151,20.9287748 16.5357082,19.3895736 L16.5357082,19.4331881 C16.0520429,19.4331881 15.7522746,19.9487505 15.9817389,20.3748055 C16.5861578,21.4973906 16.9301915,22.7801125 16.9301915,24.1422519 C16.9301915,25.7110719 16.4771215,27.2203288 15.6171999,28.5238815 L2.28939051,28.5238815 C1.42946885,27.2203288 0.976398841,25.7110719 0.976398841,24.1422519 C0.976398841,19.7436972 4.55474054,16.1653555 8.95329518,16.1653555 C9.09780889,16.1653555 9.24134616,16.1695868 9.38390698,16.1777238 C9.66544833,16.1936724 9.90272421,15.9733216 9.90272421,15.6914547 C9.90272421,15.4320461 9.69994935,15.2165775 9.44086621,15.2022563 C9.27942747,15.1934683 9.11701229,15.1885861 8.95329518,15.1885861 C3.83087007,15.1885861 -0.300789883,19.5132565 0.0172053729,24.7030562 Z" id="Path" stroke="#001E62" fill="#000000"></path>
                <path d="M8.95329518,27.2769625 C12.4157655,27.2769625 15.2227165,24.4700116 15.2227165,21.0075412 L2.68419936,21.0075412 C2.68419936,24.4700116 5.49082484,27.2769625 8.95329518,27.2769625 Z M11.4279297,23.6123683 C11.8019078,23.6123683 12.1478944,23.7367022 12.4024208,23.9629117 C12.6846131,24.2135323 12.8336836,24.5783969 12.8336836,25.0177967 L10.0228268,25.0177967 C10.0228268,24.0468859 10.7284703,23.6123683 11.4279297,23.6123683 Z M6.47898614,23.6123683 C6.85296419,23.6123683 7.19895084,23.7367022 7.45315175,23.9629117 C7.73534406,24.2135323 7.88441451,24.5783969 7.88441451,25.0177967 L5.07355778,25.0177967 C5.07355778,24.0468859 5.77920129,23.6123683 6.47898614,23.6123683 Z" id="Shape" fill="#001E62"></path>
                <path d="M19.5763547,0 C14.3204823,0 10.0442227,4.02067082 10.0442227,8.9624538 C10.0442227,10.1686876 10.3053446,11.3426987 10.7977979,12.4359905 C11.0269367,12.9443923 11.3013175,13.4368456 11.6310301,13.9042368 L10.0752293,18.1820378 C10.0072037,18.3695151 10.0530966,18.5794505 10.193379,18.7213604 C10.2919999,18.8209577 10.4244708,18.8740111 10.559871,18.8740111 C10.6174812,18.8740111 10.6754169,18.8645722 10.7313997,18.8447178 L15.6341249,17.1144591 C15.9306384,17.2420478 16.2317086,17.3533624 16.5360336,17.4510068 C17.5167089,17.7654217 18.5348145,17.9252331 19.5763547,17.9252331 C24.8322272,17.9252331 29.1084008,13.9045623 29.1084008,8.96277928 C29.1084008,4.0209963 24.8322272,0 19.5763547,0 Z M19.5763547,16.8937828 C18.282241,16.8937828 17.0278359,16.6203784 15.8479661,16.0810559 C15.6920606,16.00945 15.5166261,16.0260495 15.3753672,16.1119766 L11.4175143,17.5089425 L12.6940521,13.9989518 C12.7536151,13.8349093 12.7262747,13.6519887 12.6211442,13.5123573 C11.6098738,12.1697468 11.0754334,10.5963701 11.0754334,8.9624538 C11.0754334,4.5892867 14.8887726,1.03145032 19.5760292,1.03145032 C24.2632858,1.03145032 28.076625,4.5892867 28.076625,8.9624538 C28.076625,13.3356209 24.2636113,16.8937828 19.5763547,16.8937828 Z" id="Shape" stroke="#001E62" fill="#000000"></path>
                <circle id="Oval" stroke="#001E62" fill="#001E62" cx="15.0033421" cy="8.95236388" r="1.17498759"></circle>
                <circle id="Oval" stroke="#001E62" fill="#001E62" cx="19.5763547" cy="8.95236388" r="1.17498759"></circle>
                <circle id="Oval" stroke="#001E62" fill="#001E62" cx="24.1493673" cy="8.95236388" r="1.17498759"></circle>
            </g>
        </g>
    </g>
</svg>