<?xml version="1.0" encoding="UTF-8"?>
<svg width="14px" height="17px" viewBox="0 0 14 17" version="1.1" xmlns="http://www.w3.org/2000/svg" xmlns:xlink="http://www.w3.org/1999/xlink">
    <title>Combined Shape</title>
    <g id="Page-1" stroke="none" stroke-width="1" fill="none" fill-rule="evenodd">
        <g id="T13-Timeline-" transform="translate(-362.000000, -1586.000000)" fill="#001E62" fill-rule="nonzero">
            <g id="date-2" transform="translate(0.000000, 1263.000000)">
                <g transform="translate(0.000000, -405.000000)" id="buttons">
                    <g transform="translate(130.000000, 723.000000)">
                        <g id="download" transform="translate(145.500000, 0.000000)">
                            <path d="M99.2666667,19.8666667 C99.5610667,19.8666667 99.8,20.1056 99.8,20.4 L99.8,20.4 L99.8,21.4666667 C99.8,21.7610667 99.5610667,22 99.2666667,22 L99.2666667,22 L87.5333333,22 C87.2389333,22 87,21.7610667 87,21.4666667 L87,21.4666667 L87,20.4 C87,20.1056 87.2389333,19.8666667 87.5333333,19.8666667 L87.5333333,19.8666667 Z M93.9333333,5 C94.2277333,5 94.4666667,5.23893333 94.4666667,5.53333333 L94.4666667,5.53333333 L94.4666667,13.144 L96.5626667,11.3072 C96.7845333,11.1141333 97.1205333,11.1354667 97.3146667,11.3562667 L97.3146667,11.3562667 L98.0176,12.1562667 C98.2128,12.3770667 98.1904,12.7152 97.9685333,12.9093333 L97.9685333,12.9093333 L93.752,16.6010667 C93.5504,16.7770667 93.2506667,16.7770667 93.0490667,16.6010667 L93.0490667,16.6010667 L88.8314667,12.9093333 C88.6096,12.7152 88.5872,12.3770667 88.7824,12.1552 L88.7824,12.1552 L89.4853333,11.3562667 C89.6805333,11.1354667 90.0165333,11.1141333 90.2373333,11.3072 L90.2373333,11.3072 L92.3333333,13.144 L92.3333333,5.53333333 C92.3333333,5.23893333 92.5722667,5 92.8666667,5 L92.8666667,5 Z" id="Combined-Shape"></path>
                        </g>
                    </g>
                </g>
            </g>
        </g>
    </g>
</svg>