<?xml version="1.0" encoding="UTF-8"?>
<svg width="34px" height="30px" viewBox="0 0 34 30" version="1.1" xmlns="http://www.w3.org/2000/svg" xmlns:xlink="http://www.w3.org/1999/xlink">
    <title>Shape</title>
    <g id="Page-1" stroke="none" stroke-width="1" fill="none" fill-rule="evenodd">
        <g id="Education-" transform="translate(-162.000000, -637.000000)" fill="#001E62" fill-rule="nonzero">
            <g id="Shape-2" transform="translate(162.000000, 637.000000)">
                <path d="M32.183187,25.6712673 L30.1505646,25.6712673 L30.1505646,11.9322459 L32.183187,11.9322459 L32.183187,8.77038896 L16.9008783,0 L1.69385194,8.77038896 L1.69385194,11.9322459 L3.72647428,11.9322459 L3.72647428,25.6712673 L1.69385194,25.6712673 L1.69385194,27.4404015 L0,27.4404015 L0,30 L33.8770389,30 L33.8770389,27.4404015 L32.183187,27.4404015 L32.183187,25.6712673 Z M24.9937265,8.77038896 L8.92095358,8.77038896 L16.9008783,4.25345044 L24.9937265,8.77038896 Z M6.58720201,25.6712673 L6.58720201,13.7390213 L11.6687578,13.7390213 L11.6687578,25.6712673 L6.58720201,25.6712673 Z M14.4165621,25.6712673 L14.4165621,13.7390213 L19.4981179,13.7390213 L19.4981179,25.6712673 L14.4165621,25.6712673 Z M22.2835634,25.6712673 L22.2835634,13.7390213 L27.3651192,13.7390213 L27.3651192,25.6712673 L22.2835634,25.6712673 Z" id="Shape"></path>
            </g>
        </g>
    </g>
</svg>