<?xml version="1.0" encoding="UTF-8"?>
<svg width="52px" height="42px" viewBox="0 0 52 42" version="1.1" xmlns="http://www.w3.org/2000/svg" xmlns:xlink="http://www.w3.org/1999/xlink">
    <title>Group</title>
    <defs>
        <filter color-interpolation-filters="auto" id="filter-1">
            <feColorMatrix in="SourceGraphic" type="matrix" values="0 0 0 0 0.000000 0 0 0 0 0.117647 0 0 0 0 0.384314 0 0 0 1.000000 0"></feColorMatrix>
        </filter>
    </defs>
    <g id="Page-1" stroke="none" stroke-width="1" fill="none" fill-rule="evenodd">
        <g id="Group" transform="translate(-161.000000, -1509.000000)" filter="url(#filter-1)">
            <g transform="translate(161.500000, 1509.122050)">
                <path d="M1.41379154,20.4999661 C1.41379154,20.8903738 1.09730353,21.2068618 0.706895772,21.2068618 C0.316488017,21.2068618 0,20.8903738 0,20.4999661 C0,20.1095583 0.316488017,19.7930703 0.706895772,19.7930703 C1.09730353,19.7930703 1.41379154,20.1095583 1.41379154,20.4999661 L1.41379154,20.4999661 Z" id="Path" fill="#000000" fill-rule="nonzero"></path>
                <path d="M1.41379154,22.4792742 C1.41379154,22.869682 1.09730353,23.18617 0.706895772,23.18617 C0.316488017,23.18617 0,22.869682 0,22.4792742 C0,22.0888665 0.316488017,21.7723785 0.706895772,21.7723785 C1.09730353,21.7723785 1.41379154,22.0888665 1.41379154,22.4792742 Z" id="Path" fill="#000000" fill-rule="nonzero"></path>
                <path d="M3.3930997,20.4999661 C3.3930997,20.8903738 3.07661169,21.2068618 2.68620393,21.2068618 C2.29579618,21.2068618 1.97930816,20.8903738 1.97930816,20.4999661 C1.97930816,20.1095583 2.29579618,19.7930703 2.68620393,19.7930703 C3.07661169,19.7930703 3.3930997,20.1095583 3.3930997,20.4999661 L3.3930997,20.4999661 Z" id="Path" fill="#000000" fill-rule="nonzero"></path>
                <path d="M3.3930997,22.4792742 C3.3930997,22.869682 3.07661169,23.18617 2.68620393,23.18617 C2.29579618,23.18617 1.97930816,22.869682 1.97930816,22.4792742 C1.97930816,22.0888665 2.29579618,21.7723785 2.68620393,21.7723785 C3.07661169,21.7723785 3.3930997,22.0888665 3.3930997,22.4792742 Z" id="Path" fill="#000000" fill-rule="nonzero"></path>
                <path d="M3.39309971,24.4586389 C3.39309971,24.8490467 3.07661169,25.1655347 2.68620393,25.1655347 C2.29579618,25.1655347 1.97930816,24.8490467 1.97930816,24.4586389 C1.97929316,24.2711487 2.05376284,24.0913325 2.18633314,23.9587516 C2.31890344,23.8261707 2.49871372,23.7516866 2.68620393,23.7516866 C2.87369415,23.7516866 3.05350442,23.8261707 3.18607472,23.9587516 C3.31864502,24.0913325 3.3931147,24.2711487 3.39309971,24.4586389 Z" id="Path" fill="#000000" fill-rule="nonzero"></path>
                <path d="M5.37240787,24.4586389 C5.37240787,24.8490467 5.05591985,25.1655347 4.66551209,25.1655347 C4.27510434,25.1655347 3.95861632,24.8490467 3.95861632,24.4586389 C3.95860132,24.2711487 4.03307101,24.0913325 4.1656413,23.9587516 C4.2982116,23.8261707 4.47802188,23.7516866 4.66551209,23.7516866 C4.85300231,23.7516866 5.03281258,23.8261707 5.16538288,23.9587516 C5.29795318,24.0913325 5.37242286,24.2711487 5.37240787,24.4586389 L5.37240787,24.4586389 Z" id="Path" fill="#000000" fill-rule="nonzero"></path>
                <path d="M5.37240786,26.4379471 C5.37240786,26.8283549 5.05591985,27.1448429 4.66551209,27.1448429 C4.27510434,27.1448429 3.95861632,26.8283549 3.95861632,26.4379471 C3.95861632,26.0475393 4.27510434,25.7310513 4.66551209,25.7310513 C5.05591985,25.7310513 5.37240786,26.0475393 5.37240786,26.4379471 L5.37240786,26.4379471 Z" id="Path" fill="#000000" fill-rule="nonzero"></path>
                <path d="M7.35171603,24.4586389 C7.35171603,24.8490467 7.03522801,25.1655347 6.64482025,25.1655347 C6.2544125,25.1655347 5.93792448,24.8490467 5.93792448,24.4586389 C5.93790948,24.2711487 6.01237917,24.0913325 6.14494947,23.9587516 C6.27751976,23.8261707 6.45733004,23.7516866 6.64482025,23.7516866 C6.83231047,23.7516866 7.01212074,23.8261707 7.14469104,23.9587516 C7.27726134,24.0913325 7.35173102,24.2711487 7.35171603,24.4586389 Z" id="Path" fill="#000000" fill-rule="nonzero"></path>
                <path d="M7.35171603,26.4379471 C7.35171603,26.8283549 7.03522801,27.1448429 6.64482025,27.1448429 C6.2544125,27.1448429 5.93792448,26.8283549 5.93792448,26.4379471 C5.93792448,26.0475393 6.2544125,25.7310513 6.64482025,25.7310513 C7.03522801,25.7310513 7.35171603,26.0475393 7.35171603,26.4379471 Z" id="Path" fill="#000000" fill-rule="nonzero"></path>
                <path d="M7.35171603,28.4172553 C7.35171603,28.807663 7.03522801,29.124151 6.64482025,29.124151 C6.2544125,29.124151 5.93792448,28.807663 5.93792448,28.4172553 C5.93792448,28.0268475 6.2544125,27.7103595 6.64482025,27.7103595 C7.03522801,27.7103595 7.35171603,28.0268475 7.35171603,28.4172553 L7.35171603,28.4172553 Z" id="Path" fill="#000000" fill-rule="nonzero"></path>
                <path d="M7.35171603,30.3965634 C7.35171603,30.7869712 7.03522801,31.1034592 6.64482025,31.1034592 C6.2544125,31.1034592 5.93792448,30.7869712 5.93792448,30.3965634 C5.93792448,30.0061557 6.2544125,29.6896677 6.64482025,29.6896677 C7.03522801,29.6896677 7.35171603,30.0061557 7.35171603,30.3965634 Z" id="Path" fill="#000000" fill-rule="nonzero"></path>
                <path d="M9.33102419,24.4586389 C9.33102419,24.8490467 9.01453617,25.1655347 8.62412841,25.1655347 C8.23372066,25.1655347 7.91723264,24.8490467 7.91723264,24.4586389 C7.91721764,24.2711487 7.99168733,24.0913325 8.12425763,23.9587516 C8.25682792,23.8261707 8.4366382,23.7516866 8.62412841,23.7516866 C8.81161863,23.7516866 8.9914289,23.8261707 9.1239992,23.9587516 C9.2565695,24.0913325 9.33103919,24.2711487 9.33102419,24.4586389 Z" id="Path" fill="#000000" fill-rule="nonzero"></path>
                <path d="M9.33102419,26.4379471 C9.33102419,26.8283549 9.01453617,27.1448429 8.62412841,27.1448429 C8.23372066,27.1448429 7.91723264,26.8283549 7.91723264,26.4379471 C7.91723264,26.0475393 8.23372066,25.7310513 8.62412841,25.7310513 C9.01453617,25.7310513 9.33102419,26.0475393 9.33102419,26.4379471 Z" id="Path" fill="#000000" fill-rule="nonzero"></path>
                <path d="M9.33102419,28.4172553 C9.33102419,28.807663 9.01453617,29.124151 8.62412841,29.124151 C8.23372066,29.124151 7.91723264,28.807663 7.91723264,28.4172553 C7.91723264,28.0268475 8.23372066,27.7103595 8.62412841,27.7103595 C9.01453617,27.7103595 9.33102419,28.0268475 9.33102419,28.4172553 L9.33102419,28.4172553 Z" id="Path" fill="#000000" fill-rule="nonzero"></path>
                <path d="M9.33102419,30.3965634 C9.33102419,30.7869712 9.01453617,31.1034592 8.62412841,31.1034592 C8.23372066,31.1034592 7.91723264,30.7869712 7.91723264,30.3965634 C7.91723264,30.0061557 8.23372066,29.6896677 8.62412841,29.6896677 C9.01453617,29.6896677 9.33102419,30.0061557 9.33102419,30.3965634 Z" id="Path" fill="#000000" fill-rule="nonzero"></path>
                <path d="M9.33102419,32.3758716 C9.33102419,32.7662793 9.01453617,33.0827674 8.62412841,33.0827674 C8.23372066,33.0827674 7.91723264,32.7662793 7.91723264,32.3758716 C7.91723264,31.9854638 8.23372066,31.6689758 8.62412841,31.6689758 C9.01453617,31.6689758 9.33102419,31.9854638 9.33102419,32.3758716 Z" id="Path" fill="#000000" fill-rule="nonzero"></path>
                <path d="M11.3103323,22.4792742 C11.3103323,22.869682 10.9938443,23.18617 10.6034366,23.18617 C10.2130288,23.18617 9.8965408,22.869682 9.8965408,22.4792742 C9.8965408,22.0888665 10.2130288,21.7723785 10.6034366,21.7723785 C10.9938443,21.7723785 11.3103323,22.0888665 11.3103323,22.4792742 Z" id="Path" fill="#000000" fill-rule="nonzero"></path>
                <path d="M11.3103323,24.4586389 C11.3103323,24.8490467 10.9938443,25.1655347 10.6034366,25.1655347 C10.2130288,25.1655347 9.8965408,24.8490467 9.8965408,24.4586389 C9.8965258,24.2711487 9.97099549,24.0913325 10.1035658,23.9587516 C10.2361361,23.8261707 10.4159464,23.7516866 10.6034366,23.7516866 C10.7909268,23.7516866 10.9707371,23.8261707 11.1033074,23.9587516 C11.2358777,24.0913325 11.3103473,24.2711487 11.3103323,24.4586389 Z" id="Path" fill="#000000" fill-rule="nonzero"></path>
                <path d="M11.3103323,26.4379471 C11.3103323,26.8283549 10.9938443,27.1448429 10.6034366,27.1448429 C10.2130288,27.1448429 9.8965408,26.8283549 9.8965408,26.4379471 C9.8965408,26.0475393 10.2130288,25.7310513 10.6034366,25.7310513 C10.9938443,25.7310513 11.3103323,26.0475393 11.3103323,26.4379471 Z" id="Path" fill="#000000" fill-rule="nonzero"></path>
                <path d="M11.3103323,28.4172553 C11.3103323,28.807663 10.9938443,29.124151 10.6034366,29.124151 C10.2130288,29.124151 9.8965408,28.807663 9.8965408,28.4172553 C9.8965408,28.0268475 10.2130288,27.7103595 10.6034366,27.7103595 C10.9938443,27.7103595 11.3103323,28.0268475 11.3103323,28.4172553 L11.3103323,28.4172553 Z" id="Path" fill="#000000" fill-rule="nonzero"></path>
                <path d="M11.3103323,30.3965634 C11.3103323,30.7869712 10.9938443,31.1034592 10.6034366,31.1034592 C10.2130288,31.1034592 9.8965408,30.7869712 9.8965408,30.3965634 C9.8965408,30.0061557 10.2130288,29.6896677 10.6034366,29.6896677 C10.9938443,29.6896677 11.3103323,30.0061557 11.3103323,30.3965634 Z" id="Path" fill="#000000" fill-rule="nonzero"></path>
                <path d="M11.3103323,32.3758716 C11.3103323,32.7662793 10.9938443,33.0827674 10.6034366,33.0827674 C10.2130288,33.0827674 9.8965408,32.7662793 9.8965408,32.3758716 C9.8965408,31.9854638 10.2130288,31.6689758 10.6034366,31.6689758 C10.9938443,31.6689758 11.3103323,31.9854638 11.3103323,32.3758716 Z" id="Path" fill="#000000" fill-rule="nonzero"></path>
                <path d="M11.3103323,34.3551797 C11.3103323,34.7455875 10.9938443,35.0620755 10.6034366,35.0620755 C10.2130288,35.0620755 9.8965408,34.7455875 9.8965408,34.3551797 C9.8965408,33.964772 10.2130288,33.648284 10.6034366,33.648284 C10.9938443,33.648284 11.3103323,33.964772 11.3103323,34.3551797 Z" id="Path" fill="#000000" fill-rule="nonzero"></path>
                <path d="M13.2896405,22.4792742 C13.2896405,22.869682 12.9731525,23.18617 12.5827447,23.18617 C12.192337,23.18617 11.875849,22.869682 11.875849,22.4792742 C11.875849,22.0888665 12.192337,21.7723785 12.5827447,21.7723785 C12.9731525,21.7723785 13.2896405,22.0888665 13.2896405,22.4792742 Z" id="Path" fill="#000000" fill-rule="nonzero"></path>
                <path d="M13.2896405,24.4586389 C13.2896405,24.8490467 12.9731525,25.1655347 12.5827447,25.1655347 C12.192337,25.1655347 11.875849,24.8490467 11.875849,24.4586389 C11.875834,24.2711487 11.9503036,24.0913325 12.0828739,23.9587516 C12.2154442,23.8261707 12.3952545,23.7516866 12.5827447,23.7516866 C12.770235,23.7516866 12.9500452,23.8261707 13.0826155,23.9587516 C13.2151858,24.0913325 13.2896555,24.2711487 13.2896405,24.4586389 Z" id="Path" fill="#000000" fill-rule="nonzero"></path>
                <path d="M13.2896405,26.4379471 C13.2896405,26.8283549 12.9731525,27.1448429 12.5827447,27.1448429 C12.192337,27.1448429 11.875849,26.8283549 11.875849,26.4379471 C11.875849,26.0475393 12.192337,25.7310513 12.5827447,25.7310513 C12.9731525,25.7310513 13.2896405,26.0475393 13.2896405,26.4379471 Z" id="Path" fill="#000000" fill-rule="nonzero"></path>
                <path d="M13.2896405,28.4172553 C13.2896405,28.807663 12.9731525,29.124151 12.5827447,29.124151 C12.192337,29.124151 11.875849,28.807663 11.875849,28.4172553 C11.875849,28.0268475 12.192337,27.7103595 12.5827447,27.7103595 C12.9731525,27.7103595 13.2896405,28.0268475 13.2896405,28.4172553 L13.2896405,28.4172553 Z" id="Path" fill="#000000" fill-rule="nonzero"></path>
                <path d="M13.2896405,30.3965634 C13.2896405,30.7869712 12.9731525,31.1034592 12.5827447,31.1034592 C12.192337,31.1034592 11.875849,30.7869712 11.875849,30.3965634 C11.875849,30.0061557 12.192337,29.6896677 12.5827447,29.6896677 C12.9731525,29.6896677 13.2896405,30.0061557 13.2896405,30.3965634 Z" id="Path" fill="#000000" fill-rule="nonzero"></path>
                <path d="M13.2896405,32.3758716 C13.2896405,32.7662793 12.9731525,33.0827674 12.5827447,33.0827674 C12.192337,33.0827674 11.875849,32.7662793 11.875849,32.3758716 C11.875849,31.9854638 12.192337,31.6689758 12.5827447,31.6689758 C12.9731525,31.6689758 13.2896405,31.9854638 13.2896405,32.3758716 Z" id="Path" fill="#000000" fill-rule="nonzero"></path>
                <path d="M13.2896405,34.3551797 C13.2896405,34.7455875 12.9731525,35.0620755 12.5827447,35.0620755 C12.192337,35.0620755 11.875849,34.7455875 11.875849,34.3551797 C11.875849,33.964772 12.192337,33.648284 12.5827447,33.648284 C12.9731525,33.648284 13.2896405,33.964772 13.2896405,34.3551797 Z" id="Path" fill="#000000" fill-rule="nonzero"></path>
                <path d="M13.2896405,36.3344879 C13.2896405,36.7248957 12.9731525,37.0413837 12.5827447,37.0413837 C12.192337,37.0413837 11.875849,36.7248957 11.875849,36.3344879 C11.875849,35.9440802 12.192337,35.6275921 12.5827447,35.6275921 C12.9731525,35.6275921 13.2896405,35.9440802 13.2896405,36.3344879 Z" id="Path" fill="#000000" fill-rule="nonzero"></path>
                <path d="M15.2689487,22.4792742 C15.2689487,22.869682 14.9524607,23.18617 14.5620529,23.18617 C14.1716451,23.18617 13.8551571,22.869682 13.8551571,22.4792742 C13.8551571,22.0888665 14.1716451,21.7723785 14.5620529,21.7723785 C14.9524607,21.7723785 15.2689487,22.0888665 15.2689487,22.4792742 Z" id="Path" fill="#000000" fill-rule="nonzero"></path>
                <path d="M15.2689487,24.4586389 C15.2689487,24.8490467 14.9524607,25.1655347 14.5620529,25.1655347 C14.1716451,25.1655347 13.8551571,24.8490467 13.8551571,24.4586389 C13.8551421,24.2711487 13.9296118,24.0913325 14.0621821,23.9587516 C14.1947524,23.8261707 14.3745627,23.7516866 14.5620529,23.7516866 C14.7495431,23.7516866 14.9293534,23.8261707 15.0619237,23.9587516 C15.194494,24.0913325 15.2689637,24.2711487 15.2689487,24.4586389 Z" id="Path" fill="#000000" fill-rule="nonzero"></path>
                <path d="M15.2689487,26.4379471 C15.2689487,26.8283549 14.9524607,27.1448429 14.5620529,27.1448429 C14.1716451,27.1448429 13.8551571,26.8283549 13.8551571,26.4379471 C13.8551571,26.0475393 14.1716451,25.7310513 14.5620529,25.7310513 C14.9524607,25.7310513 15.2689487,26.0475393 15.2689487,26.4379471 Z" id="Path" fill="#000000" fill-rule="nonzero"></path>
                <path d="M15.2689487,28.4172553 C15.2689487,28.807663 14.9524607,29.124151 14.5620529,29.124151 C14.1716451,29.124151 13.8551571,28.807663 13.8551571,28.4172553 C13.8551571,28.0268475 14.1716451,27.7103595 14.5620529,27.7103595 C14.9524607,27.7103595 15.2689487,28.0268475 15.2689487,28.4172553 L15.2689487,28.4172553 Z" id="Path" fill="#000000" fill-rule="nonzero"></path>
                <path d="M15.2689487,30.3965634 C15.2689487,30.7869712 14.9524607,31.1034592 14.5620529,31.1034592 C14.1716451,31.1034592 13.8551571,30.7869712 13.8551571,30.3965634 C13.8551571,30.0061557 14.1716451,29.6896677 14.5620529,29.6896677 C14.9524607,29.6896677 15.2689487,30.0061557 15.2689487,30.3965634 Z" id="Path" fill="#000000" fill-rule="nonzero"></path>
                <path d="M15.2689487,32.3758716 C15.2689487,32.7662793 14.9524607,33.0827674 14.5620529,33.0827674 C14.1716451,33.0827674 13.8551571,32.7662793 13.8551571,32.3758716 C13.8551571,31.9854638 14.1716451,31.6689758 14.5620529,31.6689758 C14.9524607,31.6689758 15.2689487,31.9854638 15.2689487,32.3758716 Z" id="Path" fill="#000000" fill-rule="nonzero"></path>
                <path d="M15.2689487,34.3551797 C15.2689487,34.7455875 14.9524607,35.0620755 14.5620529,35.0620755 C14.1716451,35.0620755 13.8551571,34.7455875 13.8551571,34.3551797 C13.8551571,33.964772 14.1716451,33.648284 14.5620529,33.648284 C14.9524607,33.648284 15.2689487,33.964772 15.2689487,34.3551797 Z" id="Path" fill="#000000" fill-rule="nonzero"></path>
                <path d="M15.2689487,36.3344879 C15.2689487,36.7248957 14.9524607,37.0413837 14.5620529,37.0413837 C14.1716451,37.0413837 13.8551571,36.7248957 13.8551571,36.3344879 C13.8551571,35.9440802 14.1716451,35.6275921 14.5620529,35.6275921 C14.9524607,35.6275921 15.2689487,35.9440802 15.2689487,36.3344879 Z" id="Path" fill="#000000" fill-rule="nonzero"></path>
                <path d="M17.2482568,22.4792742 C17.2482568,22.869682 16.9317688,23.18617 16.5413611,23.18617 C16.1509533,23.18617 15.8344653,22.869682 15.8344653,22.4792742 C15.8344653,22.0888665 16.1509533,21.7723785 16.5413611,21.7723785 C16.9317688,21.7723785 17.2482568,22.0888665 17.2482568,22.4792742 Z" id="Path" fill="#000000" fill-rule="nonzero"></path>
                <path d="M17.2482568,24.4586389 C17.2482568,24.8490467 16.9317688,25.1655347 16.5413611,25.1655347 C16.1509533,25.1655347 15.8344653,24.8490467 15.8344653,24.4586389 C15.8344503,24.2711487 15.90892,24.0913325 16.0414903,23.9587516 C16.1740606,23.8261707 16.3538708,23.7516866 16.5413611,23.7516866 C16.7288513,23.7516866 16.9086615,23.8261707 17.0412318,23.9587516 C17.1738021,24.0913325 17.2482718,24.2711487 17.2482568,24.4586389 Z" id="Path" fill="#000000" fill-rule="nonzero"></path>
                <path d="M17.2482568,26.4379471 C17.2482568,26.8283549 16.9317688,27.1448429 16.5413611,27.1448429 C16.1509533,27.1448429 15.8344653,26.8283549 15.8344653,26.4379471 C15.8344653,26.0475393 16.1509533,25.7310513 16.5413611,25.7310513 C16.9317688,25.7310513 17.2482568,26.0475393 17.2482568,26.4379471 Z" id="Path" fill="#000000" fill-rule="nonzero"></path>
                <path d="M17.2482568,28.4172553 C17.2482568,28.807663 16.9317688,29.124151 16.5413611,29.124151 C16.1509533,29.124151 15.8344653,28.807663 15.8344653,28.4172553 C15.8344653,28.0268475 16.1509533,27.7103595 16.5413611,27.7103595 C16.9317688,27.7103595 17.2482568,28.0268475 17.2482568,28.4172553 L17.2482568,28.4172553 Z" id="Path" fill="#000000" fill-rule="nonzero"></path>
                <path d="M17.2482568,30.3965634 C17.2482568,30.7869712 16.9317688,31.1034592 16.5413611,31.1034592 C16.1509533,31.1034592 15.8344653,30.7869712 15.8344653,30.3965634 C15.8344653,30.0061557 16.1509533,29.6896677 16.5413611,29.6896677 C16.9317688,29.6896677 17.2482568,30.0061557 17.2482568,30.3965634 Z" id="Path" fill="#000000" fill-rule="nonzero"></path>
                <path d="M17.2482568,32.3758716 C17.2482568,32.7662793 16.9317688,33.0827674 16.5413611,33.0827674 C16.1509533,33.0827674 15.8344653,32.7662793 15.8344653,32.3758716 C15.8344653,31.9854638 16.1509533,31.6689758 16.5413611,31.6689758 C16.9317688,31.6689758 17.2482568,31.9854638 17.2482568,32.3758716 Z" id="Path" fill="#000000" fill-rule="nonzero"></path>
                <path d="M17.2482568,34.3551797 C17.2482568,34.7455875 16.9317688,35.0620755 16.5413611,35.0620755 C16.1509533,35.0620755 15.8344653,34.7455875 15.8344653,34.3551797 C15.8344653,33.964772 16.1509533,33.648284 16.5413611,33.648284 C16.9317688,33.648284 17.2482568,33.964772 17.2482568,34.3551797 Z" id="Path" fill="#000000" fill-rule="nonzero"></path>
                <path d="M17.2482568,36.3344879 C17.2482568,36.7248957 16.9317688,37.0413837 16.5413611,37.0413837 C16.1509533,37.0413837 15.8344653,36.7248957 15.8344653,36.3344879 C15.8344653,35.9440802 16.1509533,35.6275921 16.5413611,35.6275921 C16.9317688,35.6275921 17.2482568,35.9440802 17.2482568,36.3344879 Z" id="Path" fill="#000000" fill-rule="nonzero"></path>
                <path d="M19.227565,22.4792742 C19.227565,22.869682 18.911077,23.18617 18.5206692,23.18617 C18.1302615,23.18617 17.8137734,22.869682 17.8137734,22.4792742 C17.8137734,22.0888665 18.1302615,21.7723785 18.5206692,21.7723785 C18.911077,21.7723785 19.227565,22.0888665 19.227565,22.4792742 Z" id="Path" fill="#000000" fill-rule="nonzero"></path>
                <path d="M19.227565,24.4586389 C19.227565,24.8490467 18.911077,25.1655347 18.5206692,25.1655347 C18.1302615,25.1655347 17.8137734,24.8490467 17.8137734,24.4586389 C17.8137584,24.2711487 17.8882281,24.0913325 18.0207984,23.9587516 C18.1533687,23.8261707 18.333179,23.7516866 18.5206692,23.7516866 C18.7081594,23.7516866 18.8879697,23.8261707 19.02054,23.9587516 C19.1531103,24.0913325 19.22758,24.2711487 19.227565,24.4586389 Z" id="Path" fill="#000000" fill-rule="nonzero"></path>
                <path d="M19.227565,26.4379471 C19.227565,26.8283549 18.911077,27.1448429 18.5206692,27.1448429 C18.1302615,27.1448429 17.8137734,26.8283549 17.8137734,26.4379471 C17.8137734,26.0475393 18.1302615,25.7310513 18.5206692,25.7310513 C18.911077,25.7310513 19.227565,26.0475393 19.227565,26.4379471 Z" id="Path" fill="#000000" fill-rule="nonzero"></path>
                <path d="M19.227565,28.4172553 C19.227565,28.807663 18.911077,29.124151 18.5206692,29.124151 C18.1302615,29.124151 17.8137734,28.807663 17.8137734,28.4172553 C17.8137734,28.0268475 18.1302615,27.7103595 18.5206692,27.7103595 C18.911077,27.7103595 19.227565,28.0268475 19.227565,28.4172553 L19.227565,28.4172553 Z" id="Path" fill="#000000" fill-rule="nonzero"></path>
                <path d="M19.227565,30.3965634 C19.227565,30.7869712 18.911077,31.1034592 18.5206692,31.1034592 C18.1302615,31.1034592 17.8137734,30.7869712 17.8137734,30.3965634 C17.8137734,30.0061557 18.1302615,29.6896677 18.5206692,29.6896677 C18.911077,29.6896677 19.227565,30.0061557 19.227565,30.3965634 Z" id="Path" fill="#000000" fill-rule="nonzero"></path>
                <path d="M19.227565,32.3758716 C19.227565,32.7662793 18.911077,33.0827674 18.5206692,33.0827674 C18.1302615,33.0827674 17.8137734,32.7662793 17.8137734,32.3758716 C17.8137734,31.9854638 18.1302615,31.6689758 18.5206692,31.6689758 C18.911077,31.6689758 19.227565,31.9854638 19.227565,32.3758716 Z" id="Path" fill="#000000" fill-rule="nonzero"></path>
                <path d="M19.227565,34.3551797 C19.227565,34.7455875 18.911077,35.0620755 18.5206692,35.0620755 C18.1302615,35.0620755 17.8137734,34.7455875 17.8137734,34.3551797 C17.8137734,33.964772 18.1302615,33.648284 18.5206692,33.648284 C18.911077,33.648284 19.227565,33.964772 19.227565,34.3551797 Z" id="Path" fill="#000000" fill-rule="nonzero"></path>
                <path d="M19.227565,36.3344879 C19.227565,36.7248957 18.911077,37.0413837 18.5206692,37.0413837 C18.1302615,37.0413837 17.8137734,36.7248957 17.8137734,36.3344879 C17.8137734,35.9440802 18.1302615,35.6275921 18.5206692,35.6275921 C18.911077,35.6275921 19.227565,35.9440802 19.227565,36.3344879 Z" id="Path" fill="#000000" fill-rule="nonzero"></path>
                <path d="M21.2068732,22.4792742 C21.2068732,22.869682 20.8903851,23.18617 20.4999774,23.18617 C20.1095696,23.18617 19.7930816,22.869682 19.7930816,22.4792742 C19.7930816,22.0888665 20.1095696,21.7723785 20.4999774,21.7723785 C20.8903851,21.7723785 21.2068732,22.0888665 21.2068732,22.4792742 Z" id="Path" fill="#000000" fill-rule="nonzero"></path>
                <path d="M21.2068732,24.4586389 C21.2068732,24.8490467 20.8903851,25.1655347 20.4999774,25.1655347 C20.1095696,25.1655347 19.7930816,24.8490467 19.7930816,24.4586389 C19.7930666,24.2711487 19.8675363,24.0913325 20.0001066,23.9587516 C20.1326769,23.8261707 20.3124872,23.7516866 20.4999774,23.7516866 C20.6874676,23.7516866 20.8672779,23.8261707 20.9998482,23.9587516 C21.1324185,24.0913325 21.2068882,24.2711487 21.2068732,24.4586389 Z" id="Path" fill="#000000" fill-rule="nonzero"></path>
                <path d="M21.2068732,26.4379471 C21.2068732,26.8283549 20.8903851,27.1448429 20.4999774,27.1448429 C20.1095696,27.1448429 19.7930816,26.8283549 19.7930816,26.4379471 C19.7930816,26.0475393 20.1095696,25.7310513 20.4999774,25.7310513 C20.8903851,25.7310513 21.2068732,26.0475393 21.2068732,26.4379471 Z" id="Path" fill="#000000" fill-rule="nonzero"></path>
                <path d="M21.2068732,28.4172553 C21.2068732,28.807663 20.8903851,29.124151 20.4999774,29.124151 C20.1095696,29.124151 19.7930816,28.807663 19.7930816,28.4172553 C19.7930816,28.0268475 20.1095696,27.7103595 20.4999774,27.7103595 C20.8903851,27.7103595 21.2068732,28.0268475 21.2068732,28.4172553 L21.2068732,28.4172553 Z" id="Path" fill="#000000" fill-rule="nonzero"></path>
                <path d="M21.2068732,30.3965634 C21.2068732,30.7869712 20.8903851,31.1034592 20.4999774,31.1034592 C20.1095696,31.1034592 19.7930816,30.7869712 19.7930816,30.3965634 C19.7930816,30.0061557 20.1095696,29.6896677 20.4999774,29.6896677 C20.8903851,29.6896677 21.2068732,30.0061557 21.2068732,30.3965634 Z" id="Path" fill="#000000" fill-rule="nonzero"></path>
                <path d="M21.2068732,32.3758716 C21.2068732,32.7662793 20.8903851,33.0827674 20.4999774,33.0827674 C20.1095696,33.0827674 19.7930816,32.7662793 19.7930816,32.3758716 C19.7930816,31.9854638 20.1095696,31.6689758 20.4999774,31.6689758 C20.8903851,31.6689758 21.2068732,31.9854638 21.2068732,32.3758716 Z" id="Path" fill="#000000" fill-rule="nonzero"></path>
                <path d="M21.2068732,34.3551797 C21.2068732,34.7455875 20.8903851,35.0620755 20.4999774,35.0620755 C20.1095696,35.0620755 19.7930816,34.7455875 19.7930816,34.3551797 C19.7930816,33.964772 20.1095696,33.648284 20.4999774,33.648284 C20.8903851,33.648284 21.2068732,33.964772 21.2068732,34.3551797 Z" id="Path" fill="#000000" fill-rule="nonzero"></path>
                <path d="M21.2068732,36.3344879 C21.2068732,36.7248957 20.8903851,37.0413837 20.4999774,37.0413837 C20.1095696,37.0413837 19.7930816,36.7248957 19.7930816,36.3344879 C19.7930816,35.9440802 20.1095696,35.6275921 20.4999774,35.6275921 C20.8903851,35.6275921 21.2068732,35.9440802 21.2068732,36.3344879 Z" id="Path" fill="#000000" fill-rule="nonzero"></path>
                <path d="M23.1861813,22.4792742 C23.1861813,22.869682 22.8696933,23.18617 22.4792855,23.18617 C22.0888778,23.18617 21.7723898,22.869682 21.7723898,22.4792742 C21.7723898,22.0888665 22.0888778,21.7723785 22.4792855,21.7723785 C22.8696933,21.7723785 23.1861813,22.0888665 23.1861813,22.4792742 L23.1861813,22.4792742 Z" id="Path" fill="#000000" fill-rule="nonzero"></path>
                <path d="M23.1861813,24.4586389 C23.1861813,24.8490467 22.8696933,25.1655347 22.4792855,25.1655347 C22.0888778,25.1655347 21.7723898,24.8490467 21.7723898,24.4586389 C21.7723748,24.2711487 21.8468445,24.0913325 21.9794148,23.9587516 C22.111985,23.8261707 22.2917953,23.7516866 22.4792855,23.7516866 C22.6667758,23.7516866 22.846586,23.8261707 22.9791563,23.9587516 C23.1117266,24.0913325 23.1861963,24.2711487 23.1861813,24.4586389 L23.1861813,24.4586389 Z" id="Path" fill="#000000" fill-rule="nonzero"></path>
                <path d="M23.1861813,26.4379471 C23.1861813,26.8283549 22.8696933,27.1448429 22.4792855,27.1448429 C22.0888778,27.1448429 21.7723898,26.8283549 21.7723898,26.4379471 C21.7723898,26.0475393 22.0888778,25.7310513 22.4792855,25.7310513 C22.8696933,25.7310513 23.1861813,26.0475393 23.1861813,26.4379471 L23.1861813,26.4379471 Z" id="Path" fill="#000000" fill-rule="nonzero"></path>
                <path d="M23.1861813,28.4172553 C23.1861813,28.807663 22.8696933,29.124151 22.4792855,29.124151 C22.0888778,29.124151 21.7723898,28.807663 21.7723898,28.4172553 C21.7723898,28.0268475 22.0888778,27.7103595 22.4792855,27.7103595 C22.8696933,27.7103595 23.1861813,28.0268475 23.1861813,28.4172553 L23.1861813,28.4172553 Z" id="Path" fill="#000000" fill-rule="nonzero"></path>
                <path d="M23.1861813,30.3965634 C23.1861813,30.7869712 22.8696933,31.1034592 22.4792855,31.1034592 C22.0888778,31.1034592 21.7723898,30.7869712 21.7723898,30.3965634 C21.7723898,30.0061557 22.0888778,29.6896677 22.4792855,29.6896677 C22.8696933,29.6896677 23.1861813,30.0061557 23.1861813,30.3965634 L23.1861813,30.3965634 Z" id="Path" fill="#000000" fill-rule="nonzero"></path>
                <path d="M23.1861813,32.3758716 C23.1861813,32.7662793 22.8696933,33.0827674 22.4792855,33.0827674 C22.0888778,33.0827674 21.7723898,32.7662793 21.7723898,32.3758716 C21.7723898,31.9854638 22.0888778,31.6689758 22.4792855,31.6689758 C22.8696933,31.6689758 23.1861813,31.9854638 23.1861813,32.3758716 L23.1861813,32.3758716 Z" id="Path" fill="#000000" fill-rule="nonzero"></path>
                <path d="M23.1861813,34.3551797 C23.1861813,34.7455875 22.8696933,35.0620755 22.4792855,35.0620755 C22.0888778,35.0620755 21.7723898,34.7455875 21.7723898,34.3551797 C21.7723898,33.964772 22.0888778,33.648284 22.4792855,33.648284 C22.8696933,33.648284 23.1861813,33.964772 23.1861813,34.3551797 L23.1861813,34.3551797 Z" id="Path" fill="#000000" fill-rule="nonzero"></path>
                <path d="M23.1861813,36.3344879 C23.1861813,36.7248957 22.8696933,37.0413837 22.4792855,37.0413837 C22.0888778,37.0413837 21.7723898,36.7248957 21.7723898,36.3344879 C21.7723898,35.9440802 22.0888778,35.6275921 22.4792855,35.6275921 C22.8696933,35.6275921 23.1861813,35.9440802 23.1861813,36.3344879 L23.1861813,36.3344879 Z" id="Path" fill="#000000" fill-rule="nonzero"></path>
                <path d="M23.1861813,38.3137961 C23.1861813,38.7042038 22.8696933,39.0206918 22.4792855,39.0206918 C22.0888778,39.0206918 21.7723898,38.7042038 21.7723898,38.3137961 C21.7723898,37.9233883 22.0888778,37.6069003 22.4792855,37.6069003 C22.8696933,37.6069003 23.1861813,37.9233883 23.1861813,38.3137961 L23.1861813,38.3137961 Z" id="Path" fill="#000000" fill-rule="nonzero"></path>
                <path d="M25.1654895,22.4792742 C25.1654895,22.869682 24.8490015,23.18617 24.4585937,23.18617 C24.0681859,23.18617 23.7516979,22.869682 23.7516979,22.4792742 C23.7516979,22.0888665 24.0681859,21.7723785 24.4585937,21.7723785 C24.8490015,21.7723785 25.1654895,22.0888665 25.1654895,22.4792742 Z" id="Path" fill="#000000" fill-rule="nonzero"></path>
                <path d="M25.1654895,24.4586389 C25.1654895,24.8490467 24.8490015,25.1655347 24.4585937,25.1655347 C24.0681859,25.1655347 23.7516979,24.8490467 23.7516979,24.4586389 C23.7516829,24.2711487 23.8261526,24.0913325 23.9587229,23.9587516 C24.0912932,23.8261707 24.2711035,23.7516866 24.4585937,23.7516866 C24.6460839,23.7516866 24.8258942,23.8261707 24.9584645,23.9587516 C25.0910348,24.0913325 25.1655045,24.2711487 25.1654895,24.4586389 Z" id="Path" fill="#000000" fill-rule="nonzero"></path>
                <path d="M25.1654895,26.4379471 C25.1654895,26.8283549 24.8490015,27.1448429 24.4585937,27.1448429 C24.0681859,27.1448429 23.7516979,26.8283549 23.7516979,26.4379471 C23.7516979,26.0475393 24.0681859,25.7310513 24.4585937,25.7310513 C24.8490015,25.7310513 25.1654895,26.0475393 25.1654895,26.4379471 Z" id="Path" fill="#000000" fill-rule="nonzero"></path>
                <path d="M25.1654895,28.4172553 C25.1654895,28.807663 24.8490015,29.124151 24.4585937,29.124151 C24.0681859,29.124151 23.7516979,28.807663 23.7516979,28.4172553 C23.7516979,28.0268475 24.0681859,27.7103595 24.4585937,27.7103595 C24.8490015,27.7103595 25.1654895,28.0268475 25.1654895,28.4172553 L25.1654895,28.4172553 Z" id="Path" fill="#000000" fill-rule="nonzero"></path>
                <path d="M25.1654895,30.3965634 C25.1654895,30.7869712 24.8490015,31.1034592 24.4585937,31.1034592 C24.0681859,31.1034592 23.7516979,30.7869712 23.7516979,30.3965634 C23.7516979,30.0061557 24.0681859,29.6896677 24.4585937,29.6896677 C24.8490015,29.6896677 25.1654895,30.0061557 25.1654895,30.3965634 Z" id="Path" fill="#000000" fill-rule="nonzero"></path>
                <path d="M25.1654895,32.3758716 C25.1654895,32.7662793 24.8490015,33.0827674 24.4585937,33.0827674 C24.0681859,33.0827674 23.7516979,32.7662793 23.7516979,32.3758716 C23.7516979,31.9854638 24.0681859,31.6689758 24.4585937,31.6689758 C24.8490015,31.6689758 25.1654895,31.9854638 25.1654895,32.3758716 Z" id="Path" fill="#000000" fill-rule="nonzero"></path>
                <path d="M25.1654895,34.3551797 C25.1654895,34.7455875 24.8490015,35.0620755 24.4585937,35.0620755 C24.0681859,35.0620755 23.7516979,34.7455875 23.7516979,34.3551797 C23.7516979,33.964772 24.0681859,33.648284 24.4585937,33.648284 C24.8490015,33.648284 25.1654895,33.964772 25.1654895,34.3551797 Z" id="Path" fill="#000000" fill-rule="nonzero"></path>
                <path d="M25.1654895,36.3344879 C25.1654895,36.7248957 24.8490015,37.0413837 24.4585937,37.0413837 C24.0681859,37.0413837 23.7516979,36.7248957 23.7516979,36.3344879 C23.7516979,35.9440802 24.0681859,35.6275921 24.4585937,35.6275921 C24.8490015,35.6275921 25.1654895,35.9440802 25.1654895,36.3344879 Z" id="Path" fill="#000000" fill-rule="nonzero"></path>
                <path d="M25.1654895,38.3137961 C25.1654895,38.7042038 24.8490015,39.0206918 24.4585937,39.0206918 C24.0681859,39.0206918 23.7516979,38.7042038 23.7516979,38.3137961 C23.7516979,37.9233883 24.0681859,37.6069003 24.4585937,37.6069003 C24.8490015,37.6069003 25.1654895,37.9233883 25.1654895,38.3137961 Z" id="Path" fill="#000000" fill-rule="nonzero"></path>
                <path d="M27.1447976,22.4792742 C27.1447976,22.869682 26.8283096,23.18617 26.4379019,23.18617 C26.0474941,23.18617 25.7310061,22.869682 25.7310061,22.4792742 C25.7310061,22.0888665 26.0474941,21.7723785 26.4379019,21.7723785 C26.8283096,21.7723785 27.1447976,22.0888665 27.1447976,22.4792742 L27.1447976,22.4792742 Z" id="Path" fill="#000000" fill-rule="nonzero"></path>
                <path d="M27.1447976,24.4586389 C27.1447976,24.8490467 26.8283096,25.1655347 26.4379019,25.1655347 C26.0474941,25.1655347 25.7310061,24.8490467 25.7310061,24.4586389 C25.7309911,24.2711487 25.8054608,24.0913325 25.9380311,23.9587516 C26.0706014,23.8261707 26.2504116,23.7516866 26.4379019,23.7516866 C26.6253921,23.7516866 26.8052024,23.8261707 26.9377727,23.9587516 C27.0703429,24.0913325 27.1448126,24.2711487 27.1447976,24.4586389 L27.1447976,24.4586389 Z" id="Path" fill="#000000" fill-rule="nonzero"></path>
                <path d="M27.1447976,26.4379471 C27.1447976,26.8283549 26.8283096,27.1448429 26.4379019,27.1448429 C26.0474941,27.1448429 25.7310061,26.8283549 25.7310061,26.4379471 C25.7310061,26.0475393 26.0474941,25.7310513 26.4379019,25.7310513 C26.8283096,25.7310513 27.1447976,26.0475393 27.1447976,26.4379471 L27.1447976,26.4379471 Z" id="Path" fill="#000000" fill-rule="nonzero"></path>
                <path d="M27.1447976,28.4172553 C27.1447976,28.807663 26.8283096,29.124151 26.4379019,29.124151 C26.0474941,29.124151 25.7310061,28.807663 25.7310061,28.4172553 C25.7310061,28.0268475 26.0474941,27.7103595 26.4379019,27.7103595 C26.8283096,27.7103595 27.1447976,28.0268475 27.1447976,28.4172553 L27.1447976,28.4172553 Z" id="Path" fill="#000000" fill-rule="nonzero"></path>
                <path d="M27.1447976,30.3965634 C27.1447976,30.7869712 26.8283096,31.1034592 26.4379019,31.1034592 C26.0474941,31.1034592 25.7310061,30.7869712 25.7310061,30.3965634 C25.7310061,30.0061557 26.0474941,29.6896677 26.4379019,29.6896677 C26.8283096,29.6896677 27.1447976,30.0061557 27.1447976,30.3965634 L27.1447976,30.3965634 Z" id="Path" fill="#000000" fill-rule="nonzero"></path>
                <path d="M27.1447976,32.3758716 C27.1447976,32.7662793 26.8283096,33.0827674 26.4379019,33.0827674 C26.0474941,33.0827674 25.7310061,32.7662793 25.7310061,32.3758716 C25.7310061,31.9854638 26.0474941,31.6689758 26.4379019,31.6689758 C26.8283096,31.6689758 27.1447976,31.9854638 27.1447976,32.3758716 L27.1447976,32.3758716 Z" id="Path" fill="#000000" fill-rule="nonzero"></path>
                <path d="M27.1447976,34.3551797 C27.1447976,34.7455875 26.8283096,35.0620755 26.4379019,35.0620755 C26.0474941,35.0620755 25.7310061,34.7455875 25.7310061,34.3551797 C25.7310061,33.964772 26.0474941,33.648284 26.4379019,33.648284 C26.8283096,33.648284 27.1447976,33.964772 27.1447976,34.3551797 L27.1447976,34.3551797 Z" id="Path" fill="#000000" fill-rule="nonzero"></path>
                <path d="M27.1447976,36.3344879 C27.1447976,36.7248957 26.8283096,37.0413837 26.4379019,37.0413837 C26.0474941,37.0413837 25.7310061,36.7248957 25.7310061,36.3344879 C25.7310061,35.9440802 26.0474941,35.6275921 26.4379019,35.6275921 C26.8283096,35.6275921 27.1447976,35.9440802 27.1447976,36.3344879 L27.1447976,36.3344879 Z" id="Path" fill="#000000" fill-rule="nonzero"></path>
                <path d="M27.1447976,38.3137961 C27.1447976,38.7042038 26.8283096,39.0206918 26.4379019,39.0206918 C26.0474941,39.0206918 25.7310061,38.7042038 25.7310061,38.3137961 C25.7310061,37.9233883 26.0474941,37.6069003 26.4379019,37.6069003 C26.8283096,37.6069003 27.1447976,37.9233883 27.1447976,38.3137961 L27.1447976,38.3137961 Z" id="Path" fill="#000000" fill-rule="nonzero"></path>
                <path d="M29.1241058,22.4792742 C29.1241058,22.869682 28.8076178,23.18617 28.41721,23.18617 C28.0268023,23.18617 27.7103143,22.869682 27.7103143,22.4792742 C27.7103143,22.0888665 28.0268023,21.7723785 28.41721,21.7723785 C28.8076178,21.7723785 29.1241058,22.0888665 29.1241058,22.4792742 Z" id="Path" fill="#000000" fill-rule="nonzero"></path>
                <path d="M29.1241058,24.4586389 C29.1241058,24.8490467 28.8076178,25.1655347 28.41721,25.1655347 C28.0268023,25.1655347 27.7103142,24.8490467 27.7103142,24.4586389 C27.7102993,24.2711487 27.7847689,24.0913325 27.9173392,23.9587516 C28.0499095,23.8261707 28.2297198,23.7516866 28.41721,23.7516866 C28.6047002,23.7516866 28.7845105,23.8261707 28.9170808,23.9587516 C29.0496511,24.0913325 29.1241208,24.2711487 29.1241058,24.4586389 Z" id="Path" fill="#000000" fill-rule="nonzero"></path>
                <path d="M29.1241058,26.4379471 C29.1241058,26.8283549 28.8076178,27.1448429 28.41721,27.1448429 C28.0268023,27.1448429 27.7103143,26.8283549 27.7103143,26.4379471 C27.7103143,26.0475393 28.0268023,25.7310513 28.41721,25.7310513 C28.8076178,25.7310513 29.1241058,26.0475393 29.1241058,26.4379471 Z" id="Path" fill="#000000" fill-rule="nonzero"></path>
                <path d="M29.1241058,28.4172553 C29.1241058,28.807663 28.8076178,29.124151 28.41721,29.124151 C28.0268023,29.124151 27.7103143,28.807663 27.7103143,28.4172553 C27.7103143,28.0268475 28.0268023,27.7103595 28.41721,27.7103595 C28.8076178,27.7103595 29.1241058,28.0268475 29.1241058,28.4172553 L29.1241058,28.4172553 Z" id="Path" fill="#000000" fill-rule="nonzero"></path>
                <path d="M29.1241058,30.3965634 C29.1241058,30.7869712 28.8076178,31.1034592 28.41721,31.1034592 C28.0268023,31.1034592 27.7103143,30.7869712 27.7103143,30.3965634 C27.7103143,30.0061557 28.0268023,29.6896677 28.41721,29.6896677 C28.8076178,29.6896677 29.1241058,30.0061557 29.1241058,30.3965634 Z" id="Path" fill="#000000" fill-rule="nonzero"></path>
                <path d="M29.1241058,32.3758716 C29.1241058,32.7662793 28.8076178,33.0827674 28.41721,33.0827674 C28.0268023,33.0827674 27.7103143,32.7662793 27.7103143,32.3758716 C27.7103143,31.9854638 28.0268023,31.6689758 28.41721,31.6689758 C28.8076178,31.6689758 29.1241058,31.9854638 29.1241058,32.3758716 Z" id="Path" fill="#000000" fill-rule="nonzero"></path>
                <path d="M29.1241058,34.3551797 C29.1241058,34.7455875 28.8076178,35.0620755 28.41721,35.0620755 C28.0268023,35.0620755 27.7103143,34.7455875 27.7103143,34.3551797 C27.7103143,33.964772 28.0268023,33.648284 28.41721,33.648284 C28.8076178,33.648284 29.1241058,33.964772 29.1241058,34.3551797 Z" id="Path" fill="#000000" fill-rule="nonzero"></path>
                <path d="M29.1241058,36.3344879 C29.1241058,36.7248957 28.8076178,37.0413837 28.41721,37.0413837 C28.0268023,37.0413837 27.7103143,36.7248957 27.7103143,36.3344879 C27.7103143,35.9440802 28.0268023,35.6275921 28.41721,35.6275921 C28.8076178,35.6275921 29.1241058,35.9440802 29.1241058,36.3344879 Z" id="Path" fill="#000000" fill-rule="nonzero"></path>
                <path d="M29.1241058,38.3137961 C29.1241058,38.7042038 28.8076178,39.0206918 28.41721,39.0206918 C28.0268023,39.0206918 27.7103143,38.7042038 27.7103143,38.3137961 C27.7103143,37.9233883 28.0268023,37.6069003 28.41721,37.6069003 C28.8076178,37.6069003 29.1241058,37.9233883 29.1241058,38.3137961 Z" id="Path" fill="#000000" fill-rule="nonzero"></path>
                <path d="M31.103414,20.4999661 C31.103414,20.8903738 30.7869259,21.2068618 30.3965182,21.2068618 C30.0061104,21.2068618 29.6896224,20.8903738 29.6896224,20.4999661 C29.6896224,20.1095583 30.0061104,19.7930703 30.3965182,19.7930703 C30.7869259,19.7930703 31.103414,20.1095583 31.103414,20.4999661 L31.103414,20.4999661 Z" id="Path" fill="#000000" fill-rule="nonzero"></path>
                <path d="M31.103414,22.4792742 C31.103414,22.869682 30.7869259,23.18617 30.3965182,23.18617 C30.0061104,23.18617 29.6896224,22.869682 29.6896224,22.4792742 C29.6896224,22.0888665 30.0061104,21.7723785 30.3965182,21.7723785 C30.7869259,21.7723785 31.103414,22.0888665 31.103414,22.4792742 Z" id="Path" fill="#000000" fill-rule="nonzero"></path>
                <path d="M31.103414,24.4586389 C31.103414,24.8490467 30.7869259,25.1655347 30.3965182,25.1655347 C30.0061104,25.1655347 29.6896224,24.8490467 29.6896224,24.4586389 C29.6896074,24.2711487 29.7640771,24.0913325 29.8966474,23.9587516 C30.0292177,23.8261707 30.209028,23.7516866 30.3965182,23.7516866 C30.5840084,23.7516866 30.7638187,23.8261707 30.896389,23.9587516 C31.0289593,24.0913325 31.103429,24.2711487 31.103414,24.4586389 Z" id="Path" fill="#000000" fill-rule="nonzero"></path>
                <path d="M31.103414,26.4379471 C31.103414,26.8283549 30.7869259,27.1448429 30.3965182,27.1448429 C30.0061104,27.1448429 29.6896224,26.8283549 29.6896224,26.4379471 C29.6896224,26.0475393 30.0061104,25.7310513 30.3965182,25.7310513 C30.7869259,25.7310513 31.103414,26.0475393 31.103414,26.4379471 Z" id="Path" fill="#000000" fill-rule="nonzero"></path>
                <path d="M31.103414,28.4172553 C31.103414,28.807663 30.7869259,29.124151 30.3965182,29.124151 C30.0061104,29.124151 29.6896224,28.807663 29.6896224,28.4172553 C29.6896224,28.0268475 30.0061104,27.7103595 30.3965182,27.7103595 C30.7869259,27.7103595 31.103414,28.0268475 31.103414,28.4172553 L31.103414,28.4172553 Z" id="Path" fill="#000000" fill-rule="nonzero"></path>
                <path d="M31.103414,30.3965634 C31.103414,30.7869712 30.7869259,31.1034592 30.3965182,31.1034592 C30.0061104,31.1034592 29.6896224,30.7869712 29.6896224,30.3965634 C29.6896224,30.0061557 30.0061104,29.6896677 30.3965182,29.6896677 C30.7869259,29.6896677 31.103414,30.0061557 31.103414,30.3965634 Z" id="Path" fill="#000000" fill-rule="nonzero"></path>
                <path d="M31.103414,32.3758716 C31.103414,32.7662793 30.7869259,33.0827674 30.3965182,33.0827674 C30.0061104,33.0827674 29.6896224,32.7662793 29.6896224,32.3758716 C29.6896224,31.9854638 30.0061104,31.6689758 30.3965182,31.6689758 C30.7869259,31.6689758 31.103414,31.9854638 31.103414,32.3758716 Z" id="Path" fill="#000000" fill-rule="nonzero"></path>
                <path d="M31.103414,34.3551797 C31.103414,34.7455875 30.7869259,35.0620755 30.3965182,35.0620755 C30.0061104,35.0620755 29.6896224,34.7455875 29.6896224,34.3551797 C29.6896224,33.964772 30.0061104,33.648284 30.3965182,33.648284 C30.7869259,33.648284 31.103414,33.964772 31.103414,34.3551797 Z" id="Path" fill="#000000" fill-rule="nonzero"></path>
                <path d="M31.103414,36.3344879 C31.103414,36.7248957 30.7869259,37.0413837 30.3965182,37.0413837 C30.0061104,37.0413837 29.6896224,36.7248957 29.6896224,36.3344879 C29.6896224,35.9440802 30.0061104,35.6275921 30.3965182,35.6275921 C30.7869259,35.6275921 31.103414,35.9440802 31.103414,36.3344879 Z" id="Path" fill="#000000" fill-rule="nonzero"></path>
                <path d="M31.103414,38.3137961 C31.103414,38.7042038 30.7869259,39.0206918 30.3965182,39.0206918 C30.0061104,39.0206918 29.6896224,38.7042038 29.6896224,38.3137961 C29.6896224,37.9233883 30.0061104,37.6069003 30.3965182,37.6069003 C30.7869259,37.6069003 31.103414,37.9233883 31.103414,38.3137961 Z" id="Path" fill="#000000" fill-rule="nonzero"></path>
                <path d="M33.0827221,16.5413328 C33.0827221,16.9317405 32.7662341,17.2482286 32.3758263,17.2482286 C31.9854186,17.2482286 31.6689306,16.9317405 31.6689306,16.5413328 C31.6689306,16.150925 31.9854186,15.834437 32.3758263,15.834437 C32.7662341,15.834437 33.0827221,16.150925 33.0827221,16.5413328 L33.0827221,16.5413328 Z" id="Path" fill="#000000" fill-rule="nonzero"></path>
                <path d="M33.0827221,18.5206409 C33.0827221,18.7081243 33.0082523,18.8879304 32.8756831,19.0205027 C32.743114,19.153075 32.5633097,19.2275537 32.3758263,19.2275537 C32.188343,19.2275537 32.0085387,19.153075 31.8759696,19.0205027 C31.7434004,18.8879304 31.6689306,18.7081243 31.6689306,18.5206409 C31.6689306,18.1302332 31.9854186,17.8137452 32.3758263,17.8137452 C32.7662341,17.8137452 33.0827221,18.1302332 33.0827221,18.5206409 L33.0827221,18.5206409 Z" id="Path" fill="#000000" fill-rule="nonzero"></path>
                <path d="M33.0827221,20.4999661 C33.0827221,20.8903738 32.7662341,21.2068618 32.3758263,21.2068618 C31.9854186,21.2068618 31.6689306,20.8903738 31.6689306,20.4999661 C31.6689306,20.1095583 31.9854186,19.7930703 32.3758263,19.7930703 C32.7662341,19.7930703 33.0827221,20.1095583 33.0827221,20.4999661 L33.0827221,20.4999661 Z" id="Path" fill="#000000" fill-rule="nonzero"></path>
                <path d="M33.0827221,22.4792742 C33.0827221,22.869682 32.7662341,23.18617 32.3758263,23.18617 C31.9854186,23.18617 31.6689306,22.869682 31.6689306,22.4792742 C31.6689306,22.0888665 31.9854186,21.7723785 32.3758263,21.7723785 C32.7662341,21.7723785 33.0827221,22.0888665 33.0827221,22.4792742 L33.0827221,22.4792742 Z" id="Path" fill="#000000" fill-rule="nonzero"></path>
                <path d="M33.0827221,24.4586389 C33.0827221,24.8490467 32.7662341,25.1655347 32.3758263,25.1655347 C31.9854186,25.1655347 31.6689306,24.8490467 31.6689306,24.4586389 C31.6689156,24.2711487 31.7433853,24.0913325 31.8759556,23.9587516 C32.0085259,23.8261707 32.1883361,23.7516866 32.3758263,23.7516866 C32.5633166,23.7516866 32.7431268,23.8261707 32.8756971,23.9587516 C33.0082674,24.0913325 33.0827371,24.2711487 33.0827221,24.4586389 L33.0827221,24.4586389 Z" id="Path" fill="#000000" fill-rule="nonzero"></path>
                <path d="M33.0827221,26.4379471 C33.0827221,26.8283549 32.7662341,27.1448429 32.3758263,27.1448429 C31.9854186,27.1448429 31.6689306,26.8283549 31.6689306,26.4379471 C31.6689306,26.0475393 31.9854186,25.7310513 32.3758263,25.7310513 C32.7662341,25.7310513 33.0827221,26.0475393 33.0827221,26.4379471 L33.0827221,26.4379471 Z" id="Path" fill="#000000" fill-rule="nonzero"></path>
                <path d="M33.0827221,28.4172553 C33.0827221,28.807663 32.7662341,29.124151 32.3758263,29.124151 C31.9854186,29.124151 31.6689306,28.807663 31.6689306,28.4172553 C31.6689306,28.0268475 31.9854186,27.7103595 32.3758263,27.7103595 C32.7662341,27.7103595 33.0827221,28.0268475 33.0827221,28.4172553 L33.0827221,28.4172553 Z" id="Path" fill="#000000" fill-rule="nonzero"></path>
                <path d="M33.0827221,30.3965634 C33.0827221,30.7869712 32.7662341,31.1034592 32.3758263,31.1034592 C31.9854186,31.1034592 31.6689306,30.7869712 31.6689306,30.3965634 C31.6689306,30.0061557 31.9854186,29.6896677 32.3758263,29.6896677 C32.7662341,29.6896677 33.0827221,30.0061557 33.0827221,30.3965634 L33.0827221,30.3965634 Z" id="Path" fill="#000000" fill-rule="nonzero"></path>
                <path d="M33.0827221,32.3758716 C33.0827221,32.7662793 32.7662341,33.0827674 32.3758263,33.0827674 C31.9854186,33.0827674 31.6689306,32.7662793 31.6689306,32.3758716 C31.6689306,31.9854638 31.9854186,31.6689758 32.3758263,31.6689758 C32.7662341,31.6689758 33.0827221,31.9854638 33.0827221,32.3758716 L33.0827221,32.3758716 Z" id="Path" fill="#000000" fill-rule="nonzero"></path>
                <path d="M33.0827221,34.3551797 C33.0827221,34.7455875 32.7662341,35.0620755 32.3758263,35.0620755 C31.9854186,35.0620755 31.6689306,34.7455875 31.6689306,34.3551797 C31.6689306,33.964772 31.9854186,33.648284 32.3758263,33.648284 C32.7662341,33.648284 33.0827221,33.964772 33.0827221,34.3551797 L33.0827221,34.3551797 Z" id="Path" fill="#000000" fill-rule="nonzero"></path>
                <path d="M33.0827221,36.3344879 C33.0827221,36.7248957 32.7662341,37.0413837 32.3758263,37.0413837 C31.9854186,37.0413837 31.6689306,36.7248957 31.6689306,36.3344879 C31.6689306,35.9440802 31.9854186,35.6275921 32.3758263,35.6275921 C32.7662341,35.6275921 33.0827221,35.9440802 33.0827221,36.3344879 L33.0827221,36.3344879 Z" id="Path" fill="#000000" fill-rule="nonzero"></path>
                <path d="M33.0827221,38.3137961 C33.0827221,38.7042038 32.7662341,39.0206918 32.3758263,39.0206918 C31.9854186,39.0206918 31.6689306,38.7042038 31.6689306,38.3137961 C31.6689306,37.9233883 31.9854186,37.6069003 32.3758263,37.6069003 C32.7662341,37.6069003 33.0827221,37.9233883 33.0827221,38.3137961 L33.0827221,38.3137961 Z" id="Path" fill="#000000" fill-rule="nonzero"></path>
                <path d="M33.0827221,40.2931042 C33.0827221,40.683512 32.7662341,41 32.3758263,41 C31.9854186,41 31.6689306,40.683512 31.6689306,40.2931042 C31.6689306,39.9026965 31.9854186,39.5862085 32.3758263,39.5862085 C32.7662341,39.5862085 33.0827221,39.9026965 33.0827221,40.2931042 L33.0827221,40.2931042 Z" id="Path" fill="#000000" fill-rule="nonzero"></path>
                <path d="M35.0620303,14.5620246 C35.0620303,14.9524324 34.7455423,15.2689204 34.3551345,15.2689204 C33.9647268,15.2689204 33.6482387,14.9524324 33.6482387,14.5620246 C33.6482387,14.1716169 33.9647268,13.8551288 34.3551345,13.8551288 C34.7455423,13.8551288 35.0620303,14.1716169 35.0620303,14.5620246 L35.0620303,14.5620246 Z" id="Path" fill="#000000" fill-rule="nonzero"></path>
                <path d="M35.0620303,16.5413328 C35.0620303,16.9317405 34.7455423,17.2482286 34.3551345,17.2482286 C33.9647268,17.2482286 33.6482387,16.9317405 33.6482387,16.5413328 C33.6482387,16.150925 33.9647268,15.834437 34.3551345,15.834437 C34.7455423,15.834437 35.0620303,16.150925 35.0620303,16.5413328 L35.0620303,16.5413328 Z" id="Path" fill="#000000" fill-rule="nonzero"></path>
                <path d="M35.0620303,18.5206409 C35.0620303,18.7081243 34.9875605,18.8879304 34.8549913,19.0205027 C34.7224221,19.153075 34.5426179,19.2275537 34.3551345,19.2275537 C34.1676511,19.2275537 33.9878469,19.153075 33.8552777,19.0205027 C33.7227086,18.8879304 33.6482387,18.7081243 33.6482387,18.5206409 C33.6482387,18.1302332 33.9647268,17.8137452 34.3551345,17.8137452 C34.7455423,17.8137452 35.0620303,18.1302332 35.0620303,18.5206409 Z" id="Path" fill="#000000" fill-rule="nonzero"></path>
                <path d="M35.0620303,20.4999661 C35.0620303,20.8903738 34.7455423,21.2068618 34.3551345,21.2068618 C33.9647268,21.2068618 33.6482387,20.8903738 33.6482387,20.4999661 C33.6482387,20.1095583 33.9647268,19.7930703 34.3551345,19.7930703 C34.7455423,19.7930703 35.0620303,20.1095583 35.0620303,20.4999661 L35.0620303,20.4999661 Z" id="Path" fill="#000000" fill-rule="nonzero"></path>
                <path d="M35.0620303,22.4792742 C35.0620303,22.869682 34.7455423,23.18617 34.3551345,23.18617 C33.9647268,23.18617 33.6482387,22.869682 33.6482387,22.4792742 C33.6482387,22.0888665 33.9647268,21.7723785 34.3551345,21.7723785 C34.7455423,21.7723785 35.0620303,22.0888665 35.0620303,22.4792742 Z" id="Path" fill="#000000" fill-rule="nonzero"></path>
                <path d="M35.0620303,24.4586389 C35.0620303,24.8490467 34.7455423,25.1655347 34.3551345,25.1655347 C33.9647268,25.1655347 33.6482387,24.8490467 33.6482387,24.4586389 C33.6482237,24.2711487 33.7226934,24.0913325 33.8552637,23.9587516 C33.987834,23.8261707 34.1676443,23.7516866 34.3551345,23.7516866 C34.5426247,23.7516866 34.722435,23.8261707 34.8550053,23.9587516 C34.9875756,24.0913325 35.0620453,24.2711487 35.0620303,24.4586389 Z" id="Path" fill="#000000" fill-rule="nonzero"></path>
                <path d="M35.0620303,26.4379471 C35.0620303,26.8283549 34.7455423,27.1448429 34.3551345,27.1448429 C33.9647268,27.1448429 33.6482387,26.8283549 33.6482387,26.4379471 C33.6482387,26.0475393 33.9647268,25.7310513 34.3551345,25.7310513 C34.7455423,25.7310513 35.0620303,26.0475393 35.0620303,26.4379471 Z" id="Path" fill="#000000" fill-rule="nonzero"></path>
                <path d="M35.0620303,28.4172553 C35.0620303,28.807663 34.7455423,29.124151 34.3551345,29.124151 C33.9647268,29.124151 33.6482387,28.807663 33.6482387,28.4172553 C33.6482387,28.0268475 33.9647268,27.7103595 34.3551345,27.7103595 C34.7455423,27.7103595 35.0620303,28.0268475 35.0620303,28.4172553 L35.0620303,28.4172553 Z" id="Path" fill="#000000" fill-rule="nonzero"></path>
                <path d="M35.0620303,30.3965634 C35.0620303,30.7869712 34.7455423,31.1034592 34.3551345,31.1034592 C33.9647268,31.1034592 33.6482387,30.7869712 33.6482387,30.3965634 C33.6482387,30.0061557 33.9647268,29.6896677 34.3551345,29.6896677 C34.7455423,29.6896677 35.0620303,30.0061557 35.0620303,30.3965634 Z" id="Path" fill="#000000" fill-rule="nonzero"></path>
                <path d="M35.0620303,32.3758716 C35.0620303,32.7662793 34.7455423,33.0827674 34.3551345,33.0827674 C33.9647268,33.0827674 33.6482387,32.7662793 33.6482387,32.3758716 C33.6482387,31.9854638 33.9647268,31.6689758 34.3551345,31.6689758 C34.7455423,31.6689758 35.0620303,31.9854638 35.0620303,32.3758716 Z" id="Path" fill="#000000" fill-rule="nonzero"></path>
                <path d="M35.0620303,34.3551797 C35.0620303,34.7455875 34.7455423,35.0620755 34.3551345,35.0620755 C33.9647268,35.0620755 33.6482387,34.7455875 33.6482387,34.3551797 C33.6482387,33.964772 33.9647268,33.648284 34.3551345,33.648284 C34.7455423,33.648284 35.0620303,33.964772 35.0620303,34.3551797 Z" id="Path" fill="#000000" fill-rule="nonzero"></path>
                <path d="M35.0620303,36.3344879 C35.0620303,36.7248957 34.7455423,37.0413837 34.3551345,37.0413837 C33.9647268,37.0413837 33.6482387,36.7248957 33.6482387,36.3344879 C33.6482387,35.9440802 33.9647268,35.6275921 34.3551345,35.6275921 C34.7455423,35.6275921 35.0620303,35.9440802 35.0620303,36.3344879 Z" id="Path" fill="#000000" fill-rule="nonzero"></path>
                <path d="M35.0620303,38.3137961 C35.0620303,38.7042038 34.7455423,39.0206918 34.3551345,39.0206918 C33.9647268,39.0206918 33.6482387,38.7042038 33.6482387,38.3137961 C33.6482387,37.9233883 33.9647268,37.6069003 34.3551345,37.6069003 C34.7455423,37.6069003 35.0620303,37.9233883 35.0620303,38.3137961 Z" id="Path" fill="#000000" fill-rule="nonzero"></path>
                <path d="M35.0620303,40.2931042 C35.0620303,40.683512 34.7455423,41 34.3551345,41 C33.9647268,41 33.6482387,40.683512 33.6482387,40.2931042 C33.6482387,39.9026965 33.9647268,39.5862085 34.3551345,39.5862085 C34.7455423,39.5862085 35.0620303,39.9026965 35.0620303,40.2931042 Z" id="Path" fill="#000000" fill-rule="nonzero"></path>
                <path d="M37.0413384,12.5827165 C37.0413384,12.9731242 36.7248504,13.2896122 36.3344427,13.2896122 C35.9440349,13.2896122 35.6275469,12.9731242 35.6275469,12.5827165 C35.6275469,12.1923087 35.9440349,11.8758207 36.3344427,11.8758207 C36.7248504,11.8758207 37.0413384,12.1923087 37.0413384,12.5827165 Z" id="Path" fill="#000000" fill-rule="nonzero"></path>
                <path d="M37.0413384,14.5620246 C37.0413384,14.9524324 36.7248504,15.2689204 36.3344427,15.2689204 C35.9440349,15.2689204 35.6275469,14.9524324 35.6275469,14.5620246 C35.6275469,14.1716169 35.9440349,13.8551288 36.3344427,13.8551288 C36.7248504,13.8551288 37.0413384,14.1716169 37.0413384,14.5620246 L37.0413384,14.5620246 Z" id="Path" fill="#000000" fill-rule="nonzero"></path>
                <path d="M37.0413384,16.5413328 C37.0413384,16.9317405 36.7248504,17.2482286 36.3344427,17.2482286 C35.9440349,17.2482286 35.6275469,16.9317405 35.6275469,16.5413328 C35.6275469,16.150925 35.9440349,15.834437 36.3344427,15.834437 C36.7248504,15.834437 37.0413384,16.150925 37.0413384,16.5413328 L37.0413384,16.5413328 Z" id="Path" fill="#000000" fill-rule="nonzero"></path>
                <path d="M37.0413384,18.5206409 C37.0413384,18.7081243 36.9668686,18.8879304 36.8342995,19.0205027 C36.7017303,19.153075 36.521926,19.2275537 36.3344427,19.2275537 C36.1469593,19.2275537 35.967155,19.153075 35.8345859,19.0205027 C35.7020167,18.8879304 35.6275469,18.7081243 35.6275469,18.5206409 C35.6275469,18.1302332 35.9440349,17.8137452 36.3344427,17.8137452 C36.7248504,17.8137452 37.0413384,18.1302332 37.0413384,18.5206409 Z" id="Path" fill="#000000" fill-rule="nonzero"></path>
                <path d="M37.0413384,20.4999661 C37.0413384,20.8903738 36.7248504,21.2068618 36.3344427,21.2068618 C35.9440349,21.2068618 35.6275469,20.8903738 35.6275469,20.4999661 C35.6275469,20.1095583 35.9440349,19.7930703 36.3344427,19.7930703 C36.7248504,19.7930703 37.0413384,20.1095583 37.0413384,20.4999661 L37.0413384,20.4999661 Z" id="Path" fill="#000000" fill-rule="nonzero"></path>
                <path d="M37.0413384,22.4792742 C37.0413384,22.869682 36.7248504,23.18617 36.3344427,23.18617 C35.9440349,23.18617 35.6275469,22.869682 35.6275469,22.4792742 C35.6275469,22.0888665 35.9440349,21.7723785 36.3344427,21.7723785 C36.7248504,21.7723785 37.0413384,22.0888665 37.0413384,22.4792742 Z" id="Path" fill="#000000" fill-rule="nonzero"></path>
                <path d="M37.0413384,24.4586389 C37.0413384,24.8490467 36.7248504,25.1655347 36.3344427,25.1655347 C35.9440349,25.1655347 35.6275469,24.8490467 35.6275469,24.4586389 C35.6275319,24.2711487 35.7020016,24.0913325 35.8345719,23.9587516 C35.9671422,23.8261707 36.1469525,23.7516866 36.3344427,23.7516866 C36.5219329,23.7516866 36.7017432,23.8261707 36.8343135,23.9587516 C36.9668838,24.0913325 37.0413534,24.2711487 37.0413384,24.4586389 Z" id="Path" fill="#000000" fill-rule="nonzero"></path>
                <path d="M37.0413384,26.4379471 C37.0413384,26.8283549 36.7248504,27.1448429 36.3344427,27.1448429 C35.9440349,27.1448429 35.6275469,26.8283549 35.6275469,26.4379471 C35.6275469,26.0475393 35.9440349,25.7310513 36.3344427,25.7310513 C36.7248504,25.7310513 37.0413384,26.0475393 37.0413384,26.4379471 Z" id="Path" fill="#000000" fill-rule="nonzero"></path>
                <path d="M37.0413384,28.4172553 C37.0413384,28.807663 36.7248504,29.124151 36.3344427,29.124151 C35.9440349,29.124151 35.6275469,28.807663 35.6275469,28.4172553 C35.6275469,28.0268475 35.9440349,27.7103595 36.3344427,27.7103595 C36.7248504,27.7103595 37.0413384,28.0268475 37.0413384,28.4172553 L37.0413384,28.4172553 Z" id="Path" fill="#000000" fill-rule="nonzero"></path>
                <path d="M37.0413384,30.3965634 C37.0413384,30.7869712 36.7248504,31.1034592 36.3344427,31.1034592 C35.9440349,31.1034592 35.6275469,30.7869712 35.6275469,30.3965634 C35.6275469,30.0061557 35.9440349,29.6896677 36.3344427,29.6896677 C36.7248504,29.6896677 37.0413384,30.0061557 37.0413384,30.3965634 Z" id="Path" fill="#000000" fill-rule="nonzero"></path>
                <path d="M37.0413384,32.3758716 C37.0413384,32.7662793 36.7248504,33.0827674 36.3344427,33.0827674 C35.9440349,33.0827674 35.6275469,32.7662793 35.6275469,32.3758716 C35.6275469,31.9854638 35.9440349,31.6689758 36.3344427,31.6689758 C36.7248504,31.6689758 37.0413384,31.9854638 37.0413384,32.3758716 Z" id="Path" fill="#000000" fill-rule="nonzero"></path>
                <path d="M37.0413384,34.3551797 C37.0413384,34.7455875 36.7248504,35.0620755 36.3344427,35.0620755 C35.9440349,35.0620755 35.6275469,34.7455875 35.6275469,34.3551797 C35.6275469,33.964772 35.9440349,33.648284 36.3344427,33.648284 C36.7248504,33.648284 37.0413384,33.964772 37.0413384,34.3551797 Z" id="Path" fill="#000000" fill-rule="nonzero"></path>
                <path d="M37.0413384,36.3344879 C37.0413384,36.7248957 36.7248504,37.0413837 36.3344427,37.0413837 C35.9440349,37.0413837 35.6275469,36.7248957 35.6275469,36.3344879 C35.6275469,35.9440802 35.9440349,35.6275921 36.3344427,35.6275921 C36.7248504,35.6275921 37.0413384,35.9440802 37.0413384,36.3344879 Z" id="Path" fill="#000000" fill-rule="nonzero"></path>
                <path d="M37.0413384,38.3137961 C37.0413384,38.7042038 36.7248504,39.0206918 36.3344427,39.0206918 C35.9440349,39.0206918 35.6275469,38.7042038 35.6275469,38.3137961 C35.6275469,37.9233883 35.9440349,37.6069003 36.3344427,37.6069003 C36.7248504,37.6069003 37.0413384,37.9233883 37.0413384,38.3137961 Z" id="Path" fill="#000000" fill-rule="nonzero"></path>
                <path d="M37.0413384,40.2931042 C37.0413384,40.683512 36.7248504,41 36.3344427,41 C35.9440349,41 35.6275469,40.683512 35.6275469,40.2931042 C35.6275469,39.9026965 35.9440349,39.5862085 36.3344427,39.5862085 C36.7248504,39.5862085 37.0413384,39.9026965 37.0413384,40.2931042 Z" id="Path" fill="#000000" fill-rule="nonzero"></path>
                <path d="M39.0206466,10.6034083 C39.0206466,10.9938161 38.7041586,11.3103041 38.3137508,11.3103041 C37.9233431,11.3103041 37.6068551,10.9938161 37.6068551,10.6034083 C37.6068707,10.2130116 37.9233541,9.8965408 38.3137508,9.8965408 C38.7041475,9.8965408 39.020631,10.2130116 39.0206466,10.6034083 L39.0206466,10.6034083 Z" id="Path" fill="#000000" fill-rule="nonzero"></path>
                <path d="M39.0206466,12.5827165 C39.0206466,12.9731242 38.7041586,13.2896122 38.3137508,13.2896122 C37.9233431,13.2896122 37.6068551,12.9731242 37.6068551,12.5827165 C37.6068551,12.1923087 37.9233431,11.8758207 38.3137508,11.8758207 C38.7041586,11.8758207 39.0206466,12.1923087 39.0206466,12.5827165 Z" id="Path" fill="#000000" fill-rule="nonzero"></path>
                <path d="M39.0206466,14.5620246 C39.0206466,14.9524324 38.7041586,15.2689204 38.3137508,15.2689204 C37.9233431,15.2689204 37.6068551,14.9524324 37.6068551,14.5620246 C37.6068551,14.1716169 37.9233431,13.8551288 38.3137508,13.8551288 C38.7041586,13.8551288 39.0206466,14.1716169 39.0206466,14.5620246 L39.0206466,14.5620246 Z" id="Path" fill="#000000" fill-rule="nonzero"></path>
                <path d="M39.0206466,16.5413328 C39.0206466,16.9317405 38.7041586,17.2482286 38.3137508,17.2482286 C37.9233431,17.2482286 37.6068551,16.9317405 37.6068551,16.5413328 C37.6068551,16.150925 37.9233431,15.834437 38.3137508,15.834437 C38.7041586,15.834437 39.0206466,16.150925 39.0206466,16.5413328 L39.0206466,16.5413328 Z" id="Path" fill="#000000" fill-rule="nonzero"></path>
                <path d="M39.0206466,18.5206409 C39.0206466,18.7081243 38.9461768,18.8879304 38.8136076,19.0205027 C38.6810385,19.153075 38.5012342,19.2275537 38.3137508,19.2275537 C38.1262675,19.2275537 37.9464632,19.153075 37.813894,19.0205027 C37.6813249,18.8879304 37.6068551,18.7081243 37.6068551,18.5206409 C37.6068551,18.1302332 37.9233431,17.8137452 38.3137508,17.8137452 C38.7041586,17.8137452 39.0206466,18.1302332 39.0206466,18.5206409 Z" id="Path" fill="#000000" fill-rule="nonzero"></path>
                <path d="M39.0206466,20.4999661 C39.0206466,20.8903738 38.7041586,21.2068618 38.3137508,21.2068618 C37.9233431,21.2068618 37.6068551,20.8903738 37.6068551,20.4999661 C37.6068551,20.1095583 37.9233431,19.7930703 38.3137508,19.7930703 C38.7041586,19.7930703 39.0206466,20.1095583 39.0206466,20.4999661 L39.0206466,20.4999661 Z" id="Path" fill="#000000" fill-rule="nonzero"></path>
                <path d="M39.0206466,22.4792742 C39.0206466,22.869682 38.7041586,23.18617 38.3137508,23.18617 C37.9233431,23.18617 37.6068551,22.869682 37.6068551,22.4792742 C37.6068551,22.0888665 37.9233431,21.7723785 38.3137508,21.7723785 C38.7041586,21.7723785 39.0206466,22.0888665 39.0206466,22.4792742 Z" id="Path" fill="#000000" fill-rule="nonzero"></path>
                <path d="M39.0206466,24.4586389 C39.0206466,24.8490467 38.7041586,25.1655347 38.3137508,25.1655347 C37.9233431,25.1655347 37.6068551,24.8490467 37.6068551,24.4586389 C37.6068401,24.2711487 37.6813097,24.0913325 37.81388,23.9587516 C37.9464503,23.8261707 38.1262606,23.7516866 38.3137508,23.7516866 C38.501241,23.7516866 38.6810513,23.8261707 38.8136216,23.9587516 C38.9461919,24.0913325 39.0206616,24.2711487 39.0206466,24.4586389 Z" id="Path" fill="#000000" fill-rule="nonzero"></path>
                <path d="M39.0206466,26.4379471 C39.0206466,26.8283549 38.7041586,27.1448429 38.3137508,27.1448429 C37.9233431,27.1448429 37.6068551,26.8283549 37.6068551,26.4379471 C37.6068551,26.0475393 37.9233431,25.7310513 38.3137508,25.7310513 C38.7041586,25.7310513 39.0206466,26.0475393 39.0206466,26.4379471 Z" id="Path" fill="#000000" fill-rule="nonzero"></path>
                <path d="M39.0206466,28.4172553 C39.0206466,28.807663 38.7041586,29.124151 38.3137508,29.124151 C37.9233431,29.124151 37.6068551,28.807663 37.6068551,28.4172553 C37.6068551,28.0268475 37.9233431,27.7103595 38.3137508,27.7103595 C38.7041586,27.7103595 39.0206466,28.0268475 39.0206466,28.4172553 L39.0206466,28.4172553 Z" id="Path" fill="#000000" fill-rule="nonzero"></path>
                <path d="M39.0206466,30.3965634 C39.0206466,30.7869712 38.7041586,31.1034592 38.3137508,31.1034592 C37.9233431,31.1034592 37.6068551,30.7869712 37.6068551,30.3965634 C37.6068551,30.0061557 37.9233431,29.6896677 38.3137508,29.6896677 C38.7041586,29.6896677 39.0206466,30.0061557 39.0206466,30.3965634 Z" id="Path" fill="#000000" fill-rule="nonzero"></path>
                <path d="M39.0206466,32.3758716 C39.0206466,32.7662793 38.7041586,33.0827674 38.3137508,33.0827674 C37.9233431,33.0827674 37.6068551,32.7662793 37.6068551,32.3758716 C37.6068551,31.9854638 37.9233431,31.6689758 38.3137508,31.6689758 C38.7041586,31.6689758 39.0206466,31.9854638 39.0206466,32.3758716 Z" id="Path" fill="#000000" fill-rule="nonzero"></path>
                <path d="M39.0206466,34.3551797 C39.0206466,34.7455875 38.7041586,35.0620755 38.3137508,35.0620755 C37.9233431,35.0620755 37.6068551,34.7455875 37.6068551,34.3551797 C37.6068551,33.964772 37.9233431,33.648284 38.3137508,33.648284 C38.7041586,33.648284 39.0206466,33.964772 39.0206466,34.3551797 Z" id="Path" fill="#000000" fill-rule="nonzero"></path>
                <path d="M39.0206466,36.3344879 C39.0206466,36.7248957 38.7041586,37.0413837 38.3137508,37.0413837 C37.9233431,37.0413837 37.6068551,36.7248957 37.6068551,36.3344879 C37.6068551,35.9440802 37.9233431,35.6275921 38.3137508,35.6275921 C38.7041586,35.6275921 39.0206466,35.9440802 39.0206466,36.3344879 Z" id="Path" fill="#000000" fill-rule="nonzero"></path>
                <path d="M39.0206466,38.3137961 C39.0206466,38.7042038 38.7041586,39.0206918 38.3137508,39.0206918 C37.9233431,39.0206918 37.6068551,38.7042038 37.6068551,38.3137961 C37.6068551,37.9233883 37.9233431,37.6069003 38.3137508,37.6069003 C38.7041586,37.6069003 39.0206466,37.9233883 39.0206466,38.3137961 Z" id="Path" fill="#000000" fill-rule="nonzero"></path>
                <path d="M39.0206466,40.2931042 C39.0206466,40.683512 38.7041586,41 38.3137508,41 C37.9233431,41 37.6068551,40.683512 37.6068551,40.2931042 C37.6068551,39.9026965 37.9233431,39.5862085 38.3137508,39.5862085 C38.7041586,39.5862085 39.0206466,39.9026965 39.0206466,40.2931042 Z" id="Path" fill="#000000" fill-rule="nonzero"></path>
                <path d="M40.9999548,8.62412841 C40.9999548,9.01453617 40.6834667,9.33102419 40.293059,9.33102419 C39.9026512,9.33102419 39.5861632,9.01453617 39.5861632,8.62412841 C39.5861632,8.23372066 39.9026512,7.91723264 40.293059,7.91723264 C40.6834667,7.91723264 40.9999548,8.23372066 40.9999548,8.62412841 Z" id="Path" fill="#000000" fill-rule="nonzero"></path>
                <path d="M40.9999548,10.6034083 C40.9999548,10.9938161 40.6834667,11.3103041 40.293059,11.3103041 C39.9026512,11.3103041 39.5861632,10.9938161 39.5861632,10.6034083 C39.5861788,10.2130116 39.9026623,9.8965408 40.293059,9.8965408 C40.6834557,9.8965408 40.9999391,10.2130116 40.9999548,10.6034083 L40.9999548,10.6034083 Z" id="Path" fill="#000000" fill-rule="nonzero"></path>
                <path d="M40.9999548,12.5827165 C40.9999548,12.9731242 40.6834667,13.2896122 40.293059,13.2896122 C39.9026512,13.2896122 39.5861632,12.9731242 39.5861632,12.5827165 C39.5861632,12.1923087 39.9026512,11.8758207 40.293059,11.8758207 C40.6834667,11.8758207 40.9999548,12.1923087 40.9999548,12.5827165 Z" id="Path" fill="#000000" fill-rule="nonzero"></path>
                <path d="M40.9999548,14.5620246 C40.9999548,14.9524324 40.6834667,15.2689204 40.293059,15.2689204 C39.9026512,15.2689204 39.5861632,14.9524324 39.5861632,14.5620246 C39.5861632,14.1716169 39.9026512,13.8551288 40.293059,13.8551288 C40.6834667,13.8551288 40.9999548,14.1716169 40.9999548,14.5620246 L40.9999548,14.5620246 Z" id="Path" fill="#000000" fill-rule="nonzero"></path>
                <path d="M40.9999548,16.5413328 C40.9999548,16.9317405 40.6834667,17.2482286 40.293059,17.2482286 C39.9026512,17.2482286 39.5861632,16.9317405 39.5861632,16.5413328 C39.5861632,16.150925 39.9026512,15.834437 40.293059,15.834437 C40.6834667,15.834437 40.9999548,16.150925 40.9999548,16.5413328 L40.9999548,16.5413328 Z" id="Path" fill="#000000" fill-rule="nonzero"></path>
                <path d="M40.9999548,18.5206409 C40.9999548,18.7081243 40.9254849,18.8879304 40.7929158,19.0205027 C40.6603466,19.153075 40.4805423,19.2275537 40.293059,19.2275537 C40.1055756,19.2275537 39.9257714,19.153075 39.7932022,19.0205027 C39.660633,18.8879304 39.5861632,18.7081243 39.5861632,18.5206409 C39.5861632,18.1302332 39.9026512,17.8137452 40.293059,17.8137452 C40.6834667,17.8137452 40.9999548,18.1302332 40.9999548,18.5206409 Z" id="Path" fill="#000000" fill-rule="nonzero"></path>
                <path d="M40.9999548,20.4999661 C40.9999548,20.8903738 40.6834667,21.2068618 40.293059,21.2068618 C39.9026512,21.2068618 39.5861632,20.8903738 39.5861632,20.4999661 C39.5861632,20.1095583 39.9026512,19.7930703 40.293059,19.7930703 C40.6834667,19.7930703 40.9999548,20.1095583 40.9999548,20.4999661 L40.9999548,20.4999661 Z" id="Path" fill="#000000" fill-rule="nonzero"></path>
                <path d="M40.9999548,22.4792742 C40.9999548,22.869682 40.6834667,23.18617 40.293059,23.18617 C39.9026512,23.18617 39.5861632,22.869682 39.5861632,22.4792742 C39.5861632,22.0888665 39.9026512,21.7723785 40.293059,21.7723785 C40.6834667,21.7723785 40.9999548,22.0888665 40.9999548,22.4792742 Z" id="Path" fill="#000000" fill-rule="nonzero"></path>
                <path d="M40.9999548,24.4586389 C40.9999548,24.8490467 40.6834667,25.1655347 40.293059,25.1655347 C39.9026512,25.1655347 39.5861632,24.8490467 39.5861632,24.4586389 C39.5861482,24.2711487 39.6606179,24.0913325 39.7931882,23.9587516 C39.9257585,23.8261707 40.1055688,23.7516866 40.293059,23.7516866 C40.4805492,23.7516866 40.6603595,23.8261707 40.7929298,23.9587516 C40.9255001,24.0913325 40.9999698,24.2711487 40.9999548,24.4586389 Z" id="Path" fill="#000000" fill-rule="nonzero"></path>
                <path d="M40.9999548,26.4379471 C40.9999548,26.8283549 40.6834667,27.1448429 40.293059,27.1448429 C39.9026512,27.1448429 39.5861632,26.8283549 39.5861632,26.4379471 C39.5861632,26.0475393 39.9026512,25.7310513 40.293059,25.7310513 C40.6834667,25.7310513 40.9999548,26.0475393 40.9999548,26.4379471 Z" id="Path" fill="#000000" fill-rule="nonzero"></path>
                <path d="M40.9999548,28.4172553 C40.9999548,28.807663 40.6834667,29.124151 40.293059,29.124151 C39.9026512,29.124151 39.5861632,28.807663 39.5861632,28.4172553 C39.5861632,28.0268475 39.9026512,27.7103595 40.293059,27.7103595 C40.6834667,27.7103595 40.9999548,28.0268475 40.9999548,28.4172553 L40.9999548,28.4172553 Z" id="Path" fill="#000000" fill-rule="nonzero"></path>
                <path d="M40.9999548,30.3965634 C40.9999548,30.7869712 40.6834667,31.1034592 40.293059,31.1034592 C39.9026512,31.1034592 39.5861632,30.7869712 39.5861632,30.3965634 C39.5861632,30.0061557 39.9026512,29.6896677 40.293059,29.6896677 C40.6834667,29.6896677 40.9999548,30.0061557 40.9999548,30.3965634 Z" id="Path" fill="#000000" fill-rule="nonzero"></path>
                <path d="M40.9999548,32.3758716 C40.9999548,32.7662793 40.6834667,33.0827674 40.293059,33.0827674 C39.9026512,33.0827674 39.5861632,32.7662793 39.5861632,32.3758716 C39.5861632,31.9854638 39.9026512,31.6689758 40.293059,31.6689758 C40.6834667,31.6689758 40.9999548,31.9854638 40.9999548,32.3758716 Z" id="Path" fill="#000000" fill-rule="nonzero"></path>
                <path d="M40.9999548,34.3551797 C40.9999548,34.7455875 40.6834667,35.0620755 40.293059,35.0620755 C39.9026512,35.0620755 39.5861632,34.7455875 39.5861632,34.3551797 C39.5861632,33.964772 39.9026512,33.648284 40.293059,33.648284 C40.6834667,33.648284 40.9999548,33.964772 40.9999548,34.3551797 Z" id="Path" fill="#000000" fill-rule="nonzero"></path>
                <path d="M40.9999548,36.3344879 C40.9999548,36.7248957 40.6834667,37.0413837 40.293059,37.0413837 C39.9026512,37.0413837 39.5861632,36.7248957 39.5861632,36.3344879 C39.5861632,35.9440802 39.9026512,35.6275921 40.293059,35.6275921 C40.6834667,35.6275921 40.9999548,35.9440802 40.9999548,36.3344879 Z" id="Path" fill="#000000" fill-rule="nonzero"></path>
                <path d="M40.9999548,38.3137961 C40.9999548,38.7042038 40.6834667,39.0206918 40.293059,39.0206918 C39.9026512,39.0206918 39.5861632,38.7042038 39.5861632,38.3137961 C39.5861632,37.9233883 39.9026512,37.6069003 40.293059,37.6069003 C40.6834667,37.6069003 40.9999548,37.9233883 40.9999548,38.3137961 Z" id="Path" fill="#000000" fill-rule="nonzero"></path>
                <path d="M42.9792629,6.64482025 C42.9792629,7.03522801 42.6627749,7.35171603 42.2723671,7.35171603 C41.8819594,7.35171603 41.5654714,7.03522801 41.5654714,6.64482025 C41.5654714,6.2544125 41.8819594,5.93792448 42.2723671,5.93792448 C42.6627749,5.93792448 42.9792629,6.2544125 42.9792629,6.64482025 L42.9792629,6.64482025 Z" id="Path" fill="#000000" fill-rule="nonzero"></path>
                <path d="M42.9792629,8.62412841 C42.9792629,9.01453617 42.6627749,9.33102419 42.2723671,9.33102419 C41.8819594,9.33102419 41.5654714,9.01453617 41.5654714,8.62412841 C41.5654714,8.23372066 41.8819594,7.91723264 42.2723671,7.91723264 C42.6627749,7.91723264 42.9792629,8.23372066 42.9792629,8.62412841 Z" id="Path" fill="#000000" fill-rule="nonzero"></path>
                <path d="M42.9792629,10.6034083 C42.9792629,10.9938161 42.6627749,11.3103041 42.2723671,11.3103041 C41.8819594,11.3103041 41.5654714,10.9938161 41.5654714,10.6034083 C41.565487,10.2130116 41.8819704,9.8965408 42.2723671,9.8965408 C42.6627639,9.8965408 42.9792473,10.2130116 42.9792629,10.6034083 L42.9792629,10.6034083 Z" id="Path" fill="#000000" fill-rule="nonzero"></path>
                <path d="M42.9792629,12.5827165 C42.9792629,12.9731242 42.6627749,13.2896122 42.2723671,13.2896122 C41.8819594,13.2896122 41.5654714,12.9731242 41.5654714,12.5827165 C41.5654714,12.1923087 41.8819594,11.8758207 42.2723671,11.8758207 C42.6627749,11.8758207 42.9792629,12.1923087 42.9792629,12.5827165 Z" id="Path" fill="#000000" fill-rule="nonzero"></path>
                <path d="M42.9792629,14.5620246 C42.9792629,14.9524324 42.6627749,15.2689204 42.2723671,15.2689204 C41.8819594,15.2689204 41.5654714,14.9524324 41.5654714,14.5620246 C41.5654714,14.1716169 41.8819594,13.8551288 42.2723671,13.8551288 C42.6627749,13.8551288 42.9792629,14.1716169 42.9792629,14.5620246 L42.9792629,14.5620246 Z" id="Path" fill="#000000" fill-rule="nonzero"></path>
                <path d="M42.9792629,16.5413328 C42.9792629,16.9317405 42.6627749,17.2482286 42.2723671,17.2482286 C41.8819594,17.2482286 41.5654714,16.9317405 41.5654714,16.5413328 C41.5654714,16.150925 41.8819594,15.834437 42.2723671,15.834437 C42.6627749,15.834437 42.9792629,16.150925 42.9792629,16.5413328 L42.9792629,16.5413328 Z" id="Path" fill="#000000" fill-rule="nonzero"></path>
                <path d="M42.9792629,18.5206409 C42.9792629,18.7081243 42.9047931,18.8879304 42.7722239,19.0205027 C42.6396548,19.153075 42.4598505,19.2275537 42.2723671,19.2275537 C42.0848838,19.2275537 41.9050795,19.153075 41.7725104,19.0205027 C41.6399412,18.8879304 41.5654714,18.7081243 41.5654714,18.5206409 C41.5654714,18.1302332 41.8819594,17.8137452 42.2723671,17.8137452 C42.6627749,17.8137452 42.9792629,18.1302332 42.9792629,18.5206409 Z" id="Path" fill="#000000" fill-rule="nonzero"></path>
                <path d="M42.9792629,20.4999661 C42.9792629,20.8903738 42.6627749,21.2068618 42.2723671,21.2068618 C41.8819594,21.2068618 41.5654714,20.8903738 41.5654714,20.4999661 C41.5654714,20.1095583 41.8819594,19.7930703 42.2723671,19.7930703 C42.6627749,19.7930703 42.9792629,20.1095583 42.9792629,20.4999661 L42.9792629,20.4999661 Z" id="Path" fill="#000000" fill-rule="nonzero"></path>
                <path d="M42.9792629,22.4792742 C42.9792629,22.869682 42.6627749,23.18617 42.2723671,23.18617 C41.8819594,23.18617 41.5654714,22.869682 41.5654714,22.4792742 C41.5654714,22.0888665 41.8819594,21.7723785 42.2723671,21.7723785 C42.6627749,21.7723785 42.9792629,22.0888665 42.9792629,22.4792742 Z" id="Path" fill="#000000" fill-rule="nonzero"></path>
                <path d="M42.9792629,24.4586389 C42.9792629,24.8490467 42.6627749,25.1655347 42.2723671,25.1655347 C41.8819594,25.1655347 41.5654714,24.8490467 41.5654714,24.4586389 C41.5654564,24.2711487 41.6399261,24.0913325 41.7724964,23.9587516 C41.9050667,23.8261707 42.0848769,23.7516866 42.2723671,23.7516866 C42.4598574,23.7516866 42.6396676,23.8261707 42.7722379,23.9587516 C42.9048082,24.0913325 42.9792779,24.2711487 42.9792629,24.4586389 Z" id="Path" fill="#000000" fill-rule="nonzero"></path>
                <path d="M42.9792629,26.4379471 C42.9792629,26.8283549 42.6627749,27.1448429 42.2723671,27.1448429 C41.8819594,27.1448429 41.5654714,26.8283549 41.5654714,26.4379471 C41.5654714,26.0475393 41.8819594,25.7310513 42.2723671,25.7310513 C42.6627749,25.7310513 42.9792629,26.0475393 42.9792629,26.4379471 Z" id="Path" fill="#000000" fill-rule="nonzero"></path>
                <path d="M42.9792629,28.4172553 C42.9792629,28.807663 42.6627749,29.124151 42.2723671,29.124151 C41.8819594,29.124151 41.5654714,28.807663 41.5654714,28.4172553 C41.5654714,28.0268475 41.8819594,27.7103595 42.2723671,27.7103595 C42.6627749,27.7103595 42.9792629,28.0268475 42.9792629,28.4172553 L42.9792629,28.4172553 Z" id="Path" fill="#000000" fill-rule="nonzero"></path>
                <path d="M44.9585711,4.66551209 C44.9585711,5.05591985 44.6420831,5.37240786 44.2516753,5.37240786 C43.8612676,5.37240786 43.5447795,5.05591985 43.5447795,4.66551209 C43.5447795,4.27510434 43.8612676,3.95861632 44.2516753,3.95861632 C44.6420831,3.95861632 44.9585711,4.27510434 44.9585711,4.66551209 L44.9585711,4.66551209 Z" id="Path" fill="#000000" fill-rule="nonzero"></path>
                <path d="M44.9585711,6.64482025 C44.9585711,7.03522801 44.6420831,7.35171603 44.2516753,7.35171603 C43.8612676,7.35171603 43.5447795,7.03522801 43.5447795,6.64482025 C43.5447795,6.2544125 43.8612676,5.93792448 44.2516753,5.93792448 C44.6420831,5.93792448 44.9585711,6.2544125 44.9585711,6.64482025 L44.9585711,6.64482025 Z" id="Path" fill="#000000" fill-rule="nonzero"></path>
                <path d="M44.9585711,8.62412841 C44.9585711,9.01453617 44.6420831,9.33102419 44.2516753,9.33102419 C43.8612676,9.33102419 43.5447795,9.01453617 43.5447795,8.62412841 C43.5447795,8.23372066 43.8612676,7.91723264 44.2516753,7.91723264 C44.6420831,7.91723264 44.9585711,8.23372066 44.9585711,8.62412841 L44.9585711,8.62412841 Z" id="Path" fill="#000000" fill-rule="nonzero"></path>
                <path d="M44.9585711,10.6034083 C44.9585711,10.9938161 44.6420831,11.3103041 44.2516753,11.3103041 C43.8612676,11.3103041 43.5447795,10.9938161 43.5447795,10.6034083 C43.5447952,10.2130116 43.8612786,9.8965408 44.2516753,9.8965408 C44.642072,9.8965408 44.9585555,10.2130116 44.9585711,10.6034083 L44.9585711,10.6034083 Z" id="Path" fill="#000000" fill-rule="nonzero"></path>
                <path d="M44.9585711,12.5827165 C44.9585711,12.9731242 44.6420831,13.2896122 44.2516753,13.2896122 C43.8612676,13.2896122 43.5447795,12.9731242 43.5447795,12.5827165 C43.5447795,12.1923087 43.8612676,11.8758207 44.2516753,11.8758207 C44.6420831,11.8758207 44.9585711,12.1923087 44.9585711,12.5827165 L44.9585711,12.5827165 Z" id="Path" fill="#000000" fill-rule="nonzero"></path>
                <path d="M44.9585711,14.5620246 C44.9585711,14.9524324 44.6420831,15.2689204 44.2516753,15.2689204 C43.8612676,15.2689204 43.5447795,14.9524324 43.5447795,14.5620246 C43.5447795,14.1716169 43.8612676,13.8551288 44.2516753,13.8551288 C44.6420831,13.8551288 44.9585711,14.1716169 44.9585711,14.5620246 L44.9585711,14.5620246 Z" id="Path" fill="#000000" fill-rule="nonzero"></path>
                <path d="M44.9585711,16.5413328 C44.9585711,16.9317405 44.6420831,17.2482286 44.2516753,17.2482286 C43.8612676,17.2482286 43.5447795,16.9317405 43.5447795,16.5413328 C43.5447795,16.150925 43.8612676,15.834437 44.2516753,15.834437 C44.6420831,15.834437 44.9585711,16.150925 44.9585711,16.5413328 L44.9585711,16.5413328 Z" id="Path" fill="#000000" fill-rule="nonzero"></path>
                <path d="M44.9585711,18.5206409 C44.9585711,18.7081243 44.8841013,18.8879304 44.7515321,19.0205027 C44.6189629,19.153075 44.4391587,19.2275537 44.2516753,19.2275537 C44.064192,19.2275537 43.8843877,19.153075 43.7518185,19.0205027 C43.6192494,18.8879304 43.5447795,18.7081243 43.5447795,18.5206409 C43.5447795,18.1302332 43.8612676,17.8137452 44.2516753,17.8137452 C44.6420831,17.8137452 44.9585711,18.1302332 44.9585711,18.5206409 L44.9585711,18.5206409 Z" id="Path" fill="#000000" fill-rule="nonzero"></path>
                <path d="M44.9585711,20.4999661 C44.9585711,20.8903738 44.6420831,21.2068618 44.2516753,21.2068618 C43.8612676,21.2068618 43.5447795,20.8903738 43.5447795,20.4999661 C43.5447795,20.1095583 43.8612676,19.7930703 44.2516753,19.7930703 C44.6420831,19.7930703 44.9585711,20.1095583 44.9585711,20.4999661 L44.9585711,20.4999661 Z" id="Path" fill="#000000" fill-rule="nonzero"></path>
                <path d="M44.9585711,22.4792742 C44.9585711,22.869682 44.6420831,23.18617 44.2516753,23.18617 C43.8612676,23.18617 43.5447795,22.869682 43.5447795,22.4792742 C43.5447795,22.0888665 43.8612676,21.7723785 44.2516753,21.7723785 C44.6420831,21.7723785 44.9585711,22.0888665 44.9585711,22.4792742 L44.9585711,22.4792742 Z" id="Path" fill="#000000" fill-rule="nonzero"></path>
                <path d="M46.9378792,4.66551209 C46.9378792,5.05591985 46.6213912,5.37240786 46.2309835,5.37240786 C45.8405757,5.37240786 45.5240877,5.05591985 45.5240877,4.66551209 C45.5240877,4.27510434 45.8405757,3.95861632 46.2309835,3.95861632 C46.6213912,3.95861632 46.9378792,4.27510434 46.9378792,4.66551209 Z" id="Path" fill="#000000" fill-rule="nonzero"></path>
                <path d="M46.9378792,6.64482025 C46.9378792,7.03522801 46.6213912,7.35171603 46.2309835,7.35171603 C45.8405757,7.35171603 45.5240877,7.03522801 45.5240877,6.64482025 C45.5240877,6.2544125 45.8405757,5.93792448 46.2309835,5.93792448 C46.6213912,5.93792448 46.9378792,6.2544125 46.9378792,6.64482025 L46.9378792,6.64482025 Z" id="Path" fill="#000000" fill-rule="nonzero"></path>
                <path d="M46.9378792,8.62412841 C46.9378792,9.01453617 46.6213912,9.33102419 46.2309835,9.33102419 C45.8405757,9.33102419 45.5240877,9.01453617 45.5240877,8.62412841 C45.5240877,8.23372066 45.8405757,7.91723264 46.2309835,7.91723264 C46.6213912,7.91723264 46.9378792,8.23372066 46.9378792,8.62412841 Z" id="Path" fill="#000000" fill-rule="nonzero"></path>
                <path d="M46.9378792,10.6034083 C46.9378792,10.9938161 46.6213912,11.3103041 46.2309835,11.3103041 C45.8405757,11.3103041 45.5240877,10.9938161 45.5240877,10.6034083 C45.5241033,10.2130116 45.8405868,9.8965408 46.2309835,9.8965408 C46.6213802,9.8965408 46.9378636,10.2130116 46.9378792,10.6034083 L46.9378792,10.6034083 Z" id="Path" fill="#000000" fill-rule="nonzero"></path>
                <path d="M46.9378792,12.5827165 C46.9378792,12.9731242 46.6213912,13.2896122 46.2309835,13.2896122 C45.8405757,13.2896122 45.5240877,12.9731242 45.5240877,12.5827165 C45.5240877,12.1923087 45.8405757,11.8758207 46.2309835,11.8758207 C46.6213912,11.8758207 46.9378792,12.1923087 46.9378792,12.5827165 Z" id="Path" fill="#000000" fill-rule="nonzero"></path>
                <path d="M46.9378792,14.5620246 C46.9378792,14.9524324 46.6213912,15.2689204 46.2309835,15.2689204 C45.8405757,15.2689204 45.5240877,14.9524324 45.5240877,14.5620246 C45.5240877,14.1716169 45.8405757,13.8551288 46.2309835,13.8551288 C46.6213912,13.8551288 46.9378792,14.1716169 46.9378792,14.5620246 L46.9378792,14.5620246 Z" id="Path" fill="#000000" fill-rule="nonzero"></path>
                <path d="M46.9378792,16.5413328 C46.9378792,16.9317405 46.6213912,17.2482286 46.2309835,17.2482286 C45.8405757,17.2482286 45.5240877,16.9317405 45.5240877,16.5413328 C45.5240877,16.150925 45.8405757,15.834437 46.2309835,15.834437 C46.6213912,15.834437 46.9378792,16.150925 46.9378792,16.5413328 L46.9378792,16.5413328 Z" id="Path" fill="#000000" fill-rule="nonzero"></path>
                <path d="M46.9378792,18.5206409 C46.9378792,18.7081243 46.8634094,18.8879304 46.7308403,19.0205027 C46.5982711,19.153075 46.4184668,19.2275537 46.2309835,19.2275537 C46.0435001,19.2275537 45.8636958,19.153075 45.7311267,19.0205027 C45.5985575,18.8879304 45.5240877,18.7081243 45.5240877,18.5206409 C45.5240877,18.1302332 45.8405757,17.8137452 46.2309835,17.8137452 C46.6213912,17.8137452 46.9378792,18.1302332 46.9378792,18.5206409 Z" id="Path" fill="#000000" fill-rule="nonzero"></path>
                <path d="M46.9378792,20.4999661 C46.9378792,20.8903738 46.6213912,21.2068618 46.2309835,21.2068618 C45.8405757,21.2068618 45.5240877,20.8903738 45.5240877,20.4999661 C45.5240877,20.1095583 45.8405757,19.7930703 46.2309835,19.7930703 C46.6213912,19.7930703 46.9378792,20.1095583 46.9378792,20.4999661 L46.9378792,20.4999661 Z" id="Path" fill="#000000" fill-rule="nonzero"></path>
                <path d="M46.9378792,22.4792742 C46.9378792,22.869682 46.6213912,23.18617 46.2309835,23.18617 C45.8405757,23.18617 45.5240877,22.869682 45.5240877,22.4792742 C45.5240877,22.0888665 45.8405757,21.7723785 46.2309835,21.7723785 C46.6213912,21.7723785 46.9378792,22.0888665 46.9378792,22.4792742 Z" id="Path" fill="#000000" fill-rule="nonzero"></path>
                <path d="M48.9171874,0.706895772 C48.9171874,1.09730353 48.6006994,1.41379154 48.2102916,1.41379154 C47.8198839,1.41379154 47.5033959,1.09730353 47.5033959,0.706895772 C47.5033959,0.316488017 47.8198839,0 48.2102916,0 C48.6006994,0 48.9171874,0.316488017 48.9171874,0.706895772 L48.9171874,0.706895772 Z" id="Path" fill="#000000" fill-rule="nonzero"></path>
                <path d="M48.9171874,2.68620393 C48.9171874,3.07661169 48.6006994,3.3930997 48.2102916,3.3930997 C47.8198839,3.3930997 47.5033959,3.07661169 47.5033959,2.68620393 C47.5033959,2.29579618 47.8198839,1.97930816 48.2102916,1.97930816 C48.6006994,1.97930816 48.9171874,2.29579618 48.9171874,2.68620393 Z" id="Path" fill="#000000" fill-rule="nonzero"></path>
                <path d="M48.9171874,4.66551209 C48.9171874,5.05591985 48.6006994,5.37240786 48.2102916,5.37240786 C47.8198839,5.37240786 47.5033959,5.05591985 47.5033959,4.66551209 C47.5033959,4.27510434 47.8198839,3.95861632 48.2102916,3.95861632 C48.6006994,3.95861632 48.9171874,4.27510434 48.9171874,4.66551209 Z" id="Path" fill="#000000" fill-rule="nonzero"></path>
                <path d="M48.9171874,6.64482025 C48.9171874,7.03522801 48.6006994,7.35171603 48.2102916,7.35171603 C47.8198839,7.35171603 47.5033959,7.03522801 47.5033959,6.64482025 C47.5033959,6.2544125 47.8198839,5.93792448 48.2102916,5.93792448 C48.6006994,5.93792448 48.9171874,6.2544125 48.9171874,6.64482025 L48.9171874,6.64482025 Z" id="Path" fill="#000000" fill-rule="nonzero"></path>
                <path d="M48.9171874,8.62412841 C48.9171874,9.01453617 48.6006994,9.33102419 48.2102916,9.33102419 C47.8198839,9.33102419 47.5033959,9.01453617 47.5033959,8.62412841 C47.5033959,8.23372066 47.8198839,7.91723264 48.2102916,7.91723264 C48.6006994,7.91723264 48.9171874,8.23372066 48.9171874,8.62412841 Z" id="Path" fill="#000000" fill-rule="nonzero"></path>
                <path d="M48.9171874,10.6034083 C48.9171874,10.9938161 48.6006994,11.3103041 48.2102916,11.3103041 C47.8198839,11.3103041 47.5033959,10.9938161 47.5033959,10.6034083 C47.5034115,10.2130116 47.8198949,9.8965408 48.2102916,9.8965408 C48.6006883,9.8965408 48.9171718,10.2130116 48.9171874,10.6034083 L48.9171874,10.6034083 Z" id="Path" fill="#000000" fill-rule="nonzero"></path>
                <path d="M48.9171874,12.5827165 C48.9171874,12.9731242 48.6006994,13.2896122 48.2102916,13.2896122 C47.8198839,13.2896122 47.5033959,12.9731242 47.5033959,12.5827165 C47.5033959,12.1923087 47.8198839,11.8758207 48.2102916,11.8758207 C48.6006994,11.8758207 48.9171874,12.1923087 48.9171874,12.5827165 Z" id="Path" fill="#000000" fill-rule="nonzero"></path>
                <path d="M48.9171874,14.5620246 C48.9171874,14.9524324 48.6006994,15.2689204 48.2102916,15.2689204 C47.8198839,15.2689204 47.5033959,14.9524324 47.5033959,14.5620246 C47.5033959,14.1716169 47.8198839,13.8551288 48.2102916,13.8551288 C48.6006994,13.8551288 48.9171874,14.1716169 48.9171874,14.5620246 L48.9171874,14.5620246 Z" id="Path" fill="#000000" fill-rule="nonzero"></path>
                <path d="M48.9171874,16.5413328 C48.9171874,16.9317405 48.6006994,17.2482286 48.2102916,17.2482286 C47.8198839,17.2482286 47.5033959,16.9317405 47.5033959,16.5413328 C47.5033959,16.150925 47.8198839,15.834437 48.2102916,15.834437 C48.6006994,15.834437 48.9171874,16.150925 48.9171874,16.5413328 L48.9171874,16.5413328 Z" id="Path" fill="#000000" fill-rule="nonzero"></path>
                <path d="M48.9171874,22.4792742 C48.9171874,22.869682 48.6006994,23.18617 48.2102916,23.18617 C47.8198839,23.18617 47.5033959,22.869682 47.5033959,22.4792742 C47.5033959,22.0888665 47.8198839,21.7723785 48.2102916,21.7723785 C48.6006994,21.7723785 48.9171874,22.0888665 48.9171874,22.4792742 Z" id="Path" fill="#000000" fill-rule="nonzero"></path>
                <path d="M50.8964956,6.64482025 C50.8964956,7.03522801 50.5800075,7.35171603 50.1895998,7.35171603 C49.799192,7.35171603 49.482704,7.03522801 49.482704,6.64482025 C49.482704,6.2544125 49.799192,5.93792448 50.1895998,5.93792448 C50.5800075,5.93792448 50.8964956,6.2544125 50.8964956,6.64482025 L50.8964956,6.64482025 Z" id="Path" fill="#000000" fill-rule="nonzero"></path>
                <path d="M50.8964956,8.62412841 C50.8964956,9.01453617 50.5800075,9.33102419 50.1895998,9.33102419 C49.799192,9.33102419 49.482704,9.01453617 49.482704,8.62412841 C49.482704,8.23372066 49.799192,7.91723264 50.1895998,7.91723264 C50.5800075,7.91723264 50.8964956,8.23372066 50.8964956,8.62412841 Z" id="Path" fill="#000000" fill-rule="nonzero"></path>
                <path d="M50.8964956,10.6034083 C50.8964956,10.9938161 50.5800075,11.3103041 50.1895998,11.3103041 C49.799192,11.3103041 49.482704,10.9938161 49.482704,10.6034083 C49.4827196,10.2130116 49.7992031,9.8965408 50.1895998,9.8965408 C50.5799965,9.8965408 50.8964799,10.2130116 50.8964956,10.6034083 L50.8964956,10.6034083 Z" id="Path" fill="#000000" fill-rule="nonzero"></path>
                <path d="M50.8964956,12.5827165 C50.8964956,12.9731242 50.5800075,13.2896122 50.1895998,13.2896122 C49.799192,13.2896122 49.482704,12.9731242 49.482704,12.5827165 C49.482704,12.1923087 49.799192,11.8758207 50.1895998,11.8758207 C50.5800075,11.8758207 50.8964956,12.1923087 50.8964956,12.5827165 Z" id="Path" fill="#000000" fill-rule="nonzero"></path>
                <path d="M50.8964956,14.5620246 C50.8964956,14.9524324 50.5800075,15.2689204 50.1895998,15.2689204 C49.799192,15.2689204 49.482704,14.9524324 49.482704,14.5620246 C49.482704,14.1716169 49.799192,13.8551288 50.1895998,13.8551288 C50.5800075,13.8551288 50.8964956,14.1716169 50.8964956,14.5620246 L50.8964956,14.5620246 Z" id="Path" fill="#000000" fill-rule="nonzero"></path>
            </g>
        </g>
    </g>
</svg>