<?xml version="1.0" encoding="UTF-8"?>
<svg width="25px" height="25px" viewBox="0 0 25 25" version="1.1" xmlns="http://www.w3.org/2000/svg" xmlns:xlink="http://www.w3.org/1999/xlink">
    <title>Shape</title>
    <g id="Batch-1" stroke="none" stroke-width="1" fill="none" fill-rule="evenodd">
        <g id="Licensing---How-to-apply-Insurance" transform="translate(-359.000000, -1383.000000)" fill="#001E62" fill-rule="nonzero">
            <path d="M382.019232,1389.912 L381.779187,1389.51192 L381.779187,1389.51192 L381.779187,1389.51192 C379.580533,1386.02815 375.748824,1383.9154 371.629268,1383.9154 C367.509712,1383.9154 363.678003,1386.02815 361.479349,1389.51192 C360.564637,1390.9408 359.972128,1392.55177 359.743021,1394.23282 C359.65688,1394.78876 359.614077,1395.35056 359.614982,1395.91313 C359.621839,1398.18091 360.271023,1400.40034 361.487351,1402.31434 C361.583369,1402.46637 361.687389,1402.6184 361.775405,1402.73842 L361.775405,1402.73842 L361.775405,1402.73842 L362.015451,1403.1145 L362.015451,1403.1145 C364.282132,1406.13674 367.839464,1407.9154 371.617266,1407.9154 L371.617266,1407.9154 C375.395068,1407.9154 378.9524,1406.13674 381.219081,1403.1145 L381.219081,1403.1145 L381.459126,1402.79444 C381.563146,1402.65041 381.659164,1402.50638 381.763184,1402.34635 C384.156799,1398.57247 384.25546,1393.78122 382.019232,1389.912 Z M378.378544,1395.11298 C378.320089,1393.75169 378.072329,1392.40517 377.642405,1391.11223 L380.84301,1391.11223 C380.923025,1391.26426 381.00304,1391.42429 381.075054,1391.58432 C381.147067,1391.74435 381.235084,1391.91238 381.299096,1392.08041 C381.363108,1392.24844 381.475129,1392.5765 381.555144,1392.82455 C381.63516,1393.0726 381.667166,1393.15261 381.707173,1393.31264 C381.747181,1393.47267 381.827196,1393.88075 381.875205,1394.1688 C381.875205,1394.31283 381.931216,1394.44886 381.95522,1394.59288 C381.979225,1394.73691 381.95522,1394.93695 381.95522,1395.10498 L378.378544,1395.10498 L378.378544,1395.11298 Z M361.215299,1395.11298 C361.215299,1394.88894 361.255307,1394.6649 361.295314,1394.44886 C361.487934,1393.25786 361.929632,1392.1209 362.591559,1391.11223 L365.592127,1391.11223 C365.162202,1392.40517 364.914443,1393.75169 364.855988,1395.11298 L361.215299,1395.11298 Z M367.24844,1391.11223 L370.817114,1391.11223 L370.817114,1395.11298 L366.45629,1395.11298 C366.51784,1393.74422 366.796012,1392.39387 367.280446,1391.11223 L367.24844,1391.11223 Z M375.153934,1389.51192 L372.417417,1389.51192 L372.417417,1386.23931 C373.532923,1387.15139 374.471344,1388.26068 375.18594,1389.51192 L375.153934,1389.51192 Z M370.817114,1386.23931 L370.817114,1389.51192 L368.048591,1389.51192 C368.763038,1388.26058 369.701481,1387.15126 370.817114,1386.23931 L370.817114,1386.23931 Z M370.817114,1396.71329 L370.817114,1401.51419 L367.616509,1401.51419 C366.914342,1400.00618 366.514727,1398.3751 366.440287,1396.71329 L370.817114,1396.71329 Z M370.817114,1403.1145 L370.817114,1405.58696 C369.944825,1404.87622 369.179486,1404.04351 368.544685,1403.1145 L370.817114,1403.1145 L370.817114,1403.1145 Z M372.417417,1405.58696 L372.417417,1403.1145 L374.689847,1403.1145 C374.055133,1404.04358 373.289783,1404.8763 372.417417,1405.58696 L372.417417,1405.58696 Z M372.417417,1401.51419 L372.417417,1396.71329 L376.778241,1396.71329 C376.708833,1398.37401 376.314667,1400.00505 375.618022,1401.51419 L372.417417,1401.51419 Z M372.417417,1395.11298 L372.417417,1391.11223 L375.954086,1391.11223 C376.430322,1392.39521 376.700384,1393.74552 376.754237,1395.11298 L372.417417,1395.11298 Z M379.794812,1389.51192 L377.002284,1389.51192 C376.347866,1388.17343 375.474336,1386.95374 374.417795,1385.90324 C376.551312,1386.49716 378.436763,1387.76254 379.794812,1389.51192 L379.794812,1389.51192 Z M368.816736,1385.90324 C367.760196,1386.95374 366.886665,1388.17343 366.232248,1389.51192 L363.43972,1389.51192 C364.798162,1387.76296 366.68346,1386.49768 368.816736,1385.90324 L368.816736,1385.90324 Z M361.215299,1396.71329 L364.81598,1396.71329 C364.88139,1398.36025 365.227774,1399.98392 365.840174,1401.51419 L362.815602,1401.51419 L362.815602,1401.51419 C361.895089,1400.07003 361.345387,1398.42093 361.215299,1396.71329 L361.215299,1396.71329 Z M366.632323,1403.1145 C367.219049,1404.13491 367.937334,1405.07379 368.768727,1405.90702 C367.00806,1405.39976 365.412622,1404.43642 364.143853,1403.1145 L366.664329,1403.1145 L366.632323,1403.1145 Z M374.401792,1405.91503 C375.245023,1405.0813 375.974161,1404.13961 376.570202,1403.1145 L379.09868,1403.1145 C377.81973,1404.44535 376.209688,1405.41193 374.433798,1405.91503 L374.401792,1405.91503 Z M380.41893,1401.51419 L380.41893,1401.51419 L377.35435,1401.51419 C377.96675,1399.98392 378.313134,1398.36025 378.378544,1396.71329 L382.019232,1396.71329 C381.891441,1398.42139 381.341558,1400.07104 380.41893,1401.51419 L380.41893,1401.51419 Z" id="Shape"></path>
        </g>
    </g>
</svg>