<?xml version="1.0" encoding="UTF-8"?>
<svg width="46px" height="30px" viewBox="0 0 46 30" version="1.1" xmlns="http://www.w3.org/2000/svg" xmlns:xlink="http://www.w3.org/1999/xlink">
    <title>Group 5</title>
    <g id="Page-1" stroke="none" stroke-width="1" fill="none" fill-rule="evenodd">
        <g id="Education-" transform="translate(-162.000000, -1013.000000)" fill="#001E62" fill-rule="nonzero">
            <g id="Group-5" transform="translate(162.000000, 1013.000000)">
                <path d="M17.5821165,10.5878969 C17.8231926,10.3358628 18.1574117,10.1879298 18.5135468,10.1879298 L18.5135468,10.1879298 C18.8642029,10.1879298 19.198422,10.3358628 19.4504561,10.5988549 C19.5162041,10.6646029 19.5764732,10.7358299 19.6312632,10.796099 C19.6750952,10.84541 19.7189272,10.894721 19.7572802,10.933074 C19.8559023,11.037175 19.9600033,11.1357971 20.0586253,11.2289401 C20.2668274,11.4152261 20.4914665,11.5905542 20.7215845,11.7384872 C20.8859546,11.8480673 21.0612826,11.9466893 21.2366107,12.0343533 L21.2366107,8.76338931 L6.43234803,8.76338931 L8.5801167,10.911158 L0,19.4857957 L4.1256883,23.611484 L9.39648796,18.3406843 L11.6593157,20.603512 L6.38851601,25.8743117 L10.5142043,30 L19.094321,21.4198833 L21.2420897,23.567652 L21.2420897,14.8067282 L21.2311317,14.8012492 C21.1599047,14.7848122 21.0996356,14.7574172 21.0667616,14.7409802 C21.0284086,14.7300222 20.9845766,14.7135852 20.9407446,14.6971482 C20.8695176,14.6697532 20.7982906,14.6423582 20.7325425,14.6204422 C20.5243405,14.5492151 20.3380544,14.4615511 20.1682054,14.3738871 C19.8285072,14.209517 19.4942881,14.012273 19.176506,13.7931129 C18.8477659,13.5684738 18.5573788,13.3438348 18.2998658,13.1027587 C18.1738487,12.9876996 18.0423527,12.8616826 17.8998986,12.7082706 L17.8560666,12.6589595 C17.7519656,12.5493795 17.6314276,12.4233625 17.5218475,12.2809084 C17.2643344,11.9357313 17.2259814,11.6069912 17.2424184,11.3933101 C17.2533764,11.091965 17.3793935,10.807057 17.5821165,10.5878969 Z" id="Path"></path>
                <path d="M45.9962195,29.1781497 C45.9962195,29.1781497 45.9907405,29.1781497 45.9907405,29.1781497 C45.3387393,29.1617127 42.8238775,29.1014437 42.2157083,29.0850067 C42.1554393,29.0795277 42.1554393,29.0356957 42.1499603,29.0028217 C42.1499603,28.9644687 42.1444813,28.9315947 42.1444813,28.8932417 C42.1335233,28.7343506 42.0513382,27.5947182 42.0239432,27.1783141 C42.0239432,27.1563981 42.0239432,26.9865491 42.0020272,26.9865491 C41.8924472,26.98107 40.1391666,26.855053 40.0076706,26.844095 C39.9638386,26.838616 39.9747966,26.789305 39.9693176,26.750952 C39.9419226,26.3455058 39.8378215,24.8606964 39.8323425,24.8223434 C39.8323425,24.8059064 39.8159055,24.8113854 39.7994685,24.8113854 C39.1310303,24.7620744 38.4735501,24.7182423 37.8105909,24.6689313 C37.7996329,24.6689313 37.7996329,24.6579733 37.7996329,24.6415363 C37.7831959,24.4442922 37.6900529,23.1019368 37.6626579,22.7184067 C37.6626579,22.6910117 37.6571789,22.6690957 37.6571789,22.6417007 C37.6571789,22.6417007 35.7450073,22.5047256 35.6847382,22.4992466 C35.6737802,22.4992466 35.6354272,22.4992466 35.6299482,22.4937676 C35.5806372,22.4444566 33.3671205,20.2364189 33.3561625,20.2145029 C33.0548174,20.335041 32.7863463,20.422705 32.4740432,20.493932 C31.1426458,20.8171931 29.7235844,20.7076131 28.457935,20.1871079 C27.0991425,19.6282497 25.9540312,18.5981974 25.24724,17.310632 C24.4966167,15.9354026 24.2774566,14.3190971 24.6061968,12.7904556 L24.6116758,12.7794976 C24.7650878,12.1384544 24.9897269,11.5302852 25.323946,10.95499 C26.1731912,9.48661754 27.5977317,8.38533819 29.2359532,7.94153905 C29.1537682,8.58258225 28.9620031,9.20718845 28.660658,9.78248363 C28.507246,10.0838287 28.3209599,10.3687368 28.1127579,10.6372079 C28.0305728,10.7467879 27.9429088,10.850889 27.8497658,10.949511 C27.7566227,11.053612 27.6470427,11.1522341 27.5593787,11.2563351 C27.3347396,11.5357642 27.2635126,11.9192943 27.3730926,12.2644714 C27.4936307,12.6315645 27.8114128,12.9164726 28.1894639,12.9876996 C28.3976659,13.0260527 28.616826,13.0041366 28.8140701,12.9219516 C29.0058351,12.8452456 29.1482892,12.7027916 29.2852642,12.5548585 C29.5646933,12.2589924 29.8222064,11.9412103 30.0578035,11.6069912 C30.8467797,10.4673588 31.3124949,9.10856642 31.4001589,7.72785798 C32.1946141,7.788127 32.9890694,7.99632907 33.7122976,8.33602718 C35.2025861,9.0428184 36.3860505,10.3194258 36.9832616,11.8535463 C37.5585568,13.3383558 37.5585568,15.0149303 36.9942197,16.4997397 C37.1257157,16.6312358 45.8482864,25.3538065 45.9030765,25.4085966 C45.9195135,26.0605978 45.9359505,26.712599 45.9523875,27.3591212 C45.9633455,27.9672904 45.9797825,28.5699805 45.9962195,29.1781497 Z" id="Path"></path>
                <path d="M22.8655212,14.3910131 C22.8655212,14.3910131 22.8755212,14.3910131 22.8755212,14.3910131 C22.8855212,14.3910131 22.8855212,14.3910131 22.8855212,14.3910131 C22.8855212,14.3910131 22.8755212,14.3910131 22.8655212,14.3910131 Z" id="Path"></path>
                <path d="M22.5345206,13.2874732 C22.5445206,13.2874732 22.5545206,13.2874732 22.5645206,13.2974732 C22.5545206,13.2874732 22.5445206,13.2874732 22.5345206,13.2874732 Z" id="Path"></path>
                <path d="M30.8632167,7.1306468 C30.8796537,8.56066625 30.4632496,9.97424869 29.6797523,11.1686711 C29.6030463,11.2837301 29.5208613,11.3987891 29.4386763,11.5083692 C29.3674493,11.6124702 29.2852642,11.7275292 29.1976002,11.8151933 C29.1318522,11.8809413 29.0770622,11.9576473 29.0113141,12.0288743 C28.9455661,12.1001014 28.8798181,12.1713284 28.8140701,12.2370764 C28.715448,12.3356984 28.600389,12.4343205 28.457935,12.4397995 C28.2168589,12.4781525 27.9703038,12.3192614 27.8990768,12.0836644 C27.7566227,11.7439662 28.1017999,11.4864532 28.2935649,11.2672931 C29.3455332,10.0838287 29.8879544,8.50039723 29.8167274,6.92792373 C29.7509794,5.42667726 29.1318522,3.9802208 28.0853628,2.90085746 C27.1703696,1.95846917 25.9649892,1.32838397 24.6719448,1.1147029 C23.4117744,0.906500836 22.102293,1.09278689 20.9517026,1.65164507 C19.6915322,2.26529326 18.6560009,3.31726159 18.0697477,4.58839 C17.5766375,5.64035833 17.4013095,6.8293017 17.5437635,7.98537107 L16.5027532,7.98537107 C16.5027532,7.96345506 16.4972742,7.95249706 16.4972742,7.94701805 C16.4808372,7.77169 16.4698792,7.59088294 16.4644002,7.41555489 C16.4534422,7.05941977 16.4698792,6.70328466 16.5137112,6.34714955 C16.6835603,4.89521409 17.3026875,3.51450566 18.2724708,2.41870531 C19.160069,1.421527 20.3161384,0.676382763 21.5982248,0.298331644 C22.8200422,-0.0632824699 24.1295236,-0.0961564803 25.367778,0.199709613 C26.6443854,0.50653371 27.8223708,1.16401392 28.7483221,2.08996521 C29.8167274,3.15289154 30.5344766,4.54455798 30.7755527,6.02936745 C30.8303427,6.38002356 30.8632167,6.73615867 30.8686957,7.09229378 C30.8632167,7.10873079 30.8632167,7.11968879 30.8632167,7.1306468 Z" id="Path"></path>
                <path d="M23.6857245,14.4122401 C23.4282114,14.4122401 23.1761773,14.4012821 22.9186642,14.3738871 C22.9186642,14.3738871 22.9186642,14.3738871 22.9186642,14.3738871 C22.9186642,14.3738871 22.9186642,14.3738871 22.9131852,14.3738871 C22.8419582,14.3738871 22.7652522,14.3519711 22.6940251,14.3464921 C22.6173191,14.3355341 22.5406131,14.3245761 22.4584281,14.3136181 C22.305016,14.2917021 22.151604,14.253349 21.9981919,14.220475 C21.9981919,14.220475 21.9981919,14.220475 21.9981919,14.220475 C21.9981919,14.220475 21.9927129,14.220475 21.9927129,14.220475 C21.8447799,14.182122 21.6913678,14.149248 21.5434348,14.099937 C21.5379558,14.099937 21.5324768,14.094458 21.5324768,14.094458 C21.5269978,14.094458 21.5215188,14.094458 21.5215188,14.094458 C21.4941238,14.088979 21.4612498,14.078021 21.4338548,14.067063 C21.4064597,14.067063 21.3626277,14.039668 21.3352327,14.034189 C21.2968797,14.023231 21.2585267,14.006794 21.2201737,13.990357 C21.1379887,13.9574829 21.0612826,13.9246089 20.9790976,13.8972139 C20.8147276,13.8424239 20.6558365,13.7657179 20.5024245,13.6890119 C20.1901214,13.5355998 19.8942553,13.3602718 19.6093472,13.1685067 C19.3299181,12.9767416 19.061447,12.7685396 18.8148919,12.5439005 C18.6888749,12.4288415 18.5683368,12.3083034 18.4532778,12.1877654 C18.3436978,12.0727064 18.2286387,11.9576473 18.1354957,11.8261513 C18.0533107,11.7165712 17.9985207,11.5905542 18.0094787,11.4535792 C18.0204367,11.3330411 18.0697477,11.2125031 18.1519327,11.1248391 C18.2505547,11.020738 18.3820508,10.965948 18.5245048,10.965948 C18.6779169,10.965948 18.8094129,11.031696 18.913514,11.1412761 C19.017615,11.2508561 19.110758,11.3659151 19.2148591,11.4754952 C19.3244391,11.5905542 19.4394981,11.7001342 19.5600362,11.8097143 C19.7956332,12.0233953 20.0531463,12.2206394 20.3216174,12.3904885 C21.3352327,13.0424897 22.5406131,13.3931458 23.7459935,13.3821878 C23.6912035,13.7218859 23.6802455,14.067063 23.6857245,14.4122401 Z" id="Path"></path>
            </g>
        </g>
    </g>
</svg>