<?xml version="1.0" encoding="UTF-8"?>
<svg width="34px" height="25px" viewBox="0 0 34 25" version="1.1" xmlns="http://www.w3.org/2000/svg" xmlns:xlink="http://www.w3.org/1999/xlink">
    <title>Shape</title>
    <g id="Batch-1" stroke="none" stroke-width="1" fill="none" fill-rule="evenodd">
        <g id="Licensing---How-to-apply-Insurance" transform="translate(-355.000000, -1439.000000)" fill="#001E62" fill-rule="nonzero">
            <path d="M384.684895,1457.41819 L384.684895,1451.42098 L372.690473,1451.42098 L372.690473,1447.2233 L378.025871,1447.2233 L378.025871,1439.4154 L365.555538,1439.4154 L365.555538,1447.2233 L370.890937,1447.2233 L370.890937,1451.42098 L358.896514,1451.42098 L358.896514,1457.41819 L355,1457.41819 L355,1463.4154 L364.596282,1463.4154 L364.596282,1457.41819 L360.69605,1457.41819 L360.69605,1453.22052 L370.890937,1453.22052 L370.890937,1457.41819 L366.994423,1457.41819 L366.994423,1463.4154 L376.586987,1463.4154 L376.586987,1457.41819 L372.690473,1457.41819 L372.690473,1453.22052 L382.88536,1453.22052 L382.88536,1457.41819 L378.985128,1457.41819 L378.985128,1463.4154 L388.58141,1463.4154 L388.58141,1457.41819 L384.684895,1457.41819 Z M367.351356,1441.22609 L376.230054,1441.22609 L376.230054,1445.42377 L367.351356,1445.42377 L367.351356,1441.22609 Z M362.796747,1461.61587 L356.799535,1461.61587 L356.799535,1459.22888 L362.796747,1459.22888 L362.796747,1461.61587 Z M374.787452,1461.61587 L368.793958,1461.61587 L368.793958,1459.22888 L374.787452,1459.22888 L374.787452,1461.61587 Z M386.781875,1461.61587 L380.784663,1461.61587 L380.784663,1459.22888 L386.781875,1459.22888 L386.781875,1461.61587 Z" id="Shape"></path>
        </g>
    </g>
</svg>