<?xml version="1.0" encoding="UTF-8"?>
<svg width="25px" height="31px" viewBox="0 0 25 31" version="1.1" xmlns="http://www.w3.org/2000/svg" xmlns:xlink="http://www.w3.org/1999/xlink">
    <title>Shape</title>
    <g id="Batch-1" stroke="none" stroke-width="1" fill="none" fill-rule="evenodd">
        <g id="T2-Landing-page---Full-(Type-of-Licenses-open)-" transform="translate(-1141.000000, -5556.000000)" fill="#001E62" fill-rule="nonzero">
            <g id="Group-Copy" transform="translate(144.750000, 5502.950981)">
                <g id="Group-8" transform="translate(585.500000, 37.973187)">
                    <path d="M422.983762,16.0004429 C422.909825,16.0014135 422.83631,16.0117496 422.764973,16.0312041 L411.64098,19.2036356 C411.262997,19.3086324 411.001048,19.6523108 411,20.0446045 L411,31.1685905 C411,35.393016 413.995796,38.9735067 416.859409,41.5251237 C419.723027,44.0767407 422.576956,45.6461915 422.576956,45.6461915 C422.840252,45.7915639 423.159748,45.7915639 423.423044,45.6461915 C423.423044,45.6461915 426.283808,44.0767407 429.147426,41.5251237 C432.011043,38.9735067 435,35.393016 435,31.1685905 L435,20.0446045 C435,19.6547053 434.742159,19.3117984 434.367563,19.2036356 L423.243568,16.031214 C423.158996,16.0080018 423.071415,15.9976322 422.983761,16.0004528 L422.983762,16.0004429 Z M423.004269,17.7832212 L433.249691,20.702673 L433.249691,31.1685905 C433.249691,34.5385089 430.676099,37.81534 427.97827,40.2192303 C425.492628,42.4340616 423.380564,43.5928071 423.004275,43.8053043 C422.631277,43.5947321 420.511206,42.4359536 418.02343,40.2192303 C415.325599,37.81534 412.752012,34.5385089 412.752012,31.1685905 L412.752012,20.702673 L423.004269,17.7832212 Z M420.85913,22.5110892 C420.625848,22.5102052 420.401863,22.6024817 420.236906,22.7674374 C420.071948,22.9323932 419.97967,23.156377 419.980558,23.3896593 L419.980558,26.0134064 L417.351682,26.0134064 C417.119289,26.0138825 416.896626,26.1067619 416.73278,26.2715688 C416.568934,26.4363757 416.477359,26.6595782 416.478236,26.8919701 L416.478236,31.1805642 C416.479236,31.6625386 416.869708,32.0530079 417.351682,32.0539977 L419.980558,32.0539977 L419.980558,34.682875 C419.979667,34.916159 420.071945,35.1401453 420.236902,35.3051032 C420.40186,35.4700612 420.625847,35.562339 420.85913,35.561455 L425.14942,35.561455 C425.632734,35.5595142 426.022995,35.1661896 426.021149,34.682875 L426.021149,32.0539977 L428.650025,32.0539977 C429.131331,32.0520688 429.520765,31.6618735 429.521761,31.1805642 L429.521761,29.0371255 L429.521761,26.8919701 C429.523594,26.4086594 429.133335,26.0153408 428.650025,26.0134064 L426.021149,26.0134064 L426.021149,23.3896593 C426.022989,22.9063486 425.63273,22.51303 425.14942,22.5110892 L423.004275,22.5110892 L420.85913,22.5110892 Z M421.73086,24.263106 L423.004275,24.263106 L424.270847,24.263106 L424.270847,26.8919701 C424.272775,27.3752883 424.666101,27.7655553 425.14942,27.7637101 L427.771452,27.7637101 L427.771452,29.0371255 L427.771452,30.3019906 L425.14942,30.3019906 C424.916136,30.3011001 424.692149,30.3933779 424.527192,30.5583358 C424.362234,30.7232938 424.269956,30.9472802 424.270847,31.1805642 L424.270847,33.8111449 L421.73086,33.8111449 L421.73086,31.1805642 C421.732705,30.6972496 421.342445,30.303925 420.85913,30.3019906 L418.230255,30.3019906 L418.230255,27.7637101 L420.85913,27.7637101 C421.339779,27.7617866 421.728942,27.3726181 421.73086,26.8919701 L421.73086,24.263106 Z" id="Shape"></path>
                </g>
            </g>
        </g>
    </g>
</svg>