<?xml version="1.0" encoding="UTF-8"?>
<svg width="28px" height="29px" viewBox="0 0 28 29" version="1.1" xmlns="http://www.w3.org/2000/svg" xmlns:xlink="http://www.w3.org/1999/xlink">
    <title>Shape</title>
    <g id="Page-1" stroke="none" stroke-width="1" fill="none" fill-rule="evenodd">
        <g id="T11-Contact-us-" transform="translate(-126.000000, -1006.000000)" fill="#001E62" fill-rule="nonzero">
            <path d="M129.604839,1034.01412 L150.895161,1034.01412 C152.609916,1034.01412 154,1032.62404 154,1030.90929 L154,1020.26412 C154,1016.58965 151.021249,1013.6109 147.346774,1013.6109 L146.903226,1013.6109 L146.903226,1009.61896 C146.903226,1009.374 147.101809,1009.17541 147.346774,1009.17541 L150.451613,1009.17541 L150.451613,1006.51412 L147.346774,1006.51412 C145.632019,1006.51412 144.241935,1007.90421 144.241935,1009.61896 L144.241935,1013.6109 L133.153226,1013.6109 C129.478751,1013.6109 126.5,1016.58965 126.5,1020.26412 L126.5,1030.90929 C126.5,1032.62404 127.890084,1034.01412 129.604839,1034.01412 Z M144.241935,1022.65041 C143.612883,1023.36369 143.658128,1024.44611 144.344513,1025.10441 C145.030898,1025.7627 146.114263,1025.7627 146.800648,1025.10441 C147.487033,1024.44611 147.532279,1023.36369 146.903226,1022.65041 L146.903226,1016.27219 L147.346774,1016.27219 C149.551459,1016.27219 151.33871,1018.05944 151.33871,1020.26412 L151.33871,1030.90929 C151.33871,1031.15425 151.140126,1031.35283 150.895161,1031.35283 L139.806452,1031.35283 L139.806452,1020.26412 C139.809674,1018.82404 139.342433,1017.42232 138.475806,1016.27219 L144.241935,1016.27219 L144.241935,1022.65041 Z M129.16129,1020.26412 C129.16129,1018.05944 130.948541,1016.27219 133.153226,1016.27219 C135.357911,1016.27219 137.145161,1018.05944 137.145161,1020.26412 L137.145161,1031.35283 L129.604839,1031.35283 C129.359874,1031.35283 129.16129,1031.15425 129.16129,1030.90929 L129.16129,1020.26412 Z" id="Shape"></path>
        </g>
    </g>
</svg>