<?xml version="1.0" encoding="UTF-8"?>
<svg width="43px" height="42px" viewBox="0 0 43 42" version="1.1" xmlns="http://www.w3.org/2000/svg" xmlns:xlink="http://www.w3.org/1999/xlink">
    <title>Group 8</title>
    <g id="Page-1" stroke="none" stroke-width="1" fill="none" fill-rule="evenodd">
        <g id="Education-" transform="translate(-940.000000, -629.000000)" fill="#001E62" fill-rule="nonzero">
            <g id="Group-8" transform="translate(940.000000, 629.000000)">
                <path d="M39.7710757,17.6626718 L2.2947373,17.6626718 C1.02738889,17.6626718 0,18.6900607 0,19.9574091 L0,39.7052627 C0,40.9726111 1.02738889,42 2.2947373,42 L39.7710757,42 C41.0384241,42 42.065813,40.9726111 42.065813,39.7052627 L42.065813,19.9574091 C42.065813,18.6900607 41.0384241,17.6626718 39.7710757,17.6626718 Z M40.0988953,39.7052627 C40.0988953,39.8863125 39.9521254,40.0330823 39.7710757,40.0330823 L2.2947373,40.0330823 C2.11368753,40.0330823 1.96691769,39.8863125 1.96691769,39.7052627 L1.96691769,19.9574091 C1.96691769,19.7763593 2.11368753,19.6295895 2.2947373,19.6295895 L39.7710757,19.6295895 C39.9521254,19.6295895 40.0988953,19.7763593 40.0988953,19.9574091 L40.0988953,39.7052627 Z" id="Shape"></path>
                <path d="M36.9583834,24.4288686 C35.9589886,24.4288686 35.1488191,23.6186991 35.1488191,22.6193044 C35.1453643,22.3567286 35.0377314,22.1062824 34.8496033,21.9230728 C34.6614752,21.7398631 34.4082662,21.6389011 34.1456911,21.6423138 L7.92012189,21.6423138 C7.37846048,21.6459774 6.94023849,22.0841994 6.93666305,22.6258608 C6.93666305,23.6252555 6.12649353,24.435425 5.12709877,24.435425 C4.58394945,24.435425 4.14363993,24.8757346 4.14363993,25.4188839 L4.14363993,34.2503443 C4.14363993,34.7934936 4.58394945,35.2338032 5.12709877,35.2338032 C6.12649353,35.2338032 6.93666305,36.0439727 6.93666305,37.0433674 C6.93491658,37.3053311 7.03775919,37.5571653 7.22238314,37.7430201 C7.40700708,37.9288748 7.65815244,38.0333827 7.92012189,38.0333827 L34.1456911,38.0333827 C34.6888404,38.0333827 35.1291499,37.5930731 35.1291499,37.0499238 C35.1291499,36.0505291 35.9393194,35.2403595 36.9387142,35.2403595 C37.4818635,35.2403595 37.9221731,34.80005 37.9221731,34.2569007 L37.9221731,25.4123275 C37.9221731,24.8767677 37.4938361,24.4395798 36.9583834,24.4288686 Z M35.9749245,33.3980133 C34.6736178,33.7486722 33.6571317,34.7651583 33.3064729,36.066465 L8.75934011,36.066465 C8.40666218,34.7676815 7.39053553,33.7540515 6.09088844,33.4045697 L6.09088844,26.2646585 C7.38750473,25.9139715 8.40227017,24.9041927 8.75934011,23.6093196 L33.3064729,23.6093196 C33.6615385,24.9067156 34.676659,25.9193419 35.9749245,26.2712149 L35.9749245,33.3980133 Z" id="Shape"></path>
                <path d="M21.0329065,24.9205981 C18.3062969,24.9205981 16.0959431,27.1309519 16.0959431,29.8575615 C16.0959431,32.5841711 18.3062969,34.7945249 21.0329065,34.7945249 C23.7595161,34.7945249 25.9698699,32.5841711 25.9698699,29.8575615 C25.9662581,27.1324493 23.7580186,24.9242099 21.0329065,24.9205981 Z M21.0329065,32.7882688 C19.3925955,32.7882688 18.0628608,31.4585341 18.0628608,29.8182231 C18.0628608,28.1779122 19.3925955,26.8481774 21.0329065,26.8481774 C22.6732174,26.8481774 24.0029522,28.1779122 24.0029522,29.8182231 C24.0029522,30.6059282 23.6900376,31.361371 23.1330459,31.9183626 C22.5760543,32.4753542 21.8206116,32.7882688 21.0329065,32.7882688 Z" id="Shape"></path>
                <path d="M7.99224221,16.7185513 L24.9142907,1.97322504 L25.0716441,1.97322504 C25.1307629,1.97698581 25.1855367,2.00556347 25.2224412,2.05190175 L37.1616315,15.7416489 C37.2079426,15.7959165 37.2272233,15.8682191 37.2140827,15.9383406 C37.1577561,16.1932147 37.2057716,16.4600303 37.3474199,16.6792773 C37.4890682,16.8985243 37.7125672,17.0519658 37.9680678,17.1053785 C38.0378524,17.1118603 38.1080877,17.1118603 38.1778723,17.1053785 C38.6417122,17.1055384 39.041715,16.7795087 39.1351056,16.3251678 C39.2780059,15.6524617 39.0985503,14.9516151 38.6499326,14.4303704 L26.7107422,0.734066896 C26.325226,0.3001216 25.7823569,0.038128261 25.202772,0.00630735121 C24.6238852,-0.0381083289 24.0516348,0.153430031 23.616125,0.537375127 L6.70063293,15.2302503 C6.43477355,15.4644876 6.31407349,15.8227661 6.38399928,16.1701258 C6.45392508,16.5174854 6.70385334,16.801154 7.03963851,16.9142763 C7.37542368,17.0273986 7.74605201,16.9527886 8.01191138,16.7185513 L7.99224221,16.7185513 Z" id="Path"></path>
                <path d="M32.4803674,13.1584303 L27.1369077,7.01509071 C26.7813119,6.60739727 26.163203,6.56345588 25.7535089,6.91674483 C25.4364473,7.19472055 25.0217773,7.33505607 24.6010659,7.30676262 C24.1803546,7.27846917 23.7882091,7.08387412 23.5112228,6.76594781 C23.3392991,6.56909475 23.0960889,6.44877252 22.8352972,6.43155044 C22.5745056,6.41432835 22.3175848,6.50162305 22.1212676,6.67415832 L12.1096566,15.3876037 C11.7004841,15.7497032 11.6623239,16.3749427 12.0244235,16.7841152 C12.386523,17.1932877 13.0117625,17.2314479 13.420935,16.8693483 L22.796576,8.70663993 C23.8262111,9.36714405 25.1218346,9.45615635 26.2321256,8.94267005 L30.4609986,13.8075131 C29.9822937,14.5365295 29.7929134,15.4179662 29.9299308,16.279273 C29.9995842,16.7472437 30.3945732,17.0980381 30.8674949,17.1119348 L31.0182919,17.1119348 C31.5537447,17.0279059 31.9202751,16.5264924 31.837841,15.9907918 C31.7571583,15.4508708 31.9573721,14.9070802 32.3689088,14.5483855 C32.5701667,14.3802321 32.6953615,14.1382187 32.7163245,13.8767978 C32.7372875,13.6153769 32.652258,13.356506 32.4803674,13.1584303 Z" id="Path"></path>
                <path d="M20.5870718,13.4600243 C19.2518924,13.6299388 18.045229,14.3411353 17.2498681,15.426942 C17.0193404,15.7078088 16.9624622,16.0929003 17.1019496,16.4284185 C17.2414371,16.7639367 17.5545592,16.9952053 17.916261,17.0298601 C18.2779629,17.0645149 18.6293013,16.8969086 18.8299587,16.5939799 C19.4040849,15.8197756 20.3175495,15.3714902 21.2812048,15.3910238 C22.2448601,15.4105573 23.1394081,15.8954916 23.681689,16.6923257 C23.8634271,16.9632736 24.1684284,17.125613 24.4946816,17.1250633 C24.6914164,17.1261716 24.8837194,17.0666492 25.0454186,16.9545814 C25.2621412,16.8094085 25.4118031,16.5835902 25.4610644,16.3274316 C25.5103256,16.071273 25.4550943,15.8060522 25.3076743,15.5908518 C24.2660048,14.042304 22.4374712,13.2169242 20.5870718,13.4600243 Z" id="Path"></path>
            </g>
        </g>
    </g>
</svg>