<?xml version="1.0" encoding="utf-8"?>
<!-- Generator: Adobe Illustrator 25.0.0, SVG Export Plug-In . SVG Version: 6.00 Build 0)  -->
<svg version="1.1" id="Layer_1" xmlns="http://www.w3.org/2000/svg" xmlns:xlink="http://www.w3.org/1999/xlink" x="0px" y="0px"
	 viewBox="0 0 22 22" style="enable-background:new 0 0 22 22;" xml:space="preserve">
<style type="text/css">
	.st0{fill:none;stroke:#000000;stroke-width:2;stroke-linecap:round;stroke-miterlimit:10;}
</style>
<path d="M18.6,22H3.4C1.5,22,0,20.5,0,18.6V3.4C0,1.5,1.5,0,3.4,0h15.2C20.5,0,22,1.5,22,3.4v15.2C22,20.5,20.5,22,18.6,22z M3.4,2
	C2.6,2,2,2.6,2,3.4v15.2C2,19.4,2.6,20,3.4,20h15.2c0.8,0,1.4-0.6,1.4-1.4V3.4C20,2.6,19.4,2,18.6,2H3.4z"/>
<circle cx="7" cy="8.2" r="2"/>
<circle cx="15" cy="8.2" r="2"/>
<line class="st0" x1="5.5" y1="14.8" x2="16.5" y2="14.8"/>
</svg>
