<?xml version="1.0" encoding="UTF-8"?>
<svg width="20px" height="15px" viewBox="0 0 20 15" version="1.1" xmlns="http://www.w3.org/2000/svg" xmlns:xlink="http://www.w3.org/1999/xlink">
    <title>Group 4</title>
    <g id="Symbols" stroke="none" stroke-width="1" fill="none" fill-rule="evenodd">
        <g id="Rectangle" transform="translate(-20.000000, -223.000000)" fill="#001E62" fill-rule="nonzero">
            <g id="Group-4" transform="translate(20.881724, 223.000000)">
                <path d="M12.6214834,11.0102302 L12.6214834,11.8158568 L3.89386189,11.8158568 C3.66368286,11.8158568 3.43350384,11.8925831 3.26086957,12.0268542 L1.2084399,13.6189258 L1.2084399,1.2084399 L12.6214834,1.2084399 L12.6214834,4.87212276 L13.8299233,3.51023018 L13.8299233,1.03580563 C13.8299233,0.460358056 13.3503836,0 12.7941176,0 L1.03580563,0 C0.460358056,0 0,0.460358056 0,1.03580563 L0,13.9450128 C0,14.3478261 0.210997442,14.6930946 0.57544757,14.8849105 C0.728900256,14.9616368 0.882352941,15 1.03580563,15 C1.24680307,15 1.4769821,14.9232737 1.66879795,14.7890026 L3.89386189,13.0242967 L12.7941176,13.0242967 C13.3695652,13.0242967 13.8299233,12.544757 13.8299233,11.988491 L13.8299233,9.85933504 L13.0626598,10.7225064 C12.9475703,10.8375959 12.7941176,10.9526854 12.6214834,11.0102302 Z" id="Path"></path>
                <path d="M3.52941176,4.12404092 L10.2813299,4.12404092 C10.6265985,4.12404092 10.8951407,3.85549872 10.8951407,3.51023018 C10.8951407,3.18414322 10.6265985,2.89641944 10.2813299,2.89641944 L3.52941176,2.89641944 C3.18414322,2.89641944 2.91560102,3.18414322 2.91560102,3.51023018 C2.93478261,3.85549872 3.20332481,4.12404092 3.52941176,4.12404092 Z" id="Path"></path>
                <path d="M10.8951407,6.4258312 C10.8951407,6.09974425 10.6265985,5.81202046 10.2813299,5.81202046 L3.52941176,5.81202046 C3.18414322,5.81202046 2.91560102,6.09974425 2.91560102,6.4258312 C2.91560102,6.77109974 3.18414322,7.03964194 3.52941176,7.03964194 L10.2813299,7.03964194 C10.6265985,7.03964194 10.8951407,6.77109974 10.8951407,6.4258312 Z" id="Path"></path>
                <path d="M2.93478261,9.34143223 C2.93478261,9.68670077 3.20332481,9.95524297 3.54859335,9.95524297 L9.3797954,9.95524297 L9.59079284,8.74680307 L3.52941176,8.74680307 C3.20332481,8.74680307 2.93478261,9.01534527 2.93478261,9.34143223 Z" id="Path"></path>
                <polygon id="Rectangle" transform="translate(14.237461, 6.231279) rotate(-48.133310) translate(-14.237461, -6.231279) " points="11.5424471 5.08038346 16.9324749 5.08038346 16.9324749 7.38217472 11.5424471 7.38217472"></polygon>
                <path d="M18.1074169,3.12659847 L16.9181586,2.05242967 C16.7838875,1.91815857 16.5537084,1.93734015 16.4386189,2.07161125 L15.7289003,2.87723785 L17.4360614,4.41176471 L18.1457801,3.60613811 C18.2608696,3.47186701 18.241688,3.24168798 18.1074169,3.12659847 Z" id="Path"></path>
                <path d="M10.7225064,10.5882353 L12.1803069,10.1662404 C12.2378517,10.1470588 12.2953964,10.1086957 12.3337596,10.0703325 L12.7557545,9.60997442 L11.0485934,8.07544757 L10.6265985,8.53580563 C10.5882353,8.59335038 10.5498721,8.65089514 10.5498721,8.7084399 L10.3005115,10.2046036 C10.2621483,10.4539642 10.4923274,10.6457801 10.7225064,10.5882353 Z" id="Path"></path>
            </g>
        </g>
    </g>
</svg>