<?xml version="1.0" encoding="UTF-8"?>
<svg width="28px" height="27px" viewBox="0 0 28 27" version="1.1" xmlns="http://www.w3.org/2000/svg" xmlns:xlink="http://www.w3.org/1999/xlink">
    <title>Group 9</title>
    <g id="Batch-1" stroke="none" stroke-width="1" fill="none" fill-rule="evenodd">
        <g id="Licensing---How-to-apply-Insurance" transform="translate(-357.000000, -1502.000000)" fill="#001E62" fill-rule="nonzero">
            <g id="Group-9" transform="translate(357.614968, 1502.889486)">
                <path d="M13.5696873,16.4775988 L19.3731904,10.6740956 C20.9004281,9.14685795 20.9004281,6.66164504 19.3731904,5.13440737 C17.8459527,3.6071697 15.3607398,3.6071697 13.8335022,5.13440737 L13.5905036,5.37740597 L13.347505,5.13440737 C11.8202673,3.6071697 9.33505441,3.6071697 7.80781674,5.13440737 C6.28057907,6.66164504 6.28057907,9.14685795 7.80484298,10.6715467 L13.5696873,16.4775988 Z" id="Path"></path>
                <path d="M0,0 L0,19.9696415 L10.5793602,19.9696415 L13.594327,26 L16.6092938,19.9696415 L27.188654,19.9696415 L27.188654,0 L0,0 Z M25.5955688,18.3765563 L15.6249796,18.3765563 L13.594327,22.4378615 L11.5636744,18.3765563 L1.59308519,18.3765563 L1.59308519,1.59308519 L25.5955688,1.59308519 L25.5955688,18.3765563 Z" id="Shape"></path>
            </g>
        </g>
    </g>
</svg>