<?xml version="1.0" encoding="UTF-8"?>
<svg width="27px" height="34px" viewBox="0 0 27 34" version="1.1" xmlns="http://www.w3.org/2000/svg" xmlns:xlink="http://www.w3.org/1999/xlink">
    <title>Group 7</title>
    <g id="Page-1" stroke="none" stroke-width="1" fill="none" fill-rule="evenodd">
        <g id="Education-" transform="translate(-552.000000, -1004.000000)" fill="#001E62" fill-rule="nonzero">
            <g id="Group-7" transform="translate(552.000000, 1004.000000)">
                <path d="M13.3571429,4.85714286 C8.67012143,4.85714286 4.85714286,8.67072857 4.85714286,13.3571429 C4.85714286,15.4038214 5.72122857,20.1814286 7.31874286,22.9076214 C7.31097143,22.9634786 7.28571429,23.0132643 7.28571429,23.0714286 L7.28571429,25.5 C7.28571429,27.0808786 8.30389286,28.4162286 9.71428571,28.9190643 L9.71428571,30.3571429 C9.71428571,32.3659357 11.34835,34 13.3571429,34 C15.3659357,34 17,32.3659357 17,30.3571429 L17,28.9190643 C18.4103929,28.4162286 19.4285714,27.0808786 19.4285714,25.5 L19.4285714,23.0714286 C19.4285714,23.0132643 19.4033143,22.9634786 19.3955429,22.9076214 C20.9930571,20.1814286 21.8571429,15.4038214 21.8571429,13.3571429 C21.8571429,8.67072857 18.0441643,4.85714286 13.3571429,4.85714286 Z M13.3571429,7.28571429 C16.7046857,7.28571429 19.4285714,10.0096 19.4285714,13.3571429 C19.4285714,15.5195429 18.4531357,19.8977714 17.1952571,21.8571429 L9.51915,21.8571429 C8.26115,19.8977714 7.28571429,15.5195429 7.28571429,13.3571429 C7.28571429,10.0096 10.0096,7.28571429 13.3571429,7.28571429 Z M14.5714286,30.3571429 C14.5714286,31.0271857 14.0265786,31.5714286 13.3571429,31.5714286 C12.6877071,31.5714286 12.1428571,31.0271857 12.1428571,30.3571429 L12.1428571,29.1428571 L14.5714286,29.1428571 L14.5714286,30.3571429 Z M17,25.5 C17,26.1700429 16.45515,26.7142857 15.7857143,26.7142857 L10.9285714,26.7142857 C10.2591357,26.7142857 9.71428571,26.1700429 9.71428571,25.5 L9.71428571,24.2857143 L17,24.2857143 L17,25.5 Z" id="Shape"></path>
                <path d="M13.9642857,0 L12.75,0 C12.4147357,0 12.1428571,0.271878571 12.1428571,0.607142857 L12.1428571,1.82142857 C12.1428571,2.15669286 12.4147357,2.42857143 12.75,2.42857143 L13.9642857,2.42857143 C14.29955,2.42857143 14.5714286,2.15669286 14.5714286,1.82142857 L14.5714286,0.607142857 C14.5714286,0.271878571 14.29955,0 13.9642857,0 Z" id="Path"></path>
                <path d="M0.607142857,14.5714286 L1.82142857,14.5714286 C2.15669286,14.5714286 2.42857143,14.29955 2.42857143,13.9642857 L2.42857143,12.75 C2.42857143,12.4147357 2.15669286,12.1428571 1.82142857,12.1428571 L0.607142857,12.1428571 C0.271878571,12.1428571 0,12.4147357 0,12.75 L0,13.9642857 C0,14.29955 0.271878571,14.5714286 0.607142857,14.5714286 Z" id="Path"></path>
                <path d="M24.2857143,12.75 L24.2857143,13.9642857 C24.2857143,14.29955 24.5575929,14.5714286 24.8928571,14.5714286 L26.1071429,14.5714286 C26.4424071,14.5714286 26.7142857,14.29955 26.7142857,13.9642857 L26.7142857,12.75 C26.7142857,12.4147357 26.4424071,12.1428571 26.1071429,12.1428571 L24.8928571,12.1428571 C24.5575929,12.1428571 24.2857143,12.4147357 24.2857143,12.75 Z" id="Path"></path>
                <path d="M20.6554857,5.19993571 L21.5139857,6.05843571 C21.7510143,6.29546429 22.1354571,6.29558571 22.3724857,6.05855714 L23.23135,5.19993571 C23.4685,4.96278571 23.4685,4.57834286 23.2314714,4.34119286 L22.3729714,3.48269286 C22.1359429,3.24566429 21.7515,3.24554286 21.5144714,3.48257143 L20.6556071,4.34119286 C20.4183357,4.57834286 20.4183357,4.96278571 20.6554857,5.19993571 Z" id="Path"></path>
                <path d="M4.34131429,3.48269286 L3.48281429,4.34119286 C3.24578571,4.57834286 3.24578571,4.96278571 3.48293571,5.19993571 L4.3418,6.05855714 C4.57895,6.29558571 4.96327143,6.29558571 5.2003,6.05843571 L6.0588,5.19993571 C6.29595,4.96278571 6.29595,4.57834286 6.05867857,4.34119286 L5.19993571,3.48269286 C4.96278571,3.24566429 4.57846429,3.24566429 4.34131429,3.48269286 Z" id="Path"></path>
                <path d="M13.9642857,9.71428571 L12.75,9.71428571 C12.4147357,9.71428571 12.1428571,9.98616429 12.1428571,10.3214286 L12.1428571,11.5357143 C12.1428571,11.8709786 12.4147357,12.1428571 12.75,12.1428571 L13.9642857,12.1428571 C14.29955,12.1428571 14.5714286,11.8709786 14.5714286,11.5357143 L14.5714286,10.3214286 C14.5714286,9.98616429 14.29955,9.71428571 13.9642857,9.71428571 Z" id="Path"></path>
                <path d="M13.9642857,13.3571429 L12.75,13.3571429 C12.4147357,13.3571429 12.1428571,13.6290214 12.1428571,13.9642857 L12.1428571,18.8214286 C12.1428571,19.1566929 12.4147357,19.4285714 12.75,19.4285714 L13.9642857,19.4285714 C14.29955,19.4285714 14.5714286,19.1566929 14.5714286,18.8214286 L14.5714286,13.9642857 C14.5714286,13.6290214 14.29955,13.3571429 13.9642857,13.3571429 Z" id="Path"></path>
            </g>
        </g>
    </g>
</svg>