<svg width="514" height="417" viewBox="0 0 514 417" fill="none" xmlns="http://www.w3.org/2000/svg">
<g clip-path="url(#clip0_136_1214)">
<path d="M404.692 324.601C404.579 324.413 404.401 324.279 404.19 324.224C403.978 324.17 403.756 324.201 403.568 324.313L400.846 325.925L399.237 323.198C399.124 323.01 398.947 322.877 398.735 322.822C398.523 322.767 398.301 322.798 398.113 322.911C397.926 323.024 397.792 323.202 397.738 323.414C397.683 323.626 397.714 323.848 397.827 324.036L399.435 326.763L396.713 328.374C396.525 328.487 396.392 328.665 396.337 328.877C396.283 329.089 396.313 329.312 396.426 329.5C396.539 329.688 396.716 329.822 396.928 329.876C397.14 329.931 397.362 329.9 397.55 329.787L400.272 328.176L401.881 330.903C402.062 331.211 402.413 331.354 402.745 331.289C402.834 331.272 402.919 331.238 403.001 331.19C403.39 330.961 403.52 330.454 403.291 330.064L401.683 327.338L404.405 325.726C404.794 325.497 404.924 324.991 404.695 324.601H404.692Z" fill="#A9A9A9"/>
<path d="M411.587 342.641C409.616 342.641 408.015 341.036 408.015 339.062C408.015 337.088 409.616 335.484 411.587 335.484C413.558 335.484 415.16 337.088 415.16 339.062C415.16 341.036 413.558 342.641 411.587 342.641ZM411.587 337.4C410.672 337.4 409.924 338.146 409.924 339.066C409.924 339.986 410.668 340.732 411.587 340.732C412.506 340.732 413.251 339.986 413.251 339.066C413.251 338.146 412.506 337.4 411.587 337.4Z" fill="#A9A9A9"/>
<path d="M50.8358 395.149C48.865 395.149 47.2632 393.544 47.2632 391.57C47.2632 389.596 48.865 387.992 50.8358 387.992C52.8065 387.992 54.4083 389.596 54.4083 391.57C54.4083 393.544 52.8065 395.149 50.8358 395.149ZM50.8358 389.904C49.9204 389.904 49.1724 390.65 49.1724 391.57C49.1724 392.491 49.917 393.236 50.8358 393.236C51.7545 393.236 52.4991 392.491 52.4991 391.57C52.4991 390.65 51.7545 389.904 50.8358 389.904Z" fill="#A9A9A9"/>
<path d="M446.36 10.4242C444.389 10.4242 442.788 8.81965 442.788 6.84564C442.788 4.87162 444.389 3.26709 446.36 3.26709C448.331 3.26709 449.933 4.87162 449.933 6.84564C449.933 8.81965 448.331 10.4242 446.36 10.4242ZM446.36 5.18295C445.445 5.18295 444.697 5.92876 444.697 6.84906C444.697 7.76935 445.441 8.51517 446.36 8.51517C447.279 8.51517 448.023 7.76935 448.023 6.84906C448.023 5.92876 447.279 5.18295 446.36 5.18295Z" fill="#A9A9A9"/>
<path d="M507.5 101.034C507.302 101.13 507.155 101.297 507.084 101.506C507.012 101.715 507.026 101.937 507.121 102.132L508.504 104.979L505.663 106.364C505.465 106.46 505.318 106.628 505.246 106.836C505.174 107.045 505.188 107.267 505.284 107.462C505.379 107.661 505.547 107.808 505.755 107.88C505.963 107.951 506.185 107.938 506.38 107.842L509.222 106.456L510.605 109.303C510.701 109.501 510.868 109.648 511.076 109.72C511.285 109.792 511.507 109.778 511.701 109.683C511.899 109.587 512.046 109.419 512.118 109.21C512.19 109.002 512.176 108.779 512.08 108.584L510.697 105.738L513.539 104.352C513.86 104.195 514.034 103.856 513.993 103.521C513.983 103.432 513.959 103.343 513.915 103.258C513.716 102.851 513.225 102.679 512.818 102.878L509.977 104.263L508.593 101.417C508.395 101.01 507.903 100.839 507.497 101.037L507.5 101.034Z" fill="#DEDEDE"/>
<path d="M455.896 169.122C453.926 169.122 452.324 167.518 452.324 165.544C452.324 163.57 453.926 161.965 455.896 161.965C457.867 161.965 459.469 163.57 459.469 165.544C459.469 167.518 457.867 169.122 455.896 169.122ZM455.896 163.878C454.981 163.878 454.233 164.624 454.233 165.544C454.233 166.464 454.978 167.21 455.896 167.21C456.815 167.21 457.56 166.464 457.56 165.544C457.56 164.624 456.815 163.878 455.896 163.878Z" fill="#A9A9A9"/>
<path d="M0.437099 219C0.276573 219.15 0.184355 219.352 0.177524 219.571C0.170693 219.79 0.249249 219.999 0.399529 220.16L2.56152 222.469L0.25608 224.634C0.0955529 224.785 0.00333541 224.987 -0.00349552 225.206C-0.0103264 225.425 0.0682292 225.633 0.21851 225.794C0.36879 225.955 0.570302 226.047 0.788892 226.054C1.00748 226.061 1.21583 225.982 1.37635 225.832L3.68179 223.666L5.84378 225.976C5.99406 226.136 6.19557 226.229 6.41416 226.236C6.63275 226.242 6.84109 226.164 7.00162 226.013C7.16215 225.863 7.25436 225.661 7.2612 225.442C7.26803 225.223 7.18947 225.014 7.03919 224.853L4.8772 222.544L7.18264 220.379C7.44222 220.136 7.50711 219.759 7.37049 219.448C7.33292 219.366 7.2851 219.287 7.21679 219.219C6.90599 218.887 6.38684 218.873 6.05895 219.181L3.75351 221.347L1.59153 219.037C1.28072 218.706 0.761568 218.692 0.433684 219H0.437099Z" fill="#DEDEDE"/>
<path d="M35.6336 258.336C33.6629 258.336 32.061 256.732 32.061 254.758C32.061 252.784 33.6629 251.179 35.6336 251.179C37.6043 251.179 39.2062 252.784 39.2062 254.758C39.2062 256.732 37.6043 258.336 35.6336 258.336ZM35.6336 253.092C34.7183 253.092 33.9703 253.837 33.9703 254.758C33.9703 255.678 34.7149 256.424 35.6336 256.424C36.5524 256.424 37.2969 255.678 37.2969 254.758C37.2969 253.837 36.5524 253.092 35.6336 253.092Z" fill="#A9A9A9"/>
<path d="M97.1259 370.79C96.7433 370.79 96.4223 370.489 96.4018 370.102C96.3779 369.702 96.6853 369.357 97.0883 369.336C99.4859 369.203 101.911 368.96 104.298 368.625C104.695 368.57 105.063 368.847 105.118 369.244C105.173 369.641 104.896 370.01 104.5 370.065C102.071 370.407 99.6055 370.653 97.1668 370.79C97.1532 370.79 97.1395 370.79 97.1259 370.79ZM86.9034 370.759C86.9034 370.759 86.8726 370.759 86.8556 370.759C84.4135 370.605 81.9475 370.345 79.5294 369.986C79.1332 369.928 78.86 369.555 78.918 369.158C78.9761 368.761 79.3484 368.488 79.7446 368.546C82.1217 368.902 84.5467 369.155 86.9478 369.305C87.3474 369.329 87.6514 369.675 87.6274 370.079C87.6035 370.465 87.2825 370.763 86.9034 370.763V370.759ZM114.422 368.053C114.101 368.053 113.804 367.838 113.718 367.509C113.616 367.119 113.848 366.722 114.237 366.62C116.567 366.007 118.896 365.289 121.16 364.485C121.54 364.351 121.953 364.55 122.089 364.926C122.226 365.303 122.025 365.72 121.649 365.857C119.347 366.674 116.98 367.407 114.61 368.029C114.548 368.046 114.487 368.053 114.425 368.053H114.422ZM69.628 367.886C69.5631 367.886 69.5016 367.879 69.4367 367.858C67.0766 367.212 64.7165 366.459 62.4179 365.614C62.0422 365.477 61.8475 365.056 61.9841 364.68C62.1208 364.304 62.5409 364.109 62.9166 364.245C65.1776 365.073 67.4967 365.816 69.8192 366.452C70.2052 366.558 70.434 366.958 70.3281 367.345C70.2393 367.67 69.9456 367.882 69.628 367.882V367.886ZM130.819 361.912C130.553 361.912 130.293 361.765 130.167 361.508C129.989 361.149 130.136 360.711 130.495 360.533C132.65 359.463 134.785 358.289 136.844 357.04C137.189 356.832 137.633 356.941 137.842 357.287C138.05 357.632 137.941 358.077 137.596 358.286C135.505 359.555 133.333 360.749 131.14 361.837C131.038 361.888 130.925 361.912 130.819 361.912ZM53.2884 361.573C53.1791 361.573 53.0664 361.55 52.9605 361.495C50.7814 360.386 48.6194 359.172 46.536 357.885C46.1945 357.673 46.0886 357.225 46.3003 356.883C46.5121 356.541 46.9595 356.435 47.3011 356.647C49.3503 357.913 51.4748 359.11 53.6197 360.198C53.9783 360.379 54.1217 360.817 53.9407 361.177C53.8109 361.43 53.5582 361.577 53.2918 361.577L53.2884 361.573ZM145.629 352.572C145.414 352.572 145.199 352.477 145.055 352.292C144.809 351.974 144.864 351.519 145.181 351.269C147.077 349.784 148.932 348.2 150.694 346.561C150.988 346.288 151.449 346.305 151.722 346.599C151.995 346.893 151.978 347.355 151.684 347.629C149.891 349.295 148.006 350.906 146.08 352.415C145.946 352.518 145.789 352.569 145.632 352.569L145.629 352.572ZM38.5507 352.111C38.3935 352.111 38.233 352.059 38.0998 351.953C36.1837 350.431 34.3087 348.806 32.5258 347.126C32.232 346.849 32.2184 346.39 32.495 346.096C32.7717 345.802 33.2294 345.788 33.5231 346.065C35.2752 347.714 37.1196 349.312 39.0049 350.81C39.3191 351.06 39.3704 351.519 39.121 351.833C38.9776 352.015 38.7658 352.111 38.5507 352.111ZM158.256 340.431C158.088 340.431 157.921 340.372 157.784 340.256C157.477 339.996 157.443 339.538 157.703 339.23C159.26 337.393 160.759 335.47 162.16 333.51C162.392 333.181 162.846 333.106 163.174 333.342C163.502 333.575 163.577 334.03 163.341 334.358C161.917 336.353 160.394 338.309 158.809 340.174C158.666 340.345 158.461 340.431 158.256 340.431ZM26.0057 339.883C25.7973 339.883 25.5924 339.794 25.4489 339.623C23.8744 337.745 22.3648 335.778 20.9576 333.773C20.7254 333.445 20.8039 332.99 21.1352 332.757C21.4631 332.524 21.9173 332.603 22.1496 332.935C23.5329 334.905 25.0186 336.838 26.5658 338.686C26.8254 338.994 26.7844 339.452 26.477 339.712C26.3404 339.825 26.1764 339.883 26.0091 339.883H26.0057ZM168.202 325.997C168.082 325.997 167.963 325.966 167.853 325.908C167.501 325.713 167.375 325.271 167.566 324.919C168.728 322.808 169.81 320.622 170.791 318.419C170.955 318.053 171.385 317.885 171.75 318.049C172.116 318.214 172.283 318.645 172.119 319.011C171.125 321.248 170.022 323.472 168.84 325.62C168.707 325.86 168.458 325.997 168.202 325.997ZM16.176 325.371C15.9164 325.371 15.667 325.23 15.5338 324.987C14.3726 322.832 13.2933 320.598 12.3199 318.347C12.1594 317.977 12.3301 317.55 12.699 317.389C13.0679 317.228 13.4948 317.399 13.6553 317.769C14.6117 319.979 15.6739 322.175 16.8146 324.296C17.0059 324.649 16.8727 325.094 16.5209 325.282C16.4116 325.34 16.2921 325.367 16.176 325.367V325.371ZM175.056 309.856C174.985 309.856 174.913 309.845 174.841 309.821C174.459 309.702 174.244 309.295 174.363 308.911C175.077 306.609 175.699 304.248 176.214 301.895C176.3 301.501 176.689 301.255 177.078 301.34C177.471 301.426 177.717 301.816 177.632 302.206C177.109 304.597 176.474 306.999 175.75 309.339C175.654 309.65 175.367 309.852 175.056 309.852V309.856ZM9.48506 309.165C9.17084 309.165 8.88394 308.959 8.7883 308.644C8.08814 306.304 7.48018 303.899 6.97469 301.494C6.89272 301.101 7.14205 300.714 7.53825 300.632C7.93102 300.55 8.31697 300.803 8.39894 301.197C8.89418 303.561 9.49531 305.928 10.1818 308.231C10.2979 308.617 10.0793 309.021 9.6934 309.137C9.62509 309.158 9.55337 309.168 9.48506 309.168V309.165ZM178.52 292.657C178.496 292.657 178.472 292.657 178.448 292.654C178.048 292.616 177.755 292.26 177.796 291.86C178.028 289.462 178.161 287.026 178.188 284.614C178.192 284.214 178.523 283.885 178.923 283.896C179.326 283.899 179.647 284.231 179.64 284.631C179.613 287.084 179.476 289.561 179.24 292C179.203 292.377 178.889 292.657 178.516 292.657H178.52ZM6.17206 291.942C5.79977 291.942 5.48214 291.658 5.44798 291.279C5.22598 288.836 5.10644 286.356 5.09277 283.906C5.09277 283.506 5.41383 283.177 5.81685 283.174H5.82027C6.21988 283.174 6.54435 283.495 6.54776 283.899C6.56142 286.308 6.67755 288.744 6.89614 291.149C6.93371 291.549 6.63656 291.901 6.23695 291.939C6.21305 291.939 6.19255 291.939 6.17206 291.939V291.942ZM178.428 275.12C178.062 275.12 177.744 274.843 177.707 274.47C177.451 272.079 177.092 269.664 176.638 267.293L176.621 267.2C176.546 266.807 176.802 266.424 177.195 266.349C177.591 266.273 177.97 266.53 178.045 266.923L178.062 267.019C178.527 269.434 178.892 271.887 179.152 274.32C179.193 274.72 178.906 275.079 178.506 275.12C178.479 275.12 178.455 275.124 178.428 275.124V275.12ZM6.37357 274.399C6.34625 274.399 6.31892 274.399 6.2916 274.395C5.89199 274.351 5.60509 273.988 5.65291 273.591C5.92956 271.155 6.31551 268.702 6.79709 266.301C6.87565 265.907 7.25818 265.651 7.65437 265.729C8.04715 265.808 8.30331 266.191 8.22475 266.588C7.75 268.952 7.37089 271.364 7.10107 273.755C7.06008 274.128 6.74586 274.402 6.3804 274.402L6.37357 274.399ZM174.811 257.864C174.503 257.864 174.216 257.666 174.117 257.358C173.386 255.059 172.553 252.766 171.634 250.543C171.48 250.17 171.658 249.746 172.027 249.592C172.399 249.438 172.823 249.616 172.976 249.985C173.912 252.246 174.759 254.576 175.504 256.916C175.627 257.3 175.415 257.71 175.033 257.83C174.961 257.854 174.886 257.864 174.811 257.864ZM10.1135 257.262C10.0384 257.262 9.96322 257.252 9.88808 257.224C9.50555 257.098 9.30062 256.687 9.42358 256.304C10.1852 253.978 11.0596 251.651 12.0159 249.397C12.173 249.027 12.6 248.853 12.9688 249.01C13.3377 249.167 13.5119 249.595 13.3548 249.965C12.4121 252.185 11.5548 254.47 10.8068 256.756C10.7078 257.063 10.4209 257.255 10.1169 257.255L10.1135 257.262ZM167.84 241.778C167.587 241.778 167.338 241.644 167.204 241.405C166.026 239.304 164.745 237.228 163.393 235.236C163.167 234.905 163.253 234.45 163.584 234.224C163.915 233.998 164.37 234.083 164.595 234.415C165.968 236.444 167.273 238.555 168.471 240.69C168.67 241.039 168.543 241.483 168.195 241.682C168.082 241.743 167.959 241.774 167.84 241.774V241.778ZM17.2313 241.237C17.1084 241.237 16.9854 241.206 16.8727 241.141C16.5243 240.943 16.4048 240.498 16.6029 240.149C17.8154 238.021 19.1372 235.921 20.5238 233.902C20.7527 233.57 21.2035 233.488 21.5348 233.717C21.8661 233.947 21.9481 234.398 21.7192 234.73C20.3531 236.714 19.0552 238.781 17.8632 240.874C17.73 241.111 17.4841 241.241 17.2313 241.241V241.237ZM157.764 227.446C157.562 227.446 157.358 227.361 157.214 227.197C155.636 225.38 153.963 223.604 152.238 221.925C151.951 221.644 151.944 221.182 152.224 220.895C152.504 220.607 152.965 220.601 153.252 220.881C155.008 222.588 156.709 224.395 158.314 226.242C158.577 226.547 158.546 227.005 158.242 227.268C158.106 227.388 157.935 227.446 157.767 227.446H157.764ZM27.406 226.967C27.2352 226.967 27.0644 226.909 26.9278 226.786C26.6273 226.519 26.5965 226.061 26.8629 225.76C28.4785 223.919 30.193 222.123 31.9554 220.426C32.2457 220.149 32.7034 220.156 32.9834 220.447C33.2601 220.737 33.2533 221.196 32.963 221.476C31.2279 223.146 29.5441 224.911 27.9559 226.721C27.8124 226.885 27.6109 226.967 27.4094 226.967H27.406ZM145.007 215.435C144.854 215.435 144.696 215.387 144.567 215.284C142.657 213.82 140.659 212.417 138.634 211.117C138.296 210.902 138.197 210.45 138.415 210.111C138.631 209.773 139.081 209.673 139.42 209.892C141.479 211.213 143.508 212.64 145.451 214.128C145.769 214.371 145.83 214.829 145.588 215.147C145.444 215.335 145.229 215.431 145.011 215.431L145.007 215.435ZM40.2311 215.034C40.0125 215.034 39.7939 214.935 39.6504 214.747C39.4079 214.425 39.4728 213.97 39.7905 213.727C41.7441 212.25 43.7797 210.837 45.8495 209.533C46.1876 209.318 46.6385 209.42 46.8536 209.762C47.0688 210.101 46.9664 210.553 46.6248 210.768C44.5892 212.051 42.5843 213.44 40.6682 214.894C40.5385 214.993 40.3848 215.041 40.2311 215.041V215.034ZM130.106 206.225C130 206.225 129.89 206.201 129.788 206.153C127.623 205.099 125.389 204.128 123.145 203.262C122.769 203.118 122.585 202.698 122.728 202.321C122.872 201.945 123.292 201.76 123.667 201.904C125.949 202.783 128.224 203.775 130.423 204.846C130.785 205.021 130.936 205.458 130.758 205.818C130.632 206.078 130.372 206.228 130.102 206.228L130.106 206.225ZM55.1976 205.937C54.9244 205.937 54.6648 205.783 54.5419 205.52C54.3711 205.157 54.5248 204.723 54.8868 204.548C57.0966 203.498 59.3782 202.53 61.6699 201.671C62.0456 201.531 62.4657 201.723 62.6058 202.099C62.7458 202.475 62.5545 202.896 62.1788 203.036C59.9246 203.881 57.6807 204.832 55.5084 205.866C55.4094 205.914 55.3001 205.937 55.1976 205.937ZM113.664 200.2C113.605 200.2 113.544 200.193 113.483 200.176C111.15 199.581 108.766 199.081 106.392 198.688C105.996 198.623 105.729 198.247 105.794 197.85C105.859 197.453 106.235 197.186 106.631 197.251C109.042 197.651 111.471 198.161 113.841 198.767C114.23 198.866 114.466 199.263 114.367 199.653C114.285 199.981 113.988 200.2 113.664 200.2ZM71.6909 200.063C71.363 200.063 71.0659 199.841 70.9839 199.509C70.8883 199.119 71.1273 198.726 71.5167 198.63C72.9614 198.274 74.4369 197.952 75.9056 197.668C76.8414 197.487 77.7943 197.32 78.737 197.172C79.1332 197.111 79.5055 197.381 79.5704 197.778C79.6319 198.175 79.362 198.548 78.9658 198.613C78.0402 198.76 77.101 198.924 76.1788 199.102C74.7341 199.379 73.2825 199.697 71.8617 200.046C71.8036 200.06 71.7455 200.067 71.6875 200.067L71.6909 200.063ZM96.3369 197.627C96.3369 197.627 96.3164 197.627 96.3027 197.627C95.0288 197.569 93.7377 197.542 92.4637 197.542C91.3332 197.542 90.189 197.566 89.0585 197.61C88.6623 197.627 88.3208 197.313 88.3037 196.912C88.2866 196.512 88.6009 196.173 89.0005 196.156C90.1515 196.112 91.3161 196.088 92.4637 196.088C93.7582 196.088 95.0732 196.119 96.3676 196.177C96.7672 196.194 97.078 196.536 97.061 196.936C97.0439 197.326 96.7228 197.631 96.3369 197.631V197.627Z" fill="#A9A9A9"/>
<path d="M358.405 304.652C357.985 304.679 357.569 304.703 357.152 304.727C356.752 304.751 356.407 304.443 356.387 304.043C356.363 303.643 356.667 303.301 357.067 303.277C357.067 303.277 357.07 303.277 357.073 303.277C359.451 303.143 361.855 302.948 364.225 302.702C364.625 302.658 364.984 302.952 365.025 303.352C365.066 303.752 364.775 304.112 364.376 304.153C362.398 304.358 360.39 304.529 358.409 304.655L358.405 304.652ZM347.07 304.963C347.052 304.963 347.032 304.963 347.015 304.963C344.61 304.939 342.175 304.857 339.778 304.717C339.378 304.693 339.071 304.351 339.094 303.947C339.118 303.547 339.463 303.239 339.863 303.263C342.24 303.4 344.651 303.482 347.032 303.506C347.432 303.509 347.756 303.838 347.753 304.242C347.749 304.625 347.449 304.936 347.073 304.96L347.07 304.963ZM374.342 302.777C373.977 302.801 373.642 302.545 373.58 302.172C373.512 301.775 373.778 301.399 374.175 301.33C376.528 300.93 378.895 300.465 381.217 299.955C381.61 299.869 381.996 300.116 382.085 300.509C382.17 300.902 381.924 301.289 381.532 301.375C379.189 301.891 376.798 302.356 374.424 302.764C374.4 302.767 374.373 302.77 374.349 302.774L374.342 302.777ZM329.815 303.797C329.77 303.797 329.722 303.797 329.678 303.793C327.291 303.492 324.879 303.133 322.516 302.719C322.12 302.651 321.857 302.274 321.925 301.878C321.993 301.481 322.372 301.217 322.765 301.286C325.108 301.696 327.496 302.052 329.859 302.35C330.259 302.401 330.539 302.764 330.491 303.164C330.446 303.516 330.16 303.776 329.818 303.8L329.815 303.797ZM391.197 298.901C390.866 298.922 390.548 298.713 390.453 298.378C390.34 297.991 390.562 297.587 390.948 297.474C393.236 296.811 395.535 296.079 397.786 295.305C398.165 295.175 398.578 295.377 398.708 295.757C398.838 296.137 398.636 296.551 398.257 296.681C395.982 297.461 393.66 298.2 391.351 298.87C391.3 298.884 391.245 298.894 391.194 298.898L391.197 298.901ZM312.792 300.653C312.72 300.656 312.645 300.653 312.573 300.632C310.237 300.061 307.881 299.421 305.568 298.737C305.182 298.624 304.964 298.217 305.076 297.834C305.189 297.447 305.596 297.228 305.978 297.341C308.266 298.018 310.603 298.651 312.918 299.219C313.308 299.315 313.547 299.708 313.451 300.098C313.373 300.417 313.099 300.632 312.792 300.653ZM407.499 293.126C407.199 293.147 406.905 292.976 406.782 292.681C406.625 292.312 406.799 291.884 407.171 291.727C409.368 290.803 411.571 289.814 413.719 288.788C414.081 288.614 414.515 288.768 414.689 289.13C414.863 289.493 414.709 289.927 414.347 290.102C412.179 291.138 409.955 292.137 407.738 293.071C407.663 293.102 407.581 293.123 407.503 293.126H407.499ZM296.237 295.569C296.138 295.576 296.036 295.562 295.937 295.524C293.682 294.686 291.415 293.783 289.198 292.839C288.829 292.681 288.658 292.254 288.815 291.884C288.973 291.515 289.399 291.34 289.768 291.501C291.964 292.438 294.208 293.331 296.442 294.163C296.818 294.303 297.009 294.72 296.872 295.1C296.77 295.377 296.514 295.555 296.237 295.572V295.569ZM423.023 285.521C422.753 285.538 422.483 285.405 422.343 285.151C422.145 284.802 422.271 284.358 422.62 284.159C424.689 282.993 426.759 281.761 428.774 280.495C429.116 280.283 429.563 280.386 429.775 280.724C429.987 281.066 429.884 281.515 429.546 281.727C427.514 283.003 425.424 284.248 423.333 285.428C423.234 285.483 423.129 285.514 423.026 285.521H423.023ZM280.376 288.624C280.249 288.631 280.12 288.607 280 288.545C277.855 287.454 275.707 286.297 273.613 285.11C273.265 284.912 273.142 284.467 273.34 284.118C273.538 283.769 273.982 283.646 274.33 283.844C276.4 285.025 278.528 286.167 280.656 287.249C281.014 287.43 281.158 287.868 280.977 288.227C280.857 288.466 280.622 288.607 280.376 288.624ZM437.566 276.191C437.323 276.208 437.081 276.102 436.93 275.89C436.695 275.565 436.766 275.11 437.091 274.874C439.017 273.475 440.933 272.014 442.791 270.526C443.106 270.276 443.563 270.324 443.813 270.639C444.062 270.954 444.014 271.412 443.7 271.662C441.825 273.164 439.888 274.642 437.945 276.051C437.829 276.133 437.699 276.181 437.566 276.188V276.191ZM265.416 279.92C265.262 279.931 265.105 279.893 264.969 279.801C262.96 278.473 260.959 277.081 259.015 275.661C258.691 275.425 258.619 274.97 258.858 274.645C259.094 274.32 259.548 274.248 259.873 274.488C261.796 275.894 263.78 277.272 265.768 278.586C266.103 278.809 266.195 279.26 265.973 279.595C265.843 279.794 265.631 279.907 265.413 279.92H265.416ZM450.954 265.25C450.743 265.264 450.524 265.185 450.37 265.014C450.1 264.717 450.121 264.258 450.415 263.985C452.17 262.377 453.909 260.704 455.589 259.01C455.873 258.726 456.334 258.723 456.617 259.01C456.901 259.294 456.904 259.756 456.617 260.04C454.923 261.747 453.168 263.437 451.395 265.062C451.269 265.179 451.111 265.24 450.951 265.25H450.954ZM251.542 269.575C251.361 269.585 251.177 269.53 251.03 269.407C249.186 267.864 247.355 266.253 245.586 264.624C245.292 264.351 245.272 263.892 245.545 263.595C245.818 263.3 246.276 263.28 246.573 263.553C248.325 265.168 250.139 266.763 251.966 268.292C252.273 268.548 252.314 269.01 252.058 269.318C251.925 269.479 251.741 269.565 251.546 269.578L251.542 269.575ZM463.025 252.852C462.84 252.862 462.652 252.804 462.502 252.674C462.198 252.411 462.167 251.949 462.43 251.648C463.995 249.848 465.535 247.987 467.01 246.116C467.26 245.801 467.717 245.746 468.032 245.996C468.346 246.246 468.401 246.704 468.151 247.019C466.662 248.907 465.105 250.786 463.527 252.602C463.393 252.756 463.212 252.838 463.025 252.852ZM238.933 257.727C238.724 257.741 238.512 257.666 238.359 257.501C236.702 255.757 235.066 253.95 233.495 252.134C233.232 251.829 233.266 251.371 233.57 251.107C233.874 250.844 234.332 250.878 234.595 251.183C236.152 252.986 237.771 254.775 239.411 256.502C239.687 256.793 239.677 257.255 239.387 257.532C239.257 257.655 239.096 257.72 238.933 257.731V257.727ZM473.616 239.157C473.459 239.167 473.298 239.126 473.158 239.031C472.827 238.801 472.745 238.35 472.97 238.018C474.32 236.051 475.641 234.025 476.895 232C477.107 231.658 477.554 231.552 477.895 231.764C478.237 231.976 478.343 232.424 478.131 232.766C476.864 234.812 475.532 236.858 474.169 238.842C474.039 239.034 473.831 239.143 473.616 239.157ZM227.75 244.525C227.515 244.539 227.276 244.439 227.122 244.238C225.677 242.318 224.256 240.337 222.904 238.353C222.678 238.021 222.764 237.57 223.095 237.34C223.426 237.115 223.881 237.2 224.106 237.532C225.448 239.499 226.852 241.46 228.283 243.362C228.526 243.683 228.461 244.138 228.14 244.381C228.024 244.47 227.887 244.518 227.75 244.528V244.525ZM482.595 224.343C482.465 224.35 482.332 224.326 482.209 224.258C481.854 224.07 481.721 223.628 481.909 223.273C483.029 221.162 484.112 219 485.129 216.844C485.3 216.482 485.734 216.324 486.096 216.495C486.458 216.666 486.615 217.101 486.444 217.463C485.42 219.639 484.323 221.825 483.193 223.953C483.07 224.186 482.841 224.323 482.599 224.337L482.595 224.343ZM218.149 230.142C217.883 230.159 217.62 230.029 217.477 229.787C216.261 227.717 215.076 225.589 213.962 223.461C213.774 223.105 213.911 222.664 214.266 222.479C214.621 222.291 215.062 222.428 215.246 222.783C216.353 224.891 217.524 226.998 218.73 229.048C218.935 229.393 218.819 229.841 218.474 230.043C218.371 230.101 218.262 230.135 218.153 230.142H218.149ZM489.836 208.599C489.733 208.606 489.628 208.589 489.525 208.551C489.153 208.404 488.968 207.983 489.115 207.607C489.99 205.383 490.82 203.108 491.581 200.847C491.711 200.467 492.121 200.262 492.503 200.392C492.883 200.522 493.087 200.936 492.958 201.316C492.186 203.597 491.349 205.893 490.468 208.141C490.362 208.411 490.109 208.582 489.839 208.603L489.836 208.599ZM210.256 214.747C209.963 214.768 209.672 214.603 209.546 214.316C208.572 212.116 207.64 209.858 206.773 207.614C206.629 207.238 206.814 206.817 207.189 206.673C207.565 206.526 207.985 206.714 208.128 207.09C208.989 209.314 209.911 211.548 210.875 213.728C211.038 214.094 210.875 214.525 210.506 214.689C210.424 214.723 210.342 214.744 210.26 214.75L210.256 214.747ZM495.236 192.123C495.161 192.126 495.082 192.123 495.004 192.099C494.614 191.996 494.385 191.596 494.488 191.209C495.099 188.897 495.666 186.543 496.165 184.206C496.25 183.813 496.636 183.563 497.029 183.649C497.422 183.734 497.671 184.121 497.586 184.514C497.08 186.871 496.51 189.249 495.892 191.586C495.81 191.897 495.54 192.106 495.236 192.126V192.123ZM204.17 198.534C203.842 198.555 203.531 198.353 203.429 198.024C202.715 195.725 202.046 193.378 201.441 191.049C201.339 190.659 201.574 190.262 201.96 190.159C202.35 190.056 202.746 190.292 202.848 190.679C203.449 192.988 204.112 195.311 204.819 197.59C204.938 197.973 204.723 198.38 204.341 198.5C204.283 198.517 204.228 198.527 204.17 198.531V198.534ZM498.709 175.137C498.658 175.137 498.607 175.137 498.556 175.13C498.159 175.072 497.883 174.702 497.941 174.305C498.282 171.948 498.573 169.547 498.802 167.172C498.839 166.772 499.198 166.478 499.594 166.519C499.994 166.556 500.287 166.912 500.246 167.312C500.014 169.711 499.72 172.133 499.375 174.514C499.324 174.86 499.041 175.113 498.702 175.137H498.709ZM199.976 181.729C199.614 181.753 199.286 181.504 199.214 181.137C198.767 178.777 198.367 176.368 198.026 173.98C197.967 173.583 198.244 173.214 198.644 173.156C199.043 173.101 199.409 173.375 199.467 173.775C199.802 176.139 200.198 178.527 200.642 180.867C200.717 181.261 200.457 181.644 200.065 181.719C200.034 181.726 200.003 181.729 199.976 181.729ZM500.209 157.88C500.185 157.88 500.164 157.88 500.14 157.88C499.741 157.87 499.423 157.531 499.437 157.131C499.509 154.747 499.522 152.331 499.478 149.947C499.471 149.543 499.792 149.214 500.192 149.204C500.595 149.197 500.926 149.516 500.933 149.919C500.977 152.328 500.964 154.767 500.892 157.176C500.882 157.555 500.584 157.856 500.212 157.88H500.209ZM197.704 164.555C197.308 164.582 196.963 164.281 196.933 163.884C196.888 163.317 196.851 162.749 196.813 162.184C196.694 160.344 196.608 158.479 196.557 156.638C196.547 156.238 196.857 155.903 197.264 155.889C197.663 155.879 197.998 156.194 198.012 156.597C198.063 158.421 198.148 160.268 198.268 162.088C198.306 162.649 198.343 163.21 198.388 163.772C198.418 164.172 198.118 164.521 197.718 164.552H197.711L197.704 164.555ZM499.734 140.566C499.341 140.59 498.996 140.295 498.962 139.902C498.761 137.531 498.504 135.126 498.19 132.755L498.159 132.526C498.105 132.129 498.385 131.763 498.784 131.708C499.184 131.654 499.55 131.934 499.601 132.334L499.632 132.567C499.946 134.958 500.209 137.384 500.41 139.779C500.444 140.179 500.147 140.532 499.748 140.566C499.744 140.566 499.737 140.566 499.734 140.566ZM197.377 147.237C197.353 147.237 197.325 147.237 197.301 147.237C196.902 147.22 196.588 146.885 196.601 146.481C196.694 144.072 196.844 141.637 197.052 139.238C197.086 138.838 197.438 138.54 197.838 138.575C198.237 138.609 198.534 138.961 198.5 139.361C198.295 141.736 198.145 144.151 198.056 146.532C198.043 146.909 197.745 147.206 197.377 147.23V147.237ZM497.268 123.179C496.909 123.203 496.581 122.957 496.51 122.598C496.042 120.258 495.509 117.9 494.932 115.588C494.833 115.198 495.072 114.801 495.461 114.705C495.851 114.606 496.247 114.845 496.342 115.235C496.926 117.569 497.463 119.95 497.937 122.314C498.016 122.707 497.763 123.09 497.367 123.173C497.336 123.179 497.302 123.183 497.271 123.186L497.268 123.179ZM199.03 129.994C198.978 129.994 198.924 129.994 198.873 129.987C198.476 129.926 198.203 129.553 198.265 129.156C198.633 126.772 199.064 124.363 199.545 121.996C199.624 121.602 200.01 121.349 200.403 121.428C200.795 121.506 201.048 121.893 200.97 122.286C200.491 124.63 200.065 127.014 199.703 129.379C199.648 129.721 199.364 129.974 199.033 129.994H199.03ZM492.903 106.422C492.579 106.443 492.268 106.245 492.165 105.92C491.434 103.648 490.639 101.366 489.798 99.1353C489.658 98.759 489.846 98.3382 490.222 98.1979C490.598 98.0577 491.018 98.2458 491.158 98.6222C492.005 100.877 492.807 103.179 493.549 105.471C493.672 105.855 493.463 106.265 493.081 106.388C493.023 106.409 492.961 106.419 492.903 106.422ZM202.654 113.025C202.575 113.029 202.493 113.025 202.414 113.001C202.028 112.895 201.8 112.495 201.906 112.105C202.544 109.779 203.248 107.439 203.996 105.146C204.122 104.763 204.532 104.554 204.911 104.681C205.294 104.808 205.502 105.218 205.376 105.598C204.634 107.87 203.938 110.189 203.306 112.492C203.22 112.8 202.954 113.005 202.654 113.025ZM486.656 90.2711C486.362 90.2916 486.076 90.1308 485.949 89.8469C484.962 87.6744 483.91 85.4985 482.821 83.3808C482.636 83.025 482.776 82.5837 483.135 82.399C483.493 82.2142 483.931 82.3545 484.115 82.7137C485.215 84.8554 486.277 87.0518 487.274 89.2447C487.442 89.6108 487.278 90.0419 486.916 90.2095C486.834 90.2471 486.748 90.2677 486.663 90.2745L486.656 90.2711ZM208.193 96.5934C208.087 96.6003 207.978 96.5831 207.876 96.5421C207.503 96.3916 207.322 95.9673 207.473 95.5944C208.371 93.3604 209.338 91.1161 210.345 88.9231C210.512 88.5571 210.943 88.3963 211.308 88.5673C211.674 88.735 211.834 89.166 211.663 89.5321C210.666 91.7011 209.71 93.9249 208.818 96.1384C208.709 96.4053 208.46 96.5763 208.19 96.5934H208.193ZM478.603 74.9545C478.34 74.9716 478.076 74.845 477.933 74.6021C476.707 72.5631 475.416 70.5275 474.091 68.5466C473.869 68.2114 473.957 67.7598 474.289 67.5374C474.623 67.315 475.074 67.404 475.296 67.7358C476.632 69.7338 477.936 71.7899 479.173 73.8494C479.381 74.195 479.268 74.6397 478.927 74.8484C478.824 74.91 478.712 74.9442 478.599 74.9511L478.603 74.9545ZM215.571 80.9108C215.438 80.921 215.304 80.8902 215.178 80.8252C214.826 80.6336 214.693 80.1923 214.888 79.8365C216.035 77.7188 217.248 75.6011 218.498 73.5415C218.706 73.1994 219.154 73.0865 219.495 73.2952C219.84 73.5039 219.949 73.9521 219.741 74.2942C218.505 76.3366 217.302 78.4338 216.168 80.531C216.046 80.7602 215.817 80.8936 215.578 80.9108H215.571ZM468.858 60.6711C468.626 60.6848 468.387 60.589 468.237 60.3906C466.785 58.5021 465.265 56.6273 463.728 54.8106C463.469 54.5027 463.506 54.0443 463.81 53.7843C464.117 53.5243 464.575 53.5619 464.835 53.8664C466.389 55.7001 467.919 57.5955 469.388 59.501C469.633 59.8192 469.575 60.2777 469.254 60.5206C469.135 60.6129 468.998 60.6608 468.858 60.6711ZM224.68 66.1758C224.519 66.186 224.359 66.145 224.215 66.0458C223.887 65.8165 223.805 65.3615 224.038 65.0331C225.418 63.0625 226.862 61.0953 228.334 59.1897C228.58 58.8716 229.038 58.8134 229.356 59.0597C229.673 59.306 229.731 59.7645 229.485 60.0826C228.027 61.9677 226.596 63.9178 225.23 65.8713C225.097 66.0594 224.895 66.1655 224.68 66.1792V66.1758ZM457.543 47.5851C457.338 47.5988 457.129 47.5235 456.972 47.3661C455.316 45.6556 453.594 43.9621 451.856 42.3336C451.562 42.0599 451.549 41.598 451.822 41.3038C452.095 41.0096 452.556 40.9959 452.85 41.2696C454.602 42.9152 456.34 44.6258 458.014 46.3501C458.294 46.6374 458.287 47.0993 458 47.3798C457.871 47.5064 457.707 47.5748 457.543 47.5851ZM235.391 52.5732C235.203 52.5869 235.012 52.5253 234.861 52.3918C234.561 52.125 234.533 51.6666 234.8 51.3655C236.391 49.5625 238.051 47.7733 239.728 46.049C240.008 45.7616 240.47 45.7548 240.756 46.0353C241.043 46.3158 241.05 46.7777 240.77 47.0651C239.11 48.7723 237.467 50.5444 235.889 52.3303C235.756 52.4808 235.575 52.5629 235.391 52.5732ZM444.813 35.8642C444.636 35.8744 444.455 35.8231 444.304 35.6999C442.463 34.1878 440.561 32.6996 438.648 31.2764C438.327 31.0369 438.259 30.5819 438.498 30.2569C438.737 29.9353 439.191 29.8668 439.516 30.1063C441.446 31.5432 443.365 33.0451 445.227 34.571C445.537 34.8241 445.582 35.286 445.329 35.5939C445.196 35.7547 445.008 35.8471 444.813 35.8573V35.8642ZM247.567 40.2809C247.352 40.2946 247.133 40.2125 246.979 40.0414C246.71 39.7438 246.737 39.2819 247.034 39.0116C248.82 37.4037 250.668 35.8163 252.53 34.2938C252.84 34.0407 253.298 34.0852 253.551 34.3965C253.803 34.7078 253.759 35.1662 253.448 35.4194C251.607 36.9247 249.777 38.4985 248.007 40.0927C247.881 40.2056 247.727 40.2672 247.57 40.2775L247.567 40.2809ZM430.834 25.6622C430.684 25.6725 430.53 25.6349 430.393 25.5459C428.392 24.2527 426.332 22.9903 424.273 21.7929C423.924 21.591 423.808 21.1463 424.01 20.7973C424.211 20.4484 424.655 20.332 425.004 20.5339C427.084 21.7416 429.164 23.0177 431.186 24.3245C431.524 24.5435 431.619 24.9917 431.401 25.3304C431.271 25.5322 431.059 25.6485 430.837 25.6622H430.834ZM261.055 29.4597C260.812 29.4768 260.566 29.3674 260.416 29.1552C260.184 28.8268 260.259 28.3718 260.587 28.1392C262.544 26.7467 264.559 25.3817 266.577 24.0816C266.915 23.8627 267.366 23.9619 267.581 24.3006C267.797 24.6393 267.701 25.0909 267.363 25.3064C265.361 26.5928 263.367 27.9441 261.43 29.3229C261.317 29.405 261.188 29.446 261.058 29.4563L261.055 29.4597ZM415.785 17.1093C415.662 17.1161 415.536 17.0956 415.416 17.034C413.282 15.9769 411.089 14.9539 408.903 13.9994C408.534 13.8386 408.367 13.411 408.527 13.0415C408.688 12.672 409.115 12.5044 409.484 12.6652C411.69 13.63 413.9 14.6597 416.059 15.7271C416.417 15.905 416.567 16.3429 416.386 16.7022C416.267 16.9451 416.031 17.0888 415.782 17.1059L415.785 17.1093ZM275.68 20.2568C275.406 20.2739 275.136 20.137 274.996 19.8804C274.802 19.5281 274.932 19.0867 275.283 18.8917C277.391 17.7285 279.553 16.603 281.711 15.5424C282.073 15.3645 282.507 15.515 282.685 15.8742C282.862 16.2369 282.712 16.6714 282.353 16.8493C280.215 17.8996 278.074 19.0149 275.987 20.1644C275.891 20.2191 275.785 20.2465 275.683 20.2533L275.68 20.2568ZM399.856 10.3251C399.76 10.3319 399.661 10.3183 399.562 10.284C397.318 9.47665 395.023 8.71373 392.745 8.01581C392.362 7.89949 392.143 7.49237 392.263 7.10578C392.379 6.72261 392.786 6.50365 393.171 6.62339C395.474 7.32815 397.789 8.09792 400.057 8.91558C400.436 9.05242 400.631 9.46981 400.494 9.84614C400.392 10.1267 400.136 10.308 399.856 10.3251ZM291.278 12.7849C290.974 12.8055 290.68 12.631 290.557 12.3333C290.404 11.9604 290.585 11.5362 290.953 11.3822C293.177 10.4722 295.455 9.59981 297.72 8.79584C298.099 8.66241 298.512 8.86084 298.649 9.23717C298.782 9.61692 298.584 10.0309 298.208 10.1677C295.964 10.9649 293.706 11.827 291.507 12.7302C291.432 12.761 291.357 12.7781 291.278 12.7815V12.7849ZM383.25 5.4123C383.181 5.41572 383.11 5.4123 383.038 5.39519C380.712 4.85122 378.345 4.35515 375.999 3.92409C375.602 3.85224 375.343 3.47249 375.415 3.07563C375.486 2.67878 375.865 2.41877 376.262 2.49061C378.632 2.9251 381.023 3.42459 383.369 3.9754C383.758 4.06778 384.004 4.45779 383.912 4.85122C383.837 5.16939 383.564 5.39177 383.253 5.4123H383.25ZM307.631 7.15367C307.296 7.1742 306.979 6.96209 306.887 6.62339C306.777 6.2368 307.003 5.8331 307.389 5.72704C309.701 5.07702 312.061 4.47147 314.407 3.93093C314.8 3.84198 315.19 4.08488 315.278 4.47832C315.367 4.87175 315.125 5.26177 314.732 5.35072C312.409 5.88442 310.07 6.48312 307.781 7.12973C307.73 7.14341 307.682 7.15367 307.631 7.15709V7.15367ZM366.196 2.44272C366.152 2.44272 366.111 2.44272 366.066 2.44272C363.703 2.16902 361.298 1.95349 358.921 1.79269C358.522 1.76533 358.218 1.41979 358.245 1.01609C358.272 0.61239 358.617 0.311327 359.02 0.338696C361.421 0.499491 363.846 0.718446 366.234 0.995561C366.633 1.04004 366.92 1.40268 366.872 1.80296C366.831 2.15876 366.541 2.42561 366.2 2.44614L366.196 2.44272ZM324.517 3.42802C324.148 3.45196 323.814 3.19195 323.752 2.81905C323.687 2.42219 323.957 2.04928 324.353 1.98428C325.832 1.7448 327.338 1.52242 328.828 1.32742C329.726 1.20767 330.634 1.0982 331.529 0.995561C331.925 0.951086 332.287 1.23846 332.335 1.63532C332.38 2.0356 332.093 2.39482 331.697 2.44272C330.809 2.54535 329.91 2.65483 329.022 2.77115C327.547 2.96616 326.054 3.18511 324.589 3.42117C324.565 3.42459 324.541 3.42802 324.521 3.42802H324.517ZM348.931 1.454C348.931 1.454 348.9 1.454 348.883 1.454C346.506 1.454 344.091 1.51216 341.711 1.62506C341.311 1.64558 340.97 1.33426 340.949 0.93398C340.929 0.537124 341.233 0.198428 341.629 0.17448C341.632 0.17448 341.636 0.17448 341.642 0.17448C344.047 0.0581599 346.482 0 348.883 0C349.286 0 349.611 0.325012 349.611 0.72871C349.611 1.1153 349.31 1.43005 348.931 1.454Z" fill="#A9A9A9"/>
<path d="M372.808 90.5276V341.005H372.153L353.221 322.552L334.289 341.005H332.315L313.383 322.552L294.447 341.005H292.504L273.603 322.586L254.705 341.005H252.768L233.85 322.565L214.929 341.005H212.934L194.012 322.565L175.091 341.005H173.12L154.236 322.599L135.352 341.005H134.102V20.9136H303.31L372.808 90.5276Z" fill="#F2F2F2"/>
<path d="M372.808 90.5276H303.311V20.9136L372.808 90.5276Z" fill="#DEDEDE"/>
<path d="M251.596 414.53C248.307 417.825 242.976 417.825 239.69 414.53L188.571 363.325L182.075 356.818C186.805 353.691 190.859 349.627 193.981 344.892L251.596 402.604C254.886 405.898 254.886 411.236 251.596 414.53Z" fill="#9C9C9C"/>
<path d="M196.57 347.482L209.89 360.828C206.768 365.566 202.714 369.627 197.987 372.754L191.163 365.915L184.667 359.408C189.397 356.281 193.452 352.217 196.573 347.482H196.57Z" fill="#5E5E5E"/>
<path d="M209.846 319.695C209.757 317.536 209.528 315.412 209.177 313.328C207.175 301.491 201.092 291.046 192.424 283.496C183.506 275.723 171.856 271.019 159.109 271.019C131.065 271.019 108.328 293.793 108.328 321.888C108.328 323.831 108.437 325.75 108.649 327.639C109.315 333.558 110.992 339.168 113.509 344.293C117.123 351.659 122.461 358.022 128.999 362.85C130.061 363.637 131.157 364.379 132.281 365.084C140.068 369.945 149.262 372.754 159.109 372.754C170.093 372.754 180.261 369.261 188.568 363.325C193.165 360.041 197.192 356.007 200.474 351.402C203.77 346.774 206.311 341.57 207.916 335.97C209.197 331.498 209.884 326.777 209.884 321.895C209.884 321.159 209.866 320.427 209.836 319.702L209.846 319.695ZM159.109 363.705C149.973 363.705 141.526 360.766 134.651 355.782C127.981 350.944 122.793 344.177 119.903 336.295C118.257 331.803 117.362 326.951 117.362 321.888C117.362 319.982 117.488 318.108 117.738 316.27C119.814 300.762 130.378 287.95 144.594 282.668C149.116 280.988 154.007 280.071 159.113 280.071C160.96 280.071 162.777 280.191 164.56 280.423C173.024 281.525 180.692 285.169 186.778 290.567C195.419 298.227 200.863 309.421 200.863 321.888C200.863 322.524 200.85 323.157 200.819 323.787C200.682 326.856 200.214 329.839 199.453 332.702C198.285 337.092 196.42 341.194 193.988 344.889C190.866 349.627 186.812 353.691 182.082 356.815C180.92 357.581 179.722 358.289 178.482 358.939C175.838 360.328 173.027 361.44 170.087 362.241C166.589 363.192 162.914 363.702 159.116 363.702L159.109 363.705Z" fill="#B8B8B8"/>
<path d="M127.496 326.486C125.344 326.486 123.599 324.738 123.599 322.582C123.599 312.897 127.366 303.79 134.204 296.941C141.041 290.091 150.133 286.318 159.803 286.318C161.954 286.318 163.7 288.066 163.7 290.221C163.7 292.377 161.954 294.125 159.803 294.125C152.213 294.125 145.082 297.084 139.716 302.459C134.351 307.834 131.396 314.977 131.396 322.579C131.396 324.734 129.651 326.482 127.499 326.482L127.496 326.486Z" fill="white"/>
</g>
<defs>
<clipPath id="clip0_136_1214">
<rect width="514" height="417" fill="white"/>
</clipPath>
</defs>
</svg>
