<?xml version="1.0" encoding="utf-8"?>
<!-- Generator: Adobe Illustrator 26.0.2, SVG Export Plug-In . SVG Version: 6.00 Build 0)  -->
<svg version="1.1" id="Layer_1" xmlns="http://www.w3.org/2000/svg" xmlns:xlink="http://www.w3.org/1999/xlink" x="0px" y="0px"
	 viewBox="0 0 22 20.2" style="enable-background:new 0 0 22 20.2;" xml:space="preserve">
<style type="text/css">
	.st0{fill:#E7E9ED;}
</style>
<g id="WifiMedium">
	<path id="Vector" class="st0" d="M4.3,18.3c-0.3,0.2-0.6,0.4-1,0.4c-0.4,0-0.7,0-1-0.2s-0.6-0.4-0.8-0.7c-0.2-0.3-0.3-0.7-0.2-1
		c0-0.4,0.2-0.7,0.4-1c0.2-0.3,0.5-0.5,0.9-0.6c0.3-0.1,0.7-0.1,1.1,0c0.3,0.1,0.7,0.3,0.9,0.6c0.3,0.4,0.5,0.8,0.4,1.3
		C4.9,17.5,4.6,18,4.3,18.3z M20,17.8c-0.2-4.2-1.8-8.3-4.5-11.5C12.8,3,9,0.8,4.8,0C4.5,0,4.2,0,3.9,0.2C3.6,0.4,3.5,0.7,3.4,1
		c-0.1,0.3,0,0.6,0.2,0.9C3.8,2.2,4,2.3,4.4,2.4C8,3.1,11.3,5,13.7,7.8s3.8,6.3,3.9,10c0,0.2,0,0.3,0.1,0.5c0.1,0.1,0.2,0.3,0.3,0.4
		c0.1,0.1,0.3,0.2,0.4,0.2c0.1,0.1,0.3,0.1,0.5,0.1c0.2,0,0.3,0,0.5-0.1c0.1-0.1,0.3-0.2,0.4-0.3c0.1-0.1,0.2-0.3,0.2-0.4
		C20,18.1,20.1,17.9,20,17.8z M12.7,17.6c-0.2-2.4-1.2-4.7-2.7-6.6C8.4,9.1,6.3,7.8,3.9,7.3C3.6,7.2,3.2,7.3,3,7.4
		C2.7,7.6,2.5,7.9,2.4,8.2c-0.1,0.3,0,0.6,0.1,0.9C2.7,9.4,3,9.6,3.3,9.6c1.9,0.4,3.6,1.5,4.8,2.9c1.3,1.5,2,3.3,2.2,5.2
		c0,0.2,0.1,0.3,0.1,0.5c0.1,0.1,0.2,0.3,0.3,0.4s0.3,0.2,0.4,0.2c0.2,0,0.3,0.1,0.5,0.1c0.2,0,0.3-0.1,0.5-0.1
		c0.1-0.1,0.3-0.2,0.4-0.3c0.1-0.1,0.2-0.3,0.2-0.4C12.7,17.9,12.7,17.7,12.7,17.6z"/>
</g>
</svg>
