<?xml version="1.0" encoding="UTF-8"?>
<svg id="Layer_1" xmlns="http://www.w3.org/2000/svg" viewBox="0 0 26.16 26.16">
  <defs>
    <style>
      .cls-1 {
        fill: #343330;
      }
    </style>
  </defs>
  <path class="cls-1" d="M24.08,13.35c0-.18,0-.36,0-.54l1.87-2.33c.1-.12.17-.27.2-.42.03-.15.03-.31-.01-.46-.31-1.15-.76-2.25-1.36-3.28-.08-.13-.19-.25-.32-.33-.13-.09-.28-.14-.43-.16l-2.97-.33c-.12-.13-.25-.26-.38-.38l-.35-2.97c-.02-.15-.07-.3-.16-.43-.09-.13-.2-.24-.33-.32-1.03-.6-2.13-1.05-3.28-1.36-.15-.04-.31-.04-.46-.01-.15.03-.3.1-.42.2l-2.32,1.86h-.54L10.48.22c-.12-.1-.27-.17-.42-.2-.15-.03-.31-.03-.46.01-1.15.31-2.25.76-3.28,1.36-.13.08-.25.19-.33.32-.09.13-.14.28-.16.43l-.33,2.97c-.13.12-.26.25-.38.38l-2.97.34c-.15.02-.3.07-.43.16-.13.09-.24.2-.32.34C.8,7.35.34,8.45.04,9.6c-.04.15-.04.31-.01.46.03.15.1.3.2.42l1.86,2.32v.54L.22,15.68c-.1.12-.17.27-.2.42-.03.15-.03.31.01.46.31,1.15.76,2.25,1.36,3.28.08.13.19.25.32.33.13.09.28.14.43.16l2.96.33c.12.13.25.25.38.38l.35,2.97c.02.15.07.3.16.43.09.13.2.24.34.32,1.03.6,2.13,1.05,3.28,1.36.15.04.31.04.46.01.15-.03.3-.1.42-.2l2.32-1.86c.18,0,.36,0,.54,0l2.33,1.87c.12.1.27.17.42.2.15.03.31.03.46-.01,1.15-.31,2.25-.76,3.28-1.36.13-.08.25-.19.33-.32.09-.13.14-.28.16-.43l.33-2.97c.13-.12.25-.25.38-.38l2.97-.35c.15-.02.3-.07.43-.16.13-.09.24-.2.32-.33.6-1.03,1.05-2.13,1.36-3.28.04-.15.04-.31.01-.46-.03-.15-.1-.3-.2-.42l-1.86-2.32ZM13.08,18.08c-.99,0-1.96-.29-2.78-.84-.82-.55-1.46-1.33-1.84-2.24-.38-.91-.48-1.92-.28-2.89.19-.97.67-1.86,1.37-2.56.7-.7,1.59-1.18,2.56-1.37.97-.19,1.98-.09,2.89.28.91.38,1.69,1.02,2.24,1.84.55.82.84,1.79.84,2.78,0,1.33-.53,2.6-1.46,3.54s-2.21,1.46-3.54,1.46Z"/>
</svg>