<?xml version="1.0" encoding="UTF-8"?>
<svg width="115px" height="54px" viewBox="0 0 115 54" version="1.1" xmlns="http://www.w3.org/2000/svg" xmlns:xlink="http://www.w3.org/1999/xlink">
    <title>Group 3</title>
    <defs>
        <polygon id="path-1" points="0 53 115 53 115 0 0 0"></polygon>
    </defs>
    <g id="🔄-Symbols" stroke="none" stroke-width="1" fill="none" fill-rule="evenodd">
        <g id="Footer/Dark" transform="translate(-229.000000, -327.000000)">
            <g id="Group-3" transform="translate(229.000000, 327.790196)">
                <path d="M39.6546143,52.5124384 C41.3601569,49.4623273 43.0645793,46.411508 44.7716621,43.3622469 C46.4706239,40.3277178 48.172386,37.2948887 49.9507373,34.1223879 C49.1174983,33.9795998 48.3843712,34.0660093 47.6623055,34.0483024 C46.8931941,34.0293207 46.1232426,34.0439111 45.3535712,34.0439111 L43.1148453,34.0439111 L40.8357946,34.0439111 L40.8357946,30.7600697 C41.3283731,30.5431962 53.0560261,30.489509 53.9788758,30.7286223 C53.9788758,31.272435 53.9410713,31.8549196 53.9871367,32.4306047 C54.0731069,33.5044897 53.778512,34.4302037 53.2524695,35.3736247 C50.1596421,40.9201182 47.1134403,46.4932428 44.0735392,52.0697671 C43.810868,52.5515351 43.5189333,52.7451772 42.9800093,52.7263371 C41.9140627,52.6890819 40.8458758,52.715288 39.778529,52.715288 C39.7372241,52.6477187 39.6959192,52.5800077 39.6546143,52.5124384" id="Fill-1" fill="#FFFFFF"></path>
                <path d="M60.4960619,30.6463067 C60.5621497,37.9821836 60.5715308,45.2642316 60.5863726,52.6280145 L57.213372,52.6280145 C56.9998466,52.1461049 56.8623503,32.1220663 57.078816,30.6685465 C58.1603044,30.5203756 59.2581748,30.5745059 60.4960619,30.6463067" id="Fill-3" fill="#FFFFFF"></path>
                <path d="M36.7505573,52.5993719 L33.1958151,52.5993719 C33.2561623,45.2367223 33.043197,37.9430585 33.1095648,30.6017987 L36.5951389,30.6017987 C36.646945,37.9339926 36.6984711,45.2255315 36.7505573,52.5993719" id="Fill-5" fill="#FFFFFF"></path>
                <path d="M97.5354175,38.4936424 C98.954206,38.4936424 100.2502,38.5110659 101.545074,38.4845765 C102.01917,38.4748023 102.321746,38.1613202 102.365991,37.678844 C102.404496,37.2603957 102.417657,36.8317483 102.374532,36.4147166 C102.26672,35.371854 101.451403,34.7723709 100.453364,35.0371237 C100.064678,35.1401067 99.6764118,35.3612299 99.3645948,35.6222997 C98.5019523,36.3445975 98.0169347,37.3310815 97.5354175,38.4936424 M88.3007606,39.3918754 C88.0492907,40.5037239 87.6421224,41.4182473 86.5457921,41.7636017 C85.5984396,42.0620683 84.6494069,42.0650431 83.74924,41.6130226 C82.3121092,40.8912914 81.8702168,38.7707192 82.832131,37.0742613 C83.0147127,37.0999008 83.2266979,37.1296483 83.4938496,37.1670452 C83.3886971,37.6332311 83.2943259,38.0166907 83.2163367,38.4034083 C83.0371154,39.2908756 83.1162248,40.1507202 83.8989177,40.6953829 C84.7507789,41.2882082 85.7125532,41.2401872 86.6333025,40.8070068 C87.0890567,40.5926831 87.2962813,40.1430708 87.378191,39.6664024 C87.4575804,39.2038995 87.5050461,38.7299226 87.5077064,38.2607619 C87.5203079,35.9945685 87.5092466,33.7282334 87.5149873,31.46204 C87.5166675,30.790313 87.5495714,30.7683565 88.2763977,30.7832302 C88.3249835,33.3086519 88.2728973,35.8438478 88.3059412,38.4463297 L96.5978661,38.4463297 L96.5978661,34.4546392 L97.3507356,34.4546392 L97.3507356,36.7320233 C97.7972486,36.1702204 98.1225072,35.7232995 98.4869705,35.3117924 C98.9439848,34.7956023 99.4831889,34.3928777 100.16283,34.2058934 C101.407297,33.8635137 102.52155,34.3938693 103.011328,35.6016181 C103.133562,35.9030595 103.215332,36.2326902 103.251877,36.5566547 C103.477443,38.5517208 102.749357,39.385501 100.771062,39.3893256 C96.9213046,39.39655 93.0714073,39.3917338 89.22165,39.3918754 C88.9451171,39.3918754 88.6685843,39.3918754 88.3007606,39.3918754" id="Fill-7" fill="#FFFFFF"></path>
                <path d="M85.5362722,52.8719866 L84.7034533,52.8719866 C84.1523478,50.7417818 83.606143,48.6311253 83.0190532,46.3619571 C82.3989196,48.6128518 81.821351,50.7099094 81.232441,52.847197 C80.9599686,52.866462 80.7400025,52.8820441 80.4227248,52.9045672 C79.7220816,50.2604388 79.0320796,47.655832 78.3185549,44.9629744 L79.1250507,44.9629744 C79.6776963,47.0798636 80.2264215,49.1824458 80.7752867,51.2848862 C80.8191119,51.2840363 80.8629371,51.2831864 80.9067623,51.2823364 C81.4820907,49.1820208 82.057559,47.0818468 82.6233662,45.0165199 C83.3588736,44.8472424 83.4068993,44.8609829 83.5740791,45.4974379 C84.0350139,47.2525408 84.4809669,49.0116101 84.9343407,50.7686962 C84.9850267,50.9651714 85.0456539,51.1590968 85.147446,51.5136587 C85.8066443,49.2427907 86.4211773,47.1261848 87.049992,44.9597163 L87.8363254,44.9597163 C87.0625935,47.6214099 86.3098641,50.2107179 85.5362722,52.8719866" id="Fill-9" fill="#FFFFFF"></path>
                <path d="M109.847808,38.4741648 C110.11454,37.8977715 110.143103,36.578682 109.938119,35.8881149 C109.812664,35.4655586 109.562034,35.1801242 109.126722,35.1156713 C108.622382,35.0408776 108.108241,35.0860654 107.815327,35.5604674 C107.365033,36.2892813 107.376094,37.0960053 107.695892,37.8653325 C107.985587,38.5621325 108.646325,38.5197777 109.256238,38.5149614 C109.461222,38.5134032 109.666066,38.4873387 109.847808,38.4741648 M110.845146,38.5006543 C111.523807,38.5006543 112.100816,38.508162 112.677684,38.4981045 C113.079812,38.4911634 113.171663,38.2104036 113.173343,37.8694405 C113.177263,37.0906225 113.176283,36.3118044 113.185524,35.533128 C113.188745,35.2556262 113.215628,34.9784078 113.23509,34.6421193 C113.475639,34.6187463 113.668022,34.6001895 113.913051,34.5763915 C113.958276,34.8115385 114.020024,34.9883236 114.021844,35.1659587 C114.031505,36.0626336 114.042286,36.9598751 114.020584,37.8562666 C113.994821,38.9229272 113.560209,39.3579491 112.517365,39.3859968 C111.914313,39.4022871 111.310282,39.3889715 110.950719,39.3889715 C110.220672,40.1472496 109.687069,40.7967369 109.048453,41.3130686 C108.826807,41.4921203 108.344729,41.3415412 107.792924,41.3415412 C108.440501,40.6338338 109.296563,40.3559071 109.61538,39.462207 C109.390934,39.4360009 109.198831,39.4029953 109.005468,39.3926545 C107.441762,39.3086532 106.710035,38.5730399 106.713801,36.9788568 C106.715076,36.427253 106.801186,35.8416521 107.00071,35.3325448 C107.332829,34.4851658 108.082478,34.1402364 109.065395,34.2328786 C109.917116,34.3131969 110.524228,34.8283954 110.729073,35.7049552 C110.813783,36.0674499 110.827644,36.4507677 110.840666,36.825728 C110.858588,37.3409265 110.845146,37.8573999 110.845146,38.5006543" id="Fill-11" fill="#FFFFFF"></path>
                <path d="M95.5954031,50.6200578 C95.7817652,50.6102836 95.9763883,50.6002261 96.1568698,50.5907352 C96.2338789,50.7238907 96.2858251,50.8012343 96.3255898,50.8846689 C96.8723548,52.0300896 97.8181671,52.4619951 99.0167095,52.1113995 C99.619061,51.9351809 99.9444597,51.5544128 100.008587,50.9771695 C100.081116,50.3244242 99.8806121,49.7990266 99.2837212,49.5070761 C98.8878942,49.313434 98.4558028,49.1967104 98.0419137,49.0400402 C97.6284446,48.8836533 97.1953731,48.7622551 96.8096273,48.5524644 C95.5384163,47.861189 95.4366242,46.1347003 96.596662,45.2633817 C97.5209118,44.5692732 99.2120327,44.6626237 100.049752,45.4541907 C100.441099,45.8240514 100.625361,46.2745136 100.637962,46.9118186 C100.258797,47.0983779 100.026649,47.0184846 99.8185847,46.6010279 C99.3506491,45.661715 98.2580994,45.3264181 97.312147,45.7666812 C96.8548527,45.9795883 96.6633099,46.3425079 96.6501484,46.8349 C96.6372668,47.3104351 96.8276894,47.6669803 97.2548802,47.8559478 C97.6161231,48.0157344 97.9993486,48.1235337 98.3701127,48.2619304 C98.827967,48.4329077 99.3005232,48.5756958 99.7351348,48.7945524 C100.548491,49.2042181 100.917295,49.9177333 100.868989,50.8195077 C100.819144,51.7483382 100.37039,52.4379138 99.4832449,52.7557871 C98.4171582,53.1378301 97.3733343,53.1024164 96.4138003,52.4288479 C95.8318912,52.0201738 95.5393964,51.368845 95.5954031,50.6200578" id="Fill-13" fill="#FFFFFF"></path>
                <mask id="mask-2" fill="white">
                    <use xlink:href="#path-1"></use>
                </mask>
                <g id="Clip-16"></g>
                <polygon id="Fill-15" fill="#FFFFFF" mask="url(#mask-2)" points="66.0357639 39.1951736 81.056048 39.1951736 81.056048 38.2926909 66.0357639 38.2926909"></polygon>
                <path d="M92.3671236,49.3638206 C91.9598152,48.2436144 91.5852707,47.2132175 91.2107262,46.1829621 C91.1614404,46.1901865 91.1120145,46.1972693 91.0625887,46.2044937 C90.7153474,47.2404152 90.3682462,48.276195 90.0036429,49.3638206 L92.3671236,49.3638206 Z M94.3928842,52.8278469 L93.6338541,52.8278469 C93.3175565,51.9940668 93.0033592,51.1658112 92.6755802,50.301292 L89.6827247,50.301292 C89.4165531,51.0281228 89.1449209,51.749004 88.8896705,52.4759764 C88.741533,52.8982494 88.4959438,53.0302716 88.0406097,52.7985244 C88.0788342,52.6221642 88.0989966,52.4395711 88.1580836,52.2708603 C88.9493176,50.0065084 89.7467123,47.7442813 90.5408867,45.480921 C90.6437989,45.1875539 90.7273888,44.9012695 91.1276964,44.8889456 C91.5182028,44.8770466 91.6388971,45.118993 91.7513305,45.4273755 C92.572668,47.6813866 93.4035267,49.9317146 94.2271045,52.1848758 C94.289832,52.3565614 94.3199356,52.5404293 94.3928842,52.8278469 L94.3928842,52.8278469 Z" id="Fill-17" fill="#FFFFFF" mask="url(#mask-2)"></path>
                <path d="M76.0351217,49.37096 C75.6310337,48.2578366 75.2534088,47.218232 74.875924,46.1784858 C74.8273382,46.1777776 74.7787524,46.1769276 74.7303067,46.1762194 C74.3825053,47.2144074 74.0348441,48.2525954 73.6602996,49.37096 L76.0351217,49.37096 Z M74.379285,45.0004846 C74.9191891,44.8018845 75.2262456,44.8983515 75.4030866,45.3872022 C76.2676893,47.7779101 77.1462936,50.1633769 78.0169171,52.55196 C78.0395997,52.6144298 78.0271383,52.6900735 78.0309187,52.7570762 C77.4305274,52.9830156 77.3367163,52.9566678 77.1367725,52.4341033 C76.8689207,51.7336203 76.619271,51.0260546 76.3529594,50.297099 L73.3449821,50.297099 C73.0279845,51.1497192 72.7184077,51.9820828 72.3988897,52.8415024 L71.6377593,52.8415024 C72.5431069,50.1353292 73.4838786,47.545313 74.379285,45.0004846 L74.379285,45.0004846 Z" id="Fill-18" fill="#FFFFFF" mask="url(#mask-2)"></path>
                <path d="M102.576898,44.9590364 C102.728256,44.9455792 102.921479,44.9284389 103.192832,44.9043576 C103.221535,45.21359 103.26298,45.4620526 103.26438,45.7106567 C103.271381,46.9599104 103.26648,48.209164 103.268861,49.4585593 C103.269421,49.7176459 103.2655,49.978574 103.293643,50.2353942 C103.471885,51.8570583 104.895014,52.6605243 106.364768,51.9770399 C106.903132,51.7267359 107.170564,51.2690492 107.261155,50.7099378 C107.336344,50.2468682 107.378769,49.7740245 107.38563,49.3047222 C107.402852,48.1262959 107.38941,46.9475864 107.393891,45.7690185 C107.394871,45.5170146 107.420214,45.2650107 107.437016,44.9662608 L108.022005,44.9662608 C108.080952,45.039638 108.108115,45.0577698 108.107975,45.0756183 C108.091873,46.9790338 108.182604,48.8917985 108.020885,50.782465 C107.89361,52.2705486 106.853986,52.9830723 105.327105,52.979544 C103.839848,52.9761312 102.715515,52.2136034 102.58866,50.7932308 C102.42162,48.924804 102.500589,47.0338542 102.477341,45.1525368 C102.476786,45.1115986 102.518091,45.0702354 102.576898,44.9590364" id="Fill-19" fill="#FFFFFF" mask="url(#mask-2)"></path>
                <path d="M68.6431816,45.7336048 L66.2249544,45.7336048 C66.18813,45.4382545 66.1641872,45.2454624 66.1465451,45.1038076 C66.4062759,44.8332469 71.0409664,44.7985415 71.8279999,45.0101738 C71.8512427,45.0819927 71.8995484,45.1679772 71.9022087,45.2553782 C71.9054291,45.3679938 71.8719651,45.4817426 71.8357008,45.7140564 L69.412433,45.7140564 L69.412433,52.8520416 L68.6431816,52.8520416 L68.6431816,45.7336048 Z" id="Fill-20" fill="#FFFFFF" mask="url(#mask-2)"></path>
                <path d="M44.3438553,24.9054911 C44.3133317,24.425848 44.2930292,24.1085412 44.2647459,23.6641702 C46.7422002,23.3247653 49.1698085,22.9921598 51.7008892,22.6453889 C51.7853192,23.0461303 51.8586879,23.3938928 51.9593599,23.8712695 C49.4030762,24.2184654 46.9320627,24.5540456 44.3438553,24.9054911" id="Fill-21" fill="#FFFFFF" mask="url(#mask-2)"></path>
                <path d="M51.143637,19.7623596 C51.2506097,20.2262791 51.3267787,20.5564764 51.4268906,20.9903651 C48.9997023,21.5925396 46.6412622,22.1777156 44.1838303,22.7875395 C44.0771376,22.3836816 43.9865468,22.0407354 43.8676727,21.5909814 C46.3106829,20.9770495 48.6664627,20.3849325 51.143637,19.7623596" id="Fill-22" fill="#FFFFFF" mask="url(#mask-2)"></path>
                <path d="M42.7150278,17.8439854 C44.9267305,16.7685422 47.094188,15.7146305 49.3327739,14.6261551 C49.5262769,15.0276048 49.6717541,15.3294711 49.8700177,15.7405534 C47.6322719,16.8312953 45.4670547,17.8866235 43.2245483,18.9796319 C43.0255847,18.5359691 42.893409,18.2413271 42.7150278,17.8439854 Z" id="Fill-23" fill="#FFFFFF" mask="url(#mask-2)"></path>
                <path d="M43.3688075,19.6421797 C45.7161863,18.8083996 47.9808153,18.003942 50.3178329,17.1738449 C50.4698909,17.5859187 50.5858247,17.900109 50.7447436,18.3307396 C48.4061858,19.1672112 46.1415568,19.9771933 43.7873172,20.8191894 C43.6432401,20.413915 43.5242259,20.0793264 43.3688075,19.6421797" id="Fill-24" fill="#FFFFFF" mask="url(#mask-2)"></path>
                <path d="M42.4851065,17.0581696 C42.2483384,16.6840593 42.0668768,16.3972083 41.8225478,16.0113407 C43.9008147,14.7363059 45.9192944,13.4979596 47.9996615,12.2215083 C48.2344694,12.5925022 48.415931,12.8792115 48.6615201,13.267204 C46.580733,14.5443636 44.5629533,15.7828515 42.4851065,17.0581696" id="Fill-25" fill="#FFFFFF" mask="url(#mask-2)"></path>
                <path d="M41.5731642,15.3278563 C41.3001317,15.0040334 41.0691043,14.7299314 40.7705888,14.3759361 C42.6707545,12.8858693 44.5004919,11.4510478 46.3886162,9.97033027 C46.6633288,10.2685136 46.8908558,10.5154179 47.2030929,10.8542562 C45.3527731,12.4196833 43.4677292,13.811725 41.5731642,15.3278563" id="Fill-26" fill="#FFFFFF" mask="url(#mask-2)"></path>
                <path d="M111.235163,52.0951092 L114.941123,52.0951092 C114.968426,52.3714777 114.987328,52.5627116 114.99993,52.6904843 C114.74538,52.9882427 111.591085,53.044338 110.5376,52.8244897 L110.5376,44.9681731 C110.733203,44.9531577 110.922086,44.9387089 111.235163,44.9147692 L111.235163,52.0951092 Z" id="Fill-27" fill="#FFFFFF" mask="url(#mask-2)"></path>
                <path d="M40.4561955,13.7116742 C40.1412981,13.3770856 39.9104107,13.1315978 39.6144155,12.8171242 C41.3041362,11.1732203 42.9398105,9.58172867 44.6326116,7.93485002 C44.9329473,8.26164763 45.1606143,8.50940187 45.4623501,8.83761603 C43.785651,10.4701875 42.1663586,12.0466638 40.4561955,13.7116742" id="Fill-28" fill="#FFFFFF" mask="url(#mask-2)"></path>
                <path d="M42.6772793,6.1077723 C43.0238205,6.41742969 43.2612887,6.62962857 43.5941082,6.92696199 C42.1237936,8.68121497 40.687363,10.3949547 39.1849845,12.1873128 C38.860706,11.9178854 38.5886537,11.691946 38.2373519,11.3999955 C39.7331496,9.6171282 41.1723806,7.90168863 42.6772793,6.1077723" id="Fill-29" fill="#FFFFFF" mask="url(#mask-2)"></path>
                <path d="M37.5716989,10.7192167 C37.1993946,10.4509225 36.9230018,10.2517559 36.5722601,9.9990437 C37.8525722,8.11390168 39.0978801,6.28032201 40.3914938,4.37534832 C40.7399952,4.61531155 41.03305,4.81702798 41.411655,5.07781445 C40.1278425,6.9638064 38.8811344,8.7954029 37.5716989,10.7192167" id="Fill-30" fill="#FFFFFF" mask="url(#mask-2)"></path>
                <path d="M38.0349299,2.91776298 C38.406114,3.11777955 38.7035093,3.27813278 39.1109577,3.49783936 C38.0500517,5.48143146 37.0186892,7.40991984 35.947702,9.41235203 C35.5647565,9.20709423 35.2512592,9.03894999 34.8594927,8.82901758 C35.9325802,6.83154332 36.9685632,4.90277162 38.0349299,2.91776298" id="Fill-31" fill="#FFFFFF" mask="url(#mask-2)"></path>
                <path d="M34.1950158,8.2747082 C33.9154026,8.18801547 33.7360413,8.14622731 33.5681613,8.07610818 C33.4218439,8.01491331 33.2885481,7.92170445 33.0638214,7.79407348 C33.8920198,5.80084886 34.7134974,3.82405619 35.5460363,1.82034911 C35.7832244,1.89485953 35.9406031,1.92928165 36.0849603,1.99359293 C36.2517201,2.06796169 36.4069985,2.1685366 36.6668694,2.3133078 C35.8484722,4.28698406 35.0369358,6.24408671 34.1950158,8.2747082" id="Fill-32" fill="#FFFFFF" mask="url(#mask-2)"></path>
                <path d="M32.9490218,0.915033316 C33.3811131,1.05130523 33.7020312,1.15244675 34.1146602,1.28262751 C33.5117486,3.34087168 32.9275992,5.33522955 32.3179668,7.41613849 C31.9128987,7.30153976 31.5744785,7.20578112 31.1388868,7.08254145 C31.7478191,5.00814863 32.3326686,3.014924 32.9490218,0.915033316" id="Fill-33" fill="#FFFFFF" mask="url(#mask-2)"></path>
                <path d="M30.3294786,0.377340044 C30.7444879,0.44930068 31.0750672,0.506529217 31.5316614,0.585572593 C31.1393348,2.65359095 30.7577895,4.66480573 30.3598622,6.76228829 C29.9253906,6.67276246 29.5785694,6.60122678 29.1568393,6.51425074 C29.5504261,4.45444836 29.9277709,2.48006382 30.3294786,0.377340044" id="Fill-34" fill="#FFFFFF" mask="url(#mask-2)"></path>
                <path d="M28.8376994,0.1865452 C28.6579181,2.24932233 28.4858376,4.22512341 28.3078765,6.26679398 C27.8729848,6.24058784 27.5396052,6.2203312 27.0951924,6.19341679 C27.2716134,4.11661584 27.4411735,2.1215497 27.6177345,0.0438988211 C28.0592069,0.0956028213 28.4075683,0.136257748 28.8376994,0.1865452" id="Fill-35" fill="#FFFFFF" mask="url(#mask-2)"></path>
                <path d="M25.0245285,-5.66619201e-05 L26.0836143,-5.66619201e-05 C26.1439614,1.97843586 26.2031885,3.92193966 26.2657759,5.97239282 C25.845586,6.00299025 25.4952644,6.02862977 25.0245285,6.06291023 L25.0245285,-5.66619201e-05 Z" id="Fill-36" fill="#FFFFFF" mask="url(#mask-2)"></path>
                <path d="M22.9090732,6.15056622 C22.654803,4.14076798 22.419295,2.27857404 22.1716056,0.320904773 C22.5458701,0.25404371 22.8742091,0.195540279 23.3163816,0.116638558 C23.6962467,2.04116061 23.8400438,3.94953401 24.1133562,5.9463 C23.7109484,6.01457761 23.3651074,6.0732227 22.9090732,6.15056622" id="Fill-37" fill="#FFFFFF" mask="url(#mask-2)"></path>
                <path d="M19.4824322,0.863966762 C19.8914208,0.743418531 20.2138791,0.648226509 20.6483507,0.520170574 C21.1277676,2.38973056 21.5909426,4.19653748 22.0728799,6.07657992 C21.686294,6.20066952 21.366776,6.30322759 20.9398653,6.44020778 C20.3713978,4.60591983 19.9968533,2.77758139 19.4824322,0.863966762" id="Fill-38" fill="#FFFFFF" mask="url(#mask-2)"></path>
                <path d="M16.8733483,1.6606475 C17.3167809,1.49335318 17.6143163,1.38102093 18.0171441,1.22902533 C18.6409182,3.01075935 19.2478903,4.74447239 19.8859461,6.56700299 C19.4981,6.7239565 19.1725614,6.8555538 18.7497111,7.0266728 C18.1133355,5.20655033 17.5074836,3.47411219 16.8733483,1.6606475" id="Fill-39" fill="#FFFFFF" mask="url(#mask-2)"></path>
                <path d="M14.4093636,2.73800304 C14.7981898,2.54251942 15.1006257,2.39052383 15.5041536,2.18767416 C16.2907671,3.85962571 17.0527376,5.47902333 17.8513924,7.17633109 C17.468587,7.36685679 17.1504692,7.5253685 16.7540821,7.72269363 C15.9657885,6.0469174 15.2113788,4.44296016 14.4093636,2.73800304" id="Fill-40" fill="#FFFFFF" mask="url(#mask-2)"></path>
                <path d="M12.0497053,4.06610174 C12.4385315,3.83166305 12.7273858,3.657286 13.0988499,3.43332977 C14.0448023,4.97240912 14.9575707,6.45723468 15.9136043,8.01260434 C15.5568419,8.24392662 15.2572063,8.43799369 14.8791614,8.68305648 C13.9302687,7.13476957 13.0193205,5.64824415 12.0497053,4.06610174" id="Fill-41" fill="#FFFFFF" mask="url(#mask-2)"></path>
                <path d="M13.0190404,9.88615899 C11.9152893,8.45147922 10.8804264,7.10632529 9.80789901,5.71230045 C10.1464592,5.43692353 10.4106706,5.2220332 10.7619723,4.93603217 C11.8419206,6.33841464 12.8884049,7.69745075 13.975354,9.10889913 C13.6456149,9.37705166 13.3823836,9.59080874 13.0190404,9.88615899" id="Fill-42" fill="#FFFFFF" mask="url(#mask-2)"></path>
                <path d="M12.2671931,10.3327257 C11.9444548,10.6166019 11.7062865,10.826251 11.3726269,11.1197598 C10.1901864,9.89147104 9.04947092,8.70652868 7.86325002,7.47441527 C8.18290799,7.17679855 8.41351538,6.96204988 8.72379223,6.67321575 C9.89573144,7.88351432 11.0244055,9.04919163 12.2671931,10.3327257" id="Fill-43" fill="#FFFFFF" mask="url(#mask-2)"></path>
                <path d="M105.297085,39.0616781 L104.642928,39.0616781 C104.611004,38.8455129 104.560878,38.664903 104.561157,38.4842932 C104.563958,36.1717786 104.572919,33.8594057 104.583981,31.5468912 C104.584821,31.3594819 104.569419,31.1528076 104.641108,30.9911794 C104.694174,30.8717645 104.878716,30.7405921 105.00053,30.7445585 C105.118004,30.7482415 105.267262,30.8981122 105.33377,31.0217769 C105.394397,31.1343924 105.370314,31.2977204 105.370454,31.4388086 C105.371994,33.7749795 105.373114,36.111292 105.368774,38.4476046 C105.368494,38.6303392 105.327329,38.8129323 105.297085,39.0616781" id="Fill-44" fill="#FFFFFF" mask="url(#mask-2)"></path>
                <path d="M10.4930004,11.8490553 C10.1848238,12.1942681 9.98768036,12.4151079 9.71296773,12.7226404 C8.47004009,11.6422393 7.27037759,10.5993767 6.02226934,9.5145843 C6.27919986,9.19061978 6.47648329,8.9417323 6.76225724,8.58136251 C8.00882531,9.67323767 9.21828897,10.7325322 10.4930004,11.8490553" id="Fill-45" fill="#FFFFFF" mask="url(#mask-2)"></path>
                <path d="M8.34830963,14.4229371 C6.9597647,13.4914152 5.69079397,12.6400699 4.3659566,11.7513277 C4.59152339,11.4014403 4.77452513,11.1172808 5.00905299,10.753228 C6.33501049,11.644095 7.60356117,12.4964319 8.95178132,13.4023143 C8.7487572,13.7455439 8.58059723,14.0301284 8.34830963,14.4229371" id="Fill-46" fill="#FFFFFF" mask="url(#mask-2)"></path>
                <path d="M7.64195373,15.32287 C7.43346897,15.6988219 7.27973071,15.9758986 7.06718546,16.3589332 C5.68816165,15.6037715 4.35758361,14.8752409 2.95839741,14.1090301 C3.15624091,13.7424275 3.31473973,13.4487771 3.5223844,13.063901 C4.90672883,13.8228874 6.22176504,14.5441936 7.64195373,15.32287" id="Fill-47" fill="#FFFFFF" mask="url(#mask-2)"></path>
                <path d="M6.40984938,17.369966 C6.29181536,17.6694242 6.18302244,17.9456511 6.02466363,18.3476674 C4.60853541,17.7702824 3.24085296,17.2236366 1.83998656,16.5829319 C1.96040086,16.2423938 2.05939262,15.9622006 2.15166358,15.7011308 C2.685547,15.6181211 5.6523594,16.7750158 6.40984938,17.369966" id="Fill-48" fill="#FFFFFF" mask="url(#mask-2)"></path>
                <path d="M5.53809183,19.3368711 C5.43083909,19.7184892 5.34500889,20.0234719 5.22403452,20.4538192 C3.7993653,20.0264467 2.43588334,19.6173476 1.00533342,19.1882753 C1.12182725,18.798158 1.21255803,18.4944501 1.34249346,18.0591449 C2.76394231,18.4570532 4.1209835,18.8789012 5.53809183,19.3368711" id="Fill-49" fill="#FFFFFF" mask="url(#mask-2)"></path>
                <path d="M4.58302438,22.7003509 C3.1376327,22.421291 1.80173401,22.1633376 0.399187417,21.8924936 C0.456594235,21.493877 0.501399558,21.1829448 0.566787324,20.7295078 C2.00909865,21.0033265 3.3793014,21.2634047 4.82259284,21.5373651 C4.73452238,21.9650209 4.67109484,22.2729784 4.58302438,22.7003509" id="Fill-50" fill="#FFFFFF" mask="url(#mask-2)"></path>
                <path d="M0.0426770693,24.6859404 C0.0789413769,24.2268372 0.103444287,23.9157632 0.136768246,23.492782 C1.54169513,23.580183 2.86989289,23.6627678 4.24513625,23.7483273 L4.24513625,24.8988475 C2.85407101,24.9403524 1.51523198,24.7559178 0.0426770693,24.6859404" id="Fill-51" fill="#FFFFFF" mask="url(#mask-2)"></path>
                <path d="M4.06549491,28.4589725 C4.12192161,28.9081599 4.16182635,29.2250416 4.21419257,29.64264 C2.87703374,29.8202751 1.60288239,29.9895526 0.249061584,30.1694541 C0.214617493,29.7519975 0.188714416,29.4386571 0.152170075,28.9974024 C1.4639859,28.8169342 2.7141944,28.6448236 4.06549491,28.4589725" id="Fill-52" fill="#FFFFFF" mask="url(#mask-2)"></path>
                <path d="M4.10021903,26.2582094 L4.10021903,27.3102796 L0.0859422084,27.3102796 C0.0645196638,27.0492098 0.0373564373,26.7166043 -2.80033273e-05,26.2582094 L4.10021903,26.2582094 Z" id="Fill-53" fill="#FFFFFF" mask="url(#mask-2)"></path>
                <path d="M0.775902164,32.847608 C0.693012318,32.4083365 0.634485366,32.0981125 0.558316318,31.6943964 C1.77688106,31.3845973 2.93327842,31.0906636 4.20084899,30.768399 C4.29283991,31.1672989 4.37110921,31.5064204 4.46842077,31.9278435 C3.20687092,32.2420338 2.04655309,32.5311512 0.775902164,32.847608" id="Fill-54" fill="#FFFFFF" mask="url(#mask-2)"></path>
                <path d="M1.6096312,35.453178 C1.47199485,35.0415292 1.37216299,34.7427792 1.22976607,34.3171066 C2.39708473,33.9054577 3.50083584,33.5161903 4.68467646,33.0987337 C4.82609326,33.4812016 4.94188701,33.794542 5.09618534,34.2115737 C3.92438615,34.6288888 2.82035501,35.0219808 1.6096312,35.453178" id="Fill-55" fill="#FFFFFF" mask="url(#mask-2)"></path>
                <path d="M5.38345746,35.3416957 C5.5588983,35.7046153 5.69625462,35.9890581 5.88443697,36.3783255 C4.82941165,36.9993401 3.74400272,37.4255794 2.63409088,37.9383697 C2.46355063,37.5673758 2.33137493,37.2795333 2.14641296,36.8772337 C3.24064293,36.3582105 4.27774612,35.8662434 5.38345746,35.3416957" id="Fill-56" fill="#FFFFFF" mask="url(#mask-2)"></path>
                <path d="M4.02869854,40.3921849 C3.80579206,40.029407 3.63889224,39.7575714 3.39890373,39.3667459 C4.37902015,38.7674044 5.3172716,38.1935609 6.33211214,37.5729712 C6.55795897,37.9031685 6.74432111,38.1757123 7.00055154,38.5502476 C5.99187173,39.1753702 5.05530048,39.7558716 4.02869854,40.3921849" id="Fill-57" fill="#FFFFFF" mask="url(#mask-2)"></path>
                <path d="M8.92410003,41.5871848 C9.23213662,41.9291395 9.45910358,42.1811433 9.75551879,42.5102074 C8.93404121,43.2857674 8.1611494,44.0155729 7.3007472,44.8278215 C7.00209173,44.5527279 6.75538242,44.3255136 6.40674101,44.0043822 C7.31740918,43.1300888 8.09646172,42.3820098 8.92410003,41.5871848" id="Fill-58" fill="#FFFFFF" mask="url(#mask-2)"></path>
                <path d="M7.4960424,39.6383973 C7.74793232,39.9739775 7.9506764,40.2439715 8.2091471,40.5883343 C7.33348309,41.2633194 6.50962523,41.8983579 5.62009957,42.5839671 C5.35476805,42.2670853 5.14138271,42.0122483 4.86190951,41.678368 C5.7659969,40.9781683 6.60385642,40.3293894 7.4960424,39.6383973" id="Fill-59" fill="#FFFFFF" mask="url(#mask-2)"></path>
                <path d="M10.4386879,43.3203595 C10.7801885,43.6113185 11.0225573,43.8177095 11.3122517,44.0644722 C10.7646467,44.9993938 10.0296994,45.6995935 9.3178548,46.5221829 C9.00211729,46.266071 8.74196639,46.0550054 8.38912448,45.7688627 C9.08080664,44.9424486 9.72978373,44.1671719 10.4386879,43.3203595" id="Fill-60" fill="#FFFFFF" mask="url(#mask-2)"></path>
                <path d="M11.5395967,48.2766767 C11.1555311,48.0083825 10.8952402,47.8266394 10.5352574,47.5750605 C11.0972842,46.7211654 11.6290673,45.9131664 12.2125166,45.0266907 C12.5740396,45.2573047 12.871995,45.4474054 13.2573207,45.6931765 C12.6734514,46.5712946 12.1369077,47.378302 11.5395967,48.2766767" id="Fill-61" fill="#FFFFFF" mask="url(#mask-2)"></path>
                <path d="M13.8806048,49.6477109 C13.5052202,49.4614349 13.2244868,49.3220466 12.8904072,49.1561688 C13.1354363,48.1563693 13.7746122,47.423164 14.160078,46.4784682 C14.5367227,46.6643193 14.8369184,46.8126319 15.2541679,47.0187396 C14.7841321,47.9183892 14.3481203,48.7530193 13.8806048,49.6477109" id="Fill-62" fill="#FFFFFF" mask="url(#mask-2)"></path>
                <path d="M17.4733615,48.2081299 C17.0811749,49.1519758 16.7441549,49.9630912 16.3792716,50.8413509 C15.9739234,50.673065 15.6654668,50.5448674 15.2648792,50.3785647 C15.6356432,49.4954887 15.9753236,48.6863565 16.349308,47.7956312 C16.7328136,47.936436 17.0418303,48.0497599 17.4733615,48.2081299" id="Fill-63" fill="#FFFFFF" mask="url(#mask-2)"></path>
                <path d="M18.9356112,51.7516246 C18.487278,51.5831971 18.176021,51.4663319 17.7951758,51.3232605 C18.0651278,50.4574664 18.3119771,49.6656161 18.5840295,48.7927393 C18.9871373,48.9008219 19.3049751,48.9862397 19.7400068,49.1029633 C19.4683745,49.9973716 19.2218052,50.8093369 18.9356112,51.7516246" id="Fill-64" fill="#FFFFFF" mask="url(#mask-2)"></path>
                <polygon id="Fill-65" fill="#FFFFFF" mask="url(#mask-2)" points="26.1598673 52.7200901 27.2575977 52.7200901 27.2575977 50.3360399 26.1598673 50.3360399"></polygon>
                <path d="M20.9581795,49.549105 C21.3632476,49.645572 21.6710041,49.7188075 22.0896539,49.8183908 C21.9209338,50.638997 21.7631351,51.4063411 21.5839138,52.2773764 C21.1936874,52.2215644 20.8713692,52.1753849 20.4936043,52.1212728 C20.4724618,51.2061828 20.7495547,50.4415302 20.9581795,49.549105" id="Fill-66" fill="#FFFFFF" mask="url(#mask-2)"></path>
                <path d="M24.262922,52.6785144 C23.8472126,52.6372929 23.5397361,52.6066955 23.1044244,52.5634907 C23.1738727,51.7458593 23.2374402,50.9969304 23.3047882,50.2050801 L24.5226529,50.2050801 C24.4344424,51.0449513 24.355333,51.7982715 24.262922,52.6785144" id="Fill-67" fill="#FFFFFF" mask="url(#mask-2)"></path>
                <polygon id="Fill-68" fill="#FFFFFF" mask="url(#mask-2)" points="29.0608719 52.6125741 30.1500613 52.6125741 30.1500613 50.3571465 29.0608719 50.3571465"></polygon>
                <path d="M113.613499,32.423961 C113.753096,32.3453426 113.890872,32.2049627 114.028089,32.2055276 C114.214451,32.2065209 114.487063,32.2623329 114.564072,32.3913804 C114.660404,32.5532919 114.667124,32.8521835 114.578074,33.0182029 C114.508066,33.1488086 114.21109,33.2575995 114.055952,33.2166613 C113.767378,33.140451 113.53131,33.0547498 113.220193,33.1986711 C113.081016,33.2629824 112.762758,33.1257189 112.644444,32.9806644 C112.550213,32.8650741 112.560294,32.5280773 112.661106,32.4178699 C112.787121,32.2803231 113.051473,32.2399515 113.260517,32.2255027 C113.372811,32.2178533 113.494485,32.352567 113.613499,32.423961" id="Fill-69" fill="#FFFFFF" mask="url(#mask-2)"></path>
            </g>
        </g>
    </g>
</svg>